<svg width="1295" height="593" viewBox="0 0 1295 593" fill="none" xmlns="http://www.w3.org/2000/svg">
<rect width="1295" height="593" fill="#F2F2F2"/>
<rect x="111" y="110" width="381" height="152" rx="6" fill="#15202B"/>
<rect x="651" y="110" width="458" height="393" rx="6" fill="#15202B"/>
<path d="M834.062 144.646H828.051V155H824.658V129.406H833.131C836.014 129.406 838.229 130.062 839.775 131.375C841.334 132.688 842.113 134.598 842.113 137.105C842.113 138.699 841.68 140.088 840.812 141.271C839.957 142.455 838.762 143.34 837.227 143.926L843.238 154.789V155H839.617L834.062 144.646ZM828.051 141.887H833.236C834.912 141.887 836.242 141.453 837.227 140.586C838.223 139.719 838.721 138.559 838.721 137.105C838.721 135.523 838.246 134.311 837.297 133.467C836.359 132.623 835 132.195 833.219 132.184H828.051V141.887ZM854.242 155.352C851.664 155.352 849.566 154.508 847.949 152.82C846.332 151.121 845.523 148.854 845.523 146.018V145.42C845.523 143.533 845.881 141.852 846.596 140.375C847.322 138.887 848.33 137.727 849.619 136.895C850.92 136.051 852.326 135.629 853.838 135.629C856.311 135.629 858.232 136.443 859.604 138.072C860.975 139.701 861.66 142.033 861.66 145.068V146.422H848.775C848.822 148.297 849.367 149.814 850.41 150.975C851.465 152.123 852.801 152.697 854.418 152.697C855.566 152.697 856.539 152.463 857.336 151.994C858.133 151.525 858.83 150.904 859.428 150.131L861.414 151.678C859.82 154.127 857.43 155.352 854.242 155.352ZM853.838 138.301C852.525 138.301 851.424 138.781 850.533 139.742C849.643 140.691 849.092 142.027 848.881 143.75H858.408V143.504C858.314 141.852 857.869 140.574 857.072 139.672C856.275 138.758 855.197 138.301 853.838 138.301ZM864.648 145.332C864.648 142.414 865.34 140.07 866.723 138.301C868.105 136.52 869.916 135.629 872.154 135.629C874.381 135.629 876.145 136.391 877.445 137.914V128H880.697V155H877.709L877.551 152.961C876.25 154.555 874.439 155.352 872.119 155.352C869.916 155.352 868.117 154.449 866.723 152.645C865.34 150.84 864.648 148.484 864.648 145.578V145.332ZM867.9 145.701C867.9 147.857 868.346 149.545 869.236 150.764C870.127 151.982 871.357 152.592 872.928 152.592C874.99 152.592 876.496 151.666 877.445 149.814V141.078C876.473 139.285 874.979 138.389 872.963 138.389C871.369 138.389 870.127 139.004 869.236 140.234C868.346 141.465 867.9 143.287 867.9 145.701ZM897.502 153.119C896.236 154.607 894.379 155.352 891.93 155.352C889.902 155.352 888.355 154.766 887.289 153.594C886.234 152.41 885.701 150.664 885.689 148.355V135.98H888.941V148.268C888.941 151.15 890.113 152.592 892.457 152.592C894.941 152.592 896.594 151.666 897.414 149.814V135.98H900.666V155H897.572L897.502 153.119ZM913.252 152.697C914.412 152.697 915.426 152.346 916.293 151.643C917.16 150.939 917.641 150.061 917.734 149.006H920.811C920.752 150.096 920.377 151.133 919.686 152.117C918.994 153.102 918.068 153.887 916.908 154.473C915.76 155.059 914.541 155.352 913.252 155.352C910.662 155.352 908.6 154.49 907.064 152.768C905.541 151.033 904.779 148.666 904.779 145.666V145.121C904.779 143.27 905.119 141.623 905.799 140.182C906.479 138.74 907.451 137.621 908.717 136.824C909.994 136.027 911.5 135.629 913.234 135.629C915.367 135.629 917.137 136.268 918.543 137.545C919.961 138.822 920.717 140.48 920.811 142.52H917.734C917.641 141.289 917.172 140.281 916.328 139.496C915.496 138.699 914.465 138.301 913.234 138.301C911.582 138.301 910.299 138.898 909.385 140.094C908.482 141.277 908.031 142.994 908.031 145.244V145.859C908.031 148.051 908.482 149.738 909.385 150.922C910.287 152.105 911.576 152.697 913.252 152.697ZM932.359 155.352C929.781 155.352 927.684 154.508 926.066 152.82C924.449 151.121 923.641 148.854 923.641 146.018V145.42C923.641 143.533 923.998 141.852 924.713 140.375C925.439 138.887 926.447 137.727 927.736 136.895C929.037 136.051 930.443 135.629 931.955 135.629C934.428 135.629 936.35 136.443 937.721 138.072C939.092 139.701 939.777 142.033 939.777 145.068V146.422H926.893C926.939 148.297 927.484 149.814 928.527 150.975C929.582 152.123 930.918 152.697 932.535 152.697C933.684 152.697 934.656 152.463 935.453 151.994C936.25 151.525 936.947 150.904 937.545 150.131L939.531 151.678C937.938 154.127 935.547 155.352 932.359 155.352ZM931.955 138.301C930.643 138.301 929.541 138.781 928.65 139.742C927.76 140.691 927.209 142.027 926.998 143.75H936.525V143.504C936.432 141.852 935.986 140.574 935.189 139.672C934.393 138.758 933.314 138.301 931.955 138.301ZM952.75 138.898C952.258 138.816 951.725 138.775 951.15 138.775C949.018 138.775 947.57 139.684 946.809 141.5V155H943.557V135.98H946.721L946.773 138.178C947.84 136.479 949.352 135.629 951.309 135.629C951.941 135.629 952.422 135.711 952.75 135.875V138.898Z" fill="#E5E5E5"/>
<path d="M536.129 175.938L541.707 189.859L547.285 175.938H550.203V193H547.953V186.355L548.164 179.184L542.562 193H540.84L535.25 179.219L535.473 186.355V193H533.223V175.938H536.129ZM561.664 193C561.539 192.75 561.438 192.305 561.359 191.664C560.352 192.711 559.148 193.234 557.75 193.234C556.5 193.234 555.473 192.883 554.668 192.18C553.871 191.469 553.473 190.57 553.473 189.484C553.473 188.164 553.973 187.141 554.973 186.414C555.98 185.68 557.395 185.312 559.215 185.312H561.324V184.316C561.324 183.559 561.098 182.957 560.645 182.512C560.191 182.059 559.523 181.832 558.641 181.832C557.867 181.832 557.219 182.027 556.695 182.418C556.172 182.809 555.91 183.281 555.91 183.836H553.73C553.73 183.203 553.953 182.594 554.398 182.008C554.852 181.414 555.461 180.945 556.227 180.602C557 180.258 557.848 180.086 558.77 180.086C560.23 180.086 561.375 180.453 562.203 181.188C563.031 181.914 563.461 182.918 563.492 184.199V190.035C563.492 191.199 563.641 192.125 563.938 192.812V193H561.664ZM558.066 191.348C558.746 191.348 559.391 191.172 560 190.82C560.609 190.469 561.051 190.012 561.324 189.449V186.848H559.625C556.969 186.848 555.641 187.625 555.641 189.18C555.641 189.859 555.867 190.391 556.32 190.773C556.773 191.156 557.355 191.348 558.066 191.348ZM577.602 186.801C577.602 188.73 577.16 190.285 576.277 191.465C575.395 192.645 574.199 193.234 572.691 193.234C571.152 193.234 569.941 192.746 569.059 191.77V197.875H566.891V180.32H568.871L568.977 181.727C569.859 180.633 571.086 180.086 572.656 180.086C574.18 180.086 575.383 180.66 576.266 181.809C577.156 182.957 577.602 184.555 577.602 186.602V186.801ZM575.434 186.555C575.434 185.125 575.129 183.996 574.52 183.168C573.91 182.34 573.074 181.926 572.012 181.926C570.699 181.926 569.715 182.508 569.059 183.672V189.73C569.707 190.887 570.699 191.465 572.035 191.465C573.074 191.465 573.898 191.055 574.508 190.234C575.125 189.406 575.434 188.18 575.434 186.555ZM591.078 186.801C591.078 188.73 590.637 190.285 589.754 191.465C588.871 192.645 587.676 193.234 586.168 193.234C584.629 193.234 583.418 192.746 582.535 191.77V197.875H580.367V180.32H582.348L582.453 181.727C583.336 180.633 584.562 180.086 586.133 180.086C587.656 180.086 588.859 180.66 589.742 181.809C590.633 182.957 591.078 184.555 591.078 186.602V186.801ZM588.91 186.555C588.91 185.125 588.605 183.996 587.996 183.168C587.387 182.34 586.551 181.926 585.488 181.926C584.176 181.926 583.191 182.508 582.535 183.672V189.73C583.184 190.887 584.176 191.465 585.512 191.465C586.551 191.465 587.375 191.055 587.984 190.234C588.602 189.406 588.91 188.18 588.91 186.555ZM596.199 193H594.031V180.32H596.199V193ZM593.855 176.957C593.855 176.605 593.961 176.309 594.172 176.066C594.391 175.824 594.711 175.703 595.133 175.703C595.555 175.703 595.875 175.824 596.094 176.066C596.312 176.309 596.422 176.605 596.422 176.957C596.422 177.309 596.312 177.602 596.094 177.836C595.875 178.07 595.555 178.188 595.133 178.188C594.711 178.188 594.391 178.07 594.172 177.836C593.961 177.602 593.855 177.309 593.855 176.957ZM601.73 180.32L601.801 181.914C602.77 180.695 604.035 180.086 605.598 180.086C608.277 180.086 609.629 181.598 609.652 184.621V193H607.484V184.609C607.477 183.695 607.266 183.02 606.852 182.582C606.445 182.145 605.809 181.926 604.941 181.926C604.238 181.926 603.621 182.113 603.09 182.488C602.559 182.863 602.145 183.355 601.848 183.965V193H599.68V180.32H601.73ZM612.406 186.555C612.406 184.578 612.863 183.008 613.777 181.844C614.691 180.672 615.902 180.086 617.41 180.086C618.957 180.086 620.164 180.633 621.031 181.727L621.137 180.32H623.117V192.695C623.117 194.336 622.629 195.629 621.652 196.574C620.684 197.52 619.379 197.992 617.738 197.992C616.824 197.992 615.93 197.797 615.055 197.406C614.18 197.016 613.512 196.48 613.051 195.801L614.176 194.5C615.105 195.648 616.242 196.223 617.586 196.223C618.641 196.223 619.461 195.926 620.047 195.332C620.641 194.738 620.938 193.902 620.938 192.824V191.734C620.07 192.734 618.887 193.234 617.387 193.234C615.902 193.234 614.699 192.637 613.777 191.441C612.863 190.246 612.406 188.617 612.406 186.555ZM614.586 186.801C614.586 188.23 614.879 189.355 615.465 190.176C616.051 190.988 616.871 191.395 617.926 191.395C619.293 191.395 620.297 190.773 620.938 189.531V183.742C620.273 182.531 619.277 181.926 617.949 181.926C616.895 181.926 616.07 182.336 615.477 183.156C614.883 183.977 614.586 185.191 614.586 186.801Z" fill="#15202B"/>
<path d="M708.256 201.296C706.809 200.88 705.754 200.37 705.092 199.767C704.436 199.157 704.107 198.407 704.107 197.517C704.107 196.509 704.509 195.677 705.312 195.021C706.12 194.358 707.169 194.027 708.458 194.027C709.337 194.027 710.119 194.197 710.805 194.537C711.496 194.877 712.029 195.346 712.404 195.943C712.785 196.541 712.976 197.194 712.976 197.903H711.279C711.279 197.13 711.033 196.523 710.541 196.084C710.049 195.639 709.354 195.416 708.458 195.416C707.626 195.416 706.976 195.601 706.507 195.97C706.044 196.333 705.812 196.84 705.812 197.49C705.812 198.012 706.032 198.454 706.472 198.817C706.917 199.175 707.67 199.503 708.73 199.802C709.797 200.101 710.629 200.432 711.227 200.795C711.83 201.152 712.275 201.571 712.562 202.052C712.855 202.532 713.002 203.098 713.002 203.748C713.002 204.785 712.598 205.617 711.789 206.244C710.98 206.865 709.899 207.176 708.546 207.176C707.667 207.176 706.847 207.009 706.085 206.675C705.323 206.335 704.734 205.872 704.318 205.286C703.908 204.7 703.703 204.035 703.703 203.291H705.399C705.399 204.064 705.684 204.677 706.252 205.128C706.826 205.573 707.591 205.796 708.546 205.796C709.437 205.796 710.119 205.614 710.594 205.251C711.068 204.888 711.306 204.393 711.306 203.766C711.306 203.139 711.086 202.655 710.646 202.315C710.207 201.97 709.41 201.63 708.256 201.296ZM723.338 204.759L725.166 197.49H726.792L724.023 207H722.705L720.394 199.793L718.144 207H716.825L714.065 197.49H715.683L717.555 204.609L719.77 197.49H721.079L723.338 204.759ZM730.22 207H728.594V197.49H730.22V207ZM728.462 194.968C728.462 194.704 728.541 194.481 728.699 194.3C728.863 194.118 729.104 194.027 729.42 194.027C729.736 194.027 729.977 194.118 730.141 194.3C730.305 194.481 730.387 194.704 730.387 194.968C730.387 195.231 730.305 195.451 730.141 195.627C729.977 195.803 729.736 195.891 729.42 195.891C729.104 195.891 728.863 195.803 728.699 195.627C728.541 195.451 728.462 195.231 728.462 194.968ZM735.036 195.188V197.49H736.812V198.747H735.036V204.645C735.036 205.025 735.115 205.312 735.273 205.506C735.432 205.693 735.701 205.787 736.082 205.787C736.27 205.787 736.527 205.752 736.855 205.682V207C736.428 207.117 736.012 207.176 735.607 207.176C734.881 207.176 734.333 206.956 733.964 206.517C733.595 206.077 733.41 205.453 733.41 204.645V198.747H731.679V197.49H733.41V195.188H735.036ZM742.533 205.849C743.113 205.849 743.62 205.673 744.054 205.321C744.487 204.97 744.728 204.53 744.774 204.003H746.312C746.283 204.548 746.096 205.066 745.75 205.559C745.404 206.051 744.941 206.443 744.361 206.736C743.787 207.029 743.178 207.176 742.533 207.176C741.238 207.176 740.207 206.745 739.439 205.884C738.678 205.017 738.297 203.833 738.297 202.333V202.061C738.297 201.135 738.467 200.312 738.807 199.591C739.146 198.87 739.633 198.311 740.266 197.912C740.904 197.514 741.657 197.314 742.524 197.314C743.591 197.314 744.476 197.634 745.179 198.272C745.888 198.911 746.266 199.74 746.312 200.76H744.774C744.728 200.145 744.493 199.641 744.071 199.248C743.655 198.85 743.14 198.65 742.524 198.65C741.698 198.65 741.057 198.949 740.6 199.547C740.148 200.139 739.923 200.997 739.923 202.122V202.43C739.923 203.525 740.148 204.369 740.6 204.961C741.051 205.553 741.695 205.849 742.533 205.849ZM749.767 198.642C750.487 197.757 751.425 197.314 752.579 197.314C754.589 197.314 755.603 198.448 755.62 200.716V207H753.994V200.707C753.988 200.021 753.83 199.515 753.52 199.187C753.215 198.858 752.737 198.694 752.087 198.694C751.56 198.694 751.097 198.835 750.698 199.116C750.3 199.397 749.989 199.767 749.767 200.224V207H748.141V193.5H749.767V198.642ZM758.002 206.147C758.002 205.866 758.084 205.632 758.248 205.444C758.418 205.257 758.67 205.163 759.004 205.163C759.338 205.163 759.59 205.257 759.76 205.444C759.936 205.632 760.023 205.866 760.023 206.147C760.023 206.417 759.936 206.643 759.76 206.824C759.59 207.006 759.338 207.097 759.004 207.097C758.67 207.097 758.418 207.006 758.248 206.824C758.084 206.643 758.002 206.417 758.002 206.147ZM758.011 198.387C758.011 198.105 758.093 197.871 758.257 197.684C758.427 197.496 758.679 197.402 759.013 197.402C759.347 197.402 759.599 197.496 759.769 197.684C759.944 197.871 760.032 198.105 760.032 198.387C760.032 198.656 759.944 198.882 759.769 199.063C759.599 199.245 759.347 199.336 759.013 199.336C758.679 199.336 758.427 199.245 758.257 199.063C758.093 198.882 758.011 198.656 758.011 198.387Z" fill="#E5E5E5"/>
<path d="M709.334 238.015C709.334 239.269 709.123 240.364 708.701 241.302C708.279 242.233 707.682 242.945 706.908 243.438C706.135 243.93 705.232 244.176 704.201 244.176C703.193 244.176 702.3 243.93 701.521 243.438C700.741 242.939 700.135 242.233 699.701 241.319C699.273 240.399 699.054 239.336 699.042 238.129V237.206C699.042 235.976 699.256 234.889 699.684 233.945C700.111 233.002 700.715 232.281 701.494 231.783C702.279 231.279 703.176 231.027 704.184 231.027C705.209 231.027 706.111 231.276 706.891 231.774C707.676 232.267 708.279 232.984 708.701 233.928C709.123 234.865 709.334 235.958 709.334 237.206V238.015ZM707.655 237.188C707.655 235.671 707.351 234.508 706.741 233.699C706.132 232.885 705.279 232.478 704.184 232.478C703.117 232.478 702.276 232.885 701.661 233.699C701.052 234.508 700.738 235.633 700.721 237.074V238.015C700.721 239.485 701.028 240.643 701.644 241.486C702.265 242.324 703.117 242.743 704.201 242.743C705.291 242.743 706.135 242.348 706.732 241.557C707.33 240.76 707.638 239.62 707.655 238.138V237.188ZM713.148 234.49L713.201 235.686C713.928 234.771 714.877 234.314 716.049 234.314C718.059 234.314 719.072 235.448 719.09 237.716V244H717.464V237.707C717.458 237.021 717.3 236.515 716.989 236.187C716.685 235.858 716.207 235.694 715.557 235.694C715.029 235.694 714.566 235.835 714.168 236.116C713.77 236.397 713.459 236.767 713.236 237.224V244H711.61V234.49H713.148ZM723.309 244H721.683V230.5H723.309V244ZM729.03 241.618L731.245 234.49H732.985L729.162 245.468C728.57 247.05 727.63 247.841 726.341 247.841L726.033 247.814L725.427 247.7V246.382L725.866 246.417C726.417 246.417 726.845 246.306 727.149 246.083C727.46 245.86 727.715 245.453 727.914 244.861L728.274 243.895L724.882 234.49H726.657L729.03 241.618ZM749.008 238.015C749.008 239.269 748.797 240.364 748.375 241.302C747.953 242.233 747.355 242.945 746.582 243.438C745.809 243.93 744.906 244.176 743.875 244.176C742.867 244.176 741.974 243.93 741.194 243.438C740.415 242.939 739.809 242.233 739.375 241.319C738.947 240.399 738.728 239.336 738.716 238.129V237.206C738.716 235.976 738.93 234.889 739.357 233.945C739.785 233.002 740.389 232.281 741.168 231.783C741.953 231.279 742.85 231.027 743.857 231.027C744.883 231.027 745.785 231.276 746.564 231.774C747.35 232.267 747.953 232.984 748.375 233.928C748.797 234.865 749.008 235.958 749.008 237.206V238.015ZM747.329 237.188C747.329 235.671 747.024 234.508 746.415 233.699C745.806 232.885 744.953 232.478 743.857 232.478C742.791 232.478 741.95 232.885 741.335 233.699C740.726 234.508 740.412 235.633 740.395 237.074V238.015C740.395 239.485 740.702 240.643 741.317 241.486C741.938 242.324 742.791 242.743 743.875 242.743C744.965 242.743 745.809 242.348 746.406 241.557C747.004 240.76 747.312 239.62 747.329 238.138V237.188ZM752.822 234.49L752.875 235.686C753.602 234.771 754.551 234.314 755.723 234.314C757.732 234.314 758.746 235.448 758.764 237.716V244H757.138V237.707C757.132 237.021 756.974 236.515 756.663 236.187C756.358 235.858 755.881 235.694 755.23 235.694C754.703 235.694 754.24 235.835 753.842 236.116C753.443 236.397 753.133 236.767 752.91 237.224V244H751.284V234.49H752.822ZM765.162 244.176C763.873 244.176 762.824 243.754 762.016 242.91C761.207 242.061 760.803 240.927 760.803 239.509V239.21C760.803 238.267 760.981 237.426 761.339 236.688C761.702 235.943 762.206 235.363 762.851 234.947C763.501 234.525 764.204 234.314 764.96 234.314C766.196 234.314 767.157 234.722 767.843 235.536C768.528 236.351 768.871 237.517 768.871 239.034V239.711H762.429C762.452 240.648 762.725 241.407 763.246 241.987C763.773 242.562 764.441 242.849 765.25 242.849C765.824 242.849 766.311 242.731 766.709 242.497C767.107 242.263 767.456 241.952 767.755 241.565L768.748 242.339C767.951 243.563 766.756 244.176 765.162 244.176ZM764.96 235.65C764.304 235.65 763.753 235.891 763.308 236.371C762.862 236.846 762.587 237.514 762.481 238.375H767.245V238.252C767.198 237.426 766.976 236.787 766.577 236.336C766.179 235.879 765.64 235.65 764.96 235.65ZM726.728 260.939C726.569 262.293 726.068 263.339 725.225 264.077C724.387 264.81 723.271 265.176 721.876 265.176C720.364 265.176 719.151 264.634 718.237 263.55C717.329 262.466 716.875 261.016 716.875 259.199V257.969C716.875 256.779 717.086 255.733 717.508 254.831C717.936 253.929 718.539 253.237 719.318 252.757C720.098 252.271 721 252.027 722.025 252.027C723.385 252.027 724.475 252.408 725.295 253.17C726.115 253.926 726.593 254.975 726.728 256.316H725.031C724.885 255.297 724.565 254.559 724.073 254.102C723.587 253.645 722.904 253.416 722.025 253.416C720.947 253.416 720.101 253.814 719.485 254.611C718.876 255.408 718.571 256.542 718.571 258.013V259.252C718.571 260.641 718.861 261.745 719.441 262.565C720.021 263.386 720.833 263.796 721.876 263.796C722.813 263.796 723.531 263.585 724.029 263.163C724.533 262.735 724.867 261.994 725.031 260.939H726.728ZM734.655 265C734.562 264.812 734.485 264.479 734.427 263.998C733.671 264.783 732.769 265.176 731.72 265.176C730.782 265.176 730.012 264.912 729.408 264.385C728.811 263.852 728.512 263.178 728.512 262.363C728.512 261.373 728.887 260.605 729.637 260.061C730.393 259.51 731.453 259.234 732.818 259.234H734.4V258.487C734.4 257.919 734.23 257.468 733.891 257.134C733.551 256.794 733.05 256.624 732.388 256.624C731.808 256.624 731.321 256.771 730.929 257.063C730.536 257.356 730.34 257.711 730.34 258.127H728.705C728.705 257.652 728.872 257.195 729.206 256.756C729.546 256.311 730.003 255.959 730.577 255.701C731.157 255.443 731.793 255.314 732.484 255.314C733.58 255.314 734.438 255.59 735.06 256.141C735.681 256.686 736.003 257.438 736.026 258.399V262.776C736.026 263.649 736.138 264.344 736.36 264.859V265H734.655ZM731.957 263.761C732.467 263.761 732.95 263.629 733.407 263.365C733.864 263.102 734.195 262.759 734.4 262.337V260.386H733.126C731.134 260.386 730.138 260.969 730.138 262.135C730.138 262.645 730.308 263.043 730.647 263.33C730.987 263.617 731.424 263.761 731.957 263.761ZM744.112 262.478C744.112 262.038 743.945 261.698 743.611 261.458C743.283 261.212 742.706 261.001 741.88 260.825C741.06 260.649 740.406 260.438 739.92 260.192C739.439 259.946 739.082 259.653 738.848 259.313C738.619 258.974 738.505 258.569 738.505 258.101C738.505 257.321 738.833 256.662 739.489 256.123C740.151 255.584 740.995 255.314 742.021 255.314C743.099 255.314 743.972 255.593 744.64 256.149C745.313 256.706 745.65 257.418 745.65 258.285H744.016C744.016 257.84 743.825 257.456 743.444 257.134C743.069 256.812 742.595 256.65 742.021 256.65C741.429 256.65 740.966 256.779 740.632 257.037C740.298 257.295 740.131 257.632 740.131 258.048C740.131 258.44 740.286 258.736 740.597 258.936C740.907 259.135 741.467 259.325 742.275 259.507C743.09 259.688 743.749 259.905 744.253 260.157C744.757 260.409 745.129 260.714 745.369 261.071C745.615 261.423 745.738 261.854 745.738 262.363C745.738 263.213 745.398 263.896 744.719 264.411C744.039 264.921 743.157 265.176 742.073 265.176C741.312 265.176 740.638 265.041 740.052 264.771C739.466 264.502 739.006 264.127 738.672 263.646C738.344 263.16 738.18 262.636 738.18 262.073H739.806C739.835 262.618 740.052 263.052 740.456 263.374C740.866 263.69 741.405 263.849 742.073 263.849C742.688 263.849 743.181 263.726 743.55 263.479C743.925 263.228 744.112 262.894 744.112 262.478ZM751.803 265.176C750.514 265.176 749.465 264.754 748.656 263.91C747.848 263.061 747.443 261.927 747.443 260.509V260.21C747.443 259.267 747.622 258.426 747.979 257.688C748.343 256.943 748.847 256.363 749.491 255.947C750.142 255.525 750.845 255.314 751.601 255.314C752.837 255.314 753.798 255.722 754.483 256.536C755.169 257.351 755.512 258.517 755.512 260.034V260.711H749.069C749.093 261.648 749.365 262.407 749.887 262.987C750.414 263.562 751.082 263.849 751.891 263.849C752.465 263.849 752.951 263.731 753.35 263.497C753.748 263.263 754.097 262.952 754.396 262.565L755.389 263.339C754.592 264.563 753.396 265.176 751.803 265.176ZM751.601 256.65C750.944 256.65 750.394 256.891 749.948 257.371C749.503 257.846 749.228 258.514 749.122 259.375H753.886V259.252C753.839 258.426 753.616 257.787 753.218 257.336C752.819 256.879 752.28 256.65 751.601 256.65Z" fill="#E5E5E5"/>
<path d="M254.195 145.32H243.473L241.064 152H237.584L247.357 126.406H250.311L260.102 152H256.639L254.195 145.32ZM244.492 142.543H253.193L248.834 130.572L244.492 142.543ZM270.666 149.697C271.826 149.697 272.84 149.346 273.707 148.643C274.574 147.939 275.055 147.061 275.148 146.006H278.225C278.166 147.096 277.791 148.133 277.1 149.117C276.408 150.102 275.482 150.887 274.322 151.473C273.174 152.059 271.955 152.352 270.666 152.352C268.076 152.352 266.014 151.49 264.479 149.768C262.955 148.033 262.193 145.666 262.193 142.666V142.121C262.193 140.27 262.533 138.623 263.213 137.182C263.893 135.74 264.865 134.621 266.131 133.824C267.408 133.027 268.914 132.629 270.648 132.629C272.781 132.629 274.551 133.268 275.957 134.545C277.375 135.822 278.131 137.48 278.225 139.52H275.148C275.055 138.289 274.586 137.281 273.742 136.496C272.91 135.699 271.879 135.301 270.648 135.301C268.996 135.301 267.713 135.898 266.799 137.094C265.896 138.277 265.445 139.994 265.445 142.244V142.859C265.445 145.051 265.896 146.738 266.799 147.922C267.701 149.105 268.99 149.697 270.666 149.697ZM286.293 128.375V132.98H289.844V135.494H286.293V147.289C286.293 148.051 286.451 148.625 286.768 149.012C287.084 149.387 287.623 149.574 288.385 149.574C288.76 149.574 289.275 149.504 289.932 149.363V152C289.076 152.234 288.244 152.352 287.436 152.352C285.982 152.352 284.887 151.912 284.148 151.033C283.41 150.154 283.041 148.906 283.041 147.289V135.494H279.578V132.98H283.041V128.375H286.293ZM297.191 152H293.939V132.98H297.191V152ZM293.676 127.936C293.676 127.408 293.834 126.963 294.15 126.6C294.479 126.236 294.959 126.055 295.592 126.055C296.225 126.055 296.705 126.236 297.033 126.6C297.361 126.963 297.525 127.408 297.525 127.936C297.525 128.463 297.361 128.902 297.033 129.254C296.705 129.605 296.225 129.781 295.592 129.781C294.959 129.781 294.479 129.605 294.15 129.254C293.834 128.902 293.676 128.463 293.676 127.936ZM301.551 142.314C301.551 140.451 301.914 138.775 302.641 137.287C303.379 135.799 304.398 134.65 305.699 133.842C307.012 133.033 308.506 132.629 310.182 132.629C312.771 132.629 314.863 133.525 316.457 135.318C318.062 137.111 318.865 139.496 318.865 142.473V142.701C318.865 144.553 318.508 146.217 317.793 147.693C317.09 149.158 316.076 150.301 314.752 151.121C313.439 151.941 311.928 152.352 310.217 152.352C307.639 152.352 305.547 151.455 303.941 149.662C302.348 147.869 301.551 145.496 301.551 142.543V142.314ZM304.82 142.701C304.82 144.811 305.307 146.504 306.279 147.781C307.264 149.059 308.576 149.697 310.217 149.697C311.869 149.697 313.182 149.053 314.154 147.764C315.127 146.463 315.613 144.646 315.613 142.314C315.613 140.229 315.115 138.541 314.119 137.252C313.135 135.951 311.822 135.301 310.182 135.301C308.576 135.301 307.281 135.939 306.297 137.217C305.312 138.494 304.82 140.322 304.82 142.701ZM326.02 132.98L326.125 135.371C327.578 133.543 329.477 132.629 331.82 132.629C335.84 132.629 337.867 134.896 337.902 139.432V152H334.65V139.414C334.639 138.043 334.322 137.029 333.701 136.373C333.092 135.717 332.137 135.389 330.836 135.389C329.781 135.389 328.855 135.67 328.059 136.232C327.262 136.795 326.641 137.533 326.195 138.447V152H322.943V132.98H326.02ZM353.881 146.955C353.881 146.076 353.547 145.396 352.879 144.916C352.223 144.424 351.068 144.002 349.416 143.65C347.775 143.299 346.469 142.877 345.496 142.385C344.535 141.893 343.82 141.307 343.352 140.627C342.895 139.947 342.666 139.139 342.666 138.201C342.666 136.643 343.322 135.324 344.635 134.246C345.959 133.168 347.646 132.629 349.697 132.629C351.854 132.629 353.6 133.186 354.936 134.299C356.283 135.412 356.957 136.836 356.957 138.57H353.688C353.688 137.68 353.307 136.912 352.545 136.268C351.795 135.623 350.846 135.301 349.697 135.301C348.514 135.301 347.588 135.559 346.92 136.074C346.252 136.59 345.918 137.264 345.918 138.096C345.918 138.881 346.229 139.473 346.85 139.871C347.471 140.27 348.59 140.65 350.207 141.014C351.836 141.377 353.154 141.811 354.162 142.314C355.17 142.818 355.914 143.428 356.395 144.143C356.887 144.846 357.133 145.707 357.133 146.727C357.133 148.426 356.453 149.791 355.094 150.822C353.734 151.842 351.971 152.352 349.803 152.352C348.279 152.352 346.932 152.082 345.76 151.543C344.588 151.004 343.668 150.254 343 149.293C342.344 148.32 342.016 147.271 342.016 146.146H345.268C345.326 147.236 345.76 148.104 346.568 148.748C347.389 149.381 348.467 149.697 349.803 149.697C351.033 149.697 352.018 149.451 352.756 148.959C353.506 148.455 353.881 147.787 353.881 146.955Z" fill="#E5E5E5"/>
<rect x="141" y="176" width="308" height="35" rx="6" fill="#C4C4C4"/>
<rect x="791" y="230" width="281" height="35" rx="6" fill="#C4C4C4"/>
<path d="M178.147 194.99V200H176.46V187.203H181.18C182.58 187.203 183.676 187.561 184.467 188.275C185.264 188.99 185.662 189.937 185.662 191.114C185.662 192.356 185.272 193.314 184.493 193.988C183.72 194.656 182.609 194.99 181.162 194.99H178.147ZM178.147 193.61H181.18C182.082 193.61 182.773 193.399 183.254 192.978C183.734 192.55 183.975 191.935 183.975 191.132C183.975 190.37 183.734 189.761 183.254 189.304C182.773 188.847 182.114 188.609 181.276 188.592H178.147V193.61ZM197.659 194.015C197.659 195.269 197.448 196.364 197.026 197.302C196.604 198.233 196.007 198.945 195.233 199.438C194.46 199.93 193.558 200.176 192.526 200.176C191.519 200.176 190.625 199.93 189.846 199.438C189.066 198.939 188.46 198.233 188.026 197.319C187.599 196.399 187.379 195.336 187.367 194.129V193.206C187.367 191.976 187.581 190.889 188.009 189.945C188.437 189.002 189.04 188.281 189.819 187.783C190.604 187.279 191.501 187.027 192.509 187.027C193.534 187.027 194.437 187.276 195.216 187.774C196.001 188.267 196.604 188.984 197.026 189.928C197.448 190.865 197.659 191.958 197.659 193.206V194.015ZM195.98 193.188C195.98 191.671 195.676 190.508 195.066 189.699C194.457 188.885 193.604 188.478 192.509 188.478C191.442 188.478 190.602 188.885 189.986 189.699C189.377 190.508 189.063 191.633 189.046 193.074V194.015C189.046 195.485 189.354 196.643 189.969 197.486C190.59 198.324 191.442 198.743 192.526 198.743C193.616 198.743 194.46 198.348 195.058 197.557C195.655 196.76 195.963 195.62 195.98 194.138V193.188ZM203.961 194.296C202.514 193.88 201.459 193.37 200.797 192.767C200.141 192.157 199.812 191.407 199.812 190.517C199.812 189.509 200.214 188.677 201.017 188.021C201.825 187.358 202.874 187.027 204.163 187.027C205.042 187.027 205.824 187.197 206.51 187.537C207.201 187.877 207.734 188.346 208.109 188.943C208.49 189.541 208.681 190.194 208.681 190.903H206.984C206.984 190.13 206.738 189.523 206.246 189.084C205.754 188.639 205.06 188.416 204.163 188.416C203.331 188.416 202.681 188.601 202.212 188.97C201.749 189.333 201.518 189.84 201.518 190.49C201.518 191.012 201.737 191.454 202.177 191.817C202.622 192.175 203.375 192.503 204.436 192.802C205.502 193.101 206.334 193.432 206.932 193.795C207.535 194.152 207.98 194.571 208.268 195.052C208.561 195.532 208.707 196.098 208.707 196.748C208.707 197.785 208.303 198.617 207.494 199.244C206.686 199.865 205.604 200.176 204.251 200.176C203.372 200.176 202.552 200.009 201.79 199.675C201.028 199.335 200.439 198.872 200.023 198.286C199.613 197.7 199.408 197.035 199.408 196.291H201.104C201.104 197.064 201.389 197.677 201.957 198.128C202.531 198.573 203.296 198.796 204.251 198.796C205.142 198.796 205.824 198.614 206.299 198.251C206.773 197.888 207.011 197.393 207.011 196.766C207.011 196.139 206.791 195.655 206.352 195.315C205.912 194.97 205.115 194.63 203.961 194.296ZM219.72 188.592H215.606V200H213.928V188.592H209.823V187.203H219.72V188.592ZM225.248 194.296C223.801 193.88 222.746 193.37 222.084 192.767C221.428 192.157 221.1 191.407 221.1 190.517C221.1 189.509 221.501 188.677 222.304 188.021C223.112 187.358 224.161 187.027 225.45 187.027C226.329 187.027 227.111 187.197 227.797 187.537C228.488 187.877 229.021 188.346 229.396 188.943C229.777 189.541 229.968 190.194 229.968 190.903H228.271C228.271 190.13 228.025 189.523 227.533 189.084C227.041 188.639 226.347 188.416 225.45 188.416C224.618 188.416 223.968 188.601 223.499 188.97C223.036 189.333 222.805 189.84 222.805 190.49C222.805 191.012 223.024 191.454 223.464 191.817C223.909 192.175 224.662 192.503 225.723 192.802C226.789 193.101 227.621 193.432 228.219 193.795C228.822 194.152 229.268 194.571 229.555 195.052C229.848 195.532 229.994 196.098 229.994 196.748C229.994 197.785 229.59 198.617 228.781 199.244C227.973 199.865 226.892 200.176 225.538 200.176C224.659 200.176 223.839 200.009 223.077 199.675C222.315 199.335 221.727 198.872 221.311 198.286C220.9 197.7 220.695 197.035 220.695 196.291H222.392C222.392 197.064 222.676 197.677 223.244 198.128C223.818 198.573 224.583 198.796 225.538 198.796C226.429 198.796 227.111 198.614 227.586 198.251C228.061 197.888 228.298 197.393 228.298 196.766C228.298 196.139 228.078 195.655 227.639 195.315C227.199 194.97 226.402 194.63 225.248 194.296ZM238.766 201.327H230.715V200H238.766V201.327ZM244.979 194.823H241.974V200H240.277V187.203H244.514C245.955 187.203 247.062 187.531 247.836 188.188C248.615 188.844 249.005 189.799 249.005 191.053C249.005 191.85 248.788 192.544 248.354 193.136C247.927 193.728 247.329 194.17 246.562 194.463L249.567 199.895V200H247.757L244.979 194.823ZM241.974 193.443H244.566C245.404 193.443 246.069 193.227 246.562 192.793C247.06 192.359 247.309 191.779 247.309 191.053C247.309 190.262 247.071 189.655 246.597 189.233C246.128 188.812 245.448 188.598 244.558 188.592H241.974V193.443ZM258.611 194.085H253.065V198.62H259.508V200H251.378V187.203H259.42V188.592H253.065V192.705H258.611V194.085ZM261.608 200V187.203H265.221C266.334 187.203 267.318 187.449 268.174 187.941C269.029 188.434 269.688 189.134 270.151 190.042C270.62 190.95 270.857 191.993 270.863 193.171V193.988C270.863 195.195 270.629 196.253 270.16 197.161C269.697 198.069 269.032 198.767 268.165 199.253C267.304 199.739 266.299 199.988 265.15 200H261.608ZM263.296 188.592V198.62H265.071C266.372 198.62 267.383 198.216 268.104 197.407C268.83 196.599 269.193 195.447 269.193 193.953V193.206C269.193 191.753 268.851 190.625 268.165 189.822C267.485 189.014 266.519 188.604 265.265 188.592H263.296ZM282.43 187.203V195.904C282.424 197.111 282.043 198.099 281.287 198.866C280.537 199.634 279.518 200.064 278.229 200.158L277.78 200.176C276.38 200.176 275.264 199.798 274.432 199.042C273.6 198.286 273.178 197.246 273.166 195.922V187.203H274.836V195.869C274.836 196.795 275.091 197.516 275.601 198.031C276.11 198.541 276.837 198.796 277.78 198.796C278.735 198.796 279.465 198.541 279.969 198.031C280.479 197.521 280.733 196.804 280.733 195.878V187.203H282.43ZM294.506 195.939C294.348 197.293 293.847 198.339 293.003 199.077C292.165 199.81 291.049 200.176 289.654 200.176C288.143 200.176 286.93 199.634 286.016 198.55C285.107 197.466 284.653 196.016 284.653 194.199V192.969C284.653 191.779 284.864 190.733 285.286 189.831C285.714 188.929 286.317 188.237 287.097 187.757C287.876 187.271 288.778 187.027 289.804 187.027C291.163 187.027 292.253 187.408 293.073 188.17C293.894 188.926 294.371 189.975 294.506 191.316H292.81C292.663 190.297 292.344 189.559 291.852 189.102C291.365 188.645 290.683 188.416 289.804 188.416C288.726 188.416 287.879 188.814 287.264 189.611C286.654 190.408 286.35 191.542 286.35 193.013V194.252C286.35 195.641 286.64 196.745 287.22 197.565C287.8 198.386 288.611 198.796 289.654 198.796C290.592 198.796 291.31 198.585 291.808 198.163C292.312 197.735 292.646 196.994 292.81 195.939H294.506ZM304.051 194.085H298.505V198.62H304.947V200H296.817V187.203H304.859V188.592H298.505V192.705H304.051V194.085ZM311.741 194.823H308.735V200H307.039V187.203H311.275C312.717 187.203 313.824 187.531 314.598 188.188C315.377 188.844 315.767 189.799 315.767 191.053C315.767 191.85 315.55 192.544 315.116 193.136C314.688 193.728 314.091 194.17 313.323 194.463L316.329 199.895V200H314.519L311.741 194.823ZM308.735 193.443H311.328C312.166 193.443 312.831 193.227 313.323 192.793C313.821 192.359 314.07 191.779 314.07 191.053C314.07 190.262 313.833 189.655 313.358 189.233C312.89 188.812 312.21 188.598 311.319 188.592H308.735V193.443ZM324.74 201.327H316.689V200H324.74V201.327ZM330.031 194.296C328.584 193.88 327.529 193.37 326.867 192.767C326.211 192.157 325.883 191.407 325.883 190.517C325.883 189.509 326.284 188.677 327.087 188.021C327.896 187.358 328.944 187.027 330.233 187.027C331.112 187.027 331.895 187.197 332.58 187.537C333.271 187.877 333.805 188.346 334.18 188.943C334.561 189.541 334.751 190.194 334.751 190.903H333.055C333.055 190.13 332.809 189.523 332.316 189.084C331.824 188.639 331.13 188.416 330.233 188.416C329.401 188.416 328.751 188.601 328.282 188.97C327.819 189.333 327.588 189.84 327.588 190.49C327.588 191.012 327.808 191.454 328.247 191.817C328.692 192.175 329.445 192.503 330.506 192.802C331.572 193.101 332.404 193.432 333.002 193.795C333.605 194.152 334.051 194.571 334.338 195.052C334.631 195.532 334.777 196.098 334.777 196.748C334.777 197.785 334.373 198.617 333.564 199.244C332.756 199.865 331.675 200.176 330.321 200.176C329.442 200.176 328.622 200.009 327.86 199.675C327.099 199.335 326.51 198.872 326.094 198.286C325.684 197.7 325.479 197.035 325.479 196.291H327.175C327.175 197.064 327.459 197.677 328.027 198.128C328.602 198.573 329.366 198.796 330.321 198.796C331.212 198.796 331.895 198.614 332.369 198.251C332.844 197.888 333.081 197.393 333.081 196.766C333.081 196.139 332.861 195.655 332.422 195.315C331.982 194.97 331.186 194.63 330.031 194.296ZM344.182 194.085H338.636V198.62H345.078V200H336.948V187.203H344.99V188.592H338.636V192.705H344.182V194.085ZM356.196 188.592H352.083V200H350.404V188.592H346.3V187.203H356.196V188.592ZM364.695 201.327H356.645V200H364.695V201.327ZM369.986 194.296C368.539 193.88 367.484 193.37 366.822 192.767C366.166 192.157 365.838 191.407 365.838 190.517C365.838 189.509 366.239 188.677 367.042 188.021C367.851 187.358 368.899 187.027 370.188 187.027C371.067 187.027 371.85 187.197 372.535 187.537C373.227 187.877 373.76 188.346 374.135 188.943C374.516 189.541 374.706 190.194 374.706 190.903H373.01C373.01 190.13 372.764 189.523 372.271 189.084C371.779 188.639 371.085 188.416 370.188 188.416C369.356 188.416 368.706 188.601 368.237 188.97C367.774 189.333 367.543 189.84 367.543 190.49C367.543 191.012 367.763 191.454 368.202 191.817C368.647 192.175 369.4 192.503 370.461 192.802C371.527 193.101 372.359 193.432 372.957 193.795C373.561 194.152 374.006 194.571 374.293 195.052C374.586 195.532 374.732 196.098 374.732 196.748C374.732 197.785 374.328 198.617 373.52 199.244C372.711 199.865 371.63 200.176 370.276 200.176C369.397 200.176 368.577 200.009 367.815 199.675C367.054 199.335 366.465 198.872 366.049 198.286C365.639 197.7 365.434 197.035 365.434 196.291H367.13C367.13 197.064 367.414 197.677 367.982 198.128C368.557 198.573 369.321 198.796 370.276 198.796C371.167 198.796 371.85 198.614 372.324 198.251C372.799 197.888 373.036 197.393 373.036 196.766C373.036 196.139 372.816 195.655 372.377 195.315C371.938 194.97 371.141 194.63 369.986 194.296ZM385.745 188.592H381.632V200H379.953V188.592H375.849V187.203H385.745V188.592ZM394.007 196.66H388.646L387.441 200H385.701L390.588 187.203H392.064L396.96 200H395.229L394.007 196.66ZM389.155 195.271H393.506L391.326 189.286L389.155 195.271ZM406.382 188.592H402.269V200H400.59V188.592H396.485V187.203H406.382V188.592ZM415.514 194.085H409.968V198.62H416.41V200H408.28V187.203H416.322V188.592H409.968V192.705H415.514V194.085Z" fill="black"/>
<path d="M828.057 245.738C827.865 245.706 827.658 245.69 827.435 245.69C826.605 245.69 826.042 246.044 825.746 246.75V252H824.481V244.604H825.712L825.732 245.458C826.147 244.797 826.735 244.467 827.496 244.467C827.742 244.467 827.929 244.499 828.057 244.562V245.738ZM832.158 252.137C831.156 252.137 830.34 251.809 829.711 251.152C829.082 250.492 828.768 249.61 828.768 248.507V248.274C828.768 247.541 828.907 246.887 829.185 246.312C829.467 245.734 829.859 245.283 830.36 244.959C830.866 244.631 831.413 244.467 832.001 244.467C832.963 244.467 833.71 244.784 834.243 245.417C834.776 246.05 835.043 246.957 835.043 248.138V248.664H830.032C830.05 249.393 830.262 249.983 830.668 250.435C831.078 250.881 831.598 251.104 832.227 251.104C832.673 251.104 833.051 251.013 833.361 250.831C833.671 250.649 833.942 250.407 834.175 250.106L834.947 250.708C834.327 251.66 833.398 252.137 832.158 252.137ZM832.001 245.506C831.491 245.506 831.062 245.693 830.716 246.066C830.369 246.436 830.155 246.955 830.073 247.625H833.778V247.529C833.742 246.887 833.569 246.39 833.259 246.039C832.949 245.684 832.53 245.506 832.001 245.506ZM838.229 242.812V244.604H839.609V245.581H838.229V250.168C838.229 250.464 838.29 250.688 838.413 250.838C838.536 250.984 838.746 251.057 839.042 251.057C839.188 251.057 839.388 251.029 839.644 250.975V252C839.311 252.091 838.987 252.137 838.673 252.137C838.108 252.137 837.682 251.966 837.395 251.624C837.107 251.282 836.964 250.797 836.964 250.168V245.581H835.617V244.604H836.964V242.812H838.229ZM845.659 251.269C845.167 251.847 844.445 252.137 843.492 252.137C842.704 252.137 842.102 251.909 841.688 251.453C841.277 250.993 841.07 250.314 841.065 249.416V244.604H842.33V249.382C842.33 250.503 842.786 251.063 843.697 251.063C844.663 251.063 845.306 250.703 845.625 249.983V244.604H846.89V252H845.687L845.659 251.269ZM852.393 245.738C852.201 245.706 851.994 245.69 851.771 245.69C850.941 245.69 850.378 246.044 850.082 246.75V252H848.817V244.604H850.048L850.068 245.458C850.483 244.797 851.071 244.467 851.832 244.467C852.078 244.467 852.265 244.499 852.393 244.562V245.738ZM854.758 244.604L854.799 245.533C855.364 244.822 856.102 244.467 857.014 244.467C858.577 244.467 859.365 245.349 859.379 247.112V252H858.114V247.105C858.11 246.572 857.987 246.178 857.745 245.923C857.508 245.668 857.137 245.54 856.631 245.54C856.221 245.54 855.861 245.649 855.551 245.868C855.241 246.087 854.999 246.374 854.826 246.729V252H853.562V244.604H854.758ZM869.065 250.038C869.065 249.696 868.936 249.432 868.676 249.245C868.421 249.054 867.972 248.89 867.329 248.753C866.691 248.616 866.183 248.452 865.805 248.261C865.431 248.069 865.153 247.841 864.971 247.577C864.793 247.313 864.704 246.998 864.704 246.634C864.704 246.028 864.959 245.515 865.47 245.096C865.985 244.676 866.641 244.467 867.438 244.467C868.277 244.467 868.956 244.683 869.476 245.116C870 245.549 870.262 246.103 870.262 246.777H868.99C868.99 246.431 868.842 246.132 868.546 245.882C868.254 245.631 867.885 245.506 867.438 245.506C866.978 245.506 866.618 245.606 866.358 245.807C866.099 246.007 865.969 246.269 865.969 246.593C865.969 246.898 866.09 247.128 866.331 247.283C866.573 247.438 867.008 247.586 867.637 247.728C868.27 247.869 868.783 248.037 869.175 248.233C869.567 248.429 869.856 248.666 870.043 248.944C870.234 249.218 870.33 249.553 870.33 249.949C870.33 250.61 870.066 251.141 869.537 251.542C869.008 251.938 868.323 252.137 867.479 252.137C866.887 252.137 866.363 252.032 865.907 251.822C865.451 251.613 865.094 251.321 864.834 250.947C864.579 250.569 864.451 250.161 864.451 249.724H865.716C865.739 250.147 865.907 250.485 866.222 250.735C866.541 250.981 866.96 251.104 867.479 251.104C867.958 251.104 868.341 251.009 868.628 250.817C868.92 250.621 869.065 250.362 869.065 250.038ZM873.693 242.812V244.604H875.074V245.581H873.693V250.168C873.693 250.464 873.755 250.688 873.878 250.838C874.001 250.984 874.211 251.057 874.507 251.057C874.653 251.057 874.853 251.029 875.108 250.975V252C874.776 252.091 874.452 252.137 874.138 252.137C873.573 252.137 873.146 251.966 872.859 251.624C872.572 251.282 872.429 250.797 872.429 250.168V245.581H871.082V244.604H872.429V242.812H873.693ZM881.124 252C881.051 251.854 880.992 251.594 880.946 251.221C880.358 251.831 879.657 252.137 878.841 252.137C878.112 252.137 877.512 251.932 877.043 251.521C876.578 251.107 876.346 250.583 876.346 249.949C876.346 249.179 876.637 248.582 877.221 248.158C877.809 247.73 878.633 247.516 879.695 247.516H880.926V246.935C880.926 246.493 880.794 246.142 880.529 245.882C880.265 245.618 879.875 245.485 879.36 245.485C878.909 245.485 878.531 245.599 878.226 245.827C877.92 246.055 877.768 246.331 877.768 246.654H876.496C876.496 246.285 876.626 245.93 876.886 245.588C877.15 245.242 877.506 244.968 877.952 244.768C878.403 244.567 878.898 244.467 879.436 244.467C880.288 244.467 880.955 244.681 881.438 245.109C881.922 245.533 882.172 246.119 882.19 246.866V250.271C882.19 250.95 882.277 251.49 882.45 251.891V252H881.124ZM879.025 251.036C879.422 251.036 879.798 250.934 880.153 250.729C880.509 250.523 880.766 250.257 880.926 249.929V248.411H879.935C878.385 248.411 877.61 248.865 877.61 249.771C877.61 250.168 877.743 250.478 878.007 250.701C878.271 250.924 878.611 251.036 879.025 251.036ZM885.889 242.812V244.604H887.27V245.581H885.889V250.168C885.889 250.464 885.95 250.688 886.073 250.838C886.196 250.984 886.406 251.057 886.702 251.057C886.848 251.057 887.049 251.029 887.304 250.975V252C886.971 252.091 886.647 252.137 886.333 252.137C885.768 252.137 885.342 251.966 885.055 251.624C884.768 251.282 884.624 250.797 884.624 250.168V245.581H883.277V244.604H884.624V242.812H885.889ZM891.822 252.137C890.82 252.137 890.004 251.809 889.375 251.152C888.746 250.492 888.432 249.61 888.432 248.507V248.274C888.432 247.541 888.571 246.887 888.849 246.312C889.131 245.734 889.523 245.283 890.024 244.959C890.53 244.631 891.077 244.467 891.665 244.467C892.627 244.467 893.374 244.784 893.907 245.417C894.44 246.05 894.707 246.957 894.707 248.138V248.664H889.696C889.715 249.393 889.926 249.983 890.332 250.435C890.742 250.881 891.262 251.104 891.891 251.104C892.337 251.104 892.715 251.013 893.025 250.831C893.335 250.649 893.606 250.407 893.839 250.106L894.611 250.708C893.992 251.66 893.062 252.137 891.822 252.137ZM891.665 245.506C891.155 245.506 890.726 245.693 890.38 246.066C890.034 246.436 889.819 246.955 889.737 247.625H893.442V247.529C893.406 246.887 893.233 246.39 892.923 246.039C892.613 245.684 892.194 245.506 891.665 245.506ZM901.023 252H899.759V244.604H901.023V252ZM899.656 242.642C899.656 242.437 899.718 242.263 899.841 242.122C899.968 241.981 900.155 241.91 900.401 241.91C900.647 241.91 900.834 241.981 900.962 242.122C901.09 242.263 901.153 242.437 901.153 242.642C901.153 242.847 901.09 243.018 900.962 243.154C900.834 243.291 900.647 243.359 900.401 243.359C900.155 243.359 899.968 243.291 899.841 243.154C899.718 243.018 899.656 242.847 899.656 242.642ZM904.25 244.604L904.291 245.533C904.856 244.822 905.594 244.467 906.506 244.467C908.069 244.467 908.857 245.349 908.871 247.112V252H907.606V247.105C907.602 246.572 907.479 246.178 907.237 245.923C907 245.668 906.629 245.54 906.123 245.54C905.713 245.54 905.353 245.649 905.043 245.868C904.733 246.087 904.492 246.374 904.318 246.729V252H903.054V244.604H904.25ZM915.085 250.038C915.085 249.696 914.955 249.432 914.695 249.245C914.44 249.054 913.991 248.89 913.349 248.753C912.711 248.616 912.202 248.452 911.824 248.261C911.451 248.069 911.173 247.841 910.99 247.577C910.812 247.313 910.724 246.998 910.724 246.634C910.724 246.028 910.979 245.515 911.489 245.096C912.004 244.676 912.66 244.467 913.458 244.467C914.297 244.467 914.976 244.683 915.495 245.116C916.019 245.549 916.281 246.103 916.281 246.777H915.01C915.01 246.431 914.862 246.132 914.565 245.882C914.274 245.631 913.905 245.506 913.458 245.506C912.998 245.506 912.638 245.606 912.378 245.807C912.118 246.007 911.988 246.269 911.988 246.593C911.988 246.898 912.109 247.128 912.351 247.283C912.592 247.438 913.027 247.586 913.656 247.728C914.29 247.869 914.802 248.037 915.194 248.233C915.586 248.429 915.876 248.666 916.062 248.944C916.254 249.218 916.35 249.553 916.35 249.949C916.35 250.61 916.085 251.141 915.557 251.542C915.028 251.938 914.342 252.137 913.499 252.137C912.907 252.137 912.382 252.032 911.927 251.822C911.471 251.613 911.113 251.321 910.854 250.947C910.598 250.569 910.471 250.161 910.471 249.724H911.735C911.758 250.147 911.927 250.485 912.241 250.735C912.56 250.981 912.979 251.104 913.499 251.104C913.978 251.104 914.36 251.009 914.647 250.817C914.939 250.621 915.085 250.362 915.085 250.038ZM919.371 252H918.106V244.604H919.371V252ZM918.004 242.642C918.004 242.437 918.065 242.263 918.188 242.122C918.316 241.981 918.503 241.91 918.749 241.91C918.995 241.91 919.182 241.981 919.31 242.122C919.437 242.263 919.501 242.437 919.501 242.642C919.501 242.847 919.437 243.018 919.31 243.154C919.182 243.291 918.995 243.359 918.749 243.359C918.503 243.359 918.316 243.291 918.188 243.154C918.065 243.018 918.004 242.847 918.004 242.642ZM921.094 248.24C921.094 247.105 921.363 246.194 921.9 245.506C922.438 244.813 923.142 244.467 924.013 244.467C924.879 244.467 925.564 244.763 926.07 245.355V241.5H927.335V252H926.173L926.111 251.207C925.605 251.827 924.901 252.137 923.999 252.137C923.142 252.137 922.443 251.786 921.9 251.084C921.363 250.382 921.094 249.466 921.094 248.336V248.24ZM922.358 248.384C922.358 249.222 922.532 249.879 922.878 250.353C923.224 250.826 923.703 251.063 924.313 251.063C925.116 251.063 925.701 250.703 926.07 249.983V246.586C925.692 245.889 925.111 245.54 924.327 245.54C923.707 245.54 923.224 245.779 922.878 246.258C922.532 246.736 922.358 247.445 922.358 248.384ZM932.373 252.137C931.37 252.137 930.555 251.809 929.926 251.152C929.297 250.492 928.982 249.61 928.982 248.507V248.274C928.982 247.541 929.121 246.887 929.399 246.312C929.682 245.734 930.074 245.283 930.575 244.959C931.081 244.631 931.628 244.467 932.216 244.467C933.177 244.467 933.925 244.784 934.458 245.417C934.991 246.05 935.258 246.957 935.258 248.138V248.664H930.247C930.265 249.393 930.477 249.983 930.883 250.435C931.293 250.881 931.812 251.104 932.441 251.104C932.888 251.104 933.266 251.013 933.576 250.831C933.886 250.649 934.157 250.407 934.39 250.106L935.162 250.708C934.542 251.66 933.613 252.137 932.373 252.137ZM932.216 245.506C931.705 245.506 931.277 245.693 930.931 246.066C930.584 246.436 930.37 246.955 930.288 247.625H933.993V247.529C933.957 246.887 933.784 246.39 933.474 246.039C933.164 245.684 932.744 245.506 932.216 245.506ZM944.767 252C944.694 251.854 944.634 251.594 944.589 251.221C944.001 251.831 943.299 252.137 942.483 252.137C941.754 252.137 941.155 251.932 940.686 251.521C940.221 251.107 939.988 250.583 939.988 249.949C939.988 249.179 940.28 248.582 940.863 248.158C941.451 247.73 942.276 247.516 943.338 247.516H944.568V246.935C944.568 246.493 944.436 246.142 944.172 245.882C943.908 245.618 943.518 245.485 943.003 245.485C942.552 245.485 942.174 245.599 941.868 245.827C941.563 246.055 941.41 246.331 941.41 246.654H940.139C940.139 246.285 940.269 245.93 940.528 245.588C940.793 245.242 941.148 244.968 941.595 244.768C942.046 244.567 942.54 244.467 943.078 244.467C943.93 244.467 944.598 244.681 945.081 245.109C945.564 245.533 945.815 246.119 945.833 246.866V250.271C945.833 250.95 945.92 251.49 946.093 251.891V252H944.767ZM942.668 251.036C943.064 251.036 943.44 250.934 943.796 250.729C944.151 250.523 944.409 250.257 944.568 249.929V248.411H943.577C942.028 248.411 941.253 248.865 941.253 249.771C941.253 250.168 941.385 250.478 941.649 250.701C941.914 250.924 942.253 251.036 942.668 251.036ZM950.782 251.104C951.233 251.104 951.628 250.968 951.965 250.694C952.302 250.421 952.489 250.079 952.525 249.669H953.722C953.699 250.093 953.553 250.496 953.284 250.879C953.015 251.262 952.655 251.567 952.204 251.795C951.757 252.023 951.284 252.137 950.782 252.137C949.775 252.137 948.973 251.802 948.376 251.132C947.784 250.457 947.487 249.537 947.487 248.37V248.158C947.487 247.438 947.619 246.798 947.884 246.237C948.148 245.677 948.526 245.242 949.019 244.932C949.515 244.622 950.101 244.467 950.775 244.467C951.605 244.467 952.293 244.715 952.84 245.212C953.391 245.709 953.685 246.354 953.722 247.146H952.525C952.489 246.668 952.307 246.276 951.979 245.971C951.655 245.661 951.254 245.506 950.775 245.506C950.133 245.506 949.634 245.738 949.278 246.203C948.927 246.663 948.752 247.331 948.752 248.206V248.445C948.752 249.298 948.927 249.954 949.278 250.414C949.629 250.874 950.131 251.104 950.782 251.104ZM956.859 242.812V244.604H958.24V245.581H956.859V250.168C956.859 250.464 956.921 250.688 957.044 250.838C957.167 250.984 957.377 251.057 957.673 251.057C957.819 251.057 958.019 251.029 958.274 250.975V252C957.942 252.091 957.618 252.137 957.304 252.137C956.739 252.137 956.312 251.966 956.025 251.624C955.738 251.282 955.595 250.797 955.595 250.168V245.581H954.248V244.604H955.595V242.812H956.859ZM961.098 252H959.833V244.604H961.098V252ZM959.73 242.642C959.73 242.437 959.792 242.263 959.915 242.122C960.043 241.981 960.229 241.91 960.476 241.91C960.722 241.91 960.909 241.981 961.036 242.122C961.164 242.263 961.228 242.437 961.228 242.642C961.228 242.847 961.164 243.018 961.036 243.154C960.909 243.291 960.722 243.359 960.476 243.359C960.229 243.359 960.043 243.291 959.915 243.154C959.792 243.018 959.73 242.847 959.73 242.642ZM962.793 248.233C962.793 247.509 962.934 246.857 963.217 246.278C963.504 245.7 963.9 245.253 964.406 244.938C964.917 244.624 965.498 244.467 966.149 244.467C967.157 244.467 967.97 244.815 968.59 245.513C969.214 246.21 969.526 247.137 969.526 248.295V248.384C969.526 249.104 969.387 249.751 969.109 250.325C968.836 250.895 968.442 251.339 967.927 251.658C967.416 251.977 966.828 252.137 966.163 252.137C965.16 252.137 964.347 251.788 963.723 251.091C963.103 250.394 962.793 249.471 962.793 248.322V248.233ZM964.064 248.384C964.064 249.204 964.254 249.863 964.632 250.359C965.015 250.856 965.525 251.104 966.163 251.104C966.806 251.104 967.316 250.854 967.694 250.353C968.073 249.847 968.262 249.14 968.262 248.233C968.262 247.422 968.068 246.766 967.681 246.265C967.298 245.759 966.787 245.506 966.149 245.506C965.525 245.506 965.021 245.754 964.639 246.251C964.256 246.748 964.064 247.459 964.064 248.384ZM972.309 244.604L972.35 245.533C972.915 244.822 973.653 244.467 974.564 244.467C976.128 244.467 976.916 245.349 976.93 247.112V252H975.665V247.105C975.66 246.572 975.537 246.178 975.296 245.923C975.059 245.668 974.688 245.54 974.182 245.54C973.771 245.54 973.411 245.649 973.102 245.868C972.792 246.087 972.55 246.374 972.377 246.729V252H971.112V244.604H972.309ZM978.864 251.337C978.864 251.118 978.928 250.936 979.056 250.79C979.188 250.644 979.384 250.571 979.644 250.571C979.903 250.571 980.099 250.644 980.231 250.79C980.368 250.936 980.437 251.118 980.437 251.337C980.437 251.547 980.368 251.722 980.231 251.863C980.099 252.005 979.903 252.075 979.644 252.075C979.384 252.075 979.188 252.005 979.056 251.863C978.928 251.722 978.864 251.547 978.864 251.337ZM988.776 248.384C988.776 249.509 988.519 250.416 988.004 251.104C987.489 251.793 986.792 252.137 985.912 252.137C985.014 252.137 984.308 251.852 983.793 251.282V254.844H982.528V244.604H983.684L983.745 245.424C984.26 244.786 984.976 244.467 985.892 244.467C986.78 244.467 987.482 244.802 987.997 245.472C988.517 246.142 988.776 247.074 988.776 248.268V248.384ZM987.512 248.24C987.512 247.406 987.334 246.748 986.979 246.265C986.623 245.782 986.135 245.54 985.516 245.54C984.75 245.54 984.176 245.88 983.793 246.559V250.093C984.171 250.767 984.75 251.104 985.529 251.104C986.135 251.104 986.616 250.865 986.972 250.387C987.332 249.904 987.512 249.188 987.512 248.24ZM994.956 252C994.883 251.854 994.824 251.594 994.778 251.221C994.19 251.831 993.489 252.137 992.673 252.137C991.944 252.137 991.344 251.932 990.875 251.521C990.41 251.107 990.178 250.583 990.178 249.949C990.178 249.179 990.469 248.582 991.053 248.158C991.641 247.73 992.465 247.516 993.527 247.516H994.758V246.935C994.758 246.493 994.626 246.142 994.361 245.882C994.097 245.618 993.707 245.485 993.192 245.485C992.741 245.485 992.363 245.599 992.058 245.827C991.752 246.055 991.6 246.331 991.6 246.654H990.328C990.328 246.285 990.458 245.93 990.718 245.588C990.982 245.242 991.338 244.968 991.784 244.768C992.235 244.567 992.73 244.467 993.268 244.467C994.12 244.467 994.787 244.681 995.271 245.109C995.754 245.533 996.004 246.119 996.022 246.866V250.271C996.022 250.95 996.109 251.49 996.282 251.891V252H994.956ZM992.857 251.036C993.254 251.036 993.63 250.934 993.985 250.729C994.341 250.523 994.598 250.257 994.758 249.929V248.411H993.767C992.217 248.411 991.442 248.865 991.442 249.771C991.442 250.168 991.575 250.478 991.839 250.701C992.103 250.924 992.443 251.036 992.857 251.036ZM1000.32 250.147L1002.04 244.604H1003.39L1000.42 253.142C999.958 254.372 999.226 254.987 998.224 254.987L997.984 254.967L997.513 254.878V253.853L997.854 253.88C998.283 253.88 998.616 253.793 998.853 253.62C999.094 253.447 999.292 253.13 999.447 252.67L999.728 251.918L997.089 244.604H998.47L1000.32 250.147ZM1005.9 252H1004.64V241.5H1005.9V252ZM1007.6 248.233C1007.6 247.509 1007.74 246.857 1008.02 246.278C1008.31 245.7 1008.7 245.253 1009.21 244.938C1009.72 244.624 1010.3 244.467 1010.95 244.467C1011.96 244.467 1012.77 244.815 1013.39 245.513C1014.02 246.21 1014.33 247.137 1014.33 248.295V248.384C1014.33 249.104 1014.19 249.751 1013.91 250.325C1013.64 250.895 1013.24 251.339 1012.73 251.658C1012.22 251.977 1011.63 252.137 1010.97 252.137C1009.96 252.137 1009.15 251.788 1008.53 251.091C1007.91 250.394 1007.6 249.471 1007.6 248.322V248.233ZM1008.87 248.384C1008.87 249.204 1009.06 249.863 1009.43 250.359C1009.82 250.856 1010.33 251.104 1010.97 251.104C1011.61 251.104 1012.12 250.854 1012.5 250.353C1012.88 249.847 1013.06 249.14 1013.06 248.233C1013.06 247.422 1012.87 246.766 1012.48 246.265C1012.1 245.759 1011.59 245.506 1010.95 245.506C1010.33 245.506 1009.82 245.754 1009.44 246.251C1009.06 246.748 1008.87 247.459 1008.87 248.384ZM1020.48 252C1020.41 251.854 1020.35 251.594 1020.3 251.221C1019.72 251.831 1019.01 252.137 1018.2 252.137C1017.47 252.137 1016.87 251.932 1016.4 251.521C1015.94 251.107 1015.7 250.583 1015.7 249.949C1015.7 249.179 1015.99 248.582 1016.58 248.158C1017.17 247.73 1017.99 247.516 1019.05 247.516H1020.28V246.935C1020.28 246.493 1020.15 246.142 1019.89 245.882C1019.62 245.618 1019.23 245.485 1018.72 245.485C1018.27 245.485 1017.89 245.599 1017.58 245.827C1017.28 246.055 1017.12 246.331 1017.12 246.654H1015.85C1015.85 246.285 1015.98 245.93 1016.24 245.588C1016.51 245.242 1016.86 244.968 1017.31 244.768C1017.76 244.567 1018.26 244.467 1018.79 244.467C1019.65 244.467 1020.31 244.681 1020.8 245.109C1021.28 245.533 1021.53 246.119 1021.55 246.866V250.271C1021.55 250.95 1021.63 251.49 1021.81 251.891V252H1020.48ZM1018.38 251.036C1018.78 251.036 1019.16 250.934 1019.51 250.729C1019.87 250.523 1020.12 250.257 1020.28 249.929V248.411H1019.29C1017.74 248.411 1016.97 248.865 1016.97 249.771C1016.97 250.168 1017.1 250.478 1017.36 250.701C1017.63 250.924 1017.97 251.036 1018.38 251.036ZM1023.22 248.24C1023.22 247.105 1023.49 246.194 1024.03 245.506C1024.57 244.813 1025.27 244.467 1026.14 244.467C1027.01 244.467 1027.69 244.763 1028.2 245.355V241.5H1029.46V252H1028.3L1028.24 251.207C1027.73 251.827 1027.03 252.137 1026.13 252.137C1025.27 252.137 1024.57 251.786 1024.03 251.084C1023.49 250.382 1023.22 249.466 1023.22 248.336V248.24ZM1024.49 248.384C1024.49 249.222 1024.66 249.879 1025.01 250.353C1025.35 250.826 1025.83 251.063 1026.44 251.063C1027.24 251.063 1027.83 250.703 1028.2 249.983V246.586C1027.82 245.889 1027.24 245.54 1026.46 245.54C1025.84 245.54 1025.35 245.779 1025.01 246.258C1024.66 246.736 1024.49 247.445 1024.49 248.384Z" fill="black"/>
<path d="M174.309 249.62H180.373V251H172.612V238.203H174.309V249.62ZM191.562 245.015C191.562 246.269 191.351 247.364 190.929 248.302C190.507 249.233 189.909 249.945 189.136 250.438C188.362 250.93 187.46 251.176 186.429 251.176C185.421 251.176 184.527 250.93 183.748 250.438C182.969 249.939 182.362 249.233 181.929 248.319C181.501 247.399 181.281 246.336 181.27 245.129V244.206C181.27 242.976 181.483 241.889 181.911 240.945C182.339 240.002 182.942 239.281 183.722 238.783C184.507 238.279 185.403 238.027 186.411 238.027C187.437 238.027 188.339 238.276 189.118 238.774C189.903 239.267 190.507 239.984 190.929 240.928C191.351 241.865 191.562 242.958 191.562 244.206V245.015ZM189.883 244.188C189.883 242.671 189.578 241.508 188.969 240.699C188.359 239.885 187.507 239.478 186.411 239.478C185.345 239.478 184.504 239.885 183.889 240.699C183.279 241.508 182.966 242.633 182.948 244.074V245.015C182.948 246.485 183.256 247.643 183.871 248.486C184.492 249.324 185.345 249.743 186.429 249.743C187.519 249.743 188.362 249.348 188.96 248.557C189.558 247.76 189.865 246.62 189.883 245.138V244.188ZM200.966 247.66H195.604L194.4 251H192.66L197.547 238.203H199.023L203.919 251H202.188L200.966 247.66ZM196.114 246.271H200.465L198.285 240.286L196.114 246.271ZM205.642 251V238.203H209.254C210.367 238.203 211.352 238.449 212.207 238.941C213.062 239.434 213.722 240.134 214.185 241.042C214.653 241.95 214.891 242.993 214.896 244.171V244.988C214.896 246.195 214.662 247.253 214.193 248.161C213.73 249.069 213.065 249.767 212.198 250.253C211.337 250.739 210.332 250.988 209.184 251H205.642ZM207.329 239.592V249.62H209.104C210.405 249.62 211.416 249.216 212.137 248.407C212.863 247.599 213.227 246.447 213.227 244.953V244.206C213.227 242.753 212.884 241.625 212.198 240.822C211.519 240.014 210.552 239.604 209.298 239.592H207.329ZM224.055 252.327H216.004V251H224.055V252.327ZM227.263 245.99V251H225.575V238.203H230.295C231.695 238.203 232.791 238.561 233.582 239.275C234.379 239.99 234.777 240.937 234.777 242.114C234.777 243.356 234.388 244.314 233.608 244.988C232.835 245.656 231.725 245.99 230.277 245.99H227.263ZM227.263 244.61H230.295C231.197 244.61 231.889 244.399 232.369 243.978C232.85 243.55 233.09 242.935 233.09 242.132C233.09 241.37 232.85 240.761 232.369 240.304C231.889 239.847 231.229 239.609 230.392 239.592H227.263V244.61ZM246.774 245.015C246.774 246.269 246.563 247.364 246.142 248.302C245.72 249.233 245.122 249.945 244.349 250.438C243.575 250.93 242.673 251.176 241.642 251.176C240.634 251.176 239.74 250.93 238.961 250.438C238.182 249.939 237.575 249.233 237.142 248.319C236.714 247.399 236.494 246.336 236.482 245.129V244.206C236.482 242.976 236.696 241.889 237.124 240.945C237.552 240.002 238.155 239.281 238.935 238.783C239.72 238.279 240.616 238.027 241.624 238.027C242.649 238.027 243.552 238.276 244.331 238.774C245.116 239.267 245.72 239.984 246.142 240.928C246.563 241.865 246.774 242.958 246.774 244.206V245.015ZM245.096 244.188C245.096 242.671 244.791 241.508 244.182 240.699C243.572 239.885 242.72 239.478 241.624 239.478C240.558 239.478 239.717 239.885 239.102 240.699C238.492 241.508 238.179 242.633 238.161 244.074V245.015C238.161 246.485 238.469 247.643 239.084 248.486C239.705 249.324 240.558 249.743 241.642 249.743C242.731 249.743 243.575 249.348 244.173 248.557C244.771 247.76 245.078 246.62 245.096 245.138V244.188ZM253.076 245.296C251.629 244.88 250.574 244.37 249.912 243.767C249.256 243.157 248.928 242.407 248.928 241.517C248.928 240.509 249.329 239.677 250.132 239.021C250.94 238.358 251.989 238.027 253.278 238.027C254.157 238.027 254.939 238.197 255.625 238.537C256.316 238.877 256.85 239.346 257.225 239.943C257.605 240.541 257.796 241.194 257.796 241.903H256.1C256.1 241.13 255.854 240.523 255.361 240.084C254.869 239.639 254.175 239.416 253.278 239.416C252.446 239.416 251.796 239.601 251.327 239.97C250.864 240.333 250.633 240.84 250.633 241.49C250.633 242.012 250.853 242.454 251.292 242.817C251.737 243.175 252.49 243.503 253.551 243.802C254.617 244.101 255.449 244.432 256.047 244.795C256.65 245.152 257.096 245.571 257.383 246.052C257.676 246.532 257.822 247.098 257.822 247.748C257.822 248.785 257.418 249.617 256.609 250.244C255.801 250.865 254.72 251.176 253.366 251.176C252.487 251.176 251.667 251.009 250.905 250.675C250.144 250.335 249.555 249.872 249.139 249.286C248.729 248.7 248.523 248.035 248.523 247.291H250.22C250.22 248.064 250.504 248.677 251.072 249.128C251.646 249.573 252.411 249.796 253.366 249.796C254.257 249.796 254.939 249.614 255.414 249.251C255.889 248.888 256.126 248.393 256.126 247.766C256.126 247.139 255.906 246.655 255.467 246.315C255.027 245.97 254.23 245.63 253.076 245.296ZM268.835 239.592H264.722V251H263.043V239.592H258.938V238.203H268.835V239.592ZM274.363 245.296C272.916 244.88 271.861 244.37 271.199 243.767C270.543 243.157 270.215 242.407 270.215 241.517C270.215 240.509 270.616 239.677 271.419 239.021C272.228 238.358 273.276 238.027 274.565 238.027C275.444 238.027 276.227 238.197 276.912 238.537C277.604 238.877 278.137 239.346 278.512 239.943C278.893 240.541 279.083 241.194 279.083 241.903H277.387C277.387 241.13 277.141 240.523 276.648 240.084C276.156 239.639 275.462 239.416 274.565 239.416C273.733 239.416 273.083 239.601 272.614 239.97C272.151 240.333 271.92 240.84 271.92 241.49C271.92 242.012 272.14 242.454 272.579 242.817C273.024 243.175 273.777 243.503 274.838 243.802C275.904 244.101 276.736 244.432 277.334 244.795C277.938 245.152 278.383 245.571 278.67 246.052C278.963 246.532 279.109 247.098 279.109 247.748C279.109 248.785 278.705 249.617 277.896 250.244C277.088 250.865 276.007 251.176 274.653 251.176C273.774 251.176 272.954 251.009 272.192 250.675C271.431 250.335 270.842 249.872 270.426 249.286C270.016 248.7 269.811 248.035 269.811 247.291H271.507C271.507 248.064 271.791 248.677 272.359 249.128C272.934 249.573 273.698 249.796 274.653 249.796C275.544 249.796 276.227 249.614 276.701 249.251C277.176 248.888 277.413 248.393 277.413 247.766C277.413 247.139 277.193 246.655 276.754 246.315C276.314 245.97 275.518 245.63 274.363 245.296ZM287.881 252.327H279.83V251H287.881V252.327ZM294.095 245.823H291.089V251H289.393V238.203H293.629C295.07 238.203 296.178 238.531 296.951 239.188C297.73 239.844 298.12 240.799 298.12 242.053C298.12 242.85 297.903 243.544 297.47 244.136C297.042 244.728 296.444 245.17 295.677 245.463L298.683 250.895V251H296.872L294.095 245.823ZM291.089 244.443H293.682C294.52 244.443 295.185 244.227 295.677 243.793C296.175 243.359 296.424 242.779 296.424 242.053C296.424 241.262 296.187 240.655 295.712 240.233C295.243 239.812 294.563 239.598 293.673 239.592H291.089V244.443ZM307.727 245.085H302.181V249.62H308.623V251H300.493V238.203H308.535V239.592H302.181V243.705H307.727V245.085ZM320.497 245.015C320.497 246.251 320.301 247.317 319.908 248.214C319.516 249.104 318.965 249.802 318.256 250.306L320.541 252.099L319.39 253.162L316.691 251.018C316.27 251.123 315.824 251.176 315.355 251.176C314.348 251.176 313.454 250.93 312.675 250.438C311.896 249.939 311.289 249.233 310.855 248.319C310.428 247.399 310.208 246.336 310.196 245.129V244.206C310.196 242.976 310.41 241.889 310.838 240.945C311.266 240.002 311.869 239.281 312.648 238.783C313.434 238.279 314.33 238.027 315.338 238.027C316.369 238.027 317.274 238.276 318.054 238.774C318.839 239.272 319.442 239.99 319.864 240.928C320.286 241.859 320.497 242.949 320.497 244.197V245.015ZM318.81 244.188C318.81 242.683 318.508 241.522 317.904 240.708C317.307 239.888 316.451 239.478 315.338 239.478C314.277 239.478 313.439 239.885 312.824 240.699C312.215 241.508 311.901 242.633 311.884 244.074V245.015C311.884 246.479 312.188 247.634 312.798 248.478C313.413 249.321 314.266 249.743 315.355 249.743C316.445 249.743 317.289 249.348 317.887 248.557C318.484 247.76 318.792 246.62 318.81 245.138V244.188ZM332.107 238.203V246.904C332.102 248.111 331.721 249.099 330.965 249.866C330.215 250.634 329.195 251.064 327.906 251.158L327.458 251.176C326.058 251.176 324.941 250.798 324.109 250.042C323.277 249.286 322.855 248.246 322.844 246.922V238.203H324.514V246.869C324.514 247.795 324.769 248.516 325.278 249.031C325.788 249.541 326.515 249.796 327.458 249.796C328.413 249.796 329.143 249.541 329.646 249.031C330.156 248.521 330.411 247.804 330.411 246.878V238.203H332.107ZM342.004 245.085H336.458V249.62H342.9V251H334.771V238.203H342.812V239.592H336.458V243.705H342.004V245.085ZM348.771 245.296C347.324 244.88 346.27 244.37 345.607 243.767C344.951 243.157 344.623 242.407 344.623 241.517C344.623 240.509 345.024 239.677 345.827 239.021C346.636 238.358 347.685 238.027 348.974 238.027C349.853 238.027 350.635 238.197 351.32 238.537C352.012 238.877 352.545 239.346 352.92 239.943C353.301 240.541 353.491 241.194 353.491 241.903H351.795C351.795 241.13 351.549 240.523 351.057 240.084C350.564 239.639 349.87 239.416 348.974 239.416C348.142 239.416 347.491 239.601 347.022 239.97C346.56 240.333 346.328 240.84 346.328 241.49C346.328 242.012 346.548 242.454 346.987 242.817C347.433 243.175 348.186 243.503 349.246 243.802C350.312 244.101 351.145 244.432 351.742 244.795C352.346 245.152 352.791 245.571 353.078 246.052C353.371 246.532 353.518 247.098 353.518 247.748C353.518 248.785 353.113 249.617 352.305 250.244C351.496 250.865 350.415 251.176 349.062 251.176C348.183 251.176 347.362 251.009 346.601 250.675C345.839 250.335 345.25 249.872 344.834 249.286C344.424 248.7 344.219 248.035 344.219 247.291H345.915C345.915 248.064 346.199 248.677 346.768 249.128C347.342 249.573 348.106 249.796 349.062 249.796C349.952 249.796 350.635 249.614 351.109 249.251C351.584 248.888 351.821 248.393 351.821 247.766C351.821 247.139 351.602 246.655 351.162 246.315C350.723 245.97 349.926 245.63 348.771 245.296ZM364.53 239.592H360.417V251H358.738V239.592H354.634V238.203H364.53V239.592ZM373.029 252.327H364.979V251H373.029V252.327ZM378.32 245.296C376.873 244.88 375.818 244.37 375.156 243.767C374.5 243.157 374.172 242.407 374.172 241.517C374.172 240.509 374.573 239.677 375.376 239.021C376.185 238.358 377.233 238.027 378.522 238.027C379.401 238.027 380.184 238.197 380.869 238.537C381.561 238.877 382.094 239.346 382.469 239.943C382.85 240.541 383.04 241.194 383.04 241.903H381.344C381.344 241.13 381.098 240.523 380.605 240.084C380.113 239.639 379.419 239.416 378.522 239.416C377.69 239.416 377.04 239.601 376.571 239.97C376.108 240.333 375.877 240.84 375.877 241.49C375.877 242.012 376.097 242.454 376.536 242.817C376.981 243.175 377.734 243.503 378.795 243.802C379.861 244.101 380.693 244.432 381.291 244.795C381.895 245.152 382.34 245.571 382.627 246.052C382.92 246.532 383.066 247.098 383.066 247.748C383.066 248.785 382.662 249.617 381.854 250.244C381.045 250.865 379.964 251.176 378.61 251.176C377.731 251.176 376.911 251.009 376.149 250.675C375.388 250.335 374.799 249.872 374.383 249.286C373.973 248.7 373.768 248.035 373.768 247.291H375.464C375.464 248.064 375.748 248.677 376.316 249.128C376.891 249.573 377.655 249.796 378.61 249.796C379.501 249.796 380.184 249.614 380.658 249.251C381.133 248.888 381.37 248.393 381.37 247.766C381.37 247.139 381.15 246.655 380.711 246.315C380.271 245.97 379.475 245.63 378.32 245.296ZM394.246 238.203V246.904C394.24 248.111 393.859 249.099 393.104 249.866C392.354 250.634 391.334 251.064 390.045 251.158L389.597 251.176C388.196 251.176 387.08 250.798 386.248 250.042C385.416 249.286 384.994 248.246 384.982 246.922V238.203H386.652V246.869C386.652 247.795 386.907 248.516 387.417 249.031C387.927 249.541 388.653 249.796 389.597 249.796C390.552 249.796 391.281 249.541 391.785 249.031C392.295 248.521 392.55 247.804 392.55 246.878V238.203H394.246ZM406.322 246.939C406.164 248.293 405.663 249.339 404.819 250.077C403.981 250.81 402.865 251.176 401.471 251.176C399.959 251.176 398.746 250.634 397.832 249.55C396.924 248.466 396.47 247.016 396.47 245.199V243.969C396.47 242.779 396.681 241.733 397.103 240.831C397.53 239.929 398.134 239.237 398.913 238.757C399.692 238.271 400.595 238.027 401.62 238.027C402.979 238.027 404.069 238.408 404.89 239.17C405.71 239.926 406.188 240.975 406.322 242.316H404.626C404.479 241.297 404.16 240.559 403.668 240.102C403.182 239.645 402.499 239.416 401.62 239.416C400.542 239.416 399.695 239.814 399.08 240.611C398.471 241.408 398.166 242.542 398.166 244.013V245.252C398.166 246.641 398.456 247.745 399.036 248.565C399.616 249.386 400.428 249.796 401.471 249.796C402.408 249.796 403.126 249.585 403.624 249.163C404.128 248.735 404.462 247.994 404.626 246.939H406.322ZM418.047 246.939C417.889 248.293 417.388 249.339 416.544 250.077C415.706 250.81 414.59 251.176 413.195 251.176C411.684 251.176 410.471 250.634 409.557 249.55C408.648 248.466 408.194 247.016 408.194 245.199V243.969C408.194 242.779 408.405 241.733 408.827 240.831C409.255 239.929 409.858 239.237 410.638 238.757C411.417 238.271 412.319 238.027 413.345 238.027C414.704 238.027 415.794 238.408 416.614 239.17C417.435 239.926 417.912 240.975 418.047 242.316H416.351C416.204 241.297 415.885 240.559 415.393 240.102C414.906 239.645 414.224 239.416 413.345 239.416C412.267 239.416 411.42 239.814 410.805 240.611C410.195 241.408 409.891 242.542 409.891 244.013V245.252C409.891 246.641 410.181 247.745 410.761 248.565C411.341 249.386 412.152 249.796 413.195 249.796C414.133 249.796 414.851 249.585 415.349 249.163C415.853 248.735 416.187 247.994 416.351 246.939H418.047Z" fill="black"/>
<path d="M677.103 239.668C678.025 239.059 678.277 237.818 677.668 236.897L667.737 221.884C667.127 220.963 665.887 220.71 664.965 221.32C664.044 221.929 663.791 223.17 664.401 224.091L673.228 237.435L659.884 246.263C658.963 246.873 658.71 248.113 659.32 249.035C659.929 249.956 661.17 250.209 662.091 249.599L677.103 239.668ZM459.601 195.96L675.601 239.96L676.399 236.04L460.399 192.04L459.601 195.96Z" fill="#219653"/>
</svg>
