<svg id="svg" version="1.1" xmlns="http://www.w3.org/2000/svg" xmlns:xlink="http://www.w3.org/1999/xlink" width="40" height="40" viewBox="0, 0, 400,400"><g id="svgg"><path id="path0" d="M282.149 32.040 C 253.760 39.913,232.006 66.859,223.815 104.297 C 221.850 113.274,220.899 114.781,205.893 132.672 C 192.540 148.593,182.107 159.337,166.785 172.943 C 158.561 180.247,149.920 189.414,144.789 196.278 C 143.099 198.540,139.212 203.730,136.151 207.813 C 119.443 230.094,113.986 243.664,113.689 263.672 C 113.329 287.951,113.489 286.352,111.144 289.138 C 107.284 293.727,100.684 297.225,87.770 301.529 C 42.086 316.755,29.373 338.648,57.188 354.196 C 87.484 371.132,128.602 372.067,119.989 355.625 C 115.555 347.162,109.691 345.071,89.844 344.872 C 72.620 344.700,69.547 344.177,62.898 340.280 C 56.646 336.616,57.992 334.034,68.784 328.998 C 87.147 320.428,105.511 318.565,127.344 323.059 C 138.731 325.403,175.474 325.813,228.516 324.188 C 261.777 323.169,262.024 323.136,262.359 319.650 C 263.105 311.897,254.687 307.158,238.940 306.466 L 229.052 306.031 233.312 300.867 C 243.061 289.049,251.563 264.318,251.563 247.780 C 251.563 245.420,251.826 243.754,252.148 244.077 C 252.471 244.401,252.742 249.821,252.752 256.122 L 252.770 267.578 255.970 275.391 C 257.730 279.688,261.201 289.180,263.683 296.484 C 266.612 305.106,268.893 310.520,270.183 311.916 C 275.774 317.964,287.829 319.559,295.993 315.332 L 300.189 313.159 299.781 309.535 C 299.261 304.924,296.898 302.784,290.969 301.553 C 286.632 300.652,286.543 300.578,284.648 296.294 C 275.094 274.690,277.383 243.950,290.655 215.625 C 299.771 196.169,300.983 176.612,294.222 158.076 C 291.449 150.473,290.800 139.282,292.493 128.241 C 294.515 115.053,294.729 114.543,298.689 113.484 C 303.445 112.211,309.037 106.888,313.477 99.403 C 317.912 91.926,317.871 92.421,314.434 87.918 C 312.365 85.208,311.409 82.892,310.588 78.604 C 308.671 68.586,304.638 63.086,290.703 51.489 L 286.484 47.978 288.209 42.795 C 289.667 38.415,289.803 37.124,289.086 34.464 C 287.996 30.416,288.000 30.417,282.149 32.040 " stroke="none" fill="#000000" fill-rule="evenodd"></path></g></svg>