<?xml version="1.0" encoding="UTF-8" standalone="no"?><svg xmlns="http://www.w3.org/2000/svg" xmlns:xlink="http://www.w3.org/1999/xlink" contentScriptType="application/ecmascript" contentStyleType="text/css" height="425px" preserveAspectRatio="none" style="width:557px;height:425px;" version="1.1" viewBox="0 0 557 425" width="557px" zoomAndPan="magnify"><defs><filter height="300%" id="f12jcfnnxejf7c" width="300%" x="-1" y="-1"><feGaussianBlur result="blurOut" stdDeviation="2.0"/><feColorMatrix in="blurOut" result="blurOut2" type="matrix" values="0 0 0 0 0 0 0 0 0 0 0 0 0 0 0 0 0 0 .4 0"/><feOffset dx="4.0" dy="4.0" in="blurOut2" result="blurOut3"/><feBlend in="SourceGraphic" in2="blurOut3" mode="normal"/></filter></defs><g><text fill="#000000" font-family="sans-serif" font-size="18" lengthAdjust="spacingAndGlyphs" textLength="152" x="206.5" y="16.708">Extends example</text><!--entity User--><ellipse cx="365.5" cy="38.9531" fill="#FEFECE" filter="url(#f12jcfnnxejf7c)" rx="8" ry="8" style="stroke: #A80036; stroke-width: 2.0;"/><path d="M365.5,46.9531 L365.5,73.9531 M352.5,54.9531 L378.5,54.9531 M365.5,73.9531 L352.5,88.9531 M365.5,73.9531 L378.5,88.9531 " fill="none" filter="url(#f12jcfnnxejf7c)" style="stroke: #A80036; stroke-width: 2.0;"/><text fill="#000000" font-family="sans-serif" font-size="14" lengthAdjust="spacingAndGlyphs" textLength="32" x="349.5" y="108.9482">User</text><ellipse cx="290.4128" cy="161.9357" fill="#FEFECE" filter="url(#f12jcfnnxejf7c)" rx="87.9128" ry="19.9826" style="stroke: #A80036; stroke-width: 1.5;"/><text fill="#000000" font-family="sans-serif" font-size="14" lengthAdjust="spacingAndGlyphs" textLength="149" x="215.9128" y="166.5841">UC001: Upload photo</text><ellipse cx="460.6635" cy="231.5858" fill="#FEFECE" filter="url(#f12jcfnnxejf7c)" rx="86.1635" ry="19.6327" style="stroke: #A80036; stroke-width: 1.5;"/><text fill="#000000" font-family="sans-serif" font-size="14" lengthAdjust="spacingAndGlyphs" textLength="145" x="388.1635" y="236.2343">UC002: Upload video</text><ellipse cx="332.5262" cy="370.9584" fill="#FEFECE" filter="url(#f12jcfnnxejf7c)" rx="78.0262" ry="18.0052" style="stroke: #A80036; stroke-width: 1.5;"/><text fill="#000000" font-family="sans-serif" font-size="14" lengthAdjust="spacingAndGlyphs" textLength="126" x="269.5262" y="375.6068">UC003: Apply filter</text><path d="M6,327.9531 L6,413.6172 A0,0 0 0 0 6,413.6172 L219,413.6172 A0,0 0 0 0 219,413.6172 L219,374.9531 L254.069,370.9531 L219,366.9531 L219,337.9531 L209,327.9531 L6,327.9531 A0,0 0 0 0 6,327.9531 " fill="#FBFB77" filter="url(#f12jcfnnxejf7c)" style="stroke: #A80036; stroke-width: 1.0;"/><path d="M209,327.9531 L209,337.9531 L219,337.9531 L209,327.9531 " fill="#FBFB77" style="stroke: #A80036; stroke-width: 1.0;"/><text fill="#000000" font-family="sans-serif" font-size="13" lengthAdjust="spacingAndGlyphs" textLength="161" x="12" y="345.02">Upload photo and upload</text><text fill="#000000" font-family="sans-serif" font-size="13" lengthAdjust="spacingAndGlyphs" textLength="160" x="12" y="360.1528">video doesn't necessarily</text><text fill="#000000" font-family="sans-serif" font-size="13" lengthAdjust="spacingAndGlyphs" textLength="123" x="12" y="375.2856">need to apply filter.</text><text fill="#000000" font-family="sans-serif" font-size="13" lengthAdjust="spacingAndGlyphs" textLength="188" x="12" y="390.4185">Upload photo can run without</text><text fill="#000000" font-family="sans-serif" font-size="13" lengthAdjust="spacingAndGlyphs" textLength="90" x="12" y="405.5513">Applying filter.</text><!--link User to UC001: Upload photo--><path d="M349.226,90.8731 C337.57,104.7831 321.833,123.5621 309.584,138.1791 " fill="none" id="User-&gt;UC001: Upload photo" style="stroke: #A80036; stroke-width: 1.0;"/><polygon fill="#A80036" points="306.228,142.1841,315.0741,137.8545,309.4392,138.3516,308.9421,132.7166,306.228,142.1841" style="stroke: #A80036; stroke-width: 1.0;"/><!--link User to UC002: Upload video--><path d="M381.615,98.4251 C399.906,129.0381 429.435,178.4591 446.704,207.3631 " fill="none" id="User-&gt;UC002: Upload video" style="stroke: #A80036; stroke-width: 1.0;"/><polygon fill="#A80036" points="449.367,211.8191,448.1842,202.0415,446.8023,207.527,441.3168,206.1451,449.367,211.8191" style="stroke: #A80036; stroke-width: 1.0;"/><!--reverse link UC001: Upload photo to UC003: Apply filter--><path d="M289.31,187.3101 C288.978,195.1731 288.664,203.9301 288.5,211.9531 C288.146,229.2831 285.447,233.8911 288.5,250.9531 C295.251,288.6801 313.152,330.0971 323.927,352.759 " fill="none" id="UC001: Upload photo&lt;-UC003: Apply filter" style="stroke: #A80036; stroke-width: 1.0; stroke-dasharray: 7.0,7.0;"/><polygon fill="#A80036" points="289.541,182.0291,285.1513,190.8456,289.3224,187.0243,293.1437,191.1954,289.541,182.0291" style="stroke: #A80036; stroke-width: 1.0;"/><text fill="#000000" font-family="sans-serif" font-size="13" lengthAdjust="spacingAndGlyphs" textLength="67" x="289.5" y="236.02">«extends»</text><!--reverse link UC002: Upload video to UC003: Apply filter--><path d="M439.868,254.6171 C414.346,282.0331 371.45,328.1128 348.359,352.9172 " fill="none" id="UC002: Upload video&lt;-UC003: Apply filter" style="stroke: #A80036; stroke-width: 1.0; stroke-dasharray: 7.0,7.0;"/><polygon fill="#A80036" points="443.503,250.7121,434.4429,254.5741,440.0961,254.3718,440.2984,260.0251,443.503,250.7121" style="stroke: #A80036; stroke-width: 1.0;"/><text fill="#000000" font-family="sans-serif" font-size="13" lengthAdjust="spacingAndGlyphs" textLength="67" x="412.5" y="294.02">«extends»</text><!--
@startuml
title Extends example

User -> (UC001: Upload photo)
User -down-> (UC002: Upload video)
(UC001: Upload photo) <.. (UC003: Apply filter): <<extends>>
(UC002: Upload video) <.. (UC003: Apply filter): <<extends>>

note left of (UC003: Apply filter)
Upload photo and upload 
video doesn't necessarily 
need to apply filter.
Upload photo can run without 
Applying filter.
end note
@enduml

PlantUML version 1.2019.10beta5(Unknown compile time)
(GPL source distribution)
Java Runtime: Java(TM) SE Runtime Environment
JVM: Java HotSpot(TM) 64-Bit Server VM
Java Version: 1.7.0_25-b15
Operating System: Linux
Default Encoding: UTF-8
Language: en
Country: US
--></g></svg>