<?xml version="1.0" encoding="UTF-8" standalone="no"?><svg xmlns="http://www.w3.org/2000/svg" xmlns:xlink="http://www.w3.org/1999/xlink" contentScriptType="application/ecmascript" contentStyleType="text/css" height="530px" preserveAspectRatio="none" style="width:584px;height:530px;" version="1.1" viewBox="0 0 584 530" width="584px" zoomAndPan="magnify"><defs><filter height="300%" id="f86fmgp4rg1by" width="300%" x="-1" y="-1"><feGaussianBlur result="blurOut" stdDeviation="2.0"/><feColorMatrix in="blurOut" result="blurOut2" type="matrix" values="0 0 0 0 0 0 0 0 0 0 0 0 0 0 0 0 0 0 .4 0"/><feOffset dx="4.0" dy="4.0" in="blurOut2" result="blurOut3"/><feBlend in="SourceGraphic" in2="blurOut3" mode="normal"/></filter></defs><g><text fill="#000000" font-family="sans-serif" font-size="18" lengthAdjust="spacingAndGlyphs" textLength="146" x="222.5" y="16.708">Include example</text><!--entity User--><ellipse cx="360.5" cy="38.9531" fill="#FEFECE" filter="url(#f86fmgp4rg1by)" rx="8" ry="8" style="stroke: #A80036; stroke-width: 2.0;"/><path d="M360.5,46.9531 L360.5,73.9531 M347.5,54.9531 L373.5,54.9531 M360.5,73.9531 L347.5,88.9531 M360.5,73.9531 L373.5,88.9531 " fill="none" filter="url(#f86fmgp4rg1by)" style="stroke: #A80036; stroke-width: 2.0;"/><text fill="#000000" font-family="sans-serif" font-size="14" lengthAdjust="spacingAndGlyphs" textLength="32" x="344.5" y="108.9482">User</text><ellipse cx="300.6884" cy="159.7908" fill="#FEFECE" filter="url(#f86fmgp4rg1by)" rx="77.1884" ry="17.8377" style="stroke: #A80036; stroke-width: 1.5;"/><text fill="#000000" font-family="sans-serif" font-size="14" lengthAdjust="spacingAndGlyphs" textLength="124" x="238.6884" y="164.4393">UC001: Ride a car</text><ellipse cx="492.5624" cy="70.4656" fill="#FEFECE" filter="url(#f86fmgp4rg1by)" rx="80.5624" ry="18.5125" style="stroke: #A80036; stroke-width: 1.5;"/><text fill="#000000" font-family="sans-serif" font-size="14" lengthAdjust="spacingAndGlyphs" textLength="132" x="426.5624" y="75.114">UC002: Ride a bike</text><ellipse cx="431.4744" cy="227.848" fill="#FEFECE" filter="url(#f86fmgp4rg1by)" rx="87.4744" ry="19.8949" style="stroke: #A80036; stroke-width: 1.5;"/><text fill="#000000" font-family="sans-serif" font-size="14" lengthAdjust="spacingAndGlyphs" textLength="148" x="357.4744" y="232.4964">UC003: Ride a tractor</text><ellipse cx="349.7229" cy="460.9977" fill="#FEFECE" filter="url(#f86fmgp4rg1by)" rx="93.2229" ry="21.0446" style="stroke: #A80036; stroke-width: 1.5;"/><text fill="#000000" font-family="sans-serif" font-size="14" lengthAdjust="spacingAndGlyphs" textLength="161" x="269.2229" y="465.6461">UC004: Start an engine</text><path d="M6,402.9531 L6,518.8828 A0,0 0 0 0 6,518.8828 L221,518.8828 A0,0 0 0 0 221,518.8828 L221,464.9531 L256.398,460.9531 L221,456.9531 L221,412.9531 L211,402.9531 L6,402.9531 A0,0 0 0 0 6,402.9531 " fill="#FBFB77" filter="url(#f86fmgp4rg1by)" style="stroke: #A80036; stroke-width: 1.0;"/><path d="M211,402.9531 L211,412.9531 L221,412.9531 L211,402.9531 " fill="#FBFB77" style="stroke: #A80036; stroke-width: 1.0;"/><text fill="#000000" font-family="sans-serif" font-size="13" lengthAdjust="spacingAndGlyphs" textLength="189" x="12" y="420.02">Start an engine is required by</text><text fill="#000000" font-family="sans-serif" font-size="13" lengthAdjust="spacingAndGlyphs" textLength="99" x="12" y="435.1528">car and tractor.</text><text fill="#000000" font-family="sans-serif" font-size="13" lengthAdjust="spacingAndGlyphs" textLength="105" x="12" y="450.2856">It must be done.</text><text fill="#000000" font-family="sans-serif" font-size="13" lengthAdjust="spacingAndGlyphs" textLength="171" x="12" y="465.4185">If User wants to  ride a car,</text><text fill="#000000" font-family="sans-serif" font-size="13" lengthAdjust="spacingAndGlyphs" textLength="190" x="12" y="480.5513">he must also Start an engine.</text><text fill="#000000" font-family="sans-serif" font-size="13" lengthAdjust="spacingAndGlyphs" textLength="190" x="12" y="495.6841">If User wants to ride a tractor,</text><text fill="#000000" font-family="sans-serif" font-size="13" lengthAdjust="spacingAndGlyphs" textLength="190" x="12" y="510.8169">he must also Start an engine.</text><!--link User to UC001: Ride a car--><path d="M344.421,94.9011 C335.252,108.2731 323.854,124.8951 314.967,137.8551 " fill="none" id="User-&gt;UC001: Ride a car" style="stroke: #A80036; stroke-width: 1.0;"/><polygon fill="#A80036" points="312.056,142.1001,320.4447,136.9397,314.8837,137.9765,313.8469,132.4155,312.056,142.1001" style="stroke: #A80036; stroke-width: 1.0;"/><!--link User to UC002: Ride a bike--><path d="M376.742,70.4531 C386.625,70.4531 396.509,70.4531 406.392,70.4531 " fill="none" id="User-&gt;UC002: Ride a bike" style="stroke: #A80036; stroke-width: 1.0;"/><polygon fill="#A80036" points="411.56,70.4531,402.56,66.4531,406.56,70.4531,402.56,74.4531,411.56,70.4531" style="stroke: #A80036; stroke-width: 1.0;"/><!--link User to UC003: Ride a tractor--><path d="M376.589,102.8431 C382.677,114.9831 389.566,129.0391 395.5,141.9531 C404.919,162.4521 414.864,186.1071 421.909,203.2501 " fill="none" id="User-&gt;UC003: Ride a tractor" style="stroke: #A80036; stroke-width: 1.0;"/><polygon fill="#A80036" points="423.816,207.9051,424.1028,198.0604,421.9192,203.2789,416.7008,201.0953,423.816,207.9051" style="stroke: #A80036; stroke-width: 1.0;"/><!--link UC001: Ride a car to UC004: Start an engine--><path d="M303.346,178.3211 C311.614,228.7721 335.657,375.4811 345.364,434.7125 " fill="none" id="UC001: Ride a car-&gt;UC004: Start an engine" style="stroke: #A80036; stroke-width: 1.0; stroke-dasharray: 7.0,7.0;"/><polygon fill="#A80036" points="346.202,439.8314,348.694,430.303,345.3934,434.8972,340.7992,431.5967,346.202,439.8314" style="stroke: #A80036; stroke-width: 1.0;"/><text fill="#000000" font-family="sans-serif" font-size="13" lengthAdjust="spacingAndGlyphs" textLength="68" x="322.5" y="291.02">«includes»</text><!--link UC003: Ride a tractor to UC004: Start an engine--><path d="M424.65,248.2511 C409.831,289.9951 374.811,388.6511 358.346,435.0345 " fill="none" id="UC003: Ride a tractor-&gt;UC004: Start an engine" style="stroke: #A80036; stroke-width: 1.0; stroke-dasharray: 7.0,7.0;"/><polygon fill="#A80036" points="356.622,439.8912,363.4026,432.7482,358.2949,435.1794,355.8637,430.0716,356.622,439.8912" style="stroke: #A80036; stroke-width: 1.0;"/><text fill="#000000" font-family="sans-serif" font-size="13" lengthAdjust="spacingAndGlyphs" textLength="68" x="397.5" y="338.02">«includes»</text><!--
@startuml
title Include example

User -> (UC001: Ride a car)
User -> (UC002: Ride a bike)
User -down-> (UC003: Ride a tractor)
(UC001: Ride a car) ...> (UC004: Start an engine): <<includes>>
(UC003: Ride a tractor) ...> (UC004: Start an engine): <<includes>>
note left of (UC004: Start an engine)
Start an engine is required by 
car and tractor.
It must be done.
If User wants to  ride a car, 
he must also Start an engine.
If User wants to ride a tractor, 
he must also Start an engine.
end note
@enduml

PlantUML version 1.2019.10beta5(Unknown compile time)
(GPL source distribution)
Java Runtime: Java(TM) SE Runtime Environment
JVM: Java HotSpot(TM) 64-Bit Server VM
Java Version: 1.7.0_25-b15
Operating System: Linux
Default Encoding: UTF-8
Language: en
Country: US
--></g></svg>