<?xml version="1.0" encoding="UTF-8" standalone="no"?><svg xmlns="http://www.w3.org/2000/svg" xmlns:xlink="http://www.w3.org/1999/xlink" contentScriptType="application/ecmascript" contentStyleType="text/css" height="529px" preserveAspectRatio="none" style="width:1501px;height:529px;" version="1.1" viewBox="0 0 1501 529" width="1501px" zoomAndPan="magnify"><defs><filter height="300%" id="fb8dwra0m8cya" width="300%" x="-1" y="-1"><feGaussianBlur result="blurOut" stdDeviation="2.0"/><feColorMatrix in="blurOut" result="blurOut2" type="matrix" values="0 0 0 0 0 0 0 0 0 0 0 0 0 0 0 0 0 0 .4 0"/><feOffset dx="4.0" dy="4.0" in="blurOut2" result="blurOut3"/><feBlend in="SourceGraphic" in2="blurOut3" mode="normal"/></filter></defs><g><text fill="#000000" font-family="sans-serif" font-size="18" lengthAdjust="spacingAndGlyphs" textLength="248" x="630.5" y="16.708">Lucinda - Use Case Diagram</text><!--entity NotLogged--><ellipse cx="1135" cy="38.9531" fill="#FEFECE" filter="url(#fb8dwra0m8cya)" rx="8" ry="8" style="stroke: #A80036; stroke-width: 2.0;"/><path d="M1135,46.9531 L1135,73.9531 M1122,54.9531 L1148,54.9531 M1135,73.9531 L1122,88.9531 M1135,73.9531 L1148,88.9531 " fill="none" filter="url(#fb8dwra0m8cya)" style="stroke: #A80036; stroke-width: 2.0;"/><text fill="#000000" font-family="sans-serif" font-size="14" lengthAdjust="spacingAndGlyphs" textLength="76" x="1097" y="108.9482">NotLogged</text><ellipse cx="1034.9883" cy="213.5508" fill="#FEFECE" filter="url(#fb8dwra0m8cya)" rx="80.9883" ry="18.5977" style="stroke: #A80036; stroke-width: 1.5;"/><text fill="#000000" font-family="sans-serif" font-size="14" lengthAdjust="spacingAndGlyphs" textLength="133" x="968.4883" y="218.1992">UC001: Can Sign In</text><ellipse cx="1234.9934" cy="213.6518" fill="#FEFECE" filter="url(#fb8dwra0m8cya)" rx="83.9934" ry="19.1987" style="stroke: #A80036; stroke-width: 1.5;"/><text fill="#000000" font-family="sans-serif" font-size="14" lengthAdjust="spacingAndGlyphs" textLength="140" x="1164.9934" y="218.3002">UC002: Can Sign Up</text><!--entity ProjectAdmin--><ellipse cx="1266" cy="324.9531" fill="#FEFECE" filter="url(#fb8dwra0m8cya)" rx="8" ry="8" style="stroke: #A80036; stroke-width: 2.0;"/><path d="M1266,332.9531 L1266,359.9531 M1253,340.9531 L1279,340.9531 M1266,359.9531 L1253,374.9531 M1266,359.9531 L1279,374.9531 " fill="none" filter="url(#fb8dwra0m8cya)" style="stroke: #A80036; stroke-width: 2.0;"/><text fill="#000000" font-family="sans-serif" font-size="14" lengthAdjust="spacingAndGlyphs" textLength="91" x="1220.5" y="394.9482">ProjectAdmin</text><!--entity User--><ellipse cx="588" cy="181.9531" fill="#FEFECE" filter="url(#fb8dwra0m8cya)" rx="8" ry="8" style="stroke: #A80036; stroke-width: 2.0;"/><path d="M588,189.9531 L588,216.9531 M575,197.9531 L601,197.9531 M588,216.9531 L575,231.9531 M588,216.9531 L601,231.9531 " fill="none" filter="url(#fb8dwra0m8cya)" style="stroke: #A80036; stroke-width: 2.0;"/><text fill="#000000" font-family="sans-serif" font-size="14" lengthAdjust="spacingAndGlyphs" textLength="32" x="572" y="251.9482">User</text><ellipse cx="98.9151" cy="356.6361" fill="#FEFECE" filter="url(#fb8dwra0m8cya)" rx="81.4151" ry="18.683" style="stroke: #A80036; stroke-width: 1.5;"/><text fill="#000000" font-family="sans-serif" font-size="14" lengthAdjust="spacingAndGlyphs" textLength="134" x="31.9151" y="361.2846">UC003: CRUD Task</text><ellipse cx="431.9911" cy="213.3513" fill="#FEFECE" filter="url(#fb8dwra0m8cya)" rx="104.9911" ry="23.3982" style="stroke: #A80036; stroke-width: 1.5;"/><text fill="#000000" font-family="sans-serif" font-size="14" lengthAdjust="spacingAndGlyphs" textLength="187" x="338.4911" y="217.9998">UC004: Create new Project</text><ellipse cx="317.7923" cy="356.2116" fill="#FEFECE" filter="url(#fb8dwra0m8cya)" rx="101.7923" ry="22.7585" style="stroke: #A80036; stroke-width: 1.5;"/><text fill="#000000" font-family="sans-serif" font-size="14" lengthAdjust="spacingAndGlyphs" textLength="180" x="227.7923" y="360.86">UC005: Create new Board</text><ellipse cx="1098.0368" cy="356.2605" fill="#FEFECE" filter="url(#fb8dwra0m8cya)" rx="87.0368" ry="19.8074" style="stroke: #A80036; stroke-width: 1.5;"/><text fill="#000000" font-family="sans-serif" font-size="14" lengthAdjust="spacingAndGlyphs" textLength="147" x="1024.5368" y="360.9089">UC006: Delete Board</text><ellipse cx="1132.212" cy="488.2955" fill="#FEFECE" filter="url(#fb8dwra0m8cya)" rx="139.712" ry="30.3424" style="stroke: #A80036; stroke-width: 1.5;"/><text fill="#000000" font-family="sans-serif" font-size="14" lengthAdjust="spacingAndGlyphs" textLength="261" x="1001.712" y="492.944">UC007: Remove Member from Project</text><ellipse cx="1398.8872" cy="488.2306" fill="#FEFECE" filter="url(#fb8dwra0m8cya)" rx="91.8872" ry="20.7774" style="stroke: #A80036; stroke-width: 1.5;"/><text fill="#000000" font-family="sans-serif" font-size="14" lengthAdjust="spacingAndGlyphs" textLength="158" x="1319.8872" y="492.879">UC008: Set new admin</text><ellipse cx="956.9911" cy="70.3513" fill="#FEFECE" filter="url(#fb8dwra0m8cya)" rx="104.9911" ry="23.3982" style="stroke: #A80036; stroke-width: 1.5;"/><text fill="#000000" font-family="sans-serif" font-size="14" lengthAdjust="spacingAndGlyphs" textLength="187" x="863.4911" y="74.9998">UC009: Invite new member</text><ellipse cx="588.0468" cy="356.4625" fill="#FEFECE" filter="url(#fb8dwra0m8cya)" rx="133.0468" ry="29.0094" style="stroke: #A80036; stroke-width: 1.5;"/><text fill="#000000" font-family="sans-serif" font-size="14" lengthAdjust="spacingAndGlyphs" textLength="247" x="464.5468" y="361.1109">UC010: Get all boards of the project</text><ellipse cx="149.0569" cy="213.4645" fill="#FEFECE" filter="url(#fb8dwra0m8cya)" rx="143.0569" ry="31.0114" style="stroke: #A80036; stroke-width: 1.5;"/><text fill="#000000" font-family="sans-serif" font-size="14" lengthAdjust="spacingAndGlyphs" textLength="268" x="15.0569" y="218.1129">UC011: Get all information about board</text><ellipse cx="724.8872" cy="70.2306" fill="#FEFECE" filter="url(#fb8dwra0m8cya)" rx="91.8872" ry="20.7774" style="stroke: #A80036; stroke-width: 1.5;"/><text fill="#000000" font-family="sans-serif" font-size="14" lengthAdjust="spacingAndGlyphs" textLength="158" x="645.8872" y="74.879">UC012: Refresh Token</text><ellipse cx="866.0557" cy="356.3643" fill="#FEFECE" filter="url(#fb8dwra0m8cya)" rx="110.0557" ry="24.4111" style="stroke: #A80036; stroke-width: 1.5;"/><text fill="#000000" font-family="sans-serif" font-size="14" lengthAdjust="spacingAndGlyphs" textLength="198" x="767.0557" y="361.0127">UC0013: Get User’s projects</text><ellipse cx="450.9091" cy="70.6349" fill="#FEFECE" filter="url(#fb8dwra0m8cya)" rx="146.4091" ry="31.6818" style="stroke: #A80036; stroke-width: 1.5;"/><text fill="#000000" font-family="sans-serif" font-size="14" lengthAdjust="spacingAndGlyphs" textLength="275" x="313.4091" y="75.2834">UC0014: Set board to be scrum/kanban</text><ellipse cx="187.9883" cy="70.5508" fill="#FEFECE" filter="url(#fb8dwra0m8cya)" rx="80.9883" ry="18.5977" style="stroke: #A80036; stroke-width: 1.5;"/><text fill="#000000" font-family="sans-serif" font-size="14" lengthAdjust="spacingAndGlyphs" textLength="133" x="121.4883" y="75.1992">UC0015: CRUD List</text><!--link NotLogged to UC001: Can Sign In--><path d="M1106.08,112.2361 C1086.58,139.7271 1061.85,174.5961 1047.29,195.1221 " fill="none" id="NotLogged-UC001: Can Sign In" style="stroke: #A80036; stroke-width: 1.0;"/><!--link NotLogged to UC002: Can Sign Up--><path d="M1163.92,112.2361 C1183.19,139.4011 1207.57,173.7721 1222.19,194.3871 " fill="none" id="NotLogged-UC002: Can Sign Up" style="stroke: #A80036; stroke-width: 1.0;"/><!--reverse link User to ProjectAdmin--><path d="M624.246,218.4131 C739.323,231.2901 1095.17,273.5431 1203,314.9531 C1208.83,317.1901 1214.68,320.0131 1220.35,323.1221 " fill="none" id="User&lt;-ProjectAdmin" style="stroke: #A80036; stroke-width: 1.0;"/><polygon fill="none" points="623.159,225.3351,604.049,216.1791,624.698,211.4201,623.159,225.3351" style="stroke: #A80036; stroke-width: 1.0;"/><!--link User to UC003: CRUD Task--><path d="M571.999,239.1251 C566.938,245.1751 560.853,251.0321 554,254.9531 C414.731,334.6371 352.309,270.9741 198,314.9531 C175.676,321.3151 151.55,331.1201 132.703,339.4891 " fill="none" id="User-UC003: CRUD Task" style="stroke: #A80036; stroke-width: 1.0;"/><!--link UC004: Create new Project to User--><path d="M537.117,213.4531 C548.645,213.4531 560.173,213.4531 571.702,213.4531 " fill="none" id="UC004: Create new Project-User" style="stroke: #A80036; stroke-width: 1.0;"/><!--link User to UC005: Create new Board--><path d="M571.678,237.6741 C566.538,243.8561 560.492,250.1451 554,254.9531 C523.627,277.4501 429.769,314.3001 369.972,336.5771 " fill="none" id="User-UC005: Create new Board" style="stroke: #A80036; stroke-width: 1.0;"/><!--link UC006: Delete Board to ProjectAdmin--><path d="M1185.28,356.4531 C1196.95,356.4531 1208.61,356.4531 1220.28,356.4531 " fill="none" id="UC006: Delete Board-ProjectAdmin" style="stroke: #A80036; stroke-width: 1.0;"/><!--link ProjectAdmin to UC007: Remove Member from Project--><path d="M1223.97,398.2291 C1203.86,417.7381 1180.25,440.6449 1161.98,458.3633 " fill="none" id="ProjectAdmin-UC007: Remove Member from Project" style="stroke: #A80036; stroke-width: 1.0;"/><!--link ProjectAdmin to UC008: Set new admin--><path d="M1307.72,398.2291 C1331.49,421.4615 1360.18,449.5116 1378.98,467.8809 " fill="none" id="ProjectAdmin-UC008: Set new admin" style="stroke: #A80036; stroke-width: 1.0;"/><!--link UC009: Invite new member to User--><path d="M905.692,91.0581 C820.936,123.4451 655.881,186.5151 604.004,206.3381 " fill="none" id="UC009: Invite new member-User" style="stroke: #A80036; stroke-width: 1.0;"/><!--link User to UC010: Get all boards of the project--><path d="M588,255.2361 C588,278.3351 588,306.6431 588,327.2741 " fill="none" id="User-UC010: Get all boards of the project" style="stroke: #A80036; stroke-width: 1.0;"/><!--link UC011: Get all information about board to User--><path d="M204.463,184.6991 C238.643,168.6221 283.937,150.2031 326.5,141.9531 C418.128,124.1921 453.427,99.4101 536.5,141.9531 C551.75,149.7631 563.514,164.4251 571.923,178.4481 " fill="none" id="UC011: Get all information about board-User" style="stroke: #A80036; stroke-width: 1.0;"/><!--link UC012: Refresh Token to User--><path d="M705.951,91.0581 C678.894,118.9051 629.798,169.4351 604.321,195.6551 " fill="none" id="UC012: Refresh Token-User" style="stroke: #A80036; stroke-width: 1.0;"/><!--link User to UC0013: Get User’s projects--><path d="M604.148,222.6431 C646.271,244.0081 760.568,301.9781 823.325,333.8091 " fill="none" id="User-UC0013: Get User’s projects" style="stroke: #A80036; stroke-width: 1.0;"/><!--link UC0014: Set board to be scrum/kanban to User--><path d="M483.366,101.4521 C504.075,121.0271 531.228,147.4121 554,171.9531 C559.995,178.4131 566.275,185.7241 571.783,192.3381 " fill="none" id="UC0014: Set board to be scrum/kanban-User" style="stroke: #A80036; stroke-width: 1.0;"/><!--link UC0015: CRUD List to User--><path d="M222.755,87.3401 C241.505,95.4841 265.211,105.1011 287,111.9531 C403.024,148.4401 450.104,108.7191 554,171.9531 C560.744,176.0581 566.794,181.9751 571.855,188.0241 " fill="none" id="UC0015: CRUD List-User" style="stroke: #A80036; stroke-width: 1.0;"/><!--
@startuml
title Lucinda - Use Case Diagram


NotLogged - - (UC001: Can Sign In)
NotLogged - - (UC002: Can Sign Up)
ProjectAdmin -up-|> User
User - - (UC003: CRUD Task)
User -left- (UC004: Create new Project)
User - - (UC005: Create new Board)
ProjectAdmin -left- (UC006: Delete Board)
ProjectAdmin - - (UC007: Remove Member from Project)
ProjectAdmin - - (UC008: Set new admin)
User -up- (UC009: Invite new member)
User - - (UC010: Get all boards of the project)
User -left- (UC011: Get all information about board)
User -up- (UC012: Refresh Token)
User -down- (UC0013: Get User’s projects)
User -up- (UC0014: Set board to be scrum/kanban)
User -up- (UC0015: CRUD List)
@enduml

PlantUML version 1.2019.10beta5(Unknown compile time)
(GPL source distribution)
Java Runtime: Java(TM) SE Runtime Environment
JVM: Java HotSpot(TM) 64-Bit Server VM
Java Version: 1.7.0_25-b15
Operating System: Linux
Default Encoding: UTF-8
Language: en
Country: US
--></g></svg>