<svg width="1480" height="593" viewBox="0 0 1480 593" fill="none" xmlns="http://www.w3.org/2000/svg">
<rect width="1480" height="593" fill="#F2F2F2"/>
<rect x="445" y="100" width="381" height="152" rx="6" fill="#15202B"/>
<rect x="54" y="55" width="288" height="79" rx="6" fill="#15202B"/>
<rect x="54" y="163" width="288" height="79" rx="6" fill="#15202B"/>
<rect x="54" y="271" width="288" height="79" rx="6" fill="#15202B"/>
<rect x="54" y="379" width="288" height="79" rx="6" fill="#15202B"/>
<rect x="54" y="489" width="288" height="79" rx="6" fill="#5E57B1"/>
<rect x="985" y="100" width="458" height="393" rx="6" fill="#15202B"/>
<path d="M1168.06 134.646H1162.05V145H1158.66V119.406H1167.13C1170.01 119.406 1172.23 120.062 1173.78 121.375C1175.33 122.688 1176.11 124.598 1176.11 127.105C1176.11 128.699 1175.68 130.088 1174.81 131.271C1173.96 132.455 1172.76 133.34 1171.23 133.926L1177.24 144.789V145H1173.62L1168.06 134.646ZM1162.05 131.887H1167.24C1168.91 131.887 1170.24 131.453 1171.23 130.586C1172.22 129.719 1172.72 128.559 1172.72 127.105C1172.72 125.523 1172.25 124.311 1171.3 123.467C1170.36 122.623 1169 122.195 1167.22 122.184H1162.05V131.887ZM1188.24 145.352C1185.66 145.352 1183.57 144.508 1181.95 142.82C1180.33 141.121 1179.52 138.854 1179.52 136.018V135.42C1179.52 133.533 1179.88 131.852 1180.6 130.375C1181.32 128.887 1182.33 127.727 1183.62 126.895C1184.92 126.051 1186.33 125.629 1187.84 125.629C1190.31 125.629 1192.23 126.443 1193.6 128.072C1194.97 129.701 1195.66 132.033 1195.66 135.068V136.422H1182.78C1182.82 138.297 1183.37 139.814 1184.41 140.975C1185.46 142.123 1186.8 142.697 1188.42 142.697C1189.57 142.697 1190.54 142.463 1191.34 141.994C1192.13 141.525 1192.83 140.904 1193.43 140.131L1195.41 141.678C1193.82 144.127 1191.43 145.352 1188.24 145.352ZM1187.84 128.301C1186.53 128.301 1185.42 128.781 1184.53 129.742C1183.64 130.691 1183.09 132.027 1182.88 133.75H1192.41V133.504C1192.31 131.852 1191.87 130.574 1191.07 129.672C1190.28 128.758 1189.2 128.301 1187.84 128.301ZM1198.65 135.332C1198.65 132.414 1199.34 130.07 1200.72 128.301C1202.11 126.52 1203.92 125.629 1206.15 125.629C1208.38 125.629 1210.14 126.391 1211.45 127.914V118H1214.7V145H1211.71L1211.55 142.961C1210.25 144.555 1208.44 145.352 1206.12 145.352C1203.92 145.352 1202.12 144.449 1200.72 142.645C1199.34 140.84 1198.65 138.484 1198.65 135.578V135.332ZM1201.9 135.701C1201.9 137.857 1202.35 139.545 1203.24 140.764C1204.13 141.982 1205.36 142.592 1206.93 142.592C1208.99 142.592 1210.5 141.666 1211.45 139.814V131.078C1210.47 129.285 1208.98 128.389 1206.96 128.389C1205.37 128.389 1204.13 129.004 1203.24 130.234C1202.35 131.465 1201.9 133.287 1201.9 135.701ZM1231.5 143.119C1230.24 144.607 1228.38 145.352 1225.93 145.352C1223.9 145.352 1222.36 144.766 1221.29 143.594C1220.23 142.41 1219.7 140.664 1219.69 138.355V125.98H1222.94V138.268C1222.94 141.15 1224.11 142.592 1226.46 142.592C1228.94 142.592 1230.59 141.666 1231.41 139.814V125.98H1234.67V145H1231.57L1231.5 143.119ZM1247.25 142.697C1248.41 142.697 1249.43 142.346 1250.29 141.643C1251.16 140.939 1251.64 140.061 1251.73 139.006H1254.81C1254.75 140.096 1254.38 141.133 1253.69 142.117C1252.99 143.102 1252.07 143.887 1250.91 144.473C1249.76 145.059 1248.54 145.352 1247.25 145.352C1244.66 145.352 1242.6 144.49 1241.06 142.768C1239.54 141.033 1238.78 138.666 1238.78 135.666V135.121C1238.78 133.27 1239.12 131.623 1239.8 130.182C1240.48 128.74 1241.45 127.621 1242.72 126.824C1243.99 126.027 1245.5 125.629 1247.23 125.629C1249.37 125.629 1251.14 126.268 1252.54 127.545C1253.96 128.822 1254.72 130.48 1254.81 132.52H1251.73C1251.64 131.289 1251.17 130.281 1250.33 129.496C1249.5 128.699 1248.46 128.301 1247.23 128.301C1245.58 128.301 1244.3 128.898 1243.38 130.094C1242.48 131.277 1242.03 132.994 1242.03 135.244V135.859C1242.03 138.051 1242.48 139.738 1243.38 140.922C1244.29 142.105 1245.58 142.697 1247.25 142.697ZM1266.36 145.352C1263.78 145.352 1261.68 144.508 1260.07 142.82C1258.45 141.121 1257.64 138.854 1257.64 136.018V135.42C1257.64 133.533 1258 131.852 1258.71 130.375C1259.44 128.887 1260.45 127.727 1261.74 126.895C1263.04 126.051 1264.44 125.629 1265.96 125.629C1268.43 125.629 1270.35 126.443 1271.72 128.072C1273.09 129.701 1273.78 132.033 1273.78 135.068V136.422H1260.89C1260.94 138.297 1261.48 139.814 1262.53 140.975C1263.58 142.123 1264.92 142.697 1266.54 142.697C1267.68 142.697 1268.66 142.463 1269.45 141.994C1270.25 141.525 1270.95 140.904 1271.54 140.131L1273.53 141.678C1271.94 144.127 1269.55 145.352 1266.36 145.352ZM1265.96 128.301C1264.64 128.301 1263.54 128.781 1262.65 129.742C1261.76 130.691 1261.21 132.027 1261 133.75H1270.53V133.504C1270.43 131.852 1269.99 130.574 1269.19 129.672C1268.39 128.758 1267.31 128.301 1265.96 128.301ZM1286.75 128.898C1286.26 128.816 1285.72 128.775 1285.15 128.775C1283.02 128.775 1281.57 129.684 1280.81 131.5V145H1277.56V125.98H1280.72L1280.77 128.178C1281.84 126.479 1283.35 125.629 1285.31 125.629C1285.94 125.629 1286.42 125.711 1286.75 125.875V128.898Z" fill="#E5E5E5"/>
<path d="M870.129 165.938L875.707 179.859L881.285 165.938H884.203V183H881.953V176.355L882.164 169.184L876.562 183H874.84L869.25 169.219L869.473 176.355V183H867.223V165.938H870.129ZM895.664 183C895.539 182.75 895.438 182.305 895.359 181.664C894.352 182.711 893.148 183.234 891.75 183.234C890.5 183.234 889.473 182.883 888.668 182.18C887.871 181.469 887.473 180.57 887.473 179.484C887.473 178.164 887.973 177.141 888.973 176.414C889.98 175.68 891.395 175.312 893.215 175.312H895.324V174.316C895.324 173.559 895.098 172.957 894.645 172.512C894.191 172.059 893.523 171.832 892.641 171.832C891.867 171.832 891.219 172.027 890.695 172.418C890.172 172.809 889.91 173.281 889.91 173.836H887.73C887.73 173.203 887.953 172.594 888.398 172.008C888.852 171.414 889.461 170.945 890.227 170.602C891 170.258 891.848 170.086 892.77 170.086C894.23 170.086 895.375 170.453 896.203 171.188C897.031 171.914 897.461 172.918 897.492 174.199V180.035C897.492 181.199 897.641 182.125 897.938 182.812V183H895.664ZM892.066 181.348C892.746 181.348 893.391 181.172 894 180.82C894.609 180.469 895.051 180.012 895.324 179.449V176.848H893.625C890.969 176.848 889.641 177.625 889.641 179.18C889.641 179.859 889.867 180.391 890.32 180.773C890.773 181.156 891.355 181.348 892.066 181.348ZM911.602 176.801C911.602 178.73 911.16 180.285 910.277 181.465C909.395 182.645 908.199 183.234 906.691 183.234C905.152 183.234 903.941 182.746 903.059 181.77V187.875H900.891V170.32H902.871L902.977 171.727C903.859 170.633 905.086 170.086 906.656 170.086C908.18 170.086 909.383 170.66 910.266 171.809C911.156 172.957 911.602 174.555 911.602 176.602V176.801ZM909.434 176.555C909.434 175.125 909.129 173.996 908.52 173.168C907.91 172.34 907.074 171.926 906.012 171.926C904.699 171.926 903.715 172.508 903.059 173.672V179.73C903.707 180.887 904.699 181.465 906.035 181.465C907.074 181.465 907.898 181.055 908.508 180.234C909.125 179.406 909.434 178.18 909.434 176.555ZM925.078 176.801C925.078 178.73 924.637 180.285 923.754 181.465C922.871 182.645 921.676 183.234 920.168 183.234C918.629 183.234 917.418 182.746 916.535 181.77V187.875H914.367V170.32H916.348L916.453 171.727C917.336 170.633 918.562 170.086 920.133 170.086C921.656 170.086 922.859 170.66 923.742 171.809C924.633 172.957 925.078 174.555 925.078 176.602V176.801ZM922.91 176.555C922.91 175.125 922.605 173.996 921.996 173.168C921.387 172.34 920.551 171.926 919.488 171.926C918.176 171.926 917.191 172.508 916.535 173.672V179.73C917.184 180.887 918.176 181.465 919.512 181.465C920.551 181.465 921.375 181.055 921.984 180.234C922.602 179.406 922.91 178.18 922.91 176.555ZM930.199 183H928.031V170.32H930.199V183ZM927.855 166.957C927.855 166.605 927.961 166.309 928.172 166.066C928.391 165.824 928.711 165.703 929.133 165.703C929.555 165.703 929.875 165.824 930.094 166.066C930.312 166.309 930.422 166.605 930.422 166.957C930.422 167.309 930.312 167.602 930.094 167.836C929.875 168.07 929.555 168.188 929.133 168.188C928.711 168.188 928.391 168.07 928.172 167.836C927.961 167.602 927.855 167.309 927.855 166.957ZM935.73 170.32L935.801 171.914C936.77 170.695 938.035 170.086 939.598 170.086C942.277 170.086 943.629 171.598 943.652 174.621V183H941.484V174.609C941.477 173.695 941.266 173.02 940.852 172.582C940.445 172.145 939.809 171.926 938.941 171.926C938.238 171.926 937.621 172.113 937.09 172.488C936.559 172.863 936.145 173.355 935.848 173.965V183H933.68V170.32H935.73ZM946.406 176.555C946.406 174.578 946.863 173.008 947.777 171.844C948.691 170.672 949.902 170.086 951.41 170.086C952.957 170.086 954.164 170.633 955.031 171.727L955.137 170.32H957.117V182.695C957.117 184.336 956.629 185.629 955.652 186.574C954.684 187.52 953.379 187.992 951.738 187.992C950.824 187.992 949.93 187.797 949.055 187.406C948.18 187.016 947.512 186.48 947.051 185.801L948.176 184.5C949.105 185.648 950.242 186.223 951.586 186.223C952.641 186.223 953.461 185.926 954.047 185.332C954.641 184.738 954.938 183.902 954.938 182.824V181.734C954.07 182.734 952.887 183.234 951.387 183.234C949.902 183.234 948.699 182.637 947.777 181.441C946.863 180.246 946.406 178.617 946.406 176.555ZM948.586 176.801C948.586 178.23 948.879 179.355 949.465 180.176C950.051 180.988 950.871 181.395 951.926 181.395C953.293 181.395 954.297 180.773 954.938 179.531V173.742C954.273 172.531 953.277 171.926 951.949 171.926C950.895 171.926 950.07 172.336 949.477 173.156C948.883 173.977 948.586 175.191 948.586 176.801Z" fill="#15202B"/>
<path d="M1042.26 191.296C1040.81 190.88 1039.75 190.37 1039.09 189.767C1038.44 189.157 1038.11 188.407 1038.11 187.517C1038.11 186.509 1038.51 185.677 1039.31 185.021C1040.12 184.358 1041.17 184.027 1042.46 184.027C1043.34 184.027 1044.12 184.197 1044.8 184.537C1045.5 184.877 1046.03 185.346 1046.4 185.943C1046.79 186.541 1046.98 187.194 1046.98 187.903H1045.28C1045.28 187.13 1045.03 186.523 1044.54 186.084C1044.05 185.639 1043.35 185.416 1042.46 185.416C1041.63 185.416 1040.98 185.601 1040.51 185.97C1040.04 186.333 1039.81 186.84 1039.81 187.49C1039.81 188.012 1040.03 188.454 1040.47 188.817C1040.92 189.175 1041.67 189.503 1042.73 189.802C1043.8 190.101 1044.63 190.432 1045.23 190.795C1045.83 191.152 1046.28 191.571 1046.56 192.052C1046.86 192.532 1047 193.098 1047 193.748C1047 194.785 1046.6 195.617 1045.79 196.244C1044.98 196.865 1043.9 197.176 1042.55 197.176C1041.67 197.176 1040.85 197.009 1040.08 196.675C1039.32 196.335 1038.73 195.872 1038.32 195.286C1037.91 194.7 1037.7 194.035 1037.7 193.291H1039.4C1039.4 194.064 1039.68 194.677 1040.25 195.128C1040.83 195.573 1041.59 195.796 1042.55 195.796C1043.44 195.796 1044.12 195.614 1044.59 195.251C1045.07 194.888 1045.31 194.393 1045.31 193.766C1045.31 193.139 1045.09 192.655 1044.65 192.315C1044.21 191.97 1043.41 191.63 1042.26 191.296ZM1057.34 194.759L1059.17 187.49H1060.79L1058.02 197H1056.71L1054.39 189.793L1052.14 197H1050.83L1048.07 187.49H1049.68L1051.55 194.609L1053.77 187.49H1055.08L1057.34 194.759ZM1064.22 197H1062.59V187.49H1064.22V197ZM1062.46 184.968C1062.46 184.704 1062.54 184.481 1062.7 184.3C1062.86 184.118 1063.1 184.027 1063.42 184.027C1063.74 184.027 1063.98 184.118 1064.14 184.3C1064.3 184.481 1064.39 184.704 1064.39 184.968C1064.39 185.231 1064.3 185.451 1064.14 185.627C1063.98 185.803 1063.74 185.891 1063.42 185.891C1063.1 185.891 1062.86 185.803 1062.7 185.627C1062.54 185.451 1062.46 185.231 1062.46 184.968ZM1069.04 185.188V187.49H1070.81V188.747H1069.04V194.645C1069.04 195.025 1069.12 195.312 1069.27 195.506C1069.43 195.693 1069.7 195.787 1070.08 195.787C1070.27 195.787 1070.53 195.752 1070.86 195.682V197C1070.43 197.117 1070.01 197.176 1069.61 197.176C1068.88 197.176 1068.33 196.956 1067.96 196.517C1067.59 196.077 1067.41 195.453 1067.41 194.645V188.747H1065.68V187.49H1067.41V185.188H1069.04ZM1076.53 195.849C1077.11 195.849 1077.62 195.673 1078.05 195.321C1078.49 194.97 1078.73 194.53 1078.77 194.003H1080.31C1080.28 194.548 1080.1 195.066 1079.75 195.559C1079.4 196.051 1078.94 196.443 1078.36 196.736C1077.79 197.029 1077.18 197.176 1076.53 197.176C1075.24 197.176 1074.21 196.745 1073.44 195.884C1072.68 195.017 1072.3 193.833 1072.3 192.333V192.061C1072.3 191.135 1072.47 190.312 1072.81 189.591C1073.15 188.87 1073.63 188.311 1074.27 187.912C1074.9 187.514 1075.66 187.314 1076.52 187.314C1077.59 187.314 1078.48 187.634 1079.18 188.272C1079.89 188.911 1080.27 189.74 1080.31 190.76H1078.77C1078.73 190.145 1078.49 189.641 1078.07 189.248C1077.66 188.85 1077.14 188.65 1076.52 188.65C1075.7 188.65 1075.06 188.949 1074.6 189.547C1074.15 190.139 1073.92 190.997 1073.92 192.122V192.43C1073.92 193.525 1074.15 194.369 1074.6 194.961C1075.05 195.553 1075.7 195.849 1076.53 195.849ZM1083.77 188.642C1084.49 187.757 1085.42 187.314 1086.58 187.314C1088.59 187.314 1089.6 188.448 1089.62 190.716V197H1087.99V190.707C1087.99 190.021 1087.83 189.515 1087.52 189.187C1087.21 188.858 1086.74 188.694 1086.09 188.694C1085.56 188.694 1085.1 188.835 1084.7 189.116C1084.3 189.397 1083.99 189.767 1083.77 190.224V197H1082.14V183.5H1083.77V188.642ZM1092 196.147C1092 195.866 1092.08 195.632 1092.25 195.444C1092.42 195.257 1092.67 195.163 1093 195.163C1093.34 195.163 1093.59 195.257 1093.76 195.444C1093.94 195.632 1094.02 195.866 1094.02 196.147C1094.02 196.417 1093.94 196.643 1093.76 196.824C1093.59 197.006 1093.34 197.097 1093 197.097C1092.67 197.097 1092.42 197.006 1092.25 196.824C1092.08 196.643 1092 196.417 1092 196.147ZM1092.01 188.387C1092.01 188.105 1092.09 187.871 1092.26 187.684C1092.43 187.496 1092.68 187.402 1093.01 187.402C1093.35 187.402 1093.6 187.496 1093.77 187.684C1093.94 187.871 1094.03 188.105 1094.03 188.387C1094.03 188.656 1093.94 188.882 1093.77 189.063C1093.6 189.245 1093.35 189.336 1093.01 189.336C1092.68 189.336 1092.43 189.245 1092.26 189.063C1092.09 188.882 1092.01 188.656 1092.01 188.387Z" fill="#E5E5E5"/>
<path d="M1043.33 228.015C1043.33 229.269 1043.12 230.364 1042.7 231.302C1042.28 232.233 1041.68 232.945 1040.91 233.438C1040.13 233.93 1039.23 234.176 1038.2 234.176C1037.19 234.176 1036.3 233.93 1035.52 233.438C1034.74 232.939 1034.13 232.233 1033.7 231.319C1033.27 230.399 1033.05 229.336 1033.04 228.129V227.206C1033.04 225.976 1033.26 224.889 1033.68 223.945C1034.11 223.002 1034.71 222.281 1035.49 221.783C1036.28 221.279 1037.18 221.027 1038.18 221.027C1039.21 221.027 1040.11 221.276 1040.89 221.774C1041.68 222.267 1042.28 222.984 1042.7 223.928C1043.12 224.865 1043.33 225.958 1043.33 227.206V228.015ZM1041.66 227.188C1041.66 225.671 1041.35 224.508 1040.74 223.699C1040.13 222.885 1039.28 222.478 1038.18 222.478C1037.12 222.478 1036.28 222.885 1035.66 223.699C1035.05 224.508 1034.74 225.633 1034.72 227.074V228.015C1034.72 229.485 1035.03 230.643 1035.64 231.486C1036.26 232.324 1037.12 232.743 1038.2 232.743C1039.29 232.743 1040.13 232.348 1040.73 231.557C1041.33 230.76 1041.64 229.62 1041.66 228.138V227.188ZM1047.15 224.49L1047.2 225.686C1047.93 224.771 1048.88 224.314 1050.05 224.314C1052.06 224.314 1053.07 225.448 1053.09 227.716V234H1051.46V227.707C1051.46 227.021 1051.3 226.515 1050.99 226.187C1050.68 225.858 1050.21 225.694 1049.56 225.694C1049.03 225.694 1048.57 225.835 1048.17 226.116C1047.77 226.397 1047.46 226.767 1047.24 227.224V234H1045.61V224.49H1047.15ZM1057.31 234H1055.68V220.5H1057.31V234ZM1063.03 231.618L1065.25 224.49H1066.99L1063.16 235.468C1062.57 237.05 1061.63 237.841 1060.34 237.841L1060.03 237.814L1059.43 237.7V236.382L1059.87 236.417C1060.42 236.417 1060.84 236.306 1061.15 236.083C1061.46 235.86 1061.71 235.453 1061.91 234.861L1062.27 233.895L1058.88 224.49H1060.66L1063.03 231.618ZM1083.01 228.015C1083.01 229.269 1082.8 230.364 1082.38 231.302C1081.95 232.233 1081.36 232.945 1080.58 233.438C1079.81 233.93 1078.91 234.176 1077.88 234.176C1076.87 234.176 1075.97 233.93 1075.19 233.438C1074.42 232.939 1073.81 232.233 1073.38 231.319C1072.95 230.399 1072.73 229.336 1072.72 228.129V227.206C1072.72 225.976 1072.93 224.889 1073.36 223.945C1073.79 223.002 1074.39 222.281 1075.17 221.783C1075.95 221.279 1076.85 221.027 1077.86 221.027C1078.88 221.027 1079.79 221.276 1080.56 221.774C1081.35 222.267 1081.95 222.984 1082.38 223.928C1082.8 224.865 1083.01 225.958 1083.01 227.206V228.015ZM1081.33 227.188C1081.33 225.671 1081.02 224.508 1080.42 223.699C1079.81 222.885 1078.95 222.478 1077.86 222.478C1076.79 222.478 1075.95 222.885 1075.33 223.699C1074.73 224.508 1074.41 225.633 1074.39 227.074V228.015C1074.39 229.485 1074.7 230.643 1075.32 231.486C1075.94 232.324 1076.79 232.743 1077.88 232.743C1078.96 232.743 1079.81 232.348 1080.41 231.557C1081 230.76 1081.31 229.62 1081.33 228.138V227.188ZM1086.82 224.49L1086.88 225.686C1087.6 224.771 1088.55 224.314 1089.72 224.314C1091.73 224.314 1092.75 225.448 1092.76 227.716V234H1091.14V227.707C1091.13 227.021 1090.97 226.515 1090.66 226.187C1090.36 225.858 1089.88 225.694 1089.23 225.694C1088.7 225.694 1088.24 225.835 1087.84 226.116C1087.44 226.397 1087.13 226.767 1086.91 227.224V234H1085.28V224.49H1086.82ZM1099.16 234.176C1097.87 234.176 1096.82 233.754 1096.02 232.91C1095.21 232.061 1094.8 230.927 1094.8 229.509V229.21C1094.8 228.267 1094.98 227.426 1095.34 226.688C1095.7 225.943 1096.21 225.363 1096.85 224.947C1097.5 224.525 1098.2 224.314 1098.96 224.314C1100.2 224.314 1101.16 224.722 1101.84 225.536C1102.53 226.351 1102.87 227.517 1102.87 229.034V229.711H1096.43C1096.45 230.648 1096.72 231.407 1097.25 231.987C1097.77 232.562 1098.44 232.849 1099.25 232.849C1099.82 232.849 1100.31 232.731 1100.71 232.497C1101.11 232.263 1101.46 231.952 1101.75 231.565L1102.75 232.339C1101.95 233.563 1100.76 234.176 1099.16 234.176ZM1098.96 225.65C1098.3 225.65 1097.75 225.891 1097.31 226.371C1096.86 226.846 1096.59 227.514 1096.48 228.375H1101.25V228.252C1101.2 227.426 1100.98 226.787 1100.58 226.336C1100.18 225.879 1099.64 225.65 1098.96 225.65ZM1060.73 250.939C1060.57 252.293 1060.07 253.339 1059.22 254.077C1058.39 254.81 1057.27 255.176 1055.88 255.176C1054.36 255.176 1053.15 254.634 1052.24 253.55C1051.33 252.466 1050.88 251.016 1050.88 249.199V247.969C1050.88 246.779 1051.09 245.733 1051.51 244.831C1051.94 243.929 1052.54 243.237 1053.32 242.757C1054.1 242.271 1055 242.027 1056.03 242.027C1057.38 242.027 1058.47 242.408 1059.29 243.17C1060.12 243.926 1060.59 244.975 1060.73 246.316H1059.03C1058.88 245.297 1058.57 244.559 1058.07 244.102C1057.59 243.645 1056.9 243.416 1056.03 243.416C1054.95 243.416 1054.1 243.814 1053.49 244.611C1052.88 245.408 1052.57 246.542 1052.57 248.013V249.252C1052.57 250.641 1052.86 251.745 1053.44 252.565C1054.02 253.386 1054.83 253.796 1055.88 253.796C1056.81 253.796 1057.53 253.585 1058.03 253.163C1058.53 252.735 1058.87 251.994 1059.03 250.939H1060.73ZM1068.66 255C1068.56 254.812 1068.49 254.479 1068.43 253.998C1067.67 254.783 1066.77 255.176 1065.72 255.176C1064.78 255.176 1064.01 254.912 1063.41 254.385C1062.81 253.852 1062.51 253.178 1062.51 252.363C1062.51 251.373 1062.89 250.605 1063.64 250.061C1064.39 249.51 1065.45 249.234 1066.82 249.234H1068.4V248.487C1068.4 247.919 1068.23 247.468 1067.89 247.134C1067.55 246.794 1067.05 246.624 1066.39 246.624C1065.81 246.624 1065.32 246.771 1064.93 247.063C1064.54 247.356 1064.34 247.711 1064.34 248.127H1062.71C1062.71 247.652 1062.87 247.195 1063.21 246.756C1063.55 246.311 1064 245.959 1064.58 245.701C1065.16 245.443 1065.79 245.314 1066.48 245.314C1067.58 245.314 1068.44 245.59 1069.06 246.141C1069.68 246.686 1070 247.438 1070.03 248.399V252.776C1070.03 253.649 1070.14 254.344 1070.36 254.859V255H1068.66ZM1065.96 253.761C1066.47 253.761 1066.95 253.629 1067.41 253.365C1067.86 253.102 1068.2 252.759 1068.4 252.337V250.386H1067.13C1065.13 250.386 1064.14 250.969 1064.14 252.135C1064.14 252.645 1064.31 253.043 1064.65 253.33C1064.99 253.617 1065.42 253.761 1065.96 253.761ZM1078.11 252.478C1078.11 252.038 1077.95 251.698 1077.61 251.458C1077.28 251.212 1076.71 251.001 1075.88 250.825C1075.06 250.649 1074.41 250.438 1073.92 250.192C1073.44 249.946 1073.08 249.653 1072.85 249.313C1072.62 248.974 1072.5 248.569 1072.5 248.101C1072.5 247.321 1072.83 246.662 1073.49 246.123C1074.15 245.584 1075 245.314 1076.02 245.314C1077.1 245.314 1077.97 245.593 1078.64 246.149C1079.31 246.706 1079.65 247.418 1079.65 248.285H1078.02C1078.02 247.84 1077.83 247.456 1077.44 247.134C1077.07 246.812 1076.59 246.65 1076.02 246.65C1075.43 246.65 1074.97 246.779 1074.63 247.037C1074.3 247.295 1074.13 247.632 1074.13 248.048C1074.13 248.44 1074.29 248.736 1074.6 248.936C1074.91 249.135 1075.47 249.325 1076.28 249.507C1077.09 249.688 1077.75 249.905 1078.25 250.157C1078.76 250.409 1079.13 250.714 1079.37 251.071C1079.62 251.423 1079.74 251.854 1079.74 252.363C1079.74 253.213 1079.4 253.896 1078.72 254.411C1078.04 254.921 1077.16 255.176 1076.07 255.176C1075.31 255.176 1074.64 255.041 1074.05 254.771C1073.47 254.502 1073.01 254.127 1072.67 253.646C1072.34 253.16 1072.18 252.636 1072.18 252.073H1073.81C1073.83 252.618 1074.05 253.052 1074.46 253.374C1074.87 253.69 1075.41 253.849 1076.07 253.849C1076.69 253.849 1077.18 253.726 1077.55 253.479C1077.92 253.228 1078.11 252.894 1078.11 252.478ZM1085.8 255.176C1084.51 255.176 1083.46 254.754 1082.66 253.91C1081.85 253.061 1081.44 251.927 1081.44 250.509V250.21C1081.44 249.267 1081.62 248.426 1081.98 247.688C1082.34 246.943 1082.85 246.363 1083.49 245.947C1084.14 245.525 1084.84 245.314 1085.6 245.314C1086.84 245.314 1087.8 245.722 1088.48 246.536C1089.17 247.351 1089.51 248.517 1089.51 250.034V250.711H1083.07C1083.09 251.648 1083.37 252.407 1083.89 252.987C1084.41 253.562 1085.08 253.849 1085.89 253.849C1086.46 253.849 1086.95 253.731 1087.35 253.497C1087.75 253.263 1088.1 252.952 1088.4 252.565L1089.39 253.339C1088.59 254.563 1087.4 255.176 1085.8 255.176ZM1085.6 246.65C1084.94 246.65 1084.39 246.891 1083.95 247.371C1083.5 247.846 1083.23 248.514 1083.12 249.375H1087.89V249.252C1087.84 248.426 1087.62 247.787 1087.22 247.336C1086.82 246.879 1086.28 246.65 1085.6 246.65Z" fill="#E5E5E5"/>
<path d="M181.549 84.3486H176.179V90H174.491V77.2031H182.419V78.5918H176.179V82.9688H181.549V84.3486ZM185.724 80.4902L185.776 81.6855C186.503 80.7715 187.452 80.3145 188.624 80.3145C190.634 80.3145 191.647 81.4482 191.665 83.7158V90H190.039V83.707C190.033 83.0215 189.875 82.5146 189.564 82.1865C189.26 81.8584 188.782 81.6943 188.132 81.6943C187.604 81.6943 187.142 81.835 186.743 82.1162C186.345 82.3975 186.034 82.7666 185.812 83.2236V90H184.186V80.4902H185.724ZM199.294 90H197.659V79.1631L194.381 80.3672V78.8906L199.039 77.1416H199.294V90Z" fill="#E5E5E5"/>
<path d="M181.549 199.349H176.179V205H174.491V192.203H182.419V193.592H176.179V197.969H181.549V199.349ZM185.724 195.49L185.776 196.686C186.503 195.771 187.452 195.314 188.624 195.314C190.634 195.314 191.647 196.448 191.665 198.716V205H190.039V198.707C190.033 198.021 189.875 197.515 189.564 197.187C189.26 196.858 188.782 196.694 188.132 196.694C187.604 196.694 187.142 196.835 186.743 197.116C186.345 197.397 186.034 197.767 185.812 198.224V205H184.186V195.49H185.724ZM202.335 205H193.95V203.831L198.38 198.909C199.036 198.165 199.487 197.562 199.733 197.099C199.985 196.63 200.111 196.146 200.111 195.648C200.111 194.98 199.909 194.433 199.505 194.005C199.101 193.577 198.562 193.363 197.888 193.363C197.079 193.363 196.449 193.595 195.998 194.058C195.553 194.515 195.33 195.153 195.33 195.974H193.704C193.704 194.796 194.082 193.844 194.838 193.117C195.6 192.391 196.616 192.027 197.888 192.027C199.077 192.027 200.018 192.341 200.709 192.968C201.4 193.589 201.746 194.418 201.746 195.455C201.746 196.715 200.943 198.215 199.338 199.955L195.91 203.673H202.335V205Z" fill="#E5E5E5"/>
<path d="M181.549 308.349H176.179V314H174.491V301.203H182.419V302.592H176.179V306.969H181.549V308.349ZM185.724 304.49L185.776 305.686C186.503 304.771 187.452 304.314 188.624 304.314C190.634 304.314 191.647 305.448 191.665 307.716V314H190.039V307.707C190.033 307.021 189.875 306.515 189.564 306.187C189.26 305.858 188.782 305.694 188.132 305.694C187.604 305.694 187.142 305.835 186.743 306.116C186.345 306.397 186.034 306.767 185.812 307.224V314H184.186V304.49H185.724ZM196.314 306.811H197.536C198.304 306.799 198.907 306.597 199.347 306.204C199.786 305.812 200.006 305.281 200.006 304.613C200.006 303.113 199.259 302.363 197.765 302.363C197.062 302.363 196.499 302.565 196.077 302.97C195.661 303.368 195.453 303.898 195.453 304.561H193.827C193.827 303.547 194.196 302.706 194.935 302.038C195.679 301.364 196.622 301.027 197.765 301.027C198.972 301.027 199.918 301.347 200.604 301.985C201.289 302.624 201.632 303.512 201.632 304.648C201.632 305.205 201.45 305.744 201.087 306.266C200.729 306.787 200.24 307.177 199.619 307.435C200.322 307.657 200.864 308.026 201.245 308.542C201.632 309.058 201.825 309.688 201.825 310.432C201.825 311.58 201.45 312.491 200.7 313.165C199.95 313.839 198.975 314.176 197.773 314.176C196.572 314.176 195.594 313.851 194.838 313.2C194.088 312.55 193.713 311.691 193.713 310.625H195.348C195.348 311.299 195.567 311.838 196.007 312.242C196.446 312.646 197.035 312.849 197.773 312.849C198.559 312.849 199.159 312.644 199.575 312.233C199.991 311.823 200.199 311.234 200.199 310.467C200.199 309.723 199.971 309.151 199.514 308.753C199.057 308.354 198.397 308.149 197.536 308.138H196.314V306.811Z" fill="#E5E5E5"/>
<path d="M181.549 417.349H176.179V423H174.491V410.203H182.419V411.592H176.179V415.969H181.549V417.349ZM185.724 413.49L185.776 414.686C186.503 413.771 187.452 413.314 188.624 413.314C190.634 413.314 191.647 414.448 191.665 416.716V423H190.039V416.707C190.033 416.021 189.875 415.515 189.564 415.187C189.26 414.858 188.782 414.694 188.132 414.694C187.604 414.694 187.142 414.835 186.743 415.116C186.345 415.397 186.034 415.767 185.812 416.224V423H184.186V413.49H185.724ZM200.814 418.702H202.59V420.029H200.814V423H199.18V420.029H193.353V419.071L199.083 410.203H200.814V418.702ZM195.198 418.702H199.18V412.427L198.986 412.778L195.198 418.702Z" fill="#E5E5E5"/>
<path d="M132.354 525.823H129.349V531H127.652V518.203H131.889C133.33 518.203 134.438 518.531 135.211 519.188C135.99 519.844 136.38 520.799 136.38 522.053C136.38 522.85 136.163 523.544 135.729 524.136C135.302 524.728 134.704 525.17 133.937 525.463L136.942 530.895V531H135.132L132.354 525.823ZM129.349 524.443H131.941C132.779 524.443 133.444 524.227 133.937 523.793C134.435 523.359 134.684 522.779 134.684 522.053C134.684 521.262 134.446 520.655 133.972 520.233C133.503 519.812 132.823 519.598 131.933 519.592H129.349V524.443ZM142.444 531.176C141.155 531.176 140.106 530.754 139.298 529.91C138.489 529.061 138.085 527.927 138.085 526.509V526.21C138.085 525.267 138.264 524.426 138.621 523.688C138.984 522.943 139.488 522.363 140.133 521.947C140.783 521.525 141.486 521.314 142.242 521.314C143.479 521.314 144.439 521.722 145.125 522.536C145.811 523.351 146.153 524.517 146.153 526.034V526.711H139.711C139.734 527.648 140.007 528.407 140.528 528.987C141.056 529.562 141.724 529.849 142.532 529.849C143.106 529.849 143.593 529.731 143.991 529.497C144.39 529.263 144.738 528.952 145.037 528.565L146.03 529.339C145.233 530.563 144.038 531.176 142.444 531.176ZM142.242 522.65C141.586 522.65 141.035 522.891 140.59 523.371C140.145 523.846 139.869 524.514 139.764 525.375H144.527V525.252C144.48 524.426 144.258 523.787 143.859 523.336C143.461 522.879 142.922 522.65 142.242 522.65ZM153.914 531C153.82 530.812 153.744 530.479 153.686 529.998C152.93 530.783 152.027 531.176 150.979 531.176C150.041 531.176 149.271 530.912 148.667 530.385C148.069 529.852 147.771 529.178 147.771 528.363C147.771 527.373 148.146 526.605 148.896 526.061C149.651 525.51 150.712 525.234 152.077 525.234H153.659V524.487C153.659 523.919 153.489 523.468 153.149 523.134C152.81 522.794 152.309 522.624 151.646 522.624C151.066 522.624 150.58 522.771 150.188 523.063C149.795 523.356 149.599 523.711 149.599 524.127H147.964C147.964 523.652 148.131 523.195 148.465 522.756C148.805 522.311 149.262 521.959 149.836 521.701C150.416 521.443 151.052 521.314 151.743 521.314C152.839 521.314 153.697 521.59 154.318 522.141C154.939 522.686 155.262 523.438 155.285 524.399V528.776C155.285 529.649 155.396 530.344 155.619 530.859V531H153.914ZM151.216 529.761C151.726 529.761 152.209 529.629 152.666 529.365C153.123 529.102 153.454 528.759 153.659 528.337V526.386H152.385C150.393 526.386 149.396 526.969 149.396 528.135C149.396 528.645 149.566 529.043 149.906 529.33C150.246 529.617 150.683 529.761 151.216 529.761ZM161.648 529.849C162.229 529.849 162.735 529.673 163.169 529.321C163.603 528.97 163.843 528.53 163.89 528.003H165.428C165.398 528.548 165.211 529.066 164.865 529.559C164.52 530.051 164.057 530.443 163.477 530.736C162.902 531.029 162.293 531.176 161.648 531.176C160.354 531.176 159.322 530.745 158.555 529.884C157.793 529.017 157.412 527.833 157.412 526.333V526.061C157.412 525.135 157.582 524.312 157.922 523.591C158.262 522.87 158.748 522.311 159.381 521.912C160.02 521.514 160.772 521.314 161.64 521.314C162.706 521.314 163.591 521.634 164.294 522.272C165.003 522.911 165.381 523.74 165.428 524.76H163.89C163.843 524.145 163.608 523.641 163.187 523.248C162.771 522.85 162.255 522.65 161.64 522.65C160.813 522.65 160.172 522.949 159.715 523.547C159.264 524.139 159.038 524.997 159.038 526.122V526.43C159.038 527.525 159.264 528.369 159.715 528.961C160.166 529.553 160.811 529.849 161.648 529.849ZM169.462 519.188V521.49H171.237V522.747H169.462V528.645C169.462 529.025 169.541 529.312 169.699 529.506C169.857 529.693 170.127 529.787 170.508 529.787C170.695 529.787 170.953 529.752 171.281 529.682V531C170.854 531.117 170.438 531.176 170.033 531.176C169.307 531.176 168.759 530.956 168.39 530.517C168.021 530.077 167.836 529.453 167.836 528.645V522.747H166.104V521.49H167.836V519.188H169.462ZM187.277 526.939C187.119 528.293 186.618 529.339 185.774 530.077C184.937 530.81 183.82 531.176 182.426 531.176C180.914 531.176 179.701 530.634 178.787 529.55C177.879 528.466 177.425 527.016 177.425 525.199V523.969C177.425 522.779 177.636 521.733 178.058 520.831C178.485 519.929 179.089 519.237 179.868 518.757C180.647 518.271 181.55 518.027 182.575 518.027C183.935 518.027 185.024 518.408 185.845 519.17C186.665 519.926 187.143 520.975 187.277 522.316H185.581C185.435 521.297 185.115 520.559 184.623 520.102C184.137 519.645 183.454 519.416 182.575 519.416C181.497 519.416 180.65 519.814 180.035 520.611C179.426 521.408 179.121 522.542 179.121 524.013V525.252C179.121 526.641 179.411 527.745 179.991 528.565C180.571 529.386 181.383 529.796 182.426 529.796C183.363 529.796 184.081 529.585 184.579 529.163C185.083 528.735 185.417 527.994 185.581 526.939H187.277ZM188.903 526.157C188.903 525.226 189.085 524.388 189.448 523.644C189.817 522.899 190.327 522.325 190.978 521.921C191.634 521.517 192.381 521.314 193.219 521.314C194.514 521.314 195.56 521.763 196.356 522.659C197.159 523.556 197.561 524.748 197.561 526.236V526.351C197.561 527.276 197.382 528.108 197.024 528.847C196.673 529.579 196.166 530.15 195.504 530.561C194.848 530.971 194.092 531.176 193.236 531.176C191.947 531.176 190.901 530.728 190.099 529.831C189.302 528.935 188.903 527.748 188.903 526.271V526.157ZM190.538 526.351C190.538 527.405 190.781 528.252 191.268 528.891C191.76 529.529 192.416 529.849 193.236 529.849C194.062 529.849 194.719 529.526 195.205 528.882C195.691 528.231 195.935 527.323 195.935 526.157C195.935 525.114 195.686 524.271 195.188 523.626C194.695 522.976 194.039 522.65 193.219 522.65C192.416 522.65 191.769 522.97 191.276 523.608C190.784 524.247 190.538 525.161 190.538 526.351ZM201.129 521.49L201.173 522.545C201.87 521.725 202.811 521.314 203.994 521.314C205.324 521.314 206.229 521.824 206.71 522.844C207.026 522.387 207.437 522.018 207.94 521.736C208.45 521.455 209.051 521.314 209.742 521.314C211.828 521.314 212.889 522.419 212.924 524.628V531H211.298V524.725C211.298 524.045 211.143 523.538 210.832 523.204C210.521 522.864 210 522.694 209.268 522.694C208.664 522.694 208.163 522.876 207.765 523.239C207.366 523.597 207.135 524.08 207.07 524.689V531H205.436V524.769C205.436 523.386 204.759 522.694 203.405 522.694C202.339 522.694 201.609 523.148 201.217 524.057V531H199.591V521.49H201.129ZM223.418 526.351C223.418 527.798 223.087 528.964 222.425 529.849C221.763 530.733 220.866 531.176 219.735 531.176C218.581 531.176 217.673 530.81 217.011 530.077V534.656H215.385V521.49H216.87L216.949 522.545C217.611 521.725 218.531 521.314 219.709 521.314C220.852 521.314 221.754 521.745 222.416 522.606C223.084 523.468 223.418 524.666 223.418 526.201V526.351ZM221.792 526.166C221.792 525.094 221.563 524.247 221.106 523.626C220.649 523.005 220.022 522.694 219.226 522.694C218.241 522.694 217.503 523.131 217.011 524.004V528.548C217.497 529.415 218.241 529.849 219.243 529.849C220.022 529.849 220.641 529.541 221.098 528.926C221.561 528.305 221.792 527.385 221.792 526.166ZM225.062 526.157C225.062 525.226 225.243 524.388 225.606 523.644C225.976 522.899 226.485 522.325 227.136 521.921C227.792 521.517 228.539 521.314 229.377 521.314C230.672 521.314 231.718 521.763 232.515 522.659C233.317 523.556 233.719 524.748 233.719 526.236V526.351C233.719 527.276 233.54 528.108 233.183 528.847C232.831 529.579 232.324 530.15 231.662 530.561C231.006 530.971 230.25 531.176 229.395 531.176C228.105 531.176 227.06 530.728 226.257 529.831C225.46 528.935 225.062 527.748 225.062 526.271V526.157ZM226.696 526.351C226.696 527.405 226.939 528.252 227.426 528.891C227.918 529.529 228.574 529.849 229.395 529.849C230.221 529.849 230.877 529.526 231.363 528.882C231.85 528.231 232.093 527.323 232.093 526.157C232.093 525.114 231.844 524.271 231.346 523.626C230.854 522.976 230.197 522.65 229.377 522.65C228.574 522.65 227.927 522.97 227.435 523.608C226.942 524.247 226.696 525.161 226.696 526.351ZM237.296 521.49L237.349 522.686C238.075 521.771 239.024 521.314 240.196 521.314C242.206 521.314 243.22 522.448 243.237 524.716V531H241.611V524.707C241.605 524.021 241.447 523.515 241.137 523.187C240.832 522.858 240.354 522.694 239.704 522.694C239.177 522.694 238.714 522.835 238.315 523.116C237.917 523.397 237.606 523.767 237.384 524.224V531H235.758V521.49H237.296ZM249.636 531.176C248.347 531.176 247.298 530.754 246.489 529.91C245.681 529.061 245.276 527.927 245.276 526.509V526.21C245.276 525.267 245.455 524.426 245.812 523.688C246.176 522.943 246.68 522.363 247.324 521.947C247.975 521.525 248.678 521.314 249.434 521.314C250.67 521.314 251.631 521.722 252.316 522.536C253.002 523.351 253.345 524.517 253.345 526.034V526.711H246.902C246.926 527.648 247.198 528.407 247.72 528.987C248.247 529.562 248.915 529.849 249.724 529.849C250.298 529.849 250.784 529.731 251.183 529.497C251.581 529.263 251.93 528.952 252.229 528.565L253.222 529.339C252.425 530.563 251.229 531.176 249.636 531.176ZM249.434 522.65C248.777 522.65 248.227 522.891 247.781 523.371C247.336 523.846 247.061 524.514 246.955 525.375H251.719V525.252C251.672 524.426 251.449 523.787 251.051 523.336C250.652 522.879 250.113 522.65 249.434 522.65ZM256.772 521.49L256.825 522.686C257.552 521.771 258.501 521.314 259.673 521.314C261.683 521.314 262.696 522.448 262.714 524.716V531H261.088V524.707C261.082 524.021 260.924 523.515 260.613 523.187C260.309 522.858 259.831 522.694 259.181 522.694C258.653 522.694 258.19 522.835 257.792 523.116C257.394 523.397 257.083 523.767 256.86 524.224V531H255.234V521.49H256.772ZM267.372 519.188V521.49H269.147V522.747H267.372V528.645C267.372 529.025 267.451 529.312 267.609 529.506C267.768 529.693 268.037 529.787 268.418 529.787C268.605 529.787 268.863 529.752 269.191 529.682V531C268.764 531.117 268.348 531.176 267.943 531.176C267.217 531.176 266.669 530.956 266.3 530.517C265.931 530.077 265.746 529.453 265.746 528.645V522.747H264.015V521.49H265.746V519.188H267.372Z" fill="#E5E5E5"/>
<path d="M588.195 135.32H577.473L575.064 142H571.584L581.357 116.406H584.311L594.102 142H590.639L588.195 135.32ZM578.492 132.543H587.193L582.834 120.572L578.492 132.543ZM604.666 139.697C605.826 139.697 606.84 139.346 607.707 138.643C608.574 137.939 609.055 137.061 609.148 136.006H612.225C612.166 137.096 611.791 138.133 611.1 139.117C610.408 140.102 609.482 140.887 608.322 141.473C607.174 142.059 605.955 142.352 604.666 142.352C602.076 142.352 600.014 141.49 598.479 139.768C596.955 138.033 596.193 135.666 596.193 132.666V132.121C596.193 130.27 596.533 128.623 597.213 127.182C597.893 125.74 598.865 124.621 600.131 123.824C601.408 123.027 602.914 122.629 604.648 122.629C606.781 122.629 608.551 123.268 609.957 124.545C611.375 125.822 612.131 127.48 612.225 129.52H609.148C609.055 128.289 608.586 127.281 607.742 126.496C606.91 125.699 605.879 125.301 604.648 125.301C602.996 125.301 601.713 125.898 600.799 127.094C599.896 128.277 599.445 129.994 599.445 132.244V132.859C599.445 135.051 599.896 136.738 600.799 137.922C601.701 139.105 602.99 139.697 604.666 139.697ZM620.293 118.375V122.98H623.844V125.494H620.293V137.289C620.293 138.051 620.451 138.625 620.768 139.012C621.084 139.387 621.623 139.574 622.385 139.574C622.76 139.574 623.275 139.504 623.932 139.363V142C623.076 142.234 622.244 142.352 621.436 142.352C619.982 142.352 618.887 141.912 618.148 141.033C617.41 140.154 617.041 138.906 617.041 137.289V125.494H613.578V122.98H617.041V118.375H620.293ZM631.191 142H627.939V122.98H631.191V142ZM627.676 117.936C627.676 117.408 627.834 116.963 628.15 116.6C628.479 116.236 628.959 116.055 629.592 116.055C630.225 116.055 630.705 116.236 631.033 116.6C631.361 116.963 631.525 117.408 631.525 117.936C631.525 118.463 631.361 118.902 631.033 119.254C630.705 119.605 630.225 119.781 629.592 119.781C628.959 119.781 628.479 119.605 628.15 119.254C627.834 118.902 627.676 118.463 627.676 117.936ZM635.551 132.314C635.551 130.451 635.914 128.775 636.641 127.287C637.379 125.799 638.398 124.65 639.699 123.842C641.012 123.033 642.506 122.629 644.182 122.629C646.771 122.629 648.863 123.525 650.457 125.318C652.062 127.111 652.865 129.496 652.865 132.473V132.701C652.865 134.553 652.508 136.217 651.793 137.693C651.09 139.158 650.076 140.301 648.752 141.121C647.439 141.941 645.928 142.352 644.217 142.352C641.639 142.352 639.547 141.455 637.941 139.662C636.348 137.869 635.551 135.496 635.551 132.543V132.314ZM638.82 132.701C638.82 134.811 639.307 136.504 640.279 137.781C641.264 139.059 642.576 139.697 644.217 139.697C645.869 139.697 647.182 139.053 648.154 137.764C649.127 136.463 649.613 134.646 649.613 132.314C649.613 130.229 649.115 128.541 648.119 127.252C647.135 125.951 645.822 125.301 644.182 125.301C642.576 125.301 641.281 125.939 640.297 127.217C639.312 128.494 638.82 130.322 638.82 132.701ZM660.02 122.98L660.125 125.371C661.578 123.543 663.477 122.629 665.82 122.629C669.84 122.629 671.867 124.896 671.902 129.432V142H668.65V129.414C668.639 128.043 668.322 127.029 667.701 126.373C667.092 125.717 666.137 125.389 664.836 125.389C663.781 125.389 662.855 125.67 662.059 126.232C661.262 126.795 660.641 127.533 660.195 128.447V142H656.943V122.98H660.02ZM687.881 136.955C687.881 136.076 687.547 135.396 686.879 134.916C686.223 134.424 685.068 134.002 683.416 133.65C681.775 133.299 680.469 132.877 679.496 132.385C678.535 131.893 677.82 131.307 677.352 130.627C676.895 129.947 676.666 129.139 676.666 128.201C676.666 126.643 677.322 125.324 678.635 124.246C679.959 123.168 681.646 122.629 683.697 122.629C685.854 122.629 687.6 123.186 688.936 124.299C690.283 125.412 690.957 126.836 690.957 128.57H687.688C687.688 127.68 687.307 126.912 686.545 126.268C685.795 125.623 684.846 125.301 683.697 125.301C682.514 125.301 681.588 125.559 680.92 126.074C680.252 126.59 679.918 127.264 679.918 128.096C679.918 128.881 680.229 129.473 680.85 129.871C681.471 130.27 682.59 130.65 684.207 131.014C685.836 131.377 687.154 131.811 688.162 132.314C689.17 132.818 689.914 133.428 690.395 134.143C690.887 134.846 691.133 135.707 691.133 136.727C691.133 138.426 690.453 139.791 689.094 140.822C687.734 141.842 685.971 142.352 683.803 142.352C682.279 142.352 680.932 142.082 679.76 141.543C678.588 141.004 677.668 140.254 677 139.293C676.344 138.32 676.016 137.271 676.016 136.146H679.268C679.326 137.236 679.76 138.104 680.568 138.748C681.389 139.381 682.467 139.697 683.803 139.697C685.033 139.697 686.018 139.451 686.756 138.959C687.506 138.455 687.881 137.787 687.881 136.955Z" fill="#E5E5E5"/>
<rect x="475" y="166" width="308" height="35" rx="6" fill="#C4C4C4"/>
<rect x="1125" y="220" width="281" height="35" rx="6" fill="#C4C4C4"/>
<path d="M512.147 184.99V190H510.46V177.203H515.18C516.58 177.203 517.676 177.561 518.467 178.275C519.264 178.99 519.662 179.937 519.662 181.114C519.662 182.356 519.272 183.314 518.493 183.988C517.72 184.656 516.609 184.99 515.162 184.99H512.147ZM512.147 183.61H515.18C516.082 183.61 516.773 183.399 517.254 182.978C517.734 182.55 517.975 181.935 517.975 181.132C517.975 180.37 517.734 179.761 517.254 179.304C516.773 178.847 516.114 178.609 515.276 178.592H512.147V183.61ZM531.659 184.015C531.659 185.269 531.448 186.364 531.026 187.302C530.604 188.233 530.007 188.945 529.233 189.438C528.46 189.93 527.558 190.176 526.526 190.176C525.519 190.176 524.625 189.93 523.846 189.438C523.066 188.939 522.46 188.233 522.026 187.319C521.599 186.399 521.379 185.336 521.367 184.129V183.206C521.367 181.976 521.581 180.889 522.009 179.945C522.437 179.002 523.04 178.281 523.819 177.783C524.604 177.279 525.501 177.027 526.509 177.027C527.534 177.027 528.437 177.276 529.216 177.774C530.001 178.267 530.604 178.984 531.026 179.928C531.448 180.865 531.659 181.958 531.659 183.206V184.015ZM529.98 183.188C529.98 181.671 529.676 180.508 529.066 179.699C528.457 178.885 527.604 178.478 526.509 178.478C525.442 178.478 524.602 178.885 523.986 179.699C523.377 180.508 523.063 181.633 523.046 183.074V184.015C523.046 185.485 523.354 186.643 523.969 187.486C524.59 188.324 525.442 188.743 526.526 188.743C527.616 188.743 528.46 188.348 529.058 187.557C529.655 186.76 529.963 185.62 529.98 184.138V183.188ZM537.961 184.296C536.514 183.88 535.459 183.37 534.797 182.767C534.141 182.157 533.812 181.407 533.812 180.517C533.812 179.509 534.214 178.677 535.017 178.021C535.825 177.358 536.874 177.027 538.163 177.027C539.042 177.027 539.824 177.197 540.51 177.537C541.201 177.877 541.734 178.346 542.109 178.943C542.49 179.541 542.681 180.194 542.681 180.903H540.984C540.984 180.13 540.738 179.523 540.246 179.084C539.754 178.639 539.06 178.416 538.163 178.416C537.331 178.416 536.681 178.601 536.212 178.97C535.749 179.333 535.518 179.84 535.518 180.49C535.518 181.012 535.737 181.454 536.177 181.817C536.622 182.175 537.375 182.503 538.436 182.802C539.502 183.101 540.334 183.432 540.932 183.795C541.535 184.152 541.98 184.571 542.268 185.052C542.561 185.532 542.707 186.098 542.707 186.748C542.707 187.785 542.303 188.617 541.494 189.244C540.686 189.865 539.604 190.176 538.251 190.176C537.372 190.176 536.552 190.009 535.79 189.675C535.028 189.335 534.439 188.872 534.023 188.286C533.613 187.7 533.408 187.035 533.408 186.291H535.104C535.104 187.064 535.389 187.677 535.957 188.128C536.531 188.573 537.296 188.796 538.251 188.796C539.142 188.796 539.824 188.614 540.299 188.251C540.773 187.888 541.011 187.393 541.011 186.766C541.011 186.139 540.791 185.655 540.352 185.315C539.912 184.97 539.115 184.63 537.961 184.296ZM553.72 178.592H549.606V190H547.928V178.592H543.823V177.203H553.72V178.592ZM559.248 184.296C557.801 183.88 556.746 183.37 556.084 182.767C555.428 182.157 555.1 181.407 555.1 180.517C555.1 179.509 555.501 178.677 556.304 178.021C557.112 177.358 558.161 177.027 559.45 177.027C560.329 177.027 561.111 177.197 561.797 177.537C562.488 177.877 563.021 178.346 563.396 178.943C563.777 179.541 563.968 180.194 563.968 180.903H562.271C562.271 180.13 562.025 179.523 561.533 179.084C561.041 178.639 560.347 178.416 559.45 178.416C558.618 178.416 557.968 178.601 557.499 178.97C557.036 179.333 556.805 179.84 556.805 180.49C556.805 181.012 557.024 181.454 557.464 181.817C557.909 182.175 558.662 182.503 559.723 182.802C560.789 183.101 561.621 183.432 562.219 183.795C562.822 184.152 563.268 184.571 563.555 185.052C563.848 185.532 563.994 186.098 563.994 186.748C563.994 187.785 563.59 188.617 562.781 189.244C561.973 189.865 560.892 190.176 559.538 190.176C558.659 190.176 557.839 190.009 557.077 189.675C556.315 189.335 555.727 188.872 555.311 188.286C554.9 187.7 554.695 187.035 554.695 186.291H556.392C556.392 187.064 556.676 187.677 557.244 188.128C557.818 188.573 558.583 188.796 559.538 188.796C560.429 188.796 561.111 188.614 561.586 188.251C562.061 187.888 562.298 187.393 562.298 186.766C562.298 186.139 562.078 185.655 561.639 185.315C561.199 184.97 560.402 184.63 559.248 184.296ZM572.766 191.327H564.715V190H572.766V191.327ZM578.979 184.823H575.974V190H574.277V177.203H578.514C579.955 177.203 581.062 177.531 581.836 178.188C582.615 178.844 583.005 179.799 583.005 181.053C583.005 181.85 582.788 182.544 582.354 183.136C581.927 183.728 581.329 184.17 580.562 184.463L583.567 189.895V190H581.757L578.979 184.823ZM575.974 183.443H578.566C579.404 183.443 580.069 183.227 580.562 182.793C581.06 182.359 581.309 181.779 581.309 181.053C581.309 180.262 581.071 179.655 580.597 179.233C580.128 178.812 579.448 178.598 578.558 178.592H575.974V183.443ZM592.611 184.085H587.065V188.62H593.508V190H585.378V177.203H593.42V178.592H587.065V182.705H592.611V184.085ZM595.608 190V177.203H599.221C600.334 177.203 601.318 177.449 602.174 177.941C603.029 178.434 603.688 179.134 604.151 180.042C604.62 180.95 604.857 181.993 604.863 183.171V183.988C604.863 185.195 604.629 186.253 604.16 187.161C603.697 188.069 603.032 188.767 602.165 189.253C601.304 189.739 600.299 189.988 599.15 190H595.608ZM597.296 178.592V188.62H599.071C600.372 188.62 601.383 188.216 602.104 187.407C602.83 186.599 603.193 185.447 603.193 183.953V183.206C603.193 181.753 602.851 180.625 602.165 179.822C601.485 179.014 600.519 178.604 599.265 178.592H597.296ZM616.43 177.203V185.904C616.424 187.111 616.043 188.099 615.287 188.866C614.537 189.634 613.518 190.064 612.229 190.158L611.78 190.176C610.38 190.176 609.264 189.798 608.432 189.042C607.6 188.286 607.178 187.246 607.166 185.922V177.203H608.836V185.869C608.836 186.795 609.091 187.516 609.601 188.031C610.11 188.541 610.837 188.796 611.78 188.796C612.735 188.796 613.465 188.541 613.969 188.031C614.479 187.521 614.733 186.804 614.733 185.878V177.203H616.43ZM628.506 185.939C628.348 187.293 627.847 188.339 627.003 189.077C626.165 189.81 625.049 190.176 623.654 190.176C622.143 190.176 620.93 189.634 620.016 188.55C619.107 187.466 618.653 186.016 618.653 184.199V182.969C618.653 181.779 618.864 180.733 619.286 179.831C619.714 178.929 620.317 178.237 621.097 177.757C621.876 177.271 622.778 177.027 623.804 177.027C625.163 177.027 626.253 177.408 627.073 178.17C627.894 178.926 628.371 179.975 628.506 181.316H626.81C626.663 180.297 626.344 179.559 625.852 179.102C625.365 178.645 624.683 178.416 623.804 178.416C622.726 178.416 621.879 178.814 621.264 179.611C620.654 180.408 620.35 181.542 620.35 183.013V184.252C620.35 185.641 620.64 186.745 621.22 187.565C621.8 188.386 622.611 188.796 623.654 188.796C624.592 188.796 625.31 188.585 625.808 188.163C626.312 187.735 626.646 186.994 626.81 185.939H628.506ZM638.051 184.085H632.505V188.62H638.947V190H630.817V177.203H638.859V178.592H632.505V182.705H638.051V184.085ZM645.741 184.823H642.735V190H641.039V177.203H645.275C646.717 177.203 647.824 177.531 648.598 178.188C649.377 178.844 649.767 179.799 649.767 181.053C649.767 181.85 649.55 182.544 649.116 183.136C648.688 183.728 648.091 184.17 647.323 184.463L650.329 189.895V190H648.519L645.741 184.823ZM642.735 183.443H645.328C646.166 183.443 646.831 183.227 647.323 182.793C647.821 182.359 648.07 181.779 648.07 181.053C648.07 180.262 647.833 179.655 647.358 179.233C646.89 178.812 646.21 178.598 645.319 178.592H642.735V183.443ZM658.74 191.327H650.689V190H658.74V191.327ZM664.031 184.296C662.584 183.88 661.529 183.37 660.867 182.767C660.211 182.157 659.883 181.407 659.883 180.517C659.883 179.509 660.284 178.677 661.087 178.021C661.896 177.358 662.944 177.027 664.233 177.027C665.112 177.027 665.895 177.197 666.58 177.537C667.271 177.877 667.805 178.346 668.18 178.943C668.561 179.541 668.751 180.194 668.751 180.903H667.055C667.055 180.13 666.809 179.523 666.316 179.084C665.824 178.639 665.13 178.416 664.233 178.416C663.401 178.416 662.751 178.601 662.282 178.97C661.819 179.333 661.588 179.84 661.588 180.49C661.588 181.012 661.808 181.454 662.247 181.817C662.692 182.175 663.445 182.503 664.506 182.802C665.572 183.101 666.404 183.432 667.002 183.795C667.605 184.152 668.051 184.571 668.338 185.052C668.631 185.532 668.777 186.098 668.777 186.748C668.777 187.785 668.373 188.617 667.564 189.244C666.756 189.865 665.675 190.176 664.321 190.176C663.442 190.176 662.622 190.009 661.86 189.675C661.099 189.335 660.51 188.872 660.094 188.286C659.684 187.7 659.479 187.035 659.479 186.291H661.175C661.175 187.064 661.459 187.677 662.027 188.128C662.602 188.573 663.366 188.796 664.321 188.796C665.212 188.796 665.895 188.614 666.369 188.251C666.844 187.888 667.081 187.393 667.081 186.766C667.081 186.139 666.861 185.655 666.422 185.315C665.982 184.97 665.186 184.63 664.031 184.296ZM678.182 184.085H672.636V188.62H679.078V190H670.948V177.203H678.99V178.592H672.636V182.705H678.182V184.085ZM690.196 178.592H686.083V190H684.404V178.592H680.3V177.203H690.196V178.592ZM698.695 191.327H690.645V190H698.695V191.327ZM703.986 184.296C702.539 183.88 701.484 183.37 700.822 182.767C700.166 182.157 699.838 181.407 699.838 180.517C699.838 179.509 700.239 178.677 701.042 178.021C701.851 177.358 702.899 177.027 704.188 177.027C705.067 177.027 705.85 177.197 706.535 177.537C707.227 177.877 707.76 178.346 708.135 178.943C708.516 179.541 708.706 180.194 708.706 180.903H707.01C707.01 180.13 706.764 179.523 706.271 179.084C705.779 178.639 705.085 178.416 704.188 178.416C703.356 178.416 702.706 178.601 702.237 178.97C701.774 179.333 701.543 179.84 701.543 180.49C701.543 181.012 701.763 181.454 702.202 181.817C702.647 182.175 703.4 182.503 704.461 182.802C705.527 183.101 706.359 183.432 706.957 183.795C707.561 184.152 708.006 184.571 708.293 185.052C708.586 185.532 708.732 186.098 708.732 186.748C708.732 187.785 708.328 188.617 707.52 189.244C706.711 189.865 705.63 190.176 704.276 190.176C703.397 190.176 702.577 190.009 701.815 189.675C701.054 189.335 700.465 188.872 700.049 188.286C699.639 187.7 699.434 187.035 699.434 186.291H701.13C701.13 187.064 701.414 187.677 701.982 188.128C702.557 188.573 703.321 188.796 704.276 188.796C705.167 188.796 705.85 188.614 706.324 188.251C706.799 187.888 707.036 187.393 707.036 186.766C707.036 186.139 706.816 185.655 706.377 185.315C705.938 184.97 705.141 184.63 703.986 184.296ZM719.745 178.592H715.632V190H713.953V178.592H709.849V177.203H719.745V178.592ZM728.007 186.66H722.646L721.441 190H719.701L724.588 177.203H726.064L730.96 190H729.229L728.007 186.66ZM723.155 185.271H727.506L725.326 179.286L723.155 185.271ZM740.382 178.592H736.269V190H734.59V178.592H730.485V177.203H740.382V178.592ZM749.514 184.085H743.968V188.62H750.41V190H742.28V177.203H750.322V178.592H743.968V182.705H749.514V184.085Z" fill="black"/>
<path d="M1162.06 235.738C1161.87 235.706 1161.66 235.69 1161.43 235.69C1160.61 235.69 1160.04 236.044 1159.75 236.75V242H1158.48V234.604H1159.71L1159.73 235.458C1160.15 234.797 1160.74 234.467 1161.5 234.467C1161.74 234.467 1161.93 234.499 1162.06 234.562V235.738ZM1166.16 242.137C1165.16 242.137 1164.34 241.809 1163.71 241.152C1163.08 240.492 1162.77 239.61 1162.77 238.507V238.274C1162.77 237.541 1162.91 236.887 1163.18 236.312C1163.47 235.734 1163.86 235.283 1164.36 234.959C1164.87 234.631 1165.41 234.467 1166 234.467C1166.96 234.467 1167.71 234.784 1168.24 235.417C1168.78 236.05 1169.04 236.957 1169.04 238.138V238.664H1164.03C1164.05 239.393 1164.26 239.983 1164.67 240.435C1165.08 240.881 1165.6 241.104 1166.23 241.104C1166.67 241.104 1167.05 241.013 1167.36 240.831C1167.67 240.649 1167.94 240.407 1168.17 240.106L1168.95 240.708C1168.33 241.66 1167.4 242.137 1166.16 242.137ZM1166 235.506C1165.49 235.506 1165.06 235.693 1164.72 236.066C1164.37 236.436 1164.16 236.955 1164.07 237.625H1167.78V237.529C1167.74 236.887 1167.57 236.39 1167.26 236.039C1166.95 235.684 1166.53 235.506 1166 235.506ZM1172.23 232.812V234.604H1173.61V235.581H1172.23V240.168C1172.23 240.464 1172.29 240.688 1172.41 240.838C1172.54 240.984 1172.75 241.057 1173.04 241.057C1173.19 241.057 1173.39 241.029 1173.64 240.975V242C1173.31 242.091 1172.99 242.137 1172.67 242.137C1172.11 242.137 1171.68 241.966 1171.39 241.624C1171.11 241.282 1170.96 240.797 1170.96 240.168V235.581H1169.62V234.604H1170.96V232.812H1172.23ZM1179.66 241.269C1179.17 241.847 1178.44 242.137 1177.49 242.137C1176.7 242.137 1176.1 241.909 1175.69 241.453C1175.28 240.993 1175.07 240.314 1175.07 239.416V234.604H1176.33V239.382C1176.33 240.503 1176.79 241.063 1177.7 241.063C1178.66 241.063 1179.31 240.703 1179.62 239.983V234.604H1180.89V242H1179.69L1179.66 241.269ZM1186.39 235.738C1186.2 235.706 1185.99 235.69 1185.77 235.69C1184.94 235.69 1184.38 236.044 1184.08 236.75V242H1182.82V234.604H1184.05L1184.07 235.458C1184.48 234.797 1185.07 234.467 1185.83 234.467C1186.08 234.467 1186.26 234.499 1186.39 234.562V235.738ZM1188.76 234.604L1188.8 235.533C1189.36 234.822 1190.1 234.467 1191.01 234.467C1192.58 234.467 1193.37 235.349 1193.38 237.112V242H1192.11V237.105C1192.11 236.572 1191.99 236.178 1191.75 235.923C1191.51 235.668 1191.14 235.54 1190.63 235.54C1190.22 235.54 1189.86 235.649 1189.55 235.868C1189.24 236.087 1189 236.374 1188.83 236.729V242H1187.56V234.604H1188.76ZM1203.07 240.038C1203.07 239.696 1202.94 239.432 1202.68 239.245C1202.42 239.054 1201.97 238.89 1201.33 238.753C1200.69 238.616 1200.18 238.452 1199.8 238.261C1199.43 238.069 1199.15 237.841 1198.97 237.577C1198.79 237.313 1198.7 236.998 1198.7 236.634C1198.7 236.028 1198.96 235.515 1199.47 235.096C1199.98 234.676 1200.64 234.467 1201.44 234.467C1202.28 234.467 1202.96 234.683 1203.48 235.116C1204 235.549 1204.26 236.103 1204.26 236.777H1202.99C1202.99 236.431 1202.84 236.132 1202.55 235.882C1202.25 235.631 1201.89 235.506 1201.44 235.506C1200.98 235.506 1200.62 235.606 1200.36 235.807C1200.1 236.007 1199.97 236.269 1199.97 236.593C1199.97 236.898 1200.09 237.128 1200.33 237.283C1200.57 237.438 1201.01 237.586 1201.64 237.728C1202.27 237.869 1202.78 238.037 1203.17 238.233C1203.57 238.429 1203.86 238.666 1204.04 238.944C1204.23 239.218 1204.33 239.553 1204.33 239.949C1204.33 240.61 1204.07 241.141 1203.54 241.542C1203.01 241.938 1202.32 242.137 1201.48 242.137C1200.89 242.137 1200.36 242.032 1199.91 241.822C1199.45 241.613 1199.09 241.321 1198.83 240.947C1198.58 240.569 1198.45 240.161 1198.45 239.724H1199.72C1199.74 240.147 1199.91 240.485 1200.22 240.735C1200.54 240.981 1200.96 241.104 1201.48 241.104C1201.96 241.104 1202.34 241.009 1202.63 240.817C1202.92 240.621 1203.07 240.362 1203.07 240.038ZM1207.69 232.812V234.604H1209.07V235.581H1207.69V240.168C1207.69 240.464 1207.75 240.688 1207.88 240.838C1208 240.984 1208.21 241.057 1208.51 241.057C1208.65 241.057 1208.85 241.029 1209.11 240.975V242C1208.78 242.091 1208.45 242.137 1208.14 242.137C1207.57 242.137 1207.15 241.966 1206.86 241.624C1206.57 241.282 1206.43 240.797 1206.43 240.168V235.581H1205.08V234.604H1206.43V232.812H1207.69ZM1215.12 242C1215.05 241.854 1214.99 241.594 1214.95 241.221C1214.36 241.831 1213.66 242.137 1212.84 242.137C1212.11 242.137 1211.51 241.932 1211.04 241.521C1210.58 241.107 1210.35 240.583 1210.35 239.949C1210.35 239.179 1210.64 238.582 1211.22 238.158C1211.81 237.73 1212.63 237.516 1213.7 237.516H1214.93V236.935C1214.93 236.493 1214.79 236.142 1214.53 235.882C1214.26 235.618 1213.88 235.485 1213.36 235.485C1212.91 235.485 1212.53 235.599 1212.23 235.827C1211.92 236.055 1211.77 236.331 1211.77 236.654H1210.5C1210.5 236.285 1210.63 235.93 1210.89 235.588C1211.15 235.242 1211.51 234.968 1211.95 234.768C1212.4 234.567 1212.9 234.467 1213.44 234.467C1214.29 234.467 1214.96 234.681 1215.44 235.109C1215.92 235.533 1216.17 236.119 1216.19 236.866V240.271C1216.19 240.95 1216.28 241.49 1216.45 241.891V242H1215.12ZM1213.03 241.036C1213.42 241.036 1213.8 240.934 1214.15 240.729C1214.51 240.523 1214.77 240.257 1214.93 239.929V238.411H1213.93C1212.39 238.411 1211.61 238.865 1211.61 239.771C1211.61 240.168 1211.74 240.478 1212.01 240.701C1212.27 240.924 1212.61 241.036 1213.03 241.036ZM1219.89 232.812V234.604H1221.27V235.581H1219.89V240.168C1219.89 240.464 1219.95 240.688 1220.07 240.838C1220.2 240.984 1220.41 241.057 1220.7 241.057C1220.85 241.057 1221.05 241.029 1221.3 240.975V242C1220.97 242.091 1220.65 242.137 1220.33 242.137C1219.77 242.137 1219.34 241.966 1219.05 241.624C1218.77 241.282 1218.62 240.797 1218.62 240.168V235.581H1217.28V234.604H1218.62V232.812H1219.89ZM1225.82 242.137C1224.82 242.137 1224 241.809 1223.38 241.152C1222.75 240.492 1222.43 239.61 1222.43 238.507V238.274C1222.43 237.541 1222.57 236.887 1222.85 236.312C1223.13 235.734 1223.52 235.283 1224.02 234.959C1224.53 234.631 1225.08 234.467 1225.67 234.467C1226.63 234.467 1227.37 234.784 1227.91 235.417C1228.44 236.05 1228.71 236.957 1228.71 238.138V238.664H1223.7C1223.71 239.393 1223.93 239.983 1224.33 240.435C1224.74 240.881 1225.26 241.104 1225.89 241.104C1226.34 241.104 1226.72 241.013 1227.03 240.831C1227.34 240.649 1227.61 240.407 1227.84 240.106L1228.61 240.708C1227.99 241.66 1227.06 242.137 1225.82 242.137ZM1225.67 235.506C1225.15 235.506 1224.73 235.693 1224.38 236.066C1224.03 236.436 1223.82 236.955 1223.74 237.625H1227.44V237.529C1227.41 236.887 1227.23 236.39 1226.92 236.039C1226.61 235.684 1226.19 235.506 1225.67 235.506ZM1235.02 242H1233.76V234.604H1235.02V242ZM1233.66 232.642C1233.66 232.437 1233.72 232.263 1233.84 232.122C1233.97 231.981 1234.16 231.91 1234.4 231.91C1234.65 231.91 1234.83 231.981 1234.96 232.122C1235.09 232.263 1235.15 232.437 1235.15 232.642C1235.15 232.847 1235.09 233.018 1234.96 233.154C1234.83 233.291 1234.65 233.359 1234.4 233.359C1234.16 233.359 1233.97 233.291 1233.84 233.154C1233.72 233.018 1233.66 232.847 1233.66 232.642ZM1238.25 234.604L1238.29 235.533C1238.86 234.822 1239.59 234.467 1240.51 234.467C1242.07 234.467 1242.86 235.349 1242.87 237.112V242H1241.61V237.105C1241.6 236.572 1241.48 236.178 1241.24 235.923C1241 235.668 1240.63 235.54 1240.12 235.54C1239.71 235.54 1239.35 235.649 1239.04 235.868C1238.73 236.087 1238.49 236.374 1238.32 236.729V242H1237.05V234.604H1238.25ZM1249.08 240.038C1249.08 239.696 1248.96 239.432 1248.7 239.245C1248.44 239.054 1247.99 238.89 1247.35 238.753C1246.71 238.616 1246.2 238.452 1245.82 238.261C1245.45 238.069 1245.17 237.841 1244.99 237.577C1244.81 237.313 1244.72 236.998 1244.72 236.634C1244.72 236.028 1244.98 235.515 1245.49 235.096C1246 234.676 1246.66 234.467 1247.46 234.467C1248.3 234.467 1248.98 234.683 1249.5 235.116C1250.02 235.549 1250.28 236.103 1250.28 236.777H1249.01C1249.01 236.431 1248.86 236.132 1248.57 235.882C1248.27 235.631 1247.9 235.506 1247.46 235.506C1247 235.506 1246.64 235.606 1246.38 235.807C1246.12 236.007 1245.99 236.269 1245.99 236.593C1245.99 236.898 1246.11 237.128 1246.35 237.283C1246.59 237.438 1247.03 237.586 1247.66 237.728C1248.29 237.869 1248.8 238.037 1249.19 238.233C1249.59 238.429 1249.88 238.666 1250.06 238.944C1250.25 239.218 1250.35 239.553 1250.35 239.949C1250.35 240.61 1250.09 241.141 1249.56 241.542C1249.03 241.938 1248.34 242.137 1247.5 242.137C1246.91 242.137 1246.38 242.032 1245.93 241.822C1245.47 241.613 1245.11 241.321 1244.85 240.947C1244.6 240.569 1244.47 240.161 1244.47 239.724H1245.74C1245.76 240.147 1245.93 240.485 1246.24 240.735C1246.56 240.981 1246.98 241.104 1247.5 241.104C1247.98 241.104 1248.36 241.009 1248.65 240.817C1248.94 240.621 1249.08 240.362 1249.08 240.038ZM1253.37 242H1252.11V234.604H1253.37V242ZM1252 232.642C1252 232.437 1252.07 232.263 1252.19 232.122C1252.32 231.981 1252.5 231.91 1252.75 231.91C1253 231.91 1253.18 231.981 1253.31 232.122C1253.44 232.263 1253.5 232.437 1253.5 232.642C1253.5 232.847 1253.44 233.018 1253.31 233.154C1253.18 233.291 1253 233.359 1252.75 233.359C1252.5 233.359 1252.32 233.291 1252.19 233.154C1252.07 233.018 1252 232.847 1252 232.642ZM1255.09 238.24C1255.09 237.105 1255.36 236.194 1255.9 235.506C1256.44 234.813 1257.14 234.467 1258.01 234.467C1258.88 234.467 1259.56 234.763 1260.07 235.355V231.5H1261.33V242H1260.17L1260.11 241.207C1259.61 241.827 1258.9 242.137 1258 242.137C1257.14 242.137 1256.44 241.786 1255.9 241.084C1255.36 240.382 1255.09 239.466 1255.09 238.336V238.24ZM1256.36 238.384C1256.36 239.222 1256.53 239.879 1256.88 240.353C1257.22 240.826 1257.7 241.063 1258.31 241.063C1259.12 241.063 1259.7 240.703 1260.07 239.983V236.586C1259.69 235.889 1259.11 235.54 1258.33 235.54C1257.71 235.54 1257.22 235.779 1256.88 236.258C1256.53 236.736 1256.36 237.445 1256.36 238.384ZM1266.37 242.137C1265.37 242.137 1264.55 241.809 1263.93 241.152C1263.3 240.492 1262.98 239.61 1262.98 238.507V238.274C1262.98 237.541 1263.12 236.887 1263.4 236.312C1263.68 235.734 1264.07 235.283 1264.58 234.959C1265.08 234.631 1265.63 234.467 1266.22 234.467C1267.18 234.467 1267.92 234.784 1268.46 235.417C1268.99 236.05 1269.26 236.957 1269.26 238.138V238.664H1264.25C1264.27 239.393 1264.48 239.983 1264.88 240.435C1265.29 240.881 1265.81 241.104 1266.44 241.104C1266.89 241.104 1267.27 241.013 1267.58 240.831C1267.89 240.649 1268.16 240.407 1268.39 240.106L1269.16 240.708C1268.54 241.66 1267.61 242.137 1266.37 242.137ZM1266.22 235.506C1265.71 235.506 1265.28 235.693 1264.93 236.066C1264.58 236.436 1264.37 236.955 1264.29 237.625H1267.99V237.529C1267.96 236.887 1267.78 236.39 1267.47 236.039C1267.16 235.684 1266.74 235.506 1266.22 235.506ZM1278.77 242C1278.69 241.854 1278.63 241.594 1278.59 241.221C1278 241.831 1277.3 242.137 1276.48 242.137C1275.75 242.137 1275.15 241.932 1274.69 241.521C1274.22 241.107 1273.99 240.583 1273.99 239.949C1273.99 239.179 1274.28 238.582 1274.86 238.158C1275.45 237.73 1276.28 237.516 1277.34 237.516H1278.57V236.935C1278.57 236.493 1278.44 236.142 1278.17 235.882C1277.91 235.618 1277.52 235.485 1277 235.485C1276.55 235.485 1276.17 235.599 1275.87 235.827C1275.56 236.055 1275.41 236.331 1275.41 236.654H1274.14C1274.14 236.285 1274.27 235.93 1274.53 235.588C1274.79 235.242 1275.15 234.968 1275.59 234.768C1276.05 234.567 1276.54 234.467 1277.08 234.467C1277.93 234.467 1278.6 234.681 1279.08 235.109C1279.56 235.533 1279.81 236.119 1279.83 236.866V240.271C1279.83 240.95 1279.92 241.49 1280.09 241.891V242H1278.77ZM1276.67 241.036C1277.06 241.036 1277.44 240.934 1277.8 240.729C1278.15 240.523 1278.41 240.257 1278.57 239.929V238.411H1277.58C1276.03 238.411 1275.25 238.865 1275.25 239.771C1275.25 240.168 1275.39 240.478 1275.65 240.701C1275.91 240.924 1276.25 241.036 1276.67 241.036ZM1284.78 241.104C1285.23 241.104 1285.63 240.968 1285.96 240.694C1286.3 240.421 1286.49 240.079 1286.53 239.669H1287.72C1287.7 240.093 1287.55 240.496 1287.28 240.879C1287.02 241.262 1286.66 241.567 1286.2 241.795C1285.76 242.023 1285.28 242.137 1284.78 242.137C1283.78 242.137 1282.97 241.802 1282.38 241.132C1281.78 240.457 1281.49 239.537 1281.49 238.37V238.158C1281.49 237.438 1281.62 236.798 1281.88 236.237C1282.15 235.677 1282.53 235.242 1283.02 234.932C1283.52 234.622 1284.1 234.467 1284.78 234.467C1285.6 234.467 1286.29 234.715 1286.84 235.212C1287.39 235.709 1287.69 236.354 1287.72 237.146H1286.53C1286.49 236.668 1286.31 236.276 1285.98 235.971C1285.65 235.661 1285.25 235.506 1284.78 235.506C1284.13 235.506 1283.63 235.738 1283.28 236.203C1282.93 236.663 1282.75 237.331 1282.75 238.206V238.445C1282.75 239.298 1282.93 239.954 1283.28 240.414C1283.63 240.874 1284.13 241.104 1284.78 241.104ZM1290.86 232.812V234.604H1292.24V235.581H1290.86V240.168C1290.86 240.464 1290.92 240.688 1291.04 240.838C1291.17 240.984 1291.38 241.057 1291.67 241.057C1291.82 241.057 1292.02 241.029 1292.27 240.975V242C1291.94 242.091 1291.62 242.137 1291.3 242.137C1290.74 242.137 1290.31 241.966 1290.03 241.624C1289.74 241.282 1289.59 240.797 1289.59 240.168V235.581H1288.25V234.604H1289.59V232.812H1290.86ZM1295.1 242H1293.83V234.604H1295.1V242ZM1293.73 232.642C1293.73 232.437 1293.79 232.263 1293.92 232.122C1294.04 231.981 1294.23 231.91 1294.48 231.91C1294.72 231.91 1294.91 231.981 1295.04 232.122C1295.16 232.263 1295.23 232.437 1295.23 232.642C1295.23 232.847 1295.16 233.018 1295.04 233.154C1294.91 233.291 1294.72 233.359 1294.48 233.359C1294.23 233.359 1294.04 233.291 1293.92 233.154C1293.79 233.018 1293.73 232.847 1293.73 232.642ZM1296.79 238.233C1296.79 237.509 1296.93 236.857 1297.22 236.278C1297.5 235.7 1297.9 235.253 1298.41 234.938C1298.92 234.624 1299.5 234.467 1300.15 234.467C1301.16 234.467 1301.97 234.815 1302.59 235.513C1303.21 236.21 1303.53 237.137 1303.53 238.295V238.384C1303.53 239.104 1303.39 239.751 1303.11 240.325C1302.84 240.895 1302.44 241.339 1301.93 241.658C1301.42 241.977 1300.83 242.137 1300.16 242.137C1299.16 242.137 1298.35 241.788 1297.72 241.091C1297.1 240.394 1296.79 239.471 1296.79 238.322V238.233ZM1298.06 238.384C1298.06 239.204 1298.25 239.863 1298.63 240.359C1299.01 240.856 1299.53 241.104 1300.16 241.104C1300.81 241.104 1301.32 240.854 1301.69 240.353C1302.07 239.847 1302.26 239.14 1302.26 238.233C1302.26 237.422 1302.07 236.766 1301.68 236.265C1301.3 235.759 1300.79 235.506 1300.15 235.506C1299.53 235.506 1299.02 235.754 1298.64 236.251C1298.26 236.748 1298.06 237.459 1298.06 238.384ZM1306.31 234.604L1306.35 235.533C1306.91 234.822 1307.65 234.467 1308.56 234.467C1310.13 234.467 1310.92 235.349 1310.93 237.112V242H1309.67V237.105C1309.66 236.572 1309.54 236.178 1309.3 235.923C1309.06 235.668 1308.69 235.54 1308.18 235.54C1307.77 235.54 1307.41 235.649 1307.1 235.868C1306.79 236.087 1306.55 236.374 1306.38 236.729V242H1305.11V234.604H1306.31ZM1312.86 241.337C1312.86 241.118 1312.93 240.936 1313.06 240.79C1313.19 240.644 1313.38 240.571 1313.64 240.571C1313.9 240.571 1314.1 240.644 1314.23 240.79C1314.37 240.936 1314.44 241.118 1314.44 241.337C1314.44 241.547 1314.37 241.722 1314.23 241.863C1314.1 242.005 1313.9 242.075 1313.64 242.075C1313.38 242.075 1313.19 242.005 1313.06 241.863C1312.93 241.722 1312.86 241.547 1312.86 241.337ZM1322.78 238.384C1322.78 239.509 1322.52 240.416 1322 241.104C1321.49 241.793 1320.79 242.137 1319.91 242.137C1319.01 242.137 1318.31 241.852 1317.79 241.282V244.844H1316.53V234.604H1317.68L1317.75 235.424C1318.26 234.786 1318.98 234.467 1319.89 234.467C1320.78 234.467 1321.48 234.802 1322 235.472C1322.52 236.142 1322.78 237.074 1322.78 238.268V238.384ZM1321.51 238.24C1321.51 237.406 1321.33 236.748 1320.98 236.265C1320.62 235.782 1320.14 235.54 1319.52 235.54C1318.75 235.54 1318.18 235.88 1317.79 236.559V240.093C1318.17 240.767 1318.75 241.104 1319.53 241.104C1320.14 241.104 1320.62 240.865 1320.97 240.387C1321.33 239.904 1321.51 239.188 1321.51 238.24ZM1328.96 242C1328.88 241.854 1328.82 241.594 1328.78 241.221C1328.19 241.831 1327.49 242.137 1326.67 242.137C1325.94 242.137 1325.34 241.932 1324.88 241.521C1324.41 241.107 1324.18 240.583 1324.18 239.949C1324.18 239.179 1324.47 238.582 1325.05 238.158C1325.64 237.73 1326.47 237.516 1327.53 237.516H1328.76V236.935C1328.76 236.493 1328.63 236.142 1328.36 235.882C1328.1 235.618 1327.71 235.485 1327.19 235.485C1326.74 235.485 1326.36 235.599 1326.06 235.827C1325.75 236.055 1325.6 236.331 1325.6 236.654H1324.33C1324.33 236.285 1324.46 235.93 1324.72 235.588C1324.98 235.242 1325.34 234.968 1325.78 234.768C1326.24 234.567 1326.73 234.467 1327.27 234.467C1328.12 234.467 1328.79 234.681 1329.27 235.109C1329.75 235.533 1330 236.119 1330.02 236.866V240.271C1330.02 240.95 1330.11 241.49 1330.28 241.891V242H1328.96ZM1326.86 241.036C1327.25 241.036 1327.63 240.934 1327.99 240.729C1328.34 240.523 1328.6 240.257 1328.76 239.929V238.411H1327.77C1326.22 238.411 1325.44 238.865 1325.44 239.771C1325.44 240.168 1325.57 240.478 1325.84 240.701C1326.1 240.924 1326.44 241.036 1326.86 241.036ZM1334.32 240.147L1336.04 234.604H1337.39L1334.42 243.142C1333.96 244.372 1333.23 244.987 1332.22 244.987L1331.98 244.967L1331.51 244.878V243.853L1331.85 243.88C1332.28 243.88 1332.62 243.793 1332.85 243.62C1333.09 243.447 1333.29 243.13 1333.45 242.67L1333.73 241.918L1331.09 234.604H1332.47L1334.32 240.147ZM1339.9 242H1338.64V231.5H1339.9V242ZM1341.6 238.233C1341.6 237.509 1341.74 236.857 1342.02 236.278C1342.31 235.7 1342.7 235.253 1343.21 234.938C1343.72 234.624 1344.3 234.467 1344.95 234.467C1345.96 234.467 1346.77 234.815 1347.39 235.513C1348.02 236.21 1348.33 237.137 1348.33 238.295V238.384C1348.33 239.104 1348.19 239.751 1347.91 240.325C1347.64 240.895 1347.24 241.339 1346.73 241.658C1346.22 241.977 1345.63 242.137 1344.97 242.137C1343.96 242.137 1343.15 241.788 1342.53 241.091C1341.91 240.394 1341.6 239.471 1341.6 238.322V238.233ZM1342.87 238.384C1342.87 239.204 1343.06 239.863 1343.43 240.359C1343.82 240.856 1344.33 241.104 1344.97 241.104C1345.61 241.104 1346.12 240.854 1346.5 240.353C1346.88 239.847 1347.06 239.14 1347.06 238.233C1347.06 237.422 1346.87 236.766 1346.48 236.265C1346.1 235.759 1345.59 235.506 1344.95 235.506C1344.33 235.506 1343.82 235.754 1343.44 236.251C1343.06 236.748 1342.87 237.459 1342.87 238.384ZM1354.48 242C1354.41 241.854 1354.35 241.594 1354.3 241.221C1353.72 241.831 1353.01 242.137 1352.2 242.137C1351.47 242.137 1350.87 241.932 1350.4 241.521C1349.94 241.107 1349.7 240.583 1349.7 239.949C1349.7 239.179 1349.99 238.582 1350.58 238.158C1351.17 237.73 1351.99 237.516 1353.05 237.516H1354.28V236.935C1354.28 236.493 1354.15 236.142 1353.89 235.882C1353.62 235.618 1353.23 235.485 1352.72 235.485C1352.27 235.485 1351.89 235.599 1351.58 235.827C1351.28 236.055 1351.12 236.331 1351.12 236.654H1349.85C1349.85 236.285 1349.98 235.93 1350.24 235.588C1350.51 235.242 1350.86 234.968 1351.31 234.768C1351.76 234.567 1352.26 234.467 1352.79 234.467C1353.65 234.467 1354.31 234.681 1354.8 235.109C1355.28 235.533 1355.53 236.119 1355.55 236.866V240.271C1355.55 240.95 1355.63 241.49 1355.81 241.891V242H1354.48ZM1352.38 241.036C1352.78 241.036 1353.16 240.934 1353.51 240.729C1353.87 240.523 1354.12 240.257 1354.28 239.929V238.411H1353.29C1351.74 238.411 1350.97 238.865 1350.97 239.771C1350.97 240.168 1351.1 240.478 1351.36 240.701C1351.63 240.924 1351.97 241.036 1352.38 241.036ZM1357.22 238.24C1357.22 237.105 1357.49 236.194 1358.03 235.506C1358.57 234.813 1359.27 234.467 1360.14 234.467C1361.01 234.467 1361.69 234.763 1362.2 235.355V231.5H1363.46V242H1362.3L1362.24 241.207C1361.73 241.827 1361.03 242.137 1360.13 242.137C1359.27 242.137 1358.57 241.786 1358.03 241.084C1357.49 240.382 1357.22 239.466 1357.22 238.336V238.24ZM1358.49 238.384C1358.49 239.222 1358.66 239.879 1359.01 240.353C1359.35 240.826 1359.83 241.063 1360.44 241.063C1361.24 241.063 1361.83 240.703 1362.2 239.983V236.586C1361.82 235.889 1361.24 235.54 1360.46 235.54C1359.84 235.54 1359.35 235.779 1359.01 236.258C1358.66 236.736 1358.49 237.445 1358.49 238.384Z" fill="black"/>
<path d="M1011.1 229.668C1012.02 229.059 1012.28 227.818 1011.67 226.897L1001.74 211.884C1001.13 210.963 999.887 210.71 998.965 211.32C998.044 211.929 997.791 213.17 998.401 214.091L1007.23 227.435L993.884 236.263C992.963 236.873 992.71 238.113 993.32 239.035C993.929 239.956 995.17 240.209 996.091 239.599L1011.1 229.668ZM793.601 185.96L1009.6 229.96L1010.4 226.04L794.399 182.04L793.601 185.96Z" fill="#219653"/>
<path d="M475.984 156.741C476.946 156.198 477.285 154.977 476.741 154.016L467.884 138.346C467.341 137.384 466.12 137.045 465.159 137.589C464.197 138.132 463.858 139.352 464.402 140.314L472.275 154.243L458.346 162.116C457.384 162.659 457.045 163.88 457.589 164.841C458.132 165.803 459.352 166.142 460.314 165.598L475.984 156.741ZM258.465 96.927L474.465 156.927L475.535 153.073L259.535 93.073L258.465 96.927Z" fill="#219653"/>
<path d="M461.51 185.311C462.234 184.477 462.145 183.214 461.311 182.49L447.72 170.688C446.886 169.964 445.623 170.053 444.899 170.887C444.174 171.721 444.263 172.984 445.097 173.709L457.179 184.199L446.688 196.28C445.964 197.114 446.053 198.377 446.887 199.101C447.721 199.826 448.984 199.737 449.709 198.903L461.51 185.311ZM233.141 201.995L460.141 185.995L459.859 182.005L232.859 198.005L233.141 201.995Z" fill="#219653"/>
<path d="M476.824 217.819C477.277 216.812 476.827 215.628 475.819 215.176L459.399 207.801C458.392 207.349 457.208 207.799 456.755 208.806C456.303 209.814 456.753 210.998 457.761 211.45L472.356 218.005L465.801 232.601C465.349 233.608 465.799 234.792 466.806 235.245C467.814 235.697 468.998 235.247 469.45 234.239L476.824 217.819ZM233.711 310.869L475.711 218.869L474.289 215.131L232.289 307.131L233.711 310.869Z" fill="#219653"/>
<path d="M501.996 234.124C502.065 233.021 501.226 232.072 500.124 232.004L482.158 230.889C481.056 230.821 480.107 231.659 480.038 232.762C479.97 233.864 480.808 234.813 481.911 234.882L497.88 235.872L496.889 251.842C496.821 252.944 497.659 253.893 498.762 253.962C499.864 254.03 500.813 253.192 500.882 252.089L501.996 234.124ZM287.324 424.499L501.324 235.499L498.676 232.501L284.676 421.501L287.324 424.499Z" fill="#219653"/>
<path d="M534.973 237.672C534.792 236.583 533.762 235.846 532.672 236.027L514.916 238.975C513.826 239.156 513.089 240.186 513.27 241.276C513.451 242.366 514.481 243.102 515.571 242.921L531.355 240.301L533.975 256.084C534.156 257.174 535.186 257.911 536.276 257.73C537.366 257.549 538.102 256.519 537.921 255.429L534.973 237.672ZM313.627 548.163L534.627 239.163L531.373 236.837L310.373 545.837L313.627 548.163Z" fill="#219653"/>
</svg>
