<svg version="1.1" viewBox="0.0 0.0 719.0 371.0" fill="none" stroke="none" stroke-linecap="square" stroke-miterlimit="10" width="719" height="371" xmlns:xlink="http://www.w3.org/1999/xlink" xmlns="http://www.w3.org/2000/svg"><path fill="#ffffff" d="M0 0L719.0 0L719.0 371.0L0 371.0L0 0Z" fill-rule="nonzero"/><path stroke="#333333" stroke-width="1.0" stroke-linecap="butt" d="M45.5 88.5L45.5 300.5" fill-rule="nonzero"/><path stroke="#cccccc" stroke-width="1.0" stroke-linecap="butt" d="M238.5 88.5L238.5 300.5" fill-rule="nonzero"/><path stroke="#cccccc" stroke-width="1.0" stroke-linecap="butt" d="M430.5 88.5L430.5 300.5" fill-rule="nonzero"/><path stroke="#cccccc" stroke-width="1.0" stroke-linecap="butt" d="M623.5 88.5L623.5 300.5" fill-rule="nonzero"/><path stroke="#333333" stroke-width="1.0" stroke-linecap="butt" d="M45.5 300.5L700.5 300.5" fill-rule="nonzero"/><path stroke="#cccccc" stroke-width="1.0" stroke-linecap="butt" d="M45.5 258.5L700.5 258.5" fill-rule="nonzero"/><path stroke="#cccccc" stroke-width="1.0" stroke-linecap="butt" d="M45.5 215.5L700.5 215.5" fill-rule="nonzero"/><path stroke="#cccccc" stroke-width="1.0" stroke-linecap="butt" d="M45.5 173.5L700.5 173.5" fill-rule="nonzero"/><path stroke="#cccccc" stroke-width="1.0" stroke-linecap="butt" d="M45.5 130.5L700.5 130.5" fill-rule="nonzero"/><path stroke="#cccccc" stroke-width="1.0" stroke-linecap="butt" d="M45.5 88.5L700.5 88.5" fill-rule="nonzero"/><clipPath id="id_0"><path d="M45.55 88.28333L700.45 88.28333L700.45 300.45L45.55 300.45L45.55 88.28333Z" clip-rule="nonzero"/></clipPath><path fill="#4285f4" fill-opacity="0.3019608" clip-path="url(#id_0)" d="M45.55 130.71666L84.07353 127.322L122.59706 123.689705L161.12059 119.80281L199.64412 115.64435L238.16765 171.08604L276.69116 170.51744L315.2147 169.9064L353.73822 169.25293L392.26178 168.55702L430.7853 167.8102L469.30884 167.01244L507.83237 166.15529L546.3559 165.23872L584.8794 164.26276L623.40295 163.2189L661.92645 162.09866L700.45 160.90204L700.45 300.45L661.92645 300.45L623.40295 300.45L584.8794 300.45L546.3559 300.45L507.83237 300.45L469.30884 300.45L430.7853 300.45L392.26178 300.45L353.73822 300.45L315.2147 300.45L276.69116 300.45L238.16765 300.45L199.64412 300.45L161.12059 300.45L122.59706 300.45L84.07353 300.45L45.55 300.45Z" fill-rule="nonzero"/><path fill="#ea4335" fill-opacity="0.3019608" clip-path="url(#id_0)" d="M45.55 288.56866L84.07353 288.33105L122.59706 288.07645L161.12059 287.80487L199.64412 287.51633L238.16765 291.3947L276.69116 291.3523L315.2147 291.30984L353.73822 291.26743L392.26178 291.2165L430.7853 291.1656L469.30884 291.10617L507.83237 291.04678L546.3559 290.98737L584.8794 290.91946L623.40295 290.84308L661.92645 290.76672L700.45 290.68185L700.45 300.45L661.92645 300.45L623.40295 300.45L584.8794 300.45L546.3559 300.45L507.83237 300.45L469.30884 300.45L430.7853 300.45L392.26178 300.45L353.73822 300.45L315.2147 300.45L276.69116 300.45L238.16765 300.45L199.64412 300.45L161.12059 300.45L122.59706 300.45L84.07353 300.45L45.55 300.45Z" fill-rule="nonzero"/><path fill="#fbbc04" fill-opacity="0.3019608" clip-path="url(#id_0)" d="M45.55 291.96335L84.07353 291.96335L122.59706 291.96335L161.12059 291.96335L199.64412 291.96335L238.16765 291.96335L276.69116 291.96335L315.2147 291.96335L353.73822 291.96335L392.26178 291.96335L430.7853 291.96335L469.30884 291.96335L507.83237 291.96335L546.3559 291.96335L584.8794 291.96335L623.40295 291.96335L661.92645 291.96335L700.45 291.96335L700.45 300.45L661.92645 300.45L623.40295 300.45L584.8794 300.45L546.3559 300.45L507.83237 300.45L469.30884 300.45L430.7853 300.45L392.26178 300.45L353.73822 300.45L315.2147 300.45L276.69116 300.45L238.16765 300.45L199.64412 300.45L161.12059 300.45L122.59706 300.45L84.07353 300.45L45.55 300.45Z" fill-rule="nonzero"/><path stroke="#4285f4" stroke-width="2.0" stroke-linecap="butt" clip-path="url(#id_0)" d="M45.55 130.71666L84.07353 127.322L122.59706 123.689705L161.12059 119.80281L199.64412 115.64435L238.16765 171.08604L276.69116 170.51744L315.2147 169.9064L353.73822 169.25293L392.26178 168.55702L430.7853 167.8102L469.30884 167.01244L507.83237 166.15529L546.3559 165.23872L584.8794 164.26276L623.40295 163.2189L661.92645 162.09866L700.45 160.90204" fill-rule="nonzero"/><path stroke="#ea4335" stroke-width="2.0" stroke-linecap="butt" clip-path="url(#id_0)" d="M45.55 288.56866L84.07353 288.33105L122.59706 288.07645L161.12059 287.80487L199.64412 287.51633L238.16765 291.3947L276.69116 291.3523L315.2147 291.30984L353.73822 291.26743L392.26178 291.2165L430.7853 291.1656L469.30884 291.10617L507.83237 291.04678L546.3559 290.98737L584.8794 290.91946L623.40295 290.84308L661.92645 290.76672L700.45 290.68185" fill-rule="nonzero"/><path stroke="#fbbc04" stroke-width="2.0" stroke-linecap="butt" clip-path="url(#id_0)" d="M45.55 291.96335L84.07353 291.96335L122.59706 291.96335L161.12059 291.96335L199.64412 291.96335L238.16765 291.96335L276.69116 291.96335L315.2147 291.96335L353.73822 291.96335L392.26178 291.96335L430.7853 291.96335L469.30884 291.96335L507.83237 291.96335L546.3559 291.96335L584.8794 291.96335L623.40295 291.96335L661.92645 291.96335L700.45 291.96335" fill-rule="nonzero"/><path fill="#000000" fill-opacity="0.0" clip-path="url(#id_0)" d="M48.55 130.71666C48.55 132.37352 47.206856 133.71666 45.55 133.71666C43.893147 133.71666 42.55 132.37352 42.55 130.71666C42.55 129.05981 43.893147 127.71667 45.55 127.71667C47.206856 127.71667 48.55 129.05981 48.55 130.71666Z" fill-rule="nonzero"/><path fill="#000000" fill-opacity="0.0" clip-path="url(#id_0)" d="M87.07353 127.322C87.07353 128.97885 85.730385 130.322 84.07353 130.322C82.41667 130.322 81.07353 128.97885 81.07353 127.322C81.07353 125.665146 82.41667 124.322 84.07353 124.322C85.730385 124.322 87.07353 125.665146 87.07353 127.322Z" fill-rule="nonzero"/><path fill="#000000" fill-opacity="0.0" clip-path="url(#id_0)" d="M125.59706 123.689705C125.59706 125.34656 124.253914 126.689705 122.59706 126.689705C120.9402 126.689705 119.59706 125.34656 119.59706 123.689705C119.59706 122.03285 120.9402 120.689705 122.59706 120.689705C124.253914 120.689705 125.59706 122.03285 125.59706 123.689705Z" fill-rule="nonzero"/><path fill="#000000" fill-opacity="0.0" clip-path="url(#id_0)" d="M164.12059 119.80281C164.12059 121.45967 162.77744 122.80281 161.12059 122.80281C159.46373 122.80281 158.12059 121.45967 158.12059 119.80281C158.12059 118.14596 159.46373 116.80281 161.12059 116.80281C162.77744 116.80281 164.12059 118.14596 164.12059 119.80281Z" fill-rule="nonzero"/><path fill="#000000" fill-opacity="0.0" clip-path="url(#id_0)" d="M202.64412 115.64435C202.64412 117.3012 201.30096 118.64435 199.64412 118.64435C197.98726 118.64435 196.64412 117.3012 196.64412 115.64435C196.64412 113.987495 197.98726 112.64435 199.64412 112.64435C201.30096 112.64435 202.64412 113.987495 202.64412 115.64435Z" fill-rule="nonzero"/><path fill="#000000" fill-opacity="0.0" clip-path="url(#id_0)" d="M241.16765 171.08604C241.16765 172.74289 239.82451 174.08604 238.16765 174.08604C236.51079 174.08604 235.16765 172.74289 235.16765 171.08604C235.16765 169.42918 236.51079 168.08604 238.16765 168.08604C239.82451 168.08604 241.16765 169.42918 241.16765 171.08604Z" fill-rule="nonzero"/><path fill="#000000" fill-opacity="0.0" clip-path="url(#id_0)" d="M279.69116 170.51744C279.69116 172.17429 278.34802 173.51744 276.69116 173.51744C275.03433 173.51744 273.69116 172.17429 273.69116 170.51744C273.69116 168.86058 275.03433 167.51744 276.69116 167.51744C278.34802 167.51744 279.69116 168.86058 279.69116 170.51744Z" fill-rule="nonzero"/><path fill="#000000" fill-opacity="0.0" clip-path="url(#id_0)" d="M318.2147 169.9064C318.2147 171.56325 316.87155 172.9064 315.2147 172.9064C313.55786 172.9064 312.2147 171.56325 312.2147 169.9064C312.2147 168.24954 313.55786 166.9064 315.2147 166.9064C316.87155 166.9064 318.2147 168.24954 318.2147 169.9064Z" fill-rule="nonzero"/><path fill="#000000" fill-opacity="0.0" clip-path="url(#id_0)" d="M356.73822 169.25293C356.73822 170.90977 355.39508 172.25293 353.73822 172.25293C352.0814 172.25293 350.73822 170.90977 350.73822 169.25293C350.73822 167.59607 352.0814 166.25293 353.73822 166.25293C355.39508 166.25293 356.73822 167.59607 356.73822 169.25293Z" fill-rule="nonzero"/><path fill="#000000" fill-opacity="0.0" clip-path="url(#id_0)" d="M395.26178 168.55702C395.26178 170.21387 393.9186 171.55702 392.26178 171.55702C390.60492 171.55702 389.26178 170.21387 389.26178 168.55702C389.26178 166.90016 390.60492 165.55702 392.26178 165.55702C393.9186 165.55702 395.26178 166.90016 395.26178 168.55702Z" fill-rule="nonzero"/><path fill="#000000" fill-opacity="0.0" clip-path="url(#id_0)" d="M433.7853 167.8102C433.7853 169.46704 432.44214 170.8102 430.7853 170.8102C429.12845 170.8102 427.7853 169.46704 427.7853 167.8102C427.7853 166.15334 429.12845 164.8102 430.7853 164.8102C432.44214 164.8102 433.7853 166.15334 433.7853 167.8102Z" fill-rule="nonzero"/><path fill="#000000" fill-opacity="0.0" clip-path="url(#id_0)" d="M472.30884 167.01244C472.30884 168.6693 470.96567 170.01244 469.30884 170.01244C467.65198 170.01244 466.30884 168.6693 466.30884 167.01244C466.30884 165.35559 467.65198 164.01244 469.30884 164.01244C470.96567 164.01244 472.30884 165.35559 472.30884 167.01244Z" fill-rule="nonzero"/><path fill="#000000" fill-opacity="0.0" clip-path="url(#id_0)" d="M510.83237 166.15529C510.83237 167.81215 509.4892 169.15529 507.83237 169.15529C506.1755 169.15529 504.83237 167.81215 504.83237 166.15529C504.83237 164.49843 506.1755 163.15529 507.83237 163.15529C509.4892 163.15529 510.83237 164.49843 510.83237 166.15529Z" fill-rule="nonzero"/><path fill="#000000" fill-opacity="0.0" clip-path="url(#id_0)" d="M549.3559 165.23872C549.3559 166.89558 548.01276 168.23872 546.3559 168.23872C544.69904 168.23872 543.3559 166.89558 543.3559 165.23872C543.3559 163.58188 544.69904 162.23872 546.3559 162.23872C548.01276 162.23872 549.3559 163.58188 549.3559 165.23872Z" fill-rule="nonzero"/><path fill="#000000" fill-opacity="0.0" clip-path="url(#id_0)" d="M587.8794 164.26276C587.8794 165.91962 586.53625 167.26276 584.8794 167.26276C583.22253 167.26276 581.8794 165.91962 581.8794 164.26276C581.8794 162.60591 583.22253 161.26276 584.8794 161.26276C586.53625 161.26276 587.8794 162.60591 587.8794 164.26276Z" fill-rule="nonzero"/><path fill="#000000" fill-opacity="0.0" clip-path="url(#id_0)" d="M626.40295 163.2189C626.40295 164.87576 625.0598 166.2189 623.40295 166.2189C621.7461 166.2189 620.40295 164.87576 620.40295 163.2189C620.40295 161.56204 621.7461 160.2189 623.40295 160.2189C625.0598 160.2189 626.40295 161.56204 626.40295 163.2189Z" fill-rule="nonzero"/><path fill="#000000" fill-opacity="0.0" clip-path="url(#id_0)" d="M664.92645 162.09866C664.92645 163.75552 663.5833 165.09866 661.92645 165.09866C660.2696 165.09866 658.92645 163.75552 658.92645 162.09866C658.92645 160.4418 660.2696 159.09866 661.92645 159.09866C663.5833 159.09866 664.92645 160.4418 664.92645 162.09866Z" fill-rule="nonzero"/><path fill="#000000" fill-opacity="0.0" clip-path="url(#id_0)" d="M703.45 160.90204C703.45 162.5589 702.1069 163.90204 700.45 163.90204C698.79315 163.90204 697.45 162.5589 697.45 160.90204C697.45 159.2452 698.79315 157.90204 700.45 157.90204C702.1069 157.90204 703.45 159.2452 703.45 160.90204Z" fill-rule="nonzero"/><path fill="#000000" fill-opacity="0.0" clip-path="url(#id_0)" d="M48.55 288.56866C48.55 290.22552 47.206856 291.56866 45.55 291.56866C43.893147 291.56866 42.55 290.22552 42.55 288.56866C42.55 286.9118 43.893147 285.56866 45.55 285.56866C47.206856 285.56866 48.55 286.9118 48.55 288.56866Z" fill-rule="nonzero"/><path fill="#000000" fill-opacity="0.0" clip-path="url(#id_0)" d="M87.07353 288.33105C87.07353 289.98788 85.730385 291.33105 84.07353 291.33105C82.41667 291.33105 81.07353 289.98788 81.07353 288.33105C81.07353 286.6742 82.41667 285.33105 84.07353 285.33105C85.730385 285.33105 87.07353 286.6742 87.07353 288.33105Z" fill-rule="nonzero"/><path fill="#000000" fill-opacity="0.0" clip-path="url(#id_0)" d="M125.59706 288.07645C125.59706 289.7333 124.253914 291.07645 122.59706 291.07645C120.9402 291.07645 119.59706 289.7333 119.59706 288.07645C119.59706 286.4196 120.9402 285.07645 122.59706 285.07645C124.253914 285.07645 125.59706 286.4196 125.59706 288.07645Z" fill-rule="nonzero"/><path fill="#000000" fill-opacity="0.0" clip-path="url(#id_0)" d="M164.12059 287.80487C164.12059 289.46173 162.77744 290.80487 161.12059 290.80487C159.46373 290.80487 158.12059 289.46173 158.12059 287.80487C158.12059 286.148 159.46373 284.80487 161.12059 284.80487C162.77744 284.80487 164.12059 286.148 164.12059 287.80487Z" fill-rule="nonzero"/><path fill="#000000" fill-opacity="0.0" clip-path="url(#id_0)" d="M202.64412 287.51633C202.64412 289.1732 201.30096 290.51633 199.64412 290.51633C197.98726 290.51633 196.64412 289.1732 196.64412 287.51633C196.64412 285.85947 197.98726 284.51633 199.64412 284.51633C201.30096 284.51633 202.64412 285.85947 202.64412 287.51633Z" fill-rule="nonzero"/><path fill="#000000" fill-opacity="0.0" clip-path="url(#id_0)" d="M241.16765 291.3947C241.16765 293.05157 239.82451 294.3947 238.16765 294.3947C236.51079 294.3947 235.16765 293.05157 235.16765 291.3947C235.16765 289.73788 236.51079 288.3947 238.16765 288.3947C239.82451 288.3947 241.16765 289.73788 241.16765 291.3947Z" fill-rule="nonzero"/><path fill="#000000" fill-opacity="0.0" clip-path="url(#id_0)" d="M279.69116 291.3523C279.69116 293.00916 278.34802 294.3523 276.69116 294.3523C275.03433 294.3523 273.69116 293.00916 273.69116 291.3523C273.69116 289.69543 275.03433 288.3523 276.69116 288.3523C278.34802 288.3523 279.69116 289.69543 279.69116 291.3523Z" fill-rule="nonzero"/><path fill="#000000" fill-opacity="0.0" clip-path="url(#id_0)" d="M318.2147 291.30984C318.2147 292.9667 316.87155 294.30984 315.2147 294.30984C313.55786 294.30984 312.2147 292.9667 312.2147 291.30984C312.2147 289.653 313.55786 288.30984 315.2147 288.30984C316.87155 288.30984 318.2147 289.653 318.2147 291.30984Z" fill-rule="nonzero"/><path fill="#000000" fill-opacity="0.0" clip-path="url(#id_0)" d="M356.73822 291.26743C356.73822 292.9243 355.39508 294.26743 353.73822 294.26743C352.0814 294.26743 350.73822 292.9243 350.73822 291.26743C350.73822 289.61057 352.0814 288.26743 353.73822 288.26743C355.39508 288.26743 356.73822 289.61057 356.73822 291.26743Z" fill-rule="nonzero"/><path fill="#000000" fill-opacity="0.0" clip-path="url(#id_0)" d="M395.26178 291.2165C395.26178 292.87335 393.9186 294.2165 392.26178 294.2165C390.60492 294.2165 389.26178 292.87335 389.26178 291.2165C389.26178 289.55966 390.60492 288.2165 392.26178 288.2165C393.9186 288.2165 395.26178 289.55966 395.26178 291.2165Z" fill-rule="nonzero"/><path fill="#000000" fill-opacity="0.0" clip-path="url(#id_0)" d="M433.7853 291.1656C433.7853 292.82245 432.44214 294.1656 430.7853 294.1656C429.12845 294.1656 427.7853 292.82245 427.7853 291.1656C427.7853 289.50873 429.12845 288.1656 430.7853 288.1656C432.44214 288.1656 433.7853 289.50873 433.7853 291.1656Z" fill-rule="nonzero"/><path fill="#000000" fill-opacity="0.0" clip-path="url(#id_0)" d="M472.30884 291.10617C472.30884 292.76303 470.96567 294.10617 469.30884 294.10617C467.65198 294.10617 466.30884 292.76303 466.30884 291.10617C466.30884 289.44934 467.65198 288.10617 469.30884 288.10617C470.96567 288.10617 472.30884 289.44934 472.30884 291.10617Z" fill-rule="nonzero"/><path fill="#000000" fill-opacity="0.0" clip-path="url(#id_0)" d="M510.83237 291.04678C510.83237 292.7036 509.4892 294.04678 507.83237 294.04678C506.1755 294.04678 504.83237 292.7036 504.83237 291.04678C504.83237 289.38992 506.1755 288.04678 507.83237 288.04678C509.4892 288.04678 510.83237 289.38992 510.83237 291.04678Z" fill-rule="nonzero"/><path fill="#000000" fill-opacity="0.0" clip-path="url(#id_0)" d="M549.3559 290.98737C549.3559 292.64423 548.01276 293.98737 546.3559 293.98737C544.69904 293.98737 543.3559 292.64423 543.3559 290.98737C543.3559 289.3305 544.69904 287.98737 546.3559 287.98737C548.01276 287.98737 549.3559 289.3305 549.3559 290.98737Z" fill-rule="nonzero"/><path fill="#000000" fill-opacity="0.0" clip-path="url(#id_0)" d="M587.8794 290.91946C587.8794 292.57632 586.53625 293.91946 584.8794 293.91946C583.22253 293.91946 581.8794 292.57632 581.8794 290.91946C581.8794 289.26263 583.22253 287.91946 584.8794 287.91946C586.53625 287.91946 587.8794 289.26263 587.8794 290.91946Z" fill-rule="nonzero"/><path fill="#000000" fill-opacity="0.0" clip-path="url(#id_0)" d="M626.40295 290.84308C626.40295 292.49994 625.0598 293.84308 623.40295 293.84308C621.7461 293.84308 620.40295 292.49994 620.40295 290.84308C620.40295 289.18625 621.7461 287.84308 623.40295 287.84308C625.0598 287.84308 626.40295 289.18625 626.40295 290.84308Z" fill-rule="nonzero"/><path fill="#000000" fill-opacity="0.0" clip-path="url(#id_0)" d="M664.92645 290.76672C664.92645 292.42355 663.5833 293.76672 661.92645 293.76672C660.2696 293.76672 658.92645 292.42355 658.92645 290.76672C658.92645 289.10986 660.2696 287.76672 661.92645 287.76672C663.5833 287.76672 664.92645 289.10986 664.92645 290.76672Z" fill-rule="nonzero"/><path fill="#000000" fill-opacity="0.0" clip-path="url(#id_0)" d="M703.45 290.68185C703.45 292.3387 702.1069 293.68185 700.45 293.68185C698.79315 293.68185 697.45 292.3387 697.45 290.68185C697.45 289.025 698.79315 287.68185 700.45 287.68185C702.1069 287.68185 703.45 289.025 703.45 290.68185Z" fill-rule="nonzero"/><path fill="#000000" fill-opacity="0.0" clip-path="url(#id_0)" d="M48.55 291.96335C48.55 293.62018 47.206856 294.96335 45.55 294.96335C43.893147 294.96335 42.55 293.62018 42.55 291.96335C42.55 290.3065 43.893147 288.96335 45.55 288.96335C47.206856 288.96335 48.55 290.3065 48.55 291.96335Z" fill-rule="nonzero"/><path fill="#000000" fill-opacity="0.0" clip-path="url(#id_0)" d="M87.07353 291.96335C87.07353 293.62018 85.730385 294.96335 84.07353 294.96335C82.41667 294.96335 81.07353 293.62018 81.07353 291.96335C81.07353 290.3065 82.41667 288.96335 84.07353 288.96335C85.730385 288.96335 87.07353 290.3065 87.07353 291.96335Z" fill-rule="nonzero"/><path fill="#000000" fill-opacity="0.0" clip-path="url(#id_0)" d="M125.59706 291.96335C125.59706 293.62018 124.253914 294.96335 122.59706 294.96335C120.9402 294.96335 119.59706 293.62018 119.59706 291.96335C119.59706 290.3065 120.9402 288.96335 122.59706 288.96335C124.253914 288.96335 125.59706 290.3065 125.59706 291.96335Z" fill-rule="nonzero"/><path fill="#000000" fill-opacity="0.0" clip-path="url(#id_0)" d="M164.12059 291.96335C164.12059 293.62018 162.77744 294.96335 161.12059 294.96335C159.46373 294.96335 158.12059 293.62018 158.12059 291.96335C158.12059 290.3065 159.46373 288.96335 161.12059 288.96335C162.77744 288.96335 164.12059 290.3065 164.12059 291.96335Z" fill-rule="nonzero"/><path fill="#000000" fill-opacity="0.0" clip-path="url(#id_0)" d="M202.64412 291.96335C202.64412 293.62018 201.30096 294.96335 199.64412 294.96335C197.98726 294.96335 196.64412 293.62018 196.64412 291.96335C196.64412 290.3065 197.98726 288.96335 199.64412 288.96335C201.30096 288.96335 202.64412 290.3065 202.64412 291.96335Z" fill-rule="nonzero"/><path fill="#000000" fill-opacity="0.0" clip-path="url(#id_0)" d="M241.16765 291.96335C241.16765 293.62018 239.82451 294.96335 238.16765 294.96335C236.51079 294.96335 235.16765 293.62018 235.16765 291.96335C235.16765 290.3065 236.51079 288.96335 238.16765 288.96335C239.82451 288.96335 241.16765 290.3065 241.16765 291.96335Z" fill-rule="nonzero"/><path fill="#000000" fill-opacity="0.0" clip-path="url(#id_0)" d="M279.69116 291.96335C279.69116 293.62018 278.34802 294.96335 276.69116 294.96335C275.03433 294.96335 273.69116 293.62018 273.69116 291.96335C273.69116 290.3065 275.03433 288.96335 276.69116 288.96335C278.34802 288.96335 279.69116 290.3065 279.69116 291.96335Z" fill-rule="nonzero"/><path fill="#000000" fill-opacity="0.0" clip-path="url(#id_0)" d="M318.2147 291.96335C318.2147 293.62018 316.87155 294.96335 315.2147 294.96335C313.55786 294.96335 312.2147 293.62018 312.2147 291.96335C312.2147 290.3065 313.55786 288.96335 315.2147 288.96335C316.87155 288.96335 318.2147 290.3065 318.2147 291.96335Z" fill-rule="nonzero"/><path fill="#000000" fill-opacity="0.0" clip-path="url(#id_0)" d="M356.73822 291.96335C356.73822 293.62018 355.39508 294.96335 353.73822 294.96335C352.0814 294.96335 350.73822 293.62018 350.73822 291.96335C350.73822 290.3065 352.0814 288.96335 353.73822 288.96335C355.39508 288.96335 356.73822 290.3065 356.73822 291.96335Z" fill-rule="nonzero"/><path fill="#000000" fill-opacity="0.0" clip-path="url(#id_0)" d="M395.26178 291.96335C395.26178 293.62018 393.9186 294.96335 392.26178 294.96335C390.60492 294.96335 389.26178 293.62018 389.26178 291.96335C389.26178 290.3065 390.60492 288.96335 392.26178 288.96335C393.9186 288.96335 395.26178 290.3065 395.26178 291.96335Z" fill-rule="nonzero"/><path fill="#000000" fill-opacity="0.0" clip-path="url(#id_0)" d="M433.7853 291.96335C433.7853 293.62018 432.44214 294.96335 430.7853 294.96335C429.12845 294.96335 427.7853 293.62018 427.7853 291.96335C427.7853 290.3065 429.12845 288.96335 430.7853 288.96335C432.44214 288.96335 433.7853 290.3065 433.7853 291.96335Z" fill-rule="nonzero"/><path fill="#000000" fill-opacity="0.0" clip-path="url(#id_0)" d="M472.30884 291.96335C472.30884 293.62018 470.96567 294.96335 469.30884 294.96335C467.65198 294.96335 466.30884 293.62018 466.30884 291.96335C466.30884 290.3065 467.65198 288.96335 469.30884 288.96335C470.96567 288.96335 472.30884 290.3065 472.30884 291.96335Z" fill-rule="nonzero"/><path fill="#000000" fill-opacity="0.0" clip-path="url(#id_0)" d="M510.83237 291.96335C510.83237 293.62018 509.4892 294.96335 507.83237 294.96335C506.1755 294.96335 504.83237 293.62018 504.83237 291.96335C504.83237 290.3065 506.1755 288.96335 507.83237 288.96335C509.4892 288.96335 510.83237 290.3065 510.83237 291.96335Z" fill-rule="nonzero"/><path fill="#000000" fill-opacity="0.0" clip-path="url(#id_0)" d="M549.3559 291.96335C549.3559 293.62018 548.01276 294.96335 546.3559 294.96335C544.69904 294.96335 543.3559 293.62018 543.3559 291.96335C543.3559 290.3065 544.69904 288.96335 546.3559 288.96335C548.01276 288.96335 549.3559 290.3065 549.3559 291.96335Z" fill-rule="nonzero"/><path fill="#000000" fill-opacity="0.0" clip-path="url(#id_0)" d="M587.8794 291.96335C587.8794 293.62018 586.53625 294.96335 584.8794 294.96335C583.22253 294.96335 581.8794 293.62018 581.8794 291.96335C581.8794 290.3065 583.22253 288.96335 584.8794 288.96335C586.53625 288.96335 587.8794 290.3065 587.8794 291.96335Z" fill-rule="nonzero"/><path fill="#000000" fill-opacity="0.0" clip-path="url(#id_0)" d="M626.40295 291.96335C626.40295 293.62018 625.0598 294.96335 623.40295 294.96335C621.7461 294.96335 620.40295 293.62018 620.40295 291.96335C620.40295 290.3065 621.7461 288.96335 623.40295 288.96335C625.0598 288.96335 626.40295 290.3065 626.40295 291.96335Z" fill-rule="nonzero"/><path fill="#000000" fill-opacity="0.0" clip-path="url(#id_0)" d="M664.92645 291.96335C664.92645 293.62018 663.5833 294.96335 661.92645 294.96335C660.2696 294.96335 658.92645 293.62018 658.92645 291.96335C658.92645 290.3065 660.2696 288.96335 661.92645 288.96335C663.5833 288.96335 664.92645 290.3065 664.92645 291.96335Z" fill-rule="nonzero"/><path fill="#000000" fill-opacity="0.0" clip-path="url(#id_0)" d="M703.45 291.96335C703.45 293.62018 702.1069 294.96335 700.45 294.96335C698.79315 294.96335 697.45 293.62018 697.45 291.96335C697.45 290.3065 698.79315 288.96335 700.45 288.96335C702.1069 288.96335 703.45 290.3065 703.45 291.96335Z" fill-rule="nonzero"/><path fill="#000000" d="M361.75 351.84064L361.625 350.85626Q361.96875 350.95 362.23438 350.95Q362.57812 350.95 362.78125 350.825Q363.0 350.71564 363.14062 350.5125Q363.23438 350.34064 363.46875 349.71564Q363.48438 349.6375 363.5625 349.46564L361.1875 343.23126L362.32812 343.23126L363.625 346.825Q363.875 347.5125 364.07812 348.27814Q364.26562 347.54376 364.51562 346.85626L365.84375 343.23126L366.89062 343.23126L364.53125 349.5594Q364.14062 350.575 363.9375 350.96564Q363.65625 351.4969 363.28125 351.73126Q362.92188 351.98126 362.42188 351.98126Q362.125 351.98126 361.75 351.84064ZM372.04688 347.45L373.14062 347.575Q372.89062 348.52814 372.1875 349.0594Q371.48438 349.59064 370.40625 349.59064Q369.04688 349.59064 368.23438 348.7469Q367.4375 347.90314 367.4375 346.3875Q367.4375 344.825 368.25 343.96564Q369.0625 343.09064 370.34375 343.09064Q371.59375 343.09064 372.375 343.9344Q373.17188 344.77814 373.17188 346.325Q373.17188 346.41876 373.17188 346.60626L368.53125 346.60626Q368.59375 347.6375 369.10938 348.1844Q369.625 348.71564 370.40625 348.71564Q370.98438 348.71564 371.39062 348.41876Q371.8125 348.10626 372.04688 347.45ZM368.59375 345.7469L372.0625 345.7469Q372.0 344.95 371.67188 344.5594Q371.15625 343.95 370.35938 343.95Q369.625 343.95 369.125 344.4344Q368.64062 344.91876 368.59375 345.7469ZM378.85938 348.6844Q378.26562 349.1844 377.71875 349.3875Q377.1875 349.59064 376.5625 349.59064Q375.53125 349.59064 374.98438 349.09064Q374.4375 348.59064 374.4375 347.8094Q374.4375 347.35626 374.64062 346.98126Q374.84375 346.59064 375.1875 346.3719Q375.53125 346.1375 375.95312 346.02814Q376.25 345.9344 376.89062 345.85626Q378.15625 345.71564 378.76562 345.4969Q378.76562 345.27814 378.76562 345.23126Q378.76562 344.575 378.46875 344.3094Q378.0625 343.96564 377.26562 343.96564Q376.53125 343.96564 376.17188 344.23126Q375.8125 344.48126 375.64062 345.1375L374.60938 344.9969Q374.75 344.34064 375.07812 343.9344Q375.40625 343.52814 376.01562 343.3094Q376.625 343.09064 377.42188 343.09064Q378.21875 343.09064 378.71875 343.27814Q379.21875 343.46564 379.45312 343.7469Q379.6875 344.02814 379.78125 344.46564Q379.82812 344.73126 379.82812 345.4344L379.82812 346.84064Q379.82812 348.3094 379.89062 348.7Q379.96875 349.09064 380.17188 349.45L379.0625 349.45Q378.90625 349.1219 378.85938 348.6844ZM378.76562 346.325Q378.1875 346.5594 377.04688 346.73126Q376.39062 346.825 376.125 346.95Q375.85938 347.0594 375.70312 347.27814Q375.5625 347.4969 375.5625 347.77814Q375.5625 348.2 375.875 348.48126Q376.20312 348.7625 376.8125 348.7625Q377.42188 348.7625 377.89062 348.4969Q378.375 348.23126 378.59375 347.7625Q378.76562 347.40314 378.76562 346.71564L378.76562 346.325ZM381.78125 349.45L381.78125 343.23126L382.73438 343.23126L382.73438 344.16876Q383.09375 343.5125 383.39062 343.3094Q383.70312 343.09064 384.07812 343.09064Q384.60938 343.09064 385.15625 343.41876L384.79688 344.40314Q384.40625 344.16876 384.03125 344.16876Q383.67188 344.16876 383.39062 344.3875Q383.125 344.59064 383.01562 344.96564Q382.82812 345.52814 382.82812 346.1844L382.82812 349.45L381.78125 349.45Z" fill-rule="nonzero"/><path fill="#000000" d="M33.05 300.21564Q33.05 298.6844 33.3625 297.7625Q33.675 296.825 34.284374 296.325Q34.909374 295.825 35.846874 295.825Q36.534374 295.825 37.05 296.10626Q37.58125 296.3875 37.925 296.91876Q38.26875 297.4344 38.45625 298.1844Q38.64375 298.9344 38.64375 300.21564Q38.64375 301.73126 38.33125 302.65314Q38.034374 303.575 37.409374 304.09064Q36.8 304.59064 35.846874 304.59064Q34.6125 304.59064 33.89375 303.7Q33.05 302.6375 33.05 300.21564ZM34.128124 300.21564Q34.128124 302.325 34.628124 303.02814Q35.128124 303.73126 35.846874 303.73126Q36.58125 303.73126 37.065624 303.02814Q37.565624 302.325 37.565624 300.21564Q37.565624 298.09064 37.065624 297.40314Q36.58125 296.7 35.83125 296.7Q35.1125 296.7 34.675 297.3094Q34.128124 298.09064 34.128124 300.21564Z" fill-rule="nonzero"/><path fill="#000000" d="M26.05 259.76666L27.159374 259.6729Q27.284374 260.4854 27.721874 260.89166Q28.175 261.2979 28.815624 261.2979Q29.565624 261.2979 30.096874 260.7198Q30.628124 260.14166 30.628124 259.20416Q30.628124 258.2979 30.1125 257.7823Q29.6125 257.25104 28.784374 257.25104Q28.284374 257.25104 27.8625 257.4854Q27.45625 257.7198 27.221874 258.07916L26.2375 257.95416L27.065624 253.54791L31.346874 253.54791L31.346874 254.54791L27.909374 254.54791L27.45625 256.8604Q28.221874 256.31354 29.065624 256.31354Q30.190624 256.31354 30.95625 257.0948Q31.7375 257.87604 31.7375 259.1104Q31.7375 260.26666 31.065624 261.12604Q30.2375 262.1573 28.815624 262.1573Q27.64375 262.1573 26.89375 261.50104Q26.159374 260.8448 26.05 259.76666ZM33.05 257.7823Q33.05 256.25104 33.3625 255.32916Q33.675 254.39166 34.284374 253.89166Q34.909374 253.39166 35.846874 253.39166Q36.534374 253.39166 37.05 253.67291Q37.58125 253.95416 37.925 254.48541Q38.26875 255.00104 38.45625 255.75104Q38.64375 256.50104 38.64375 257.7823Q38.64375 259.2979 38.33125 260.2198Q38.034374 261.14166 37.409374 261.6573Q36.8 262.1573 35.846874 262.1573Q34.6125 262.1573 33.89375 261.26666Q33.05 260.20416 33.05 257.7823ZM34.128124 257.7823Q34.128124 259.89166 34.628124 260.5948Q35.128124 261.2979 35.846874 261.2979Q36.58125 261.2979 37.065624 260.5948Q37.565624 259.89166 37.565624 257.7823Q37.565624 255.65729 37.065624 254.96979Q36.58125 254.26666 35.83125 254.26666Q35.1125 254.26666 34.675 254.87604Q34.128124 255.65729 34.128124 257.7823Z" fill-rule="nonzero"/><path fill="#000000" d="M23.01875 219.58333L21.971874 219.58333L21.971874 212.86458Q21.58125 213.22395 20.95625 213.59895Q20.346874 213.95833 19.8625 214.1302L19.8625 213.11458Q20.7375 212.6927 21.39375 212.11458Q22.065624 211.52083 22.346874 210.95833L23.01875 210.95833L23.01875 219.58333ZM26.05 215.34895Q26.05 213.8177 26.3625 212.89583Q26.675 211.95833 27.284374 211.45833Q27.909374 210.95833 28.846874 210.95833Q29.534374 210.95833 30.05 211.23958Q30.58125 211.52083 30.925 212.05208Q31.26875 212.5677 31.45625 213.3177Q31.64375 214.0677 31.64375 215.34895Q31.64375 216.86458 31.33125 217.78645Q31.034374 218.70833 30.409374 219.22395Q29.8 219.72395 28.846874 219.72395Q27.6125 219.72395 26.89375 218.83333Q26.05 217.77083 26.05 215.34895ZM27.128124 215.34895Q27.128124 217.45833 27.628124 218.16145Q28.128124 218.86458 28.846874 218.86458Q29.58125 218.86458 30.065624 218.16145Q30.565624 217.45833 30.565624 215.34895Q30.565624 213.22395 30.065624 212.53645Q29.58125 211.83333 28.83125 211.83333Q28.1125 211.83333 27.675 212.4427Q27.128124 213.22395 27.128124 215.34895ZM33.05 215.34895Q33.05 213.8177 33.3625 212.89583Q33.675 211.95833 34.284374 211.45833Q34.909374 210.95833 35.846874 210.95833Q36.534374 210.95833 37.05 211.23958Q37.58125 211.52083 37.925 212.05208Q38.26875 212.5677 38.45625 213.3177Q38.64375 214.0677 38.64375 215.34895Q38.64375 216.86458 38.33125 217.78645Q38.034374 218.70833 37.409374 219.22395Q36.8 219.72395 35.846874 219.72395Q34.6125 219.72395 33.89375 218.83333Q33.05 217.77083 33.05 215.34895ZM34.128124 215.34895Q34.128124 217.45833 34.628124 218.16145Q35.128124 218.86458 35.846874 218.86458Q36.58125 218.86458 37.065624 218.16145Q37.565624 217.45833 37.565624 215.34895Q37.565624 213.22395 37.065624 212.53645Q36.58125 211.83333 35.83125 211.83333Q35.1125 211.83333 34.675 212.4427Q34.128124 213.22395 34.128124 215.34895Z" fill-rule="nonzero"/><path fill="#000000" d="M23.01875 177.15L21.971874 177.15L21.971874 170.43124Q21.58125 170.79062 20.95625 171.16562Q20.346874 171.525 19.8625 171.69687L19.8625 170.68124Q20.7375 170.25937 21.39375 169.68124Q22.065624 169.0875 22.346874 168.525L23.01875 168.525L23.01875 177.15ZM26.05 174.9L27.159374 174.80624Q27.284374 175.61874 27.721874 176.025Q28.175 176.43124 28.815624 176.43124Q29.565624 176.43124 30.096874 175.85312Q30.628124 175.275 30.628124 174.3375Q30.628124 173.43124 30.1125 172.91562Q29.6125 172.38437 28.784374 172.38437Q28.284374 172.38437 27.8625 172.61874Q27.45625 172.85312 27.221874 173.2125L26.2375 173.0875L27.065624 168.68124L31.346874 168.68124L31.346874 169.68124L27.909374 169.68124L27.45625 171.99374Q28.221874 171.44687 29.065624 171.44687Q30.190624 171.44687 30.95625 172.22812Q31.7375 173.00937 31.7375 174.24374Q31.7375 175.4 31.065624 176.25937Q30.2375 177.29062 28.815624 177.29062Q27.64375 177.29062 26.89375 176.63437Q26.159374 175.97812 26.05 174.9ZM33.05 172.91562Q33.05 171.38437 33.3625 170.4625Q33.675 169.525 34.284374 169.025Q34.909374 168.525 35.846874 168.525Q36.534374 168.525 37.05 168.80624Q37.58125 169.0875 37.925 169.61874Q38.26875 170.13437 38.45625 170.88437Q38.64375 171.63437 38.64375 172.91562Q38.64375 174.43124 38.33125 175.35312Q38.034374 176.275 37.409374 176.79062Q36.8 177.29062 35.846874 177.29062Q34.6125 177.29062 33.89375 176.4Q33.05 175.3375 33.05 172.91562ZM34.128124 172.91562Q34.128124 175.025 34.628124 175.72812Q35.128124 176.43124 35.846874 176.43124Q36.58125 176.43124 37.065624 175.72812Q37.565624 175.025 37.565624 172.91562Q37.565624 170.79062 37.065624 170.10312Q36.58125 169.4 35.83125 169.4Q35.1125 169.4 34.675 170.00937Q34.128124 170.79062 34.128124 172.91562Z" fill-rule="nonzero"/><path fill="#000000" d="M24.596874 133.70103L24.596874 134.71666L18.909374 134.71666Q18.909374 134.34166 19.034374 133.98228Q19.253124 133.40416 19.721874 132.84166Q20.20625 132.27916 21.1125 131.54478Q22.51875 130.38853 23.003124 129.71666Q23.503124 129.04478 23.503124 128.45103Q23.503124 127.826035 23.05 127.40416Q22.596874 126.96666 21.878124 126.96666Q21.1125 126.96666 20.659374 127.419785Q20.20625 127.87291 20.190624 128.68541L19.1125 128.57603Q19.221874 127.357285 19.940624 126.732285Q20.675 126.09166 21.909374 126.09166Q23.14375 126.09166 23.8625 126.77916Q24.58125 127.46666 24.58125 128.48228Q24.58125 128.99791 24.3625 129.49791Q24.159374 129.98228 23.659374 130.54478Q23.175 131.09166 22.05 132.04478Q21.096874 132.84166 20.815624 133.13853Q20.55 133.41978 20.378124 133.70103L24.596874 133.70103ZM26.05 130.48228Q26.05 128.95103 26.3625 128.02916Q26.675 127.09166 27.284374 126.59166Q27.909374 126.09166 28.846874 126.09166Q29.534374 126.09166 30.05 126.37291Q30.58125 126.65416 30.925 127.18541Q31.26875 127.701035 31.45625 128.45103Q31.64375 129.20103 31.64375 130.48228Q31.64375 131.99791 31.33125 132.91978Q31.034374 133.84166 30.409374 134.35728Q29.8 134.85728 28.846874 134.85728Q27.6125 134.85728 26.89375 133.96666Q26.05 132.90416 26.05 130.48228ZM27.128124 130.48228Q27.128124 132.59166 27.628124 133.29478Q28.128124 133.99791 28.846874 133.99791Q29.58125 133.99791 30.065624 133.29478Q30.565624 132.59166 30.565624 130.48228Q30.565624 128.35728 30.065624 127.669785Q29.58125 126.96666 28.83125 126.96666Q28.1125 126.96666 27.675 127.576035Q27.128124 128.35728 27.128124 130.48228ZM33.05 130.48228Q33.05 128.95103 33.3625 128.02916Q33.675 127.09166 34.284374 126.59166Q34.909374 126.09166 35.846874 126.09166Q36.534374 126.09166 37.05 126.37291Q37.58125 126.65416 37.925 127.18541Q38.26875 127.701035 38.45625 128.45103Q38.64375 129.20103 38.64375 130.48228Q38.64375 131.99791 38.33125 132.91978Q38.034374 133.84166 37.409374 134.35728Q36.8 134.85728 35.846874 134.85728Q34.6125 134.85728 33.89375 133.96666Q33.05 132.90416 33.05 130.48228ZM34.128124 130.48228Q34.128124 132.59166 34.628124 133.29478Q35.128124 133.99791 35.846874 133.99791Q36.58125 133.99791 37.065624 133.29478Q37.565624 132.59166 37.565624 130.48228Q37.565624 128.35728 37.065624 127.669785Q36.58125 126.96666 35.83125 126.96666Q35.1125 126.96666 34.675 127.576035Q34.128124 128.35728 34.128124 130.48228Z" fill-rule="nonzero"/><path fill="#000000" d="M24.596874 91.26771L24.596874 92.28333L18.909374 92.28333Q18.909374 91.90833 19.034374 91.54896Q19.253124 90.97083 19.721874 90.40833Q20.20625 89.84583 21.1125 89.11146Q22.51875 87.95521 23.003124 87.28333Q23.503124 86.61146 23.503124 86.01771Q23.503124 85.39271 23.05 84.97083Q22.596874 84.53333 21.878124 84.53333Q21.1125 84.53333 20.659374 84.98646Q20.20625 85.43958 20.190624 86.25208L19.1125 86.14271Q19.221874 84.92396 19.940624 84.29896Q20.675 83.65833 21.909374 83.65833Q23.14375 83.65833 23.8625 84.34583Q24.58125 85.03333 24.58125 86.04896Q24.58125 86.56458 24.3625 87.06458Q24.159374 87.54896 23.659374 88.11146Q23.175 88.65833 22.05 89.61146Q21.096874 90.40833 20.815624 90.70521Q20.55 90.98646 20.378124 91.26771L24.596874 91.26771ZM26.05 90.03333L27.159374 89.93958Q27.284374 90.75208 27.721874 91.15833Q28.175 91.56458 28.815624 91.56458Q29.565624 91.56458 30.096874 90.98646Q30.628124 90.40833 30.628124 89.47083Q30.628124 88.56458 30.1125 88.04896Q29.6125 87.51771 28.784374 87.51771Q28.284374 87.51771 27.8625 87.75208Q27.45625 87.98646 27.221874 88.34583L26.2375 88.22083L27.065624 83.81458L31.346874 83.81458L31.346874 84.81458L27.909374 84.81458L27.45625 87.12708Q28.221874 86.58021 29.065624 86.58021Q30.190624 86.58021 30.95625 87.36146Q31.7375 88.14271 31.7375 89.37708Q31.7375 90.53333 31.065624 91.39271Q30.2375 92.42396 28.815624 92.42396Q27.64375 92.42396 26.89375 91.76771Q26.159374 91.11146 26.05 90.03333ZM33.05 88.04896Q33.05 86.51771 33.3625 85.59583Q33.675 84.65833 34.284374 84.15833Q34.909374 83.65833 35.846874 83.65833Q36.534374 83.65833 37.05 83.93958Q37.58125 84.22083 37.925 84.75208Q38.26875 85.26771 38.45625 86.01771Q38.64375 86.76771 38.64375 88.04896Q38.64375 89.56458 38.33125 90.48646Q38.034374 91.40833 37.409374 91.92396Q36.8 92.42396 35.846874 92.42396Q34.6125 92.42396 33.89375 91.53333Q33.05 90.47083 33.05 88.04896ZM34.128124 88.04896Q34.128124 90.15833 34.628124 90.86146Q35.128124 91.56458 35.846874 91.56458Q36.58125 91.56458 37.065624 90.86146Q37.565624 90.15833 37.565624 88.04896Q37.565624 85.92396 37.065624 85.23646Q36.58125 84.53333 35.83125 84.53333Q35.1125 84.53333 34.675 85.14271Q34.128124 85.92396 34.128124 88.04896Z" fill-rule="nonzero"/><path fill="#000000" d="M42.55 313.21564Q42.55 311.6844 42.8625 310.7625Q43.175 309.825 43.784374 309.325Q44.409374 308.825 45.346874 308.825Q46.034374 308.825 46.55 309.10626Q47.08125 309.3875 47.425 309.91876Q47.76875 310.4344 47.95625 311.1844Q48.14375 311.9344 48.14375 313.21564Q48.14375 314.73126 47.83125 315.65314Q47.534374 316.575 46.909374 317.09064Q46.3 317.59064 45.346874 317.59064Q44.1125 317.59064 43.39375 316.7Q42.55 315.6375 42.55 313.21564ZM43.628124 313.21564Q43.628124 315.325 44.128124 316.02814Q44.628124 316.73126 45.346874 316.73126Q46.08125 316.73126 46.565624 316.02814Q47.065624 315.325 47.065624 313.21564Q47.065624 311.09064 46.565624 310.40314Q46.08125 309.7 45.33125 309.7Q44.6125 309.7 44.175 310.3094Q43.628124 311.09064 43.628124 313.21564Z" fill-rule="nonzero"/><path fill="#000000" d="M235.16765 315.2L236.27702 315.10626Q236.40202 315.91876 236.83952 316.325Q237.29265 316.73126 237.93327 316.73126Q238.68327 316.73126 239.21452 316.15314Q239.74577 315.575 239.74577 314.6375Q239.74577 313.73126 239.23015 313.21564Q238.73015 312.6844 237.90202 312.6844Q237.40202 312.6844 236.98015 312.91876Q236.5739 313.15314 236.33952 313.5125L235.35515 313.3875L236.18327 308.98126L240.46452 308.98126L240.46452 309.98126L237.02702 309.98126L236.5739 312.29376Q237.33952 311.7469 238.18327 311.7469Q239.30827 311.7469 240.0739 312.52814Q240.85515 313.3094 240.85515 314.54376Q240.85515 315.7 240.18327 316.5594Q239.35515 317.59064 237.93327 317.59064Q236.7614 317.59064 236.0114 316.9344Q235.27702 316.27814 235.16765 315.2Z" fill-rule="nonzero"/><path fill="#000000" d="M428.25406 317.45L427.20718 317.45L427.20718 310.73126Q426.81656 311.09064 426.19156 311.46564Q425.58218 311.825 425.0978 311.9969L425.0978 310.98126Q425.9728 310.5594 426.62906 309.98126Q427.30093 309.3875 427.58218 308.825L428.25406 308.825L428.25406 317.45ZM431.2853 313.21564Q431.2853 311.6844 431.5978 310.7625Q431.9103 309.825 432.51968 309.325Q433.14468 308.825 434.08218 308.825Q434.76968 308.825 435.2853 309.10626Q435.81656 309.3875 436.1603 309.91876Q436.50406 310.4344 436.69156 311.1844Q436.87906 311.9344 436.87906 313.21564Q436.87906 314.73126 436.56656 315.65314Q436.26968 316.575 435.64468 317.09064Q435.0353 317.59064 434.08218 317.59064Q432.8478 317.59064 432.12906 316.7Q431.2853 315.6375 431.2853 313.21564ZM432.36343 313.21564Q432.36343 315.325 432.86343 316.02814Q433.36343 316.73126 434.08218 316.73126Q434.81656 316.73126 435.30093 316.02814Q435.80093 315.325 435.80093 313.21564Q435.80093 311.09064 435.30093 310.40314Q434.81656 309.7 434.06656 309.7Q433.3478 309.7 432.9103 310.3094Q432.36343 311.09064 432.36343 313.21564Z" fill-rule="nonzero"/><path fill="#000000" d="M620.8717 317.45L619.8248 317.45L619.8248 310.73126Q619.4342 311.09064 618.8092 311.46564Q618.1998 311.825 617.71545 311.9969L617.71545 310.98126Q618.59045 310.5594 619.2467 309.98126Q619.9186 309.3875 620.1998 308.825L620.8717 308.825L620.8717 317.45ZM623.90295 315.2L625.0123 315.10626Q625.1373 315.91876 625.5748 316.325Q626.02795 316.73126 626.6686 316.73126Q627.4186 316.73126 627.9498 316.15314Q628.4811 315.575 628.4811 314.6375Q628.4811 313.73126 627.96545 313.21564Q627.46545 312.6844 626.6373 312.6844Q626.1373 312.6844 625.71545 312.91876Q625.3092 313.15314 625.0748 313.5125L624.09045 313.3875L624.9186 308.98126L629.1998 308.98126L629.1998 309.98126L625.7623 309.98126L625.3092 312.29376Q626.0748 311.7469 626.9186 311.7469Q628.0436 311.7469 628.8092 312.52814Q629.59045 313.3094 629.59045 314.54376Q629.59045 315.7 628.9186 316.5594Q628.09045 317.59064 626.6686 317.59064Q625.4967 317.59064 624.7467 316.9344Q624.0123 316.27814 623.90295 315.2Z" fill-rule="nonzero"/><path fill="#4285f4" d="M264.5 56.916668C264.5 56.364384 264.94772 55.916668 265.5 55.916668L275.5 55.916668C276.05228 55.916668 276.5 56.364384 276.5 56.916668L276.5 66.916664C276.5 67.46895 276.05228 67.916664 275.5 67.916664L265.5 67.916664C264.94772 67.916664 264.5 67.46895 264.5 66.916664Z" fill-rule="nonzero"/><path fill="#1a1a1a" d="M285.54688 65.916664L285.54688 60.510414L284.60938 60.510414L284.60938 59.697914L285.54688 59.697914L285.54688 59.02604Q285.54688 58.40104 285.65625 58.104164Q285.8125 57.68229 286.1875 57.43229Q286.57812 57.18229 287.26562 57.18229Q287.71875 57.18229 288.25 57.291664L288.09375 58.197914Q287.76562 58.15104 287.46875 58.15104Q286.98438 58.15104 286.78125 58.354164Q286.59375 58.55729 286.59375 59.11979L286.59375 59.697914L287.8125 59.697914L287.8125 60.510414L286.59375 60.510414L286.59375 65.916664L285.54688 65.916664ZM287.90625 62.80729Q287.90625 61.072914 288.85938 60.24479Q289.65625 59.55729 290.8125 59.55729Q292.09375 59.55729 292.90625 60.40104Q293.73438 61.229164 293.73438 62.71354Q293.73438 63.916664 293.375 64.604164Q293.01562 65.291664 292.3125 65.68229Q291.625 66.05729 290.8125 66.05729Q289.51562 66.05729 288.70312 65.229164Q287.90625 64.385414 287.90625 62.80729ZM288.98438 62.80729Q288.98438 63.99479 289.5 64.58854Q290.03125 65.18229 290.8125 65.18229Q291.60938 65.18229 292.125 64.58854Q292.64062 63.99479 292.64062 62.77604Q292.64062 61.61979 292.10938 61.02604Q291.59375 60.43229 290.8125 60.43229Q290.03125 60.43229 289.5 61.02604Q288.98438 61.604164 288.98438 62.80729ZM295.28125 65.916664L295.28125 59.697914L296.23438 59.697914L296.23438 60.635414Q296.59375 59.979164 296.89062 59.77604Q297.20312 59.55729 297.57812 59.55729Q298.10938 59.55729 298.65625 59.885414L298.29688 60.86979Q297.90625 60.635414 297.53125 60.635414Q297.17188 60.635414 296.89062 60.854164Q296.625 61.05729 296.51562 61.43229Q296.32812 61.99479 296.32812 62.65104L296.32812 65.916664L295.28125 65.916664ZM303.54688 63.916664L304.64062 64.041664Q304.39062 64.99479 303.6875 65.52604Q302.98438 66.05729 301.90625 66.05729Q300.54688 66.05729 299.73438 65.21354Q298.9375 64.36979 298.9375 62.854164Q298.9375 61.291664 299.75 60.43229Q300.5625 59.55729 301.84375 59.55729Q303.09375 59.55729 303.875 60.40104Q304.67188 61.24479 304.67188 62.791664Q304.67188 62.885414 304.67188 63.072914L300.03125 63.072914Q300.09375 64.104164 300.60938 64.65104Q301.125 65.18229 301.90625 65.18229Q302.48438 65.18229 302.89062 64.885414Q303.3125 64.572914 303.54688 63.916664ZM300.09375 62.21354L303.5625 62.21354Q303.5 61.416664 303.17188 61.02604Q302.65625 60.416664 301.85938 60.416664Q301.125 60.416664 300.625 60.90104Q300.14062 61.385414 300.09375 62.21354ZM305.875 64.05729L306.90625 63.90104Q307.0 64.52604 307.39062 64.854164Q307.79688 65.18229 308.53125 65.18229Q309.25 65.18229 309.59375 64.90104Q309.95312 64.604164 309.95312 64.197914Q309.95312 63.83854 309.64062 63.635414Q309.42188 63.49479 308.5625 63.27604Q307.40625 62.979164 306.95312 62.77604Q306.51562 62.55729 306.28125 62.18229Q306.04688 61.80729 306.04688 61.33854Q306.04688 60.93229 306.23438 60.572914Q306.42188 60.21354 306.75 59.979164Q307.0 59.80729 307.42188 59.68229Q307.84375 59.55729 308.34375 59.55729Q309.0625 59.55729 309.60938 59.77604Q310.17188 59.979164 310.4375 60.33854Q310.70312 60.697914 310.79688 61.291664L309.76562 61.43229Q309.70312 60.96354 309.35938 60.697914Q309.03125 60.416664 308.40625 60.416664Q307.6875 60.416664 307.375 60.666664Q307.0625 60.90104 307.0625 61.229164Q307.0625 61.43229 307.1875 61.58854Q307.32812 61.760414 307.59375 61.86979Q307.75 61.93229 308.53125 62.135414Q309.65625 62.447914 310.09375 62.635414Q310.53125 62.822914 310.78125 63.18229Q311.03125 63.541664 311.03125 64.08854Q311.03125 64.61979 310.71875 65.08854Q310.42188 65.541664 309.84375 65.80729Q309.26562 66.05729 308.53125 66.05729Q307.3125 66.05729 306.67188 65.55729Q306.04688 65.041664 305.875 64.05729ZM314.59375 64.979164L314.75 65.90104Q314.29688 65.99479 313.95312 65.99479Q313.375 65.99479 313.0625 65.822914Q312.75 65.635414 312.60938 65.33854Q312.48438 65.041664 312.48438 64.08854L312.48438 60.510414L311.71875 60.510414L311.71875 59.697914L312.48438 59.697914L312.48438 58.15104L313.53125 57.52604L313.53125 59.697914L314.59375 59.697914L314.59375 60.510414L313.53125 60.510414L313.53125 64.15104Q313.53125 64.604164 313.57812 64.729164Q313.64062 64.854164 313.76562 64.93229Q313.89062 65.010414 314.125 65.010414Q314.3125 65.010414 314.59375 64.979164ZM317.875 64.05729L318.90625 63.90104Q319.0 64.52604 319.39062 64.854164Q319.79688 65.18229 320.53125 65.18229Q321.25 65.18229 321.59375 64.90104Q321.95312 64.604164 321.95312 64.197914Q321.95312 63.83854 321.64062 63.635414Q321.42188 63.49479 320.5625 63.27604Q319.40625 62.979164 318.95312 62.77604Q318.51562 62.55729 318.28125 62.18229Q318.04688 61.80729 318.04688 61.33854Q318.04688 60.93229 318.23438 60.572914Q318.42188 60.21354 318.75 59.979164Q319.0 59.80729 319.42188 59.68229Q319.84375 59.55729 320.34375 59.55729Q321.0625 59.55729 321.60938 59.77604Q322.17188 59.979164 322.4375 60.33854Q322.70312 60.697914 322.79688 61.291664L321.76562 61.43229Q321.70312 60.96354 321.35938 60.697914Q321.03125 60.416664 320.40625 60.416664Q319.6875 60.416664 319.375 60.666664Q319.0625 60.90104 319.0625 61.229164Q319.0625 61.43229 319.1875 61.58854Q319.32812 61.760414 319.59375 61.86979Q319.75 61.93229 320.53125 62.135414Q321.65625 62.447914 322.09375 62.635414Q322.53125 62.822914 322.78125 63.18229Q323.03125 63.541664 323.03125 64.08854Q323.03125 64.61979 322.71875 65.08854Q322.42188 65.541664 321.84375 65.80729Q321.26562 66.05729 320.53125 66.05729Q319.3125 66.05729 318.67188 65.55729Q318.04688 65.041664 317.875 64.05729ZM324.29688 58.541664L324.29688 57.322914L325.35938 57.322914L325.35938 58.541664L324.29688 58.541664ZM324.29688 65.916664L324.29688 59.697914L325.35938 59.697914L325.35938 65.916664L324.29688 65.916664ZM326.73438 65.916664L326.73438 65.05729L330.70312 60.510414Q330.01562 60.541664 329.5 60.541664L326.96875 60.541664L326.96875 59.697914L332.0625 59.697914L332.0625 60.385414L328.6875 64.33854L328.03125 65.05729Q328.75 65.010414 329.35938 65.010414L332.25 65.010414L332.25 65.916664L326.73438 65.916664ZM337.54688 63.916664L338.64062 64.041664Q338.39062 64.99479 337.6875 65.52604Q336.98438 66.05729 335.90625 66.05729Q334.54688 66.05729 333.73438 65.21354Q332.9375 64.36979 332.9375 62.854164Q332.9375 61.291664 333.75 60.43229Q334.5625 59.55729 335.84375 59.55729Q337.09375 59.55729 337.875 60.40104Q338.67188 61.24479 338.67188 62.791664Q338.67188 62.885414 338.67188 63.072914L334.03125 63.072914Q334.09375 64.104164 334.60938 64.65104Q335.125 65.18229 335.90625 65.18229Q336.48438 65.18229 336.89062 64.885414Q337.3125 64.572914 337.54688 63.916664ZM334.09375 62.21354L337.5625 62.21354Q337.5 61.416664 337.17188 61.02604Q336.65625 60.416664 335.85938 60.416664Q335.125 60.416664 334.625 60.90104Q334.14062 61.385414 334.09375 62.21354Z" fill-rule="nonzero"/><path fill="#ea4335" d="M355.5 56.916668C355.5 56.364384 355.94772 55.916668 356.5 55.916668L366.5 55.916668C367.05228 55.916668 367.5 56.364384 367.5 56.916668L367.5 66.916664C367.5 67.46895 367.05228 67.916664 366.5 67.916664L356.5 67.916664C355.94772 67.916664 355.5 67.46895 355.5 66.916664Z" fill-rule="nonzero"/><path fill="#1a1a1a" d="M376.09375 66.43229L377.125 66.58854Q377.1875 67.05729 377.48438 67.27604Q377.875 67.572914 378.54688 67.572914Q379.28125 67.572914 379.67188 67.27604Q380.07812 66.979164 380.21875 66.46354Q380.3125 66.135414 380.29688 65.104164Q379.60938 65.916664 378.57812 65.916664Q377.29688 65.916664 376.59375 64.99479Q375.89062 64.05729 375.89062 62.77604Q375.89062 61.885414 376.20312 61.135414Q376.53125 60.36979 377.14062 59.96354Q377.75 59.55729 378.57812 59.55729Q379.6875 59.55729 380.40625 60.447914L380.40625 59.697914L381.375 59.697914L381.375 65.072914Q381.375 66.52604 381.07812 67.135414Q380.78125 67.74479 380.14062 68.08854Q379.5 68.447914 378.5625 68.447914Q377.45312 68.447914 376.76562 67.947914Q376.07812 67.447914 376.09375 66.43229ZM376.96875 62.697914Q376.96875 63.916664 377.45312 64.479164Q377.9375 65.041664 378.67188 65.041664Q379.40625 65.041664 379.89062 64.479164Q380.39062 63.916664 380.39062 62.729164Q380.39062 61.58854 379.875 61.010414Q379.375 60.43229 378.65625 60.43229Q377.95312 60.43229 377.45312 61.010414Q376.96875 61.572914 376.96875 62.697914ZM383.28125 65.916664L383.28125 59.697914L384.23438 59.697914L384.23438 60.635414Q384.59375 59.979164 384.89062 59.77604Q385.20312 59.55729 385.57812 59.55729Q386.10938 59.55729 386.65625 59.885414L386.29688 60.86979Q385.90625 60.635414 385.53125 60.635414Q385.17188 60.635414 384.89062 60.854164Q384.625 61.05729 384.51562 61.43229Q384.32812 61.99479 384.32812 62.65104L384.32812 65.916664L383.28125 65.916664ZM391.54688 63.916664L392.64062 64.041664Q392.39062 64.99479 391.6875 65.52604Q390.98438 66.05729 389.90625 66.05729Q388.54688 66.05729 387.73438 65.21354Q386.9375 64.36979 386.9375 62.854164Q386.9375 61.291664 387.75 60.43229Q388.5625 59.55729 389.84375 59.55729Q391.09375 59.55729 391.875 60.40104Q392.67188 61.24479 392.67188 62.791664Q392.67188 62.885414 392.67188 63.072914L388.03125 63.072914Q388.09375 64.104164 388.60938 64.65104Q389.125 65.18229 389.90625 65.18229Q390.48438 65.18229 390.89062 64.885414Q391.3125 64.572914 391.54688 63.916664ZM388.09375 62.21354L391.5625 62.21354Q391.5 61.416664 391.17188 61.02604Q390.65625 60.416664 389.85938 60.416664Q389.125 60.416664 388.625 60.90104Q388.14062 61.385414 388.09375 62.21354ZM395.4375 65.916664L393.53125 59.697914L394.625 59.697914L395.60938 63.291664L395.98438 64.61979Q396.01562 64.52604 396.3125 63.33854L397.29688 59.697914L398.375 59.697914L399.3125 63.30729L399.625 64.49479L399.98438 63.291664L401.04688 59.697914L402.07812 59.697914L400.125 65.916664L399.03125 65.916664L398.04688 62.18229L397.79688 61.135414L396.54688 65.916664L395.4375 65.916664Z" fill-rule="nonzero"/><path fill="#fbbc04" d="M418.5 56.916668C418.5 56.364384 418.94772 55.916668 419.5 55.916668L429.5 55.916668C430.05228 55.916668 430.5 56.364384 430.5 56.916668L430.5 66.916664C430.5 67.46895 430.05228 67.916664 429.5 67.916664L419.5 67.916664C418.94772 67.916664 418.5 67.46895 418.5 66.916664Z" fill-rule="nonzero"/><path fill="#1a1a1a" d="M443.35938 63.635414L444.39062 63.77604Q444.21875 64.83854 443.51562 65.447914Q442.8125 66.05729 441.79688 66.05729Q440.51562 66.05729 439.73438 65.229164Q438.96875 64.385414 438.96875 62.822914Q438.96875 61.822914 439.29688 61.072914Q439.64062 60.30729 440.3125 59.93229Q441.0 59.55729 441.8125 59.55729Q442.8125 59.55729 443.45312 60.072914Q444.10938 60.572914 444.29688 61.52604L443.26562 61.68229Q443.125 61.05729 442.75 60.74479Q442.375 60.416664 441.84375 60.416664Q441.04688 60.416664 440.54688 60.99479Q440.04688 61.55729 440.04688 62.791664Q440.04688 64.05729 440.53125 64.61979Q441.01562 65.18229 441.78125 65.18229Q442.40625 65.18229 442.8125 64.80729Q443.23438 64.43229 443.35938 63.635414ZM449.375 65.916664L449.375 64.99479Q448.64062 66.05729 447.39062 66.05729Q446.84375 66.05729 446.35938 65.854164Q445.89062 65.635414 445.65625 65.322914Q445.42188 64.99479 445.32812 64.52604Q445.26562 64.229164 445.26562 63.541664L445.26562 59.697914L446.32812 59.697914L446.32812 63.15104Q446.32812 63.96354 446.39062 64.260414Q446.48438 64.666664 446.79688 64.916664Q447.125 65.15104 447.60938 65.15104Q448.07812 65.15104 448.48438 64.916664Q448.90625 64.666664 449.07812 64.24479Q449.26562 63.822914 449.26562 63.02604L449.26562 59.697914L450.3125 59.697914L450.3125 65.916664L449.375 65.916664ZM454.59375 64.979164L454.75 65.90104Q454.29688 65.99479 453.95312 65.99479Q453.375 65.99479 453.0625 65.822914Q452.75 65.635414 452.60938 65.33854Q452.48438 65.041664 452.48438 64.08854L452.48438 60.510414L451.71875 60.510414L451.71875 59.697914L452.48438 59.697914L452.48438 58.15104L453.53125 57.52604L453.53125 59.697914L454.59375 59.697914L454.59375 60.510414L453.53125 60.510414L453.53125 64.15104Q453.53125 64.604164 453.57812 64.729164Q453.64062 64.854164 453.76562 64.93229Q453.89062 65.010414 454.125 65.010414Q454.3125 65.010414 454.59375 64.979164Z" fill-rule="nonzero"/><path fill="#757575" d="M20.01875 37.55L20.01875 23.2375L25.39375 23.2375Q27.034374 23.2375 28.01875 23.675Q29.003124 24.096874 29.565624 25.003124Q30.128124 25.909374 30.128124 26.89375Q30.128124 27.815624 29.628124 28.628124Q29.14375 29.440624 28.128124 29.925Q29.425 30.315624 30.128124 31.2375Q30.83125 32.14375 30.83125 33.39375Q30.83125 34.409374 30.39375 35.26875Q29.971874 36.128124 29.346874 36.596874Q28.721874 37.065624 27.784374 37.315624Q26.846874 37.55 25.471874 37.55L20.01875 37.55ZM21.909374 29.253124L25.003124 29.253124Q26.26875 29.253124 26.815624 29.08125Q27.534374 28.8625 27.89375 28.378124Q28.26875 27.878124 28.26875 27.1125Q28.26875 26.409374 27.925 25.8625Q27.58125 25.315624 26.940624 25.128124Q26.315624 24.925 24.76875 24.925L21.909374 24.925L21.909374 29.253124ZM21.909374 35.8625L25.471874 35.8625Q26.39375 35.8625 26.76875 35.784374Q27.425 35.675 27.8625 35.409374Q28.3 35.128124 28.58125 34.6125Q28.8625 34.08125 28.8625 33.39375Q28.8625 32.596874 28.45625 32.003124Q28.05 31.409374 27.315624 31.175Q26.58125 30.940624 25.221874 30.940624L21.909374 30.940624L21.909374 35.8625ZM39.971874 34.20625L41.784374 34.440624Q41.3625 36.01875 40.190624 36.909374Q39.034374 37.784374 37.221874 37.784374Q34.95625 37.784374 33.6125 36.39375Q32.284374 34.9875 32.284374 32.45625Q32.284374 29.83125 33.628124 28.39375Q34.971874 26.940624 37.128124 26.940624Q39.20625 26.940624 40.51875 28.3625Q41.846874 29.76875 41.846874 32.346874Q41.846874 32.503124 41.83125 32.815624L34.096874 32.815624Q34.190624 34.51875 35.065624 35.425Q35.940624 36.33125 37.2375 36.33125Q38.20625 36.33125 38.878124 35.83125Q39.565624 35.315624 39.971874 34.20625ZM34.190624 31.3625L39.9875 31.3625Q39.878124 30.065624 39.33125 29.409374Q38.4875 28.39375 37.14375 28.39375Q35.940624 28.39375 35.1125 29.20625Q34.284374 30.003124 34.190624 31.3625ZM44.284374 37.55L44.284374 28.55L42.7375 28.55L42.7375 27.175L44.284374 27.175L44.284374 26.08125Q44.284374 25.034374 44.471874 24.51875Q44.721874 23.83125 45.3625 23.409374Q46.003124 22.9875 47.159374 22.9875Q47.909374 22.9875 48.8 23.159374L48.534374 24.690624Q47.9875 24.596874 47.503124 24.596874Q46.70625 24.596874 46.3625 24.940624Q46.034374 25.284374 46.034374 26.221874L46.034374 27.175L48.065624 27.175L48.065624 28.55L46.034374 28.55L46.034374 37.55L44.284374 37.55ZM49.221874 32.3625Q49.221874 29.4875 50.815624 28.096874Q52.159374 26.940624 54.08125 26.940624Q56.221874 26.940624 57.565624 28.346874Q58.925 29.753124 58.925 32.221874Q58.925 34.221874 58.33125 35.378124Q57.7375 36.51875 56.58125 37.159374Q55.440624 37.784374 54.08125 37.784374Q51.89375 37.784374 50.55 36.39375Q49.221874 34.9875 49.221874 32.3625ZM51.01875 32.3625Q51.01875 34.3625 51.878124 35.346874Q52.753124 36.33125 54.08125 36.33125Q55.39375 36.33125 56.253124 35.346874Q57.128124 34.346874 57.128124 32.3Q57.128124 30.378124 56.253124 29.39375Q55.378124 28.39375 54.08125 28.39375Q52.753124 28.39375 51.878124 29.39375Q51.01875 30.378124 51.01875 32.3625ZM60.846874 37.55L60.846874 27.175L62.425 27.175L62.425 28.753124Q63.034374 27.64375 63.55 27.3Q64.06563 26.940624 64.675 26.940624Q65.56563 26.940624 66.4875 27.503124L65.87813 29.14375Q65.2375 28.753124 64.59688 28.753124Q64.01875 28.753124 63.55 29.1125Q63.096874 29.45625 62.89375 30.065624Q62.6125 31.003124 62.6125 32.1125L62.6125 37.55L60.846874 37.55ZM74.97188 34.20625L76.78438 34.440624Q76.3625 36.01875 75.19063 36.909374Q74.03438 37.784374 72.22188 37.784374Q69.95625 37.784374 68.6125 36.39375Q67.28438 34.9875 67.28438 32.45625Q67.28438 29.83125 68.62813 28.39375Q69.97188 26.940624 72.12813 26.940624Q74.20625 26.940624 75.51875 28.3625Q76.84688 29.76875 76.84688 32.346874Q76.84688 32.503124 76.83125 32.815624L69.09688 32.815624Q69.19063 34.51875 70.06563 35.425Q70.94063 36.33125 72.2375 36.33125Q73.20625 36.33125 73.87813 35.83125Q74.56563 35.315624 74.97188 34.20625ZM69.19063 31.3625L74.9875 31.3625Q74.87813 30.065624 74.33125 29.409374Q73.4875 28.39375 72.14375 28.39375Q70.94063 28.39375 70.1125 29.20625Q69.28438 30.003124 69.19063 31.3625ZM85.28438 37.55L85.28438 28.55L83.7375 28.55L83.7375 27.175L85.28438 27.175L85.28438 26.08125Q85.28438 25.034374 85.47188 24.51875Q85.72188 23.83125 86.3625 23.409374Q87.00313 22.9875 88.15938 22.9875Q88.90938 22.9875 89.8 23.159374L89.53438 24.690624Q88.9875 24.596874 88.50313 24.596874Q87.70625 24.596874 87.3625 24.940624Q87.03438 25.284374 87.03438 26.221874L87.03438 27.175L89.06563 27.175L89.06563 28.55L87.03438 28.55L87.03438 37.55L85.28438 37.55ZM90.87813 25.253124L90.87813 23.2375L92.64375 23.2375L92.64375 25.253124L90.87813 25.253124ZM90.87813 37.55L90.87813 27.175L92.64375 27.175L92.64375 37.55L90.87813 37.55ZM94.84688 37.55L94.84688 27.175L96.425 27.175L96.425 28.753124Q97.03438 27.64375 97.55 27.3Q98.06563 26.940624 98.675 26.940624Q99.56563 26.940624 100.4875 27.503124L99.87813 29.14375Q99.2375 28.753124 98.59688 28.753124Q98.01875 28.753124 97.55 29.1125Q97.09688 29.45625 96.89375 30.065624Q96.6125 31.003124 96.6125 32.1125L96.6125 37.55L94.84688 37.55ZM108.97188 34.20625L110.78438 34.440624Q110.3625 36.01875 109.19063 36.909374Q108.03438 37.784374 106.22188 37.784374Q103.95625 37.784374 102.6125 36.39375Q101.28438 34.9875 101.28438 32.45625Q101.28438 29.83125 102.62813 28.39375Q103.97188 26.940624 106.12813 26.940624Q108.20625 26.940624 109.51875 28.3625Q110.84688 29.76875 110.84688 32.346874Q110.84688 32.503124 110.83125 32.815624L103.09688 32.815624Q103.19063 34.51875 104.06563 35.425Q104.94063 36.33125 106.2375 36.33125Q107.20625 36.33125 107.87813 35.83125Q108.56563 35.315624 108.97188 34.20625ZM103.19063 31.3625L108.9875 31.3625Q108.87813 30.065624 108.33125 29.409374Q107.4875 28.39375 106.14375 28.39375Q104.94063 28.39375 104.1125 29.20625Q103.28438 30.003124 103.19063 31.3625ZM128.1125 29.128124L118.65938 29.128124L118.65938 27.4875L128.1125 27.4875L128.1125 29.128124ZM128.1125 33.471874L118.65938 33.471874L118.65938 31.83125L128.1125 31.83125L128.1125 33.471874ZM145.6125 35.8625L145.6125 37.55L136.15938 37.55Q136.14375 36.909374 136.3625 36.33125Q136.72188 35.3625 137.51875 34.425Q138.31563 33.4875 139.81563 32.253124Q142.15938 30.346874 142.97188 29.2375Q143.8 28.1125 143.8 27.1125Q143.8 26.065624 143.05 25.346874Q142.3 24.628124 141.09688 24.628124Q139.83125 24.628124 139.06563 25.39375Q138.3 26.159374 138.3 27.503124L136.4875 27.315624Q136.675 25.3 137.87813 24.2375Q139.09688 23.175 141.14375 23.175Q143.19063 23.175 144.39375 24.315624Q145.59688 25.45625 145.59688 27.14375Q145.59688 28.003124 145.2375 28.846874Q144.89375 29.675 144.08125 30.596874Q143.26875 31.503124 141.37813 33.1125Q139.78438 34.440624 139.33125 34.909374Q138.89375 35.378124 138.59688 35.8625L145.6125 35.8625ZM147.37813 30.4875Q147.37813 27.95625 147.89375 26.409374Q148.425 24.846874 149.45625 24.01875Q150.4875 23.175 152.05 23.175Q153.20625 23.175 154.06563 23.64375Q154.94063 24.096874 155.50313 24.971874Q156.06563 25.846874 156.39375 27.1125Q156.72188 28.3625 156.72188 30.4875Q156.72188 33.003124 156.19063 34.55Q155.675 36.096874 154.64375 36.95625Q153.62813 37.8 152.05 37.8Q149.97188 37.8 148.8 36.315624Q147.37813 34.51875 147.37813 30.4875ZM149.19063 30.4875Q149.19063 34.01875 150.00313 35.190624Q150.83125 36.346874 152.05 36.346874Q153.25313 36.346874 154.08125 35.175Q154.90938 34.003124 154.90938 30.4875Q154.90938 26.95625 154.08125 25.8Q153.25313 24.628124 152.03438 24.628124Q150.81563 24.628124 150.09688 25.659374Q149.19063 26.95625 149.19063 30.4875ZM158.37813 30.4875Q158.37813 27.95625 158.89375 26.409374Q159.425 24.846874 160.45625 24.01875Q161.4875 23.175 163.05 23.175Q164.20625 23.175 165.06563 23.64375Q165.94063 24.096874 166.50313 24.971874Q167.06563 25.846874 167.39375 27.1125Q167.72188 28.3625 167.72188 30.4875Q167.72188 33.003124 167.19063 34.55Q166.675 36.096874 165.64375 36.95625Q164.62813 37.8 163.05 37.8Q160.97188 37.8 159.8 36.315624Q158.37813 34.51875 158.37813 30.4875ZM160.19063 30.4875Q160.19063 34.01875 161.00313 35.190624Q161.83125 36.346874 163.05 36.346874Q164.25313 36.346874 165.08125 35.175Q165.90938 34.003124 165.90938 30.4875Q165.90938 26.95625 165.08125 25.8Q164.25313 24.628124 163.03438 24.628124Q161.81563 24.628124 161.09688 25.659374Q160.19063 26.95625 160.19063 30.4875ZM179.70625 35.971874L179.95625 37.534374Q179.22188 37.690624 178.62813 37.690624Q177.675 37.690624 177.14375 37.39375Q176.62813 37.08125 176.40938 36.596874Q176.19063 36.096874 176.19063 34.51875L176.19063 28.55L174.90938 28.55L174.90938 27.175L176.19063 27.175L176.19063 24.6125L177.94063 23.55L177.94063 27.175L179.70625 27.175L179.70625 28.55L177.94063 28.55L177.94063 34.6125Q177.94063 35.3625 178.03438 35.58125Q178.12813 35.784374 178.33125 35.925Q178.55 36.05 178.94063 36.05Q179.22188 36.05 179.70625 35.971874ZM181.84688 37.55L181.84688 27.175L183.425 27.175L183.425 28.753124Q184.03438 27.64375 184.55 27.3Q185.06563 26.940624 185.675 26.940624Q186.56563 26.940624 187.4875 27.503124L186.87813 29.14375Q186.2375 28.753124 185.59688 28.753124Q185.01875 28.753124 184.55 29.1125Q184.09688 29.45625 183.89375 30.065624Q183.6125 31.003124 183.6125 32.1125L183.6125 37.55L181.84688 37.55ZM195.97188 34.20625L197.78438 34.440624Q197.3625 36.01875 196.19063 36.909374Q195.03438 37.784374 193.22188 37.784374Q190.95625 37.784374 189.6125 36.39375Q188.28438 34.9875 188.28438 32.45625Q188.28438 29.83125 189.62813 28.39375Q190.97188 26.940624 193.12813 26.940624Q195.20625 26.940624 196.51875 28.3625Q197.84688 29.76875 197.84688 32.346874Q197.84688 32.503124 197.83125 32.815624L190.09688 32.815624Q190.19063 34.51875 191.06563 35.425Q191.94063 36.33125 193.2375 36.33125Q194.20625 36.33125 194.87813 35.83125Q195.56563 35.315624 195.97188 34.20625ZM190.19063 31.3625L195.9875 31.3625Q195.87813 30.065624 195.33125 29.409374Q194.4875 28.39375 193.14375 28.39375Q191.94063 28.39375 191.1125 29.20625Q190.28438 30.003124 190.19063 31.3625ZM206.97188 34.20625L208.78438 34.440624Q208.3625 36.01875 207.19063 36.909374Q206.03438 37.784374 204.22188 37.784374Q201.95625 37.784374 200.6125 36.39375Q199.28438 34.9875 199.28438 32.45625Q199.28438 29.83125 200.62813 28.39375Q201.97188 26.940624 204.12813 26.940624Q206.20625 26.940624 207.51875 28.3625Q208.84688 29.76875 208.84688 32.346874Q208.84688 32.503124 208.83125 32.815624L201.09688 32.815624Q201.19063 34.51875 202.06563 35.425Q202.94063 36.33125 204.2375 36.33125Q205.20625 36.33125 205.87813 35.83125Q206.56563 35.315624 206.97188 34.20625ZM201.19063 31.3625L206.9875 31.3625Q206.87813 30.065624 206.33125 29.409374Q205.4875 28.39375 204.14375 28.39375Q202.94063 28.39375 202.1125 29.20625Q201.28438 30.003124 201.19063 31.3625ZM210.15938 34.45625L211.90938 34.175Q212.05 35.221874 212.72188 35.784374Q213.39375 36.33125 214.59688 36.33125Q215.8 36.33125 216.37813 35.846874Q216.97188 35.346874 216.97188 34.690624Q216.97188 34.096874 216.45625 33.753124Q216.09688 33.51875 214.65938 33.159374Q212.72188 32.659374 211.97188 32.315624Q211.2375 31.95625 210.84688 31.33125Q210.45625 30.690624 210.45625 29.925Q210.45625 29.2375 210.76875 28.64375Q211.09688 28.05 211.64375 27.659374Q212.05 27.3625 212.75313 27.159374Q213.47188 26.940624 214.28438 26.940624Q215.50313 26.940624 216.425 27.3Q217.34688 27.64375 217.78438 28.253124Q218.22188 28.846874 218.39375 29.846874L216.675 30.08125Q216.55 29.284374 215.9875 28.846874Q215.425 28.39375 214.40938 28.39375Q213.19063 28.39375 212.675 28.8Q212.15938 29.190624 212.15938 29.721874Q212.15938 30.065624 212.37813 30.346874Q212.58125 30.628124 213.05 30.815624Q213.31563 30.909374 214.59688 31.253124Q216.47188 31.753124 217.20625 32.08125Q217.94063 32.39375 218.3625 33.003124Q218.78438 33.596874 218.78438 34.503124Q218.78438 35.378124 218.26875 36.159374Q217.75313 36.940624 216.78438 37.3625Q215.81563 37.784374 214.59688 37.784374Q212.58125 37.784374 211.51875 36.940624Q210.45625 36.096874 210.15938 34.45625ZM221.33125 37.55L221.33125 35.55L223.33125 35.55L223.33125 37.55Q223.33125 38.659374 222.94063 39.33125Q222.55 40.01875 221.70625 40.378124L221.20625 39.628124Q221.76875 39.39375 222.03438 38.909374Q222.3 38.440624 222.33125 37.55L221.33125 37.55ZM233.19063 37.55L233.19063 23.2375L242.84688 23.2375L242.84688 24.925L235.08125 24.925L235.08125 29.3625L241.8 29.3625L241.8 31.05L235.08125 31.05L235.08125 37.55L233.19063 37.55ZM244.87813 25.253124L244.87813 23.2375L246.64375 23.2375L246.64375 25.253124L244.87813 25.253124ZM244.87813 37.55L244.87813 27.175L246.64375 27.175L246.64375 37.55L244.87813 37.55ZM248.84688 37.55L248.84688 27.175L250.425 27.175L250.425 28.753124Q251.03438 27.64375 251.55 27.3Q252.06563 26.940624 252.675 26.940624Q253.56563 26.940624 254.4875 27.503124L253.87813 29.14375Q253.2375 28.753124 252.59688 28.753124Q252.01875 28.753124 251.55 29.1125Q251.09688 29.45625 250.89375 30.065624Q250.6125 31.003124 250.6125 32.1125L250.6125 37.55L248.84688 37.55ZM262.97186 34.20625L264.78436 34.440624Q264.3625 36.01875 263.1906 36.909374Q262.03436 37.784374 260.22186 37.784374Q257.95624 37.784374 256.6125 36.39375Q255.28438 34.9875 255.28438 32.45625Q255.28438 29.83125 256.6281 28.39375Q257.97186 26.940624 260.1281 26.940624Q262.20624 26.940624 263.51874 28.3625Q264.84686 29.76875 264.84686 32.346874Q264.84686 32.503124 264.83124 32.815624L257.09686 32.815624Q257.1906 34.51875 258.0656 35.425Q258.9406 36.33125 260.2375 36.33125Q261.20624 36.33125 261.8781 35.83125Q262.5656 35.315624 262.97186 34.20625ZM257.1906 31.3625L262.9875 31.3625Q262.8781 30.065624 262.33124 29.409374Q261.4875 28.39375 260.14374 28.39375Q258.9406 28.39375 258.1125 29.20625Q257.28436 30.003124 257.1906 31.3625ZM282.1125 29.128124L272.65936 29.128124L272.65936 27.4875L282.1125 27.4875L282.1125 29.128124ZM282.1125 33.471874L272.65936 33.471874L272.65936 31.83125L282.1125 31.83125L282.1125 33.471874ZM290.39374 33.76875L292.14374 33.534374Q292.45624 35.034374 293.175 35.690624Q293.90936 36.346874 294.95624 36.346874Q296.1906 36.346874 297.03436 35.4875Q297.89374 34.628124 297.89374 33.3625Q297.89374 32.14375 297.09686 31.3625Q296.3156 30.58125 295.09686 30.58125Q294.59686 30.58125 293.8625 30.76875L294.05 29.221874Q294.22186 29.253124 294.33124 29.253124Q295.45624 29.253124 296.34686 28.675Q297.2531 28.08125 297.2531 26.8625Q297.2531 25.89375 296.59686 25.253124Q295.9406 24.6125 294.90936 24.6125Q293.89374 24.6125 293.20624 25.26875Q292.51874 25.909374 292.33124 27.190624L290.5656 26.878124Q290.89374 25.1125 292.03436 24.14375Q293.175 23.175 294.8781 23.175Q296.05 23.175 297.03436 23.675Q298.01874 24.175 298.53436 25.05Q299.0656 25.925 299.0656 26.89375Q299.0656 27.815624 298.5656 28.58125Q298.0656 29.346874 297.09686 29.8Q298.3625 30.08125 299.0656 31.01875Q299.76874 31.940624 299.76874 33.315624Q299.76874 35.190624 298.39374 36.503124Q297.03436 37.8 294.9406 37.8Q293.05 37.8 291.8 36.675Q290.5656 35.55 290.39374 33.76875ZM301.3781 30.4875Q301.3781 27.95625 301.89374 26.409374Q302.425 24.846874 303.45624 24.01875Q304.4875 23.175 306.05 23.175Q307.20624 23.175 308.0656 23.64375Q308.9406 24.096874 309.5031 24.971874Q310.0656 25.846874 310.39374 27.1125Q310.72186 28.3625 310.72186 30.4875Q310.72186 33.003124 310.1906 34.55Q309.675 36.096874 308.64374 36.95625Q307.6281 37.8 306.05 37.8Q303.97186 37.8 302.8 36.315624Q301.3781 34.51875 301.3781 30.4875ZM303.1906 30.4875Q303.1906 34.01875 304.0031 35.190624Q304.83124 36.346874 306.05 36.346874Q307.2531 36.346874 308.08124 35.175Q308.90936 34.003124 308.90936 30.4875Q308.90936 26.95625 308.08124 25.8Q307.2531 24.628124 306.03436 24.628124Q304.8156 24.628124 304.09686 25.659374Q303.1906 26.95625 303.1906 30.4875ZM312.70624 26.675Q312.70624 25.14375 313.47186 24.065624Q314.2531 22.9875 315.72186 22.9875Q317.0656 22.9875 317.9406 23.95625Q318.83124 24.909374 318.83124 26.784374Q318.83124 28.596874 317.9406 29.58125Q317.05 30.55 315.7375 30.55Q314.4406 30.55 313.5656 29.596874Q312.70624 28.628124 312.70624 26.675ZM315.76874 24.20625Q315.1125 24.20625 314.675 24.76875Q314.2531 25.33125 314.2531 26.846874Q314.2531 28.221874 314.6906 28.784374Q315.1281 29.346874 315.76874 29.346874Q316.4406 29.346874 316.8625 28.784374Q317.3 28.20625 317.3 26.70625Q317.3 25.315624 316.8625 24.76875Q316.425 24.20625 315.76874 24.20625ZM315.78436 38.08125L323.6125 22.9875L325.03436 22.9875L317.2375 38.08125L315.78436 38.08125ZM321.97186 34.190624Q321.97186 32.64375 322.7375 31.58125Q323.51874 30.503124 324.9875 30.503124Q326.33124 30.503124 327.20624 31.471874Q328.09686 32.425 328.09686 34.3Q328.09686 36.1125 327.20624 37.096874Q326.3156 38.08125 325.0031 38.08125Q323.70624 38.08125 322.83124 37.1125Q321.97186 36.128124 321.97186 34.190624ZM325.03436 31.721874Q324.3781 31.721874 323.9406 32.284374Q323.5031 32.846874 323.5031 34.3625Q323.5031 35.7375 323.9406 36.3Q324.3781 36.8625 325.03436 36.8625Q325.70624 36.8625 326.1281 36.3Q326.5656 35.7375 326.5656 34.221874Q326.5656 32.846874 326.1281 32.284374Q325.6906 31.721874 325.03436 31.721874ZM343.59686 37.55L343.59686 36.2375Q342.6125 37.784374 340.6906 37.784374Q339.45624 37.784374 338.40936 37.096874Q337.3781 36.409374 336.8 35.190624Q336.2375 33.971874 336.2375 32.378124Q336.2375 30.815624 336.7531 29.55Q337.26874 28.284374 338.3 27.6125Q339.34686 26.940624 340.6125 26.940624Q341.55 26.940624 342.28436 27.346874Q343.01874 27.7375 343.4875 28.3625L343.4875 23.2375L345.22186 23.2375L345.22186 37.55L343.59686 37.55ZM338.03436 32.378124Q338.03436 34.3625 338.8781 35.346874Q339.72186 36.33125 340.8625 36.33125Q342.01874 36.33125 342.8156 35.39375Q343.6281 34.45625 343.6281 32.51875Q343.6281 30.39375 342.8 29.39375Q341.9875 28.39375 340.78436 28.39375Q339.6125 28.39375 338.8156 29.3625Q338.03436 30.315624 338.03436 32.378124ZM354.97186 34.20625L356.78436 34.440624Q356.3625 36.01875 355.1906 36.909374Q354.03436 37.784374 352.22186 37.784374Q349.95624 37.784374 348.6125 36.39375Q347.28436 34.9875 347.28436 32.45625Q347.28436 29.83125 348.6281 28.39375Q349.97186 26.940624 352.1281 26.940624Q354.20624 26.940624 355.51874 28.3625Q356.84686 29.76875 356.84686 32.346874Q356.84686 32.503124 356.83124 32.815624L349.09686 32.815624Q349.1906 34.51875 350.0656 35.425Q350.9406 36.33125 352.2375 36.33125Q353.20624 36.33125 353.8781 35.83125Q354.5656 35.315624 354.97186 34.20625ZM349.1906 31.3625L354.9875 31.3625Q354.8781 30.065624 354.33124 29.409374Q353.4875 28.39375 352.14374 28.39375Q350.9406 28.39375 350.1125 29.20625Q349.28436 30.003124 349.1906 31.3625ZM365.64374 33.753124L367.3625 33.971874Q367.08124 35.76875 365.90936 36.784374Q364.7531 37.784374 363.05 37.784374Q360.925 37.784374 359.6281 36.39375Q358.33124 35.003124 358.33124 32.409374Q358.33124 30.721874 358.8781 29.471874Q359.4406 28.20625 360.58124 27.58125Q361.72186 26.940624 363.0656 26.940624Q364.7531 26.940624 365.8156 27.8Q366.89374 28.659374 367.20624 30.221874L365.4875 30.4875Q365.2531 29.440624 364.6281 28.925Q364.0031 28.39375 363.1281 28.39375Q361.8 28.39375 360.97186 29.346874Q360.14374 30.3 360.14374 32.346874Q360.14374 34.440624 360.9406 35.39375Q361.7375 36.33125 363.03436 36.33125Q364.0656 36.33125 364.7531 35.70625Q365.45624 35.065624 365.64374 33.753124ZM368.84686 37.55L368.84686 27.175L370.425 27.175L370.425 28.753124Q371.03436 27.64375 371.55 27.3Q372.0656 26.940624 372.675 26.940624Q373.5656 26.940624 374.4875 27.503124L373.8781 29.14375Q373.2375 28.753124 372.59686 28.753124Q372.01874 28.753124 371.55 29.1125Q371.09686 29.45625 370.89374 30.065624Q370.6125 31.003124 370.6125 32.1125L370.6125 37.55L368.84686 37.55ZM382.97186 34.20625L384.78436 34.440624Q384.3625 36.01875 383.1906 36.909374Q382.03436 37.784374 380.22186 37.784374Q377.95624 37.784374 376.6125 36.39375Q375.28436 34.9875 375.28436 32.45625Q375.28436 29.83125 376.6281 28.39375Q377.97186 26.940624 380.1281 26.940624Q382.20624 26.940624 383.51874 28.3625Q384.84686 29.76875 384.84686 32.346874Q384.84686 32.503124 384.83124 32.815624L377.09686 32.815624Q377.1906 34.51875 378.0656 35.425Q378.9406 36.33125 380.2375 36.33125Q381.20624 36.33125 381.8781 35.83125Q382.5656 35.315624 382.97186 34.20625ZM377.1906 31.3625L382.9875 31.3625Q382.8781 30.065624 382.33124 29.409374Q381.4875 28.39375 380.14374 28.39375Q378.9406 28.39375 378.1125 29.20625Q377.28436 30.003124 377.1906 31.3625ZM393.64374 36.26875Q392.65936 37.096874 391.7531 37.440624Q390.84686 37.784374 389.8156 37.784374Q388.1125 37.784374 387.1906 36.95625Q386.26874 36.1125 386.26874 34.815624Q386.26874 34.05 386.6125 33.425Q386.97186 32.8 387.53436 32.425Q388.09686 32.034374 388.8 31.83125Q389.3156 31.70625 390.3625 31.565624Q392.4875 31.315624 393.4875 30.971874Q393.5031 30.6125 393.5031 30.503124Q393.5031 29.440624 393.0031 28.9875Q392.33124 28.39375 391.0031 28.39375Q389.7531 28.39375 389.15936 28.83125Q388.58124 29.26875 388.3 30.378124L386.58124 30.14375Q386.8156 29.034374 387.34686 28.3625Q387.8781 27.675 388.89374 27.315624Q389.90936 26.940624 391.2531 26.940624Q392.58124 26.940624 393.40936 27.253124Q394.2375 27.565624 394.6281 28.05Q395.01874 28.51875 395.175 29.2375Q395.26874 29.690624 395.26874 30.8625L395.26874 33.20625Q395.26874 35.659374 395.3781 36.315624Q395.4875 36.95625 395.83124 37.55L393.9875 37.55Q393.72186 37.003124 393.64374 36.26875ZM393.4875 32.346874Q392.53436 32.7375 390.6125 33.003124Q389.53436 33.159374 389.08124 33.3625Q388.64374 33.55 388.39374 33.925Q388.14374 34.3 388.14374 34.76875Q388.14374 35.471874 388.675 35.940624Q389.20624 36.409374 390.2375 36.409374Q391.2531 36.409374 392.03436 35.971874Q392.83124 35.51875 393.20624 34.753124Q393.4875 34.14375 393.4875 32.9875L393.4875 32.346874ZM397.15936 34.45625L398.90936 34.175Q399.05 35.221874 399.72186 35.784374Q400.39374 36.33125 401.59686 36.33125Q402.8 36.33125 403.3781 35.846874Q403.97186 35.346874 403.97186 34.690624Q403.97186 34.096874 403.45624 33.753124Q403.09686 33.51875 401.65936 33.159374Q399.72186 32.659374 398.97186 32.315624Q398.2375 31.95625 397.84686 31.33125Q397.45624 30.690624 397.45624 29.925Q397.45624 29.2375 397.76874 28.64375Q398.09686 28.05 398.64374 27.659374Q399.05 27.3625 399.7531 27.159374Q400.47186 26.940624 401.28436 26.940624Q402.5031 26.940624 403.425 27.3Q404.34686 27.64375 404.78436 28.253124Q405.22186 28.846874 405.39374 29.846874L403.675 30.08125Q403.55 29.284374 402.9875 28.846874Q402.425 28.39375 401.40936 28.39375Q400.1906 28.39375 399.675 28.8Q399.15936 29.190624 399.15936 29.721874Q399.15936 30.065624 399.3781 30.346874Q399.58124 30.628124 400.05 30.815624Q400.3156 30.909374 401.59686 31.253124Q403.47186 31.753124 404.20624 32.08125Q404.9406 32.39375 405.3625 33.003124Q405.78436 33.596874 405.78436 34.503124Q405.78436 35.378124 405.26874 36.159374Q404.7531 36.940624 403.78436 37.3625Q402.8156 37.784374 401.59686 37.784374Q399.58124 37.784374 398.51874 36.940624Q397.45624 36.096874 397.15936 34.45625ZM414.97186 34.20625L416.78436 34.440624Q416.3625 36.01875 415.1906 36.909374Q414.03436 37.784374 412.22186 37.784374Q409.95624 37.784374 408.6125 36.39375Q407.28436 34.9875 407.28436 32.45625Q407.28436 29.83125 408.6281 28.39375Q409.97186 26.940624 412.1281 26.940624Q414.20624 26.940624 415.51874 28.3625Q416.84686 29.76875 416.84686 32.346874Q416.84686 32.503124 416.83124 32.815624L409.09686 32.815624Q409.1906 34.51875 410.0656 35.425Q410.9406 36.33125 412.2375 36.33125Q413.20624 36.33125 413.8781 35.83125Q414.5656 35.315624 414.97186 34.20625ZM409.1906 31.3625L414.9875 31.3625Q414.8781 30.065624 414.33124 29.409374Q413.4875 28.39375 412.14374 28.39375Q410.9406 28.39375 410.1125 29.20625Q409.28436 30.003124 409.1906 31.3625ZM419.33124 37.55L419.33124 35.55L421.33124 35.55L421.33124 37.55Q421.33124 38.659374 420.9406 39.33125Q420.55 40.01875 419.70624 40.378124L419.20624 39.628124Q419.76874 39.39375 420.03436 38.909374Q420.3 38.440624 420.33124 37.55L419.33124 37.55ZM430.5031 25.1125L430.5031 23.425L439.76874 23.425L439.76874 24.784374Q438.39374 26.2375 437.05 28.659374Q435.70624 31.065624 434.9875 33.6125Q434.45624 35.409374 434.3 37.55L432.5031 37.55Q432.53436 35.8625 433.15936 33.471874Q433.8 31.08125 434.9875 28.8625Q436.175 26.628124 437.5031 25.1125L430.5031 25.1125ZM441.70624 26.675Q441.70624 25.14375 442.47186 24.065624Q443.2531 22.9875 444.72186 22.9875Q446.0656 22.9875 446.9406 23.95625Q447.83124 24.909374 447.83124 26.784374Q447.83124 28.596874 446.9406 29.58125Q446.05 30.55 444.7375 30.55Q443.4406 30.55 442.5656 29.596874Q441.70624 28.628124 441.70624 26.675ZM444.76874 24.20625Q444.1125 24.20625 443.675 24.76875Q443.2531 25.33125 443.2531 26.846874Q443.2531 28.221874 443.6906 28.784374Q444.1281 29.346874 444.76874 29.346874Q445.4406 29.346874 445.8625 28.784374Q446.3 28.20625 446.3 26.70625Q446.3 25.315624 445.8625 24.76875Q445.425 24.20625 444.76874 24.20625ZM444.78436 38.08125L452.6125 22.9875L454.03436 22.9875L446.2375 38.08125L444.78436 38.08125ZM450.97186 34.190624Q450.97186 32.64375 451.7375 31.58125Q452.51874 30.503124 453.9875 30.503124Q455.33124 30.503124 456.20624 31.471874Q457.09686 32.425 457.09686 34.3Q457.09686 36.1125 456.20624 37.096874Q455.3156 38.08125 454.0031 38.08125Q452.70624 38.08125 451.83124 37.1125Q450.97186 36.128124 450.97186 34.190624ZM454.03436 31.721874Q453.3781 31.721874 452.9406 32.284374Q452.5031 32.846874 452.5031 34.3625Q452.5031 35.7375 452.9406 36.3Q453.3781 36.8625 454.03436 36.8625Q454.70624 36.8625 455.1281 36.3Q455.5656 35.7375 455.5656 34.221874Q455.5656 32.846874 455.1281 32.284374Q454.6906 31.721874 454.03436 31.721874ZM465.55 38.409374L467.2531 38.659374Q467.3625 39.45625 467.84686 39.815624Q468.5031 40.3 469.64374 40.3Q470.8625 40.3 471.51874 39.815624Q472.1906 39.33125 472.425 38.45625Q472.5656 37.909374 472.55 36.190624Q471.39374 37.55 469.675 37.55Q467.53436 37.55 466.3625 36.003124Q465.1906 34.45625 465.1906 32.3Q465.1906 30.815624 465.72186 29.565624Q466.26874 28.315624 467.28436 27.628124Q468.3156 26.940624 469.6906 26.940624Q471.51874 26.940624 472.72186 28.425L472.72186 27.175L474.33124 27.175L474.33124 36.14375Q474.33124 38.565624 473.83124 39.565624Q473.34686 40.58125 472.26874 41.159374Q471.20624 41.753124 469.64374 41.753124Q467.8 41.753124 466.64374 40.925Q465.5031 40.096874 465.55 38.409374ZM467.0031 32.175Q467.0031 34.221874 467.8156 35.159374Q468.6281 36.096874 469.84686 36.096874Q471.05 36.096874 471.8625 35.159374Q472.6906 34.221874 472.6906 32.2375Q472.6906 30.33125 471.84686 29.3625Q471.0031 28.39375 469.8156 28.39375Q468.64374 28.39375 467.8156 29.346874Q467.0031 30.3 467.0031 32.175ZM476.84686 37.55L476.84686 27.175L478.425 27.175L478.425 28.753124Q479.03436 27.64375 479.55 27.3Q480.0656 26.940624 480.675 26.940624Q481.5656 26.940624 482.4875 27.503124L481.8781 29.14375Q481.2375 28.753124 480.59686 28.753124Q480.01874 28.753124 479.55 29.1125Q479.09686 29.45625 478.89374 30.065624Q478.6125 31.003124 478.6125 32.1125L478.6125 37.55L476.84686 37.55ZM483.22186 32.3625Q483.22186 29.4875 484.8156 28.096874Q486.15936 26.940624 488.08124 26.940624Q490.22186 26.940624 491.5656 28.346874Q492.925 29.753124 492.925 32.221874Q492.925 34.221874 492.33124 35.378124Q491.7375 36.51875 490.58124 37.159374Q489.4406 37.784374 488.08124 37.784374Q485.89374 37.784374 484.55 36.39375Q483.22186 34.9875 483.22186 32.3625ZM485.01874 32.3625Q485.01874 34.3625 485.8781 35.346874Q486.7531 36.33125 488.08124 36.33125Q489.39374 36.33125 490.2531 35.346874Q491.1281 34.346874 491.1281 32.3Q491.1281 30.378124 490.2531 29.39375Q489.3781 28.39375 488.08124 28.39375Q486.7531 28.39375 485.8781 29.39375Q485.01874 30.378124 485.01874 32.3625ZM496.78436 37.55L493.6125 27.175L495.425 27.175L497.08124 33.159374L497.6906 35.39375Q497.7375 35.221874 498.22186 33.253124L499.8781 27.175L501.6906 27.175L503.2375 33.190624L503.7531 35.175L504.34686 33.175L506.1281 27.175L507.83124 27.175L504.59686 37.55L502.76874 37.55L501.1125 31.33125L500.72186 29.565624L498.6125 37.55L496.78436 37.55ZM512.70624 35.971874L512.95624 37.534374Q512.22186 37.690624 511.6281 37.690624Q510.675 37.690624 510.14374 37.39375Q509.6281 37.08125 509.40936 36.596874Q509.1906 36.096874 509.1906 34.51875L509.1906 28.55L507.90936 28.55L507.90936 27.175L509.1906 27.175L509.1906 24.6125L510.9406 23.55L510.9406 27.175L512.70624 27.175L512.70624 28.55L510.9406 28.55L510.9406 34.6125Q510.9406 35.3625 511.03436 35.58125Q511.1281 35.784374 511.33124 35.925Q511.55 36.05 511.9406 36.05Q512.22186 36.05 512.70624 35.971874ZM514.8625 37.55L514.8625 23.2375L516.6281 23.2375L516.6281 28.3625Q517.8625 26.940624 519.7375 26.940624Q520.8781 26.940624 521.72186 27.39375Q522.58124 27.846874 522.9406 28.659374Q523.3156 29.45625 523.3156 30.971874L523.3156 37.55L521.5656 37.55L521.5656 30.971874Q521.5656 29.659374 520.9875 29.065624Q520.40936 28.45625 519.3781 28.45625Q518.59686 28.45625 517.89374 28.8625Q517.20624 29.26875 516.90936 29.971874Q516.6281 30.659374 516.6281 31.878124L516.6281 37.55L514.8625 37.55ZM531.84686 37.55L531.84686 27.175L533.425 27.175L533.425 28.753124Q534.03436 27.64375 534.55 27.3Q535.0656 26.940624 535.675 26.940624Q536.5656 26.940624 537.4875 27.503124L536.8781 29.14375Q536.2375 28.753124 535.59686 28.753124Q535.01874 28.753124 534.55 29.1125Q534.09686 29.45625 533.89374 30.065624Q533.6125 31.003124 533.6125 32.1125L533.6125 37.55L531.84686 37.55ZM545.64374 36.26875Q544.65936 37.096874 543.7531 37.440624Q542.84686 37.784374 541.8156 37.784374Q540.1125 37.784374 539.1906 36.95625Q538.26874 36.1125 538.26874 34.815624Q538.26874 34.05 538.6125 33.425Q538.97186 32.8 539.53436 32.425Q540.09686 32.034374 540.8 31.83125Q541.3156 31.70625 542.3625 31.565624Q544.4875 31.315624 545.4875 30.971874Q545.5031 30.6125 545.5031 30.503124Q545.5031 29.440624 545.0031 28.9875Q544.33124 28.39375 543.0031 28.39375Q541.7531 28.39375 541.15936 28.83125Q540.58124 29.26875 540.3 30.378124L538.58124 30.14375Q538.8156 29.034374 539.34686 28.3625Q539.8781 27.675 540.89374 27.315624Q541.90936 26.940624 543.2531 26.940624Q544.58124 26.940624 545.40936 27.253124Q546.2375 27.565624 546.6281 28.05Q547.01874 28.51875 547.175 29.2375Q547.26874 29.690624 547.26874 30.8625L547.26874 33.20625Q547.26874 35.659374 547.3781 36.315624Q547.4875 36.95625 547.83124 37.55L545.9875 37.55Q545.72186 37.003124 545.64374 36.26875ZM545.4875 32.346874Q544.53436 32.7375 542.6125 33.003124Q541.53436 33.159374 541.08124 33.3625Q540.64374 33.55 540.39374 33.925Q540.14374 34.3 540.14374 34.76875Q540.14374 35.471874 540.675 35.940624Q541.20624 36.409374 542.2375 36.409374Q543.2531 36.409374 544.03436 35.971874Q544.83124 35.51875 545.20624 34.753124Q545.4875 34.14375 545.4875 32.9875L545.4875 32.346874ZM553.70624 35.971874L553.95624 37.534374Q553.22186 37.690624 552.6281 37.690624Q551.675 37.690624 551.14374 37.39375Q550.6281 37.08125 550.40936 36.596874Q550.1906 36.096874 550.1906 34.51875L550.1906 28.55L548.90936 28.55L548.90936 27.175L550.1906 27.175L550.1906 24.6125L551.9406 23.55L551.9406 27.175L553.70624 27.175L553.70624 28.55L551.9406 28.55L551.9406 34.6125Q551.9406 35.3625 552.03436 35.58125Q552.1281 35.784374 552.33124 35.925Q552.55 36.05 552.9406 36.05Q553.22186 36.05 553.70624 35.971874ZM562.97186 34.20625L564.78436 34.440624Q564.3625 36.01875 563.1906 36.909374Q562.03436 37.784374 560.22186 37.784374Q557.95624 37.784374 556.6125 36.39375Q555.28436 34.9875 555.28436 32.45625Q555.28436 29.83125 556.6281 28.39375Q557.97186 26.940624 560.1281 26.940624Q562.20624 26.940624 563.51874 28.3625Q564.84686 29.76875 564.84686 32.346874Q564.84686 32.503124 564.83124 32.815624L557.09686 32.815624Q557.1906 34.51875 558.0656 35.425Q558.9406 36.33125 560.2375 36.33125Q561.20624 36.33125 561.8781 35.83125Q562.5656 35.315624 562.97186 34.20625ZM557.1906 31.3625L562.9875 31.3625Q562.8781 30.065624 562.33124 29.409374Q561.4875 28.39375 560.14374 28.39375Q558.9406 28.39375 558.1125 29.20625Q557.28436 30.003124 557.1906 31.3625ZM567.33124 37.55L567.33124 35.55L569.33124 35.55L569.33124 37.55Q569.33124 38.659374 568.9406 39.33125Q568.55 40.01875 567.70624 40.378124L567.20624 39.628124Q567.76874 39.39375 568.03436 38.909374Q568.3 38.440624 568.33124 37.55L567.33124 37.55ZM585.0031 37.55L583.2375 37.55L583.2375 26.346874Q582.6125 26.95625 581.58124 27.565624Q580.55 28.159374 579.72186 28.471874L579.72186 26.76875Q581.20624 26.08125 582.3 25.096874Q583.40936 24.096874 583.8625 23.175L585.0031 23.175L585.0031 37.55ZM589.3781 30.4875Q589.3781 27.95625 589.89374 26.409374Q590.425 24.846874 591.45624 24.01875Q592.4875 23.175 594.05 23.175Q595.20624 23.175 596.0656 23.64375Q596.9406 24.096874 597.5031 24.971874Q598.0656 25.846874 598.39374 27.1125Q598.72186 28.3625 598.72186 30.4875Q598.72186 33.003124 598.1906 34.55Q597.675 36.096874 596.64374 36.95625Q595.6281 37.8 594.05 37.8Q591.97186 37.8 590.8 36.315624Q589.3781 34.51875 589.3781 30.4875ZM591.1906 30.4875Q591.1906 34.01875 592.0031 35.190624Q592.83124 36.346874 594.05 36.346874Q595.2531 36.346874 596.08124 35.175Q596.90936 34.003124 596.90936 30.4875Q596.90936 26.95625 596.08124 25.8Q595.2531 24.628124 594.03436 24.628124Q592.8156 24.628124 592.09686 25.659374Q591.1906 26.95625 591.1906 30.4875ZM613.64374 36.26875Q612.65936 37.096874 611.7531 37.440624Q610.84686 37.784374 609.8156 37.784374Q608.1125 37.784374 607.1906 36.95625Q606.26874 36.1125 606.26874 34.815624Q606.26874 34.05 606.6125 33.425Q606.97186 32.8 607.53436 32.425Q608.09686 32.034374 608.8 31.83125Q609.3156 31.70625 610.3625 31.565624Q612.4875 31.315624 613.4875 30.971874Q613.5031 30.6125 613.5031 30.503124Q613.5031 29.440624 613.0031 28.9875Q612.33124 28.39375 611.0031 28.39375Q609.7531 28.39375 609.15936 28.83125Q608.58124 29.26875 608.3 30.378124L606.58124 30.14375Q606.8156 29.034374 607.34686 28.3625Q607.8781 27.675 608.89374 27.315624Q609.90936 26.940624 611.2531 26.940624Q612.58124 26.940624 613.40936 27.253124Q614.2375 27.565624 614.6281 28.05Q615.01874 28.51875 615.175 29.2375Q615.26874 29.690624 615.26874 30.8625L615.26874 33.20625Q615.26874 35.659374 615.3781 36.315624Q615.4875 36.95625 615.83124 37.55L613.9875 37.55Q613.72186 37.003124 613.64374 36.26875ZM613.4875 32.346874Q612.53436 32.7375 610.6125 33.003124Q609.53436 33.159374 609.08124 33.3625Q608.64374 33.55 608.39374 33.925Q608.14374 34.3 608.14374 34.76875Q608.14374 35.471874 608.675 35.940624Q609.20624 36.409374 610.2375 36.409374Q611.2531 36.409374 612.03436 35.971874Q612.83124 35.51875 613.20624 34.753124Q613.4875 34.14375 613.4875 32.9875L613.4875 32.346874ZM617.8625 37.55L617.8625 27.175L619.45624 27.175L619.45624 28.659374Q620.59686 26.940624 622.7531 26.940624Q623.6906 26.940624 624.47186 27.284374Q625.26874 27.6125 625.65936 28.159374Q626.05 28.70625 626.20624 29.45625Q626.3 29.95625 626.3 31.175L626.3 37.55L624.53436 37.55L624.53436 31.2375Q624.53436 30.159374 624.33124 29.628124Q624.1281 29.096874 623.59686 28.784374Q623.08124 28.471874 622.3781 28.471874Q621.2531 28.471874 620.4406 29.190624Q619.6281 29.89375 619.6281 31.878124L619.6281 37.55L617.8625 37.55ZM628.8625 37.55L628.8625 27.175L630.45624 27.175L630.45624 28.659374Q631.59686 26.940624 633.7531 26.940624Q634.6906 26.940624 635.47186 27.284374Q636.26874 27.6125 636.65936 28.159374Q637.05 28.70625 637.20624 29.45625Q637.3 29.95625 637.3 31.175L637.3 37.55L635.53436 37.55L635.53436 31.2375Q635.53436 30.159374 635.33124 29.628124Q635.1281 29.096874 634.59686 28.784374Q634.08124 28.471874 633.3781 28.471874Q632.2531 28.471874 631.4406 29.190624Q630.6281 29.89375 630.6281 31.878124L630.6281 37.55L628.8625 37.55ZM646.65936 37.55L646.65936 36.01875Q645.45624 37.784374 643.3781 37.784374Q642.45624 37.784374 641.65936 37.440624Q640.8625 37.08125 640.47186 36.55Q640.09686 36.01875 639.9406 35.2375Q639.83124 34.721874 639.83124 33.596874L639.83124 27.175L641.58124 27.175L641.58124 32.925Q641.58124 34.3 641.6906 34.784374Q641.8625 35.471874 642.39374 35.878124Q642.9406 36.26875 643.72186 36.26875Q644.51874 36.26875 645.20624 35.8625Q645.90936 35.45625 646.1906 34.76875Q646.4875 34.065624 646.4875 32.7375L646.4875 27.175L648.2375 27.175L648.2375 37.55L646.65936 37.55ZM657.64374 36.26875Q656.65936 37.096874 655.7531 37.440624Q654.84686 37.784374 653.8156 37.784374Q652.1125 37.784374 651.1906 36.95625Q650.26874 36.1125 650.26874 34.815624Q650.26874 34.05 650.6125 33.425Q650.97186 32.8 651.53436 32.425Q652.09686 32.034374 652.8 31.83125Q653.3156 31.70625 654.3625 31.565624Q656.4875 31.315624 657.4875 30.971874Q657.5031 30.6125 657.5031 30.503124Q657.5031 29.440624 657.0031 28.9875Q656.33124 28.39375 655.0031 28.39375Q653.7531 28.39375 653.15936 28.83125Q652.58124 29.26875 652.3 30.378124L650.58124 30.14375Q650.8156 29.034374 651.34686 28.3625Q651.8781 27.675 652.89374 27.315624Q653.90936 26.940624 655.2531 26.940624Q656.58124 26.940624 657.40936 27.253124Q658.2375 27.565624 658.6281 28.05Q659.01874 28.51875 659.175 29.2375Q659.26874 29.690624 659.26874 30.8625L659.26874 33.20625Q659.26874 35.659374 659.3781 36.315624Q659.4875 36.95625 659.83124 37.55L657.9875 37.55Q657.72186 37.003124 657.64374 36.26875ZM657.4875 32.346874Q656.53436 32.7375 654.6125 33.003124Q653.53436 33.159374 653.08124 33.3625Q652.64374 33.55 652.39374 33.925Q652.14374 34.3 652.14374 34.76875Q652.14374 35.471874 652.675 35.940624Q653.20624 36.409374 654.2375 36.409374Q655.2531 36.409374 656.03436 35.971874Q656.83124 35.51875 657.20624 34.753124Q657.4875 34.14375 657.4875 32.9875L657.4875 32.346874ZM661.83124 37.55L661.83124 23.2375L663.58124 23.2375L663.58124 37.55L661.83124 37.55ZM678.64374 33.753124L680.3625 33.971874Q680.08124 35.76875 678.90936 36.784374Q677.7531 37.784374 676.05 37.784374Q673.925 37.784374 672.6281 36.39375Q671.33124 35.003124 671.33124 32.409374Q671.33124 30.721874 671.8781 29.471874Q672.4406 28.20625 673.58124 27.58125Q674.72186 26.940624 676.0656 26.940624Q677.7531 26.940624 678.8156 27.8Q679.89374 28.659374 680.20624 30.221874L678.4875 30.4875Q678.2531 29.440624 677.6281 28.925Q677.0031 28.39375 676.1281 28.39375Q674.8 28.39375 673.97186 29.346874Q673.14374 30.3 673.14374 32.346874Q673.14374 34.440624 673.9406 35.39375Q674.7375 36.33125 676.03436 36.33125Q677.0656 36.33125 677.7531 35.70625Q678.45624 35.065624 678.64374 33.753124ZM688.65936 37.55L688.65936 36.01875Q687.45624 37.784374 685.3781 37.784374Q684.45624 37.784374 683.65936 37.440624Q682.8625 37.08125 682.47186 36.55Q682.09686 36.01875 681.9406 35.2375Q681.83124 34.721874 681.83124 33.596874L681.83124 27.175L683.58124 27.175L683.58124 32.925Q683.58124 34.3 683.6906 34.784374Q683.8625 35.471874 684.39374 35.878124Q684.9406 36.26875 685.72186 36.26875Q686.51874 36.26875 687.20624 35.8625Q687.90936 35.45625 688.1906 34.76875Q688.4875 34.065624 688.4875 32.7375L688.4875 27.175L690.2375 27.175L690.2375 37.55L688.65936 37.55ZM696.70624 35.971874L696.95624 37.534374Q696.22186 37.690624 695.6281 37.690624Q694.675 37.690624 694.14374 37.39375Q693.6281 37.08125 693.40936 36.596874Q693.1906 36.096874 693.1906 34.51875L693.1906 28.55L691.90936 28.55L691.90936 27.175L693.1906 27.175L693.1906 24.6125L694.9406 23.55L694.9406 27.175L696.70624 27.175L696.70624 28.55L694.9406 28.55L694.9406 34.6125Q694.9406 35.3625 695.03436 35.58125Q695.1281 35.784374 695.33124 35.925Q695.55 36.05 695.9406 36.05Q696.22186 36.05 696.70624 35.971874Z" fill-rule="nonzero"/></svg>