<svg width="1295" height="593" viewBox="0 0 1295 593" fill="none" xmlns="http://www.w3.org/2000/svg">
<rect width="1295" height="593" fill="#F2F2F2"/>
<rect x="231" y="382" width="240" height="123" rx="6" fill="#15202B"/>
<rect x="484" y="199" width="240" height="123" rx="6" fill="#15202B"/>
<path d="M321.797 439.547H314.648L313.043 444H310.723L317.238 426.938H319.207L325.734 444H323.426L321.797 439.547ZM315.328 437.695H321.129L318.223 429.715L315.328 437.695ZM332.777 442.465C333.551 442.465 334.227 442.23 334.805 441.762C335.383 441.293 335.703 440.707 335.766 440.004H337.816C337.777 440.73 337.527 441.422 337.066 442.078C336.605 442.734 335.988 443.258 335.215 443.648C334.449 444.039 333.637 444.234 332.777 444.234C331.051 444.234 329.676 443.66 328.652 442.512C327.637 441.355 327.129 439.777 327.129 437.777V437.414C327.129 436.18 327.355 435.082 327.809 434.121C328.262 433.16 328.91 432.414 329.754 431.883C330.605 431.352 331.609 431.086 332.766 431.086C334.188 431.086 335.367 431.512 336.305 432.363C337.25 433.215 337.754 434.32 337.816 435.68H335.766C335.703 434.859 335.391 434.188 334.828 433.664C334.273 433.133 333.586 432.867 332.766 432.867C331.664 432.867 330.809 433.266 330.199 434.062C329.598 434.852 329.297 435.996 329.297 437.496V437.906C329.297 439.367 329.598 440.492 330.199 441.281C330.801 442.07 331.66 442.465 332.777 442.465ZM343.195 428.25V431.32H345.562V432.996H343.195V440.859C343.195 441.367 343.301 441.75 343.512 442.008C343.723 442.258 344.082 442.383 344.59 442.383C344.84 442.383 345.184 442.336 345.621 442.242V444C345.051 444.156 344.496 444.234 343.957 444.234C342.988 444.234 342.258 443.941 341.766 443.355C341.273 442.77 341.027 441.938 341.027 440.859V432.996H338.719V431.32H341.027V428.25H343.195ZM350.461 444H348.293V431.32H350.461V444ZM348.117 427.957C348.117 427.605 348.223 427.309 348.434 427.066C348.652 426.824 348.973 426.703 349.395 426.703C349.816 426.703 350.137 426.824 350.355 427.066C350.574 427.309 350.684 427.605 350.684 427.957C350.684 428.309 350.574 428.602 350.355 428.836C350.137 429.07 349.816 429.188 349.395 429.188C348.973 429.188 348.652 429.07 348.434 428.836C348.223 428.602 348.117 428.309 348.117 427.957ZM353.367 437.543C353.367 436.301 353.609 435.184 354.094 434.191C354.586 433.199 355.266 432.434 356.133 431.895C357.008 431.355 358.004 431.086 359.121 431.086C360.848 431.086 362.242 431.684 363.305 432.879C364.375 434.074 364.91 435.664 364.91 437.648V437.801C364.91 439.035 364.672 440.145 364.195 441.129C363.727 442.105 363.051 442.867 362.168 443.414C361.293 443.961 360.285 444.234 359.145 444.234C357.426 444.234 356.031 443.637 354.961 442.441C353.898 441.246 353.367 439.664 353.367 437.695V437.543ZM355.547 437.801C355.547 439.207 355.871 440.336 356.52 441.188C357.176 442.039 358.051 442.465 359.145 442.465C360.246 442.465 361.121 442.035 361.77 441.176C362.418 440.309 362.742 439.098 362.742 437.543C362.742 436.152 362.41 435.027 361.746 434.168C361.09 433.301 360.215 432.867 359.121 432.867C358.051 432.867 357.188 433.293 356.531 434.145C355.875 434.996 355.547 436.215 355.547 437.801ZM369.68 431.32L369.75 432.914C370.719 431.695 371.984 431.086 373.547 431.086C376.227 431.086 377.578 432.598 377.602 435.621V444H375.434V435.609C375.426 434.695 375.215 434.02 374.801 433.582C374.395 433.145 373.758 432.926 372.891 432.926C372.188 432.926 371.57 433.113 371.039 433.488C370.508 433.863 370.094 434.355 369.797 434.965V444H367.629V431.32H369.68ZM388.254 440.637C388.254 440.051 388.031 439.598 387.586 439.277C387.148 438.949 386.379 438.668 385.277 438.434C384.184 438.199 383.312 437.918 382.664 437.59C382.023 437.262 381.547 436.871 381.234 436.418C380.93 435.965 380.777 435.426 380.777 434.801C380.777 433.762 381.215 432.883 382.09 432.164C382.973 431.445 384.098 431.086 385.465 431.086C386.902 431.086 388.066 431.457 388.957 432.199C389.855 432.941 390.305 433.891 390.305 435.047H388.125C388.125 434.453 387.871 433.941 387.363 433.512C386.863 433.082 386.23 432.867 385.465 432.867C384.676 432.867 384.059 433.039 383.613 433.383C383.168 433.727 382.945 434.176 382.945 434.73C382.945 435.254 383.152 435.648 383.566 435.914C383.98 436.18 384.727 436.434 385.805 436.676C386.891 436.918 387.77 437.207 388.441 437.543C389.113 437.879 389.609 438.285 389.93 438.762C390.258 439.23 390.422 439.805 390.422 440.484C390.422 441.617 389.969 442.527 389.062 443.215C388.156 443.895 386.98 444.234 385.535 444.234C384.52 444.234 383.621 444.055 382.84 443.695C382.059 443.336 381.445 442.836 381 442.195C380.562 441.547 380.344 440.848 380.344 440.098H382.512C382.551 440.824 382.84 441.402 383.379 441.832C383.926 442.254 384.645 442.465 385.535 442.465C386.355 442.465 387.012 442.301 387.504 441.973C388.004 441.637 388.254 441.191 388.254 440.637Z" fill="#E5E5E5"/>
<path d="M568.375 265.098H564.367V272H562.105V254.938H567.754C569.676 254.938 571.152 255.375 572.184 256.25C573.223 257.125 573.742 258.398 573.742 260.07C573.742 261.133 573.453 262.059 572.875 262.848C572.305 263.637 571.508 264.227 570.484 264.617L574.492 271.859V272H572.078L568.375 265.098ZM564.367 263.258H567.824C568.941 263.258 569.828 262.969 570.484 262.391C571.148 261.812 571.48 261.039 571.48 260.07C571.48 259.016 571.164 258.207 570.531 257.645C569.906 257.082 569 256.797 567.812 256.789H564.367V263.258ZM581.828 272.234C580.109 272.234 578.711 271.672 577.633 270.547C576.555 269.414 576.016 267.902 576.016 266.012V265.613C576.016 264.355 576.254 263.234 576.73 262.25C577.215 261.258 577.887 260.484 578.746 259.93C579.613 259.367 580.551 259.086 581.559 259.086C583.207 259.086 584.488 259.629 585.402 260.715C586.316 261.801 586.773 263.355 586.773 265.379V266.281H578.184C578.215 267.531 578.578 268.543 579.273 269.316C579.977 270.082 580.867 270.465 581.945 270.465C582.711 270.465 583.359 270.309 583.891 269.996C584.422 269.684 584.887 269.27 585.285 268.754L586.609 269.785C585.547 271.418 583.953 272.234 581.828 272.234ZM581.559 260.867C580.684 260.867 579.949 261.188 579.355 261.828C578.762 262.461 578.395 263.352 578.254 264.5H584.605V264.336C584.543 263.234 584.246 262.383 583.715 261.781C583.184 261.172 582.465 260.867 581.559 260.867ZM588.766 265.555C588.766 263.609 589.227 262.047 590.148 260.867C591.07 259.68 592.277 259.086 593.77 259.086C595.254 259.086 596.43 259.594 597.297 260.609V254H599.465V272H597.473L597.367 270.641C596.5 271.703 595.293 272.234 593.746 272.234C592.277 272.234 591.078 271.633 590.148 270.43C589.227 269.227 588.766 267.656 588.766 265.719V265.555ZM590.934 265.801C590.934 267.238 591.23 268.363 591.824 269.176C592.418 269.988 593.238 270.395 594.285 270.395C595.66 270.395 596.664 269.777 597.297 268.543V262.719C596.648 261.523 595.652 260.926 594.309 260.926C593.246 260.926 592.418 261.336 591.824 262.156C591.23 262.977 590.934 264.191 590.934 265.801ZM610.668 270.746C609.824 271.738 608.586 272.234 606.953 272.234C605.602 272.234 604.57 271.844 603.859 271.062C603.156 270.273 602.801 269.109 602.793 267.57V259.32H604.961V267.512C604.961 269.434 605.742 270.395 607.305 270.395C608.961 270.395 610.062 269.777 610.609 268.543V259.32H612.777V272H610.715L610.668 270.746ZM621.168 270.465C621.941 270.465 622.617 270.23 623.195 269.762C623.773 269.293 624.094 268.707 624.156 268.004H626.207C626.168 268.73 625.918 269.422 625.457 270.078C624.996 270.734 624.379 271.258 623.605 271.648C622.84 272.039 622.027 272.234 621.168 272.234C619.441 272.234 618.066 271.66 617.043 270.512C616.027 269.355 615.52 267.777 615.52 265.777V265.414C615.52 264.18 615.746 263.082 616.199 262.121C616.652 261.16 617.301 260.414 618.145 259.883C618.996 259.352 620 259.086 621.156 259.086C622.578 259.086 623.758 259.512 624.695 260.363C625.641 261.215 626.145 262.32 626.207 263.68H624.156C624.094 262.859 623.781 262.188 623.219 261.664C622.664 261.133 621.977 260.867 621.156 260.867C620.055 260.867 619.199 261.266 618.59 262.062C617.988 262.852 617.688 263.996 617.688 265.496V265.906C617.688 267.367 617.988 268.492 618.59 269.281C619.191 270.07 620.051 270.465 621.168 270.465ZM633.906 272.234C632.188 272.234 630.789 271.672 629.711 270.547C628.633 269.414 628.094 267.902 628.094 266.012V265.613C628.094 264.355 628.332 263.234 628.809 262.25C629.293 261.258 629.965 260.484 630.824 259.93C631.691 259.367 632.629 259.086 633.637 259.086C635.285 259.086 636.566 259.629 637.48 260.715C638.395 261.801 638.852 263.355 638.852 265.379V266.281H630.262C630.293 267.531 630.656 268.543 631.352 269.316C632.055 270.082 632.945 270.465 634.023 270.465C634.789 270.465 635.438 270.309 635.969 269.996C636.5 269.684 636.965 269.27 637.363 268.754L638.688 269.785C637.625 271.418 636.031 272.234 633.906 272.234ZM633.637 260.867C632.762 260.867 632.027 261.188 631.434 261.828C630.84 262.461 630.473 263.352 630.332 264.5H636.684V264.336C636.621 263.234 636.324 262.383 635.793 261.781C635.262 261.172 634.543 260.867 633.637 260.867ZM647.5 261.266C647.172 261.211 646.816 261.184 646.434 261.184C645.012 261.184 644.047 261.789 643.539 263V272H641.371V259.32H643.48L643.516 260.785C644.227 259.652 645.234 259.086 646.539 259.086C646.961 259.086 647.281 259.141 647.5 259.25V261.266Z" fill="#E5E5E5"/>
<rect x="800" y="382" width="240" height="123" rx="6" fill="#5E57B1"/>
<path d="M871.613 448.098H867.605V455H865.344V437.938H870.992C872.914 437.938 874.391 438.375 875.422 439.25C876.461 440.125 876.98 441.398 876.98 443.07C876.98 444.133 876.691 445.059 876.113 445.848C875.543 446.637 874.746 447.227 873.723 447.617L877.73 454.859V455H875.316L871.613 448.098ZM867.605 446.258H871.062C872.18 446.258 873.066 445.969 873.723 445.391C874.387 444.812 874.719 444.039 874.719 443.07C874.719 442.016 874.402 441.207 873.77 440.645C873.145 440.082 872.238 439.797 871.051 439.789H867.605V446.258ZM885.066 455.234C883.348 455.234 881.949 454.672 880.871 453.547C879.793 452.414 879.254 450.902 879.254 449.012V448.613C879.254 447.355 879.492 446.234 879.969 445.25C880.453 444.258 881.125 443.484 881.984 442.93C882.852 442.367 883.789 442.086 884.797 442.086C886.445 442.086 887.727 442.629 888.641 443.715C889.555 444.801 890.012 446.355 890.012 448.379V449.281H881.422C881.453 450.531 881.816 451.543 882.512 452.316C883.215 453.082 884.105 453.465 885.184 453.465C885.949 453.465 886.598 453.309 887.129 452.996C887.66 452.684 888.125 452.27 888.523 451.754L889.848 452.785C888.785 454.418 887.191 455.234 885.066 455.234ZM884.797 443.867C883.922 443.867 883.188 444.188 882.594 444.828C882 445.461 881.633 446.352 881.492 447.5H887.844V447.336C887.781 446.234 887.484 445.383 886.953 444.781C886.422 444.172 885.703 443.867 884.797 443.867ZM900.359 455C900.234 454.75 900.133 454.305 900.055 453.664C899.047 454.711 897.844 455.234 896.445 455.234C895.195 455.234 894.168 454.883 893.363 454.18C892.566 453.469 892.168 452.57 892.168 451.484C892.168 450.164 892.668 449.141 893.668 448.414C894.676 447.68 896.09 447.312 897.91 447.312H900.02V446.316C900.02 445.559 899.793 444.957 899.34 444.512C898.887 444.059 898.219 443.832 897.336 443.832C896.562 443.832 895.914 444.027 895.391 444.418C894.867 444.809 894.605 445.281 894.605 445.836H892.426C892.426 445.203 892.648 444.594 893.094 444.008C893.547 443.414 894.156 442.945 894.922 442.602C895.695 442.258 896.543 442.086 897.465 442.086C898.926 442.086 900.07 442.453 900.898 443.188C901.727 443.914 902.156 444.918 902.188 446.199V452.035C902.188 453.199 902.336 454.125 902.633 454.812V455H900.359ZM896.762 453.348C897.441 453.348 898.086 453.172 898.695 452.82C899.305 452.469 899.746 452.012 900.02 451.449V448.848H898.32C895.664 448.848 894.336 449.625 894.336 451.18C894.336 451.859 894.562 452.391 895.016 452.773C895.469 453.156 896.051 453.348 896.762 453.348ZM910.672 453.465C911.445 453.465 912.121 453.23 912.699 452.762C913.277 452.293 913.598 451.707 913.66 451.004H915.711C915.672 451.73 915.422 452.422 914.961 453.078C914.5 453.734 913.883 454.258 913.109 454.648C912.344 455.039 911.531 455.234 910.672 455.234C908.945 455.234 907.57 454.66 906.547 453.512C905.531 452.355 905.023 450.777 905.023 448.777V448.414C905.023 447.18 905.25 446.082 905.703 445.121C906.156 444.16 906.805 443.414 907.648 442.883C908.5 442.352 909.504 442.086 910.66 442.086C912.082 442.086 913.262 442.512 914.199 443.363C915.145 444.215 915.648 445.32 915.711 446.68H913.66C913.598 445.859 913.285 445.188 912.723 444.664C912.168 444.133 911.48 443.867 910.66 443.867C909.559 443.867 908.703 444.266 908.094 445.062C907.492 445.852 907.191 446.996 907.191 448.496V448.906C907.191 450.367 907.492 451.492 908.094 452.281C908.695 453.07 909.555 453.465 910.672 453.465ZM921.09 439.25V442.32H923.457V443.996H921.09V451.859C921.09 452.367 921.195 452.75 921.406 453.008C921.617 453.258 921.977 453.383 922.484 453.383C922.734 453.383 923.078 453.336 923.516 453.242V455C922.945 455.156 922.391 455.234 921.852 455.234C920.883 455.234 920.152 454.941 919.66 454.355C919.168 453.77 918.922 452.938 918.922 451.859V443.996H916.613V442.32H918.922V439.25H921.09ZM943.613 439.789H938.129V455H935.891V439.789H930.418V437.938H943.613V439.789ZM951.043 444.266C950.715 444.211 950.359 444.184 949.977 444.184C948.555 444.184 947.59 444.789 947.082 446V455H944.914V442.32H947.023L947.059 443.785C947.77 442.652 948.777 442.086 950.082 442.086C950.504 442.086 950.824 442.141 951.043 442.25V444.266ZM958.074 455.234C956.355 455.234 954.957 454.672 953.879 453.547C952.801 452.414 952.262 450.902 952.262 449.012V448.613C952.262 447.355 952.5 446.234 952.977 445.25C953.461 444.258 954.133 443.484 954.992 442.93C955.859 442.367 956.797 442.086 957.805 442.086C959.453 442.086 960.734 442.629 961.648 443.715C962.562 444.801 963.02 446.355 963.02 448.379V449.281H954.43C954.461 450.531 954.824 451.543 955.52 452.316C956.223 453.082 957.113 453.465 958.191 453.465C958.957 453.465 959.605 453.309 960.137 452.996C960.668 452.684 961.133 452.27 961.531 451.754L962.855 452.785C961.793 454.418 960.199 455.234 958.074 455.234ZM957.805 443.867C956.93 443.867 956.195 444.188 955.602 444.828C955.008 445.461 954.641 446.352 954.5 447.5H960.852V447.336C960.789 446.234 960.492 445.383 959.961 444.781C959.43 444.172 958.711 443.867 957.805 443.867ZM970.801 455.234C969.082 455.234 967.684 454.672 966.605 453.547C965.527 452.414 964.988 450.902 964.988 449.012V448.613C964.988 447.355 965.227 446.234 965.703 445.25C966.188 444.258 966.859 443.484 967.719 442.93C968.586 442.367 969.523 442.086 970.531 442.086C972.18 442.086 973.461 442.629 974.375 443.715C975.289 444.801 975.746 446.355 975.746 448.379V449.281H967.156C967.188 450.531 967.551 451.543 968.246 452.316C968.949 453.082 969.84 453.465 970.918 453.465C971.684 453.465 972.332 453.309 972.863 452.996C973.395 452.684 973.859 452.27 974.258 451.754L975.582 452.785C974.52 454.418 972.926 455.234 970.801 455.234ZM970.531 443.867C969.656 443.867 968.922 444.188 968.328 444.828C967.734 445.461 967.367 446.352 967.227 447.5H973.578V447.336C973.516 446.234 973.219 445.383 972.688 444.781C972.156 444.172 971.438 443.867 970.531 443.867Z" fill="#E5E5E5"/>
<rect x="800" y="62" width="240" height="123" rx="6" fill="#15202B"/>
<path d="M898.918 127.395C896.988 126.84 895.582 126.16 894.699 125.355C893.824 124.543 893.387 123.543 893.387 122.355C893.387 121.012 893.922 119.902 894.992 119.027C896.07 118.145 897.469 117.703 899.188 117.703C900.359 117.703 901.402 117.93 902.316 118.383C903.238 118.836 903.949 119.461 904.449 120.258C904.957 121.055 905.211 121.926 905.211 122.871H902.949C902.949 121.84 902.621 121.031 901.965 120.445C901.309 119.852 900.383 119.555 899.188 119.555C898.078 119.555 897.211 119.801 896.586 120.293C895.969 120.777 895.66 121.453 895.66 122.32C895.66 123.016 895.953 123.605 896.539 124.09C897.133 124.566 898.137 125.004 899.551 125.402C900.973 125.801 902.082 126.242 902.879 126.727C903.684 127.203 904.277 127.762 904.66 128.402C905.051 129.043 905.246 129.797 905.246 130.664C905.246 132.047 904.707 133.156 903.629 133.992C902.551 134.82 901.109 135.234 899.305 135.234C898.133 135.234 897.039 135.012 896.023 134.566C895.008 134.113 894.223 133.496 893.668 132.715C893.121 131.934 892.848 131.047 892.848 130.055H895.109C895.109 131.086 895.488 131.902 896.246 132.504C897.012 133.098 898.031 133.395 899.305 133.395C900.492 133.395 901.402 133.152 902.035 132.668C902.668 132.184 902.984 131.523 902.984 130.688C902.984 129.852 902.691 129.207 902.105 128.754C901.52 128.293 900.457 127.84 898.918 127.395ZM910.742 119.25V122.32H913.109V123.996H910.742V131.859C910.742 132.367 910.848 132.75 911.059 133.008C911.27 133.258 911.629 133.383 912.137 133.383C912.387 133.383 912.73 133.336 913.168 133.242V135C912.598 135.156 912.043 135.234 911.504 135.234C910.535 135.234 909.805 134.941 909.312 134.355C908.82 133.77 908.574 132.938 908.574 131.859V123.996H906.266V122.32H908.574V119.25H910.742ZM914.844 128.543C914.844 127.301 915.086 126.184 915.57 125.191C916.062 124.199 916.742 123.434 917.609 122.895C918.484 122.355 919.48 122.086 920.598 122.086C922.324 122.086 923.719 122.684 924.781 123.879C925.852 125.074 926.387 126.664 926.387 128.648V128.801C926.387 130.035 926.148 131.145 925.672 132.129C925.203 133.105 924.527 133.867 923.645 134.414C922.77 134.961 921.762 135.234 920.621 135.234C918.902 135.234 917.508 134.637 916.438 133.441C915.375 132.246 914.844 130.664 914.844 128.695V128.543ZM917.023 128.801C917.023 130.207 917.348 131.336 917.996 132.188C918.652 133.039 919.527 133.465 920.621 133.465C921.723 133.465 922.598 133.035 923.246 132.176C923.895 131.309 924.219 130.098 924.219 128.543C924.219 127.152 923.887 126.027 923.223 125.168C922.566 124.301 921.691 123.867 920.598 123.867C919.527 123.867 918.664 124.293 918.008 125.145C917.352 125.996 917.023 127.215 917.023 128.801ZM935.234 124.266C934.906 124.211 934.551 124.184 934.168 124.184C932.746 124.184 931.781 124.789 931.273 126V135H929.105V122.32H931.215L931.25 123.785C931.961 122.652 932.969 122.086 934.273 122.086C934.695 122.086 935.016 122.141 935.234 122.25V124.266ZM942.266 135.234C940.547 135.234 939.148 134.672 938.07 133.547C936.992 132.414 936.453 130.902 936.453 129.012V128.613C936.453 127.355 936.691 126.234 937.168 125.25C937.652 124.258 938.324 123.484 939.184 122.93C940.051 122.367 940.988 122.086 941.996 122.086C943.645 122.086 944.926 122.629 945.84 123.715C946.754 124.801 947.211 126.355 947.211 128.379V129.281H938.621C938.652 130.531 939.016 131.543 939.711 132.316C940.414 133.082 941.305 133.465 942.383 133.465C943.148 133.465 943.797 133.309 944.328 132.996C944.859 132.684 945.324 132.27 945.723 131.754L947.047 132.785C945.984 134.418 944.391 135.234 942.266 135.234ZM941.996 123.867C941.121 123.867 940.387 124.188 939.793 124.828C939.199 125.461 938.832 126.352 938.691 127.5H945.043V127.336C944.98 126.234 944.684 125.383 944.152 124.781C943.621 124.172 942.902 123.867 941.996 123.867Z" fill="#E5E5E5"/>
<path d="M350.944 266.328L350.944 263.828L348.444 263.828L348.444 266.328L350.944 266.328ZM481.712 268.096C482.688 267.12 482.688 265.537 481.712 264.561L465.802 248.651C464.826 247.675 463.243 247.675 462.266 248.651C461.29 249.627 461.29 251.21 462.266 252.186L476.409 266.329L462.266 280.471C461.29 281.447 461.29 283.03 462.266 284.006C463.243 284.983 464.826 284.983 465.802 284.006L481.712 268.096ZM353.444 373L353.444 266.328L348.444 266.328L348.444 373L353.444 373ZM350.944 268.828L479.944 268.829L479.944 263.829L350.944 263.828L350.944 268.828Z" fill="black"/>
<path d="M670.943 139.329L670.943 136.829L668.443 136.829L668.443 139.329L670.943 139.329ZM801.711 141.097C802.688 140.12 802.688 138.537 801.711 137.561L785.801 121.651C784.825 120.675 783.242 120.675 782.266 121.651C781.29 122.627 781.29 124.21 782.266 125.187L796.408 139.329L782.266 153.471C781.29 154.447 781.29 156.03 782.266 157.006C783.242 157.983 784.825 157.983 785.801 157.006L801.711 141.097ZM673.444 199.329L673.443 139.329L668.443 139.329L668.444 199.329L673.444 199.329ZM670.943 141.829L799.944 141.829L799.944 136.829L670.943 136.829L670.943 141.829Z" fill="black"/>
<path d="M918.939 374.061C919.525 374.646 920.475 374.646 921.061 374.061L930.607 364.515C931.192 363.929 931.192 362.979 930.607 362.393C930.021 361.808 929.071 361.808 928.485 362.393L920 370.879L911.515 362.393C910.929 361.808 909.979 361.808 909.393 362.393C908.808 362.979 908.808 363.929 909.393 364.515L918.939 374.061ZM918.5 190L918.5 373L921.5 373L921.5 190L918.5 190Z" fill="#9E9E9E"/>
<path d="M482.939 453.939C482.354 454.525 482.354 455.475 482.939 456.061L492.485 465.607C493.071 466.192 494.021 466.192 494.607 465.607C495.192 465.021 495.192 464.071 494.607 463.485L486.121 455L494.607 446.515C495.192 445.929 495.192 444.979 494.607 444.393C494.021 443.808 493.071 443.808 492.485 444.393L482.939 453.939ZM790 453.5L484 453.5V456.5L790 456.5V453.5Z" fill="#AFAFAF"/>
<path d="M942.32 282H940.624L934.182 272.139V282H932.485V269.203H934.182L940.642 279.108V269.203H942.32V282ZM944.632 277.157C944.632 276.226 944.813 275.388 945.177 274.644C945.546 273.899 946.056 273.325 946.706 272.921C947.362 272.517 948.109 272.314 948.947 272.314C950.242 272.314 951.288 272.763 952.085 273.659C952.888 274.556 953.289 275.748 953.289 277.236V277.351C953.289 278.276 953.11 279.108 952.753 279.847C952.401 280.579 951.895 281.15 951.232 281.561C950.576 281.971 949.82 282.176 948.965 282.176C947.676 282.176 946.63 281.728 945.827 280.831C945.03 279.935 944.632 278.748 944.632 277.271V277.157ZM946.267 277.351C946.267 278.405 946.51 279.252 946.996 279.891C947.488 280.529 948.145 280.849 948.965 280.849C949.791 280.849 950.447 280.526 950.934 279.882C951.42 279.231 951.663 278.323 951.663 277.157C951.663 276.114 951.414 275.271 950.916 274.626C950.424 273.976 949.768 273.65 948.947 273.65C948.145 273.65 947.497 273.97 947.005 274.608C946.513 275.247 946.267 276.161 946.267 277.351ZM957.534 270.188V272.49H959.31V273.747H957.534V279.645C957.534 280.025 957.613 280.312 957.771 280.506C957.93 280.693 958.199 280.787 958.58 280.787C958.768 280.787 959.025 280.752 959.354 280.682V282C958.926 282.117 958.51 282.176 958.105 282.176C957.379 282.176 956.831 281.956 956.462 281.517C956.093 281.077 955.908 280.453 955.908 279.645V273.747H954.177V272.49H955.908V270.188H957.534ZM962.983 282H961.357V272.49H962.983V282ZM961.226 269.968C961.226 269.704 961.305 269.481 961.463 269.3C961.627 269.118 961.867 269.027 962.184 269.027C962.5 269.027 962.74 269.118 962.904 269.3C963.068 269.481 963.15 269.704 963.15 269.968C963.15 270.231 963.068 270.451 962.904 270.627C962.74 270.803 962.5 270.891 962.184 270.891C961.867 270.891 961.627 270.803 961.463 270.627C961.305 270.451 961.226 270.231 961.226 269.968ZM966.394 282V273.747H964.891V272.49H966.394V271.515C966.394 270.495 966.666 269.707 967.211 269.15C967.756 268.594 968.526 268.315 969.522 268.315C969.897 268.315 970.27 268.365 970.639 268.465L970.551 269.783C970.275 269.73 969.982 269.704 969.672 269.704C969.145 269.704 968.737 269.859 968.45 270.17C968.163 270.475 968.02 270.914 968.02 271.488V272.49H970.05V273.747H968.02V282H966.394ZM974.058 270.188V272.49H975.833V273.747H974.058V279.645C974.058 280.025 974.137 280.312 974.295 280.506C974.453 280.693 974.723 280.787 975.104 280.787C975.291 280.787 975.549 280.752 975.877 280.682V282C975.449 282.117 975.033 282.176 974.629 282.176C973.902 282.176 973.354 281.956 972.985 281.517C972.616 281.077 972.432 280.453 972.432 279.645V273.747H970.7V272.49H972.432V270.188H974.058ZM980.852 279.618L983.066 272.49H984.807L980.983 283.468C980.392 285.05 979.451 285.841 978.162 285.841L977.854 285.814L977.248 285.7V284.382L977.688 284.417C978.238 284.417 978.666 284.306 978.971 284.083C979.281 283.86 979.536 283.453 979.735 282.861L980.096 281.895L976.703 272.49H978.479L980.852 279.618ZM996.602 282C996.508 281.812 996.432 281.479 996.373 280.998C995.617 281.783 994.715 282.176 993.666 282.176C992.729 282.176 991.958 281.912 991.354 281.385C990.757 280.852 990.458 280.178 990.458 279.363C990.458 278.373 990.833 277.605 991.583 277.061C992.339 276.51 993.399 276.234 994.765 276.234H996.347V275.487C996.347 274.919 996.177 274.468 995.837 274.134C995.497 273.794 994.996 273.624 994.334 273.624C993.754 273.624 993.268 273.771 992.875 274.063C992.482 274.356 992.286 274.711 992.286 275.127H990.651C990.651 274.652 990.818 274.195 991.152 273.756C991.492 273.311 991.949 272.959 992.523 272.701C993.104 272.443 993.739 272.314 994.431 272.314C995.526 272.314 996.385 272.59 997.006 273.141C997.627 273.686 997.949 274.438 997.973 275.399V279.776C997.973 280.649 998.084 281.344 998.307 281.859V282H996.602ZM993.903 280.761C994.413 280.761 994.896 280.629 995.354 280.365C995.811 280.102 996.142 279.759 996.347 279.337V277.386H995.072C993.08 277.386 992.084 277.969 992.084 279.135C992.084 279.645 992.254 280.043 992.594 280.33C992.934 280.617 993.37 280.761 993.903 280.761ZM1002.29 282H1000.66V268.5H1002.29V282ZM1006.67 282H1005.04V268.5H1006.67V282ZM937.768 300.478C937.768 300.038 937.601 299.698 937.267 299.458C936.938 299.212 936.361 299.001 935.535 298.825C934.715 298.649 934.062 298.438 933.575 298.192C933.095 297.946 932.737 297.653 932.503 297.313C932.274 296.974 932.16 296.569 932.16 296.101C932.16 295.321 932.488 294.662 933.145 294.123C933.807 293.584 934.65 293.314 935.676 293.314C936.754 293.314 937.627 293.593 938.295 294.149C938.969 294.706 939.306 295.418 939.306 296.285H937.671C937.671 295.84 937.48 295.456 937.1 295.134C936.725 294.812 936.25 294.65 935.676 294.65C935.084 294.65 934.621 294.779 934.287 295.037C933.953 295.295 933.786 295.632 933.786 296.048C933.786 296.44 933.941 296.736 934.252 296.936C934.562 297.135 935.122 297.325 935.931 297.507C936.745 297.688 937.404 297.905 937.908 298.157C938.412 298.409 938.784 298.714 939.024 299.071C939.271 299.423 939.394 299.854 939.394 300.363C939.394 301.213 939.054 301.896 938.374 302.411C937.694 302.921 936.812 303.176 935.729 303.176C934.967 303.176 934.293 303.041 933.707 302.771C933.121 302.502 932.661 302.127 932.327 301.646C931.999 301.16 931.835 300.636 931.835 300.073H933.461C933.49 300.618 933.707 301.052 934.111 301.374C934.521 301.69 935.061 301.849 935.729 301.849C936.344 301.849 936.836 301.726 937.205 301.479C937.58 301.228 937.768 300.894 937.768 300.478ZM947.383 302.06C946.75 302.804 945.821 303.176 944.597 303.176C943.583 303.176 942.81 302.883 942.276 302.297C941.749 301.705 941.482 300.832 941.477 299.678V293.49H943.103V299.634C943.103 301.075 943.688 301.796 944.86 301.796C946.103 301.796 946.929 301.333 947.339 300.407V293.49H948.965V303H947.418L947.383 302.06ZM959.494 298.351C959.494 299.804 959.16 300.973 958.492 301.857C957.824 302.736 956.928 303.176 955.803 303.176C954.602 303.176 953.673 302.751 953.017 301.901L952.938 303H951.443V289.5H953.069V294.536C953.726 293.722 954.631 293.314 955.785 293.314C956.939 293.314 957.845 293.751 958.501 294.624C959.163 295.497 959.494 296.692 959.494 298.21V298.351ZM957.868 298.166C957.868 297.059 957.654 296.203 957.227 295.6C956.799 294.996 956.184 294.694 955.381 294.694C954.309 294.694 953.538 295.192 953.069 296.188V300.302C953.567 301.298 954.344 301.796 955.398 301.796C956.178 301.796 956.784 301.494 957.218 300.891C957.651 300.287 957.868 299.379 957.868 298.166ZM967.088 300.478C967.088 300.038 966.921 299.698 966.587 299.458C966.259 299.212 965.682 299.001 964.855 298.825C964.035 298.649 963.382 298.438 962.896 298.192C962.415 297.946 962.058 297.653 961.823 297.313C961.595 296.974 961.48 296.569 961.48 296.101C961.48 295.321 961.809 294.662 962.465 294.123C963.127 293.584 963.971 293.314 964.996 293.314C966.074 293.314 966.947 293.593 967.615 294.149C968.289 294.706 968.626 295.418 968.626 296.285H966.991C966.991 295.84 966.801 295.456 966.42 295.134C966.045 294.812 965.57 294.65 964.996 294.65C964.404 294.65 963.941 294.779 963.607 295.037C963.273 295.295 963.106 295.632 963.106 296.048C963.106 296.44 963.262 296.736 963.572 296.936C963.883 297.135 964.442 297.325 965.251 297.507C966.065 297.688 966.725 297.905 967.229 298.157C967.732 298.409 968.104 298.714 968.345 299.071C968.591 299.423 968.714 299.854 968.714 300.363C968.714 301.213 968.374 301.896 967.694 302.411C967.015 302.921 966.133 303.176 965.049 303.176C964.287 303.176 963.613 303.041 963.027 302.771C962.441 302.502 961.981 302.127 961.647 301.646C961.319 301.16 961.155 300.636 961.155 300.073H962.781C962.811 300.618 963.027 301.052 963.432 301.374C963.842 301.69 964.381 301.849 965.049 301.849C965.664 301.849 966.156 301.726 966.525 301.479C966.9 301.228 967.088 300.894 967.088 300.478ZM974.646 301.849C975.227 301.849 975.733 301.673 976.167 301.321C976.601 300.97 976.841 300.53 976.888 300.003H978.426C978.396 300.548 978.209 301.066 977.863 301.559C977.518 302.051 977.055 302.443 976.475 302.736C975.9 303.029 975.291 303.176 974.646 303.176C973.352 303.176 972.32 302.745 971.553 301.884C970.791 301.017 970.41 299.833 970.41 298.333V298.061C970.41 297.135 970.58 296.312 970.92 295.591C971.26 294.87 971.746 294.311 972.379 293.912C973.018 293.514 973.771 293.314 974.638 293.314C975.704 293.314 976.589 293.634 977.292 294.272C978.001 294.911 978.379 295.74 978.426 296.76H976.888C976.841 296.145 976.606 295.641 976.185 295.248C975.769 294.85 975.253 294.65 974.638 294.65C973.812 294.65 973.17 294.949 972.713 295.547C972.262 296.139 972.036 296.997 972.036 298.122V298.43C972.036 299.525 972.262 300.369 972.713 300.961C973.164 301.553 973.809 301.849 974.646 301.849ZM984.851 294.949C984.604 294.908 984.338 294.888 984.051 294.888C982.984 294.888 982.261 295.342 981.88 296.25V303H980.254V293.49H981.836L981.862 294.589C982.396 293.739 983.151 293.314 984.13 293.314C984.446 293.314 984.687 293.355 984.851 293.438V294.949ZM988.12 303H986.494V293.49H988.12V303ZM986.362 290.968C986.362 290.704 986.441 290.481 986.6 290.3C986.764 290.118 987.004 290.027 987.32 290.027C987.637 290.027 987.877 290.118 988.041 290.3C988.205 290.481 988.287 290.704 988.287 290.968C988.287 291.231 988.205 291.451 988.041 291.627C987.877 291.803 987.637 291.891 987.32 291.891C987.004 291.891 986.764 291.803 986.6 291.627C986.441 291.451 986.362 291.231 986.362 290.968ZM998.781 298.351C998.781 299.804 998.447 300.973 997.779 301.857C997.111 302.736 996.215 303.176 995.09 303.176C993.889 303.176 992.96 302.751 992.304 301.901L992.225 303H990.73V289.5H992.356V294.536C993.013 293.722 993.918 293.314 995.072 293.314C996.227 293.314 997.132 293.751 997.788 294.624C998.45 295.497 998.781 296.692 998.781 298.21V298.351ZM997.155 298.166C997.155 297.059 996.941 296.203 996.514 295.6C996.086 294.996 995.471 294.694 994.668 294.694C993.596 294.694 992.825 295.192 992.356 296.188V300.302C992.854 301.298 993.631 301.796 994.686 301.796C995.465 301.796 996.071 301.494 996.505 300.891C996.938 300.287 997.155 299.379 997.155 298.166ZM1004.78 303.176C1003.5 303.176 1002.45 302.754 1001.64 301.91C1000.83 301.061 1000.42 299.927 1000.42 298.509V298.21C1000.42 297.267 1000.6 296.426 1000.96 295.688C1001.32 294.943 1001.83 294.363 1002.47 293.947C1003.12 293.525 1003.83 293.314 1004.58 293.314C1005.82 293.314 1006.78 293.722 1007.46 294.536C1008.15 295.351 1008.49 296.517 1008.49 298.034V298.711H1002.05C1002.07 299.648 1002.35 300.407 1002.87 300.987C1003.4 301.562 1004.06 301.849 1004.87 301.849C1005.45 301.849 1005.93 301.731 1006.33 301.497C1006.73 301.263 1007.08 300.952 1007.38 300.565L1008.37 301.339C1007.57 302.563 1006.38 303.176 1004.78 303.176ZM1004.58 294.65C1003.93 294.65 1003.38 294.891 1002.93 295.371C1002.48 295.846 1002.21 296.514 1002.1 297.375H1006.87V297.252C1006.82 296.426 1006.6 295.787 1006.2 295.336C1005.8 294.879 1005.26 294.65 1004.58 294.65ZM1014.98 294.949C1014.73 294.908 1014.47 294.888 1014.18 294.888C1013.11 294.888 1012.39 295.342 1012.01 296.25V303H1010.38V293.49H1011.96L1011.99 294.589C1012.52 293.739 1013.28 293.314 1014.26 293.314C1014.58 293.314 1014.82 293.355 1014.98 293.438V294.949ZM1022.02 300.478C1022.02 300.038 1021.85 299.698 1021.52 299.458C1021.19 299.212 1020.61 299.001 1019.79 298.825C1018.97 298.649 1018.31 298.438 1017.83 298.192C1017.35 297.946 1016.99 297.653 1016.75 297.313C1016.53 296.974 1016.41 296.569 1016.41 296.101C1016.41 295.321 1016.74 294.662 1017.4 294.123C1018.06 293.584 1018.9 293.314 1019.93 293.314C1021.01 293.314 1021.88 293.593 1022.55 294.149C1023.22 294.706 1023.56 295.418 1023.56 296.285H1021.92C1021.92 295.84 1021.73 295.456 1021.35 295.134C1020.98 294.812 1020.5 294.65 1019.93 294.65C1019.34 294.65 1018.87 294.779 1018.54 295.037C1018.21 295.295 1018.04 295.632 1018.04 296.048C1018.04 296.44 1018.19 296.736 1018.5 296.936C1018.81 297.135 1019.37 297.325 1020.18 297.507C1021 297.688 1021.66 297.905 1022.16 298.157C1022.66 298.409 1023.04 298.714 1023.28 299.071C1023.52 299.423 1023.65 299.854 1023.65 300.363C1023.65 301.213 1023.31 301.896 1022.63 302.411C1021.95 302.921 1021.06 303.176 1019.98 303.176C1019.22 303.176 1018.54 303.041 1017.96 302.771C1017.37 302.502 1016.91 302.127 1016.58 301.646C1016.25 301.16 1016.09 300.636 1016.09 300.073H1017.71C1017.74 300.618 1017.96 301.052 1018.36 301.374C1018.77 301.69 1019.31 301.849 1019.98 301.849C1020.6 301.849 1021.09 301.726 1021.46 301.479C1021.83 301.228 1022.02 300.894 1022.02 300.478ZM1026.09 304.099H1024.69L1030.04 290.203H1031.42L1026.09 304.099ZM1037 301.849C1037.58 301.849 1038.08 301.673 1038.52 301.321C1038.95 300.97 1039.19 300.53 1039.24 300.003H1040.78C1040.75 300.548 1040.56 301.066 1040.21 301.559C1039.87 302.051 1039.4 302.443 1038.82 302.736C1038.25 303.029 1037.64 303.176 1037 303.176C1035.7 303.176 1034.67 302.745 1033.9 301.884C1033.14 301.017 1032.76 299.833 1032.76 298.333V298.061C1032.76 297.135 1032.93 296.312 1033.27 295.591C1033.61 294.87 1034.1 294.311 1034.73 293.912C1035.37 293.514 1036.12 293.314 1036.99 293.314C1038.05 293.314 1038.94 293.634 1039.64 294.272C1040.35 294.911 1040.73 295.74 1040.78 296.76H1039.24C1039.19 296.145 1038.96 295.641 1038.53 295.248C1038.12 294.85 1037.6 294.65 1036.99 294.65C1036.16 294.65 1035.52 294.949 1035.06 295.547C1034.61 296.139 1034.39 296.997 1034.39 298.122V298.43C1034.39 299.525 1034.61 300.369 1035.06 300.961C1035.51 301.553 1036.16 301.849 1037 301.849ZM1042.17 298.157C1042.17 297.226 1042.35 296.388 1042.72 295.644C1043.09 294.899 1043.6 294.325 1044.25 293.921C1044.9 293.517 1045.65 293.314 1046.49 293.314C1047.78 293.314 1048.83 293.763 1049.63 294.659C1050.43 295.556 1050.83 296.748 1050.83 298.236V298.351C1050.83 299.276 1050.65 300.108 1050.29 300.847C1049.94 301.579 1049.44 302.15 1048.77 302.561C1048.12 302.971 1047.36 303.176 1046.51 303.176C1045.22 303.176 1044.17 302.728 1043.37 301.831C1042.57 300.935 1042.17 299.748 1042.17 298.271V298.157ZM1043.81 298.351C1043.81 299.405 1044.05 300.252 1044.54 300.891C1045.03 301.529 1045.69 301.849 1046.51 301.849C1047.33 301.849 1047.99 301.526 1048.47 300.882C1048.96 300.231 1049.2 299.323 1049.2 298.157C1049.2 297.114 1048.96 296.271 1048.46 295.626C1047.96 294.976 1047.31 294.65 1046.49 294.65C1045.69 294.65 1045.04 294.97 1044.55 295.608C1044.05 296.247 1043.81 297.161 1043.81 298.351ZM1054.4 293.49L1054.44 294.545C1055.14 293.725 1056.08 293.314 1057.26 293.314C1058.59 293.314 1059.5 293.824 1059.98 294.844C1060.3 294.387 1060.71 294.018 1061.21 293.736C1061.72 293.455 1062.32 293.314 1063.01 293.314C1065.1 293.314 1066.16 294.419 1066.19 296.628V303H1064.57V296.725C1064.57 296.045 1064.41 295.538 1064.1 295.204C1063.79 294.864 1063.27 294.694 1062.54 294.694C1061.93 294.694 1061.43 294.876 1061.03 295.239C1060.64 295.597 1060.4 296.08 1060.34 296.689V303H1058.71V296.769C1058.71 295.386 1058.03 294.694 1056.67 294.694C1055.61 294.694 1054.88 295.148 1054.49 296.057V303H1052.86V293.49H1054.4ZM1076.69 298.351C1076.69 299.798 1076.36 300.964 1075.69 301.849C1075.03 302.733 1074.14 303.176 1073 303.176C1071.85 303.176 1070.94 302.81 1070.28 302.077V306.656H1068.65V293.49H1070.14L1070.22 294.545C1070.88 293.725 1071.8 293.314 1072.98 293.314C1074.12 293.314 1075.02 293.745 1075.69 294.606C1076.35 295.468 1076.69 296.666 1076.69 298.201V298.351ZM1075.06 298.166C1075.06 297.094 1074.83 296.247 1074.38 295.626C1073.92 295.005 1073.29 294.694 1072.5 294.694C1071.51 294.694 1070.77 295.131 1070.28 296.004V300.548C1070.77 301.415 1071.51 301.849 1072.51 301.849C1073.29 301.849 1073.91 301.541 1074.37 300.926C1074.83 300.305 1075.06 299.385 1075.06 298.166ZM1078.33 298.157C1078.33 297.226 1078.51 296.388 1078.88 295.644C1079.25 294.899 1079.75 294.325 1080.41 293.921C1081.06 293.517 1081.81 293.314 1082.65 293.314C1083.94 293.314 1084.99 293.763 1085.78 294.659C1086.59 295.556 1086.99 296.748 1086.99 298.236V298.351C1086.99 299.276 1086.81 300.108 1086.45 300.847C1086.1 301.579 1085.59 302.15 1084.93 302.561C1084.28 302.971 1083.52 303.176 1082.66 303.176C1081.38 303.176 1080.33 302.728 1079.53 301.831C1078.73 300.935 1078.33 299.748 1078.33 298.271V298.157ZM1079.97 298.351C1079.97 299.405 1080.21 300.252 1080.7 300.891C1081.19 301.529 1081.84 301.849 1082.66 301.849C1083.49 301.849 1084.15 301.526 1084.63 300.882C1085.12 300.231 1085.36 299.323 1085.36 298.157C1085.36 297.114 1085.11 296.271 1084.62 295.626C1084.12 294.976 1083.47 294.65 1082.65 294.65C1081.84 294.65 1081.2 294.97 1080.7 295.608C1080.21 296.247 1079.97 297.161 1079.97 298.351ZM1090.57 293.49L1090.62 294.686C1091.34 293.771 1092.29 293.314 1093.47 293.314C1095.48 293.314 1096.49 294.448 1096.51 296.716V303H1094.88V296.707C1094.88 296.021 1094.72 295.515 1094.41 295.187C1094.1 294.858 1093.62 294.694 1092.97 294.694C1092.45 294.694 1091.98 294.835 1091.58 295.116C1091.19 295.397 1090.88 295.767 1090.65 296.224V303H1089.03V293.49H1090.57ZM1102.91 303.176C1101.62 303.176 1100.57 302.754 1099.76 301.91C1098.95 301.061 1098.55 299.927 1098.55 298.509V298.21C1098.55 297.267 1098.72 296.426 1099.08 295.688C1099.45 294.943 1099.95 294.363 1100.59 293.947C1101.24 293.525 1101.95 293.314 1102.7 293.314C1103.94 293.314 1104.9 293.722 1105.59 294.536C1106.27 295.351 1106.61 296.517 1106.61 298.034V298.711H1100.17C1100.2 299.648 1100.47 300.407 1100.99 300.987C1101.52 301.562 1102.18 301.849 1102.99 301.849C1103.57 301.849 1104.05 301.731 1104.45 301.497C1104.85 301.263 1105.2 300.952 1105.5 300.565L1106.49 301.339C1105.69 302.563 1104.5 303.176 1102.91 303.176ZM1102.7 294.65C1102.05 294.65 1101.5 294.891 1101.05 295.371C1100.61 295.846 1100.33 296.514 1100.22 297.375H1104.99V297.252C1104.94 296.426 1104.72 295.787 1104.32 295.336C1103.92 294.879 1103.38 294.65 1102.7 294.65ZM1110.04 293.49L1110.09 294.686C1110.82 293.771 1111.77 293.314 1112.94 293.314C1114.95 293.314 1115.97 294.448 1115.98 296.716V303H1114.36V296.707C1114.35 296.021 1114.19 295.515 1113.88 295.187C1113.58 294.858 1113.1 294.694 1112.45 294.694C1111.92 294.694 1111.46 294.835 1111.06 295.116C1110.66 295.397 1110.35 295.767 1110.13 296.224V303H1108.5V293.49H1110.04ZM1120.64 291.188V293.49H1122.42V294.747H1120.64V300.645C1120.64 301.025 1120.72 301.312 1120.88 301.506C1121.04 301.693 1121.31 301.787 1121.69 301.787C1121.88 301.787 1122.13 301.752 1122.46 301.682V303C1122.03 303.117 1121.62 303.176 1121.21 303.176C1120.49 303.176 1119.94 302.956 1119.57 302.517C1119.2 302.077 1119.02 301.453 1119.02 300.645V294.747H1117.28V293.49H1119.02V291.188H1120.64ZM1129.86 300.478C1129.86 300.038 1129.69 299.698 1129.36 299.458C1129.03 299.212 1128.46 299.001 1127.63 298.825C1126.81 298.649 1126.16 298.438 1125.67 298.192C1125.19 297.946 1124.83 297.653 1124.6 297.313C1124.37 296.974 1124.25 296.569 1124.25 296.101C1124.25 295.321 1124.58 294.662 1125.24 294.123C1125.9 293.584 1126.74 293.314 1127.77 293.314C1128.85 293.314 1129.72 293.593 1130.39 294.149C1131.06 294.706 1131.4 295.418 1131.4 296.285H1129.76C1129.76 295.84 1129.57 295.456 1129.19 295.134C1128.82 294.812 1128.34 294.65 1127.77 294.65C1127.18 294.65 1126.71 294.779 1126.38 295.037C1126.05 295.295 1125.88 295.632 1125.88 296.048C1125.88 296.44 1126.04 296.736 1126.35 296.936C1126.66 297.135 1127.22 297.325 1128.02 297.507C1128.84 297.688 1129.5 297.905 1130 298.157C1130.51 298.409 1130.88 298.714 1131.12 299.071C1131.36 299.423 1131.49 299.854 1131.49 300.363C1131.49 301.213 1131.15 301.896 1130.47 302.411C1129.79 302.921 1128.91 303.176 1127.82 303.176C1127.06 303.176 1126.39 303.041 1125.8 302.771C1125.21 302.502 1124.75 302.127 1124.42 301.646C1124.09 301.16 1123.93 300.636 1123.93 300.073H1125.55C1125.58 300.618 1125.8 301.052 1126.21 301.374C1126.62 301.69 1127.15 301.849 1127.82 301.849C1128.44 301.849 1128.93 301.726 1129.3 301.479C1129.67 301.228 1129.86 300.894 1129.86 300.478Z" fill="#9C9C9C"/>
<path d="M574.485 434V421.203H578.098C579.211 421.203 580.195 421.449 581.051 421.941C581.906 422.434 582.565 423.134 583.028 424.042C583.497 424.95 583.734 425.993 583.74 427.171V427.988C583.74 429.195 583.506 430.253 583.037 431.161C582.574 432.069 581.909 432.767 581.042 433.253C580.181 433.739 579.176 433.988 578.027 434H574.485ZM576.173 422.592V432.62H577.948C579.249 432.62 580.26 432.216 580.98 431.407C581.707 430.599 582.07 429.447 582.07 427.953V427.206C582.07 425.753 581.728 424.625 581.042 423.822C580.362 423.014 579.396 422.604 578.142 422.592H576.173ZM587.81 434H586.184V424.49H587.81V434ZM586.052 421.968C586.052 421.704 586.131 421.481 586.289 421.3C586.453 421.118 586.693 421.027 587.01 421.027C587.326 421.027 587.566 421.118 587.73 421.3C587.895 421.481 587.977 421.704 587.977 421.968C587.977 422.231 587.895 422.451 587.73 422.627C587.566 422.803 587.326 422.891 587.01 422.891C586.693 422.891 586.453 422.803 586.289 422.627C586.131 422.451 586.052 422.231 586.052 421.968ZM595.957 431.478C595.957 431.038 595.79 430.698 595.456 430.458C595.128 430.212 594.551 430.001 593.725 429.825C592.904 429.649 592.251 429.438 591.765 429.192C591.284 428.946 590.927 428.653 590.692 428.313C590.464 427.974 590.35 427.569 590.35 427.101C590.35 426.321 590.678 425.662 591.334 425.123C591.996 424.584 592.84 424.314 593.865 424.314C594.943 424.314 595.816 424.593 596.484 425.149C597.158 425.706 597.495 426.418 597.495 427.285H595.86C595.86 426.84 595.67 426.456 595.289 426.134C594.914 425.812 594.439 425.65 593.865 425.65C593.273 425.65 592.811 425.779 592.477 426.037C592.143 426.295 591.976 426.632 591.976 427.048C591.976 427.44 592.131 427.736 592.441 427.936C592.752 428.135 593.312 428.325 594.12 428.507C594.935 428.688 595.594 428.905 596.098 429.157C596.602 429.409 596.974 429.714 597.214 430.071C597.46 430.423 597.583 430.854 597.583 431.363C597.583 432.213 597.243 432.896 596.563 433.411C595.884 433.921 595.002 434.176 593.918 434.176C593.156 434.176 592.482 434.041 591.896 433.771C591.311 433.502 590.851 433.127 590.517 432.646C590.188 432.16 590.024 431.636 590.024 431.073H591.65C591.68 431.618 591.896 432.052 592.301 432.374C592.711 432.69 593.25 432.849 593.918 432.849C594.533 432.849 595.025 432.726 595.395 432.479C595.77 432.228 595.957 431.894 595.957 431.478ZM607.734 429.351C607.734 430.798 607.403 431.964 606.741 432.849C606.079 433.733 605.183 434.176 604.052 434.176C602.897 434.176 601.989 433.81 601.327 433.077V437.656H599.701V424.49H601.187L601.266 425.545C601.928 424.725 602.848 424.314 604.025 424.314C605.168 424.314 606.07 424.745 606.732 425.606C607.4 426.468 607.734 427.666 607.734 429.201V429.351ZM606.108 429.166C606.108 428.094 605.88 427.247 605.423 426.626C604.966 426.005 604.339 425.694 603.542 425.694C602.558 425.694 601.819 426.131 601.327 427.004V431.548C601.813 432.415 602.558 432.849 603.56 432.849C604.339 432.849 604.957 432.541 605.414 431.926C605.877 431.305 606.108 430.385 606.108 429.166ZM615.68 434C615.586 433.812 615.51 433.479 615.451 432.998C614.695 433.783 613.793 434.176 612.744 434.176C611.807 434.176 611.036 433.912 610.433 433.385C609.835 432.852 609.536 432.178 609.536 431.363C609.536 430.373 609.911 429.605 610.661 429.061C611.417 428.51 612.478 428.234 613.843 428.234H615.425V427.487C615.425 426.919 615.255 426.468 614.915 426.134C614.575 425.794 614.074 425.624 613.412 425.624C612.832 425.624 612.346 425.771 611.953 426.063C611.561 426.356 611.364 426.711 611.364 427.127H609.729C609.729 426.652 609.896 426.195 610.23 425.756C610.57 425.311 611.027 424.959 611.602 424.701C612.182 424.443 612.817 424.314 613.509 424.314C614.604 424.314 615.463 424.59 616.084 425.141C616.705 425.686 617.027 426.438 617.051 427.399V431.776C617.051 432.649 617.162 433.344 617.385 433.859V434H615.68ZM612.981 432.761C613.491 432.761 613.975 432.629 614.432 432.365C614.889 432.102 615.22 431.759 615.425 431.337V429.386H614.15C612.158 429.386 611.162 429.969 611.162 431.135C611.162 431.645 611.332 432.043 611.672 432.33C612.012 432.617 612.448 432.761 612.981 432.761ZM621.806 422.188V424.49H623.581V425.747H621.806V431.645C621.806 432.025 621.885 432.312 622.043 432.506C622.201 432.693 622.471 432.787 622.852 432.787C623.039 432.787 623.297 432.752 623.625 432.682V434C623.197 434.117 622.781 434.176 622.377 434.176C621.65 434.176 621.103 433.956 620.733 433.517C620.364 433.077 620.18 432.453 620.18 431.645V425.747H618.448V424.49H620.18V422.188H621.806ZM629.303 432.849C629.883 432.849 630.39 432.673 630.823 432.321C631.257 431.97 631.497 431.53 631.544 431.003H633.082C633.053 431.548 632.865 432.066 632.52 432.559C632.174 433.051 631.711 433.443 631.131 433.736C630.557 434.029 629.947 434.176 629.303 434.176C628.008 434.176 626.977 433.745 626.209 432.884C625.447 432.017 625.066 430.833 625.066 429.333V429.061C625.066 428.135 625.236 427.312 625.576 426.591C625.916 425.87 626.402 425.311 627.035 424.912C627.674 424.514 628.427 424.314 629.294 424.314C630.36 424.314 631.245 424.634 631.948 425.272C632.657 425.911 633.035 426.74 633.082 427.76H631.544C631.497 427.145 631.263 426.641 630.841 426.248C630.425 425.85 629.909 425.65 629.294 425.65C628.468 425.65 627.826 425.949 627.369 426.547C626.918 427.139 626.692 427.997 626.692 429.122V429.43C626.692 430.525 626.918 431.369 627.369 431.961C627.82 432.553 628.465 432.849 629.303 432.849ZM636.536 425.642C637.257 424.757 638.194 424.314 639.349 424.314C641.358 424.314 642.372 425.448 642.39 427.716V434H640.764V427.707C640.758 427.021 640.6 426.515 640.289 426.187C639.984 425.858 639.507 425.694 638.856 425.694C638.329 425.694 637.866 425.835 637.468 426.116C637.069 426.397 636.759 426.767 636.536 427.224V434H634.91V420.5H636.536V425.642ZM655.16 434C655.066 433.812 654.99 433.479 654.932 432.998C654.176 433.783 653.273 434.176 652.225 434.176C651.287 434.176 650.517 433.912 649.913 433.385C649.315 432.852 649.017 432.178 649.017 431.363C649.017 430.373 649.392 429.605 650.142 429.061C650.897 428.51 651.958 428.234 653.323 428.234H654.905V427.487C654.905 426.919 654.735 426.468 654.396 426.134C654.056 425.794 653.555 425.624 652.893 425.624C652.312 425.624 651.826 425.771 651.434 426.063C651.041 426.356 650.845 426.711 650.845 427.127H649.21C649.21 426.652 649.377 426.195 649.711 425.756C650.051 425.311 650.508 424.959 651.082 424.701C651.662 424.443 652.298 424.314 652.989 424.314C654.085 424.314 654.943 424.59 655.564 425.141C656.186 425.686 656.508 426.438 656.531 427.399V431.776C656.531 432.649 656.643 433.344 656.865 433.859V434H655.16ZM652.462 432.761C652.972 432.761 653.455 432.629 653.912 432.365C654.369 432.102 654.7 431.759 654.905 431.337V429.386H653.631C651.639 429.386 650.643 429.969 650.643 431.135C650.643 431.645 650.812 432.043 651.152 432.33C651.492 432.617 651.929 432.761 652.462 432.761ZM662.895 432.849C663.475 432.849 663.981 432.673 664.415 432.321C664.849 431.97 665.089 431.53 665.136 431.003H666.674C666.645 431.548 666.457 432.066 666.111 432.559C665.766 433.051 665.303 433.443 664.723 433.736C664.148 434.029 663.539 434.176 662.895 434.176C661.6 434.176 660.568 433.745 659.801 432.884C659.039 432.017 658.658 430.833 658.658 429.333V429.061C658.658 428.135 658.828 427.312 659.168 426.591C659.508 425.87 659.994 425.311 660.627 424.912C661.266 424.514 662.019 424.314 662.886 424.314C663.952 424.314 664.837 424.634 665.54 425.272C666.249 425.911 666.627 426.74 666.674 427.76H665.136C665.089 427.145 664.854 426.641 664.433 426.248C664.017 425.85 663.501 425.65 662.886 425.65C662.06 425.65 661.418 425.949 660.961 426.547C660.51 427.139 660.284 427.997 660.284 429.122V429.43C660.284 430.525 660.51 431.369 660.961 431.961C661.412 432.553 662.057 432.849 662.895 432.849ZM670.708 422.188V424.49H672.483V425.747H670.708V431.645C670.708 432.025 670.787 432.312 670.945 432.506C671.104 432.693 671.373 432.787 671.754 432.787C671.941 432.787 672.199 432.752 672.527 432.682V434C672.1 434.117 671.684 434.176 671.279 434.176C670.553 434.176 670.005 433.956 669.636 433.517C669.267 433.077 669.082 432.453 669.082 431.645V425.747H667.351V424.49H669.082V422.188H670.708ZM676.157 434H674.531V424.49H676.157V434ZM674.399 421.968C674.399 421.704 674.479 421.481 674.637 421.3C674.801 421.118 675.041 421.027 675.357 421.027C675.674 421.027 675.914 421.118 676.078 421.3C676.242 421.481 676.324 421.704 676.324 421.968C676.324 422.231 676.242 422.451 676.078 422.627C675.914 422.803 675.674 422.891 675.357 422.891C675.041 422.891 674.801 422.803 674.637 422.627C674.479 422.451 674.399 422.231 674.399 421.968ZM678.337 429.157C678.337 428.226 678.519 427.388 678.882 426.644C679.251 425.899 679.761 425.325 680.411 424.921C681.067 424.517 681.814 424.314 682.652 424.314C683.947 424.314 684.993 424.763 685.79 425.659C686.593 426.556 686.994 427.748 686.994 429.236V429.351C686.994 430.276 686.815 431.108 686.458 431.847C686.106 432.579 685.6 433.15 684.938 433.561C684.281 433.971 683.525 434.176 682.67 434.176C681.381 434.176 680.335 433.728 679.532 432.831C678.735 431.935 678.337 430.748 678.337 429.271V429.157ZM679.972 429.351C679.972 430.405 680.215 431.252 680.701 431.891C681.193 432.529 681.85 432.849 682.67 432.849C683.496 432.849 684.152 432.526 684.639 431.882C685.125 431.231 685.368 430.323 685.368 429.157C685.368 428.114 685.119 427.271 684.621 426.626C684.129 425.976 683.473 425.65 682.652 425.65C681.85 425.65 681.202 425.97 680.71 426.608C680.218 427.247 679.972 428.161 679.972 429.351ZM690.571 424.49L690.624 425.686C691.351 424.771 692.3 424.314 693.472 424.314C695.481 424.314 696.495 425.448 696.513 427.716V434H694.887V427.707C694.881 427.021 694.723 426.515 694.412 426.187C694.107 425.858 693.63 425.694 692.979 425.694C692.452 425.694 691.989 425.835 691.591 426.116C691.192 426.397 690.882 426.767 690.659 427.224V434H689.033V424.49H690.571Z" fill="#9C9C9C"/>
<path d="M248.179 225.823H245.173V231H243.477V218.203H247.713C249.154 218.203 250.262 218.531 251.035 219.188C251.814 219.844 252.204 220.799 252.204 222.053C252.204 222.85 251.987 223.544 251.554 224.136C251.126 224.728 250.528 225.17 249.761 225.463L252.767 230.895V231H250.956L248.179 225.823ZM245.173 224.443H247.766C248.604 224.443 249.269 224.227 249.761 223.793C250.259 223.359 250.508 222.779 250.508 222.053C250.508 221.262 250.271 220.655 249.796 220.233C249.327 219.812 248.647 219.598 247.757 219.592H245.173V224.443ZM258.269 231.176C256.979 231.176 255.931 230.754 255.122 229.91C254.313 229.061 253.909 227.927 253.909 226.509V226.21C253.909 225.267 254.088 224.426 254.445 223.688C254.809 222.943 255.312 222.363 255.957 221.947C256.607 221.525 257.311 221.314 258.066 221.314C259.303 221.314 260.264 221.722 260.949 222.536C261.635 223.351 261.978 224.517 261.978 226.034V226.711H255.535C255.559 227.648 255.831 228.407 256.353 228.987C256.88 229.562 257.548 229.849 258.356 229.849C258.931 229.849 259.417 229.731 259.815 229.497C260.214 229.263 260.562 228.952 260.861 228.565L261.854 229.339C261.058 230.563 259.862 231.176 258.269 231.176ZM258.066 222.65C257.41 222.65 256.859 222.891 256.414 223.371C255.969 223.846 255.693 224.514 255.588 225.375H260.352V225.252C260.305 224.426 260.082 223.787 259.684 223.336C259.285 222.879 258.746 222.65 258.066 222.65ZM263.472 226.166C263.472 224.707 263.817 223.535 264.509 222.65C265.2 221.76 266.105 221.314 267.225 221.314C268.338 221.314 269.22 221.695 269.87 222.457V217.5H271.496V231H270.002L269.923 229.98C269.272 230.777 268.367 231.176 267.207 231.176C266.105 231.176 265.206 230.725 264.509 229.822C263.817 228.92 263.472 227.742 263.472 226.289V226.166ZM265.098 226.351C265.098 227.429 265.32 228.272 265.766 228.882C266.211 229.491 266.826 229.796 267.611 229.796C268.643 229.796 269.396 229.333 269.87 228.407V224.039C269.384 223.143 268.637 222.694 267.629 222.694C266.832 222.694 266.211 223.002 265.766 223.617C265.32 224.232 265.098 225.144 265.098 226.351ZM279.898 230.06C279.266 230.804 278.337 231.176 277.112 231.176C276.099 231.176 275.325 230.883 274.792 230.297C274.265 229.705 273.998 228.832 273.992 227.678V221.49H275.618V227.634C275.618 229.075 276.204 229.796 277.376 229.796C278.618 229.796 279.444 229.333 279.854 228.407V221.49H281.48V231H279.934L279.898 230.06ZM287.149 224.962L289.259 221.49H291.157L288.046 226.192L291.254 231H289.373L287.176 227.44L284.979 231H283.089L286.297 226.192L283.186 221.49H285.066L287.149 224.962ZM297.898 231V222.747H296.396V221.49H297.898V220.682C297.898 219.621 298.2 218.795 298.804 218.203C299.413 217.611 300.271 217.315 301.379 217.315C302.035 217.315 302.864 217.494 303.866 217.852L303.594 219.223C302.861 218.93 302.164 218.783 301.502 218.783C300.805 218.783 300.301 218.941 299.99 219.258C299.686 219.568 299.533 220.037 299.533 220.664V221.49H301.476V222.747H299.533V231H297.898ZM304.675 231H303.04V221.49H304.675V231ZM308.858 221.49L308.911 222.686C309.638 221.771 310.587 221.314 311.759 221.314C313.769 221.314 314.782 222.448 314.8 224.716V231H313.174V224.707C313.168 224.021 313.01 223.515 312.699 223.187C312.395 222.858 311.917 222.694 311.267 222.694C310.739 222.694 310.276 222.835 309.878 223.116C309.479 223.397 309.169 223.767 308.946 224.224V231H307.32V221.49H308.858ZM316.856 226.166C316.856 224.707 317.202 223.535 317.894 222.65C318.585 221.76 319.49 221.314 320.609 221.314C321.723 221.314 322.604 221.695 323.255 222.457V217.5H324.881V231H323.387L323.308 229.98C322.657 230.777 321.752 231.176 320.592 231.176C319.49 231.176 318.591 230.725 317.894 229.822C317.202 228.92 316.856 227.742 316.856 226.289V226.166ZM318.482 226.351C318.482 227.429 318.705 228.272 319.15 228.882C319.596 229.491 320.211 229.796 320.996 229.796C322.027 229.796 322.78 229.333 323.255 228.407V224.039C322.769 223.143 322.021 222.694 321.014 222.694C320.217 222.694 319.596 223.002 319.15 223.617C318.705 224.232 318.482 225.144 318.482 226.351ZM332.949 228.478C332.949 228.038 332.782 227.698 332.448 227.458C332.12 227.212 331.543 227.001 330.717 226.825C329.896 226.649 329.243 226.438 328.757 226.192C328.276 225.946 327.919 225.653 327.685 225.313C327.456 224.974 327.342 224.569 327.342 224.101C327.342 223.321 327.67 222.662 328.326 222.123C328.988 221.584 329.832 221.314 330.857 221.314C331.936 221.314 332.809 221.593 333.477 222.149C334.15 222.706 334.487 223.418 334.487 224.285H332.853C332.853 223.84 332.662 223.456 332.281 223.134C331.906 222.812 331.432 222.65 330.857 222.65C330.266 222.65 329.803 222.779 329.469 223.037C329.135 223.295 328.968 223.632 328.968 224.048C328.968 224.44 329.123 224.736 329.434 224.936C329.744 225.135 330.304 225.325 331.112 225.507C331.927 225.688 332.586 225.905 333.09 226.157C333.594 226.409 333.966 226.714 334.206 227.071C334.452 227.423 334.575 227.854 334.575 228.363C334.575 229.213 334.235 229.896 333.556 230.411C332.876 230.921 331.994 231.176 330.91 231.176C330.148 231.176 329.475 231.041 328.889 230.771C328.303 230.502 327.843 230.127 327.509 229.646C327.181 229.16 327.017 228.636 327.017 228.073H328.643C328.672 228.618 328.889 229.052 329.293 229.374C329.703 229.69 330.242 229.849 330.91 229.849C331.525 229.849 332.018 229.726 332.387 229.479C332.762 229.228 332.949 228.894 332.949 228.478ZM347.029 231C346.936 230.812 346.859 230.479 346.801 229.998C346.045 230.783 345.143 231.176 344.094 231.176C343.156 231.176 342.386 230.912 341.782 230.385C341.185 229.852 340.886 229.178 340.886 228.363C340.886 227.373 341.261 226.605 342.011 226.061C342.767 225.51 343.827 225.234 345.192 225.234H346.774V224.487C346.774 223.919 346.604 223.468 346.265 223.134C345.925 222.794 345.424 222.624 344.762 222.624C344.182 222.624 343.695 222.771 343.303 223.063C342.91 223.356 342.714 223.711 342.714 224.127H341.079C341.079 223.652 341.246 223.195 341.58 222.756C341.92 222.311 342.377 221.959 342.951 221.701C343.531 221.443 344.167 221.314 344.858 221.314C345.954 221.314 346.812 221.59 347.434 222.141C348.055 222.686 348.377 223.438 348.4 224.399V228.776C348.4 229.649 348.512 230.344 348.734 230.859V231H347.029ZM344.331 229.761C344.841 229.761 345.324 229.629 345.781 229.365C346.238 229.102 346.569 228.759 346.774 228.337V226.386H345.5C343.508 226.386 342.512 226.969 342.512 228.135C342.512 228.645 342.682 229.043 343.021 229.33C343.361 229.617 343.798 229.761 344.331 229.761ZM358.982 226.351C358.982 227.798 358.651 228.964 357.989 229.849C357.327 230.733 356.431 231.176 355.3 231.176C354.146 231.176 353.237 230.81 352.575 230.077V234.656H350.949V221.49H352.435L352.514 222.545C353.176 221.725 354.096 221.314 355.273 221.314C356.416 221.314 357.318 221.745 357.98 222.606C358.648 223.468 358.982 224.666 358.982 226.201V226.351ZM357.356 226.166C357.356 225.094 357.128 224.247 356.671 223.626C356.214 223.005 355.587 222.694 354.79 222.694C353.806 222.694 353.067 223.131 352.575 224.004V228.548C353.062 229.415 353.806 229.849 354.808 229.849C355.587 229.849 356.205 229.541 356.662 228.926C357.125 228.305 357.356 227.385 357.356 226.166ZM369.09 226.351C369.09 227.798 368.759 228.964 368.097 229.849C367.435 230.733 366.538 231.176 365.407 231.176C364.253 231.176 363.345 230.81 362.683 230.077V234.656H361.057V221.49H362.542L362.621 222.545C363.283 221.725 364.203 221.314 365.381 221.314C366.523 221.314 367.426 221.745 368.088 222.606C368.756 223.468 369.09 224.666 369.09 226.201V226.351ZM367.464 226.166C367.464 225.094 367.235 224.247 366.778 223.626C366.321 223.005 365.694 222.694 364.897 222.694C363.913 222.694 363.175 223.131 362.683 224.004V228.548C363.169 229.415 363.913 229.849 364.915 229.849C365.694 229.849 366.312 229.541 366.77 228.926C367.232 228.305 367.464 227.385 367.464 226.166ZM375.761 222.949C375.515 222.908 375.248 222.888 374.961 222.888C373.895 222.888 373.171 223.342 372.79 224.25V231H371.164V221.49H372.746L372.772 222.589C373.306 221.739 374.062 221.314 375.04 221.314C375.356 221.314 375.597 221.355 375.761 221.438V222.949ZM376.657 226.157C376.657 225.226 376.839 224.388 377.202 223.644C377.571 222.899 378.081 222.325 378.731 221.921C379.388 221.517 380.135 221.314 380.973 221.314C382.268 221.314 383.313 221.763 384.11 222.659C384.913 223.556 385.314 224.748 385.314 226.236V226.351C385.314 227.276 385.136 228.108 384.778 228.847C384.427 229.579 383.92 230.15 383.258 230.561C382.602 230.971 381.846 231.176 380.99 231.176C379.701 231.176 378.655 230.728 377.853 229.831C377.056 228.935 376.657 227.748 376.657 226.271V226.157ZM378.292 226.351C378.292 227.405 378.535 228.252 379.021 228.891C379.514 229.529 380.17 229.849 380.99 229.849C381.816 229.849 382.473 229.526 382.959 228.882C383.445 228.231 383.688 227.323 383.688 226.157C383.688 225.114 383.439 224.271 382.941 223.626C382.449 222.976 381.793 222.65 380.973 222.65C380.17 222.65 379.522 222.97 379.03 223.608C378.538 224.247 378.292 225.161 378.292 226.351ZM395.387 226.351C395.387 227.798 395.056 228.964 394.394 229.849C393.731 230.733 392.835 231.176 391.704 231.176C390.55 231.176 389.642 230.81 388.979 230.077V234.656H387.354V221.49H388.839L388.918 222.545C389.58 221.725 390.5 221.314 391.678 221.314C392.82 221.314 393.723 221.745 394.385 222.606C395.053 223.468 395.387 224.666 395.387 226.201V226.351ZM393.761 226.166C393.761 225.094 393.532 224.247 393.075 223.626C392.618 223.005 391.991 222.694 391.194 222.694C390.21 222.694 389.472 223.131 388.979 224.004V228.548C389.466 229.415 390.21 229.849 391.212 229.849C391.991 229.849 392.609 229.541 393.066 228.926C393.529 228.305 393.761 227.385 393.761 226.166ZM402.058 222.949C401.812 222.908 401.545 222.888 401.258 222.888C400.191 222.888 399.468 223.342 399.087 224.25V231H397.461V221.49H399.043L399.069 222.589C399.603 221.739 400.358 221.314 401.337 221.314C401.653 221.314 401.894 221.355 402.058 221.438V222.949ZM405.327 231H403.701V221.49H405.327V231ZM403.569 218.968C403.569 218.704 403.648 218.481 403.807 218.3C403.971 218.118 404.211 218.027 404.527 218.027C404.844 218.027 405.084 218.118 405.248 218.3C405.412 218.481 405.494 218.704 405.494 218.968C405.494 219.231 405.412 219.451 405.248 219.627C405.084 219.803 404.844 219.891 404.527 219.891C404.211 219.891 403.971 219.803 403.807 219.627C403.648 219.451 403.569 219.231 403.569 218.968ZM413.809 231C413.715 230.812 413.639 230.479 413.58 229.998C412.824 230.783 411.922 231.176 410.873 231.176C409.936 231.176 409.165 230.912 408.562 230.385C407.964 229.852 407.665 229.178 407.665 228.363C407.665 227.373 408.04 226.605 408.79 226.061C409.546 225.51 410.606 225.234 411.972 225.234H413.554V224.487C413.554 223.919 413.384 223.468 413.044 223.134C412.704 222.794 412.203 222.624 411.541 222.624C410.961 222.624 410.475 222.771 410.082 223.063C409.689 223.356 409.493 223.711 409.493 224.127H407.858C407.858 223.652 408.025 223.195 408.359 222.756C408.699 222.311 409.156 221.959 409.73 221.701C410.311 221.443 410.946 221.314 411.638 221.314C412.733 221.314 413.592 221.59 414.213 222.141C414.834 222.686 415.156 223.438 415.18 224.399V228.776C415.18 229.649 415.291 230.344 415.514 230.859V231H413.809ZM411.11 229.761C411.62 229.761 412.104 229.629 412.561 229.365C413.018 229.102 413.349 228.759 413.554 228.337V226.386H412.279C410.287 226.386 409.291 226.969 409.291 228.135C409.291 228.645 409.461 229.043 409.801 229.33C410.141 229.617 410.577 229.761 411.11 229.761ZM419.935 219.188V221.49H421.71V222.747H419.935V228.645C419.935 229.025 420.014 229.312 420.172 229.506C420.33 229.693 420.6 229.787 420.98 229.787C421.168 229.787 421.426 229.752 421.754 229.682V231C421.326 231.117 420.91 231.176 420.506 231.176C419.779 231.176 419.231 230.956 418.862 230.517C418.493 230.077 418.309 229.453 418.309 228.645V222.747H416.577V221.49H418.309V219.188H419.935ZM427.563 231.176C426.274 231.176 425.226 230.754 424.417 229.91C423.608 229.061 423.204 227.927 423.204 226.509V226.21C423.204 225.267 423.383 224.426 423.74 223.688C424.104 222.943 424.607 222.363 425.252 221.947C425.902 221.525 426.605 221.314 427.361 221.314C428.598 221.314 429.559 221.722 430.244 222.536C430.93 223.351 431.272 224.517 431.272 226.034V226.711H424.83C424.854 227.648 425.126 228.407 425.647 228.987C426.175 229.562 426.843 229.849 427.651 229.849C428.226 229.849 428.712 229.731 429.11 229.497C429.509 229.263 429.857 228.952 430.156 228.565L431.149 229.339C430.353 230.563 429.157 231.176 427.563 231.176ZM427.361 222.65C426.705 222.65 426.154 222.891 425.709 223.371C425.264 223.846 424.988 224.514 424.883 225.375H429.646V225.252C429.6 224.426 429.377 223.787 428.979 223.336C428.58 222.879 428.041 222.65 427.361 222.65ZM247.827 243.949C247.581 243.908 247.314 243.888 247.027 243.888C245.961 243.888 245.237 244.342 244.856 245.25V252H243.23V242.49H244.812L244.839 243.589C245.372 242.739 246.128 242.314 247.106 242.314C247.423 242.314 247.663 242.355 247.827 242.438V243.949ZM253.101 252.176C251.812 252.176 250.763 251.754 249.954 250.91C249.146 250.061 248.741 248.927 248.741 247.509V247.21C248.741 246.267 248.92 245.426 249.277 244.688C249.641 243.943 250.145 243.363 250.789 242.947C251.439 242.525 252.143 242.314 252.898 242.314C254.135 242.314 255.096 242.722 255.781 243.536C256.467 244.351 256.81 245.517 256.81 247.034V247.711H250.367C250.391 248.648 250.663 249.407 251.185 249.987C251.712 250.562 252.38 250.849 253.188 250.849C253.763 250.849 254.249 250.731 254.647 250.497C255.046 250.263 255.395 249.952 255.693 249.565L256.687 250.339C255.89 251.563 254.694 252.176 253.101 252.176ZM252.898 243.65C252.242 243.65 251.691 243.891 251.246 244.371C250.801 244.846 250.525 245.514 250.42 246.375H255.184V246.252C255.137 245.426 254.914 244.787 254.516 244.336C254.117 243.879 253.578 243.65 252.898 243.65ZM258.304 247.166C258.304 245.707 258.649 244.535 259.341 243.65C260.032 242.76 260.938 242.314 262.057 242.314C263.17 242.314 264.052 242.695 264.702 243.457V238.5H266.328V252H264.834L264.755 250.98C264.104 251.777 263.199 252.176 262.039 252.176C260.938 252.176 260.038 251.725 259.341 250.822C258.649 249.92 258.304 248.742 258.304 247.289V247.166ZM259.93 247.351C259.93 248.429 260.152 249.272 260.598 249.882C261.043 250.491 261.658 250.796 262.443 250.796C263.475 250.796 264.228 250.333 264.702 249.407V245.039C264.216 244.143 263.469 243.694 262.461 243.694C261.664 243.694 261.043 244.002 260.598 244.617C260.152 245.232 259.93 246.144 259.93 247.351ZM274.73 251.06C274.098 251.804 273.169 252.176 271.944 252.176C270.931 252.176 270.157 251.883 269.624 251.297C269.097 250.705 268.83 249.832 268.824 248.678V242.49H270.45V248.634C270.45 250.075 271.036 250.796 272.208 250.796C273.45 250.796 274.276 250.333 274.687 249.407V242.49H276.312V252H274.766L274.73 251.06ZM282.605 250.849C283.186 250.849 283.692 250.673 284.126 250.321C284.56 249.97 284.8 249.53 284.847 249.003H286.385C286.355 249.548 286.168 250.066 285.822 250.559C285.477 251.051 285.014 251.443 284.434 251.736C283.859 252.029 283.25 252.176 282.605 252.176C281.311 252.176 280.279 251.745 279.512 250.884C278.75 250.017 278.369 248.833 278.369 247.333V247.061C278.369 246.135 278.539 245.312 278.879 244.591C279.219 243.87 279.705 243.311 280.338 242.912C280.977 242.514 281.729 242.314 282.597 242.314C283.663 242.314 284.548 242.634 285.251 243.272C285.96 243.911 286.338 244.74 286.385 245.76H284.847C284.8 245.145 284.565 244.641 284.144 244.248C283.728 243.85 283.212 243.65 282.597 243.65C281.771 243.65 281.129 243.949 280.672 244.547C280.221 245.139 279.995 245.997 279.995 247.122V247.43C279.995 248.525 280.221 249.369 280.672 249.961C281.123 250.553 281.768 250.849 282.605 250.849ZM292.159 252.176C290.87 252.176 289.821 251.754 289.013 250.91C288.204 250.061 287.8 248.927 287.8 247.509V247.21C287.8 246.267 287.979 245.426 288.336 244.688C288.699 243.943 289.203 243.363 289.848 242.947C290.498 242.525 291.201 242.314 291.957 242.314C293.193 242.314 294.154 242.722 294.84 243.536C295.525 244.351 295.868 245.517 295.868 247.034V247.711H289.426C289.449 248.648 289.722 249.407 290.243 249.987C290.771 250.562 291.438 250.849 292.247 250.849C292.821 250.849 293.308 250.731 293.706 250.497C294.104 250.263 294.453 249.952 294.752 249.565L295.745 250.339C294.948 251.563 293.753 252.176 292.159 252.176ZM291.957 243.65C291.301 243.65 290.75 243.891 290.305 244.371C289.859 244.846 289.584 245.514 289.479 246.375H294.242V246.252C294.195 245.426 293.973 244.787 293.574 244.336C293.176 243.879 292.637 243.65 291.957 243.65ZM302.354 243.949C302.108 243.908 301.842 243.888 301.555 243.888C300.488 243.888 299.765 244.342 299.384 245.25V252H297.758V242.49H299.34L299.366 243.589C299.899 242.739 300.655 242.314 301.634 242.314C301.95 242.314 302.19 242.355 302.354 242.438V243.949ZM309.122 252V243.747H307.619V242.49H309.122V241.515C309.122 240.495 309.395 239.707 309.939 239.15C310.484 238.594 311.255 238.315 312.251 238.315C312.626 238.315 312.998 238.365 313.367 238.465L313.279 239.783C313.004 239.73 312.711 239.704 312.4 239.704C311.873 239.704 311.466 239.859 311.179 240.17C310.892 240.475 310.748 240.914 310.748 241.488V242.49H312.778V243.747H310.748V252H309.122ZM314.149 247.157C314.149 246.226 314.331 245.388 314.694 244.644C315.063 243.899 315.573 243.325 316.224 242.921C316.88 242.517 317.627 242.314 318.465 242.314C319.76 242.314 320.806 242.763 321.603 243.659C322.405 244.556 322.807 245.748 322.807 247.236V247.351C322.807 248.276 322.628 249.108 322.271 249.847C321.919 250.579 321.412 251.15 320.75 251.561C320.094 251.971 319.338 252.176 318.482 252.176C317.193 252.176 316.147 251.728 315.345 250.831C314.548 249.935 314.149 248.748 314.149 247.271V247.157ZM315.784 247.351C315.784 248.405 316.027 249.252 316.514 249.891C317.006 250.529 317.662 250.849 318.482 250.849C319.309 250.849 319.965 250.526 320.451 249.882C320.938 249.231 321.181 248.323 321.181 247.157C321.181 246.114 320.932 245.271 320.434 244.626C319.941 243.976 319.285 243.65 318.465 243.65C317.662 243.65 317.015 243.97 316.522 244.608C316.03 245.247 315.784 246.161 315.784 247.351ZM329.442 243.949C329.196 243.908 328.93 243.888 328.643 243.888C327.576 243.888 326.853 244.342 326.472 245.25V252H324.846V242.49H326.428L326.454 243.589C326.987 242.739 327.743 242.314 328.722 242.314C329.038 242.314 329.278 242.355 329.442 242.438V243.949ZM341.281 252C341.188 251.812 341.111 251.479 341.053 250.998C340.297 251.783 339.395 252.176 338.346 252.176C337.408 252.176 336.638 251.912 336.034 251.385C335.437 250.852 335.138 250.178 335.138 249.363C335.138 248.373 335.513 247.605 336.263 247.061C337.019 246.51 338.079 246.234 339.444 246.234H341.026V245.487C341.026 244.919 340.856 244.468 340.517 244.134C340.177 243.794 339.676 243.624 339.014 243.624C338.434 243.624 337.947 243.771 337.555 244.063C337.162 244.356 336.966 244.711 336.966 245.127H335.331C335.331 244.652 335.498 244.195 335.832 243.756C336.172 243.311 336.629 242.959 337.203 242.701C337.783 242.443 338.419 242.314 339.11 242.314C340.206 242.314 341.064 242.59 341.686 243.141C342.307 243.686 342.629 244.438 342.652 245.399V249.776C342.652 250.649 342.764 251.344 342.986 251.859V252H341.281ZM338.583 250.761C339.093 250.761 339.576 250.629 340.033 250.365C340.49 250.102 340.821 249.759 341.026 249.337V247.386H339.752C337.76 247.386 336.764 247.969 336.764 249.135C336.764 249.645 336.934 250.043 337.273 250.33C337.613 250.617 338.05 250.761 338.583 250.761ZM349.016 250.849C349.596 250.849 350.103 250.673 350.536 250.321C350.97 249.97 351.21 249.53 351.257 249.003H352.795C352.766 249.548 352.578 250.066 352.232 250.559C351.887 251.051 351.424 251.443 350.844 251.736C350.27 252.029 349.66 252.176 349.016 252.176C347.721 252.176 346.689 251.745 345.922 250.884C345.16 250.017 344.779 248.833 344.779 247.333V247.061C344.779 246.135 344.949 245.312 345.289 244.591C345.629 243.87 346.115 243.311 346.748 242.912C347.387 242.514 348.14 242.314 349.007 242.314C350.073 242.314 350.958 242.634 351.661 243.272C352.37 243.911 352.748 244.74 352.795 245.76H351.257C351.21 245.145 350.976 244.641 350.554 244.248C350.138 243.85 349.622 243.65 349.007 243.65C348.181 243.65 347.539 243.949 347.082 244.547C346.631 245.139 346.405 245.997 346.405 247.122V247.43C346.405 248.525 346.631 249.369 347.082 249.961C347.533 250.553 348.178 250.849 349.016 250.849ZM356.829 240.188V242.49H358.604V243.747H356.829V249.645C356.829 250.025 356.908 250.312 357.066 250.506C357.225 250.693 357.494 250.787 357.875 250.787C358.062 250.787 358.32 250.752 358.648 250.682V252C358.221 252.117 357.805 252.176 357.4 252.176C356.674 252.176 356.126 251.956 355.757 251.517C355.388 251.077 355.203 250.453 355.203 249.645V243.747H353.472V242.49H355.203V240.188H356.829ZM362.278 252H360.652V242.49H362.278V252ZM360.521 239.968C360.521 239.704 360.6 239.481 360.758 239.3C360.922 239.118 361.162 239.027 361.479 239.027C361.795 239.027 362.035 239.118 362.199 239.3C362.363 239.481 362.445 239.704 362.445 239.968C362.445 240.231 362.363 240.451 362.199 240.627C362.035 240.803 361.795 240.891 361.479 240.891C361.162 240.891 360.922 240.803 360.758 240.627C360.6 240.451 360.521 240.231 360.521 239.968ZM364.458 247.157C364.458 246.226 364.64 245.388 365.003 244.644C365.372 243.899 365.882 243.325 366.532 242.921C367.188 242.517 367.936 242.314 368.773 242.314C370.068 242.314 371.114 242.763 371.911 243.659C372.714 244.556 373.115 245.748 373.115 247.236V247.351C373.115 248.276 372.937 249.108 372.579 249.847C372.228 250.579 371.721 251.15 371.059 251.561C370.402 251.971 369.646 252.176 368.791 252.176C367.502 252.176 366.456 251.728 365.653 250.831C364.856 249.935 364.458 248.748 364.458 247.271V247.157ZM366.093 247.351C366.093 248.405 366.336 249.252 366.822 249.891C367.314 250.529 367.971 250.849 368.791 250.849C369.617 250.849 370.273 250.526 370.76 249.882C371.246 249.231 371.489 248.323 371.489 247.157C371.489 246.114 371.24 245.271 370.742 244.626C370.25 243.976 369.594 243.65 368.773 243.65C367.971 243.65 367.323 243.97 366.831 244.608C366.339 245.247 366.093 246.161 366.093 247.351ZM376.692 242.49L376.745 243.686C377.472 242.771 378.421 242.314 379.593 242.314C381.603 242.314 382.616 243.448 382.634 245.716V252H381.008V245.707C381.002 245.021 380.844 244.515 380.533 244.187C380.229 243.858 379.751 243.694 379.101 243.694C378.573 243.694 378.11 243.835 377.712 244.116C377.313 244.397 377.003 244.767 376.78 245.224V252H375.154V242.49H376.692ZM391.757 240.188V242.49H393.532V243.747H391.757V249.645C391.757 250.025 391.836 250.312 391.994 250.506C392.152 250.693 392.422 250.787 392.803 250.787C392.99 250.787 393.248 250.752 393.576 250.682V252C393.148 252.117 392.732 252.176 392.328 252.176C391.602 252.176 391.054 251.956 390.685 251.517C390.315 251.077 390.131 250.453 390.131 249.645V243.747H388.399V242.49H390.131V240.188H391.757ZM398.551 249.618L400.766 242.49H402.506L398.683 253.468C398.091 255.05 397.15 255.841 395.861 255.841L395.554 255.814L394.947 255.7V254.382L395.387 254.417C395.938 254.417 396.365 254.306 396.67 254.083C396.98 253.86 397.235 253.453 397.435 252.861L397.795 251.895L394.402 242.49H396.178L398.551 249.618ZM411.998 247.351C411.998 248.798 411.667 249.964 411.005 250.849C410.343 251.733 409.446 252.176 408.315 252.176C407.161 252.176 406.253 251.81 405.591 251.077V255.656H403.965V242.49H405.45L405.529 243.545C406.191 242.725 407.111 242.314 408.289 242.314C409.432 242.314 410.334 242.745 410.996 243.606C411.664 244.468 411.998 245.666 411.998 247.201V247.351ZM410.372 247.166C410.372 246.094 410.144 245.247 409.687 244.626C409.229 244.005 408.603 243.694 407.806 243.694C406.821 243.694 406.083 244.131 405.591 245.004V249.548C406.077 250.415 406.821 250.849 407.823 250.849C408.603 250.849 409.221 250.541 409.678 249.926C410.141 249.305 410.372 248.385 410.372 247.166ZM418.019 252.176C416.729 252.176 415.681 251.754 414.872 250.91C414.063 250.061 413.659 248.927 413.659 247.509V247.21C413.659 246.267 413.838 245.426 414.195 244.688C414.559 243.943 415.062 243.363 415.707 242.947C416.357 242.525 417.061 242.314 417.816 242.314C419.053 242.314 420.014 242.722 420.699 243.536C421.385 244.351 421.728 245.517 421.728 247.034V247.711H415.285C415.309 248.648 415.581 249.407 416.103 249.987C416.63 250.562 417.298 250.849 418.106 250.849C418.681 250.849 419.167 250.731 419.565 250.497C419.964 250.263 420.312 249.952 420.611 249.565L421.604 250.339C420.808 251.563 419.612 252.176 418.019 252.176ZM417.816 243.65C417.16 243.65 416.609 243.891 416.164 244.371C415.719 244.846 415.443 245.514 415.338 246.375H420.102V246.252C420.055 245.426 419.832 244.787 419.434 244.336C419.035 243.879 418.496 243.65 417.816 243.65Z" fill="#9C9C9C"/>
<path d="M563.179 101.823H560.173V107H558.477V94.2031H562.713C564.154 94.2031 565.262 94.5312 566.035 95.1875C566.814 95.8438 567.204 96.7988 567.204 98.0527C567.204 98.8496 566.987 99.5439 566.554 100.136C566.126 100.728 565.528 101.17 564.761 101.463L567.767 106.895V107H565.956L563.179 101.823ZM560.173 100.443H562.766C563.604 100.443 564.269 100.227 564.761 99.793C565.259 99.3594 565.508 98.7793 565.508 98.0527C565.508 97.2617 565.271 96.6553 564.796 96.2334C564.327 95.8115 563.647 95.5977 562.757 95.5918H560.173V100.443ZM573.269 107.176C571.979 107.176 570.931 106.754 570.122 105.91C569.313 105.061 568.909 103.927 568.909 102.509V102.21C568.909 101.267 569.088 100.426 569.445 99.6875C569.809 98.9434 570.312 98.3633 570.957 97.9473C571.607 97.5254 572.311 97.3145 573.066 97.3145C574.303 97.3145 575.264 97.7217 575.949 98.5361C576.635 99.3506 576.978 100.517 576.978 102.034V102.711H570.535C570.559 103.648 570.831 104.407 571.353 104.987C571.88 105.562 572.548 105.849 573.356 105.849C573.931 105.849 574.417 105.731 574.815 105.497C575.214 105.263 575.562 104.952 575.861 104.565L576.854 105.339C576.058 106.563 574.862 107.176 573.269 107.176ZM573.066 98.6504C572.41 98.6504 571.859 98.8906 571.414 99.3711C570.969 99.8457 570.693 100.514 570.588 101.375H575.352V101.252C575.305 100.426 575.082 99.7871 574.684 99.3359C574.285 98.8789 573.746 98.6504 573.066 98.6504ZM578.472 102.166C578.472 100.707 578.817 99.5352 579.509 98.6504C580.2 97.7598 581.105 97.3145 582.225 97.3145C583.338 97.3145 584.22 97.6953 584.87 98.457V93.5H586.496V107H585.002L584.923 105.98C584.272 106.777 583.367 107.176 582.207 107.176C581.105 107.176 580.206 106.725 579.509 105.822C578.817 104.92 578.472 103.742 578.472 102.289V102.166ZM580.098 102.351C580.098 103.429 580.32 104.272 580.766 104.882C581.211 105.491 581.826 105.796 582.611 105.796C583.643 105.796 584.396 105.333 584.87 104.407V100.039C584.384 99.1426 583.637 98.6943 582.629 98.6943C581.832 98.6943 581.211 99.002 580.766 99.6172C580.32 100.232 580.098 101.144 580.098 102.351ZM594.898 106.06C594.266 106.804 593.337 107.176 592.112 107.176C591.099 107.176 590.325 106.883 589.792 106.297C589.265 105.705 588.998 104.832 588.992 103.678V97.4902H590.618V103.634C590.618 105.075 591.204 105.796 592.376 105.796C593.618 105.796 594.444 105.333 594.854 104.407V97.4902H596.48V107H594.934L594.898 106.06ZM602.773 105.849C603.354 105.849 603.86 105.673 604.294 105.321C604.728 104.97 604.968 104.53 605.015 104.003H606.553C606.523 104.548 606.336 105.066 605.99 105.559C605.645 106.051 605.182 106.443 604.602 106.736C604.027 107.029 603.418 107.176 602.773 107.176C601.479 107.176 600.447 106.745 599.68 105.884C598.918 105.017 598.537 103.833 598.537 102.333V102.061C598.537 101.135 598.707 100.312 599.047 99.5908C599.387 98.8701 599.873 98.3105 600.506 97.9121C601.145 97.5137 601.897 97.3145 602.765 97.3145C603.831 97.3145 604.716 97.6338 605.419 98.2725C606.128 98.9111 606.506 99.7402 606.553 100.76H605.015C604.968 100.145 604.733 99.6406 604.312 99.248C603.896 98.8496 603.38 98.6504 602.765 98.6504C601.938 98.6504 601.297 98.9492 600.84 99.5469C600.389 100.139 600.163 100.997 600.163 102.122V102.43C600.163 103.525 600.389 104.369 600.84 104.961C601.291 105.553 601.936 105.849 602.773 105.849ZM612.327 107.176C611.038 107.176 609.989 106.754 609.181 105.91C608.372 105.061 607.968 103.927 607.968 102.509V102.21C607.968 101.267 608.146 100.426 608.504 99.6875C608.867 98.9434 609.371 98.3633 610.016 97.9473C610.666 97.5254 611.369 97.3145 612.125 97.3145C613.361 97.3145 614.322 97.7217 615.008 98.5361C615.693 99.3506 616.036 100.517 616.036 102.034V102.711H609.594C609.617 103.648 609.89 104.407 610.411 104.987C610.938 105.562 611.606 105.849 612.415 105.849C612.989 105.849 613.476 105.731 613.874 105.497C614.272 105.263 614.621 104.952 614.92 104.565L615.913 105.339C615.116 106.563 613.921 107.176 612.327 107.176ZM612.125 98.6504C611.469 98.6504 610.918 98.8906 610.473 99.3711C610.027 99.8457 609.752 100.514 609.646 101.375H614.41V101.252C614.363 100.426 614.141 99.7871 613.742 99.3359C613.344 98.8789 612.805 98.6504 612.125 98.6504ZM622.522 98.9492C622.276 98.9082 622.01 98.8877 621.723 98.8877C620.656 98.8877 619.933 99.3418 619.552 100.25V107H617.926V97.4902H619.508L619.534 98.5889C620.067 97.7393 620.823 97.3145 621.802 97.3145C622.118 97.3145 622.358 97.3555 622.522 97.4375V98.9492ZM632.305 105.849C632.885 105.849 633.392 105.673 633.825 105.321C634.259 104.97 634.499 104.53 634.546 104.003H636.084C636.055 104.548 635.867 105.066 635.521 105.559C635.176 106.051 634.713 106.443 634.133 106.736C633.559 107.029 632.949 107.176 632.305 107.176C631.01 107.176 629.979 106.745 629.211 105.884C628.449 105.017 628.068 103.833 628.068 102.333V102.061C628.068 101.135 628.238 100.312 628.578 99.5908C628.918 98.8701 629.404 98.3105 630.037 97.9121C630.676 97.5137 631.429 97.3145 632.296 97.3145C633.362 97.3145 634.247 97.6338 634.95 98.2725C635.659 98.9111 636.037 99.7402 636.084 100.76H634.546C634.499 100.145 634.265 99.6406 633.843 99.248C633.427 98.8496 632.911 98.6504 632.296 98.6504C631.47 98.6504 630.828 98.9492 630.371 99.5469C629.92 100.139 629.694 100.997 629.694 102.122V102.43C629.694 103.525 629.92 104.369 630.371 104.961C630.822 105.553 631.467 105.849 632.305 105.849ZM642.509 98.9492C642.263 98.9082 641.996 98.8877 641.709 98.8877C640.643 98.8877 639.919 99.3418 639.538 100.25V107H637.912V97.4902H639.494L639.521 98.5889C640.054 97.7393 640.81 97.3145 641.788 97.3145C642.104 97.3145 642.345 97.3555 642.509 97.4375V98.9492ZM647.782 107.176C646.493 107.176 645.444 106.754 644.636 105.91C643.827 105.061 643.423 103.927 643.423 102.509V102.21C643.423 101.267 643.602 100.426 643.959 99.6875C644.322 98.9434 644.826 98.3633 645.471 97.9473C646.121 97.5254 646.824 97.3145 647.58 97.3145C648.816 97.3145 649.777 97.7217 650.463 98.5361C651.148 99.3506 651.491 100.517 651.491 102.034V102.711H645.049C645.072 103.648 645.345 104.407 645.866 104.987C646.394 105.562 647.062 105.849 647.87 105.849C648.444 105.849 648.931 105.731 649.329 105.497C649.728 105.263 650.076 104.952 650.375 104.565L651.368 105.339C650.571 106.563 649.376 107.176 647.782 107.176ZM647.58 98.6504C646.924 98.6504 646.373 98.8906 645.928 99.3711C645.482 99.8457 645.207 100.514 645.102 101.375H649.865V101.252C649.818 100.426 649.596 99.7871 649.197 99.3359C648.799 98.8789 648.26 98.6504 647.58 98.6504ZM659.252 107C659.158 106.812 659.082 106.479 659.023 105.998C658.268 106.783 657.365 107.176 656.316 107.176C655.379 107.176 654.608 106.912 654.005 106.385C653.407 105.852 653.108 105.178 653.108 104.363C653.108 103.373 653.483 102.605 654.233 102.061C654.989 101.51 656.05 101.234 657.415 101.234H658.997V100.487C658.997 99.9189 658.827 99.4678 658.487 99.1338C658.147 98.7939 657.646 98.624 656.984 98.624C656.404 98.624 655.918 98.7705 655.525 99.0635C655.133 99.3564 654.937 99.7109 654.937 100.127H653.302C653.302 99.6523 653.469 99.1953 653.803 98.7559C654.143 98.3105 654.6 97.959 655.174 97.7012C655.754 97.4434 656.39 97.3145 657.081 97.3145C658.177 97.3145 659.035 97.5898 659.656 98.1406C660.277 98.6855 660.6 99.4385 660.623 100.399V104.776C660.623 105.649 660.734 106.344 660.957 106.859V107H659.252ZM656.554 105.761C657.063 105.761 657.547 105.629 658.004 105.365C658.461 105.102 658.792 104.759 658.997 104.337V102.386H657.723C655.73 102.386 654.734 102.969 654.734 104.135C654.734 104.645 654.904 105.043 655.244 105.33C655.584 105.617 656.021 105.761 656.554 105.761ZM665.378 95.1875V97.4902H667.153V98.7471H665.378V104.645C665.378 105.025 665.457 105.312 665.615 105.506C665.773 105.693 666.043 105.787 666.424 105.787C666.611 105.787 666.869 105.752 667.197 105.682V107C666.77 107.117 666.354 107.176 665.949 107.176C665.223 107.176 664.675 106.956 664.306 106.517C663.937 106.077 663.752 105.453 663.752 104.645V98.7471H662.021V97.4902H663.752V95.1875H665.378ZM673.007 107.176C671.718 107.176 670.669 106.754 669.86 105.91C669.052 105.061 668.647 103.927 668.647 102.509V102.21C668.647 101.267 668.826 100.426 669.184 99.6875C669.547 98.9434 670.051 98.3633 670.695 97.9473C671.346 97.5254 672.049 97.3145 672.805 97.3145C674.041 97.3145 675.002 97.7217 675.688 98.5361C676.373 99.3506 676.716 100.517 676.716 102.034V102.711H670.273C670.297 103.648 670.569 104.407 671.091 104.987C671.618 105.562 672.286 105.849 673.095 105.849C673.669 105.849 674.155 105.731 674.554 105.497C674.952 105.263 675.301 104.952 675.6 104.565L676.593 105.339C675.796 106.563 674.601 107.176 673.007 107.176ZM672.805 98.6504C672.148 98.6504 671.598 98.8906 671.152 99.3711C670.707 99.8457 670.432 100.514 670.326 101.375H675.09V101.252C675.043 100.426 674.82 99.7871 674.422 99.3359C674.023 98.8789 673.484 98.6504 672.805 98.6504ZM684.143 104.478C684.143 104.038 683.976 103.698 683.642 103.458C683.313 103.212 682.736 103.001 681.91 102.825C681.09 102.649 680.437 102.438 679.95 102.192C679.47 101.946 679.112 101.653 678.878 101.313C678.649 100.974 678.535 100.569 678.535 100.101C678.535 99.3213 678.863 98.6621 679.52 98.123C680.182 97.584 681.025 97.3145 682.051 97.3145C683.129 97.3145 684.002 97.5928 684.67 98.1494C685.344 98.7061 685.681 99.418 685.681 100.285H684.046C684.046 99.8398 683.855 99.4561 683.475 99.1338C683.1 98.8115 682.625 98.6504 682.051 98.6504C681.459 98.6504 680.996 98.7793 680.662 99.0371C680.328 99.2949 680.161 99.6318 680.161 100.048C680.161 100.44 680.316 100.736 680.627 100.936C680.938 101.135 681.497 101.325 682.306 101.507C683.12 101.688 683.779 101.905 684.283 102.157C684.787 102.409 685.159 102.714 685.399 103.071C685.646 103.423 685.769 103.854 685.769 104.363C685.769 105.213 685.429 105.896 684.749 106.411C684.069 106.921 683.188 107.176 682.104 107.176C681.342 107.176 680.668 107.041 680.082 106.771C679.496 106.502 679.036 106.127 678.702 105.646C678.374 105.16 678.21 104.636 678.21 104.073H679.836C679.865 104.618 680.082 105.052 680.486 105.374C680.896 105.69 681.436 105.849 682.104 105.849C682.719 105.849 683.211 105.726 683.58 105.479C683.955 105.228 684.143 104.894 684.143 104.478ZM698.223 107C698.129 106.812 698.053 106.479 697.994 105.998C697.238 106.783 696.336 107.176 695.287 107.176C694.35 107.176 693.579 106.912 692.976 106.385C692.378 105.852 692.079 105.178 692.079 104.363C692.079 103.373 692.454 102.605 693.204 102.061C693.96 101.51 695.021 101.234 696.386 101.234H697.968V100.487C697.968 99.9189 697.798 99.4678 697.458 99.1338C697.118 98.7939 696.617 98.624 695.955 98.624C695.375 98.624 694.889 98.7705 694.496 99.0635C694.104 99.3564 693.907 99.7109 693.907 100.127H692.272C692.272 99.6523 692.439 99.1953 692.773 98.7559C693.113 98.3105 693.57 97.959 694.145 97.7012C694.725 97.4434 695.36 97.3145 696.052 97.3145C697.147 97.3145 698.006 97.5898 698.627 98.1406C699.248 98.6855 699.57 99.4385 699.594 100.399V104.776C699.594 105.649 699.705 106.344 699.928 106.859V107H698.223ZM695.524 105.761C696.034 105.761 696.518 105.629 696.975 105.365C697.432 105.102 697.763 104.759 697.968 104.337V102.386H696.693C694.701 102.386 693.705 102.969 693.705 104.135C693.705 104.645 693.875 105.043 694.215 105.33C694.555 105.617 694.991 105.761 695.524 105.761ZM708.146 97.4902L708.198 98.6855C708.925 97.7715 709.874 97.3145 711.046 97.3145C713.056 97.3145 714.069 98.4482 714.087 100.716V107H712.461V100.707C712.455 100.021 712.297 99.5146 711.986 99.1865C711.682 98.8584 711.204 98.6943 710.554 98.6943C710.026 98.6943 709.563 98.835 709.165 99.1162C708.767 99.3975 708.456 99.7666 708.233 100.224V107H706.607V97.4902H708.146ZM720.485 107.176C719.196 107.176 718.147 106.754 717.339 105.91C716.53 105.061 716.126 103.927 716.126 102.509V102.21C716.126 101.267 716.305 100.426 716.662 99.6875C717.025 98.9434 717.529 98.3633 718.174 97.9473C718.824 97.5254 719.527 97.3145 720.283 97.3145C721.52 97.3145 722.48 97.7217 723.166 98.5361C723.852 99.3506 724.194 100.517 724.194 102.034V102.711H717.752C717.775 103.648 718.048 104.407 718.569 104.987C719.097 105.562 719.765 105.849 720.573 105.849C721.147 105.849 721.634 105.731 722.032 105.497C722.431 105.263 722.779 104.952 723.078 104.565L724.071 105.339C723.274 106.563 722.079 107.176 720.485 107.176ZM720.283 98.6504C719.627 98.6504 719.076 98.8906 718.631 99.3711C718.186 99.8457 717.91 100.514 717.805 101.375H722.568V101.252C722.521 100.426 722.299 99.7871 721.9 99.3359C721.502 98.8789 720.963 98.6504 720.283 98.6504ZM734.504 104.759L736.332 97.4902H737.958L735.189 107H733.871L731.56 99.793L729.31 107H727.991L725.231 97.4902H726.849L728.721 104.609L730.936 97.4902H732.245L734.504 104.759ZM566.264 123.351C566.264 124.798 565.933 125.964 565.271 126.849C564.608 127.733 563.712 128.176 562.581 128.176C561.427 128.176 560.519 127.81 559.856 127.077V131.656H558.23V118.49H559.716L559.795 119.545C560.457 118.725 561.377 118.314 562.555 118.314C563.697 118.314 564.6 118.745 565.262 119.606C565.93 120.468 566.264 121.666 566.264 123.201V123.351ZM564.638 123.166C564.638 122.094 564.409 121.247 563.952 120.626C563.495 120.005 562.868 119.694 562.071 119.694C561.087 119.694 560.349 120.131 559.856 121.004V125.548C560.343 126.415 561.087 126.849 562.089 126.849C562.868 126.849 563.486 126.541 563.943 125.926C564.406 125.305 564.638 124.385 564.638 123.166ZM574.209 128C574.115 127.812 574.039 127.479 573.98 126.998C573.225 127.783 572.322 128.176 571.273 128.176C570.336 128.176 569.565 127.912 568.962 127.385C568.364 126.852 568.065 126.178 568.065 125.363C568.065 124.373 568.44 123.605 569.19 123.061C569.946 122.51 571.007 122.234 572.372 122.234H573.954V121.487C573.954 120.919 573.784 120.468 573.444 120.134C573.104 119.794 572.604 119.624 571.941 119.624C571.361 119.624 570.875 119.771 570.482 120.063C570.09 120.356 569.894 120.711 569.894 121.127H568.259C568.259 120.652 568.426 120.195 568.76 119.756C569.1 119.311 569.557 118.959 570.131 118.701C570.711 118.443 571.347 118.314 572.038 118.314C573.134 118.314 573.992 118.59 574.613 119.141C575.234 119.686 575.557 120.438 575.58 121.399V125.776C575.58 126.649 575.691 127.344 575.914 127.859V128H574.209ZM571.511 126.761C572.021 126.761 572.504 126.629 572.961 126.365C573.418 126.102 573.749 125.759 573.954 125.337V123.386H572.68C570.688 123.386 569.691 123.969 569.691 125.135C569.691 125.645 569.861 126.043 570.201 126.33C570.541 126.617 570.978 126.761 571.511 126.761ZM582.726 119.949C582.479 119.908 582.213 119.888 581.926 119.888C580.859 119.888 580.136 120.342 579.755 121.25V128H578.129V118.49H579.711L579.737 119.589C580.271 118.739 581.026 118.314 582.005 118.314C582.321 118.314 582.562 118.355 582.726 118.438V119.949ZM586.874 116.188V118.49H588.649V119.747H586.874V125.645C586.874 126.025 586.953 126.312 587.111 126.506C587.27 126.693 587.539 126.787 587.92 126.787C588.107 126.787 588.365 126.752 588.693 126.682V128C588.266 128.117 587.85 128.176 587.445 128.176C586.719 128.176 586.171 127.956 585.802 127.517C585.433 127.077 585.248 126.453 585.248 125.645V119.747H583.517V118.49H585.248V116.188H586.874ZM592.323 128H590.697V118.49H592.323V128ZM590.565 115.968C590.565 115.704 590.645 115.481 590.803 115.3C590.967 115.118 591.207 115.027 591.523 115.027C591.84 115.027 592.08 115.118 592.244 115.3C592.408 115.481 592.49 115.704 592.49 115.968C592.49 116.231 592.408 116.451 592.244 116.627C592.08 116.803 591.84 116.891 591.523 116.891C591.207 116.891 590.967 116.803 590.803 116.627C590.645 116.451 590.565 116.231 590.565 115.968ZM600.805 128C600.711 127.812 600.635 127.479 600.576 126.998C599.82 127.783 598.918 128.176 597.869 128.176C596.932 128.176 596.161 127.912 595.558 127.385C594.96 126.852 594.661 126.178 594.661 125.363C594.661 124.373 595.036 123.605 595.786 123.061C596.542 122.51 597.603 122.234 598.968 122.234H600.55V121.487C600.55 120.919 600.38 120.468 600.04 120.134C599.7 119.794 599.199 119.624 598.537 119.624C597.957 119.624 597.471 119.771 597.078 120.063C596.686 120.356 596.489 120.711 596.489 121.127H594.854C594.854 120.652 595.021 120.195 595.355 119.756C595.695 119.311 596.152 118.959 596.727 118.701C597.307 118.443 597.942 118.314 598.634 118.314C599.729 118.314 600.588 118.59 601.209 119.141C601.83 119.686 602.152 120.438 602.176 121.399V125.776C602.176 126.649 602.287 127.344 602.51 127.859V128H600.805ZM598.106 126.761C598.616 126.761 599.1 126.629 599.557 126.365C600.014 126.102 600.345 125.759 600.55 125.337V123.386H599.275C597.283 123.386 596.287 123.969 596.287 125.135C596.287 125.645 596.457 126.043 596.797 126.33C597.137 126.617 597.573 126.761 598.106 126.761ZM606.491 128H604.865V114.5H606.491V128ZM619.104 125.478C619.104 125.038 618.937 124.698 618.603 124.458C618.274 124.212 617.697 124.001 616.871 123.825C616.051 123.649 615.397 123.438 614.911 123.192C614.431 122.946 614.073 122.653 613.839 122.313C613.61 121.974 613.496 121.569 613.496 121.101C613.496 120.321 613.824 119.662 614.48 119.123C615.143 118.584 615.986 118.314 617.012 118.314C618.09 118.314 618.963 118.593 619.631 119.149C620.305 119.706 620.642 120.418 620.642 121.285H619.007C619.007 120.84 618.816 120.456 618.436 120.134C618.061 119.812 617.586 119.65 617.012 119.65C616.42 119.65 615.957 119.779 615.623 120.037C615.289 120.295 615.122 120.632 615.122 121.048C615.122 121.44 615.277 121.736 615.588 121.936C615.898 122.135 616.458 122.325 617.267 122.507C618.081 122.688 618.74 122.905 619.244 123.157C619.748 123.409 620.12 123.714 620.36 124.071C620.606 124.423 620.729 124.854 620.729 125.363C620.729 126.213 620.39 126.896 619.71 127.411C619.03 127.921 618.148 128.176 617.064 128.176C616.303 128.176 615.629 128.041 615.043 127.771C614.457 127.502 613.997 127.127 613.663 126.646C613.335 126.16 613.171 125.636 613.171 125.073H614.797C614.826 125.618 615.043 126.052 615.447 126.374C615.857 126.69 616.396 126.849 617.064 126.849C617.68 126.849 618.172 126.726 618.541 126.479C618.916 126.228 619.104 125.894 619.104 125.478ZM625.054 116.188V118.49H626.829V119.747H625.054V125.645C625.054 126.025 625.133 126.312 625.291 126.506C625.449 126.693 625.719 126.787 626.1 126.787C626.287 126.787 626.545 126.752 626.873 126.682V128C626.445 128.117 626.029 128.176 625.625 128.176C624.898 128.176 624.351 127.956 623.981 127.517C623.612 127.077 623.428 126.453 623.428 125.645V119.747H621.696V118.49H623.428V116.188H625.054ZM634.607 128C634.514 127.812 634.438 127.479 634.379 126.998C633.623 127.783 632.721 128.176 631.672 128.176C630.734 128.176 629.964 127.912 629.36 127.385C628.763 126.852 628.464 126.178 628.464 125.363C628.464 124.373 628.839 123.605 629.589 123.061C630.345 122.51 631.405 122.234 632.771 122.234H634.353V121.487C634.353 120.919 634.183 120.468 633.843 120.134C633.503 119.794 633.002 119.624 632.34 119.624C631.76 119.624 631.273 119.771 630.881 120.063C630.488 120.356 630.292 120.711 630.292 121.127H628.657C628.657 120.652 628.824 120.195 629.158 119.756C629.498 119.311 629.955 118.959 630.529 118.701C631.109 118.443 631.745 118.314 632.437 118.314C633.532 118.314 634.391 118.59 635.012 119.141C635.633 119.686 635.955 120.438 635.979 121.399V125.776C635.979 126.649 636.09 127.344 636.312 127.859V128H634.607ZM631.909 126.761C632.419 126.761 632.902 126.629 633.359 126.365C633.816 126.102 634.147 125.759 634.353 125.337V123.386H633.078C631.086 123.386 630.09 123.969 630.09 125.135C630.09 125.645 630.26 126.043 630.6 126.33C630.939 126.617 631.376 126.761 631.909 126.761ZM640.733 116.188V118.49H642.509V119.747H640.733V125.645C640.733 126.025 640.812 126.312 640.971 126.506C641.129 126.693 641.398 126.787 641.779 126.787C641.967 126.787 642.225 126.752 642.553 126.682V128C642.125 128.117 641.709 128.176 641.305 128.176C640.578 128.176 640.03 127.956 639.661 127.517C639.292 127.077 639.107 126.453 639.107 125.645V119.747H637.376V118.49H639.107V116.188H640.733ZM648.362 128.176C647.073 128.176 646.024 127.754 645.216 126.91C644.407 126.061 644.003 124.927 644.003 123.509V123.21C644.003 122.267 644.182 121.426 644.539 120.688C644.902 119.943 645.406 119.363 646.051 118.947C646.701 118.525 647.404 118.314 648.16 118.314C649.396 118.314 650.357 118.722 651.043 119.536C651.729 120.351 652.071 121.517 652.071 123.034V123.711H645.629C645.652 124.648 645.925 125.407 646.446 125.987C646.974 126.562 647.642 126.849 648.45 126.849C649.024 126.849 649.511 126.731 649.909 126.497C650.308 126.263 650.656 125.952 650.955 125.565L651.948 126.339C651.151 127.563 649.956 128.176 648.362 128.176ZM648.16 119.65C647.504 119.65 646.953 119.891 646.508 120.371C646.062 120.846 645.787 121.514 645.682 122.375H650.445V122.252C650.398 121.426 650.176 120.787 649.777 120.336C649.379 119.879 648.84 119.65 648.16 119.65Z" fill="#9C9C9C"/>
</svg>
