<?xml version="1.0" encoding="iso-8859-1"?>
<!-- Generator: Adobe Illustrator 19.0.0, SVG Export Plug-In . SVG Version: 6.00 Build 0)  -->
<svg version="1.1" id="Layer_1" xmlns="http://www.w3.org/2000/svg" xmlns:xlink="http://www.w3.org/1999/xlink" x="0px" y="0px"
	 viewBox="0 0 499.2 499.2" style="enable-background:new 0 0 499.2 499.2;" xml:space="preserve">
<path style="fill:#B53300;" d="M492,243.2c0,133.6-108.8,256-242.4,256S7.2,377.6,7.2,243.2C7.2,108.8,116,0,249.6,0
	S492,108.8,492,243.2z"/>
<circle style="fill:#FF7029;" cx="249.6" cy="243.2" r="242.4"/>
<path style="fill:#F26119;" d="M249.6,0C383.2,0,492,108.8,492,242.4S383.2,484.8,249.6,484.8S7.2,376,7.2,242.4"/>
<path style="fill:#D64505;" d="M249.6,0C383.2,0,492,108.8,492,242.4S383.2,484.8,249.6,484.8"/>
<path style="fill:#B53300;" d="M215.2,408.8l73.6,73.6c76-12,140-60,174.4-124.8L284.8,178.4L215.2,408.8z"/>
<path style="fill:#074568;" d="M288,113.6c0,20-15.2,36-38.4,36c-22.4,0-37.6-16-37.6-36c-0.8-20.8,14.4-36,37.6-36
	C272.8,76.8,287.2,92.8,288,113.6z M209.6,409.6v-232h72v232H209.6z"/>
<path style="fill:#043247;" d="M249.6,76.8c23.2,0,37.6,15.2,38.4,36c0,20-15.2,36-38.4,36 M209.6,409.6v-232h72v232H209.6z
	 M249.6,409.6v-232h40v232H249.6z"/>
<g>
</g>
<g>
</g>
<g>
</g>
<g>
</g>
<g>
</g>
<g>
</g>
<g>
</g>
<g>
</g>
<g>
</g>
<g>
</g>
<g>
</g>
<g>
</g>
<g>
</g>
<g>
</g>
<g>
</g>
</svg>
