<svg version="1.1" viewBox="0.0 0.0 632.0 371.0" fill="none" stroke="none" stroke-linecap="square" stroke-miterlimit="10" width="632" height="371" xmlns:xlink="http://www.w3.org/1999/xlink" xmlns="http://www.w3.org/2000/svg"><path fill="#ffffff" d="M0 0L632.0 0L632.0 371.0L0 371.0L0 0Z" fill-rule="nonzero"/><path stroke="#333333" stroke-width="1.0" stroke-linecap="butt" d="M45.5 88.5L45.5 300.5" fill-rule="nonzero"/><path stroke="#cccccc" stroke-width="1.0" stroke-linecap="butt" d="M212.5 88.5L212.5 300.5" fill-rule="nonzero"/><path stroke="#cccccc" stroke-width="1.0" stroke-linecap="butt" d="M379.5 88.5L379.5 300.5" fill-rule="nonzero"/><path stroke="#cccccc" stroke-width="1.0" stroke-linecap="butt" d="M546.5 88.5L546.5 300.5" fill-rule="nonzero"/><path stroke="#333333" stroke-width="1.0" stroke-linecap="butt" d="M45.5 300.5L613.5 300.5" fill-rule="nonzero"/><path stroke="#cccccc" stroke-width="1.0" stroke-linecap="butt" d="M45.5 229.5L613.5 229.5" fill-rule="nonzero"/><path stroke="#cccccc" stroke-width="1.0" stroke-linecap="butt" d="M45.5 159.5L613.5 159.5" fill-rule="nonzero"/><path stroke="#cccccc" stroke-width="1.0" stroke-linecap="butt" d="M45.5 88.5L613.5 88.5" fill-rule="nonzero"/><clipPath id="id_0"><path d="M45.55 88.28333L613.45 88.28333L613.45 300.45L45.55 300.45L45.55 88.28333Z" clip-rule="nonzero"/></clipPath><path fill="#4285f4" fill-opacity="0.3019608" clip-path="url(#id_0)" d="M45.55 98.18445L78.95588 98.1703L112.36176 98.15616L145.76765 98.14201L179.17352 98.12787L212.5794 98.11372L245.98529 98.09958L279.39117 98.085434L312.79706 98.07129L346.20294 98.043L379.60883 98.01471L413.0147 97.98642L446.4206 97.95813L479.82648 97.92985L513.23236 97.90156L546.63824 97.87327L580.0441 97.83083L613.45 97.7884L613.45 300.45L580.0441 300.45L546.63824 300.45L513.23236 300.45L479.82648 300.45L446.4206 300.45L413.0147 300.45L379.60883 300.45L346.20294 300.45L312.79706 300.45L279.39117 300.45L245.98529 300.45L212.5794 300.45L179.17352 300.45L145.76765 300.45L112.36176 300.45L78.95588 300.45L45.55 300.45Z" fill-rule="nonzero"/><path fill="#ea4335" fill-opacity="0.3019608" clip-path="url(#id_0)" d="M45.55 286.2914L78.95588 286.2914L112.36176 286.2914L145.76765 286.2914L179.17352 286.2914L212.5794 286.2914L245.98529 286.2914L279.39117 286.2914L312.79706 286.27725L346.20294 286.27725L379.60883 286.27725L413.0147 286.27725L446.4206 286.27725L479.82648 286.27725L513.23236 286.27725L546.63824 286.26312L580.0441 286.26312L613.45 286.26312L613.45 300.45L580.0441 300.45L546.63824 300.45L513.23236 300.45L479.82648 300.45L446.4206 300.45L413.0147 300.45L379.60883 300.45L346.20294 300.45L312.79706 300.45L279.39117 300.45L245.98529 300.45L212.5794 300.45L179.17352 300.45L145.76765 300.45L112.36176 300.45L78.95588 300.45L45.55 300.45Z" fill-rule="nonzero"/><path fill="#fbbc04" fill-opacity="0.3019608" clip-path="url(#id_0)" d="M45.55 286.30554L78.95588 286.30554L112.36176 286.30554L145.76765 286.30554L179.17352 286.30554L212.5794 286.30554L245.98529 286.30554L279.39117 286.30554L312.79706 286.30554L346.20294 286.30554L379.60883 286.30554L413.0147 286.30554L446.4206 286.30554L479.82648 286.30554L513.23236 286.30554L546.63824 286.30554L580.0441 286.30554L613.45 286.30554L613.45 300.45L580.0441 300.45L546.63824 300.45L513.23236 300.45L479.82648 300.45L446.4206 300.45L413.0147 300.45L379.60883 300.45L346.20294 300.45L312.79706 300.45L279.39117 300.45L245.98529 300.45L212.5794 300.45L179.17352 300.45L145.76765 300.45L112.36176 300.45L78.95588 300.45L45.55 300.45Z" fill-rule="nonzero"/><path stroke="#4285f4" stroke-width="2.0" stroke-linecap="butt" clip-path="url(#id_0)" d="M45.55 98.18445L78.95588 98.1703L112.36176 98.15616L145.76765 98.14201L179.17352 98.12787L212.5794 98.11372L245.98529 98.09958L279.39117 98.085434L312.79706 98.07129L346.20294 98.043L379.60883 98.01471L413.0147 97.98642L446.4206 97.95813L479.82648 97.92985L513.23236 97.90156L546.63824 97.87327L580.0441 97.83083L613.45 97.7884" fill-rule="nonzero"/><path stroke="#ea4335" stroke-width="2.0" stroke-linecap="butt" clip-path="url(#id_0)" d="M45.55 286.2914L78.95588 286.2914L112.36176 286.2914L145.76765 286.2914L179.17352 286.2914L212.5794 286.2914L245.98529 286.2914L279.39117 286.2914L312.79706 286.27725L346.20294 286.27725L379.60883 286.27725L413.0147 286.27725L446.4206 286.27725L479.82648 286.27725L513.23236 286.27725L546.63824 286.26312L580.0441 286.26312L613.45 286.26312" fill-rule="nonzero"/><path stroke="#fbbc04" stroke-width="2.0" stroke-linecap="butt" clip-path="url(#id_0)" d="M45.55 286.30554L78.95588 286.30554L112.36176 286.30554L145.76765 286.30554L179.17352 286.30554L212.5794 286.30554L245.98529 286.30554L279.39117 286.30554L312.79706 286.30554L346.20294 286.30554L379.60883 286.30554L413.0147 286.30554L446.4206 286.30554L479.82648 286.30554L513.23236 286.30554L546.63824 286.30554L580.0441 286.30554L613.45 286.30554" fill-rule="nonzero"/><path fill="#000000" fill-opacity="0.0" clip-path="url(#id_0)" d="M48.55 98.18445C48.55 99.8413 47.206856 101.18445 45.55 101.18445C43.893147 101.18445 42.55 99.8413 42.55 98.18445C42.55 96.52759 43.893147 95.18445 45.55 95.18445C47.206856 95.18445 48.55 96.52759 48.55 98.18445Z" fill-rule="nonzero"/><path fill="#000000" fill-opacity="0.0" clip-path="url(#id_0)" d="M81.95588 98.1703C81.95588 99.827156 80.61274 101.1703 78.95588 101.1703C77.29903 101.1703 75.95588 99.827156 75.95588 98.1703C75.95588 96.51344 77.29903 95.1703 78.95588 95.1703C80.61274 95.1703 81.95588 96.51344 81.95588 98.1703Z" fill-rule="nonzero"/><path fill="#000000" fill-opacity="0.0" clip-path="url(#id_0)" d="M115.36176 98.15616C115.36176 99.81301 114.018616 101.15616 112.36176 101.15616C110.70491 101.15616 109.36176 99.81301 109.36176 98.15616C109.36176 96.4993 110.70491 95.15616 112.36176 95.15616C114.018616 95.15616 115.36176 96.4993 115.36176 98.15616Z" fill-rule="nonzero"/><path fill="#000000" fill-opacity="0.0" clip-path="url(#id_0)" d="M148.76765 98.14201C148.76765 99.79887 147.4245 101.14201 145.76765 101.14201C144.1108 101.14201 142.76765 99.79887 142.76765 98.14201C142.76765 96.48515 144.1108 95.14201 145.76765 95.14201C147.4245 95.14201 148.76765 96.48515 148.76765 98.14201Z" fill-rule="nonzero"/><path fill="#000000" fill-opacity="0.0" clip-path="url(#id_0)" d="M182.17352 98.12787C182.17352 99.78472 180.83038 101.12787 179.17352 101.12787C177.51668 101.12787 176.17352 99.78472 176.17352 98.12787C176.17352 96.471016 177.51668 95.12787 179.17352 95.12787C180.83038 95.12787 182.17352 96.471016 182.17352 98.12787Z" fill-rule="nonzero"/><path fill="#000000" fill-opacity="0.0" clip-path="url(#id_0)" d="M215.5794 98.11372C215.5794 99.77058 214.23627 101.11372 212.5794 101.11372C210.92256 101.11372 209.5794 99.77058 209.5794 98.11372C209.5794 96.45687 210.92256 95.11372 212.5794 95.11372C214.23627 95.11372 215.5794 96.45687 215.5794 98.11372Z" fill-rule="nonzero"/><path fill="#000000" fill-opacity="0.0" clip-path="url(#id_0)" d="M248.98529 98.09958C248.98529 99.75643 247.64215 101.09958 245.98529 101.09958C244.32845 101.09958 242.98529 99.75643 242.98529 98.09958C242.98529 96.442726 244.32845 95.09958 245.98529 95.09958C247.64215 95.09958 248.98529 96.442726 248.98529 98.09958Z" fill-rule="nonzero"/><path fill="#000000" fill-opacity="0.0" clip-path="url(#id_0)" d="M282.39117 98.085434C282.39117 99.74229 281.04803 101.085434 279.39117 101.085434C277.7343 101.085434 276.39117 99.74229 276.39117 98.085434C276.39117 96.42858 277.7343 95.085434 279.39117 95.085434C281.04803 95.085434 282.39117 96.42858 282.39117 98.085434Z" fill-rule="nonzero"/><path fill="#000000" fill-opacity="0.0" clip-path="url(#id_0)" d="M315.79706 98.07129C315.79706 99.72814 314.45392 101.07129 312.79706 101.07129C311.1402 101.07129 309.79706 99.72814 309.79706 98.07129C309.79706 96.41444 311.1402 95.07129 312.79706 95.07129C314.45392 95.07129 315.79706 96.41444 315.79706 98.07129Z" fill-rule="nonzero"/><path fill="#000000" fill-opacity="0.0" clip-path="url(#id_0)" d="M349.20294 98.043C349.20294 99.69985 347.8598 101.043 346.20294 101.043C344.54608 101.043 343.20294 99.69985 343.20294 98.043C343.20294 96.38615 344.54608 95.043 346.20294 95.043C347.8598 95.043 349.20294 96.38615 349.20294 98.043Z" fill-rule="nonzero"/><path fill="#000000" fill-opacity="0.0" clip-path="url(#id_0)" d="M382.60883 98.01471C382.60883 99.67156 381.2657 101.01471 379.60883 101.01471C377.95197 101.01471 376.60883 99.67156 376.60883 98.01471C376.60883 96.35786 377.95197 95.01471 379.60883 95.01471C381.2657 95.01471 382.60883 96.35786 382.60883 98.01471Z" fill-rule="nonzero"/><path fill="#000000" fill-opacity="0.0" clip-path="url(#id_0)" d="M416.0147 97.98642C416.0147 99.64328 414.67157 100.98642 413.0147 100.98642C411.35785 100.98642 410.0147 99.64328 410.0147 97.98642C410.0147 96.32957 411.35785 94.98642 413.0147 94.98642C414.67157 94.98642 416.0147 96.32957 416.0147 97.98642Z" fill-rule="nonzero"/><path fill="#000000" fill-opacity="0.0" clip-path="url(#id_0)" d="M449.4206 97.95813C449.4206 99.61499 448.07745 100.95813 446.4206 100.95813C444.76373 100.95813 443.4206 99.61499 443.4206 97.95813C443.4206 96.30128 444.76373 94.95813 446.4206 94.95813C448.07745 94.95813 449.4206 96.30128 449.4206 97.95813Z" fill-rule="nonzero"/><path fill="#000000" fill-opacity="0.0" clip-path="url(#id_0)" d="M482.82648 97.92985C482.82648 99.5867 481.48334 100.92985 479.82648 100.92985C478.16962 100.92985 476.82648 99.5867 476.82648 97.92985C476.82648 96.27299 478.16962 94.92985 479.82648 94.92985C481.48334 94.92985 482.82648 96.27299 482.82648 97.92985Z" fill-rule="nonzero"/><path fill="#000000" fill-opacity="0.0" clip-path="url(#id_0)" d="M516.23236 97.90156C516.23236 99.55841 514.8892 100.90156 513.23236 100.90156C511.5755 100.90156 510.23236 99.55841 510.23236 97.90156C510.23236 96.2447 511.5755 94.90156 513.23236 94.90156C514.8892 94.90156 516.23236 96.2447 516.23236 97.90156Z" fill-rule="nonzero"/><path fill="#000000" fill-opacity="0.0" clip-path="url(#id_0)" d="M549.63824 97.87327C549.63824 99.53012 548.2951 100.87327 546.63824 100.87327C544.9814 100.87327 543.63824 99.53012 543.63824 97.87327C543.63824 96.216415 544.9814 94.87327 546.63824 94.87327C548.2951 94.87327 549.63824 96.216415 549.63824 97.87327Z" fill-rule="nonzero"/><path fill="#000000" fill-opacity="0.0" clip-path="url(#id_0)" d="M583.0441 97.83083C583.0441 99.487686 581.701 100.83083 580.0441 100.83083C578.38727 100.83083 577.0441 99.487686 577.0441 97.83083C577.0441 96.17398 578.38727 94.83083 580.0441 94.83083C581.701 94.83083 583.0441 96.17398 583.0441 97.83083Z" fill-rule="nonzero"/><path fill="#000000" fill-opacity="0.0" clip-path="url(#id_0)" d="M616.45 97.7884C616.45 99.44525 615.1069 100.7884 613.45 100.7884C611.79315 100.7884 610.45 99.44525 610.45 97.7884C610.45 96.131546 611.79315 94.7884 613.45 94.7884C615.1069 94.7884 616.45 96.131546 616.45 97.7884Z" fill-rule="nonzero"/><path fill="#000000" fill-opacity="0.0" clip-path="url(#id_0)" d="M48.55 286.2914C48.55 287.94827 47.206856 289.2914 45.55 289.2914C43.893147 289.2914 42.55 287.94827 42.55 286.2914C42.55 284.63455 43.893147 283.2914 45.55 283.2914C47.206856 283.2914 48.55 284.63455 48.55 286.2914Z" fill-rule="nonzero"/><path fill="#000000" fill-opacity="0.0" clip-path="url(#id_0)" d="M81.95588 286.2914C81.95588 287.94827 80.61274 289.2914 78.95588 289.2914C77.29903 289.2914 75.95588 287.94827 75.95588 286.2914C75.95588 284.63455 77.29903 283.2914 78.95588 283.2914C80.61274 283.2914 81.95588 284.63455 81.95588 286.2914Z" fill-rule="nonzero"/><path fill="#000000" fill-opacity="0.0" clip-path="url(#id_0)" d="M115.36176 286.2914C115.36176 287.94827 114.018616 289.2914 112.36176 289.2914C110.70491 289.2914 109.36176 287.94827 109.36176 286.2914C109.36176 284.63455 110.70491 283.2914 112.36176 283.2914C114.018616 283.2914 115.36176 284.63455 115.36176 286.2914Z" fill-rule="nonzero"/><path fill="#000000" fill-opacity="0.0" clip-path="url(#id_0)" d="M148.76765 286.2914C148.76765 287.94827 147.4245 289.2914 145.76765 289.2914C144.1108 289.2914 142.76765 287.94827 142.76765 286.2914C142.76765 284.63455 144.1108 283.2914 145.76765 283.2914C147.4245 283.2914 148.76765 284.63455 148.76765 286.2914Z" fill-rule="nonzero"/><path fill="#000000" fill-opacity="0.0" clip-path="url(#id_0)" d="M182.17352 286.2914C182.17352 287.94827 180.83038 289.2914 179.17352 289.2914C177.51668 289.2914 176.17352 287.94827 176.17352 286.2914C176.17352 284.63455 177.51668 283.2914 179.17352 283.2914C180.83038 283.2914 182.17352 284.63455 182.17352 286.2914Z" fill-rule="nonzero"/><path fill="#000000" fill-opacity="0.0" clip-path="url(#id_0)" d="M215.5794 286.2914C215.5794 287.94827 214.23627 289.2914 212.5794 289.2914C210.92256 289.2914 209.5794 287.94827 209.5794 286.2914C209.5794 284.63455 210.92256 283.2914 212.5794 283.2914C214.23627 283.2914 215.5794 284.63455 215.5794 286.2914Z" fill-rule="nonzero"/><path fill="#000000" fill-opacity="0.0" clip-path="url(#id_0)" d="M248.98529 286.2914C248.98529 287.94827 247.64215 289.2914 245.98529 289.2914C244.32845 289.2914 242.98529 287.94827 242.98529 286.2914C242.98529 284.63455 244.32845 283.2914 245.98529 283.2914C247.64215 283.2914 248.98529 284.63455 248.98529 286.2914Z" fill-rule="nonzero"/><path fill="#000000" fill-opacity="0.0" clip-path="url(#id_0)" d="M282.39117 286.2914C282.39117 287.94827 281.04803 289.2914 279.39117 289.2914C277.7343 289.2914 276.39117 287.94827 276.39117 286.2914C276.39117 284.63455 277.7343 283.2914 279.39117 283.2914C281.04803 283.2914 282.39117 284.63455 282.39117 286.2914Z" fill-rule="nonzero"/><path fill="#000000" fill-opacity="0.0" clip-path="url(#id_0)" d="M315.79706 286.27725C315.79706 287.9341 314.45392 289.27725 312.79706 289.27725C311.1402 289.27725 309.79706 287.9341 309.79706 286.27725C309.79706 284.62042 311.1402 283.27725 312.79706 283.27725C314.45392 283.27725 315.79706 284.62042 315.79706 286.27725Z" fill-rule="nonzero"/><path fill="#000000" fill-opacity="0.0" clip-path="url(#id_0)" d="M349.20294 286.27725C349.20294 287.9341 347.8598 289.27725 346.20294 289.27725C344.54608 289.27725 343.20294 287.9341 343.20294 286.27725C343.20294 284.62042 344.54608 283.27725 346.20294 283.27725C347.8598 283.27725 349.20294 284.62042 349.20294 286.27725Z" fill-rule="nonzero"/><path fill="#000000" fill-opacity="0.0" clip-path="url(#id_0)" d="M382.60883 286.27725C382.60883 287.9341 381.2657 289.27725 379.60883 289.27725C377.95197 289.27725 376.60883 287.9341 376.60883 286.27725C376.60883 284.62042 377.95197 283.27725 379.60883 283.27725C381.2657 283.27725 382.60883 284.62042 382.60883 286.27725Z" fill-rule="nonzero"/><path fill="#000000" fill-opacity="0.0" clip-path="url(#id_0)" d="M416.0147 286.27725C416.0147 287.9341 414.67157 289.27725 413.0147 289.27725C411.35785 289.27725 410.0147 287.9341 410.0147 286.27725C410.0147 284.62042 411.35785 283.27725 413.0147 283.27725C414.67157 283.27725 416.0147 284.62042 416.0147 286.27725Z" fill-rule="nonzero"/><path fill="#000000" fill-opacity="0.0" clip-path="url(#id_0)" d="M449.4206 286.27725C449.4206 287.9341 448.07745 289.27725 446.4206 289.27725C444.76373 289.27725 443.4206 287.9341 443.4206 286.27725C443.4206 284.62042 444.76373 283.27725 446.4206 283.27725C448.07745 283.27725 449.4206 284.62042 449.4206 286.27725Z" fill-rule="nonzero"/><path fill="#000000" fill-opacity="0.0" clip-path="url(#id_0)" d="M482.82648 286.27725C482.82648 287.9341 481.48334 289.27725 479.82648 289.27725C478.16962 289.27725 476.82648 287.9341 476.82648 286.27725C476.82648 284.62042 478.16962 283.27725 479.82648 283.27725C481.48334 283.27725 482.82648 284.62042 482.82648 286.27725Z" fill-rule="nonzero"/><path fill="#000000" fill-opacity="0.0" clip-path="url(#id_0)" d="M516.23236 286.27725C516.23236 287.9341 514.8892 289.27725 513.23236 289.27725C511.5755 289.27725 510.23236 287.9341 510.23236 286.27725C510.23236 284.62042 511.5755 283.27725 513.23236 283.27725C514.8892 283.27725 516.23236 284.62042 516.23236 286.27725Z" fill-rule="nonzero"/><path fill="#000000" fill-opacity="0.0" clip-path="url(#id_0)" d="M549.63824 286.26312C549.63824 287.91998 548.2951 289.26312 546.63824 289.26312C544.9814 289.26312 543.63824 287.91998 543.63824 286.26312C543.63824 284.60626 544.9814 283.26312 546.63824 283.26312C548.2951 283.26312 549.63824 284.60626 549.63824 286.26312Z" fill-rule="nonzero"/><path fill="#000000" fill-opacity="0.0" clip-path="url(#id_0)" d="M583.0441 286.26312C583.0441 287.91998 581.701 289.26312 580.0441 289.26312C578.38727 289.26312 577.0441 287.91998 577.0441 286.26312C577.0441 284.60626 578.38727 283.26312 580.0441 283.26312C581.701 283.26312 583.0441 284.60626 583.0441 286.26312Z" fill-rule="nonzero"/><path fill="#000000" fill-opacity="0.0" clip-path="url(#id_0)" d="M616.45 286.26312C616.45 287.91998 615.1069 289.26312 613.45 289.26312C611.79315 289.26312 610.45 287.91998 610.45 286.26312C610.45 284.60626 611.79315 283.26312 613.45 283.26312C615.1069 283.26312 616.45 284.60626 616.45 286.26312Z" fill-rule="nonzero"/><path fill="#000000" fill-opacity="0.0" clip-path="url(#id_0)" d="M48.55 286.30554C48.55 287.9624 47.206856 289.30554 45.55 289.30554C43.893147 289.30554 42.55 287.9624 42.55 286.30554C42.55 284.6487 43.893147 283.30554 45.55 283.30554C47.206856 283.30554 48.55 284.6487 48.55 286.30554Z" fill-rule="nonzero"/><path fill="#000000" fill-opacity="0.0" clip-path="url(#id_0)" d="M81.95588 286.30554C81.95588 287.9624 80.61274 289.30554 78.95588 289.30554C77.29903 289.30554 75.95588 287.9624 75.95588 286.30554C75.95588 284.6487 77.29903 283.30554 78.95588 283.30554C80.61274 283.30554 81.95588 284.6487 81.95588 286.30554Z" fill-rule="nonzero"/><path fill="#000000" fill-opacity="0.0" clip-path="url(#id_0)" d="M115.36176 286.30554C115.36176 287.9624 114.018616 289.30554 112.36176 289.30554C110.70491 289.30554 109.36176 287.9624 109.36176 286.30554C109.36176 284.6487 110.70491 283.30554 112.36176 283.30554C114.018616 283.30554 115.36176 284.6487 115.36176 286.30554Z" fill-rule="nonzero"/><path fill="#000000" fill-opacity="0.0" clip-path="url(#id_0)" d="M148.76765 286.30554C148.76765 287.9624 147.4245 289.30554 145.76765 289.30554C144.1108 289.30554 142.76765 287.9624 142.76765 286.30554C142.76765 284.6487 144.1108 283.30554 145.76765 283.30554C147.4245 283.30554 148.76765 284.6487 148.76765 286.30554Z" fill-rule="nonzero"/><path fill="#000000" fill-opacity="0.0" clip-path="url(#id_0)" d="M182.17352 286.30554C182.17352 287.9624 180.83038 289.30554 179.17352 289.30554C177.51668 289.30554 176.17352 287.9624 176.17352 286.30554C176.17352 284.6487 177.51668 283.30554 179.17352 283.30554C180.83038 283.30554 182.17352 284.6487 182.17352 286.30554Z" fill-rule="nonzero"/><path fill="#000000" fill-opacity="0.0" clip-path="url(#id_0)" d="M215.5794 286.30554C215.5794 287.9624 214.23627 289.30554 212.5794 289.30554C210.92256 289.30554 209.5794 287.9624 209.5794 286.30554C209.5794 284.6487 210.92256 283.30554 212.5794 283.30554C214.23627 283.30554 215.5794 284.6487 215.5794 286.30554Z" fill-rule="nonzero"/><path fill="#000000" fill-opacity="0.0" clip-path="url(#id_0)" d="M248.98529 286.30554C248.98529 287.9624 247.64215 289.30554 245.98529 289.30554C244.32845 289.30554 242.98529 287.9624 242.98529 286.30554C242.98529 284.6487 244.32845 283.30554 245.98529 283.30554C247.64215 283.30554 248.98529 284.6487 248.98529 286.30554Z" fill-rule="nonzero"/><path fill="#000000" fill-opacity="0.0" clip-path="url(#id_0)" d="M282.39117 286.30554C282.39117 287.9624 281.04803 289.30554 279.39117 289.30554C277.7343 289.30554 276.39117 287.9624 276.39117 286.30554C276.39117 284.6487 277.7343 283.30554 279.39117 283.30554C281.04803 283.30554 282.39117 284.6487 282.39117 286.30554Z" fill-rule="nonzero"/><path fill="#000000" fill-opacity="0.0" clip-path="url(#id_0)" d="M315.79706 286.30554C315.79706 287.9624 314.45392 289.30554 312.79706 289.30554C311.1402 289.30554 309.79706 287.9624 309.79706 286.30554C309.79706 284.6487 311.1402 283.30554 312.79706 283.30554C314.45392 283.30554 315.79706 284.6487 315.79706 286.30554Z" fill-rule="nonzero"/><path fill="#000000" fill-opacity="0.0" clip-path="url(#id_0)" d="M349.20294 286.30554C349.20294 287.9624 347.8598 289.30554 346.20294 289.30554C344.54608 289.30554 343.20294 287.9624 343.20294 286.30554C343.20294 284.6487 344.54608 283.30554 346.20294 283.30554C347.8598 283.30554 349.20294 284.6487 349.20294 286.30554Z" fill-rule="nonzero"/><path fill="#000000" fill-opacity="0.0" clip-path="url(#id_0)" d="M382.60883 286.30554C382.60883 287.9624 381.2657 289.30554 379.60883 289.30554C377.95197 289.30554 376.60883 287.9624 376.60883 286.30554C376.60883 284.6487 377.95197 283.30554 379.60883 283.30554C381.2657 283.30554 382.60883 284.6487 382.60883 286.30554Z" fill-rule="nonzero"/><path fill="#000000" fill-opacity="0.0" clip-path="url(#id_0)" d="M416.0147 286.30554C416.0147 287.9624 414.67157 289.30554 413.0147 289.30554C411.35785 289.30554 410.0147 287.9624 410.0147 286.30554C410.0147 284.6487 411.35785 283.30554 413.0147 283.30554C414.67157 283.30554 416.0147 284.6487 416.0147 286.30554Z" fill-rule="nonzero"/><path fill="#000000" fill-opacity="0.0" clip-path="url(#id_0)" d="M449.4206 286.30554C449.4206 287.9624 448.07745 289.30554 446.4206 289.30554C444.76373 289.30554 443.4206 287.9624 443.4206 286.30554C443.4206 284.6487 444.76373 283.30554 446.4206 283.30554C448.07745 283.30554 449.4206 284.6487 449.4206 286.30554Z" fill-rule="nonzero"/><path fill="#000000" fill-opacity="0.0" clip-path="url(#id_0)" d="M482.82648 286.30554C482.82648 287.9624 481.48334 289.30554 479.82648 289.30554C478.16962 289.30554 476.82648 287.9624 476.82648 286.30554C476.82648 284.6487 478.16962 283.30554 479.82648 283.30554C481.48334 283.30554 482.82648 284.6487 482.82648 286.30554Z" fill-rule="nonzero"/><path fill="#000000" fill-opacity="0.0" clip-path="url(#id_0)" d="M516.23236 286.30554C516.23236 287.9624 514.8892 289.30554 513.23236 289.30554C511.5755 289.30554 510.23236 287.9624 510.23236 286.30554C510.23236 284.6487 511.5755 283.30554 513.23236 283.30554C514.8892 283.30554 516.23236 284.6487 516.23236 286.30554Z" fill-rule="nonzero"/><path fill="#000000" fill-opacity="0.0" clip-path="url(#id_0)" d="M549.63824 286.30554C549.63824 287.9624 548.2951 289.30554 546.63824 289.30554C544.9814 289.30554 543.63824 287.9624 543.63824 286.30554C543.63824 284.6487 544.9814 283.30554 546.63824 283.30554C548.2951 283.30554 549.63824 284.6487 549.63824 286.30554Z" fill-rule="nonzero"/><path fill="#000000" fill-opacity="0.0" clip-path="url(#id_0)" d="M583.0441 286.30554C583.0441 287.9624 581.701 289.30554 580.0441 289.30554C578.38727 289.30554 577.0441 287.9624 577.0441 286.30554C577.0441 284.6487 578.38727 283.30554 580.0441 283.30554C581.701 283.30554 583.0441 284.6487 583.0441 286.30554Z" fill-rule="nonzero"/><path fill="#000000" fill-opacity="0.0" clip-path="url(#id_0)" d="M616.45 286.30554C616.45 287.9624 615.1069 289.30554 613.45 289.30554C611.79315 289.30554 610.45 287.9624 610.45 286.30554C610.45 284.6487 611.79315 283.30554 613.45 283.30554C615.1069 283.30554 616.45 284.6487 616.45 286.30554Z" fill-rule="nonzero"/><path fill="#000000" d="M318.25 351.84064L318.125 350.85626Q318.46875 350.95 318.73438 350.95Q319.07812 350.95 319.28125 350.825Q319.5 350.71564 319.64062 350.5125Q319.73438 350.34064 319.96875 349.71564Q319.98438 349.6375 320.0625 349.46564L317.6875 343.23126L318.82812 343.23126L320.125 346.825Q320.375 347.5125 320.57812 348.27814Q320.76562 347.54376 321.01562 346.85626L322.34375 343.23126L323.39062 343.23126L321.03125 349.5594Q320.64062 350.575 320.4375 350.96564Q320.15625 351.4969 319.78125 351.73126Q319.42188 351.98126 318.92188 351.98126Q318.625 351.98126 318.25 351.84064ZM328.54688 347.45L329.64062 347.575Q329.39062 348.52814 328.6875 349.0594Q327.98438 349.59064 326.90625 349.59064Q325.54688 349.59064 324.73438 348.7469Q323.9375 347.90314 323.9375 346.3875Q323.9375 344.825 324.75 343.96564Q325.5625 343.09064 326.84375 343.09064Q328.09375 343.09064 328.875 343.9344Q329.67188 344.77814 329.67188 346.325Q329.67188 346.41876 329.67188 346.60626L325.03125 346.60626Q325.09375 347.6375 325.60938 348.1844Q326.125 348.71564 326.90625 348.71564Q327.48438 348.71564 327.89062 348.41876Q328.3125 348.10626 328.54688 347.45ZM325.09375 345.7469L328.5625 345.7469Q328.5 344.95 328.17188 344.5594Q327.65625 343.95 326.85938 343.95Q326.125 343.95 325.625 344.4344Q325.14062 344.91876 325.09375 345.7469ZM335.35938 348.6844Q334.76562 349.1844 334.21875 349.3875Q333.6875 349.59064 333.0625 349.59064Q332.03125 349.59064 331.48438 349.09064Q330.9375 348.59064 330.9375 347.8094Q330.9375 347.35626 331.14062 346.98126Q331.34375 346.59064 331.6875 346.3719Q332.03125 346.1375 332.45312 346.02814Q332.75 345.9344 333.39062 345.85626Q334.65625 345.71564 335.26562 345.4969Q335.26562 345.27814 335.26562 345.23126Q335.26562 344.575 334.96875 344.3094Q334.5625 343.96564 333.76562 343.96564Q333.03125 343.96564 332.67188 344.23126Q332.3125 344.48126 332.14062 345.1375L331.10938 344.9969Q331.25 344.34064 331.57812 343.9344Q331.90625 343.52814 332.51562 343.3094Q333.125 343.09064 333.92188 343.09064Q334.71875 343.09064 335.21875 343.27814Q335.71875 343.46564 335.95312 343.7469Q336.1875 344.02814 336.28125 344.46564Q336.32812 344.73126 336.32812 345.4344L336.32812 346.84064Q336.32812 348.3094 336.39062 348.7Q336.46875 349.09064 336.67188 349.45L335.5625 349.45Q335.40625 349.1219 335.35938 348.6844ZM335.26562 346.325Q334.6875 346.5594 333.54688 346.73126Q332.89062 346.825 332.625 346.95Q332.35938 347.0594 332.20312 347.27814Q332.0625 347.4969 332.0625 347.77814Q332.0625 348.2 332.375 348.48126Q332.70312 348.7625 333.3125 348.7625Q333.92188 348.7625 334.39062 348.4969Q334.875 348.23126 335.09375 347.7625Q335.26562 347.40314 335.26562 346.71564L335.26562 346.325ZM338.28125 349.45L338.28125 343.23126L339.23438 343.23126L339.23438 344.16876Q339.59375 343.5125 339.89062 343.3094Q340.20312 343.09064 340.57812 343.09064Q341.10938 343.09064 341.65625 343.41876L341.29688 344.40314Q340.90625 344.16876 340.53125 344.16876Q340.17188 344.16876 339.89062 344.3875Q339.625 344.59064 339.51562 344.96564Q339.32812 345.52814 339.32812 346.1844L339.32812 349.45L338.28125 349.45Z" fill-rule="nonzero"/><path fill="#000000" d="M33.05 300.21564Q33.05 298.6844 33.3625 297.7625Q33.675 296.825 34.284374 296.325Q34.909374 295.825 35.846874 295.825Q36.534374 295.825 37.05 296.10626Q37.58125 296.3875 37.925 296.91876Q38.26875 297.4344 38.45625 298.1844Q38.64375 298.9344 38.64375 300.21564Q38.64375 301.73126 38.33125 302.65314Q38.034374 303.575 37.409374 304.09064Q36.8 304.59064 35.846874 304.59064Q34.6125 304.59064 33.89375 303.7Q33.05 302.6375 33.05 300.21564ZM34.128124 300.21564Q34.128124 302.325 34.628124 303.02814Q35.128124 303.73126 35.846874 303.73126Q36.58125 303.73126 37.065624 303.02814Q37.565624 302.325 37.565624 300.21564Q37.565624 298.09064 37.065624 297.40314Q36.58125 296.7 35.83125 296.7Q35.1125 296.7 34.675 297.3094Q34.128124 298.09064 34.128124 300.21564Z" fill-rule="nonzero"/><path fill="#000000" d="M26.05 231.47778L27.159374 231.38403Q27.284374 232.19653 27.721874 232.60278Q28.175 233.00903 28.815624 233.00903Q29.565624 233.00903 30.096874 232.43091Q30.628124 231.85278 30.628124 230.91528Q30.628124 230.00903 30.1125 229.49341Q29.6125 228.96216 28.784374 228.96216Q28.284374 228.96216 27.8625 229.19653Q27.45625 229.43091 27.221874 229.79028L26.2375 229.66528L27.065624 225.25903L31.346874 225.25903L31.346874 226.25903L27.909374 226.25903L27.45625 228.57153Q28.221874 228.02466 29.065624 228.02466Q30.190624 228.02466 30.95625 228.80591Q31.7375 229.58716 31.7375 230.82153Q31.7375 231.97778 31.065624 232.83716Q30.2375 233.86841 28.815624 233.86841Q27.64375 233.86841 26.89375 233.21216Q26.159374 232.55591 26.05 231.47778ZM33.05 229.49341Q33.05 227.96216 33.3625 227.04028Q33.675 226.10278 34.284374 225.60278Q34.909374 225.10278 35.846874 225.10278Q36.534374 225.10278 37.05 225.38403Q37.58125 225.66528 37.925 226.19653Q38.26875 226.71216 38.45625 227.46216Q38.64375 228.21216 38.64375 229.49341Q38.64375 231.00903 38.33125 231.93091Q38.034374 232.85278 37.409374 233.36841Q36.8 233.86841 35.846874 233.86841Q34.6125 233.86841 33.89375 232.97778Q33.05 231.91528 33.05 229.49341ZM34.128124 229.49341Q34.128124 231.60278 34.628124 232.30591Q35.128124 233.00903 35.846874 233.00903Q36.58125 233.00903 37.065624 232.30591Q37.565624 231.60278 37.565624 229.49341Q37.565624 227.36841 37.065624 226.68091Q36.58125 225.97778 35.83125 225.97778Q35.1125 225.97778 34.675 226.58716Q34.128124 227.36841 34.128124 229.49341Z" fill-rule="nonzero"/><path fill="#000000" d="M23.01875 163.00555L21.971874 163.00555L21.971874 156.2868Q21.58125 156.64618 20.95625 157.02118Q20.346874 157.38055 19.8625 157.55243L19.8625 156.5368Q20.7375 156.11493 21.39375 155.5368Q22.065624 154.94305 22.346874 154.38055L23.01875 154.38055L23.01875 163.00555ZM26.05 158.77118Q26.05 157.23993 26.3625 156.31805Q26.675 155.38055 27.284374 154.88055Q27.909374 154.38055 28.846874 154.38055Q29.534374 154.38055 30.05 154.6618Q30.58125 154.94305 30.925 155.4743Q31.26875 155.98993 31.45625 156.73993Q31.64375 157.48993 31.64375 158.77118Q31.64375 160.2868 31.33125 161.20868Q31.034374 162.13055 30.409374 162.64618Q29.8 163.14618 28.846874 163.14618Q27.6125 163.14618 26.89375 162.25555Q26.05 161.19305 26.05 158.77118ZM27.128124 158.77118Q27.128124 160.88055 27.628124 161.58368Q28.128124 162.2868 28.846874 162.2868Q29.58125 162.2868 30.065624 161.58368Q30.565624 160.88055 30.565624 158.77118Q30.565624 156.64618 30.065624 155.95868Q29.58125 155.25555 28.83125 155.25555Q28.1125 155.25555 27.675 155.86493Q27.128124 156.64618 27.128124 158.77118ZM33.05 158.77118Q33.05 157.23993 33.3625 156.31805Q33.675 155.38055 34.284374 154.88055Q34.909374 154.38055 35.846874 154.38055Q36.534374 154.38055 37.05 154.6618Q37.58125 154.94305 37.925 155.4743Q38.26875 155.98993 38.45625 156.73993Q38.64375 157.48993 38.64375 158.77118Q38.64375 160.2868 38.33125 161.20868Q38.034374 162.13055 37.409374 162.64618Q36.8 163.14618 35.846874 163.14618Q34.6125 163.14618 33.89375 162.25555Q33.05 161.19305 33.05 158.77118ZM34.128124 158.77118Q34.128124 160.88055 34.628124 161.58368Q35.128124 162.2868 35.846874 162.2868Q36.58125 162.2868 37.065624 161.58368Q37.565624 160.88055 37.565624 158.77118Q37.565624 156.64618 37.065624 155.95868Q36.58125 155.25555 35.83125 155.25555Q35.1125 155.25555 34.675 155.86493Q34.128124 156.64618 34.128124 158.77118Z" fill-rule="nonzero"/><path fill="#000000" d="M23.01875 92.28333L21.971874 92.28333L21.971874 85.56458Q21.58125 85.92396 20.95625 86.29896Q20.346874 86.65833 19.8625 86.83021L19.8625 85.81458Q20.7375 85.39271 21.39375 84.81458Q22.065624 84.22083 22.346874 83.65833L23.01875 83.65833L23.01875 92.28333ZM26.05 90.03333L27.159374 89.93958Q27.284374 90.75208 27.721874 91.15833Q28.175 91.56458 28.815624 91.56458Q29.565624 91.56458 30.096874 90.98646Q30.628124 90.40833 30.628124 89.47083Q30.628124 88.56458 30.1125 88.04896Q29.6125 87.51771 28.784374 87.51771Q28.284374 87.51771 27.8625 87.75208Q27.45625 87.98646 27.221874 88.34583L26.2375 88.22083L27.065624 83.81458L31.346874 83.81458L31.346874 84.81458L27.909374 84.81458L27.45625 87.12708Q28.221874 86.58021 29.065624 86.58021Q30.190624 86.58021 30.95625 87.36146Q31.7375 88.14271 31.7375 89.37708Q31.7375 90.53333 31.065624 91.39271Q30.2375 92.42396 28.815624 92.42396Q27.64375 92.42396 26.89375 91.76771Q26.159374 91.11146 26.05 90.03333ZM33.05 88.04896Q33.05 86.51771 33.3625 85.59583Q33.675 84.65833 34.284374 84.15833Q34.909374 83.65833 35.846874 83.65833Q36.534374 83.65833 37.05 83.93958Q37.58125 84.22083 37.925 84.75208Q38.26875 85.26771 38.45625 86.01771Q38.64375 86.76771 38.64375 88.04896Q38.64375 89.56458 38.33125 90.48646Q38.034374 91.40833 37.409374 91.92396Q36.8 92.42396 35.846874 92.42396Q34.6125 92.42396 33.89375 91.53333Q33.05 90.47083 33.05 88.04896ZM34.128124 88.04896Q34.128124 90.15833 34.628124 90.86146Q35.128124 91.56458 35.846874 91.56458Q36.58125 91.56458 37.065624 90.86146Q37.565624 90.15833 37.565624 88.04896Q37.565624 85.92396 37.065624 85.23646Q36.58125 84.53333 35.83125 84.53333Q35.1125 84.53333 34.675 85.14271Q34.128124 85.92396 34.128124 88.04896Z" fill-rule="nonzero"/><path fill="#000000" d="M42.55 313.21564Q42.55 311.6844 42.8625 310.7625Q43.175 309.825 43.784374 309.325Q44.409374 308.825 45.346874 308.825Q46.034374 308.825 46.55 309.10626Q47.08125 309.3875 47.425 309.91876Q47.76875 310.4344 47.95625 311.1844Q48.14375 311.9344 48.14375 313.21564Q48.14375 314.73126 47.83125 315.65314Q47.534374 316.575 46.909374 317.09064Q46.3 317.59064 45.346874 317.59064Q44.1125 317.59064 43.39375 316.7Q42.55 315.6375 42.55 313.21564ZM43.628124 313.21564Q43.628124 315.325 44.128124 316.02814Q44.628124 316.73126 45.346874 316.73126Q46.08125 316.73126 46.565624 316.02814Q47.065624 315.325 47.065624 313.21564Q47.065624 311.09064 46.565624 310.40314Q46.08125 309.7 45.33125 309.7Q44.6125 309.7 44.175 310.3094Q43.628124 311.09064 43.628124 313.21564Z" fill-rule="nonzero"/><path fill="#000000" d="M209.5794 315.2L210.68878 315.10626Q210.81378 315.91876 211.25128 316.325Q211.7044 316.73126 212.34503 316.73126Q213.09503 316.73126 213.62628 316.15314Q214.15753 315.575 214.15753 314.6375Q214.15753 313.73126 213.6419 313.21564Q213.1419 312.6844 212.31378 312.6844Q211.81378 312.6844 211.3919 312.91876Q210.98566 313.15314 210.75128 313.5125L209.7669 313.3875L210.59503 308.98126L214.87628 308.98126L214.87628 309.98126L211.43878 309.98126L210.98566 312.29376Q211.75128 311.7469 212.59503 311.7469Q213.72003 311.7469 214.48566 312.52814Q215.2669 313.3094 215.2669 314.54376Q215.2669 315.7 214.59503 316.5594Q213.7669 317.59064 212.34503 317.59064Q211.17316 317.59064 210.42316 316.9344Q209.68878 316.27814 209.5794 315.2Z" fill-rule="nonzero"/><path fill="#000000" d="M377.07758 317.45L376.0307 317.45L376.0307 310.73126Q375.64008 311.09064 375.01508 311.46564Q374.4057 311.825 373.92133 311.9969L373.92133 310.98126Q374.79633 310.5594 375.45258 309.98126Q376.12445 309.3875 376.4057 308.825L377.07758 308.825L377.07758 317.45ZM380.10883 313.21564Q380.10883 311.6844 380.42133 310.7625Q380.73383 309.825 381.3432 309.325Q381.9682 308.825 382.9057 308.825Q383.5932 308.825 384.10883 309.10626Q384.64008 309.3875 384.98383 309.91876Q385.32758 310.4344 385.51508 311.1844Q385.70258 311.9344 385.70258 313.21564Q385.70258 314.73126 385.39008 315.65314Q385.0932 316.575 384.4682 317.09064Q383.85883 317.59064 382.9057 317.59064Q381.67133 317.59064 380.95258 316.7Q380.10883 315.6375 380.10883 313.21564ZM381.18695 313.21564Q381.18695 315.325 381.68695 316.02814Q382.18695 316.73126 382.9057 316.73126Q383.64008 316.73126 384.12445 316.02814Q384.62445 315.325 384.62445 313.21564Q384.62445 311.09064 384.12445 310.40314Q383.64008 309.7 382.89008 309.7Q382.17133 309.7 381.73383 310.3094Q381.18695 311.09064 381.18695 313.21564Z" fill-rule="nonzero"/><path fill="#000000" d="M544.107 317.45L543.0601 317.45L543.0601 310.73126Q542.6695 311.09064 542.0445 311.46564Q541.4351 311.825 540.95074 311.9969L540.95074 310.98126Q541.82574 310.5594 542.482 309.98126Q543.1539 309.3875 543.4351 308.825L544.107 308.825L544.107 317.45ZM547.13824 315.2L548.2476 315.10626Q548.3726 315.91876 548.8101 316.325Q549.26324 316.73126 549.9039 316.73126Q550.6539 316.73126 551.1851 316.15314Q551.7164 315.575 551.7164 314.6375Q551.7164 313.73126 551.20074 313.21564Q550.70074 312.6844 549.8726 312.6844Q549.3726 312.6844 548.95074 312.91876Q548.5445 313.15314 548.3101 313.5125L547.32574 313.3875L548.1539 308.98126L552.4351 308.98126L552.4351 309.98126L548.9976 309.98126L548.5445 312.29376Q549.3101 311.7469 550.1539 311.7469Q551.2789 311.7469 552.0445 312.52814Q552.82574 313.3094 552.82574 314.54376Q552.82574 315.7 552.1539 316.5594Q551.32574 317.59064 549.9039 317.59064Q548.732 317.59064 547.982 316.9344Q547.2476 316.27814 547.13824 315.2Z" fill-rule="nonzero"/><path fill="#4285f4" d="M221.0 56.916668C221.0 56.364384 221.44771 55.916668 222.0 55.916668L232.0 55.916668C232.55229 55.916668 233.0 56.364384 233.0 56.916668L233.0 66.916664C233.0 67.46895 232.55229 67.916664 232.0 67.916664L222.0 67.916664C221.44771 67.916664 221.0 67.46895 221.0 66.916664Z" fill-rule="nonzero"/><path fill="#1a1a1a" d="M242.04688 65.916664L242.04688 60.510414L241.10938 60.510414L241.10938 59.697914L242.04688 59.697914L242.04688 59.02604Q242.04688 58.40104 242.15625 58.104164Q242.3125 57.68229 242.6875 57.43229Q243.07812 57.18229 243.76562 57.18229Q244.21875 57.18229 244.75 57.291664L244.59375 58.197914Q244.26562 58.15104 243.96875 58.15104Q243.48438 58.15104 243.28125 58.354164Q243.09375 58.55729 243.09375 59.11979L243.09375 59.697914L244.3125 59.697914L244.3125 60.510414L243.09375 60.510414L243.09375 65.916664L242.04688 65.916664ZM244.40625 62.80729Q244.40625 61.072914 245.35938 60.24479Q246.15625 59.55729 247.3125 59.55729Q248.59375 59.55729 249.40625 60.40104Q250.23438 61.229164 250.23438 62.71354Q250.23438 63.916664 249.875 64.604164Q249.51562 65.291664 248.8125 65.68229Q248.125 66.05729 247.3125 66.05729Q246.01562 66.05729 245.20312 65.229164Q244.40625 64.385414 244.40625 62.80729ZM245.48438 62.80729Q245.48438 63.99479 246.0 64.58854Q246.53125 65.18229 247.3125 65.18229Q248.10938 65.18229 248.625 64.58854Q249.14062 63.99479 249.14062 62.77604Q249.14062 61.61979 248.60938 61.02604Q248.09375 60.43229 247.3125 60.43229Q246.53125 60.43229 246.0 61.02604Q245.48438 61.604164 245.48438 62.80729ZM251.78125 65.916664L251.78125 59.697914L252.73438 59.697914L252.73438 60.635414Q253.09375 59.979164 253.39062 59.77604Q253.70312 59.55729 254.07812 59.55729Q254.60938 59.55729 255.15625 59.885414L254.79688 60.86979Q254.40625 60.635414 254.03125 60.635414Q253.67188 60.635414 253.39062 60.854164Q253.125 61.05729 253.01562 61.43229Q252.82812 61.99479 252.82812 62.65104L252.82812 65.916664L251.78125 65.916664ZM260.04688 63.916664L261.14062 64.041664Q260.89062 64.99479 260.1875 65.52604Q259.48438 66.05729 258.40625 66.05729Q257.04688 66.05729 256.23438 65.21354Q255.4375 64.36979 255.4375 62.854164Q255.4375 61.291664 256.25 60.43229Q257.0625 59.55729 258.34375 59.55729Q259.59375 59.55729 260.375 60.40104Q261.17188 61.24479 261.17188 62.791664Q261.17188 62.885414 261.17188 63.072914L256.53125 63.072914Q256.59375 64.104164 257.10938 64.65104Q257.625 65.18229 258.40625 65.18229Q258.98438 65.18229 259.39062 64.885414Q259.8125 64.572914 260.04688 63.916664ZM256.59375 62.21354L260.0625 62.21354Q260.0 61.416664 259.67188 61.02604Q259.15625 60.416664 258.35938 60.416664Q257.625 60.416664 257.125 60.90104Q256.64062 61.385414 256.59375 62.21354ZM262.375 64.05729L263.40625 63.90104Q263.5 64.52604 263.89062 64.854164Q264.29688 65.18229 265.03125 65.18229Q265.75 65.18229 266.09375 64.90104Q266.45312 64.604164 266.45312 64.197914Q266.45312 63.83854 266.14062 63.635414Q265.92188 63.49479 265.0625 63.27604Q263.90625 62.979164 263.45312 62.77604Q263.01562 62.55729 262.78125 62.18229Q262.54688 61.80729 262.54688 61.33854Q262.54688 60.93229 262.73438 60.572914Q262.92188 60.21354 263.25 59.979164Q263.5 59.80729 263.92188 59.68229Q264.34375 59.55729 264.84375 59.55729Q265.5625 59.55729 266.10938 59.77604Q266.67188 59.979164 266.9375 60.33854Q267.20312 60.697914 267.29688 61.291664L266.26562 61.43229Q266.20312 60.96354 265.85938 60.697914Q265.53125 60.416664 264.90625 60.416664Q264.1875 60.416664 263.875 60.666664Q263.5625 60.90104 263.5625 61.229164Q263.5625 61.43229 263.6875 61.58854Q263.82812 61.760414 264.09375 61.86979Q264.25 61.93229 265.03125 62.135414Q266.15625 62.447914 266.59375 62.635414Q267.03125 62.822914 267.28125 63.18229Q267.53125 63.541664 267.53125 64.08854Q267.53125 64.61979 267.21875 65.08854Q266.92188 65.541664 266.34375 65.80729Q265.76562 66.05729 265.03125 66.05729Q263.8125 66.05729 263.17188 65.55729Q262.54688 65.041664 262.375 64.05729ZM271.09375 64.979164L271.25 65.90104Q270.79688 65.99479 270.45312 65.99479Q269.875 65.99479 269.5625 65.822914Q269.25 65.635414 269.10938 65.33854Q268.98438 65.041664 268.98438 64.08854L268.98438 60.510414L268.21875 60.510414L268.21875 59.697914L268.98438 59.697914L268.98438 58.15104L270.03125 57.52604L270.03125 59.697914L271.09375 59.697914L271.09375 60.510414L270.03125 60.510414L270.03125 64.15104Q270.03125 64.604164 270.07812 64.729164Q270.14062 64.854164 270.26562 64.93229Q270.39062 65.010414 270.625 65.010414Q270.8125 65.010414 271.09375 64.979164ZM274.375 64.05729L275.40625 63.90104Q275.5 64.52604 275.89062 64.854164Q276.29688 65.18229 277.03125 65.18229Q277.75 65.18229 278.09375 64.90104Q278.45312 64.604164 278.45312 64.197914Q278.45312 63.83854 278.14062 63.635414Q277.92188 63.49479 277.0625 63.27604Q275.90625 62.979164 275.45312 62.77604Q275.01562 62.55729 274.78125 62.18229Q274.54688 61.80729 274.54688 61.33854Q274.54688 60.93229 274.73438 60.572914Q274.92188 60.21354 275.25 59.979164Q275.5 59.80729 275.92188 59.68229Q276.34375 59.55729 276.84375 59.55729Q277.5625 59.55729 278.10938 59.77604Q278.67188 59.979164 278.9375 60.33854Q279.20312 60.697914 279.29688 61.291664L278.26562 61.43229Q278.20312 60.96354 277.85938 60.697914Q277.53125 60.416664 276.90625 60.416664Q276.1875 60.416664 275.875 60.666664Q275.5625 60.90104 275.5625 61.229164Q275.5625 61.43229 275.6875 61.58854Q275.82812 61.760414 276.09375 61.86979Q276.25 61.93229 277.03125 62.135414Q278.15625 62.447914 278.59375 62.635414Q279.03125 62.822914 279.28125 63.18229Q279.53125 63.541664 279.53125 64.08854Q279.53125 64.61979 279.21875 65.08854Q278.92188 65.541664 278.34375 65.80729Q277.76562 66.05729 277.03125 66.05729Q275.8125 66.05729 275.17188 65.55729Q274.54688 65.041664 274.375 64.05729ZM280.79688 58.541664L280.79688 57.322914L281.85938 57.322914L281.85938 58.541664L280.79688 58.541664ZM280.79688 65.916664L280.79688 59.697914L281.85938 59.697914L281.85938 65.916664L280.79688 65.916664ZM283.23438 65.916664L283.23438 65.05729L287.20312 60.510414Q286.51562 60.541664 286.0 60.541664L283.46875 60.541664L283.46875 59.697914L288.5625 59.697914L288.5625 60.385414L285.1875 64.33854L284.53125 65.05729Q285.25 65.010414 285.85938 65.010414L288.75 65.010414L288.75 65.916664L283.23438 65.916664ZM294.04688 63.916664L295.14062 64.041664Q294.89062 64.99479 294.1875 65.52604Q293.48438 66.05729 292.40625 66.05729Q291.04688 66.05729 290.23438 65.21354Q289.4375 64.36979 289.4375 62.854164Q289.4375 61.291664 290.25 60.43229Q291.0625 59.55729 292.34375 59.55729Q293.59375 59.55729 294.375 60.40104Q295.17188 61.24479 295.17188 62.791664Q295.17188 62.885414 295.17188 63.072914L290.53125 63.072914Q290.59375 64.104164 291.10938 64.65104Q291.625 65.18229 292.40625 65.18229Q292.98438 65.18229 293.39062 64.885414Q293.8125 64.572914 294.04688 63.916664ZM290.59375 62.21354L294.0625 62.21354Q294.0 61.416664 293.67188 61.02604Q293.15625 60.416664 292.35938 60.416664Q291.625 60.416664 291.125 60.90104Q290.64062 61.385414 290.59375 62.21354Z" fill-rule="nonzero"/><path fill="#ea4335" d="M312.0 56.916668C312.0 56.364384 312.44772 55.916668 313.0 55.916668L323.0 55.916668C323.55228 55.916668 324.0 56.364384 324.0 56.916668L324.0 66.916664C324.0 67.46895 323.55228 67.916664 323.0 67.916664L313.0 67.916664C312.44772 67.916664 312.0 67.46895 312.0 66.916664Z" fill-rule="nonzero"/><path fill="#1a1a1a" d="M332.59375 66.43229L333.625 66.58854Q333.6875 67.05729 333.98438 67.27604Q334.375 67.572914 335.04688 67.572914Q335.78125 67.572914 336.17188 67.27604Q336.57812 66.979164 336.71875 66.46354Q336.8125 66.135414 336.79688 65.104164Q336.10938 65.916664 335.07812 65.916664Q333.79688 65.916664 333.09375 64.99479Q332.39062 64.05729 332.39062 62.77604Q332.39062 61.885414 332.70312 61.135414Q333.03125 60.36979 333.64062 59.96354Q334.25 59.55729 335.07812 59.55729Q336.1875 59.55729 336.90625 60.447914L336.90625 59.697914L337.875 59.697914L337.875 65.072914Q337.875 66.52604 337.57812 67.135414Q337.28125 67.74479 336.64062 68.08854Q336.0 68.447914 335.0625 68.447914Q333.95312 68.447914 333.26562 67.947914Q332.57812 67.447914 332.59375 66.43229ZM333.46875 62.697914Q333.46875 63.916664 333.95312 64.479164Q334.4375 65.041664 335.17188 65.041664Q335.90625 65.041664 336.39062 64.479164Q336.89062 63.916664 336.89062 62.729164Q336.89062 61.58854 336.375 61.010414Q335.875 60.43229 335.15625 60.43229Q334.45312 60.43229 333.95312 61.010414Q333.46875 61.572914 333.46875 62.697914ZM339.78125 65.916664L339.78125 59.697914L340.73438 59.697914L340.73438 60.635414Q341.09375 59.979164 341.39062 59.77604Q341.70312 59.55729 342.07812 59.55729Q342.60938 59.55729 343.15625 59.885414L342.79688 60.86979Q342.40625 60.635414 342.03125 60.635414Q341.67188 60.635414 341.39062 60.854164Q341.125 61.05729 341.01562 61.43229Q340.82812 61.99479 340.82812 62.65104L340.82812 65.916664L339.78125 65.916664ZM348.04688 63.916664L349.14062 64.041664Q348.89062 64.99479 348.1875 65.52604Q347.48438 66.05729 346.40625 66.05729Q345.04688 66.05729 344.23438 65.21354Q343.4375 64.36979 343.4375 62.854164Q343.4375 61.291664 344.25 60.43229Q345.0625 59.55729 346.34375 59.55729Q347.59375 59.55729 348.375 60.40104Q349.17188 61.24479 349.17188 62.791664Q349.17188 62.885414 349.17188 63.072914L344.53125 63.072914Q344.59375 64.104164 345.10938 64.65104Q345.625 65.18229 346.40625 65.18229Q346.98438 65.18229 347.39062 64.885414Q347.8125 64.572914 348.04688 63.916664ZM344.59375 62.21354L348.0625 62.21354Q348.0 61.416664 347.67188 61.02604Q347.15625 60.416664 346.35938 60.416664Q345.625 60.416664 345.125 60.90104Q344.64062 61.385414 344.59375 62.21354ZM351.9375 65.916664L350.03125 59.697914L351.125 59.697914L352.10938 63.291664L352.48438 64.61979Q352.51562 64.52604 352.8125 63.33854L353.79688 59.697914L354.875 59.697914L355.8125 63.30729L356.125 64.49479L356.48438 63.291664L357.54688 59.697914L358.57812 59.697914L356.625 65.916664L355.53125 65.916664L354.54688 62.18229L354.29688 61.135414L353.04688 65.916664L351.9375 65.916664Z" fill-rule="nonzero"/><path fill="#fbbc04" d="M375.0 56.916668C375.0 56.364384 375.44772 55.916668 376.0 55.916668L386.0 55.916668C386.55228 55.916668 387.0 56.364384 387.0 56.916668L387.0 66.916664C387.0 67.46895 386.55228 67.916664 386.0 67.916664L376.0 67.916664C375.44772 67.916664 375.0 67.46895 375.0 66.916664Z" fill-rule="nonzero"/><path fill="#1a1a1a" d="M399.85938 63.635414L400.89062 63.77604Q400.71875 64.83854 400.01562 65.447914Q399.3125 66.05729 398.29688 66.05729Q397.01562 66.05729 396.23438 65.229164Q395.46875 64.385414 395.46875 62.822914Q395.46875 61.822914 395.79688 61.072914Q396.14062 60.30729 396.8125 59.93229Q397.5 59.55729 398.3125 59.55729Q399.3125 59.55729 399.95312 60.072914Q400.60938 60.572914 400.79688 61.52604L399.76562 61.68229Q399.625 61.05729 399.25 60.74479Q398.875 60.416664 398.34375 60.416664Q397.54688 60.416664 397.04688 60.99479Q396.54688 61.55729 396.54688 62.791664Q396.54688 64.05729 397.03125 64.61979Q397.51562 65.18229 398.28125 65.18229Q398.90625 65.18229 399.3125 64.80729Q399.73438 64.43229 399.85938 63.635414ZM405.875 65.916664L405.875 64.99479Q405.14062 66.05729 403.89062 66.05729Q403.34375 66.05729 402.85938 65.854164Q402.39062 65.635414 402.15625 65.322914Q401.92188 64.99479 401.82812 64.52604Q401.76562 64.229164 401.76562 63.541664L401.76562 59.697914L402.82812 59.697914L402.82812 63.15104Q402.82812 63.96354 402.89062 64.260414Q402.98438 64.666664 403.29688 64.916664Q403.625 65.15104 404.10938 65.15104Q404.57812 65.15104 404.98438 64.916664Q405.40625 64.666664 405.57812 64.24479Q405.76562 63.822914 405.76562 63.02604L405.76562 59.697914L406.8125 59.697914L406.8125 65.916664L405.875 65.916664ZM411.09375 64.979164L411.25 65.90104Q410.79688 65.99479 410.45312 65.99479Q409.875 65.99479 409.5625 65.822914Q409.25 65.635414 409.10938 65.33854Q408.98438 65.041664 408.98438 64.08854L408.98438 60.510414L408.21875 60.510414L408.21875 59.697914L408.98438 59.697914L408.98438 58.15104L410.03125 57.52604L410.03125 59.697914L411.09375 59.697914L411.09375 60.510414L410.03125 60.510414L410.03125 64.15104Q410.03125 64.604164 410.07812 64.729164Q410.14062 64.854164 410.26562 64.93229Q410.39062 65.010414 410.625 65.010414Q410.8125 65.010414 411.09375 64.979164Z" fill-rule="nonzero"/><path fill="#757575" d="M20.190624 37.55L20.190624 23.2375L29.846874 23.2375L29.846874 24.925L22.08125 24.925L22.08125 29.3625L28.8 29.3625L28.8 31.05L22.08125 31.05L22.08125 37.55L20.190624 37.55ZM31.221874 32.3625Q31.221874 29.4875 32.815624 28.096874Q34.159374 26.940624 36.08125 26.940624Q38.221874 26.940624 39.565624 28.346874Q40.925 29.753124 40.925 32.221874Q40.925 34.221874 40.33125 35.378124Q39.7375 36.51875 38.58125 37.159374Q37.440624 37.784374 36.08125 37.784374Q33.89375 37.784374 32.55 36.39375Q31.221874 34.9875 31.221874 32.3625ZM33.01875 32.3625Q33.01875 34.3625 33.878124 35.346874Q34.753124 36.33125 36.08125 36.33125Q37.39375 36.33125 38.253124 35.346874Q39.128124 34.346874 39.128124 32.3Q39.128124 30.378124 38.253124 29.39375Q37.378124 28.39375 36.08125 28.39375Q34.753124 28.39375 33.878124 29.39375Q33.01875 30.378124 33.01875 32.3625ZM42.846874 37.55L42.846874 27.175L44.425 27.175L44.425 28.753124Q45.034374 27.64375 45.55 27.3Q46.065624 26.940624 46.675 26.940624Q47.565624 26.940624 48.4875 27.503124L47.878124 29.14375Q47.2375 28.753124 46.596874 28.753124Q46.01875 28.753124 45.55 29.1125Q45.096874 29.45625 44.89375 30.065624Q44.6125 31.003124 44.6125 32.1125L44.6125 37.55L42.846874 37.55ZM56.971874 34.20625L58.784374 34.440624Q58.3625 36.01875 57.190624 36.909374Q56.034374 37.784374 54.221874 37.784374Q51.95625 37.784374 50.6125 36.39375Q49.284374 34.9875 49.284374 32.45625Q49.284374 29.83125 50.628124 28.39375Q51.971874 26.940624 54.128124 26.940624Q56.20625 26.940624 57.51875 28.3625Q58.846874 29.76875 58.846874 32.346874Q58.846874 32.503124 58.83125 32.815624L51.096874 32.815624Q51.190624 34.51875 52.065624 35.425Q52.940624 36.33125 54.2375 36.33125Q55.20625 36.33125 55.878124 35.83125Q56.565624 35.315624 56.971874 34.20625ZM51.190624 31.3625L56.9875 31.3625Q56.878124 30.065624 56.33125 29.409374Q55.4875 28.39375 54.14375 28.39375Q52.940624 28.39375 52.1125 29.20625Q51.284374 30.003124 51.190624 31.3625ZM60.159374 34.45625L61.909374 34.175Q62.05 35.221874 62.721874 35.784374Q63.39375 36.33125 64.59688 36.33125Q65.8 36.33125 66.37813 35.846874Q66.97188 35.346874 66.97188 34.690624Q66.97188 34.096874 66.45625 33.753124Q66.09688 33.51875 64.65938 33.159374Q62.721874 32.659374 61.971874 32.315624Q61.2375 31.95625 60.846874 31.33125Q60.45625 30.690624 60.45625 29.925Q60.45625 29.2375 60.76875 28.64375Q61.096874 28.05 61.64375 27.659374Q62.05 27.3625 62.753124 27.159374Q63.471874 26.940624 64.28438 26.940624Q65.50313 26.940624 66.425 27.3Q67.34688 27.64375 67.78438 28.253124Q68.22188 28.846874 68.39375 29.846874L66.675 30.08125Q66.55 29.284374 65.9875 28.846874Q65.425 28.39375 64.40938 28.39375Q63.190624 28.39375 62.675 28.8Q62.159374 29.190624 62.159374 29.721874Q62.159374 30.065624 62.378124 30.346874Q62.58125 30.628124 63.05 30.815624Q63.315624 30.909374 64.59688 31.253124Q66.47188 31.753124 67.20625 32.08125Q67.94063 32.39375 68.3625 33.003124Q68.78438 33.596874 68.78438 34.503124Q68.78438 35.378124 68.26875 36.159374Q67.75313 36.940624 66.78438 37.3625Q65.81563 37.784374 64.59688 37.784374Q62.58125 37.784374 61.51875 36.940624Q60.45625 36.096874 60.159374 34.45625ZM74.70625 35.971874L74.95625 37.534374Q74.22188 37.690624 73.62813 37.690624Q72.675 37.690624 72.14375 37.39375Q71.62813 37.08125 71.40938 36.596874Q71.19063 36.096874 71.19063 34.51875L71.19063 28.55L69.90938 28.55L69.90938 27.175L71.19063 27.175L71.19063 24.6125L72.94063 23.55L72.94063 27.175L74.70625 27.175L74.70625 28.55L72.94063 28.55L72.94063 34.6125Q72.94063 35.3625 73.03438 35.58125Q73.12813 35.784374 73.33125 35.925Q73.55 36.05 73.94063 36.05Q74.22188 36.05 74.70625 35.971874ZM82.15938 34.45625L83.90938 34.175Q84.05 35.221874 84.72188 35.784374Q85.39375 36.33125 86.59688 36.33125Q87.8 36.33125 88.37813 35.846874Q88.97188 35.346874 88.97188 34.690624Q88.97188 34.096874 88.45625 33.753124Q88.09688 33.51875 86.65938 33.159374Q84.72188 32.659374 83.97188 32.315624Q83.2375 31.95625 82.84688 31.33125Q82.45625 30.690624 82.45625 29.925Q82.45625 29.2375 82.76875 28.64375Q83.09688 28.05 83.64375 27.659374Q84.05 27.3625 84.75313 27.159374Q85.47188 26.940624 86.28438 26.940624Q87.50313 26.940624 88.425 27.3Q89.34688 27.64375 89.78438 28.253124Q90.22188 28.846874 90.39375 29.846874L88.675 30.08125Q88.55 29.284374 87.9875 28.846874Q87.425 28.39375 86.40938 28.39375Q85.19063 28.39375 84.675 28.8Q84.15938 29.190624 84.15938 29.721874Q84.15938 30.065624 84.37813 30.346874Q84.58125 30.628124 85.05 30.815624Q85.31563 30.909374 86.59688 31.253124Q88.47188 31.753124 89.20625 32.08125Q89.94063 32.39375 90.3625 33.003124Q90.78438 33.596874 90.78438 34.503124Q90.78438 35.378124 90.26875 36.159374Q89.75313 36.940624 88.78438 37.3625Q87.81563 37.784374 86.59688 37.784374Q84.58125 37.784374 83.51875 36.940624Q82.45625 36.096874 82.15938 34.45625ZM92.87813 25.253124L92.87813 23.2375L94.64375 23.2375L94.64375 25.253124L92.87813 25.253124ZM92.87813 37.55L92.87813 27.175L94.64375 27.175L94.64375 37.55L92.87813 37.55ZM95.94063 37.55L95.94063 36.128124L102.55 28.55Q101.425 28.596874 100.56563 28.596874L96.33125 28.596874L96.33125 27.175L104.81563 27.175L104.81563 28.346874L99.19063 34.925L98.1125 36.128124Q99.28438 36.034374 100.33125 36.034374L105.12813 36.034374L105.12813 37.55L95.94063 37.55ZM113.97188 34.20625L115.78438 34.440624Q115.3625 36.01875 114.19063 36.909374Q113.03438 37.784374 111.22188 37.784374Q108.95625 37.784374 107.6125 36.39375Q106.28438 34.9875 106.28438 32.45625Q106.28438 29.83125 107.62813 28.39375Q108.97188 26.940624 111.12813 26.940624Q113.20625 26.940624 114.51875 28.3625Q115.84688 29.76875 115.84688 32.346874Q115.84688 32.503124 115.83125 32.815624L108.09688 32.815624Q108.19063 34.51875 109.06563 35.425Q109.94063 36.33125 111.2375 36.33125Q112.20625 36.33125 112.87813 35.83125Q113.56563 35.315624 113.97188 34.20625ZM108.19063 31.3625L113.9875 31.3625Q113.87813 30.065624 113.33125 29.409374Q112.4875 28.39375 111.14375 28.39375Q109.94063 28.39375 109.1125 29.20625Q108.28438 30.003124 108.19063 31.3625ZM118.33125 37.55L118.33125 35.55L120.33125 35.55L120.33125 37.55Q120.33125 38.659374 119.94063 39.33125Q119.55 40.01875 118.70625 40.378124L118.20625 39.628124Q118.76875 39.39375 119.03438 38.909374Q119.3 38.440624 119.33125 37.55L118.33125 37.55ZM129.15938 34.45625L130.90938 34.175Q131.05 35.221874 131.72188 35.784374Q132.39375 36.33125 133.59688 36.33125Q134.8 36.33125 135.37813 35.846874Q135.97188 35.346874 135.97188 34.690624Q135.97188 34.096874 135.45625 33.753124Q135.09688 33.51875 133.65938 33.159374Q131.72188 32.659374 130.97188 32.315624Q130.2375 31.95625 129.84688 31.33125Q129.45625 30.690624 129.45625 29.925Q129.45625 29.2375 129.76875 28.64375Q130.09688 28.05 130.64375 27.659374Q131.05 27.3625 131.75313 27.159374Q132.47188 26.940624 133.28438 26.940624Q134.50313 26.940624 135.425 27.3Q136.34688 27.64375 136.78438 28.253124Q137.22188 28.846874 137.39375 29.846874L135.675 30.08125Q135.55 29.284374 134.9875 28.846874Q134.425 28.39375 133.40938 28.39375Q132.19063 28.39375 131.675 28.8Q131.15938 29.190624 131.15938 29.721874Q131.15938 30.065624 131.37813 30.346874Q131.58125 30.628124 132.05 30.815624Q132.31563 30.909374 133.59688 31.253124Q135.47188 31.753124 136.20625 32.08125Q136.94063 32.39375 137.3625 33.003124Q137.78438 33.596874 137.78438 34.503124Q137.78438 35.378124 137.26875 36.159374Q136.75313 36.940624 135.78438 37.3625Q134.81563 37.784374 133.59688 37.784374Q131.58125 37.784374 130.51875 36.940624Q129.45625 36.096874 129.15938 34.45625ZM143.70625 35.971874L143.95625 37.534374Q143.22188 37.690624 142.62813 37.690624Q141.675 37.690624 141.14375 37.39375Q140.62813 37.08125 140.40938 36.596874Q140.19063 36.096874 140.19063 34.51875L140.19063 28.55L138.90938 28.55L138.90938 27.175L140.19063 27.175L140.19063 24.6125L141.94063 23.55L141.94063 27.175L143.70625 27.175L143.70625 28.55L141.94063 28.55L141.94063 34.6125Q141.94063 35.3625 142.03438 35.58125Q142.12813 35.784374 142.33125 35.925Q142.55 36.05 142.94063 36.05Q143.22188 36.05 143.70625 35.971874ZM152.64375 36.26875Q151.65938 37.096874 150.75313 37.440624Q149.84688 37.784374 148.81563 37.784374Q147.1125 37.784374 146.19063 36.95625Q145.26875 36.1125 145.26875 34.815624Q145.26875 34.05 145.6125 33.425Q145.97188 32.8 146.53438 32.425Q147.09688 32.034374 147.8 31.83125Q148.31563 31.70625 149.3625 31.565624Q151.4875 31.315624 152.4875 30.971874Q152.50313 30.6125 152.50313 30.503124Q152.50313 29.440624 152.00313 28.9875Q151.33125 28.39375 150.00313 28.39375Q148.75313 28.39375 148.15938 28.83125Q147.58125 29.26875 147.3 30.378124L145.58125 30.14375Q145.81563 29.034374 146.34688 28.3625Q146.87813 27.675 147.89375 27.315624Q148.90938 26.940624 150.25313 26.940624Q151.58125 26.940624 152.40938 27.253124Q153.2375 27.565624 153.62813 28.05Q154.01875 28.51875 154.175 29.2375Q154.26875 29.690624 154.26875 30.8625L154.26875 33.20625Q154.26875 35.659374 154.37813 36.315624Q154.4875 36.95625 154.83125 37.55L152.9875 37.55Q152.72188 37.003124 152.64375 36.26875ZM152.4875 32.346874Q151.53438 32.7375 149.6125 33.003124Q148.53438 33.159374 148.08125 33.3625Q147.64375 33.55 147.39375 33.925Q147.14375 34.3 147.14375 34.76875Q147.14375 35.471874 147.675 35.940624Q148.20625 36.409374 149.2375 36.409374Q150.25313 36.409374 151.03438 35.971874Q151.83125 35.51875 152.20625 34.753124Q152.4875 34.14375 152.4875 32.9875L152.4875 32.346874ZM156.84688 37.55L156.84688 27.175L158.425 27.175L158.425 28.753124Q159.03438 27.64375 159.55 27.3Q160.06563 26.940624 160.675 26.940624Q161.56563 26.940624 162.4875 27.503124L161.87813 29.14375Q161.2375 28.753124 160.59688 28.753124Q160.01875 28.753124 159.55 29.1125Q159.09688 29.45625 158.89375 30.065624Q158.6125 31.003124 158.6125 32.1125L158.6125 37.55L156.84688 37.55ZM167.70625 35.971874L167.95625 37.534374Q167.22188 37.690624 166.62813 37.690624Q165.675 37.690624 165.14375 37.39375Q164.62813 37.08125 164.40938 36.596874Q164.19063 36.096874 164.19063 34.51875L164.19063 28.55L162.90938 28.55L162.90938 27.175L164.19063 27.175L164.19063 24.6125L165.94063 23.55L165.94063 27.175L167.70625 27.175L167.70625 28.55L165.94063 28.55L165.94063 34.6125Q165.94063 35.3625 166.03438 35.58125Q166.12813 35.784374 166.33125 35.925Q166.55 36.05 166.94063 36.05Q167.22188 36.05 167.70625 35.971874ZM177.78438 37.55L174.6125 27.175L176.425 27.175L178.08125 33.159374L178.69063 35.39375Q178.7375 35.221874 179.22188 33.253124L180.87813 27.175L182.69063 27.175L184.2375 33.190624L184.75313 35.175L185.34688 33.175L187.12813 27.175L188.83125 27.175L185.59688 37.55L183.76875 37.55L182.1125 31.33125L181.72188 29.565624L179.6125 37.55L177.78438 37.55ZM189.87813 25.253124L189.87813 23.2375L191.64375 23.2375L191.64375 25.253124L189.87813 25.253124ZM189.87813 37.55L189.87813 27.175L191.64375 27.175L191.64375 37.55L189.87813 37.55ZM197.70625 35.971874L197.95625 37.534374Q197.22188 37.690624 196.62813 37.690624Q195.675 37.690624 195.14375 37.39375Q194.62813 37.08125 194.40938 36.596874Q194.19063 36.096874 194.19063 34.51875L194.19063 28.55L192.90938 28.55L192.90938 27.175L194.19063 27.175L194.19063 24.6125L195.94063 23.55L195.94063 27.175L197.70625 27.175L197.70625 28.55L195.94063 28.55L195.94063 34.6125Q195.94063 35.3625 196.03438 35.58125Q196.12813 35.784374 196.33125 35.925Q196.55 36.05 196.94063 36.05Q197.22188 36.05 197.70625 35.971874ZM199.8625 37.55L199.8625 23.2375L201.62813 23.2375L201.62813 28.3625Q202.8625 26.940624 204.7375 26.940624Q205.87813 26.940624 206.72188 27.39375Q207.58125 27.846874 207.94063 28.659374Q208.31563 29.45625 208.31563 30.971874L208.31563 37.55L206.56563 37.55L206.56563 30.971874Q206.56563 29.659374 205.9875 29.065624Q205.40938 28.45625 204.37813 28.45625Q203.59688 28.45625 202.89375 28.8625Q202.20625 29.26875 201.90938 29.971874Q201.62813 30.659374 201.62813 31.878124L201.62813 37.55L199.8625 37.55ZM223.00313 37.55L221.2375 37.55L221.2375 26.346874Q220.6125 26.95625 219.58125 27.565624Q218.55 28.159374 217.72188 28.471874L217.72188 26.76875Q219.20625 26.08125 220.3 25.096874Q221.40938 24.096874 221.8625 23.175L223.00313 23.175L223.00313 37.55ZM233.01875 37.55L233.01875 34.128124L226.8 34.128124L226.8 32.503124L233.33125 23.2375L234.76875 23.2375L234.76875 32.503124L236.70625 32.503124L236.70625 34.128124L234.76875 34.128124L234.76875 37.55L233.01875 37.55ZM233.01875 32.503124L233.01875 26.05L228.53438 32.503124L233.01875 32.503124ZM238.39375 33.76875L240.14375 33.534374Q240.45625 35.034374 241.175 35.690624Q241.90938 36.346874 242.95625 36.346874Q244.19063 36.346874 245.03438 35.4875Q245.89375 34.628124 245.89375 33.3625Q245.89375 32.14375 245.09688 31.3625Q244.31563 30.58125 243.09688 30.58125Q242.59688 30.58125 241.8625 30.76875L242.05 29.221874Q242.22188 29.253124 242.33125 29.253124Q243.45625 29.253124 244.34688 28.675Q245.25313 28.08125 245.25313 26.8625Q245.25313 25.89375 244.59688 25.253124Q243.94063 24.6125 242.90938 24.6125Q241.89375 24.6125 241.20625 25.26875Q240.51875 25.909374 240.33125 27.190624L238.56563 26.878124Q238.89375 25.1125 240.03438 24.14375Q241.175 23.175 242.87813 23.175Q244.05 23.175 245.03438 23.675Q246.01875 24.175 246.53438 25.05Q247.06563 25.925 247.06563 26.89375Q247.06563 27.815624 246.56563 28.58125Q246.06563 29.346874 245.09688 29.8Q246.3625 30.08125 247.06563 31.01875Q247.76875 31.940624 247.76875 33.315624Q247.76875 35.190624 246.39375 36.503124Q245.03438 37.8 242.94063 37.8Q241.05 37.8 239.8 36.675Q238.56563 35.55 238.39375 33.76875ZM259.70624 35.971874L259.95624 37.534374Q259.22186 37.690624 258.6281 37.690624Q257.675 37.690624 257.14374 37.39375Q256.6281 37.08125 256.40936 36.596874Q256.1906 36.096874 256.1906 34.51875L256.1906 28.55L254.90938 28.55L254.90938 27.175L256.1906 27.175L256.1906 24.6125L257.9406 23.55L257.9406 27.175L259.70624 27.175L259.70624 28.55L257.9406 28.55L257.9406 34.6125Q257.9406 35.3625 258.03436 35.58125Q258.1281 35.784374 258.33124 35.925Q258.55 36.05 258.9406 36.05Q259.22186 36.05 259.70624 35.971874ZM261.84686 37.55L261.84686 27.175L263.425 27.175L263.425 28.753124Q264.03436 27.64375 264.55 27.3Q265.0656 26.940624 265.675 26.940624Q266.5656 26.940624 267.4875 27.503124L266.8781 29.14375Q266.2375 28.753124 265.59686 28.753124Q265.01874 28.753124 264.55 29.1125Q264.09686 29.45625 263.89374 30.065624Q263.6125 31.003124 263.6125 32.1125L263.6125 37.55L261.84686 37.55ZM275.97186 34.20625L277.78436 34.440624Q277.3625 36.01875 276.1906 36.909374Q275.03436 37.784374 273.22186 37.784374Q270.95624 37.784374 269.6125 36.39375Q268.28436 34.9875 268.28436 32.45625Q268.28436 29.83125 269.6281 28.39375Q270.97186 26.940624 273.1281 26.940624Q275.20624 26.940624 276.51874 28.3625Q277.84686 29.76875 277.84686 32.346874Q277.84686 32.503124 277.83124 32.815624L270.09686 32.815624Q270.1906 34.51875 271.0656 35.425Q271.9406 36.33125 273.2375 36.33125Q274.20624 36.33125 274.8781 35.83125Q275.5656 35.315624 275.97186 34.20625ZM270.1906 31.3625L275.9875 31.3625Q275.8781 30.065624 275.33124 29.409374Q274.4875 28.39375 273.14374 28.39375Q271.9406 28.39375 271.1125 29.20625Q270.28436 30.003124 270.1906 31.3625ZM286.97186 34.20625L288.78436 34.440624Q288.3625 36.01875 287.1906 36.909374Q286.03436 37.784374 284.22186 37.784374Q281.95624 37.784374 280.6125 36.39375Q279.28436 34.9875 279.28436 32.45625Q279.28436 29.83125 280.6281 28.39375Q281.97186 26.940624 284.1281 26.940624Q286.20624 26.940624 287.51874 28.3625Q288.84686 29.76875 288.84686 32.346874Q288.84686 32.503124 288.83124 32.815624L281.09686 32.815624Q281.1906 34.51875 282.0656 35.425Q282.9406 36.33125 284.2375 36.33125Q285.20624 36.33125 285.8781 35.83125Q286.5656 35.315624 286.97186 34.20625ZM281.1906 31.3625L286.9875 31.3625Q286.8781 30.065624 286.33124 29.409374Q285.4875 28.39375 284.14374 28.39375Q282.9406 28.39375 282.1125 29.20625Q281.28436 30.003124 281.1906 31.3625ZM290.15936 34.45625L291.90936 34.175Q292.05 35.221874 292.72186 35.784374Q293.39374 36.33125 294.59686 36.33125Q295.8 36.33125 296.3781 35.846874Q296.97186 35.346874 296.97186 34.690624Q296.97186 34.096874 296.45624 33.753124Q296.09686 33.51875 294.65936 33.159374Q292.72186 32.659374 291.97186 32.315624Q291.2375 31.95625 290.84686 31.33125Q290.45624 30.690624 290.45624 29.925Q290.45624 29.2375 290.76874 28.64375Q291.09686 28.05 291.64374 27.659374Q292.05 27.3625 292.7531 27.159374Q293.47186 26.940624 294.28436 26.940624Q295.5031 26.940624 296.425 27.3Q297.34686 27.64375 297.78436 28.253124Q298.22186 28.846874 298.39374 29.846874L296.675 30.08125Q296.55 29.284374 295.9875 28.846874Q295.425 28.39375 294.40936 28.39375Q293.1906 28.39375 292.675 28.8Q292.15936 29.190624 292.15936 29.721874Q292.15936 30.065624 292.3781 30.346874Q292.58124 30.628124 293.05 30.815624Q293.3156 30.909374 294.59686 31.253124Q296.47186 31.753124 297.20624 32.08125Q297.9406 32.39375 298.3625 33.003124Q298.78436 33.596874 298.78436 34.503124Q298.78436 35.378124 298.26874 36.159374Q297.7531 36.940624 296.78436 37.3625Q295.8156 37.784374 294.59686 37.784374Q292.58124 37.784374 291.51874 36.940624Q290.45624 36.096874 290.15936 34.45625ZM301.33124 37.55L301.33124 35.55L303.33124 35.55L303.33124 37.55Q303.33124 38.659374 302.9406 39.33125Q302.55 40.01875 301.70624 40.378124L301.20624 39.628124Q301.76874 39.39375 302.03436 38.909374Q302.3 38.440624 302.33124 37.55L301.33124 37.55ZM312.5031 25.1125L312.5031 23.425L321.76874 23.425L321.76874 24.784374Q320.39374 26.2375 319.05 28.659374Q317.70624 31.065624 316.9875 33.6125Q316.45624 35.409374 316.3 37.55L314.5031 37.55Q314.53436 35.8625 315.15936 33.471874Q315.8 31.08125 316.9875 28.8625Q318.175 26.628124 319.5031 25.1125L312.5031 25.1125ZM323.70624 26.675Q323.70624 25.14375 324.47186 24.065624Q325.2531 22.9875 326.72186 22.9875Q328.0656 22.9875 328.9406 23.95625Q329.83124 24.909374 329.83124 26.784374Q329.83124 28.596874 328.9406 29.58125Q328.05 30.55 326.7375 30.55Q325.4406 30.55 324.5656 29.596874Q323.70624 28.628124 323.70624 26.675ZM326.76874 24.20625Q326.1125 24.20625 325.675 24.76875Q325.2531 25.33125 325.2531 26.846874Q325.2531 28.221874 325.6906 28.784374Q326.1281 29.346874 326.76874 29.346874Q327.4406 29.346874 327.8625 28.784374Q328.3 28.20625 328.3 26.70625Q328.3 25.315624 327.8625 24.76875Q327.425 24.20625 326.76874 24.20625ZM326.78436 38.08125L334.6125 22.9875L336.03436 22.9875L328.2375 38.08125L326.78436 38.08125ZM332.97186 34.190624Q332.97186 32.64375 333.7375 31.58125Q334.51874 30.503124 335.9875 30.503124Q337.33124 30.503124 338.20624 31.471874Q339.09686 32.425 339.09686 34.3Q339.09686 36.1125 338.20624 37.096874Q337.3156 38.08125 336.0031 38.08125Q334.70624 38.08125 333.83124 37.1125Q332.97186 36.128124 332.97186 34.190624ZM336.03436 31.721874Q335.3781 31.721874 334.9406 32.284374Q334.5031 32.846874 334.5031 34.3625Q334.5031 35.7375 334.9406 36.3Q335.3781 36.8625 336.03436 36.8625Q336.70624 36.8625 337.1281 36.3Q337.5656 35.7375 337.5656 34.221874Q337.5656 32.846874 337.1281 32.284374Q336.6906 31.721874 336.03436 31.721874ZM347.55 38.409374L349.2531 38.659374Q349.3625 39.45625 349.84686 39.815624Q350.5031 40.3 351.64374 40.3Q352.8625 40.3 353.51874 39.815624Q354.1906 39.33125 354.425 38.45625Q354.5656 37.909374 354.55 36.190624Q353.39374 37.55 351.675 37.55Q349.53436 37.55 348.3625 36.003124Q347.1906 34.45625 347.1906 32.3Q347.1906 30.815624 347.72186 29.565624Q348.26874 28.315624 349.28436 27.628124Q350.3156 26.940624 351.6906 26.940624Q353.51874 26.940624 354.72186 28.425L354.72186 27.175L356.33124 27.175L356.33124 36.14375Q356.33124 38.565624 355.83124 39.565624Q355.34686 40.58125 354.26874 41.159374Q353.20624 41.753124 351.64374 41.753124Q349.8 41.753124 348.64374 40.925Q347.5031 40.096874 347.55 38.409374ZM349.0031 32.175Q349.0031 34.221874 349.8156 35.159374Q350.6281 36.096874 351.84686 36.096874Q353.05 36.096874 353.8625 35.159374Q354.6906 34.221874 354.6906 32.2375Q354.6906 30.33125 353.84686 29.3625Q353.0031 28.39375 351.8156 28.39375Q350.64374 28.39375 349.8156 29.346874Q349.0031 30.3 349.0031 32.175ZM358.84686 37.55L358.84686 27.175L360.425 27.175L360.425 28.753124Q361.03436 27.64375 361.55 27.3Q362.0656 26.940624 362.675 26.940624Q363.5656 26.940624 364.4875 27.503124L363.8781 29.14375Q363.2375 28.753124 362.59686 28.753124Q362.01874 28.753124 361.55 29.1125Q361.09686 29.45625 360.89374 30.065624Q360.6125 31.003124 360.6125 32.1125L360.6125 37.55L358.84686 37.55ZM365.22186 32.3625Q365.22186 29.4875 366.8156 28.096874Q368.15936 26.940624 370.08124 26.940624Q372.22186 26.940624 373.5656 28.346874Q374.925 29.753124 374.925 32.221874Q374.925 34.221874 374.33124 35.378124Q373.7375 36.51875 372.58124 37.159374Q371.4406 37.784374 370.08124 37.784374Q367.89374 37.784374 366.55 36.39375Q365.22186 34.9875 365.22186 32.3625ZM367.01874 32.3625Q367.01874 34.3625 367.8781 35.346874Q368.7531 36.33125 370.08124 36.33125Q371.39374 36.33125 372.2531 35.346874Q373.1281 34.346874 373.1281 32.3Q373.1281 30.378124 372.2531 29.39375Q371.3781 28.39375 370.08124 28.39375Q368.7531 28.39375 367.8781 29.39375Q367.01874 30.378124 367.01874 32.3625ZM378.78436 37.55L375.6125 27.175L377.425 27.175L379.08124 33.159374L379.6906 35.39375Q379.7375 35.221874 380.22186 33.253124L381.8781 27.175L383.6906 27.175L385.2375 33.190624L385.7531 35.175L386.34686 33.175L388.1281 27.175L389.83124 27.175L386.59686 37.55L384.76874 37.55L383.1125 31.33125L382.72186 29.565624L380.6125 37.55L378.78436 37.55ZM394.70624 35.971874L394.95624 37.534374Q394.22186 37.690624 393.6281 37.690624Q392.675 37.690624 392.14374 37.39375Q391.6281 37.08125 391.40936 36.596874Q391.1906 36.096874 391.1906 34.51875L391.1906 28.55L389.90936 28.55L389.90936 27.175L391.1906 27.175L391.1906 24.6125L392.9406 23.55L392.9406 27.175L394.70624 27.175L394.70624 28.55L392.9406 28.55L392.9406 34.6125Q392.9406 35.3625 393.03436 35.58125Q393.1281 35.784374 393.33124 35.925Q393.55 36.05 393.9406 36.05Q394.22186 36.05 394.70624 35.971874ZM396.8625 37.55L396.8625 23.2375L398.6281 23.2375L398.6281 28.3625Q399.8625 26.940624 401.7375 26.940624Q402.8781 26.940624 403.72186 27.39375Q404.58124 27.846874 404.9406 28.659374Q405.3156 29.45625 405.3156 30.971874L405.3156 37.55L403.5656 37.55L403.5656 30.971874Q403.5656 29.659374 402.9875 29.065624Q402.40936 28.45625 401.3781 28.45625Q400.59686 28.45625 399.89374 28.8625Q399.20624 29.26875 398.90936 29.971874Q398.6281 30.659374 398.6281 31.878124L398.6281 37.55L396.8625 37.55ZM413.84686 37.55L413.84686 27.175L415.425 27.175L415.425 28.753124Q416.03436 27.64375 416.55 27.3Q417.0656 26.940624 417.675 26.940624Q418.5656 26.940624 419.4875 27.503124L418.8781 29.14375Q418.2375 28.753124 417.59686 28.753124Q417.01874 28.753124 416.55 29.1125Q416.09686 29.45625 415.89374 30.065624Q415.6125 31.003124 415.6125 32.1125L415.6125 37.55L413.84686 37.55ZM427.64374 36.26875Q426.65936 37.096874 425.7531 37.440624Q424.84686 37.784374 423.8156 37.784374Q422.1125 37.784374 421.1906 36.95625Q420.26874 36.1125 420.26874 34.815624Q420.26874 34.05 420.6125 33.425Q420.97186 32.8 421.53436 32.425Q422.09686 32.034374 422.8 31.83125Q423.3156 31.70625 424.3625 31.565624Q426.4875 31.315624 427.4875 30.971874Q427.5031 30.6125 427.5031 30.503124Q427.5031 29.440624 427.0031 28.9875Q426.33124 28.39375 425.0031 28.39375Q423.7531 28.39375 423.15936 28.83125Q422.58124 29.26875 422.3 30.378124L420.58124 30.14375Q420.8156 29.034374 421.34686 28.3625Q421.8781 27.675 422.89374 27.315624Q423.90936 26.940624 425.2531 26.940624Q426.58124 26.940624 427.40936 27.253124Q428.2375 27.565624 428.6281 28.05Q429.01874 28.51875 429.175 29.2375Q429.26874 29.690624 429.26874 30.8625L429.26874 33.20625Q429.26874 35.659374 429.3781 36.315624Q429.4875 36.95625 429.83124 37.55L427.9875 37.55Q427.72186 37.003124 427.64374 36.26875ZM427.4875 32.346874Q426.53436 32.7375 424.6125 33.003124Q423.53436 33.159374 423.08124 33.3625Q422.64374 33.55 422.39374 33.925Q422.14374 34.3 422.14374 34.76875Q422.14374 35.471874 422.675 35.940624Q423.20624 36.409374 424.2375 36.409374Q425.2531 36.409374 426.03436 35.971874Q426.83124 35.51875 427.20624 34.753124Q427.4875 34.14375 427.4875 32.9875L427.4875 32.346874ZM435.70624 35.971874L435.95624 37.534374Q435.22186 37.690624 434.6281 37.690624Q433.675 37.690624 433.14374 37.39375Q432.6281 37.08125 432.40936 36.596874Q432.1906 36.096874 432.1906 34.51875L432.1906 28.55L430.90936 28.55L430.90936 27.175L432.1906 27.175L432.1906 24.6125L433.9406 23.55L433.9406 27.175L435.70624 27.175L435.70624 28.55L433.9406 28.55L433.9406 34.6125Q433.9406 35.3625 434.03436 35.58125Q434.1281 35.784374 434.33124 35.925Q434.55 36.05 434.9406 36.05Q435.22186 36.05 435.70624 35.971874ZM444.97186 34.20625L446.78436 34.440624Q446.3625 36.01875 445.1906 36.909374Q444.03436 37.784374 442.22186 37.784374Q439.95624 37.784374 438.6125 36.39375Q437.28436 34.9875 437.28436 32.45625Q437.28436 29.83125 438.6281 28.39375Q439.97186 26.940624 442.1281 26.940624Q444.20624 26.940624 445.51874 28.3625Q446.84686 29.76875 446.84686 32.346874Q446.84686 32.503124 446.83124 32.815624L439.09686 32.815624Q439.1906 34.51875 440.0656 35.425Q440.9406 36.33125 442.2375 36.33125Q443.20624 36.33125 443.8781 35.83125Q444.5656 35.315624 444.97186 34.20625ZM439.1906 31.3625L444.9875 31.3625Q444.8781 30.065624 444.33124 29.409374Q443.4875 28.39375 442.14374 28.39375Q440.9406 28.39375 440.1125 29.20625Q439.28436 30.003124 439.1906 31.3625ZM449.33124 37.55L449.33124 35.55L451.33124 35.55L451.33124 37.55Q451.33124 38.659374 450.9406 39.33125Q450.55 40.01875 449.70624 40.378124L449.20624 39.628124Q449.76874 39.39375 450.03436 38.909374Q450.3 38.440624 450.33124 37.55L449.33124 37.55ZM467.0031 37.55L465.2375 37.55L465.2375 26.346874Q464.6125 26.95625 463.58124 27.565624Q462.55 28.159374 461.72186 28.471874L461.72186 26.76875Q463.20624 26.08125 464.3 25.096874Q465.40936 24.096874 465.8625 23.175L467.0031 23.175L467.0031 37.55ZM471.3781 30.4875Q471.3781 27.95625 471.89374 26.409374Q472.425 24.846874 473.45624 24.01875Q474.4875 23.175 476.05 23.175Q477.20624 23.175 478.0656 23.64375Q478.9406 24.096874 479.5031 24.971874Q480.0656 25.846874 480.39374 27.1125Q480.72186 28.3625 480.72186 30.4875Q480.72186 33.003124 480.1906 34.55Q479.675 36.096874 478.64374 36.95625Q477.6281 37.8 476.05 37.8Q473.97186 37.8 472.8 36.315624Q471.3781 34.51875 471.3781 30.4875ZM473.1906 30.4875Q473.1906 34.01875 474.0031 35.190624Q474.83124 36.346874 476.05 36.346874Q477.2531 36.346874 478.08124 35.175Q478.90936 34.003124 478.90936 30.4875Q478.90936 26.95625 478.08124 25.8Q477.2531 24.628124 476.03436 24.628124Q474.8156 24.628124 474.09686 25.659374Q473.1906 26.95625 473.1906 30.4875ZM495.64374 36.26875Q494.65936 37.096874 493.7531 37.440624Q492.84686 37.784374 491.8156 37.784374Q490.1125 37.784374 489.1906 36.95625Q488.26874 36.1125 488.26874 34.815624Q488.26874 34.05 488.6125 33.425Q488.97186 32.8 489.53436 32.425Q490.09686 32.034374 490.8 31.83125Q491.3156 31.70625 492.3625 31.565624Q494.4875 31.315624 495.4875 30.971874Q495.5031 30.6125 495.5031 30.503124Q495.5031 29.440624 495.0031 28.9875Q494.33124 28.39375 493.0031 28.39375Q491.7531 28.39375 491.15936 28.83125Q490.58124 29.26875 490.3 30.378124L488.58124 30.14375Q488.8156 29.034374 489.34686 28.3625Q489.8781 27.675 490.89374 27.315624Q491.90936 26.940624 493.2531 26.940624Q494.58124 26.940624 495.40936 27.253124Q496.2375 27.565624 496.6281 28.05Q497.01874 28.51875 497.175 29.2375Q497.26874 29.690624 497.26874 30.8625L497.26874 33.20625Q497.26874 35.659374 497.3781 36.315624Q497.4875 36.95625 497.83124 37.55L495.9875 37.55Q495.72186 37.003124 495.64374 36.26875ZM495.4875 32.346874Q494.53436 32.7375 492.6125 33.003124Q491.53436 33.159374 491.08124 33.3625Q490.64374 33.55 490.39374 33.925Q490.14374 34.3 490.14374 34.76875Q490.14374 35.471874 490.675 35.940624Q491.20624 36.409374 492.2375 36.409374Q493.2531 36.409374 494.03436 35.971874Q494.83124 35.51875 495.20624 34.753124Q495.4875 34.14375 495.4875 32.9875L495.4875 32.346874ZM499.8625 37.55L499.8625 27.175L501.45624 27.175L501.45624 28.659374Q502.59686 26.940624 504.7531 26.940624Q505.6906 26.940624 506.47186 27.284374Q507.26874 27.6125 507.65936 28.159374Q508.05 28.70625 508.20624 29.45625Q508.3 29.95625 508.3 31.175L508.3 37.55L506.53436 37.55L506.53436 31.2375Q506.53436 30.159374 506.33124 29.628124Q506.1281 29.096874 505.59686 28.784374Q505.08124 28.471874 504.3781 28.471874Q503.2531 28.471874 502.4406 29.190624Q501.6281 29.89375 501.6281 31.878124L501.6281 37.55L499.8625 37.55ZM510.8625 37.55L510.8625 27.175L512.45624 27.175L512.45624 28.659374Q513.59686 26.940624 515.7531 26.940624Q516.6906 26.940624 517.47186 27.284374Q518.26874 27.6125 518.65936 28.159374Q519.05 28.70625 519.20624 29.45625Q519.3 29.95625 519.3 31.175L519.3 37.55L517.53436 37.55L517.53436 31.2375Q517.53436 30.159374 517.33124 29.628124Q517.1281 29.096874 516.59686 28.784374Q516.08124 28.471874 515.3781 28.471874Q514.2531 28.471874 513.4406 29.190624Q512.6281 29.89375 512.6281 31.878124L512.6281 37.55L510.8625 37.55ZM528.65936 37.55L528.65936 36.01875Q527.45624 37.784374 525.3781 37.784374Q524.45624 37.784374 523.65936 37.440624Q522.8625 37.08125 522.47186 36.55Q522.09686 36.01875 521.9406 35.2375Q521.83124 34.721874 521.83124 33.596874L521.83124 27.175L523.58124 27.175L523.58124 32.925Q523.58124 34.3 523.6906 34.784374Q523.8625 35.471874 524.39374 35.878124Q524.9406 36.26875 525.72186 36.26875Q526.51874 36.26875 527.20624 35.8625Q527.90936 35.45625 528.1906 34.76875Q528.4875 34.065624 528.4875 32.7375L528.4875 27.175L530.2375 27.175L530.2375 37.55L528.65936 37.55ZM539.64374 36.26875Q538.65936 37.096874 537.7531 37.440624Q536.84686 37.784374 535.8156 37.784374Q534.1125 37.784374 533.1906 36.95625Q532.26874 36.1125 532.26874 34.815624Q532.26874 34.05 532.6125 33.425Q532.97186 32.8 533.53436 32.425Q534.09686 32.034374 534.8 31.83125Q535.3156 31.70625 536.3625 31.565624Q538.4875 31.315624 539.4875 30.971874Q539.5031 30.6125 539.5031 30.503124Q539.5031 29.440624 539.0031 28.9875Q538.33124 28.39375 537.0031 28.39375Q535.7531 28.39375 535.15936 28.83125Q534.58124 29.26875 534.3 30.378124L532.58124 30.14375Q532.8156 29.034374 533.34686 28.3625Q533.8781 27.675 534.89374 27.315624Q535.90936 26.940624 537.2531 26.940624Q538.58124 26.940624 539.40936 27.253124Q540.2375 27.565624 540.6281 28.05Q541.01874 28.51875 541.175 29.2375Q541.26874 29.690624 541.26874 30.8625L541.26874 33.20625Q541.26874 35.659374 541.3781 36.315624Q541.4875 36.95625 541.83124 37.55L539.9875 37.55Q539.72186 37.003124 539.64374 36.26875ZM539.4875 32.346874Q538.53436 32.7375 536.6125 33.003124Q535.53436 33.159374 535.08124 33.3625Q534.64374 33.55 534.39374 33.925Q534.14374 34.3 534.14374 34.76875Q534.14374 35.471874 534.675 35.940624Q535.20624 36.409374 536.2375 36.409374Q537.2531 36.409374 538.03436 35.971874Q538.83124 35.51875 539.20624 34.753124Q539.4875 34.14375 539.4875 32.9875L539.4875 32.346874ZM543.83124 37.55L543.83124 23.2375L545.58124 23.2375L545.58124 37.55L543.83124 37.55ZM560.64374 33.753124L562.3625 33.971874Q562.08124 35.76875 560.90936 36.784374Q559.7531 37.784374 558.05 37.784374Q555.925 37.784374 554.6281 36.39375Q553.33124 35.003124 553.33124 32.409374Q553.33124 30.721874 553.8781 29.471874Q554.4406 28.20625 555.58124 27.58125Q556.72186 26.940624 558.0656 26.940624Q559.7531 26.940624 560.8156 27.8Q561.89374 28.659374 562.20624 30.221874L560.4875 30.4875Q560.2531 29.440624 559.6281 28.925Q559.0031 28.39375 558.1281 28.39375Q556.8 28.39375 555.97186 29.346874Q555.14374 30.3 555.14374 32.346874Q555.14374 34.440624 555.9406 35.39375Q556.7375 36.33125 558.03436 36.33125Q559.0656 36.33125 559.7531 35.70625Q560.45624 35.065624 560.64374 33.753124ZM570.65936 37.55L570.65936 36.01875Q569.45624 37.784374 567.3781 37.784374Q566.45624 37.784374 565.65936 37.440624Q564.8625 37.08125 564.47186 36.55Q564.09686 36.01875 563.9406 35.2375Q563.83124 34.721874 563.83124 33.596874L563.83124 27.175L565.58124 27.175L565.58124 32.925Q565.58124 34.3 565.6906 34.784374Q565.8625 35.471874 566.39374 35.878124Q566.9406 36.26875 567.72186 36.26875Q568.51874 36.26875 569.20624 35.8625Q569.90936 35.45625 570.1906 34.76875Q570.4875 34.065624 570.4875 32.7375L570.4875 27.175L572.2375 27.175L572.2375 37.55L570.65936 37.55ZM578.70624 35.971874L578.95624 37.534374Q578.22186 37.690624 577.6281 37.690624Q576.675 37.690624 576.14374 37.39375Q575.6281 37.08125 575.40936 36.596874Q575.1906 36.096874 575.1906 34.51875L575.1906 28.55L573.90936 28.55L573.90936 27.175L575.1906 27.175L575.1906 24.6125L576.9406 23.55L576.9406 27.175L578.70624 27.175L578.70624 28.55L576.9406 28.55L576.9406 34.6125Q576.9406 35.3625 577.03436 35.58125Q577.1281 35.784374 577.33124 35.925Q577.55 36.05 577.9406 36.05Q578.22186 36.05 578.70624 35.971874Z" fill-rule="nonzero"/></svg>