<svg fill="none" height="380" stroke-linecap="square" stroke-miterlimit="10" viewBox="0 0 653 380" width="653" xmlns="http://www.w3.org/2000/svg" xmlns:xlink="http://www.w3.org/1999/xlink"><clipPath id="a"><path d="m100 115.333336h534v191.666664h-534z"/></clipPath><path d="m0 0h653v380h-653z" fill="#fff"/><path d="m125.5 115.5v192" stroke="#ccc" stroke-linecap="butt"/><path d="m252.5 115.5v192" stroke="#ccc" stroke-linecap="butt"/><path d="m379.5 115.5v192" stroke="#ccc" stroke-linecap="butt"/><path d="m506.5 115.5v192" stroke="#ccc" stroke-linecap="butt"/><path d="m634.5 115.5v192" stroke="#ccc" stroke-linecap="butt"/><path d="m100.5 307.5h534" stroke="#333" stroke-linecap="butt"/><path d="m100.5 259.5h534" stroke="#ccc" stroke-linecap="butt"/><path d="m100.5 211.5h534" stroke="#ccc" stroke-linecap="butt"/><path d="m100.5 163.5h534" stroke="#ccc" stroke-linecap="butt"/><path d="m100.5 115.5h534" stroke="#ccc" stroke-linecap="butt"/><path clip-path="url(#a)" d="m100 307h25.42857 25.42858 25.42857 25.42856 25.42857l25.42858-5.75 25.42857-11.5 25.42856-11.5 25.42859-11.5 25.42855-11.5 25.4286-11.5 25.42855-11.5 25.42859-11.5 25.42856-11.5 25.42856-11.5 25.42859-11.5 25.42855-11.5 25.4286-11.5 25.4286-11.5 25.4285-11.5 25.4286-11.5" stroke="#4285f4" stroke-linecap="butt" stroke-width="2"/><path clip-path="url(#a)" d="m100 307 25.42857-2.875 25.42858-5.75 25.42857-5.75 25.42856-5.75 25.42857-5.75 25.42858-5.75 25.42857-5.75 25.42856-5.75 25.42859-5.75 25.42855-5.75 25.4286-5.75 25.42855-5.75 25.42859-5.75 25.42856-5.75 25.42856-5.75 25.42859-5.75 25.42855-5.75 25.4286-5.75 25.4286-5.75 25.4285-5.75 25.4286-5.75" stroke="#db4437" stroke-linecap="butt" stroke-width="2"/><g fill="none"><path clip-path="url(#a)" d="m103 307c0 1.65686-1.34315 3-3 3s-3-1.34314-3-3 1.34315-3 3-3 3 1.34314 3 3z"/><path clip-path="url(#a)" d="m128.42857 307c0 1.65686-1.34314 3-3 3-1.65685 0-3-1.34314-3-3s1.34315-3 3-3c1.65686 0 3 1.34314 3 3z"/><path clip-path="url(#a)" d="m153.85715 307c0 1.65686-1.34316 3-3 3-1.65686 0-3-1.34314-3-3s1.34314-3 3-3c1.65684 0 3 1.34314 3 3z"/><path clip-path="url(#a)" d="m179.28572 307c0 1.65686-1.34315 3-3 3-1.65686 0-3-1.34314-3-3s1.34314-3 3-3c1.65685 0 3 1.34314 3 3z"/><path clip-path="url(#a)" d="m204.71428 307c0 1.65686-1.34314 3-3 3-1.65685 0-3-1.34314-3-3s1.34315-3 3-3c1.65686 0 3 1.34314 3 3z"/><path clip-path="url(#a)" d="m230.14285 307c0 1.65686-1.34314 3-3 3-1.65684 0-3-1.34314-3-3s1.34316-3 3-3c1.65686 0 3 1.34314 3 3z"/><path clip-path="url(#a)" d="m255.57143 301.25c0 1.65686-1.34314 3-3 3-1.65685 0-3-1.34314-3-3s1.34315-3 3-3c1.65686 0 3 1.34314 3 3z"/><path clip-path="url(#a)" d="m281 289.75c0 1.65686-1.34314 3-3 3s-3-1.34314-3-3 1.34314-3 3-3 3 1.34314 3 3z"/><path clip-path="url(#a)" d="m306.42856 278.25c0 1.65686-1.34314 3-3 3-1.65683 0-3-1.34314-3-3s1.34317-3 3-3c1.65686 0 3 1.34314 3 3z"/><path clip-path="url(#a)" d="m331.85715 266.75c0 1.65686-1.34315 3-3 3s-3-1.34314-3-3 1.34315-3 3-3 3 1.34314 3 3z"/><path clip-path="url(#a)" d="m357.2857 255.25c0 1.65686-1.34313 3-3 3-1.65685 0-3-1.34314-3-3s1.34315-3 3-3c1.65687 0 3 1.34314 3 3z"/><path clip-path="url(#a)" d="m382.7143 243.75c0 1.65686-1.34315 3-3 3-1.65687 0-3-1.34314-3-3s1.34313-3 3-3c1.65685 0 3 1.34314 3 3z"/><path clip-path="url(#a)" d="m408.14285 232.25c0 1.65686-1.34315 3-3 3s-3-1.34314-3-3 1.34315-3 3-3 3 1.34314 3 3z"/><path clip-path="url(#a)" d="m433.57144 220.75c0 1.65686-1.34317 3-3 3-1.65686 0-3-1.34314-3-3s1.34314-3 3-3c1.65683 0 3 1.34314 3 3z"/><path clip-path="url(#a)" d="m459 209.25c0 1.65686-1.34314 3-3 3s-3-1.34314-3-3 1.34314-3 3-3 3 1.34314 3 3z"/><path clip-path="url(#a)" d="m484.42856 197.75c0 1.65686-1.34314 3-3 3-1.65683 0-3-1.34314-3-3s1.34317-3 3-3c1.65686 0 3 1.34314 3 3z"/><path clip-path="url(#a)" d="m509.85715 186.25c0 1.65686-1.34315 3-3 3s-3-1.34314-3-3 1.34315-3 3-3 3 1.34314 3 3z"/><path clip-path="url(#a)" d="m535.2857 174.75c0 1.65686-1.34313 3-3 3-1.65685 0-3-1.34314-3-3s1.34315-3 3-3c1.65687 0 3 1.34314 3 3z"/><path clip-path="url(#a)" d="m560.7143 163.25c0 1.65686-1.34315 3-3 3-1.65687 0-3-1.34314-3-3s1.34313-3 3-3c1.65685 0 3 1.34314 3 3z"/><path clip-path="url(#a)" d="m586.1429 151.75c0 1.65686-1.3432 3-3 3-1.6569 0-3-1.34314-3-3s1.3431-3 3-3c1.6568 0 3 1.34314 3 3z"/><path clip-path="url(#a)" d="m611.5714 140.25c0 1.65686-1.3431 3-3 3-1.65685 0-3-1.34314-3-3s1.34315-3 3-3c1.6569 0 3 1.34314 3 3z"/><path clip-path="url(#a)" d="m637 128.75c0 1.65686-1.34314 3-3 3s-3-1.34314-3-3c0-1.65685 1.34314-3 3-3s3 1.34315 3 3z"/><path clip-path="url(#a)" d="m103 307c0 1.65686-1.34315 3-3 3s-3-1.34314-3-3 1.34315-3 3-3 3 1.34314 3 3z"/><path clip-path="url(#a)" d="m128.42857 304.125c0 1.65686-1.34314 3-3 3-1.65685 0-3-1.34314-3-3s1.34315-3 3-3c1.65686 0 3 1.34314 3 3z"/><path clip-path="url(#a)" d="m153.85715 298.375c0 1.65686-1.34316 3-3 3-1.65686 0-3-1.34314-3-3s1.34314-3 3-3c1.65684 0 3 1.34314 3 3z"/><path clip-path="url(#a)" d="m179.28572 292.625c0 1.65686-1.34315 3-3 3-1.65686 0-3-1.34314-3-3s1.34314-3 3-3c1.65685 0 3 1.34314 3 3z"/><path clip-path="url(#a)" d="m204.71428 286.875c0 1.65686-1.34314 3-3 3-1.65685 0-3-1.34314-3-3s1.34315-3 3-3c1.65686 0 3 1.34314 3 3z"/><path clip-path="url(#a)" d="m230.14285 281.125c0 1.65686-1.34314 3-3 3-1.65684 0-3-1.34314-3-3s1.34316-3 3-3c1.65686 0 3 1.34314 3 3z"/><path clip-path="url(#a)" d="m255.57143 275.375c0 1.65686-1.34314 3-3 3-1.65685 0-3-1.34314-3-3s1.34315-3 3-3c1.65686 0 3 1.34314 3 3z"/><path clip-path="url(#a)" d="m281 269.625c0 1.65686-1.34314 3-3 3s-3-1.34314-3-3 1.34314-3 3-3 3 1.34314 3 3z"/><path clip-path="url(#a)" d="m306.42856 263.875c0 1.65686-1.34314 3-3 3-1.65683 0-3-1.34314-3-3s1.34317-3 3-3c1.65686 0 3 1.34314 3 3z"/><path clip-path="url(#a)" d="m331.85715 258.125c0 1.65686-1.34315 3-3 3s-3-1.34314-3-3 1.34315-3 3-3 3 1.34314 3 3z"/><path clip-path="url(#a)" d="m357.2857 252.375c0 1.65686-1.34313 3-3 3-1.65685 0-3-1.34314-3-3s1.34315-3 3-3c1.65687 0 3 1.34314 3 3z"/><path clip-path="url(#a)" d="m382.7143 246.625c0 1.65686-1.34315 3-3 3-1.65687 0-3-1.34314-3-3s1.34313-3 3-3c1.65685 0 3 1.34314 3 3z"/><path clip-path="url(#a)" d="m408.14285 240.875c0 1.65686-1.34315 3-3 3s-3-1.34314-3-3 1.34315-3 3-3 3 1.34314 3 3z"/><path clip-path="url(#a)" d="m433.57144 235.125c0 1.65686-1.34317 3-3 3-1.65686 0-3-1.34314-3-3s1.34314-3 3-3c1.65683 0 3 1.34314 3 3z"/><path clip-path="url(#a)" d="m459 229.375c0 1.65686-1.34314 3-3 3s-3-1.34314-3-3 1.34314-3 3-3 3 1.34314 3 3z"/><path clip-path="url(#a)" d="m484.42856 223.625c0 1.65686-1.34314 3-3 3-1.65683 0-3-1.34314-3-3s1.34317-3 3-3c1.65686 0 3 1.34314 3 3z"/><path clip-path="url(#a)" d="m509.85715 217.875c0 1.65686-1.34315 3-3 3s-3-1.34314-3-3 1.34315-3 3-3 3 1.34314 3 3z"/><path clip-path="url(#a)" d="m535.2857 212.125c0 1.65686-1.34313 3-3 3-1.65685 0-3-1.34314-3-3s1.34315-3 3-3c1.65687 0 3 1.34314 3 3z"/><path clip-path="url(#a)" d="m560.7143 206.375c0 1.65686-1.34315 3-3 3-1.65687 0-3-1.34314-3-3s1.34313-3 3-3c1.65685 0 3 1.34314 3 3z"/><path clip-path="url(#a)" d="m586.1429 200.625c0 1.65686-1.3432 3-3 3-1.6569 0-3-1.34314-3-3s1.3431-3 3-3c1.6568 0 3 1.34314 3 3z"/><path clip-path="url(#a)" d="m611.5714 194.875c0 1.65686-1.3431 3-3 3-1.65685 0-3-1.34314-3-3s1.34315-3 3-3c1.6569 0 3 1.34314 3 3z"/><path clip-path="url(#a)" d="m637 189.125c0 1.65686-1.34314 3-3 3s-3-1.34314-3-3 1.34314-3 3-3 3 1.34314 3 3z"/></g><path d="m358.59375 353.75 2.21875-4.28125h1.28125l-2.9375 5.34375v3.1875h-1.125v-3.1875l-2.9375-5.34375h1.28125zm6.85937 4.375q-1.29687 0-2.10937-.84375-.79687-.85937-.79687-2.28125v-.1875q0-.95312.35937-1.6875.35937-.75 1-1.15625.65625-.42187 1.40625-.42187 1.23438 0 1.92188.8125.6875.8125.6875 2.32812v.45312h-4.29688q.03125.9375.54688 1.51563.53124.57813 1.34374.57813.5625 0 .95313-.23438.40625-.23438.71875-.625l.65625.51562q-.79687 1.23438-2.39063 1.23438zm-.14062-5.6875q-.65625 0-1.10938.48438-.4375.46874-.53124 1.32812h3.17187v-.07812q-.04687-.82813-.45313-1.28126-.39062-.45312-1.07812-.45312zm7.42188 5.5625q-.09376-.1875-.15626-.67188-.75.79688-1.79687.79688-.9375 0-1.54687-.53125-.59376-.53125-.59376-1.35937 0-.98438.75-1.53126.75-.54687 2.125-.54687h1.04688v-.5q0-.5625-.34375-.89063-.32813-.34374-1-.34374-.57813 0-.96875.29687-.39062.28125-.39062.70313h-1.09376q0-.48438.32813-.92188.34375-.4375.92187-.6875.57813-.26562 1.26563-.26562 1.10937 0 1.71875.54687.625.54687.65625 1.5v2.92187q0 .875.21875 1.39063v.09375zm-1.79688-.82812q.51562 0 .96875-.26563.45313-.26563.65625-.6875v-1.29687h-.84375q-2 0-2 1.17187 0 .5.34375.79687.34375.28126.875.28126zm7.95312-4.54688q-.25-.03125-.53124-.03125-1.07813 0-1.45313.90625v4.5h-1.07813v-6.34375h1.04688l.01562.73437q.53126-.84374 1.51563-.84374.3125 0 .48437.07812z" fill="#424242"/><path d="m22.46875 233.47916 6.953125-2.79688-6.953125-2.78125v-1.46875h8.53125v1.125h-3.328125l-3.578125-.10938 6.90625 2.8125v.85938l-6.890625 2.79688 3.5625-.10938h3.328125v1.125h-8.53125zm5.296875-8.09376q-.921875 0-1.671875-.35937-.75-.375-1.140625-1.03125-.40625-.65625-.40625-1.48438 0-1.29687.890625-2.09374.890625-.8125 2.390625-.8125h.078125q.921875 0 1.65625.35937.734375.35937 1.15625 1.01563.40625.65624.40625 1.51562 0 1.28125-.890625 2.09375-.90625.79687-2.390625.79687zm.140625-1.09374q1.046875 0 1.6875-.48438.640625-.5.640625-1.3125 0-.82812-.640625-1.3125-.65625-.48438-1.828125-.48438-1.03125 0-1.671875.5-.65625.48438-.65625 1.3125 0 .79688.640625 1.29688.625.48438 1.828125.48438zm-3.25-7.21876.796875-.03124q-.90625-.73438-.90625-1.90626 0-2.01562 2.265625-2.03124h4.1875v1.09374h-4.203125q-.671875 0-1 .3125-.328125.29688-.328125.95313 0 .53125.28125.9375.28125.39063.734375.60937h4.515625v1.07813h-6.34375zm6.46875-8.60937q0 1.29687-.84375 2.10937-.859375.79688-2.28125.79688h-.1875q-.953125 0-1.6875-.35938-.75-.35937-1.15625-1-.421875-.65624-.421875-1.40624 0-1.23438.8125-1.92188.8125-.6875 2.328125-.6875h.453125v4.29688q.9375-.03126 1.515625-.54688.578125-.53125.578125-1.34375 0-.5625-.234375-.95313-.234375-.40624-.625-.71874l.515625-.65626q1.234375.79688 1.234375 2.39063zm-5.6875.14063q0 .65624.484375 1.10937.46875.4375 1.328125.53125v-3.17188h-.078125q-.828125.04688-1.28125.45313-.453125.39063-.453125 1.07813zm3.96875-5.57813-4.75-1.48437v-1.15626l7.328125 2.54688q1.578125.59375 1.578125 1.875l-.015625.21875-.078125.39063h-.875l.015625-.28126q0-.5625-.21875-.85937-.21875-.3125-.8125-.51563l-.65625-.23437-6.265625 2.26563v-1.1875z" fill="#424242"/><path d="m93.0625 307.85938q0 1.90624-.65625 2.84374-.640625.92188-2.03125.92188-1.359375 0-2.015625-.90625-.65625-.90625-.6875-2.71875v-1.4375q0-1.89062.640625-2.79688.65625-.92187 2.046875-.92187 1.375 0 2.03125.89063.65625.875.671875 2.71874zm-1.09375-1.48438q0-1.375-.390625-2-.375-.64062-1.21875-.64062-.828125 0-1.21875.64062-.375.625-.375 1.92188v1.73437q0 1.375.390625 2.04687.40625.65626 1.21875.65626.796875 0 1.1875-.625.390625-.625.40625-1.95313z" fill="#757575"/><path d="m60.203125 259.3021.4375-4.25h4.375v1h-3.453125l-.265625 2.32812q.640625-.375 1.4375-.375 1.15625 0 1.84375.78125.6875.76563.6875 2.07813 0 1.3125-.71875 2.07812-.703125.76562-1.984375.76562-1.125 0-1.84375-.625-.71875-.64062-.8125-1.75h1.015625q.109375.73438.53125 1.10938.421875.375 1.109375.375.75 0 1.1875-.51562.4375-.51563.4375-1.42188 0-.85938-.46875-1.375-.46875-.51562-1.25-.51562-.703125 0-1.109375.29687l-.28125.23437zm11.859375.64062q0 1.90625-.65625 2.84375-.640625.92187-2.03125.92187-1.359375 0-2.015625-.90624-.65625-.90626-.6875-2.71876v-1.4375q0-1.89062.640625-2.79687.65625-.92187 2.046875-.92187 1.375 0 2.03125.89062.65625.875.671875 2.71875zm-1.09375-1.48438q0-1.375-.390625-2-.375-.64062-1.21875-.64062-.828125 0-1.21875.64062-.375.625-.375 1.92188v1.73438q0 1.375.390625 2.04687.40625.65625 1.21875.65625.796875 0 1.1875-.625.390625-.625.40625-1.95312zm8.09375 1.48438q0 1.90625-.65625 2.84375-.640625.92187-2.03125.92187-1.359375 0-2.015625-.90624-.65625-.90626-.6875-2.71876v-1.4375q0-1.89062.640625-2.79687.65625-.92187 2.046875-.92187 1.375 0 2.03125.89062.65625.875.671875 2.71875zm-1.09375-1.48438q0-1.375-.390625-2-.375-.64062-1.21875-.64062-.828125 0-1.21875.64062-.375.625-.375 1.92188v1.73438q0 1.375.390625 2.04687.40625.65625 1.21875.65625.796875 0 1.1875-.625.390625-.625.40625-1.95312zm8.09375 1.48438q0 1.90625-.65625 2.84375-.640625.92187-2.03125.92187-1.359375 0-2.015625-.90624-.65625-.90626-.6875-2.71876v-1.4375q0-1.89062.640625-2.79687.65625-.92187 2.046875-.92187 1.375 0 2.03125.89062.65625.875.671875 2.71875zm-1.09375-1.48438q0-1.375-.390625-2-.375-.64062-1.21875-.64062-.828125 0-1.21875.64062-.375.625-.375 1.92188v1.73438q0 1.375.390625 2.04687.40625.65625 1.21875.65625.796875 0 1.1875-.625.390625-.625.40625-1.95312zm8.09375 1.48438q0 1.90625-.65625 2.84375-.640625.92187-2.03125.92187-1.359375 0-2.015625-.90624-.65625-.90626-.6875-2.71876v-1.4375q0-1.89062.640625-2.79687.65625-.92187 2.046875-.92187 1.375 0 2.03125.89062.65625.875.671875 2.71875zm-1.09375-1.48438q0-1.375-.390625-2-.375-.64062-1.21875-.64062-.828125 0-1.21875.64062-.375.625-.375 1.92188v1.73438q0 1.375.390625 2.04687.40625.65625 1.21875.65625.796875 0 1.1875-.625.390625-.625.40625-1.95312z" fill="#757575"/><path d="m56.265625 215.66667h-1.078125v-7.21875l-2.1875.79688v-.98438l3.109375-1.17187h.15625zm8.796875-3.64062q0 1.90625-.65625 2.84375-.640625.92187-2.03125.92187-1.359375 0-2.015625-.90625-.65625-.90625-.6875-2.71875v-1.4375q0-1.89062.640625-2.79687.65625-.92188 2.046875-.92188 1.375 0 2.03125.89063.65625.875.671875 2.71875zm-1.09375-1.48438q0-1.375-.390625-2-.375-.64062-1.21875-.64062-.828125 0-1.21875.64062-.375.625-.375 1.92188v1.73437q0 1.375.390625 2.04688.40625.65625 1.21875.65625.796875 0 1.1875-.625.390625-.625.40625-1.95313zm8.09375 1.48438q0 1.90625-.65625 2.84375-.640625.92187-2.03125.92187-1.359375 0-2.015625-.90625-.65625-.90625-.6875-2.71875v-1.4375q0-1.89062.640625-2.79687.65625-.92188 2.046875-.92188 1.375 0 2.03125.89063.65625.875.671875 2.71875zm-1.09375-1.48438q0-1.375-.390625-2-.375-.64062-1.21875-.64062-.828125 0-1.21875.64062-.375.625-.375 1.92188v1.73437q0 1.375.390625 2.04688.40625.65625 1.21875.65625.796875 0 1.1875-.625.390625-.625.40625-1.95313zm8.09375 1.48438q0 1.90625-.65625 2.84375-.640625.92187-2.03125.92187-1.359375 0-2.015625-.90625-.65625-.90625-.6875-2.71875v-1.4375q0-1.89062.640625-2.79687.65625-.92188 2.046875-.92188 1.375 0 2.03125.89063.65625.875.671875 2.71875zm-1.09375-1.48438q0-1.375-.390625-2-.375-.64062-1.21875-.64062-.828125 0-1.21875.64062-.375.625-.375 1.92188v1.73437q0 1.375.390625 2.04688.40625.65625 1.21875.65625.796875 0 1.1875-.625.390625-.625.40625-1.95313zm8.09375 1.48438q0 1.90625-.65625 2.84375-.640625.92187-2.03125.92187-1.359375 0-2.015625-.90625-.65625-.90625-.6875-2.71875v-1.4375q0-1.89062.640625-2.79687.65625-.92188 2.046875-.92188 1.375 0 2.03125.89063.65625.875.671875 2.71875zm-1.09375-1.48438q0-1.375-.390625-2-.375-.64062-1.21875-.64062-.828125 0-1.21875.64062-.375.625-.375 1.92188v1.73437q0 1.375.390625 2.04688.40625.65625 1.21875.65625.796875 0 1.1875-.625.390625-.625.40625-1.95313zm8.09375 1.48438q0 1.90625-.65625 2.84375-.640625.92187-2.03125.92187-1.359375 0-2.015625-.90625-.65625-.90625-.6875-2.71875v-1.4375q0-1.89062.640625-2.79687.65625-.92188 2.046875-.92188 1.375 0 2.03125.89063.65625.875.671875 2.71875zm-1.09375-1.48438q0-1.375-.390625-2-.375-.64062-1.21875-.64062-.828125 0-1.21875.64062-.375.625-.375 1.92188v1.73437q0 1.375.390625 2.04688.40625.65625 1.21875.65625.796875 0 1.1875-.625.390625-.625.40625-1.95313z" fill="#757575"/><path d="m56.265625 167.75h-1.078125v-7.21875l-2.1875.79687v-.98437l3.109375-1.17187h.15625zm3.9375-4.28125.4375-4.25h4.375v1h-3.453125l-.265625 2.32813q.640625-.375 1.4375-.375 1.15625 0 1.84375.78124.6875.76563.6875 2.07813 0 1.3125-.71875 2.07813-.703125.76562-1.984375.76562-1.125 0-1.84375-.625-.71875-.64062-.8125-1.75h1.015625q.109375.73438.53125 1.10938.421875.375 1.109375.375.75 0 1.1875-.51563.4375-.51563.4375-1.42187 0-.85938-.46875-1.375-.46875-.51563-1.25-.51563-.703125 0-1.109375.29687l-.28125.23438zm11.859375.64063q0 1.90624-.65625 2.84374-.640625.92188-2.03125.92188-1.359375 0-2.015625-.90625-.65625-.90625-.6875-2.71875v-1.4375q0-1.89062.640625-2.79688.65625-.92187 2.046875-.92187 1.375 0 2.03125.89063.65625.875.671875 2.71874zm-1.09375-1.48438q0-1.375-.390625-2-.375-.64062-1.21875-.64062-.828125 0-1.21875.64062-.375.625-.375 1.92188v1.73437q0 1.375.390625 2.04687.40625.65626 1.21875.65626.796875 0 1.1875-.625.390625-.625.40625-1.95313zm8.09375 1.48438q0 1.90624-.65625 2.84374-.640625.92188-2.03125.92188-1.359375 0-2.015625-.90625-.65625-.90625-.6875-2.71875v-1.4375q0-1.89062.640625-2.79688.65625-.92187 2.046875-.92187 1.375 0 2.03125.89063.65625.875.671875 2.71874zm-1.09375-1.48438q0-1.375-.390625-2-.375-.64062-1.21875-.64062-.828125 0-1.21875.64062-.375.625-.375 1.92188v1.73437q0 1.375.390625 2.04687.40625.65626 1.21875.65626.796875 0 1.1875-.625.390625-.625.40625-1.95313zm8.09375 1.48438q0 1.90624-.65625 2.84374-.640625.92188-2.03125.92188-1.359375 0-2.015625-.90625-.65625-.90625-.6875-2.71875v-1.4375q0-1.89062.640625-2.79688.65625-.92187 2.046875-.92187 1.375 0 2.03125.89063.65625.875.671875 2.71874zm-1.09375-1.48438q0-1.375-.390625-2-.375-.64062-1.21875-.64062-.828125 0-1.21875.64062-.375.625-.375 1.92188v1.73437q0 1.375.390625 2.04687.40625.65626 1.21875.65626.796875 0 1.1875-.625.390625-.625.40625-1.95313zm8.09375 1.48438q0 1.90624-.65625 2.84374-.640625.92188-2.03125.92188-1.359375 0-2.015625-.90625-.65625-.90625-.6875-2.71875v-1.4375q0-1.89062.640625-2.79688.65625-.92187 2.046875-.92187 1.375 0 2.03125.89063.65625.875.671875 2.71874zm-1.09375-1.48438q0-1.375-.390625-2-.375-.64062-1.21875-.64062-.828125 0-1.21875.64062-.375.625-.375 1.92188v1.73437q0 1.375.390625 2.04687.40625.65626 1.21875.65626.796875 0 1.1875-.625.390625-.625.40625-1.95313z" fill="#757575"/><path d="m58.296875 119.833336h-5.59375v-.78125l2.953125-3.28125q.65625-.75.90625-1.203126.25-.46875.25-.96875 0-.671874-.40625-1.09375-.390625-.4375-1.078125-.4375-.796875 0-1.25.46875-.453125.453126-.453125 1.28125h-1.078125q0-1.1875.75-1.90625.765625-.734374 2.03125-.734374 1.203125 0 1.890625.625.6875.625.6875 1.671874 0 1.25-1.609375 3l-2.28125 2.46875h4.28125zm6.765625-3.640626q0 1.90625-.65625 2.84375-.640625.921876-2.03125.921876-1.359375 0-2.015625-.90625-.65625-.90625-.6875-2.71875v-1.4375q0-1.890626.640625-2.796876.65625-.921874 2.046875-.921874 1.375 0 2.03125.890624.65625.875.671875 2.71875zm-1.09375-1.484374q0-1.375-.390625-2-.375-.640626-1.21875-.640626-.828125 0-1.21875.640626-.375.625-.375 1.921874v1.734376q0 1.375.390625 2.046874.40625.65625 1.21875.65625.796875 0 1.1875-.625.390625-.625.40625-1.953124zm8.09375 1.484374q0 1.90625-.65625 2.84375-.640625.921876-2.03125.921876-1.359375 0-2.015625-.90625-.65625-.90625-.6875-2.71875v-1.4375q0-1.890626.640625-2.796876.65625-.921874 2.046875-.921874 1.375 0 2.03125.890624.65625.875.671875 2.71875zm-1.09375-1.484374q0-1.375-.390625-2-.375-.640626-1.21875-.640626-.828125 0-1.21875.640626-.375.625-.375 1.921874v1.734376q0 1.375.390625 2.046874.40625.65625 1.21875.65625.796875 0 1.1875-.625.390625-.625.40625-1.953124zm8.09375 1.484374q0 1.90625-.65625 2.84375-.640625.921876-2.03125.921876-1.359375 0-2.015625-.90625-.65625-.90625-.6875-2.71875v-1.4375q0-1.890626.640625-2.796876.65625-.921874 2.046875-.921874 1.375 0 2.03125.890624.65625.875.671875 2.71875zm-1.09375-1.484374q0-1.375-.390625-2-.375-.640626-1.21875-.640626-.828125 0-1.21875.640626-.375.625-.375 1.921874v1.734376q0 1.375.390625 2.046874.40625.65625 1.21875.65625.796875 0 1.1875-.625.390625-.625.40625-1.953124zm8.09375 1.484374q0 1.90625-.65625 2.84375-.640625.921876-2.03125.921876-1.359375 0-2.015625-.90625-.65625-.90625-.6875-2.71875v-1.4375q0-1.890626.640625-2.796876.65625-.921874 2.046875-.921874 1.375 0 2.03125.890624.65625.875.671875 2.71875zm-1.09375-1.484374q0-1.375-.390625-2-.375-.640626-1.21875-.640626-.828125 0-1.21875.640626-.375.625-.375 1.921874v1.734376q0 1.375.390625 2.046874.40625.65625 1.21875.65625.796875 0 1.1875-.625.390625-.625.40625-1.953124zm8.09375 1.484374q0 1.90625-.65625 2.84375-.640625.921876-2.03125.921876-1.359375 0-2.015625-.90625-.65625-.90625-.6875-2.71875v-1.4375q0-1.890626.640625-2.796876.65625-.921874 2.046875-.921874 1.375 0 2.03125.890624.65625.875.671875 2.71875zm-1.09375-1.484374q0-1.375-.390625-2-.375-.640626-1.21875-.640626-.828125 0-1.21875.640626-.375.625-.375 1.921874v1.734376q0 1.375.390625 2.046874.40625.65625 1.21875.65625.796875 0 1.1875-.625.390625-.625.40625-1.953124z" fill="#757575"/><path d="m117.72545 325h-5.59375v-.78125l2.95312-3.28125q.65625-.75.90625-1.20312.25-.46876.25-.96876 0-.67187-.40625-1.09374-.39062-.4375-1.07812-.4375-.79688 0-1.25.46874-.45313.45313-.45313 1.28126h-1.07812q0-1.1875.75-1.90626.76562-.73437 2.03125-.73437 1.20312 0 1.89062.625.6875.625.6875 1.67187 0 1.25-1.60937 3l-2.28125 2.46876h4.28125zm6.76562-3.64062q0 1.90624-.65625 2.84374-.64062.92188-2.03125.92188-1.35937 0-2.01562-.90625-.65625-.90625-.6875-2.71875v-1.4375q0-1.89062.64062-2.79688.65625-.92187 2.04688-.92187 1.375 0 2.03125.89063.65625.875.67187 2.71874zm-1.09375-1.48438q0-1.375-.39062-2-.375-.64062-1.21875-.64062-.82813 0-1.21875.64062-.375.625-.375 1.92188v1.73437q0 1.375.39062 2.04687.40625.65626 1.21875.65626.79688 0 1.1875-.625.39063-.625.40625-1.95313zm6.29688 5.125h-1.07813v-7.21875l-2.1875.79687v-.98437l3.10938-1.17187h.15625zm3.9375-4.28125.4375-4.25h4.375v1h-3.45313l-.26562 2.32813q.64062-.375 1.4375-.375 1.15625 0 1.84375.78124.6875.76563.6875 2.07813 0 1.3125-.71875 2.07813-.70313.76562-1.98438.76562-1.125 0-1.84375-.625-.71875-.64062-.8125-1.75h1.01563q.10937.73438.53125 1.10938.42187.375 1.10937.375.75 0 1.1875-.51563.4375-.51563.4375-1.42187 0-.85938-.46875-1.375-.46875-.51563-1.25-.51563-.70312 0-1.10937.29687l-.28125.23438z" fill="#757575"/><path d="m244.8683 325h-5.59375v-.78125l2.95313-3.28125q.65625-.75.90625-1.20312.25-.46876.25-.96876 0-.67187-.40625-1.09374-.39063-.4375-1.07813-.4375-.79687 0-1.25.46874-.45312.45313-.45312 1.28126h-1.07813q0-1.1875.75-1.90626.76563-.73437 2.03125-.73437 1.20313 0 1.89063.625.6875.625.6875 1.67187 0 1.25-1.60938 3l-2.28125 2.46876h4.28125zm6.76563-3.64062q0 1.90624-.65625 2.84374-.64063.92188-2.03125.92188-1.35938 0-2.01563-.90625-.65625-.90625-.6875-2.71875v-1.4375q0-1.89062.64063-2.79688.65625-.92187 2.04687-.92187 1.375 0 2.03125.89063.65625.875.67188 2.71874zm-1.09375-1.48438q0-1.375-.39063-2-.375-.64062-1.21875-.64062-.82812 0-1.21875.64062-.375.625-.375 1.92188v1.73437q0 1.375.39063 2.04687.40625.65626 1.21875.65626.79687 0 1.1875-.625.39062-.625.40625-1.95313zm8.32812 5.125h-5.59375v-.78125l2.95311-3.28125q.65624-.75.90624-1.20312.25-.46876.25-.96876 0-.67187-.40624-1.09374-.39062-.4375-1.07811-.4375-.79687 0-1.25.46874-.45312.45313-.45312 1.28126h-1.07813q0-1.1875.75-1.90626.76563-.73437 2.03125-.73437 1.20311 0 1.89061.625.6875.625.6875 1.67187 0 1.25-1.60936 3l-2.28125 2.46876h4.28125zm6.7656-3.64062q0 1.90624-.65624 2.84374-.64062.92188-2.03126.92188-1.35936 0-2.0156-.90625-.65626-.90625-.6875-2.71875v-1.4375q0-1.89062.6406-2.79688.65626-.92187 2.0469-.92187 1.375 0 2.03124.89063.65626.875.67186 2.71874zm-1.09374-1.48438q0-1.375-.39062-2-.375-.64062-1.21874-.64062-.82814 0-1.21876.64062-.375.625-.375 1.92188v1.73437q0 1.375.39062 2.04687.40624.65626 1.21874.65626.7969 0 1.1875-.625.39064-.625.40626-1.95313z" fill="#757575"/><path d="m372.01117 325h-5.59375v-.78125l2.95312-3.28125q.65626-.75.90626-1.20312.25-.46876.25-.96876 0-.67187-.40626-1.09374-.39062-.4375-1.07812-.4375-.79688 0-1.25.46874-.45312.45313-.45312 1.28126h-1.07813q0-1.1875.75-1.90626.76563-.73437 2.03125-.73437 1.20312 0 1.89062.625.6875.625.6875 1.67187 0 1.25-1.60937 3l-2.28125 2.46876h4.28125zm6.76563-3.64062q0 1.90624-.65626 2.84374-.64062.92188-2.03124.92188-1.35938 0-2.01563-.90625-.65625-.90625-.6875-2.71875v-1.4375q0-1.89062.64063-2.79688.65624-.92187 2.04687-.92187 1.375 0 2.03125.89063.65625.875.67188 2.71874zm-1.09376-1.48438q0-1.375-.39062-2-.375-.64062-1.21875-.64062-.82813 0-1.21875.64062-.375.625-.375 1.92188v1.73437q0 1.375.39062 2.04687.40626.65626 1.21876.65626.79687 0 1.1875-.625.39062-.625.40624-1.95313zm8.32813 5.125h-5.59375v-.78125l2.95312-3.28125q.65626-.75.90626-1.20312.25-.46876.25-.96876 0-.67187-.40626-1.09374-.39062-.4375-1.07812-.4375-.79688 0-1.25.46874-.45312.45313-.45312 1.28126h-1.07813q0-1.1875.75-1.90626.76563-.73437 2.03125-.73437 1.20312 0 1.89062.625.6875.625.6875 1.67187 0 1.25-1.60937 3l-2.28125 2.46876h4.28125zm1.90625-4.28125.4375-4.25h4.375v1h-3.45312l-.26563 2.32813q.64063-.375 1.4375-.375 1.15625 0 1.84375.78124.6875.76563.6875 2.07813 0 1.3125-.71875 2.07813-.70313.76562-1.98437.76562-1.125 0-1.84376-.625-.71874-.64062-.8125-1.75h1.01563q.10937.73438.53125 1.10938.42188.375 1.10938.375.75 0 1.1875-.51563.4375-.51563.4375-1.42187 0-.85938-.46876-1.375-.46874-.51563-1.25-.51563-.70312 0-1.10937.29687l-.28125.23438z" fill="#757575"/><path d="m499.15402 325h-5.59375v-.78125l2.95313-3.28125q.65625-.75.90625-1.20312.25-.46876.25-.96876 0-.67187-.40625-1.09374-.39063-.4375-1.07813-.4375-.79687 0-1.25.46874-.45312.45313-.45312 1.28126h-1.07813q0-1.1875.75-1.90626.76563-.73437 2.03125-.73437 1.20313 0 1.89063.625.6875.625.6875 1.67187 0 1.25-1.60938 3l-2.28125 2.46876h4.28125zm6.76563-3.64062q0 1.90624-.65625 2.84374-.64063.92188-2.03125.92188-1.35938 0-2.01563-.90625-.65625-.90625-.6875-2.71875v-1.4375q0-1.89062.64063-2.79688.65625-.92187 2.04687-.92187 1.375 0 2.03125.89063.65625.875.67188 2.71874zm-1.09375-1.48438q0-1.375-.39063-2-.375-.64062-1.21875-.64062-.82812 0-1.21875.64062-.375.625-.375 1.92188v1.73437q0 1.375.39063 2.04687.40625.65626 1.21875.65626.79687 0 1.1875-.625.39062-.625.40625-1.95313zm4.3125.32812h.8125q.78125-.01562 1.21875-.40624.4375-.39063.4375-1.0625 0-1.5-1.5-1.5-.70313 0-1.125.40624-.40625.40626-.40625 1.0625h-1.09375q0-1.01562.73437-1.6875.75-.67187 1.89063-.67187 1.20312 0 1.89062.64063.68753.64062.68753 1.78124 0 .5625-.3594 1.07813-.35938.51563-.98438.78125.70318.21875 1.07818.73438.3906.51562.3906 1.26562 0 1.14062-.75 1.82812-.75003.67188-1.95315.67188-1.1875 0-1.95313-.65625-.75-.65625-.75-1.71875h1.09375q0 .67188.4375 1.07812.4375.40626 1.1875.40626.78125 0 1.1875-.40626.42188-.42187.42188-1.1875 0-.73437-.45313-1.125-.45312-.40624-1.32812-.42187h-.8125zm10.7813 1.15626q0 1.90624-.6563 2.84374-.6406.92188-2.0312.92188-1.3594 0-2.01565-.90625-.65625-.90625-.6875-2.71875v-1.4375q0-1.89062.64065-2.79688.6562-.92187 2.04685-.92187 1.375 0 2.03125.89063.65625.875.6719 2.71874zm-1.0938-1.48438q0-1.375-.3906-2-.375-.64062-1.21875-.64062-.82815 0-1.21875.64062-.375.625-.375 1.92188v1.73437q0 1.375.3906 2.04687.4063.65626 1.2188.65626.79685 0 1.1875-.625.3906-.625.4062-1.95313z" fill="#757575"/><path d="m626.2969 325h-5.5938v-.78125l2.95315-3.28125q.65625-.75.90625-1.20312.25-.46876.25-.96876 0-.67187-.40625-1.09374-.39065-.4375-1.07815-.4375-.79685 0-1.25.46874-.4531.45313-.4531 1.28126h-1.0781q0-1.1875.75-1.90626.7656-.73437 2.0312-.73437 1.20315 0 1.89065.625.6875.625.6875 1.67187 0 1.25-1.60935 3l-2.2813 2.46876h4.2813zm6.7656-3.64062q0 1.90624-.65625 2.84374-.64065.92188-2.03125.92188-1.3594 0-2.0156-.90625-.6563-.90625-.6875-2.71875v-1.4375q0-1.89062.6406-2.79688.65625-.92187 2.0469-.92187 1.375 0 2.0312.89063.6563.875.6719 2.71874zm-1.09375-1.48438q0-1.375-.39065-2-.375-.64062-1.2187-.64062-.82815 0-1.2188.64062-.375.625-.375 1.92188v1.73437q0 1.375.39065 2.04687.40625.65626 1.21875.65626.7969 0 1.1875-.625.3906-.625.40625-1.95313zm4.3125.32812h.8125q.78125-.01562 1.21875-.40624.4375-.39063.4375-1.0625 0-1.5-1.5-1.5-.7031 0-1.125.40624-.40625.40626-.40625 1.0625h-1.09375q0-1.01562.7344-1.6875.75-.67187 1.8906-.67187 1.2031 0 1.8906.64063.6875.64062.6875 1.78124 0 .5625-.35935 1.07813-.35935.51563-.98435.78125.7031.21875 1.0781.73438.3906.51562.3906 1.26562 0 1.14062-.75 1.82812-.75.67188-1.9531.67188-1.1875 0-1.9531-.65625-.75-.65625-.75-1.71875h1.0937q0 .67188.4375 1.07812.4375.40626 1.1875.40626.7813 0 1.1875-.40626.4219-.42187.4219-1.1875 0-.73437-.4531-1.125-.45315-.40624-1.32815-.42187h-.8125zm5.92185.51563.4375-4.25h4.375v1h-3.4531l-.2656 2.32813q.6406-.375 1.4375-.375 1.1562 0 1.8437.78124.6875.76563.6875 2.07813 0 1.3125-.7187 2.07813-.70315.76562-1.9844.76562-1.125 0-1.84375-.625-.71875-.64062-.8125-1.75h1.01565q.10935.73438.5312 1.10938.4219.375 1.1094.375.75 0 1.1875-.51563.4375-.51563.4375-1.42187 0-.85938-.46875-1.375-.46875-.51563-1.25-.51563-.70315 0-1.10935.29687l-.2813.23438z" fill="#757575"/><path d="m222 87.666664h12" stroke="#4285f4" stroke-linecap="butt" stroke-width="4"/><path d="m249.26562 89.46354q-.15624 1.34375-1 2.09375-.84374.734374-2.23437.734374-1.51563 0-2.42187-1.078124-.90626-1.09375-.90626-2.921876v-.8125q0-1.1875.42188-2.09375.42188-.90625 1.20312-1.390624.78126-.484376 1.79688-.484376 1.35938 0 2.17188.765626.82812.765624.96874 2.09375h-1.125q-.15624-1.015626-.64062-1.46875-.48438-.453126-1.375-.453126-1.07812 0-1.6875.796876-.60938.796874-.60938 2.265624v.828126q0 1.390624.57813 2.21875.57813.8125 1.625.8125.9375 0 1.4375-.421876.5-.4375.67187-1.484374zm1.26563-.53125q0-.921876.35937-1.671876.375-.75 1.03126-1.140624.65624-.40625 1.48437-.40625 1.29687 0 2.09375.890624.8125.890626.8125 2.390626v.078124q0 .921876-.35938 1.65625-.35937.734376-1.01562 1.15625-.65625.40625-1.51562.40625-1.28126 0-2.09376-.890624-.79687-.90625-.79687-2.390626zm1.09375.140624q0 1.046876.48438 1.6875.5.640626 1.3125.640626.82812 0 1.3125-.640626.48437-.65625.48437-1.828124 0-1.03125-.5-1.671876-.48437-.65625-1.3125-.65625-.79687 0-1.29687.640626-.48438.625-.48438 1.828124zm7.375 3.09375h-1.07812v-9h1.07812zm3 0h-1.07812v-9h1.07812zm4.45312.125q-1.29687 0-2.10937-.84375-.79687-.859374-.79687-2.28125v-.1875q0-.953124.35937-1.6875.35937-.75 1-1.15625.65625-.421874 1.40625-.421874 1.23438 0 1.92188.8125.6875.8125.6875 2.328124v.453126h-4.29688q.03125.9375.54688 1.515624.53124.578126 1.34374.578126.5625 0 .95313-.234376.40625-.234374.71875-.625l.65625.515626q-.79687 1.234374-2.39063 1.234374zm-.14062-5.6875q-.65625 0-1.10938.484376-.4375.46875-.53124 1.328124h3.17187v-.078124q-.04687-.828126-.45313-1.28125-.39062-.453126-1.07812-.453126zm3.25 2.34375q0-1.484374.6875-2.359374.6875-.875 1.8125-.875 1.15625 0 1.8125.8125l.04688-.703126h1v6.1875q0 1.234376-.73438 1.9375-.73438.71875-1.95312.71875-.6875 0-1.34376-.296874-.65624-.296876-1-.796876l.5625-.65625q.6875.859376 1.70313.859376.78125 0 1.21875-.453126.45312-.4375.45312-1.25v-.546874q-.65624.765624-1.78124.765624-1.10938 0-1.79688-.890624-.6875-.90625-.6875-2.453126zm1.09375.125q0 1.0625.4375 1.6875.4375.609376 1.23437.609376 1.01563 0 1.5-.9375v-2.890626q-.5-.90625-1.5-.90625-.78124 0-1.23437.609376-.4375.609374-.4375 1.828124zm8.79687 3.21875q-1.29687 0-2.10937-.84375-.79687-.859374-.79687-2.28125v-.1875q0-.953124.35937-1.6875.35937-.75 1-1.15625.65625-.421874 1.40625-.421874 1.23438 0 1.92188.8125.6875.8125.6875 2.328124v.453126h-4.29688q.03125.9375.54688 1.515624.53124.578126 1.34374.578126.5625 0 .95313-.234376.40625-.234374.71875-.625l.65625.515626q-.79687 1.234374-2.39063 1.234374zm-.14062-5.6875q-.65625 0-1.10938.484376-.4375.46875-.53124 1.328124h3.17187v-.078124q-.04687-.828126-.45313-1.28125-.39062-.453126-1.07812-.453126zm8.76562 2.375h-2.85937v-.875h2.85937zm6.42188-.609374q-1.4375-.421876-2.10938-1.03125-.65624-.609376-.65624-1.5 0-1 .79687-1.65625.8125-.671876 2.10937-.671876.875 0 1.5625.34375.6875.34375 1.0625.9375.39063.59375.39063 1.3125h-1.14063q0-.78125-.5-1.21875-.48437-.4375-1.375-.4375-.82812 0-1.29687.375-.46875.359376-.46875 1 0 .53125.4375.890626.45312.359374 1.51562.65625 1.0625.296874 1.65626.65625.60937.359374.89062.84375.29688.484374.29688 1.125 0 1.046874-.8125 1.671874-.8125.625-2.15626.625-.89062 0-1.65624-.34375-.75-.34375-1.17188-.921874-.40625-.59375-.40625-1.328126h1.125q0 .765626.57813 1.21875.57812.453126 1.53124.453126.89063 0 1.35938-.359376.46875-.375.46875-1 0-.625-.4375-.96875-.4375-.34375-1.59375-.671874zm8.23438 3.171874q-.625.75-1.85938.75-1.01562 0-1.54688-.59375-.53124-.59375-.53124-1.75v-4.125h1.07812v4.09375q0 1.453126 1.17188 1.453126 1.25 0 1.65624-.9375v-4.609376h1.09376v6.34375h-1.03126zm4.10937-5.71875.03125.703126q.6875-.8125 1.875-.8125 1.32812 0 1.8125 1.015624.3125-.453124.8125-.734374.51562-.28125 1.20312-.28125 2.09376 0 2.125 2.203124v4.25h-1.07812v-4.1875q0-.671874-.3125-1-.3125-.34375-1.04688-.34375-.60937 0-1.01562.359376-.39062.359374-.45312.96875v4.203124h-1.07813v-4.15625q0-1.375-1.35937-1.375-1.0625 0-1.45313.90625v4.625h-1.09375v-6.34375z" fill="#757575"/><path d="m332 87.666664h12" stroke="#db4437" stroke-linecap="butt" stroke-width="4"/><path d="m354.82812 89.479164.17188 1.125.23438-1.015624 1.6875-5.953126h.95312l1.64062 5.953126.23438 1.03125.1875-1.15625 1.32812-5.828126h1.125l-2.0625 8.53125h-1.03124l-1.76563-6.21875-.125-.65625-.14063.65625-1.8125 6.21875h-1.03124l-2.0625-8.53125h1.125zm8.70313-.546874q0-.921876.35937-1.671876.375-.75 1.03126-1.140624.65624-.40625 1.48437-.40625 1.29687 0 2.09375.890624.8125.890626.8125 2.390626v.078124q0 .921876-.35938 1.65625-.35937.734376-1.01562 1.15625-.65625.40625-1.51562.40625-1.28126 0-2.09376-.890624-.79687-.90625-.79687-2.390626zm1.09375.140624q0 1.046876.48438 1.6875.5.640626 1.3125.640626.82812 0 1.3125-.640626.48437-.65625.48437-1.828124 0-1.03125-.5-1.671876-.48437-.65625-1.3125-.65625-.79687 0-1.29687.640626-.48438.625-.48438 1.828124zm9.26562-2.28125q-.25-.03125-.53124-.03125-1.07813 0-1.45313.90625v4.5h-1.07813v-6.34375h1.04688l.01562.734376q.53126-.84375 1.51563-.84375.3125 0 .48437.078124zm2.70313 2.4375-.6875.703126v2.234374h-1.07813v-9h1.07813v5.4375l.57813-.6875 1.98437-2.09375h1.3125l-2.46875 2.65625 2.76562 3.6875h-1.28124zm5.40625 2.9375h-1.07812v-6.34375h1.07812zm-1.17188-8.015624q0-.265626.15626-.453126.17187-.1875.48437-.1875.3125 0 .46875.1875.17188.1875.17188.453126 0 .25-.17188.4375-.15625.171874-.46875.171874-.3125 0-.48437-.171874-.15626-.1875-.15626-.4375zm4.01563 1.671874.03125.796876q.73438-.90625 1.90625-.90625 2.01563 0 2.03125 2.265624v4.1875h-1.09375v-4.203124q0-.671876-.3125-1-.29687-.328126-.95313-.328126-.53124 0-.9375.28125-.39062.28125-.60937.734376v4.515624h-1.07813v-6.34375zm5.71875 3.125q0-1.484374.6875-2.359374.6875-.875 1.8125-.875 1.15625 0 1.8125.8125l.04688-.703126h1v6.1875q0 1.234376-.73438 1.9375-.73438.71875-1.95312.71875-.6875 0-1.34376-.296874-.65624-.296876-1-.796876l.5625-.65625q.6875.859376 1.70313.859376.78125 0 1.21875-.453126.45312-.4375.45312-1.25v-.546874q-.65624.765624-1.78124.765624-1.10938 0-1.79688-.890624-.6875-.90625-.6875-2.453126zm1.09375.125q0 1.0625.4375 1.6875.4375.609376 1.23437.609376 1.01563 0 1.5-.9375v-2.890626q-.5-.90625-1.5-.90625-.78124 0-1.23437.609376-.4375.609374-.4375 1.828124zm11.42187-.09375h-2.85937v-.875h2.85937zm6.42188-.609374q-1.4375-.421876-2.10938-1.03125-.65624-.609376-.65624-1.5 0-1 .79687-1.65625.8125-.671876 2.10937-.671876.875 0 1.5625.34375.6875.34375 1.0625.9375.39063.59375.39063 1.3125h-1.14063q0-.78125-.5-1.21875-.48437-.4375-1.375-.4375-.82812 0-1.29687.375-.46875.359376-.46875 1 0 .53125.4375.890626.45312.359374 1.51562.65625 1.0625.296874 1.65626.65625.60937.359374.89062.84375.29688.484374.29688 1.125 0 1.046874-.8125 1.671874-.8125.625-2.15626.625-.89062 0-1.65624-.34375-.75-.34375-1.17188-.921874-.40625-.59375-.40625-1.328126h1.125q0 .765626.57813 1.21875.57812.453126 1.53124.453126.89063 0 1.35938-.359376.46875-.375.46875-1 0-.625-.4375-.96875-.4375-.34375-1.59375-.671874zm8.23438 3.171874q-.625.75-1.85938.75-1.01562 0-1.54688-.59375-.53124-.59375-.53124-1.75v-4.125h1.07812v4.09375q0 1.453126 1.17188 1.453126 1.25 0 1.65624-.9375v-4.609376h1.09376v6.34375h-1.03126zm4.10937-5.71875.03125.703126q.6875-.8125 1.875-.8125 1.32812 0 1.8125 1.015624.3125-.453124.8125-.734374.51562-.28125 1.20312-.28125 2.09376 0 2.125 2.203124v4.25h-1.07812v-4.1875q0-.671874-.3125-1-.3125-.34375-1.04688-.34375-.60937 0-1.01562.359376-.39062.359374-.45312.96875v4.203124h-1.07813v-4.15625q0-1.375-1.35937-1.375-1.0625 0-1.45313.90625v4.625h-1.09375v-6.34375z" fill="#757575"/><path d="m27.8125 63.5h-1.328125l-5.015625-7.671875v7.671875h-1.3125v-9.953125h1.3125l5.03125 7.703125v-7.703125h1.3125zm1.8125-3.765625q0-1.09375.421875-1.953125.4375-.875 1.1875-1.34375.765625-.46875 1.75-.46875 1.5 0 2.4375 1.046875.9375 1.046875.9375 2.78125v.09375q0 1.078125-.421875 1.9375-.40625.84375-1.1875 1.328125-.765625.484375-1.75.484375-1.515625 0-2.453125-1.046875-.921875-1.046875-.921875-2.765625zm1.265625.15625q0 1.21875.5625 1.96875.578125.75 1.546875.75.953125 0 1.515625-.75.578125-.765625.578125-2.125 0-1.21875-.578125-1.96875-.578125-.765625-1.53125-.765625-.9375 0-1.515625.75-.578125.75-.578125 2.140625zm9.703125-.109375h-3.34375v-1.03125h3.34375zm2.734375 3.71875h-1.265625v-7.390625h1.265625zm-1.359375-9.359375q0-.3125.1875-.515625.1875-.21875.546875-.21875.375 0 .5625.21875.203125.203125.203125.515625 0 .3125-.203125.515625-.1875.203125-.5625.203125-.359375 0-.546875-.203125-.1875-.203125-.1875-.515625zm4.1875 1.96875.03125.921875q.859375-1.0625 2.21875-1.0625 2.34375 0 2.375 2.640625v4.890625h-1.265625v-4.890625q-.015625-.796875-.375-1.171875-.359375-.390625-1.109375-.390625-.625 0-1.09375.328125-.453125.328125-.71875.859375v5.265625h-1.265625v-7.390625zm9.234375 5.671875 1.84375-5.671875h1.28125l-2.640625 7.390625h-.96875l-2.6875-7.390625h1.296875zm7.640625 1.859375q-1.515625 0-2.453125-.984375-.9375-1-.9375-2.65625v-.21875q0-1.109375.421875-1.96875.421875-.875 1.171875-1.359375.75-.484375 1.640625-.484375 1.4375 0 2.234375.953125.796875.9375.796875 2.71875v.515625h-5q.015625 1.09375.625 1.78125.625.671875 1.5625.671875.671875 0 1.125-.265625.46875-.28125.828125-.734375l.765625.59375q-.921875 1.4375-2.78125 1.4375zm-.15625-6.640625q-.765625 0-1.296875.5625-.515625.5625-.640625 1.5625h3.703125v-.09375q-.046875-.96875-.515625-1.5-.46875-.53125-1.25-.53125zm8.390625 4.53125q0-.5-.390625-.78125-.390625-.296875-1.34375-.5-.953125-.203125-1.53125-.484375-.5625-.296875-.828125-.6875-.265625-.390625-.265625-.9375 0-.921875.765625-1.546875.765625-.625 1.96875-.625 1.25 0 2.03125.65625.78125.640625.78125 1.65625h-1.265625q0-.53125-.4375-.90625-.4375-.375-1.109375-.375-.6875 0-1.078125.3125-.390625.296875-.390625.78125 0 .453125.359375.6875.359375.234375 1.296875.453125.953125.203125 1.546875.5.59375.296875.875.71875.28125.40625.28125 1 0 .984375-.796875 1.59375-.796875.59375-2.0625.59375-.875 0-1.5625-.3125-.6875-.328125-1.078125-.890625-.375-.5625-.375-1.21875h1.265625q.03125.640625.5 1.015625.484375.375 1.25.375.71875 0 1.15625-.296875.4375-.296875.4375-.78125zm4.40625-7.21875v1.796875h1.375v.96875h-1.375v4.59375q0 .4375.1875.671875.1875.21875.625.21875.21875 0 .609375-.09375v1.03125q-.5.140625-.96875.140625-.859375 0-1.296875-.515625-.421875-.515625-.421875-1.453125v-4.59375h-1.34375v-.96875h1.34375v-1.796875zm4.65625 9.1875h-1.265625v-7.390625h1.265625zm-1.359375-9.359375q0-.3125.1875-.515625.1875-.21875.546875-.21875.375 0 .5625.21875.203125.203125.203125.515625 0 .3125-.203125.515625-.1875.203125-.5625.203125-.359375 0-.546875-.203125-.1875-.203125-.1875-.515625zm4.1875 1.96875.03125.921875q.859375-1.0625 2.21875-1.0625 2.34375 0 2.375 2.640625v4.890625h-1.265625v-4.890625q-.015625-.796875-.375-1.171875-.359375-.390625-1.109375-.390625-.625 0-1.09375.328125-.453125.328125-.71875.859375v5.265625h-1.265625v-7.390625zm6.5 3.625q0-1.71875.796875-2.734375.796875-1.03125 2.125-1.03125 1.34375 0 2.109375.953125l.0625-.8125h1.15625v7.21875q0 1.4375-.859375 2.25-.84375.828125-2.28125.828125-.796875 0-1.5625-.34375-.765625-.328125-1.171875-.921875l.65625-.765625q.8125 1 1.984375 1 .921875 0 1.4375-.515625.53125-.515625.53125-1.46875v-.625q-.765625.875-2.078125.875-1.296875 0-2.109375-1.046875-.796875-1.046875-.796875-2.859375zm1.265625.15625q0 1.25.515625 1.96875.515625.703125 1.4375.703125 1.203125 0 1.765625-1.09375v-3.375q-.59375-1.046875-1.75-1.046875-.921875 0-1.453125.71875-.515625.703125-.515625 2.125zm7 5.59375-.71875-.5q.640625-.890625.671875-1.84375v-1.140625h1.234375v1q0 .6875-.34375 1.375-.34375.6875-.84375 1.109375zm7.234375-9.375.03125.921875q.859375-1.0625 2.21875-1.0625 2.34375 0 2.375 2.640625v4.890625h-1.265625v-4.890625q-.015625-.796875-.375-1.171875-.359375-.390625-1.109375-.390625-.625 0-1.09375.328125-.453125.328125-.71875.859375v5.265625h-1.265625v-7.390625zm6.46875 3.625q0-1.09375.421875-1.953125.4375-.875 1.1875-1.34375.765625-.46875 1.75-.46875 1.5 0 2.4375 1.046875.9375 1.046875.9375 2.78125v.09375q0 1.078125-.421875 1.9375-.40625.84375-1.1875 1.328125-.765625.484375-1.75.484375-1.515625 0-2.453125-1.046875-.921875-1.046875-.921875-2.765625zm1.265625.15625q0 1.21875.5625 1.96875.578125.75 1.546875.75.953125 0 1.515625-.75.578125-.765625.578125-2.125 0-1.21875-.578125-1.96875-.578125-.765625-1.53125-.765625-.9375 0-1.515625.75-.578125.75-.578125 2.140625zm9.703125-.109375h-3.34375v-1.03125h3.34375zm4.4375 3.859375q-1.515625 0-2.453125-.984375-.9375-1-.9375-2.65625v-.21875q0-1.109375.421875-1.96875.421875-.875 1.171875-1.359375.75-.484375 1.640625-.484375 1.4375 0 2.23438.953125.79687.9375.79687 2.71875v.515625h-5q.015625 1.09375.625 1.78125.625.671875 1.5625.671875.671875 0 1.125-.265625.46875-.28125.82813-.734375l.76562.59375q-.92188 1.4375-2.78125 1.4375zm-.15625-6.640625q-.765625 0-1.296875.5625-.515625.5625-.640625 1.5625h3.70312v-.09375q-.04687-.96875-.51562-1.5-.46875-.53125-1.25-.53125zm6.5625 1.796875 1.64062-2.6875h1.48438l-2.42188 3.65625 2.48438 3.734375h-1.45312l-1.71876-2.765625-1.70312 2.765625h-1.46875l2.5-3.734375-2.42187-3.65625h1.45312zm10.76562 1.09375q0 1.6875-.78124 2.71875-.76563 1.03125-2.07813 1.03125-1.34375 0-2.125-.859375v3.5625h-1.26563v-10.234375h1.15626l.0625.8125q.78124-.953125 2.15624-.953125 1.32813 0 2.09376 1 .78124 1 .78124 2.796875zm-1.26562-.15625q0-1.25-.53125-1.96875-.53125-.71875-1.46875-.71875-1.14062 0-1.71875 1.015625v3.53125q.57813 1.015625 1.73437 1.015625.92188 0 1.45313-.71875.53125-.734375.53125-2.15625zm6.09375 3.90625q-1.51563 0-2.45313-.984375-.9375-1-.9375-2.65625v-.21875q0-1.109375.42188-1.96875.42188-.875 1.17188-1.359375.75-.484375 1.64062-.484375 1.4375 0 2.23438.953125.79687.9375.79687 2.71875v.515625h-5q.01563 1.09375.625 1.78125.625.671875 1.5625.671875.67187 0 1.125-.265625.46875-.28125.82813-.734375l.76562.59375q-.92188 1.4375-2.78125 1.4375zm-.15625-6.640625q-.76562 0-1.29688.5625-.51562.5625-.64062 1.5625h3.70312v-.09375q-.04687-.96875-.51562-1.5-.46875-.53125-1.25-.53125zm5.28125-.890625.03125.921875q.85938-1.0625 2.21875-1.0625 2.34375 0 2.375 2.640625v4.890625h-1.26563v-4.890625q-.01562-.796875-.375-1.171875-.35937-.390625-1.10937-.390625-.625 0-1.09375.328125-.45312.328125-.71875.859375v5.265625h-1.26563v-7.390625zm11.10937 5.421875q0-.5-.39062-.78125-.39062-.296875-1.34375-.5-.95313-.203125-1.53125-.484375-.5625-.296875-.82812-.6875-.26563-.390625-.26563-.9375 0-.921875.76563-1.546875.76562-.625 1.96874-.625 1.25 0 2.03126.65625.78124.640625.78124 1.65625h-1.26562q0-.53125-.4375-.90625-.4375-.375-1.10938-.375-.6875 0-1.07812.3125-.39062.296875-.39062.78125 0 .453125.35937.6875.35937.234375 1.29687.453125.95313.203125 1.54688.5.59375.296875.875.71875.28125.40625.28125 1 0 .984375-.79687 1.59375-.79688.59375-2.0625.59375-.875 0-1.5625-.3125-.6875-.328125-1.07813-.890625-.375-.5625-.375-1.21875h1.26563q.03124.640625.5 1.015625.48437.375 1.25.375.71874 0 1.15624-.296875.4375-.296875.4375-.78125zm5.76563 2.109375q-1.51563 0-2.45313-.984375-.9375-1-.9375-2.65625v-.21875q0-1.109375.42188-1.96875.42188-.875 1.17188-1.359375.75-.484375 1.64062-.484375 1.4375 0 2.23438.953125.79687.9375.79687 2.71875v.515625h-5q.01563 1.09375.625 1.78125.625.671875 1.5625.671875.67187 0 1.125-.265625.46875-.28125.82813-.734375l.76562.59375q-.92188 1.4375-2.78125 1.4375zm-.15625-6.640625q-.76562 0-1.29688.5625-.51562.5625-.64062 1.5625h3.70312v-.09375q-.04687-.96875-.51562-1.5-.46875-.53125-1.25-.53125zm8.39062 4.53125q0-.5-.39062-.78125-.39062-.296875-1.34375-.5-.95313-.203125-1.53125-.484375-.5625-.296875-.82812-.6875-.26563-.390625-.26563-.9375 0-.921875.76563-1.546875.76562-.625 1.96874-.625 1.25 0 2.03126.65625.78124.640625.78124 1.65625h-1.26562q0-.53125-.4375-.90625-.4375-.375-1.10938-.375-.6875 0-1.07812.3125-.39062.296875-.39062.78125 0 .453125.35937.6875.35937.234375 1.29687.453125.95313.203125 1.54688.5.59375.296875.875.71875.28125.40625.28125 1 0 .984375-.79687 1.59375-.79688.59375-2.0625.59375-.875 0-1.5625-.3125-.6875-.328125-1.07813-.890625-.375-.5625-.375-1.21875h1.26563q.03124.640625.5 1.015625.48437.375 1.25.375.71874 0 1.15624-.296875.4375-.296875.4375-.78125zm2.71876 1.3125q0-.328125.1875-.546875.20312-.21875.59374-.21875.39063 0 .59376.21875.20312.21875.20312.546875 0 .3125-.20312.53125-.20313.203125-.59376.203125-.39062 0-.59374-.203125-.1875-.21875-.1875-.53125z" fill="#bdbdbd"/><path d="m23.078125 23.78125 4.640625 11.59375 4.65625-11.59375h2.421875v14.21875h-1.875v-5.53125l.1875-5.984375-4.671875 11.515625h-1.4375l-4.65625-11.484375.1875 5.953125v5.53125h-1.875v-14.21875zm13.8125 8.84375q0-1.5625.609375-2.796875.609375-1.25 1.6875-1.921875 1.09375-.671875 2.5-.671875 2.15625 0 3.484375 1.5 1.34375 1.484375 1.34375 3.96875v.125q0 1.546875-.59375 2.78125-.59375 1.21875-1.703125 1.90625-1.09375.6875-2.515625.6875-2.140625 0-3.484375-1.5-1.328125-1.5-1.328125-3.953125zm1.8125.203125q0 1.765625.8125 2.828125.828125 1.0625 2.1875 1.0625 1.375 0 2.1875-1.078125.8125-1.078125.8125-3.015625 0-1.75-.828125-2.828125-.828125-1.078125-2.1875-1.078125-1.34375 0-2.171875 1.0625-.8125 1.0625-.8125 3.046875zm11.375-5.390625.0625 1.328125q1.203125-1.53125 3.15625-1.53125 3.359375 0 3.375 3.78125v6.984375h-1.796875v-7q-.015625-1.140625-.53125-1.6875-.5-.546875-1.59375-.546875-.875 0-1.546875.46875-.65625.46875-1.03125 1.234375v7.53125h-1.796875v-10.5625zm13.671875 10.765625q-2.140625 0-3.5-1.40625-1.34375-1.421875-1.34375-3.78125v-.34375q0-1.5625.59375-2.796875.609375-1.234375 1.6875-1.9375 1.078125-.703125 2.34375-.703125 2.0625 0 3.203125 1.359375 1.140625 1.359375 1.140625 3.890625v.75h-7.15625q.03125 1.5625.90625 2.53125.875.953125 2.21875.953125.96875 0 1.625-.390625.671875-.390625 1.171875-1.03125l1.09375.859375q-1.328125 2.046875-3.984375 2.046875zm-.21875-9.484375q-1.09375 0-1.84375.796875-.734375.796875-.90625 2.234375h5.28125v-.140625q-.078125-1.375-.75-2.125-.65625-.765625-1.78125-.765625zm10.296875 6.640625 2.453125-7.921875h1.9375l-4.25 12.1875q-.984375 2.640625-3.125 2.640625l-.34375-.03125-.671875-.125v-1.46875l.484375.046875q.921875 0 1.421875-.375.515625-.375.84375-1.359375l.40625-1.078125-3.765625-10.4375h1.96875zm12.5 2.640625h-1.796875v-10.5625h1.796875zm-1.953125-13.375q0-.4375.265625-.734375.28125-.3125.796875-.3125.53125 0 .796875.3125.28125.296875.28125.734375 0 .4375-.28125.734375-.265625.296875-.796875.296875-.515625 0-.796875-.296875-.265625-.296875-.265625-.734375zm6.703125 2.8125.0625 1.328125q1.203125-1.53125 3.15625-1.53125 3.359375 0 3.375 3.78125v6.984375h-1.796875v-7q-.015625-1.140625-.53125-1.6875-.5-.546875-1.59375-.546875-.875 0-1.546875.46875-.65625.46875-1.03125 1.234375v7.53125h-1.796875v-10.5625zm13.53125 9.28125q.96875 0 1.6875-.578125.71875-.59375.796875-1.46875h1.71875q-.0625.90625-.640625 1.734375-.5625.8125-1.53125 1.3125-.953125.484375-2.03125.484375-2.15625 0-3.4375-1.4375-1.265625-1.453125-1.265625-3.953125v-.296875q0-1.546875.5625-2.75.5625-1.203125 1.625-1.859375 1.0625-.671875 2.5-.671875 1.78125 0 2.953125 1.0625 1.1875 1.0625 1.265625 2.765625h-1.71875q-.078125-1.015625-.78125-1.671875-.6875-.671875-1.71875-.671875-1.375 0-2.140625 1-.75.984375-.75 2.859375v.34375q0 1.828125.75 2.8125.75.984375 2.15625.984375zm5.28125-4.09375q0-1.5625.609375-2.796875.609375-1.25 1.6875-1.921875 1.09375-.671875 2.5-.671875 2.15625 0 3.484375 1.5 1.34375 1.484375 1.34375 3.96875v.125q0 1.546875-.59375 2.78125-.59375 1.21875-1.703125 1.90625-1.09375.6875-2.515625.6875-2.140625 0-3.484375-1.5-1.328125-1.5-1.328125-3.953125zm1.8125.203125q0 1.765625.8125 2.828125.828125 1.0625 2.1875 1.0625 1.375 0 2.1875-1.078125.8125-1.078125.8125-3.015625 0-1.75-.828125-2.828125-.828125-1.078125-2.1875-1.078125-1.34375 0-2.171875 1.0625-.8125 1.0625-.8125 3.046875zm11.359375-5.390625.046875 1.171875q1.171875-1.375 3.140625-1.375 2.21875 0 3.01562 1.703125.53126-.765625 1.375-1.234375.84376-.46875 2-.46875 3.46876 0 3.53126 3.6875v7.078125h-1.8125v-6.96875q0-1.140625-.51563-1.703125-.51563-.5625-1.73437-.5625-1 0-1.67188.609375-.65625.59375-.76562 1.609375v7.015625h-1.812505v-6.921875q0-2.3125-2.265625-2.3125-1.78125 0-2.421875 1.515625v7.71875h-1.8125v-10.5625zm20.6875 10.765625q-2.14062 0-3.5-1.40625-1.34375-1.421875-1.34375-3.78125v-.34375q0-1.5625.59375-2.796875.60938-1.234375 1.6875-1.9375 1.07812-.703125 2.34375-.703125 2.0625 0 3.20313 1.359375 1.14062 1.359375 1.14062 3.890625v.75h-7.15625q.03125 1.5625.90625 2.53125.875.953125 2.21875.953125.96875 0 1.625-.390625.67187-.390625 1.17187-1.03125l1.09376.859375q-1.32813 2.046875-3.98438 2.046875zm-.21875-9.484375q-1.09375 0-1.84375.796875-.73438.796875-.90625 2.234375h5.28125v-.140625q-.07812-1.375-.75-2.125-.65625-.765625-1.78125-.765625zm16.07813 8q.96874 0 1.6875-.578125.71874-.59375.79687-1.46875h1.71875q-.0625.90625-.64062 1.734375-.5625.8125-1.53126 1.3125-.95312.484375-2.03124.484375-2.15626 0-3.4375-1.4375-1.26563-1.453125-1.26563-3.953125v-.296875q0-1.546875.5625-2.75.5625-1.203125 1.625-1.859375 1.0625-.671875 2.5-.671875 1.78125 0 2.95313 1.0625 1.1875 1.0625 1.26562 2.765625h-1.71875q-.07813-1.015625-.78125-1.671875-.6875-.671875-1.71875-.671875-1.375 0-2.14063 1-.75.984375-.75 2.859375v.34375q0 1.828125.75 2.8125.75.984375 2.15626.984375zm5.28124-4.09375q0-1.5625.60938-2.796875.60938-1.25 1.6875-1.921875 1.09375-.671875 2.5-.671875 2.15625 0 3.48438 1.5 1.34374 1.484375 1.34374 3.96875v.125q0 1.546875-.59374 2.78125-.59376 1.21875-1.70313 1.90625-1.09375.6875-2.51563.6875-2.14062 0-3.48437-1.5-1.32813-1.5-1.32813-3.953125zm1.8125.203125q0 1.765625.8125 2.828125.82813 1.0625 2.1875 1.0625 1.375 0 2.1875-1.078125.8125-1.078125.8125-3.015625 0-1.75-.82812-2.828125-.82812-1.078125-2.1875-1.078125-1.34375 0-2.17188 1.0625-.8125 1.0625-.8125 3.046875zm11.35938-5.390625.04688 1.171875q1.17187-1.375 3.14062-1.375 2.21875 0 3.01562 1.703125.53126-.765625 1.375-1.234375.84376-.46875 2-.46875 3.46876 0 3.53126 3.6875v7.078125h-1.8125v-6.96875q0-1.140625-.51563-1.703125-.51563-.5625-1.73437-.5625-1 0-1.67188.609375-.65625.59375-.76562 1.609375v7.015625h-1.8125v-6.921875q0-2.3125-2.26563-2.3125-1.78125 0-2.42187 1.515625v7.71875h-1.8125v-10.5625zm25.23438 5.390625q0 2.421875-1.10938 3.90625-1.09375 1.46875-2.98438 1.46875-1.92187 0-3.03124-1.234375v5.09375h-1.79688v-14.625h1.64062l.09376 1.171875q1.09374-1.375 3.0625-1.375 1.90624 0 3.01562 1.4375 1.10938 1.4375 1.10938 4zm-1.8125-.203125q0-1.78125-.76563-2.8125-.75-1.046875-2.07813-1.046875-1.64062 0-2.46874 1.453125v5.0625q.8125 1.4375 2.48437 1.4375 1.29687 0 2.0625-1.03125.76563-1.03125.76563-3.0625zm10.40624 5.375q-.15624-.3125-.25-1.109375-1.26562 1.3125-3.01562 1.3125-1.5625 0-2.5625-.890625-1-.890625-1-2.25 0-1.640625 1.25-2.546875 1.26562-.921875 3.53125-.921875h1.76563v-.828125q0-.953125-.57813-1.515625-.5625-.5625-1.65625-.5625-.96875 0-1.625.5-.65625.484375-.65625 1.171875h-1.8125q0-.78125.5625-1.515625.5625-.75 1.51563-1.171875.96874-.4375 2.125-.4375 1.82812 0 2.85937.921875 1.03125.90625 1.07813 2.515625v4.859375q0 1.453125.35937 2.3125v.15625zm-3-1.375q.85938 0 1.60938-.4375.76562-.4375 1.10938-1.140625v-2.171875h-1.42188q-3.3125 0-3.3125 1.9375 0 .859375.5625 1.34375.5625.46875 1.45312.46875zm12.57813-7.578125q-.40625-.0625-.875-.0625-1.78125 0-2.42187 1.515625v7.5h-1.79688v-10.5625h1.75l.03125 1.21875q.89063-1.421875 2.51563-1.421875.53124 0 .79687.140625zm3.85937 8.953125h-1.79687v-10.5625h1.79687zm-1.95312-13.375q0-.4375.26562-.734375.28126-.3125.79688-.3125.53125 0 .79688.3125.28124.296875.28124.734375 0 .4375-.28124.734375-.26563.296875-.79688.296875-.51562 0-.79688-.296875-.26562-.296875-.26562-.734375zm11.14062 10.578125q0-.734375-.54687-1.140625-.54687-.40625-1.92187-.703125-1.375-.296875-2.1875-.703125-.79688-.40625-1.1875-.96875-.375-.578125-.375-1.359375 0-1.296875 1.09374-2.1875 1.09376-.90625 2.8125-.90625 1.79688 0 2.90626.9375 1.125.921875 1.125 2.359375h-1.82813q0-.734375-.625-1.265625-.625-.546875-1.57813-.546875-1 0-1.5625.4375-.54687.421875-.54687 1.125 0 .640625.51563.984375.51562.328125 1.875.640625 1.35937.296875 2.1875.71875.84374.40625 1.25 1 .40624.59375.40624 1.4375 0 1.421875-1.14062 2.28125-1.125.859375-2.9375.859375-1.26562 0-2.25-.453125-.96875-.453125-1.53125-1.25-.54687-.8125-.54687-1.75h1.8125q.04687.90625.71874 1.4375.6875.53125 1.79688.53125 1.03125 0 1.64062-.40625.625-.421875.625-1.109375zm3.375-2.578125q0-1.5625.60938-2.796875.60938-1.25 1.6875-1.921875 1.09375-.671875 2.5-.671875 2.15625 0 3.48438 1.5 1.34374 1.484375 1.34374 3.96875v.125q0 1.546875-.59374 2.78125-.59376 1.21875-1.70313 1.90625-1.09375.6875-2.51563.6875-2.14062 0-3.48437-1.5-1.32813-1.5-1.32813-3.953125zm1.8125.203125q0 1.765625.8125 2.828125.82813 1.0625 2.1875 1.0625 1.375 0 2.1875-1.078125.8125-1.078125.8125-3.015625 0-1.75-.82812-2.828125-.82812-1.078125-2.1875-1.078125-1.34375 0-2.17188 1.0625-.8125 1.0625-.8125 3.046875zm11.375-5.390625.0625 1.328125q1.20313-1.53125 3.15626-1.53125 3.35937 0 3.375 3.78125v6.984375h-1.79688v-7q-.01562-1.140625-.53125-1.6875-.5-.546875-1.59375-.546875-.875 0-1.54688.46875-.65624.46875-1.03124 1.234375v7.53125h-1.79688v-10.5625zm9.23438 13.390625-1.03125-.703125q.92187-1.28125.95313-2.640625v-1.625h1.78124v1.421875q0 .984375-.48437 1.96875-.48437.984375-1.21875 1.578125zm13.29688-4.109375q.96874 0 1.6875-.578125.71874-.59375.79687-1.46875h1.71875q-.0625.90625-.64062 1.734375-.5625.8125-1.53126 1.3125-.95312.484375-2.03124.484375-2.15626 0-3.4375-1.4375-1.26563-1.453125-1.26563-3.953125v-.296875q0-1.546875.5625-2.75.5625-1.203125 1.625-1.859375 1.0625-.671875 2.5-.671875 1.78125 0 2.95313 1.0625 1.1875 1.0625 1.26562 2.765625h-1.71875q-.07813-1.015625-.78125-1.671875-.6875-.671875-1.71875-.671875-1.375 0-2.14063 1-.75.984375-.75 2.859375v.34375q0 1.828125.75 2.8125.75.984375 2.15626.984375zm5.28124-4.09375q0-1.5625.60938-2.796875.60938-1.25 1.6875-1.921875 1.09375-.671875 2.5-.671875 2.15625 0 3.48438 1.5 1.34374 1.484375 1.34374 3.96875v.125q0 1.546875-.59374 2.78125-.59376 1.21875-1.70313 1.90625-1.09375.6875-2.51563.6875-2.14062 0-3.48437-1.5-1.32813-1.5-1.32813-3.953125zm1.8125.203125q0 1.765625.8125 2.828125.82813 1.0625 2.1875 1.0625 1.375 0 2.1875-1.078125.8125-1.078125.8125-3.015625 0-1.75-.82812-2.828125-.82812-1.078125-2.1875-1.078125-1.34375 0-2.17188 1.0625-.8125 1.0625-.8125 3.046875zm11.625 5.171875h-1.79687v-15h1.79687zm5 0h-1.79687v-15h1.79687zm7.42188.203125q-2.14062 0-3.5-1.40625-1.34375-1.421875-1.34375-3.78125v-.34375q0-1.5625.59375-2.796875.60938-1.234375 1.6875-1.9375 1.07812-.703125 2.34375-.703125 2.0625 0 3.20313 1.359375 1.14062 1.359375 1.14062 3.890625v.75h-7.15625q.03125 1.5625.90625 2.53125.875.953125 2.21875.953125.96875 0 1.625-.390625.67187-.390625 1.17187-1.03125l1.09376.859375q-1.32813 2.046875-3.98438 2.046875zm-.21875-9.484375q-1.09375 0-1.84375.796875-.73438.796875-.90625 2.234375h5.28125v-.140625q-.07812-1.375-.75-2.125-.65625-.765625-1.78125-.765625zm6.40625 3.90625q0-2.46875 1.14062-3.921875 1.14063-1.46875 3.03126-1.46875 1.9375 0 3.01562 1.375l.09375-1.171875h1.64063v10.3125q0 2.046875-1.21876 3.21875-1.20312 1.1875-3.26562 1.1875-1.14062 0-2.23438-.484375-1.09374-.484375-1.67187-1.34375l.9375-1.078125q1.17187 1.4375 2.84375 1.4375 1.32812 0 2.0625-.75.73438-.734375.73438-2.078125v-.921875q-1.07813 1.265625-2.95313 1.265625-1.85937 0-3.01563-1.5-1.14062-1.5-1.14062-4.078125zm1.8125.203125q0 1.796875.73438 2.8125.73437 1.015625 2.04687 1.015625 1.71875 0 2.51563-1.546875v-4.828125q-.82813-1.515625-2.48438-1.515625-1.32812 0-2.07812 1.03125-.73438 1.03125-.73438 3.03125zm14 5.375q-2.14062 0-3.5-1.40625-1.34375-1.421875-1.34375-3.78125v-.34375q0-1.5625.59375-2.796875.60938-1.234375 1.6875-1.9375 1.07812-.703125 2.34375-.703125 2.0625 0 3.20313 1.359375 1.14062 1.359375 1.14062 3.890625v.75h-7.15625q.03125 1.5625.90625 2.53125.875.953125 2.21875.953125.96875 0 1.625-.390625.67187-.390625 1.17187-1.03125l1.09376.859375q-1.32813 2.046875-3.98438 2.046875zm-.21875-9.484375q-1.09375 0-1.84375.796875-.73438.796875-.90625 2.234375h5.28125v-.140625q-.07812-1.375-.75-2.125-.65625-.765625-1.78125-.765625zm15.32813 6.828125 2.60937-8.109375h1.84375l-3.78125 10.5625h-1.375l-3.82813-10.5625h1.84376zm12.65624-.34375q0-.734375-.54687-1.140625-.54687-.40625-1.92187-.703125-1.375-.296875-2.1875-.703125-.79688-.40625-1.1875-.96875-.375-.578125-.375-1.359375 0-1.296875 1.09374-2.1875 1.09376-.90625 2.8125-.90625 1.79688 0 2.90626.9375 1.125.921875 1.125 2.359375h-1.82813q0-.734375-.625-1.265625-.625-.546875-1.57813-.546875-1 0-1.5625.4375-.54687.421875-.54687 1.125 0 .640625.51563.984375.51562.328125 1.875.640625 1.35937.296875 2.1875.71875.84374.40625 1.25 1 .40624.59375.40624 1.4375 0 1.421875-1.14062 2.28125-1.125.859375-2.9375.859375-1.26562 0-2.25-.453125-.96875-.453125-1.53125-1.25-.54687-.8125-.54687-1.75h1.8125q.04687.90625.71874 1.4375.6875.53125 1.79688.53125 1.03125 0 1.64062-.40625.625-.421875.625-1.109375zm10.5625-7.765625.0625 1.328125q1.20313-1.53125 3.15626-1.53125 3.35937 0 3.375 3.78125v6.984375h-1.79688v-7q-.01562-1.140625-.53125-1.6875-.5-.546875-1.59375-.546875-.875 0-1.54688.46875-.65624.46875-1.03124 1.234375v7.53125h-1.79688v-10.5625zm8.8125 5.1875q0-1.5625.60938-2.796875.60938-1.25 1.6875-1.921875 1.09375-.671875 2.5-.671875 2.15625 0 3.48438 1.5 1.34374 1.484375 1.34374 3.96875v.125q0 1.546875-.59374 2.78125-.59376 1.21875-1.70313 1.90625-1.09375.6875-2.51563.6875-2.14062 0-3.48437-1.5-1.32813-1.5-1.32813-3.953125zm1.8125.203125q0 1.765625.8125 2.828125.82813 1.0625 2.1875 1.0625 1.375 0 2.1875-1.078125.8125-1.078125.8125-3.015625 0-1.75-.82812-2.828125-.82812-1.078125-2.1875-1.078125-1.34375 0-2.17188 1.0625-.8125 1.0625-.8125 3.046875zm11.375-5.390625.0625 1.328125q1.20313-1.53125 3.15626-1.53125 3.35937 0 3.375 3.78125v6.984375h-1.79688v-7q-.01562-1.140625-.53125-1.6875-.5-.546875-1.59375-.546875-.875 0-1.54688.46875-.65624.46875-1.03124 1.234375v7.53125h-1.79688v-10.5625zm13.04688 5.265625h-4.76562v-1.484375h4.76562zm6.48438 4.015625q.96874 0 1.6875-.578125.71874-.59375.79687-1.46875h1.71875q-.0625.90625-.64062 1.734375-.5625.8125-1.53126 1.3125-.95312.484375-2.03124.484375-2.15626 0-3.4375-1.4375-1.26563-1.453125-1.26563-3.953125v-.296875q0-1.546875.5625-2.75.5625-1.203125 1.625-1.859375 1.0625-.671875 2.5-.671875 1.78125 0 2.95313 1.0625 1.1875 1.0625 1.26562 2.765625h-1.71875q-.07813-1.015625-.78125-1.671875-.6875-.671875-1.71875-.671875-1.375 0-2.14063 1-.75.984375-.75 2.859375v.34375q0 1.828125.75 2.8125.75.984375 2.15626.984375zm5.28124-4.09375q0-1.5625.60938-2.796875.60938-1.25 1.6875-1.921875 1.09375-.671875 2.5-.671875 2.15625 0 3.48438 1.5 1.34374 1.484375 1.34374 3.96875v.125q0 1.546875-.59374 2.78125-.59376 1.21875-1.70313 1.90625-1.09375.6875-2.51563.6875-2.14062 0-3.48437-1.5-1.32813-1.5-1.32813-3.953125zm1.8125.203125q0 1.765625.8125 2.828125.82813 1.0625 2.1875 1.0625 1.375 0 2.1875-1.078125.8125-1.078125.8125-3.015625 0-1.75-.82812-2.828125-.82812-1.078125-2.1875-1.078125-1.34375 0-2.17188 1.0625-.8125 1.0625-.8125 3.046875zm11.625 5.171875h-1.79687v-15h1.79687zm5 0h-1.79687v-15h1.79687zm7.42188.203125q-2.14062 0-3.5-1.40625-1.34375-1.421875-1.34375-3.78125v-.34375q0-1.5625.59375-2.796875.60938-1.234375 1.6875-1.9375 1.07812-.703125 2.34375-.703125 2.0625 0 3.20313 1.359375 1.14062 1.359375 1.14062 3.890625v.75h-7.15625q.03125 1.5625.90625 2.53125.875.953125 2.21875.953125.96875 0 1.625-.390625.67187-.390625 1.17187-1.03125l1.09376.859375q-1.32813 2.046875-3.98438 2.046875zm-.21875-9.484375q-1.09375 0-1.84375.796875-.73438.796875-.90625 2.234375h5.28125v-.140625q-.07812-1.375-.75-2.125-.65625-.765625-1.78125-.765625zm6.40625 3.90625q0-2.46875 1.14062-3.921875 1.14063-1.46875 3.03126-1.46875 1.9375 0 3.01562 1.375l.09375-1.171875h1.64063v10.3125q0 2.046875-1.21876 3.21875-1.20312 1.1875-3.26562 1.1875-1.14062 0-2.23438-.484375-1.09374-.484375-1.67187-1.34375l.9375-1.078125q1.17187 1.4375 2.84375 1.4375 1.32812 0 2.0625-.75.73438-.734375.73438-2.078125v-.921875q-1.07813 1.265625-2.95313 1.265625-1.85937 0-3.01563-1.5-1.14062-1.5-1.14062-4.078125zm1.8125.203125q0 1.796875.73438 2.8125.73437 1.015625 2.04687 1.015625 1.71875 0 2.51563-1.546875v-4.828125q-.82813-1.515625-2.48438-1.515625-1.32812 0-2.07812 1.03125-.73438 1.03125-.73438 3.03125zm14 5.375q-2.14062 0-3.5-1.40625-1.34375-1.421875-1.34375-3.78125v-.34375q0-1.5625.59375-2.796875.60938-1.234375 1.6875-1.9375 1.07812-.703125 2.34375-.703125 2.0625 0 3.20313 1.359375 1.14062 1.359375 1.14062 3.890625v.75h-7.15625q.03125 1.5625.90625 2.53125.875.953125 2.21875.953125.96875 0 1.625-.390625.67187-.390625 1.17187-1.03125l1.09376.859375q-1.32813 2.046875-3.98438 2.046875zm-.21875-9.484375q-1.09375 0-1.84375.796875-.73438.796875-.90625 2.234375h5.28125v-.140625q-.07812-1.375-.75-2.125-.65625-.765625-1.78125-.765625zm11.76563 3.515625q0-2.21875.59374-4.25.59376-2.03125 1.76563-3.6875 1.17187-1.65625 2.42187-2.34375l.375 1.1875q-1.42187 1.09375-2.34374 3.34375-.90626 2.25-1 5.03125v.828125q0 3.765625 1.375 6.546875.82812 1.65625 1.96874 2.59375l-.375 1.109375q-1.29687-.71875-2.46874-2.421875-2.3125-3.328125-2.3125-7.9375zm16.20312 5.765625h-9.3125v-1.296875l4.92188-5.46875q1.09374-1.25 1.5-2.015625.42187-.78125.42187-1.609375 0-1.109375-.67187-1.828125-.67188-.71875-1.79688-.71875-1.35938 0-2.10938.78125-.73437.765625-.73437 2.125h-1.8125q0-1.96875 1.26563-3.171875 1.26562-1.21875 3.39062-1.21875 1.98438 0 3.125 1.046875 1.15625 1.046875 1.15625 2.765625 0 2.109375-2.67187 5l-3.8125 4.140625h7.14062zm1.90625-.953125q0-.46875.28125-.78125.28125-.3125.82812-.3125.5625 0 .84376.3125.29687.3125.29687.78125 0 .453125-.29687.765625-.28126.296875-.84376.296875-.54687 0-.82812-.296875-.28125-.3125-.28125-.765625zm0-9q0-.46875.28125-.78125.28125-.3125.82812-.3125.5625 0 .84376.3125.29687.3125.29687.78125 0 .453125-.29687.765625-.28126.296875-.84376.296875-.54687 0-.82812-.296875-.28125-.3125-.28125-.765625zm10.71875 9.953125h-1.82812v-12.046875l-3.64063 1.34375v-1.640625l5.1875-1.9375h.28125zm12.2031 0h-1.79685v-10.5625h1.79685zm-1.9531-13.375q0-.4375.26562-.734375.28126-.3125.79688-.3125.53125 0 .7969.3125.2812.296875.2812.734375 0 .4375-.2812.734375-.26565.296875-.7969.296875-.51562 0-.79688-.296875-.26562-.296875-.26562-.734375zm6.7031 2.8125.0625 1.328125q1.20315-1.53125 3.1563-1.53125 3.35935 0 3.375 3.78125v6.984375h-1.7969v-7q-.0156-1.140625-.53125-1.6875-.5-.546875-1.59375-.546875-.875 0-1.5469.46875-.6562.46875-1.0312 1.234375v7.53125h-1.7969v-10.5625zm13.5313 9.28125q.9687 0 1.6875-.578125.7187-.59375.79685-1.46875h1.71875q-.0625.90625-.6406 1.734375-.5625.8125-1.5313 1.3125-.9531.484375-2.0312.484375-2.1563 0-3.4375-1.4375-1.26565-1.453125-1.26565-3.953125v-.296875q0-1.546875.5625-2.75.5625-1.203125 1.625-1.859375 1.0625-.671875 2.5-.671875 1.78125 0 2.95315 1.0625 1.1875 1.0625 1.2656 2.765625h-1.71875q-.07815-1.015625-.78125-1.671875-.6875-.671875-1.71875-.671875-1.375 0-2.14065 1-.75.984375-.75 2.859375v.34375q0 1.828125.75 2.8125.75.984375 2.1563.984375zm5.2812-4.09375q0-1.5625.6094-2.796875.6094-1.25 1.6875-1.921875 1.09375-.671875 2.5-.671875 2.15625 0 3.4844 1.5 1.3437 1.484375 1.3437 3.96875v.125q0 1.546875-.5937 2.78125-.5938 1.21875-1.70315 1.90625-1.09375.6875-2.51565.6875-2.1406 0-3.48435-1.5-1.32815-1.5-1.32815-3.953125zm1.8125.203125q0 1.765625.8125 2.828125.82815 1.0625 2.1875 1.0625 1.375 0 2.1875-1.078125.8125-1.078125.8125-3.015625 0-1.75-.8281-2.828125-.8281-1.078125-2.1875-1.078125-1.34375 0-2.1719 1.0625-.8125 1.0625-.8125 3.046875zm11.3594-5.390625.0469 1.171875q1.17185-1.375 3.1406-1.375 2.21875 0 3.0156 1.703125.5313-.765625 1.375-1.234375.8438-.46875 2-.46875 3.4688 0 3.5313 3.6875v7.078125h-1.8125v-6.96875q0-1.140625-.51565-1.703125-.51565-.5625-1.73435-.5625-1 0-1.6719.609375-.65625.59375-.7656 1.609375v7.015625h-1.8125v-6.921875q0-2.3125-2.26565-2.3125-1.78125 0-2.42185 1.515625v7.71875h-1.8125v-10.5625zm20.6875 10.765625q-2.1406 0-3.5-1.40625-1.34375-1.421875-1.34375-3.78125v-.34375q0-1.5625.59375-2.796875.6094-1.234375 1.6875-1.9375 1.0781-.703125 2.34375-.703125 2.0625 0 3.20315 1.359375 1.1406 1.359375 1.1406 3.890625v.75h-7.15625q.03125 1.5625.90625 2.53125.875.953125 2.21875.953125.96875 0 1.625-.390625.67185-.390625 1.17185-1.03125l1.0938.859375q-1.32815 2.046875-3.9844 2.046875zm-.21875-9.484375q-1.09375 0-1.84375.796875-.7344.796875-.90625 2.234375h5.28125v-.140625q-.0781-1.375-.75-2.125-.65625-.765625-1.78125-.765625zm11 3.609375q0 2.171875-.57815 4.171875-.5625 2-1.73435 3.6875-1.17185 1.6875-2.46875 2.40625l-.375-1.109375q1.5-1.15625 2.40625-3.578125.92185-2.421875.9375-5.390625v-.3125q0-2.046875-.4375-3.8125-.42185-1.765625-1.1875-3.15625-.76565-1.390625-1.71875-2.171875l.375-1.109375q1.2969.71875 2.4531 2.390625 1.1719 1.65625 1.75 3.671875.57815 2.015625.57815 4.3125z" fill="#757575"/></svg>