<?xml version="1.0" encoding="UTF-8" standalone="no"?><svg xmlns="http://www.w3.org/2000/svg" xmlns:xlink="http://www.w3.org/1999/xlink" contentScriptType="application/ecmascript" contentStyleType="text/css" height="479px" preserveAspectRatio="none" style="width:581px;height:479px;" version="1.1" viewBox="0 0 581 479" width="581px" zoomAndPan="magnify"><defs><filter height="300%" id="fva5degzc4sbu" width="300%" x="-1" y="-1"><feGaussianBlur result="blurOut" stdDeviation="2.0"/><feColorMatrix in="blurOut" result="blurOut2" type="matrix" values="0 0 0 0 0 0 0 0 0 0 0 0 0 0 0 0 0 0 .4 0"/><feOffset dx="4.0" dy="4.0" in="blurOut2" result="blurOut3"/><feBlend in="SourceGraphic" in2="blurOut3" mode="normal"/></filter></defs><g><text fill="#000000" font-family="sans-serif" font-size="18" lengthAdjust="spacingAndGlyphs" textLength="146" x="221.5" y="16.708">Include example</text><!--entity User--><ellipse cx="280.5" cy="38.9531" fill="#FEFECE" filter="url(#fva5degzc4sbu)" rx="8" ry="8" style="stroke: #A80036; stroke-width: 2.0;"/><path d="M280.5,46.9531 L280.5,73.9531 M267.5,54.9531 L293.5,54.9531 M280.5,73.9531 L267.5,88.9531 M280.5,73.9531 L293.5,88.9531 " fill="none" filter="url(#fva5degzc4sbu)" style="stroke: #A80036; stroke-width: 2.0;"/><text fill="#000000" font-family="sans-serif" font-size="14" lengthAdjust="spacingAndGlyphs" textLength="32" x="264.5" y="108.9482">User</text><ellipse cx="87.6884" cy="192.7908" fill="#FEFECE" filter="url(#fva5degzc4sbu)" rx="77.1884" ry="17.8377" style="stroke: #A80036; stroke-width: 1.5;"/><text fill="#000000" font-family="sans-serif" font-size="14" lengthAdjust="spacingAndGlyphs" textLength="124" x="25.6884" y="197.4393">UC001: Ride a car</text><ellipse cx="280.5624" cy="192.9656" fill="#FEFECE" filter="url(#fva5degzc4sbu)" rx="80.5624" ry="18.5125" style="stroke: #A80036; stroke-width: 1.5;"/><text fill="#000000" font-family="sans-serif" font-size="14" lengthAdjust="spacingAndGlyphs" textLength="132" x="214.5624" y="197.614">UC002: Ride a bike</text><ellipse cx="483.4744" cy="192.848" fill="#FEFECE" filter="url(#fva5degzc4sbu)" rx="87.4744" ry="19.8949" style="stroke: #A80036; stroke-width: 1.5;"/><text fill="#000000" font-family="sans-serif" font-size="14" lengthAdjust="spacingAndGlyphs" textLength="148" x="409.4744" y="197.4964">UC003: Ride a tractor</text><ellipse cx="349.7229" cy="409.9977" fill="#FEFECE" filter="url(#fva5degzc4sbu)" rx="93.2229" ry="21.0446" style="stroke: #A80036; stroke-width: 1.5;"/><text fill="#000000" font-family="sans-serif" font-size="14" lengthAdjust="spacingAndGlyphs" textLength="161" x="269.2229" y="414.6461">UC004: Start an engine</text><path d="M6,351.9531 L6,467.8828 A0,0 0 0 0 6,467.8828 L221,467.8828 A0,0 0 0 0 221,467.8828 L221,413.9531 L256.398,409.9531 L221,405.9531 L221,361.9531 L211,351.9531 L6,351.9531 A0,0 0 0 0 6,351.9531 " fill="#FBFB77" filter="url(#fva5degzc4sbu)" style="stroke: #A80036; stroke-width: 1.0;"/><path d="M211,351.9531 L211,361.9531 L221,361.9531 L211,351.9531 " fill="#FBFB77" style="stroke: #A80036; stroke-width: 1.0;"/><text fill="#000000" font-family="sans-serif" font-size="13" lengthAdjust="spacingAndGlyphs" textLength="189" x="12" y="369.02">Start an engine is required by</text><text fill="#000000" font-family="sans-serif" font-size="13" lengthAdjust="spacingAndGlyphs" textLength="99" x="12" y="384.1528">car and tractor.</text><text fill="#000000" font-family="sans-serif" font-size="13" lengthAdjust="spacingAndGlyphs" textLength="105" x="12" y="399.2856">It must be done.</text><text fill="#000000" font-family="sans-serif" font-size="13" lengthAdjust="spacingAndGlyphs" textLength="171" x="12" y="414.4185">If User wants to  ride a car,</text><text fill="#000000" font-family="sans-serif" font-size="13" lengthAdjust="spacingAndGlyphs" textLength="190" x="12" y="429.5513">he must also Start an engine.</text><text fill="#000000" font-family="sans-serif" font-size="13" lengthAdjust="spacingAndGlyphs" textLength="190" x="12" y="444.6841">If User wants to ride a tractor,</text><text fill="#000000" font-family="sans-serif" font-size="13" lengthAdjust="spacingAndGlyphs" textLength="190" x="12" y="459.8169">he must also Start an engine.</text><!--link User to UC001: Ride a car--><path d="M264.377,81.5201 C230.947,102.3921 153.831,150.5391 113.362,175.8061 " fill="none" id="User-UC001: Ride a car" style="stroke: #A80036; stroke-width: 1.0;"/><!--link User to UC002: Ride a bike--><path d="M280.5,112.2491 C280.5,133.4151 280.5,158.1691 280.5,174.4071 " fill="none" id="User-UC002: Ride a bike" style="stroke: #A80036; stroke-width: 1.0;"/><!--link User to UC003: Ride a tractor--><path d="M296.769,81.1101 C330.734,101.2711 409.633,148.1061 453.218,173.9781 " fill="none" id="User-UC003: Ride a tractor" style="stroke: #A80036; stroke-width: 1.0;"/><!--link UC001: Ride a car to UC004: Start an engine--><path d="M107.624,210.4671 C154.103,248.6081 268.986,342.8821 321.948,386.3437 " fill="none" id="UC001: Ride a car-&gt;UC004: Start an engine" style="stroke: #A80036; stroke-width: 1.0; stroke-dasharray: 7.0,7.0;"/><polygon fill="#A80036" points="325.959,389.6352,321.5386,380.8341,322.0936,386.4636,316.4641,387.0186,325.959,389.6352" style="stroke: #A80036; stroke-width: 1.0;"/><text fill="#000000" font-family="sans-serif" font-size="13" lengthAdjust="spacingAndGlyphs" textLength="68" x="205.5" y="287.02">«includes»</text><!--link UC003: Ride a tractor to UC004: Start an engine--><path d="M471.608,213.0331 C447.21,252.1801 391.527,341.5211 364.615,384.7011 " fill="none" id="UC003: Ride a tractor-&gt;UC004: Start an engine" style="stroke: #A80036; stroke-width: 1.0; stroke-dasharray: 7.0,7.0;"/><polygon fill="#A80036" points="361.947,388.9827,370.1015,383.4597,364.5913,384.7392,363.3118,379.2289,361.947,388.9827" style="stroke: #A80036; stroke-width: 1.0;"/><text fill="#000000" font-family="sans-serif" font-size="13" lengthAdjust="spacingAndGlyphs" textLength="68" x="433.5" y="287.02">«includes»</text><!--
@startuml
title Include example

User - - (UC001: Ride a car)
User - - (UC002: Ride a bike)
User -down- (UC003: Ride a tractor)
(UC001: Ride a car) ...> (UC004: Start an engine): <<includes>>
(UC003: Ride a tractor) ...> (UC004: Start an engine): <<includes>>
note left of (UC004: Start an engine)
Start an engine is required by 
car and tractor.
It must be done.
If User wants to  ride a car, 
he must also Start an engine.
If User wants to ride a tractor, 
he must also Start an engine.
end note
@enduml

PlantUML version 1.2019.10beta5(Unknown compile time)
(GPL source distribution)
Java Runtime: Java(TM) SE Runtime Environment
JVM: Java HotSpot(TM) 64-Bit Server VM
Java Version: 1.7.0_25-b15
Operating System: Linux
Default Encoding: UTF-8
Language: en
Country: US
--></g></svg>