<?xml version="1.0" encoding="UTF-8" standalone="no"?><svg xmlns="http://www.w3.org/2000/svg" xmlns:xlink="http://www.w3.org/1999/xlink" contentScriptType="application/ecmascript" contentStyleType="text/css" height="387px" preserveAspectRatio="none" style="width:508px;height:387px;" version="1.1" viewBox="0 0 508 387" width="508px" zoomAndPan="magnify"><defs><filter height="300%" id="f18tvrgdljhqcn" width="300%" x="-1" y="-1"><feGaussianBlur result="blurOut" stdDeviation="2.0"/><feColorMatrix in="blurOut" result="blurOut2" type="matrix" values="0 0 0 0 0 0 0 0 0 0 0 0 0 0 0 0 0 0 .4 0"/><feOffset dx="4.0" dy="4.0" in="blurOut2" result="blurOut3"/><feBlend in="SourceGraphic" in2="blurOut3" mode="normal"/></filter></defs><g><text fill="#000000" font-family="sans-serif" font-size="18" lengthAdjust="spacingAndGlyphs" textLength="152" x="182" y="16.708">Extends example</text><!--entity User--><ellipse cx="327.5" cy="38.9531" fill="#FEFECE" filter="url(#f18tvrgdljhqcn)" rx="8" ry="8" style="stroke: #A80036; stroke-width: 2.0;"/><path d="M327.5,46.9531 L327.5,73.9531 M314.5,54.9531 L340.5,54.9531 M327.5,73.9531 L314.5,88.9531 M327.5,73.9531 L340.5,88.9531 " fill="none" filter="url(#f18tvrgdljhqcn)" style="stroke: #A80036; stroke-width: 2.0;"/><text fill="#000000" font-family="sans-serif" font-size="14" lengthAdjust="spacingAndGlyphs" textLength="32" x="311.5" y="108.9482">User</text><ellipse cx="202.4128" cy="192.9357" fill="#FEFECE" filter="url(#f18tvrgdljhqcn)" rx="87.9128" ry="19.9826" style="stroke: #A80036; stroke-width: 1.5;"/><text fill="#000000" font-family="sans-serif" font-size="14" lengthAdjust="spacingAndGlyphs" textLength="149" x="127.9128" y="197.5841">UC001: Upload photo</text><ellipse cx="411.6635" cy="193.0858" fill="#FEFECE" filter="url(#f18tvrgdljhqcn)" rx="86.1635" ry="19.6327" style="stroke: #A80036; stroke-width: 1.5;"/><text fill="#000000" font-family="sans-serif" font-size="14" lengthAdjust="spacingAndGlyphs" textLength="145" x="339.1635" y="197.7343">UC002: Upload video</text><ellipse cx="332.5262" cy="332.9584" fill="#FEFECE" filter="url(#f18tvrgdljhqcn)" rx="78.0262" ry="18.0052" style="stroke: #A80036; stroke-width: 1.5;"/><text fill="#000000" font-family="sans-serif" font-size="14" lengthAdjust="spacingAndGlyphs" textLength="126" x="269.5262" y="337.6068">UC003: Apply filter</text><path d="M6,289.9531 L6,375.6172 A0,0 0 0 0 6,375.6172 L219,375.6172 A0,0 0 0 0 219,375.6172 L219,336.9531 L254.069,332.9531 L219,328.9531 L219,299.9531 L209,289.9531 L6,289.9531 A0,0 0 0 0 6,289.9531 " fill="#FBFB77" filter="url(#f18tvrgdljhqcn)" style="stroke: #A80036; stroke-width: 1.0;"/><path d="M209,289.9531 L209,299.9531 L219,299.9531 L209,289.9531 " fill="#FBFB77" style="stroke: #A80036; stroke-width: 1.0;"/><text fill="#000000" font-family="sans-serif" font-size="13" lengthAdjust="spacingAndGlyphs" textLength="161" x="12" y="307.02">Upload photo and upload</text><text fill="#000000" font-family="sans-serif" font-size="13" lengthAdjust="spacingAndGlyphs" textLength="160" x="12" y="322.1528">video doesn't necessarily</text><text fill="#000000" font-family="sans-serif" font-size="13" lengthAdjust="spacingAndGlyphs" textLength="123" x="12" y="337.2856">need to apply filter.</text><text fill="#000000" font-family="sans-serif" font-size="13" lengthAdjust="spacingAndGlyphs" textLength="188" x="12" y="352.4185">Upload photo can run without</text><text fill="#000000" font-family="sans-serif" font-size="13" lengthAdjust="spacingAndGlyphs" textLength="90" x="12" y="367.5513">Applying filter.</text><!--link User to UC001: Upload photo--><path d="M311.414,86.9601 C288.468,109.0801 246.398,149.6351 221.802,173.3461 " fill="none" id="User-UC001: Upload photo" style="stroke: #A80036; stroke-width: 1.0;"/><!--link User to UC002: Upload video--><path d="M343.696,94.6871 C359.715,117.6661 383.91,152.3741 398.651,173.5201 " fill="none" id="User-UC002: Upload video" style="stroke: #A80036; stroke-width: 1.0;"/><!--reverse link UC001: Upload photo to UC003: Apply filter--><path d="M223.735,216.4951 C249.716,244.0741 293.118,290.1479 316.468,314.9343 " fill="none" id="UC001: Upload photo&lt;-UC003: Apply filter" style="stroke: #A80036; stroke-width: 1.0; stroke-dasharray: 7.0,7.0;"/><polygon fill="#A80036" points="220.032,212.5641,223.2911,221.8581,223.4602,216.2038,229.1146,216.3729,220.032,212.5641" style="stroke: #A80036; stroke-width: 1.0;"/><text fill="#000000" font-family="sans-serif" font-size="13" lengthAdjust="spacingAndGlyphs" textLength="67" x="264.5" y="256.02">«extends»</text><!--reverse link UC002: Upload video to UC003: Apply filter--><path d="M398.205,217.1761 C382.376,244.8281 356.316,290.3511 342.243,314.9343 " fill="none" id="UC002: Upload video&lt;-UC003: Apply filter" style="stroke: #A80036; stroke-width: 1.0; stroke-dasharray: 7.0,7.0;"/><polygon fill="#A80036" points="400.846,212.5641,392.9026,218.3867,398.3615,216.9031,399.845,222.362,400.846,212.5641" style="stroke: #A80036; stroke-width: 1.0;"/><text fill="#000000" font-family="sans-serif" font-size="13" lengthAdjust="spacingAndGlyphs" textLength="67" x="381.5" y="256.02">«extends»</text><!--
@startuml
title Extends example

User - - (UC001: Upload photo)
User -down- (UC002: Upload video)
(UC001: Upload photo) <.. (UC003: Apply filter): <<extends>>
(UC002: Upload video) <.. (UC003: Apply filter): <<extends>>

note left of (UC003: Apply filter)
Upload photo and upload 
video doesn't necessarily 
need to apply filter.
Upload photo can run without 
Applying filter.
end note
@enduml

PlantUML version 1.2019.10beta5(Unknown compile time)
(GPL source distribution)
Java Runtime: Java(TM) SE Runtime Environment
JVM: Java HotSpot(TM) 64-Bit Server VM
Java Version: 1.7.0_25-b15
Operating System: Linux
Default Encoding: UTF-8
Language: en
Country: US
--></g></svg>