<svg version="1.1" viewBox="0.0 0.0 632.0 371.0" fill="none" stroke="none" stroke-linecap="square" stroke-miterlimit="10" width="632" height="371" xmlns:xlink="http://www.w3.org/1999/xlink" xmlns="http://www.w3.org/2000/svg"><path fill="#ffffff" d="M0 0L632.0 0L632.0 371.0L0 371.0L0 0Z" fill-rule="nonzero"/><path stroke="#333333" stroke-width="1.0" stroke-linecap="butt" d="M45.5 88.5L45.5 300.5" fill-rule="nonzero"/><path stroke="#cccccc" stroke-width="1.0" stroke-linecap="butt" d="M212.5 88.5L212.5 300.5" fill-rule="nonzero"/><path stroke="#cccccc" stroke-width="1.0" stroke-linecap="butt" d="M379.5 88.5L379.5 300.5" fill-rule="nonzero"/><path stroke="#cccccc" stroke-width="1.0" stroke-linecap="butt" d="M546.5 88.5L546.5 300.5" fill-rule="nonzero"/><path stroke="#333333" stroke-width="1.0" stroke-linecap="butt" d="M45.5 300.5L613.5 300.5" fill-rule="nonzero"/><path stroke="#cccccc" stroke-width="1.0" stroke-linecap="butt" d="M45.5 247.5L613.5 247.5" fill-rule="nonzero"/><path stroke="#cccccc" stroke-width="1.0" stroke-linecap="butt" d="M45.5 194.5L613.5 194.5" fill-rule="nonzero"/><path stroke="#cccccc" stroke-width="1.0" stroke-linecap="butt" d="M45.5 141.5L613.5 141.5" fill-rule="nonzero"/><path stroke="#cccccc" stroke-width="1.0" stroke-linecap="butt" d="M45.5 88.5L613.5 88.5" fill-rule="nonzero"/><clipPath id="id_0"><path d="M45.55 88.28333L613.45 88.28333L613.45 300.45L45.55 300.45L45.55 88.28333Z" clip-rule="nonzero"/></clipPath><path fill="#4285f4" fill-opacity="0.3019608" clip-path="url(#id_0)" d="M45.55 88.28333L78.95588 94.64833L112.36176 101.458885L145.76765 108.7362L179.17352 116.52272L212.5794 124.86087L245.98529 133.79309L279.39117 143.34058L312.79706 153.56702L346.20294 164.4936L379.60883 176.18399L413.0147 188.70181L446.4206 202.08954L479.82648 216.41078L513.23236 231.75043L546.63824 248.15091L580.0441 265.6971L613.45 284.47385L613.45 300.45L580.0441 300.45L546.63824 300.45L513.23236 300.45L479.82648 300.45L446.4206 300.45L413.0147 300.45L379.60883 300.45L346.20294 300.45L312.79706 300.45L279.39117 300.45L245.98529 300.45L212.5794 300.45L179.17352 300.45L145.76765 300.45L112.36176 300.45L78.95588 300.45L45.55 300.45Z" fill-rule="nonzero"/><path fill="#ea4335" fill-opacity="0.3019608" clip-path="url(#id_0)" d="M45.55 285.59833L78.95588 286.04388L112.36176 286.51065L145.76765 287.01984L179.17352 287.57147L212.5794 288.16556L245.98529 288.78082L279.39117 289.45978L312.79706 290.1599L346.20294 290.9237L379.60883 291.75116L413.0147 292.62106L446.4206 293.5546L479.82648 294.573L513.23236 295.63382L546.63824 296.7795L580.0441 298.01007L613.45 299.32553L613.45 300.45L580.0441 300.45L546.63824 300.45L513.23236 300.45L479.82648 300.45L446.4206 300.45L413.0147 300.45L379.60883 300.45L346.20294 300.45L312.79706 300.45L279.39117 300.45L245.98529 300.45L212.5794 300.45L179.17352 300.45L145.76765 300.45L112.36176 300.45L78.95588 300.45L45.55 300.45Z" fill-rule="nonzero"/><path fill="#fbbc04" fill-opacity="0.3019608" clip-path="url(#id_0)" d="M45.55 279.23334L78.95588 279.23334L112.36176 279.23334L145.76765 279.23334L179.17352 279.23334L212.5794 279.23334L245.98529 279.23334L279.39117 279.23334L312.79706 279.23334L346.20294 279.23334L379.60883 279.23334L413.0147 279.23334L446.4206 279.23334L479.82648 279.23334L513.23236 279.23334L546.63824 279.23334L580.0441 279.23334L613.45 284.47385L613.45 300.45L580.0441 300.45L546.63824 300.45L513.23236 300.45L479.82648 300.45L446.4206 300.45L413.0147 300.45L379.60883 300.45L346.20294 300.45L312.79706 300.45L279.39117 300.45L245.98529 300.45L212.5794 300.45L179.17352 300.45L145.76765 300.45L112.36176 300.45L78.95588 300.45L45.55 300.45Z" fill-rule="nonzero"/><path stroke="#4285f4" stroke-width="2.0" stroke-linecap="butt" clip-path="url(#id_0)" d="M45.55 88.28333L78.95588 94.64833L112.36176 101.458885L145.76765 108.7362L179.17352 116.52272L212.5794 124.86087L245.98529 133.79309L279.39117 143.34058L312.79706 153.56702L346.20294 164.4936L379.60883 176.18399L413.0147 188.70181L446.4206 202.08954L479.82648 216.41078L513.23236 231.75043L546.63824 248.15091L580.0441 265.6971L613.45 284.47385" fill-rule="nonzero"/><path stroke="#ea4335" stroke-width="2.0" stroke-linecap="butt" clip-path="url(#id_0)" d="M45.55 285.59833L78.95588 286.04388L112.36176 286.51065L145.76765 287.01984L179.17352 287.57147L212.5794 288.16556L245.98529 288.78082L279.39117 289.45978L312.79706 290.1599L346.20294 290.9237L379.60883 291.75116L413.0147 292.62106L446.4206 293.5546L479.82648 294.573L513.23236 295.63382L546.63824 296.7795L580.0441 298.01007L613.45 299.32553" fill-rule="nonzero"/><path stroke="#fbbc04" stroke-width="2.0" stroke-linecap="butt" clip-path="url(#id_0)" d="M45.55 279.23334L78.95588 279.23334L112.36176 279.23334L145.76765 279.23334L179.17352 279.23334L212.5794 279.23334L245.98529 279.23334L279.39117 279.23334L312.79706 279.23334L346.20294 279.23334L379.60883 279.23334L413.0147 279.23334L446.4206 279.23334L479.82648 279.23334L513.23236 279.23334L546.63824 279.23334L580.0441 279.23334L613.45 284.47385" fill-rule="nonzero"/><path fill="#000000" fill-opacity="0.0" clip-path="url(#id_0)" d="M48.55 88.28333C48.55 89.940186 47.206856 91.28333 45.55 91.28333C43.893147 91.28333 42.55 89.940186 42.55 88.28333C42.55 86.62648 43.893147 85.28333 45.55 85.28333C47.206856 85.28333 48.55 86.62648 48.55 88.28333Z" fill-rule="nonzero"/><path fill="#000000" fill-opacity="0.0" clip-path="url(#id_0)" d="M81.95588 94.64833C81.95588 96.30519 80.61274 97.64833 78.95588 97.64833C77.29903 97.64833 75.95588 96.30519 75.95588 94.64833C75.95588 92.99148 77.29903 91.64833 78.95588 91.64833C80.61274 91.64833 81.95588 92.99148 81.95588 94.64833Z" fill-rule="nonzero"/><path fill="#000000" fill-opacity="0.0" clip-path="url(#id_0)" d="M115.36176 101.458885C115.36176 103.11574 114.018616 104.458885 112.36176 104.458885C110.70491 104.458885 109.36176 103.11574 109.36176 101.458885C109.36176 99.80203 110.70491 98.458885 112.36176 98.458885C114.018616 98.458885 115.36176 99.80203 115.36176 101.458885Z" fill-rule="nonzero"/><path fill="#000000" fill-opacity="0.0" clip-path="url(#id_0)" d="M148.76765 108.7362C148.76765 110.39305 147.4245 111.7362 145.76765 111.7362C144.1108 111.7362 142.76765 110.39305 142.76765 108.7362C142.76765 107.079346 144.1108 105.7362 145.76765 105.7362C147.4245 105.7362 148.76765 107.079346 148.76765 108.7362Z" fill-rule="nonzero"/><path fill="#000000" fill-opacity="0.0" clip-path="url(#id_0)" d="M182.17352 116.52272C182.17352 118.17957 180.83038 119.52272 179.17352 119.52272C177.51668 119.52272 176.17352 118.17957 176.17352 116.52272C176.17352 114.86586 177.51668 113.52272 179.17352 113.52272C180.83038 113.52272 182.17352 114.86586 182.17352 116.52272Z" fill-rule="nonzero"/><path fill="#000000" fill-opacity="0.0" clip-path="url(#id_0)" d="M215.5794 124.86087C215.5794 126.51772 214.23627 127.86087 212.5794 127.86087C210.92256 127.86087 209.5794 126.51772 209.5794 124.86087C209.5794 123.20401 210.92256 121.86087 212.5794 121.86087C214.23627 121.86087 215.5794 123.20401 215.5794 124.86087Z" fill-rule="nonzero"/><path fill="#000000" fill-opacity="0.0" clip-path="url(#id_0)" d="M248.98529 133.79309C248.98529 135.44994 247.64215 136.79309 245.98529 136.79309C244.32845 136.79309 242.98529 135.44994 242.98529 133.79309C242.98529 132.13623 244.32845 130.79309 245.98529 130.79309C247.64215 130.79309 248.98529 132.13623 248.98529 133.79309Z" fill-rule="nonzero"/><path fill="#000000" fill-opacity="0.0" clip-path="url(#id_0)" d="M282.39117 143.34058C282.39117 144.99744 281.04803 146.34058 279.39117 146.34058C277.7343 146.34058 276.39117 144.99744 276.39117 143.34058C276.39117 141.68373 277.7343 140.34058 279.39117 140.34058C281.04803 140.34058 282.39117 141.68373 282.39117 143.34058Z" fill-rule="nonzero"/><path fill="#000000" fill-opacity="0.0" clip-path="url(#id_0)" d="M315.79706 153.56702C315.79706 155.22388 314.45392 156.56702 312.79706 156.56702C311.1402 156.56702 309.79706 155.22388 309.79706 153.56702C309.79706 151.91016 311.1402 150.56702 312.79706 150.56702C314.45392 150.56702 315.79706 151.91016 315.79706 153.56702Z" fill-rule="nonzero"/><path fill="#000000" fill-opacity="0.0" clip-path="url(#id_0)" d="M349.20294 164.4936C349.20294 166.15045 347.8598 167.4936 346.20294 167.4936C344.54608 167.4936 343.20294 166.15045 343.20294 164.4936C343.20294 162.83675 344.54608 161.4936 346.20294 161.4936C347.8598 161.4936 349.20294 162.83675 349.20294 164.4936Z" fill-rule="nonzero"/><path fill="#000000" fill-opacity="0.0" clip-path="url(#id_0)" d="M382.60883 176.18399C382.60883 177.84084 381.2657 179.18399 379.60883 179.18399C377.95197 179.18399 376.60883 177.84084 376.60883 176.18399C376.60883 174.52713 377.95197 173.18399 379.60883 173.18399C381.2657 173.18399 382.60883 174.52713 382.60883 176.18399Z" fill-rule="nonzero"/><path fill="#000000" fill-opacity="0.0" clip-path="url(#id_0)" d="M416.0147 188.70181C416.0147 190.35867 414.67157 191.70181 413.0147 191.70181C411.35785 191.70181 410.0147 190.35867 410.0147 188.70181C410.0147 187.04497 411.35785 185.70181 413.0147 185.70181C414.67157 185.70181 416.0147 187.04497 416.0147 188.70181Z" fill-rule="nonzero"/><path fill="#000000" fill-opacity="0.0" clip-path="url(#id_0)" d="M449.4206 202.08954C449.4206 203.74638 448.07745 205.08954 446.4206 205.08954C444.76373 205.08954 443.4206 203.74638 443.4206 202.08954C443.4206 200.43268 444.76373 199.08954 446.4206 199.08954C448.07745 199.08954 449.4206 200.43268 449.4206 202.08954Z" fill-rule="nonzero"/><path fill="#000000" fill-opacity="0.0" clip-path="url(#id_0)" d="M482.82648 216.41078C482.82648 218.06764 481.48334 219.41078 479.82648 219.41078C478.16962 219.41078 476.82648 218.06764 476.82648 216.41078C476.82648 214.75392 478.16962 213.41078 479.82648 213.41078C481.48334 213.41078 482.82648 214.75392 482.82648 216.41078Z" fill-rule="nonzero"/><path fill="#000000" fill-opacity="0.0" clip-path="url(#id_0)" d="M516.23236 231.75043C516.23236 233.40729 514.8892 234.75043 513.23236 234.75043C511.5755 234.75043 510.23236 233.40729 510.23236 231.75043C510.23236 230.09358 511.5755 228.75043 513.23236 228.75043C514.8892 228.75043 516.23236 230.09358 516.23236 231.75043Z" fill-rule="nonzero"/><path fill="#000000" fill-opacity="0.0" clip-path="url(#id_0)" d="M549.63824 248.15091C549.63824 249.80777 548.2951 251.15091 546.63824 251.15091C544.9814 251.15091 543.63824 249.80777 543.63824 248.15091C543.63824 246.49406 544.9814 245.15091 546.63824 245.15091C548.2951 245.15091 549.63824 246.49406 549.63824 248.15091Z" fill-rule="nonzero"/><path fill="#000000" fill-opacity="0.0" clip-path="url(#id_0)" d="M583.0441 265.6971C583.0441 267.35394 581.701 268.6971 580.0441 268.6971C578.38727 268.6971 577.0441 267.35394 577.0441 265.6971C577.0441 264.04025 578.38727 262.6971 580.0441 262.6971C581.701 262.6971 583.0441 264.04025 583.0441 265.6971Z" fill-rule="nonzero"/><path fill="#000000" fill-opacity="0.0" clip-path="url(#id_0)" d="M616.45 284.47385C616.45 286.1307 615.1069 287.47385 613.45 287.47385C611.79315 287.47385 610.45 286.1307 610.45 284.47385C610.45 282.817 611.79315 281.47385 613.45 281.47385C615.1069 281.47385 616.45 282.817 616.45 284.47385Z" fill-rule="nonzero"/><path fill="#000000" fill-opacity="0.0" clip-path="url(#id_0)" d="M48.55 285.59833C48.55 287.2552 47.206856 288.59833 45.55 288.59833C43.893147 288.59833 42.55 287.2552 42.55 285.59833C42.55 283.94147 43.893147 282.59833 45.55 282.59833C47.206856 282.59833 48.55 283.94147 48.55 285.59833Z" fill-rule="nonzero"/><path fill="#000000" fill-opacity="0.0" clip-path="url(#id_0)" d="M81.95588 286.04388C81.95588 287.70074 80.61274 289.04388 78.95588 289.04388C77.29903 289.04388 75.95588 287.70074 75.95588 286.04388C75.95588 284.38702 77.29903 283.04388 78.95588 283.04388C80.61274 283.04388 81.95588 284.38702 81.95588 286.04388Z" fill-rule="nonzero"/><path fill="#000000" fill-opacity="0.0" clip-path="url(#id_0)" d="M115.36176 286.51065C115.36176 288.1675 114.018616 289.51065 112.36176 289.51065C110.70491 289.51065 109.36176 288.1675 109.36176 286.51065C109.36176 284.8538 110.70491 283.51065 112.36176 283.51065C114.018616 283.51065 115.36176 284.8538 115.36176 286.51065Z" fill-rule="nonzero"/><path fill="#000000" fill-opacity="0.0" clip-path="url(#id_0)" d="M148.76765 287.01984C148.76765 288.6767 147.4245 290.01984 145.76765 290.01984C144.1108 290.01984 142.76765 288.6767 142.76765 287.01984C142.76765 285.363 144.1108 284.01984 145.76765 284.01984C147.4245 284.01984 148.76765 285.363 148.76765 287.01984Z" fill-rule="nonzero"/><path fill="#000000" fill-opacity="0.0" clip-path="url(#id_0)" d="M182.17352 287.57147C182.17352 289.22833 180.83038 290.57147 179.17352 290.57147C177.51668 290.57147 176.17352 289.22833 176.17352 287.57147C176.17352 285.91464 177.51668 284.57147 179.17352 284.57147C180.83038 284.57147 182.17352 285.91464 182.17352 287.57147Z" fill-rule="nonzero"/><path fill="#000000" fill-opacity="0.0" clip-path="url(#id_0)" d="M215.5794 288.16556C215.5794 289.82242 214.23627 291.16556 212.5794 291.16556C210.92256 291.16556 209.5794 289.82242 209.5794 288.16556C209.5794 286.5087 210.92256 285.16556 212.5794 285.16556C214.23627 285.16556 215.5794 286.5087 215.5794 288.16556Z" fill-rule="nonzero"/><path fill="#000000" fill-opacity="0.0" clip-path="url(#id_0)" d="M248.98529 288.78082C248.98529 290.43768 247.64215 291.78082 245.98529 291.78082C244.32845 291.78082 242.98529 290.43768 242.98529 288.78082C242.98529 287.124 244.32845 285.78082 245.98529 285.78082C247.64215 285.78082 248.98529 287.124 248.98529 288.78082Z" fill-rule="nonzero"/><path fill="#000000" fill-opacity="0.0" clip-path="url(#id_0)" d="M282.39117 289.45978C282.39117 291.1166 281.04803 292.45978 279.39117 292.45978C277.7343 292.45978 276.39117 291.1166 276.39117 289.45978C276.39117 287.80292 277.7343 286.45978 279.39117 286.45978C281.04803 286.45978 282.39117 287.80292 282.39117 289.45978Z" fill-rule="nonzero"/><path fill="#000000" fill-opacity="0.0" clip-path="url(#id_0)" d="M315.79706 290.1599C315.79706 291.81677 314.45392 293.1599 312.79706 293.1599C311.1402 293.1599 309.79706 291.81677 309.79706 290.1599C309.79706 288.50305 311.1402 287.1599 312.79706 287.1599C314.45392 287.1599 315.79706 288.50305 315.79706 290.1599Z" fill-rule="nonzero"/><path fill="#000000" fill-opacity="0.0" clip-path="url(#id_0)" d="M349.20294 290.9237C349.20294 292.58057 347.8598 293.9237 346.20294 293.9237C344.54608 293.9237 343.20294 292.58057 343.20294 290.9237C343.20294 289.26688 344.54608 287.9237 346.20294 287.9237C347.8598 287.9237 349.20294 289.26688 349.20294 290.9237Z" fill-rule="nonzero"/><path fill="#000000" fill-opacity="0.0" clip-path="url(#id_0)" d="M382.60883 291.75116C382.60883 293.40802 381.2657 294.75116 379.60883 294.75116C377.95197 294.75116 376.60883 293.40802 376.60883 291.75116C376.60883 290.0943 377.95197 288.75116 379.60883 288.75116C381.2657 288.75116 382.60883 290.0943 382.60883 291.75116Z" fill-rule="nonzero"/><path fill="#000000" fill-opacity="0.0" clip-path="url(#id_0)" d="M416.0147 292.62106C416.0147 294.2779 414.67157 295.62106 413.0147 295.62106C411.35785 295.62106 410.0147 294.2779 410.0147 292.62106C410.0147 290.9642 411.35785 289.62106 413.0147 289.62106C414.67157 289.62106 416.0147 290.9642 416.0147 292.62106Z" fill-rule="nonzero"/><path fill="#000000" fill-opacity="0.0" clip-path="url(#id_0)" d="M449.4206 293.5546C449.4206 295.21143 448.07745 296.5546 446.4206 296.5546C444.76373 296.5546 443.4206 295.21143 443.4206 293.5546C443.4206 291.89774 444.76373 290.5546 446.4206 290.5546C448.07745 290.5546 449.4206 291.89774 449.4206 293.5546Z" fill-rule="nonzero"/><path fill="#000000" fill-opacity="0.0" clip-path="url(#id_0)" d="M482.82648 294.573C482.82648 296.22983 481.48334 297.573 479.82648 297.573C478.16962 297.573 476.82648 296.22983 476.82648 294.573C476.82648 292.91614 478.16962 291.573 479.82648 291.573C481.48334 291.573 482.82648 292.91614 482.82648 294.573Z" fill-rule="nonzero"/><path fill="#000000" fill-opacity="0.0" clip-path="url(#id_0)" d="M516.23236 295.63382C516.23236 297.29068 514.8892 298.63382 513.23236 298.63382C511.5755 298.63382 510.23236 297.29068 510.23236 295.63382C510.23236 293.97696 511.5755 292.63382 513.23236 292.63382C514.8892 292.63382 516.23236 293.97696 516.23236 295.63382Z" fill-rule="nonzero"/><path fill="#000000" fill-opacity="0.0" clip-path="url(#id_0)" d="M549.63824 296.7795C549.63824 298.43637 548.2951 299.7795 546.63824 299.7795C544.9814 299.7795 543.63824 298.43637 543.63824 296.7795C543.63824 295.12265 544.9814 293.7795 546.63824 293.7795C548.2951 293.7795 549.63824 295.12265 549.63824 296.7795Z" fill-rule="nonzero"/><path fill="#000000" fill-opacity="0.0" clip-path="url(#id_0)" d="M583.0441 298.01007C583.0441 299.66693 581.701 301.01007 580.0441 301.01007C578.38727 301.01007 577.0441 299.66693 577.0441 298.01007C577.0441 296.35324 578.38727 295.01007 580.0441 295.01007C581.701 295.01007 583.0441 296.35324 583.0441 298.01007Z" fill-rule="nonzero"/><path fill="#000000" fill-opacity="0.0" clip-path="url(#id_0)" d="M616.45 299.32553C616.45 300.98236 615.1069 302.32553 613.45 302.32553C611.79315 302.32553 610.45 300.98236 610.45 299.32553C610.45 297.66867 611.79315 296.32553 613.45 296.32553C615.1069 296.32553 616.45 297.66867 616.45 299.32553Z" fill-rule="nonzero"/><path fill="#000000" fill-opacity="0.0" clip-path="url(#id_0)" d="M48.55 279.23334C48.55 280.8902 47.206856 282.23334 45.55 282.23334C43.893147 282.23334 42.55 280.8902 42.55 279.23334C42.55 277.57648 43.893147 276.23334 45.55 276.23334C47.206856 276.23334 48.55 277.57648 48.55 279.23334Z" fill-rule="nonzero"/><path fill="#000000" fill-opacity="0.0" clip-path="url(#id_0)" d="M81.95588 279.23334C81.95588 280.8902 80.61274 282.23334 78.95588 282.23334C77.29903 282.23334 75.95588 280.8902 75.95588 279.23334C75.95588 277.57648 77.29903 276.23334 78.95588 276.23334C80.61274 276.23334 81.95588 277.57648 81.95588 279.23334Z" fill-rule="nonzero"/><path fill="#000000" fill-opacity="0.0" clip-path="url(#id_0)" d="M115.36176 279.23334C115.36176 280.8902 114.018616 282.23334 112.36176 282.23334C110.70491 282.23334 109.36176 280.8902 109.36176 279.23334C109.36176 277.57648 110.70491 276.23334 112.36176 276.23334C114.018616 276.23334 115.36176 277.57648 115.36176 279.23334Z" fill-rule="nonzero"/><path fill="#000000" fill-opacity="0.0" clip-path="url(#id_0)" d="M148.76765 279.23334C148.76765 280.8902 147.4245 282.23334 145.76765 282.23334C144.1108 282.23334 142.76765 280.8902 142.76765 279.23334C142.76765 277.57648 144.1108 276.23334 145.76765 276.23334C147.4245 276.23334 148.76765 277.57648 148.76765 279.23334Z" fill-rule="nonzero"/><path fill="#000000" fill-opacity="0.0" clip-path="url(#id_0)" d="M182.17352 279.23334C182.17352 280.8902 180.83038 282.23334 179.17352 282.23334C177.51668 282.23334 176.17352 280.8902 176.17352 279.23334C176.17352 277.57648 177.51668 276.23334 179.17352 276.23334C180.83038 276.23334 182.17352 277.57648 182.17352 279.23334Z" fill-rule="nonzero"/><path fill="#000000" fill-opacity="0.0" clip-path="url(#id_0)" d="M215.5794 279.23334C215.5794 280.8902 214.23627 282.23334 212.5794 282.23334C210.92256 282.23334 209.5794 280.8902 209.5794 279.23334C209.5794 277.57648 210.92256 276.23334 212.5794 276.23334C214.23627 276.23334 215.5794 277.57648 215.5794 279.23334Z" fill-rule="nonzero"/><path fill="#000000" fill-opacity="0.0" clip-path="url(#id_0)" d="M248.98529 279.23334C248.98529 280.8902 247.64215 282.23334 245.98529 282.23334C244.32845 282.23334 242.98529 280.8902 242.98529 279.23334C242.98529 277.57648 244.32845 276.23334 245.98529 276.23334C247.64215 276.23334 248.98529 277.57648 248.98529 279.23334Z" fill-rule="nonzero"/><path fill="#000000" fill-opacity="0.0" clip-path="url(#id_0)" d="M282.39117 279.23334C282.39117 280.8902 281.04803 282.23334 279.39117 282.23334C277.7343 282.23334 276.39117 280.8902 276.39117 279.23334C276.39117 277.57648 277.7343 276.23334 279.39117 276.23334C281.04803 276.23334 282.39117 277.57648 282.39117 279.23334Z" fill-rule="nonzero"/><path fill="#000000" fill-opacity="0.0" clip-path="url(#id_0)" d="M315.79706 279.23334C315.79706 280.8902 314.45392 282.23334 312.79706 282.23334C311.1402 282.23334 309.79706 280.8902 309.79706 279.23334C309.79706 277.57648 311.1402 276.23334 312.79706 276.23334C314.45392 276.23334 315.79706 277.57648 315.79706 279.23334Z" fill-rule="nonzero"/><path fill="#000000" fill-opacity="0.0" clip-path="url(#id_0)" d="M349.20294 279.23334C349.20294 280.8902 347.8598 282.23334 346.20294 282.23334C344.54608 282.23334 343.20294 280.8902 343.20294 279.23334C343.20294 277.57648 344.54608 276.23334 346.20294 276.23334C347.8598 276.23334 349.20294 277.57648 349.20294 279.23334Z" fill-rule="nonzero"/><path fill="#000000" fill-opacity="0.0" clip-path="url(#id_0)" d="M382.60883 279.23334C382.60883 280.8902 381.2657 282.23334 379.60883 282.23334C377.95197 282.23334 376.60883 280.8902 376.60883 279.23334C376.60883 277.57648 377.95197 276.23334 379.60883 276.23334C381.2657 276.23334 382.60883 277.57648 382.60883 279.23334Z" fill-rule="nonzero"/><path fill="#000000" fill-opacity="0.0" clip-path="url(#id_0)" d="M416.0147 279.23334C416.0147 280.8902 414.67157 282.23334 413.0147 282.23334C411.35785 282.23334 410.0147 280.8902 410.0147 279.23334C410.0147 277.57648 411.35785 276.23334 413.0147 276.23334C414.67157 276.23334 416.0147 277.57648 416.0147 279.23334Z" fill-rule="nonzero"/><path fill="#000000" fill-opacity="0.0" clip-path="url(#id_0)" d="M449.4206 279.23334C449.4206 280.8902 448.07745 282.23334 446.4206 282.23334C444.76373 282.23334 443.4206 280.8902 443.4206 279.23334C443.4206 277.57648 444.76373 276.23334 446.4206 276.23334C448.07745 276.23334 449.4206 277.57648 449.4206 279.23334Z" fill-rule="nonzero"/><path fill="#000000" fill-opacity="0.0" clip-path="url(#id_0)" d="M482.82648 279.23334C482.82648 280.8902 481.48334 282.23334 479.82648 282.23334C478.16962 282.23334 476.82648 280.8902 476.82648 279.23334C476.82648 277.57648 478.16962 276.23334 479.82648 276.23334C481.48334 276.23334 482.82648 277.57648 482.82648 279.23334Z" fill-rule="nonzero"/><path fill="#000000" fill-opacity="0.0" clip-path="url(#id_0)" d="M516.23236 279.23334C516.23236 280.8902 514.8892 282.23334 513.23236 282.23334C511.5755 282.23334 510.23236 280.8902 510.23236 279.23334C510.23236 277.57648 511.5755 276.23334 513.23236 276.23334C514.8892 276.23334 516.23236 277.57648 516.23236 279.23334Z" fill-rule="nonzero"/><path fill="#000000" fill-opacity="0.0" clip-path="url(#id_0)" d="M549.63824 279.23334C549.63824 280.8902 548.2951 282.23334 546.63824 282.23334C544.9814 282.23334 543.63824 280.8902 543.63824 279.23334C543.63824 277.57648 544.9814 276.23334 546.63824 276.23334C548.2951 276.23334 549.63824 277.57648 549.63824 279.23334Z" fill-rule="nonzero"/><path fill="#000000" fill-opacity="0.0" clip-path="url(#id_0)" d="M583.0441 279.23334C583.0441 280.8902 581.701 282.23334 580.0441 282.23334C578.38727 282.23334 577.0441 280.8902 577.0441 279.23334C577.0441 277.57648 578.38727 276.23334 580.0441 276.23334C581.701 276.23334 583.0441 277.57648 583.0441 279.23334Z" fill-rule="nonzero"/><path fill="#000000" fill-opacity="0.0" clip-path="url(#id_0)" d="M616.45 284.47385C616.45 286.1307 615.1069 287.47385 613.45 287.47385C611.79315 287.47385 610.45 286.1307 610.45 284.47385C610.45 282.817 611.79315 281.47385 613.45 281.47385C615.1069 281.47385 616.45 282.817 616.45 284.47385Z" fill-rule="nonzero"/><path fill="#000000" d="M318.25 351.84064L318.125 350.85626Q318.46875 350.95 318.73438 350.95Q319.07812 350.95 319.28125 350.825Q319.5 350.71564 319.64062 350.5125Q319.73438 350.34064 319.96875 349.71564Q319.98438 349.6375 320.0625 349.46564L317.6875 343.23126L318.82812 343.23126L320.125 346.825Q320.375 347.5125 320.57812 348.27814Q320.76562 347.54376 321.01562 346.85626L322.34375 343.23126L323.39062 343.23126L321.03125 349.5594Q320.64062 350.575 320.4375 350.96564Q320.15625 351.4969 319.78125 351.73126Q319.42188 351.98126 318.92188 351.98126Q318.625 351.98126 318.25 351.84064ZM328.54688 347.45L329.64062 347.575Q329.39062 348.52814 328.6875 349.0594Q327.98438 349.59064 326.90625 349.59064Q325.54688 349.59064 324.73438 348.7469Q323.9375 347.90314 323.9375 346.3875Q323.9375 344.825 324.75 343.96564Q325.5625 343.09064 326.84375 343.09064Q328.09375 343.09064 328.875 343.9344Q329.67188 344.77814 329.67188 346.325Q329.67188 346.41876 329.67188 346.60626L325.03125 346.60626Q325.09375 347.6375 325.60938 348.1844Q326.125 348.71564 326.90625 348.71564Q327.48438 348.71564 327.89062 348.41876Q328.3125 348.10626 328.54688 347.45ZM325.09375 345.7469L328.5625 345.7469Q328.5 344.95 328.17188 344.5594Q327.65625 343.95 326.85938 343.95Q326.125 343.95 325.625 344.4344Q325.14062 344.91876 325.09375 345.7469ZM335.35938 348.6844Q334.76562 349.1844 334.21875 349.3875Q333.6875 349.59064 333.0625 349.59064Q332.03125 349.59064 331.48438 349.09064Q330.9375 348.59064 330.9375 347.8094Q330.9375 347.35626 331.14062 346.98126Q331.34375 346.59064 331.6875 346.3719Q332.03125 346.1375 332.45312 346.02814Q332.75 345.9344 333.39062 345.85626Q334.65625 345.71564 335.26562 345.4969Q335.26562 345.27814 335.26562 345.23126Q335.26562 344.575 334.96875 344.3094Q334.5625 343.96564 333.76562 343.96564Q333.03125 343.96564 332.67188 344.23126Q332.3125 344.48126 332.14062 345.1375L331.10938 344.9969Q331.25 344.34064 331.57812 343.9344Q331.90625 343.52814 332.51562 343.3094Q333.125 343.09064 333.92188 343.09064Q334.71875 343.09064 335.21875 343.27814Q335.71875 343.46564 335.95312 343.7469Q336.1875 344.02814 336.28125 344.46564Q336.32812 344.73126 336.32812 345.4344L336.32812 346.84064Q336.32812 348.3094 336.39062 348.7Q336.46875 349.09064 336.67188 349.45L335.5625 349.45Q335.40625 349.1219 335.35938 348.6844ZM335.26562 346.325Q334.6875 346.5594 333.54688 346.73126Q332.89062 346.825 332.625 346.95Q332.35938 347.0594 332.20312 347.27814Q332.0625 347.4969 332.0625 347.77814Q332.0625 348.2 332.375 348.48126Q332.70312 348.7625 333.3125 348.7625Q333.92188 348.7625 334.39062 348.4969Q334.875 348.23126 335.09375 347.7625Q335.26562 347.40314 335.26562 346.71564L335.26562 346.325ZM338.28125 349.45L338.28125 343.23126L339.23438 343.23126L339.23438 344.16876Q339.59375 343.5125 339.89062 343.3094Q340.20312 343.09064 340.57812 343.09064Q341.10938 343.09064 341.65625 343.41876L341.29688 344.40314Q340.90625 344.16876 340.53125 344.16876Q340.17188 344.16876 339.89062 344.3875Q339.625 344.59064 339.51562 344.96564Q339.32812 345.52814 339.32812 346.1844L339.32812 349.45L338.28125 349.45Z" fill-rule="nonzero"/><path fill="#000000" d="M33.05 300.21564Q33.05 298.6844 33.3625 297.7625Q33.675 296.825 34.284374 296.325Q34.909374 295.825 35.846874 295.825Q36.534374 295.825 37.05 296.10626Q37.58125 296.3875 37.925 296.91876Q38.26875 297.4344 38.45625 298.1844Q38.64375 298.9344 38.64375 300.21564Q38.64375 301.73126 38.33125 302.65314Q38.034374 303.575 37.409374 304.09064Q36.8 304.59064 35.846874 304.59064Q34.6125 304.59064 33.89375 303.7Q33.05 302.6375 33.05 300.21564ZM34.128124 300.21564Q34.128124 302.325 34.628124 303.02814Q35.128124 303.73126 35.846874 303.73126Q36.58125 303.73126 37.065624 303.02814Q37.565624 302.325 37.565624 300.21564Q37.565624 298.09064 37.065624 297.40314Q36.58125 296.7 35.83125 296.7Q35.1125 296.7 34.675 297.3094Q34.128124 298.09064 34.128124 300.21564Z" fill-rule="nonzero"/><path fill="#000000" d="M31.596874 250.39272L31.596874 251.40834L25.909374 251.40834Q25.909374 251.03334 26.034374 250.67397Q26.253124 250.09584 26.721874 249.53334Q27.20625 248.97084 28.1125 248.23647Q29.51875 247.08022 30.003124 246.40834Q30.503124 245.73647 30.503124 245.14272Q30.503124 244.51772 30.05 244.09584Q29.596874 243.65834 28.878124 243.65834Q28.1125 243.65834 27.659374 244.11147Q27.20625 244.56459 27.190624 245.37709L26.1125 245.26772Q26.221874 244.04897 26.940624 243.42397Q27.675 242.78334 28.909374 242.78334Q30.14375 242.78334 30.8625 243.47084Q31.58125 244.15834 31.58125 245.17397Q31.58125 245.68959 31.3625 246.18959Q31.159374 246.67397 30.659374 247.23647Q30.175 247.78334 29.05 248.73647Q28.096874 249.53334 27.815624 249.83022Q27.55 250.11147 27.378124 250.39272L31.596874 250.39272ZM33.05 249.15834L34.159374 249.06459Q34.284374 249.87709 34.721874 250.28334Q35.175 250.68959 35.815624 250.68959Q36.565624 250.68959 37.096874 250.11147Q37.628124 249.53334 37.628124 248.59584Q37.628124 247.68959 37.1125 247.17397Q36.6125 246.64272 35.784374 246.64272Q35.284374 246.64272 34.8625 246.87709Q34.45625 247.11147 34.221874 247.47084L33.2375 247.34584L34.065624 242.93959L38.346874 242.93959L38.346874 243.93959L34.909374 243.93959L34.45625 246.25209Q35.221874 245.70522 36.065624 245.70522Q37.190624 245.70522 37.95625 246.48647Q38.7375 247.26772 38.7375 248.50209Q38.7375 249.65834 38.065624 250.51772Q37.2375 251.54897 35.815624 251.54897Q34.64375 251.54897 33.89375 250.89272Q33.159374 250.23647 33.05 249.15834Z" fill-rule="nonzero"/><path fill="#000000" d="M26.05 196.11667L27.159374 196.02292Q27.284374 196.83542 27.721874 197.24167Q28.175 197.64792 28.815624 197.64792Q29.565624 197.64792 30.096874 197.0698Q30.628124 196.49167 30.628124 195.55417Q30.628124 194.64792 30.1125 194.1323Q29.6125 193.60104 28.784374 193.60104Q28.284374 193.60104 27.8625 193.83542Q27.45625 194.0698 27.221874 194.42917L26.2375 194.30417L27.065624 189.89792L31.346874 189.89792L31.346874 190.89792L27.909374 190.89792L27.45625 193.21042Q28.221874 192.66354 29.065624 192.66354Q30.190624 192.66354 30.95625 193.4448Q31.7375 194.22604 31.7375 195.46042Q31.7375 196.61667 31.065624 197.47604Q30.2375 198.5073 28.815624 198.5073Q27.64375 198.5073 26.89375 197.85104Q26.159374 197.1948 26.05 196.11667ZM33.05 194.1323Q33.05 192.60104 33.3625 191.67917Q33.675 190.74167 34.284374 190.24167Q34.909374 189.74167 35.846874 189.74167Q36.534374 189.74167 37.05 190.02292Q37.58125 190.30417 37.925 190.83542Q38.26875 191.35104 38.45625 192.10104Q38.64375 192.85104 38.64375 194.1323Q38.64375 195.64792 38.33125 196.5698Q38.034374 197.49167 37.409374 198.0073Q36.8 198.5073 35.846874 198.5073Q34.6125 198.5073 33.89375 197.61667Q33.05 196.55417 33.05 194.1323ZM34.128124 194.1323Q34.128124 196.24167 34.628124 196.9448Q35.128124 197.64792 35.846874 197.64792Q36.58125 197.64792 37.065624 196.9448Q37.565624 196.24167 37.565624 194.1323Q37.565624 192.0073 37.065624 191.3198Q36.58125 190.61667 35.83125 190.61667Q35.1125 190.61667 34.675 191.22604Q34.128124 192.0073 34.128124 194.1323Z" fill-rule="nonzero"/><path fill="#000000" d="M26.1125 137.85625L26.1125 136.84062L31.675 136.84062L31.675 137.66875Q30.8625 138.54375 30.05 139.99687Q29.253124 141.43437 28.815624 142.96562Q28.4875 144.04375 28.409374 145.325L27.315624 145.325Q27.33125 144.30937 27.70625 142.87187Q28.096874 141.43437 28.8 140.10625Q29.51875 138.77812 30.33125 137.85625L26.1125 137.85625ZM33.05 143.075L34.159374 142.98125Q34.284374 143.79375 34.721874 144.2Q35.175 144.60625 35.815624 144.60625Q36.565624 144.60625 37.096874 144.02812Q37.628124 143.45 37.628124 142.5125Q37.628124 141.60625 37.1125 141.09062Q36.6125 140.55937 35.784374 140.55937Q35.284374 140.55937 34.8625 140.79375Q34.45625 141.02812 34.221874 141.3875L33.2375 141.2625L34.065624 136.85625L38.346874 136.85625L38.346874 137.85625L34.909374 137.85625L34.45625 140.16875Q35.221874 139.62187 36.065624 139.62187Q37.190624 139.62187 37.95625 140.40312Q38.7375 141.18437 38.7375 142.41875Q38.7375 143.575 38.065624 144.43437Q37.2375 145.46562 35.815624 145.46562Q34.64375 145.46562 33.89375 144.80937Q33.159374 144.15312 33.05 143.075Z" fill-rule="nonzero"/><path fill="#000000" d="M23.01875 92.28333L21.971874 92.28333L21.971874 85.56458Q21.58125 85.92396 20.95625 86.29896Q20.346874 86.65833 19.8625 86.83021L19.8625 85.81458Q20.7375 85.39271 21.39375 84.81458Q22.065624 84.22083 22.346874 83.65833L23.01875 83.65833L23.01875 92.28333ZM26.05 88.04896Q26.05 86.51771 26.3625 85.59583Q26.675 84.65833 27.284374 84.15833Q27.909374 83.65833 28.846874 83.65833Q29.534374 83.65833 30.05 83.93958Q30.58125 84.22083 30.925 84.75208Q31.26875 85.26771 31.45625 86.01771Q31.64375 86.76771 31.64375 88.04896Q31.64375 89.56458 31.33125 90.48646Q31.034374 91.40833 30.409374 91.92396Q29.8 92.42396 28.846874 92.42396Q27.6125 92.42396 26.89375 91.53333Q26.05 90.47083 26.05 88.04896ZM27.128124 88.04896Q27.128124 90.15833 27.628124 90.86146Q28.128124 91.56458 28.846874 91.56458Q29.58125 91.56458 30.065624 90.86146Q30.565624 90.15833 30.565624 88.04896Q30.565624 85.92396 30.065624 85.23646Q29.58125 84.53333 28.83125 84.53333Q28.1125 84.53333 27.675 85.14271Q27.128124 85.92396 27.128124 88.04896ZM33.05 88.04896Q33.05 86.51771 33.3625 85.59583Q33.675 84.65833 34.284374 84.15833Q34.909374 83.65833 35.846874 83.65833Q36.534374 83.65833 37.05 83.93958Q37.58125 84.22083 37.925 84.75208Q38.26875 85.26771 38.45625 86.01771Q38.64375 86.76771 38.64375 88.04896Q38.64375 89.56458 38.33125 90.48646Q38.034374 91.40833 37.409374 91.92396Q36.8 92.42396 35.846874 92.42396Q34.6125 92.42396 33.89375 91.53333Q33.05 90.47083 33.05 88.04896ZM34.128124 88.04896Q34.128124 90.15833 34.628124 90.86146Q35.128124 91.56458 35.846874 91.56458Q36.58125 91.56458 37.065624 90.86146Q37.565624 90.15833 37.565624 88.04896Q37.565624 85.92396 37.065624 85.23646Q36.58125 84.53333 35.83125 84.53333Q35.1125 84.53333 34.675 85.14271Q34.128124 85.92396 34.128124 88.04896Z" fill-rule="nonzero"/><path fill="#000000" d="M42.55 313.21564Q42.55 311.6844 42.8625 310.7625Q43.175 309.825 43.784374 309.325Q44.409374 308.825 45.346874 308.825Q46.034374 308.825 46.55 309.10626Q47.08125 309.3875 47.425 309.91876Q47.76875 310.4344 47.95625 311.1844Q48.14375 311.9344 48.14375 313.21564Q48.14375 314.73126 47.83125 315.65314Q47.534374 316.575 46.909374 317.09064Q46.3 317.59064 45.346874 317.59064Q44.1125 317.59064 43.39375 316.7Q42.55 315.6375 42.55 313.21564ZM43.628124 313.21564Q43.628124 315.325 44.128124 316.02814Q44.628124 316.73126 45.346874 316.73126Q46.08125 316.73126 46.565624 316.02814Q47.065624 315.325 47.065624 313.21564Q47.065624 311.09064 46.565624 310.40314Q46.08125 309.7 45.33125 309.7Q44.6125 309.7 44.175 310.3094Q43.628124 311.09064 43.628124 313.21564Z" fill-rule="nonzero"/><path fill="#000000" d="M209.5794 315.2L210.68878 315.10626Q210.81378 315.91876 211.25128 316.325Q211.7044 316.73126 212.34503 316.73126Q213.09503 316.73126 213.62628 316.15314Q214.15753 315.575 214.15753 314.6375Q214.15753 313.73126 213.6419 313.21564Q213.1419 312.6844 212.31378 312.6844Q211.81378 312.6844 211.3919 312.91876Q210.98566 313.15314 210.75128 313.5125L209.7669 313.3875L210.59503 308.98126L214.87628 308.98126L214.87628 309.98126L211.43878 309.98126L210.98566 312.29376Q211.75128 311.7469 212.59503 311.7469Q213.72003 311.7469 214.48566 312.52814Q215.2669 313.3094 215.2669 314.54376Q215.2669 315.7 214.59503 316.5594Q213.7669 317.59064 212.34503 317.59064Q211.17316 317.59064 210.42316 316.9344Q209.68878 316.27814 209.5794 315.2Z" fill-rule="nonzero"/><path fill="#000000" d="M377.07758 317.45L376.0307 317.45L376.0307 310.73126Q375.64008 311.09064 375.01508 311.46564Q374.4057 311.825 373.92133 311.9969L373.92133 310.98126Q374.79633 310.5594 375.45258 309.98126Q376.12445 309.3875 376.4057 308.825L377.07758 308.825L377.07758 317.45ZM380.10883 313.21564Q380.10883 311.6844 380.42133 310.7625Q380.73383 309.825 381.3432 309.325Q381.9682 308.825 382.9057 308.825Q383.5932 308.825 384.10883 309.10626Q384.64008 309.3875 384.98383 309.91876Q385.32758 310.4344 385.51508 311.1844Q385.70258 311.9344 385.70258 313.21564Q385.70258 314.73126 385.39008 315.65314Q385.0932 316.575 384.4682 317.09064Q383.85883 317.59064 382.9057 317.59064Q381.67133 317.59064 380.95258 316.7Q380.10883 315.6375 380.10883 313.21564ZM381.18695 313.21564Q381.18695 315.325 381.68695 316.02814Q382.18695 316.73126 382.9057 316.73126Q383.64008 316.73126 384.12445 316.02814Q384.62445 315.325 384.62445 313.21564Q384.62445 311.09064 384.12445 310.40314Q383.64008 309.7 382.89008 309.7Q382.17133 309.7 381.73383 310.3094Q381.18695 311.09064 381.18695 313.21564Z" fill-rule="nonzero"/><path fill="#000000" d="M544.107 317.45L543.0601 317.45L543.0601 310.73126Q542.6695 311.09064 542.0445 311.46564Q541.4351 311.825 540.95074 311.9969L540.95074 310.98126Q541.82574 310.5594 542.482 309.98126Q543.1539 309.3875 543.4351 308.825L544.107 308.825L544.107 317.45ZM547.13824 315.2L548.2476 315.10626Q548.3726 315.91876 548.8101 316.325Q549.26324 316.73126 549.9039 316.73126Q550.6539 316.73126 551.1851 316.15314Q551.7164 315.575 551.7164 314.6375Q551.7164 313.73126 551.20074 313.21564Q550.70074 312.6844 549.8726 312.6844Q549.3726 312.6844 548.95074 312.91876Q548.5445 313.15314 548.3101 313.5125L547.32574 313.3875L548.1539 308.98126L552.4351 308.98126L552.4351 309.98126L548.9976 309.98126L548.5445 312.29376Q549.3101 311.7469 550.1539 311.7469Q551.2789 311.7469 552.0445 312.52814Q552.82574 313.3094 552.82574 314.54376Q552.82574 315.7 552.1539 316.5594Q551.32574 317.59064 549.9039 317.59064Q548.732 317.59064 547.982 316.9344Q547.2476 316.27814 547.13824 315.2Z" fill-rule="nonzero"/><path fill="#4285f4" d="M221.0 56.916668C221.0 56.364384 221.44771 55.916668 222.0 55.916668L232.0 55.916668C232.55229 55.916668 233.0 56.364384 233.0 56.916668L233.0 66.916664C233.0 67.46895 232.55229 67.916664 232.0 67.916664L222.0 67.916664C221.44771 67.916664 221.0 67.46895 221.0 66.916664Z" fill-rule="nonzero"/><path fill="#1a1a1a" d="M242.04688 65.916664L242.04688 60.510414L241.10938 60.510414L241.10938 59.697914L242.04688 59.697914L242.04688 59.02604Q242.04688 58.40104 242.15625 58.104164Q242.3125 57.68229 242.6875 57.43229Q243.07812 57.18229 243.76562 57.18229Q244.21875 57.18229 244.75 57.291664L244.59375 58.197914Q244.26562 58.15104 243.96875 58.15104Q243.48438 58.15104 243.28125 58.354164Q243.09375 58.55729 243.09375 59.11979L243.09375 59.697914L244.3125 59.697914L244.3125 60.510414L243.09375 60.510414L243.09375 65.916664L242.04688 65.916664ZM244.40625 62.80729Q244.40625 61.072914 245.35938 60.24479Q246.15625 59.55729 247.3125 59.55729Q248.59375 59.55729 249.40625 60.40104Q250.23438 61.229164 250.23438 62.71354Q250.23438 63.916664 249.875 64.604164Q249.51562 65.291664 248.8125 65.68229Q248.125 66.05729 247.3125 66.05729Q246.01562 66.05729 245.20312 65.229164Q244.40625 64.385414 244.40625 62.80729ZM245.48438 62.80729Q245.48438 63.99479 246.0 64.58854Q246.53125 65.18229 247.3125 65.18229Q248.10938 65.18229 248.625 64.58854Q249.14062 63.99479 249.14062 62.77604Q249.14062 61.61979 248.60938 61.02604Q248.09375 60.43229 247.3125 60.43229Q246.53125 60.43229 246.0 61.02604Q245.48438 61.604164 245.48438 62.80729ZM251.78125 65.916664L251.78125 59.697914L252.73438 59.697914L252.73438 60.635414Q253.09375 59.979164 253.39062 59.77604Q253.70312 59.55729 254.07812 59.55729Q254.60938 59.55729 255.15625 59.885414L254.79688 60.86979Q254.40625 60.635414 254.03125 60.635414Q253.67188 60.635414 253.39062 60.854164Q253.125 61.05729 253.01562 61.43229Q252.82812 61.99479 252.82812 62.65104L252.82812 65.916664L251.78125 65.916664ZM260.04688 63.916664L261.14062 64.041664Q260.89062 64.99479 260.1875 65.52604Q259.48438 66.05729 258.40625 66.05729Q257.04688 66.05729 256.23438 65.21354Q255.4375 64.36979 255.4375 62.854164Q255.4375 61.291664 256.25 60.43229Q257.0625 59.55729 258.34375 59.55729Q259.59375 59.55729 260.375 60.40104Q261.17188 61.24479 261.17188 62.791664Q261.17188 62.885414 261.17188 63.072914L256.53125 63.072914Q256.59375 64.104164 257.10938 64.65104Q257.625 65.18229 258.40625 65.18229Q258.98438 65.18229 259.39062 64.885414Q259.8125 64.572914 260.04688 63.916664ZM256.59375 62.21354L260.0625 62.21354Q260.0 61.416664 259.67188 61.02604Q259.15625 60.416664 258.35938 60.416664Q257.625 60.416664 257.125 60.90104Q256.64062 61.385414 256.59375 62.21354ZM262.375 64.05729L263.40625 63.90104Q263.5 64.52604 263.89062 64.854164Q264.29688 65.18229 265.03125 65.18229Q265.75 65.18229 266.09375 64.90104Q266.45312 64.604164 266.45312 64.197914Q266.45312 63.83854 266.14062 63.635414Q265.92188 63.49479 265.0625 63.27604Q263.90625 62.979164 263.45312 62.77604Q263.01562 62.55729 262.78125 62.18229Q262.54688 61.80729 262.54688 61.33854Q262.54688 60.93229 262.73438 60.572914Q262.92188 60.21354 263.25 59.979164Q263.5 59.80729 263.92188 59.68229Q264.34375 59.55729 264.84375 59.55729Q265.5625 59.55729 266.10938 59.77604Q266.67188 59.979164 266.9375 60.33854Q267.20312 60.697914 267.29688 61.291664L266.26562 61.43229Q266.20312 60.96354 265.85938 60.697914Q265.53125 60.416664 264.90625 60.416664Q264.1875 60.416664 263.875 60.666664Q263.5625 60.90104 263.5625 61.229164Q263.5625 61.43229 263.6875 61.58854Q263.82812 61.760414 264.09375 61.86979Q264.25 61.93229 265.03125 62.135414Q266.15625 62.447914 266.59375 62.635414Q267.03125 62.822914 267.28125 63.18229Q267.53125 63.541664 267.53125 64.08854Q267.53125 64.61979 267.21875 65.08854Q266.92188 65.541664 266.34375 65.80729Q265.76562 66.05729 265.03125 66.05729Q263.8125 66.05729 263.17188 65.55729Q262.54688 65.041664 262.375 64.05729ZM271.09375 64.979164L271.25 65.90104Q270.79688 65.99479 270.45312 65.99479Q269.875 65.99479 269.5625 65.822914Q269.25 65.635414 269.10938 65.33854Q268.98438 65.041664 268.98438 64.08854L268.98438 60.510414L268.21875 60.510414L268.21875 59.697914L268.98438 59.697914L268.98438 58.15104L270.03125 57.52604L270.03125 59.697914L271.09375 59.697914L271.09375 60.510414L270.03125 60.510414L270.03125 64.15104Q270.03125 64.604164 270.07812 64.729164Q270.14062 64.854164 270.26562 64.93229Q270.39062 65.010414 270.625 65.010414Q270.8125 65.010414 271.09375 64.979164ZM274.375 64.05729L275.40625 63.90104Q275.5 64.52604 275.89062 64.854164Q276.29688 65.18229 277.03125 65.18229Q277.75 65.18229 278.09375 64.90104Q278.45312 64.604164 278.45312 64.197914Q278.45312 63.83854 278.14062 63.635414Q277.92188 63.49479 277.0625 63.27604Q275.90625 62.979164 275.45312 62.77604Q275.01562 62.55729 274.78125 62.18229Q274.54688 61.80729 274.54688 61.33854Q274.54688 60.93229 274.73438 60.572914Q274.92188 60.21354 275.25 59.979164Q275.5 59.80729 275.92188 59.68229Q276.34375 59.55729 276.84375 59.55729Q277.5625 59.55729 278.10938 59.77604Q278.67188 59.979164 278.9375 60.33854Q279.20312 60.697914 279.29688 61.291664L278.26562 61.43229Q278.20312 60.96354 277.85938 60.697914Q277.53125 60.416664 276.90625 60.416664Q276.1875 60.416664 275.875 60.666664Q275.5625 60.90104 275.5625 61.229164Q275.5625 61.43229 275.6875 61.58854Q275.82812 61.760414 276.09375 61.86979Q276.25 61.93229 277.03125 62.135414Q278.15625 62.447914 278.59375 62.635414Q279.03125 62.822914 279.28125 63.18229Q279.53125 63.541664 279.53125 64.08854Q279.53125 64.61979 279.21875 65.08854Q278.92188 65.541664 278.34375 65.80729Q277.76562 66.05729 277.03125 66.05729Q275.8125 66.05729 275.17188 65.55729Q274.54688 65.041664 274.375 64.05729ZM280.79688 58.541664L280.79688 57.322914L281.85938 57.322914L281.85938 58.541664L280.79688 58.541664ZM280.79688 65.916664L280.79688 59.697914L281.85938 59.697914L281.85938 65.916664L280.79688 65.916664ZM283.23438 65.916664L283.23438 65.05729L287.20312 60.510414Q286.51562 60.541664 286.0 60.541664L283.46875 60.541664L283.46875 59.697914L288.5625 59.697914L288.5625 60.385414L285.1875 64.33854L284.53125 65.05729Q285.25 65.010414 285.85938 65.010414L288.75 65.010414L288.75 65.916664L283.23438 65.916664ZM294.04688 63.916664L295.14062 64.041664Q294.89062 64.99479 294.1875 65.52604Q293.48438 66.05729 292.40625 66.05729Q291.04688 66.05729 290.23438 65.21354Q289.4375 64.36979 289.4375 62.854164Q289.4375 61.291664 290.25 60.43229Q291.0625 59.55729 292.34375 59.55729Q293.59375 59.55729 294.375 60.40104Q295.17188 61.24479 295.17188 62.791664Q295.17188 62.885414 295.17188 63.072914L290.53125 63.072914Q290.59375 64.104164 291.10938 64.65104Q291.625 65.18229 292.40625 65.18229Q292.98438 65.18229 293.39062 64.885414Q293.8125 64.572914 294.04688 63.916664ZM290.59375 62.21354L294.0625 62.21354Q294.0 61.416664 293.67188 61.02604Q293.15625 60.416664 292.35938 60.416664Q291.625 60.416664 291.125 60.90104Q290.64062 61.385414 290.59375 62.21354Z" fill-rule="nonzero"/><path fill="#ea4335" d="M312.0 56.916668C312.0 56.364384 312.44772 55.916668 313.0 55.916668L323.0 55.916668C323.55228 55.916668 324.0 56.364384 324.0 56.916668L324.0 66.916664C324.0 67.46895 323.55228 67.916664 323.0 67.916664L313.0 67.916664C312.44772 67.916664 312.0 67.46895 312.0 66.916664Z" fill-rule="nonzero"/><path fill="#1a1a1a" d="M332.59375 66.43229L333.625 66.58854Q333.6875 67.05729 333.98438 67.27604Q334.375 67.572914 335.04688 67.572914Q335.78125 67.572914 336.17188 67.27604Q336.57812 66.979164 336.71875 66.46354Q336.8125 66.135414 336.79688 65.104164Q336.10938 65.916664 335.07812 65.916664Q333.79688 65.916664 333.09375 64.99479Q332.39062 64.05729 332.39062 62.77604Q332.39062 61.885414 332.70312 61.135414Q333.03125 60.36979 333.64062 59.96354Q334.25 59.55729 335.07812 59.55729Q336.1875 59.55729 336.90625 60.447914L336.90625 59.697914L337.875 59.697914L337.875 65.072914Q337.875 66.52604 337.57812 67.135414Q337.28125 67.74479 336.64062 68.08854Q336.0 68.447914 335.0625 68.447914Q333.95312 68.447914 333.26562 67.947914Q332.57812 67.447914 332.59375 66.43229ZM333.46875 62.697914Q333.46875 63.916664 333.95312 64.479164Q334.4375 65.041664 335.17188 65.041664Q335.90625 65.041664 336.39062 64.479164Q336.89062 63.916664 336.89062 62.729164Q336.89062 61.58854 336.375 61.010414Q335.875 60.43229 335.15625 60.43229Q334.45312 60.43229 333.95312 61.010414Q333.46875 61.572914 333.46875 62.697914ZM339.78125 65.916664L339.78125 59.697914L340.73438 59.697914L340.73438 60.635414Q341.09375 59.979164 341.39062 59.77604Q341.70312 59.55729 342.07812 59.55729Q342.60938 59.55729 343.15625 59.885414L342.79688 60.86979Q342.40625 60.635414 342.03125 60.635414Q341.67188 60.635414 341.39062 60.854164Q341.125 61.05729 341.01562 61.43229Q340.82812 61.99479 340.82812 62.65104L340.82812 65.916664L339.78125 65.916664ZM348.04688 63.916664L349.14062 64.041664Q348.89062 64.99479 348.1875 65.52604Q347.48438 66.05729 346.40625 66.05729Q345.04688 66.05729 344.23438 65.21354Q343.4375 64.36979 343.4375 62.854164Q343.4375 61.291664 344.25 60.43229Q345.0625 59.55729 346.34375 59.55729Q347.59375 59.55729 348.375 60.40104Q349.17188 61.24479 349.17188 62.791664Q349.17188 62.885414 349.17188 63.072914L344.53125 63.072914Q344.59375 64.104164 345.10938 64.65104Q345.625 65.18229 346.40625 65.18229Q346.98438 65.18229 347.39062 64.885414Q347.8125 64.572914 348.04688 63.916664ZM344.59375 62.21354L348.0625 62.21354Q348.0 61.416664 347.67188 61.02604Q347.15625 60.416664 346.35938 60.416664Q345.625 60.416664 345.125 60.90104Q344.64062 61.385414 344.59375 62.21354ZM351.9375 65.916664L350.03125 59.697914L351.125 59.697914L352.10938 63.291664L352.48438 64.61979Q352.51562 64.52604 352.8125 63.33854L353.79688 59.697914L354.875 59.697914L355.8125 63.30729L356.125 64.49479L356.48438 63.291664L357.54688 59.697914L358.57812 59.697914L356.625 65.916664L355.53125 65.916664L354.54688 62.18229L354.29688 61.135414L353.04688 65.916664L351.9375 65.916664Z" fill-rule="nonzero"/><path fill="#fbbc04" d="M375.0 56.916668C375.0 56.364384 375.44772 55.916668 376.0 55.916668L386.0 55.916668C386.55228 55.916668 387.0 56.364384 387.0 56.916668L387.0 66.916664C387.0 67.46895 386.55228 67.916664 386.0 67.916664L376.0 67.916664C375.44772 67.916664 375.0 67.46895 375.0 66.916664Z" fill-rule="nonzero"/><path fill="#1a1a1a" d="M399.85938 63.635414L400.89062 63.77604Q400.71875 64.83854 400.01562 65.447914Q399.3125 66.05729 398.29688 66.05729Q397.01562 66.05729 396.23438 65.229164Q395.46875 64.385414 395.46875 62.822914Q395.46875 61.822914 395.79688 61.072914Q396.14062 60.30729 396.8125 59.93229Q397.5 59.55729 398.3125 59.55729Q399.3125 59.55729 399.95312 60.072914Q400.60938 60.572914 400.79688 61.52604L399.76562 61.68229Q399.625 61.05729 399.25 60.74479Q398.875 60.416664 398.34375 60.416664Q397.54688 60.416664 397.04688 60.99479Q396.54688 61.55729 396.54688 62.791664Q396.54688 64.05729 397.03125 64.61979Q397.51562 65.18229 398.28125 65.18229Q398.90625 65.18229 399.3125 64.80729Q399.73438 64.43229 399.85938 63.635414ZM405.875 65.916664L405.875 64.99479Q405.14062 66.05729 403.89062 66.05729Q403.34375 66.05729 402.85938 65.854164Q402.39062 65.635414 402.15625 65.322914Q401.92188 64.99479 401.82812 64.52604Q401.76562 64.229164 401.76562 63.541664L401.76562 59.697914L402.82812 59.697914L402.82812 63.15104Q402.82812 63.96354 402.89062 64.260414Q402.98438 64.666664 403.29688 64.916664Q403.625 65.15104 404.10938 65.15104Q404.57812 65.15104 404.98438 64.916664Q405.40625 64.666664 405.57812 64.24479Q405.76562 63.822914 405.76562 63.02604L405.76562 59.697914L406.8125 59.697914L406.8125 65.916664L405.875 65.916664ZM411.09375 64.979164L411.25 65.90104Q410.79688 65.99479 410.45312 65.99479Q409.875 65.99479 409.5625 65.822914Q409.25 65.635414 409.10938 65.33854Q408.98438 65.041664 408.98438 64.08854L408.98438 60.510414L408.21875 60.510414L408.21875 59.697914L408.98438 59.697914L408.98438 58.15104L410.03125 57.52604L410.03125 59.697914L411.09375 59.697914L411.09375 60.510414L410.03125 60.510414L410.03125 64.15104Q410.03125 64.604164 410.07812 64.729164Q410.14062 64.854164 410.26562 64.93229Q410.39062 65.010414 410.625 65.010414Q410.8125 65.010414 411.09375 64.979164Z" fill-rule="nonzero"/><path fill="#757575" d="M20.190624 37.55L20.190624 23.2375L29.846874 23.2375L29.846874 24.925L22.08125 24.925L22.08125 29.3625L28.8 29.3625L28.8 31.05L22.08125 31.05L22.08125 37.55L20.190624 37.55ZM31.221874 32.3625Q31.221874 29.4875 32.815624 28.096874Q34.159374 26.940624 36.08125 26.940624Q38.221874 26.940624 39.565624 28.346874Q40.925 29.753124 40.925 32.221874Q40.925 34.221874 40.33125 35.378124Q39.7375 36.51875 38.58125 37.159374Q37.440624 37.784374 36.08125 37.784374Q33.89375 37.784374 32.55 36.39375Q31.221874 34.9875 31.221874 32.3625ZM33.01875 32.3625Q33.01875 34.3625 33.878124 35.346874Q34.753124 36.33125 36.08125 36.33125Q37.39375 36.33125 38.253124 35.346874Q39.128124 34.346874 39.128124 32.3Q39.128124 30.378124 38.253124 29.39375Q37.378124 28.39375 36.08125 28.39375Q34.753124 28.39375 33.878124 29.39375Q33.01875 30.378124 33.01875 32.3625ZM42.846874 37.55L42.846874 27.175L44.425 27.175L44.425 28.753124Q45.034374 27.64375 45.55 27.3Q46.065624 26.940624 46.675 26.940624Q47.565624 26.940624 48.4875 27.503124L47.878124 29.14375Q47.2375 28.753124 46.596874 28.753124Q46.01875 28.753124 45.55 29.1125Q45.096874 29.45625 44.89375 30.065624Q44.6125 31.003124 44.6125 32.1125L44.6125 37.55L42.846874 37.55ZM56.971874 34.20625L58.784374 34.440624Q58.3625 36.01875 57.190624 36.909374Q56.034374 37.784374 54.221874 37.784374Q51.95625 37.784374 50.6125 36.39375Q49.284374 34.9875 49.284374 32.45625Q49.284374 29.83125 50.628124 28.39375Q51.971874 26.940624 54.128124 26.940624Q56.20625 26.940624 57.51875 28.3625Q58.846874 29.76875 58.846874 32.346874Q58.846874 32.503124 58.83125 32.815624L51.096874 32.815624Q51.190624 34.51875 52.065624 35.425Q52.940624 36.33125 54.2375 36.33125Q55.20625 36.33125 55.878124 35.83125Q56.565624 35.315624 56.971874 34.20625ZM51.190624 31.3625L56.9875 31.3625Q56.878124 30.065624 56.33125 29.409374Q55.4875 28.39375 54.14375 28.39375Q52.940624 28.39375 52.1125 29.20625Q51.284374 30.003124 51.190624 31.3625ZM60.159374 34.45625L61.909374 34.175Q62.05 35.221874 62.721874 35.784374Q63.39375 36.33125 64.59688 36.33125Q65.8 36.33125 66.37813 35.846874Q66.97188 35.346874 66.97188 34.690624Q66.97188 34.096874 66.45625 33.753124Q66.09688 33.51875 64.65938 33.159374Q62.721874 32.659374 61.971874 32.315624Q61.2375 31.95625 60.846874 31.33125Q60.45625 30.690624 60.45625 29.925Q60.45625 29.2375 60.76875 28.64375Q61.096874 28.05 61.64375 27.659374Q62.05 27.3625 62.753124 27.159374Q63.471874 26.940624 64.28438 26.940624Q65.50313 26.940624 66.425 27.3Q67.34688 27.64375 67.78438 28.253124Q68.22188 28.846874 68.39375 29.846874L66.675 30.08125Q66.55 29.284374 65.9875 28.846874Q65.425 28.39375 64.40938 28.39375Q63.190624 28.39375 62.675 28.8Q62.159374 29.190624 62.159374 29.721874Q62.159374 30.065624 62.378124 30.346874Q62.58125 30.628124 63.05 30.815624Q63.315624 30.909374 64.59688 31.253124Q66.47188 31.753124 67.20625 32.08125Q67.94063 32.39375 68.3625 33.003124Q68.78438 33.596874 68.78438 34.503124Q68.78438 35.378124 68.26875 36.159374Q67.75313 36.940624 66.78438 37.3625Q65.81563 37.784374 64.59688 37.784374Q62.58125 37.784374 61.51875 36.940624Q60.45625 36.096874 60.159374 34.45625ZM74.70625 35.971874L74.95625 37.534374Q74.22188 37.690624 73.62813 37.690624Q72.675 37.690624 72.14375 37.39375Q71.62813 37.08125 71.40938 36.596874Q71.19063 36.096874 71.19063 34.51875L71.19063 28.55L69.90938 28.55L69.90938 27.175L71.19063 27.175L71.19063 24.6125L72.94063 23.55L72.94063 27.175L74.70625 27.175L74.70625 28.55L72.94063 28.55L72.94063 34.6125Q72.94063 35.3625 73.03438 35.58125Q73.12813 35.784374 73.33125 35.925Q73.55 36.05 73.94063 36.05Q74.22188 36.05 74.70625 35.971874ZM82.15938 34.45625L83.90938 34.175Q84.05 35.221874 84.72188 35.784374Q85.39375 36.33125 86.59688 36.33125Q87.8 36.33125 88.37813 35.846874Q88.97188 35.346874 88.97188 34.690624Q88.97188 34.096874 88.45625 33.753124Q88.09688 33.51875 86.65938 33.159374Q84.72188 32.659374 83.97188 32.315624Q83.2375 31.95625 82.84688 31.33125Q82.45625 30.690624 82.45625 29.925Q82.45625 29.2375 82.76875 28.64375Q83.09688 28.05 83.64375 27.659374Q84.05 27.3625 84.75313 27.159374Q85.47188 26.940624 86.28438 26.940624Q87.50313 26.940624 88.425 27.3Q89.34688 27.64375 89.78438 28.253124Q90.22188 28.846874 90.39375 29.846874L88.675 30.08125Q88.55 29.284374 87.9875 28.846874Q87.425 28.39375 86.40938 28.39375Q85.19063 28.39375 84.675 28.8Q84.15938 29.190624 84.15938 29.721874Q84.15938 30.065624 84.37813 30.346874Q84.58125 30.628124 85.05 30.815624Q85.31563 30.909374 86.59688 31.253124Q88.47188 31.753124 89.20625 32.08125Q89.94063 32.39375 90.3625 33.003124Q90.78438 33.596874 90.78438 34.503124Q90.78438 35.378124 90.26875 36.159374Q89.75313 36.940624 88.78438 37.3625Q87.81563 37.784374 86.59688 37.784374Q84.58125 37.784374 83.51875 36.940624Q82.45625 36.096874 82.15938 34.45625ZM92.87813 25.253124L92.87813 23.2375L94.64375 23.2375L94.64375 25.253124L92.87813 25.253124ZM92.87813 37.55L92.87813 27.175L94.64375 27.175L94.64375 37.55L92.87813 37.55ZM95.94063 37.55L95.94063 36.128124L102.55 28.55Q101.425 28.596874 100.56563 28.596874L96.33125 28.596874L96.33125 27.175L104.81563 27.175L104.81563 28.346874L99.19063 34.925L98.1125 36.128124Q99.28438 36.034374 100.33125 36.034374L105.12813 36.034374L105.12813 37.55L95.94063 37.55ZM113.97188 34.20625L115.78438 34.440624Q115.3625 36.01875 114.19063 36.909374Q113.03438 37.784374 111.22188 37.784374Q108.95625 37.784374 107.6125 36.39375Q106.28438 34.9875 106.28438 32.45625Q106.28438 29.83125 107.62813 28.39375Q108.97188 26.940624 111.12813 26.940624Q113.20625 26.940624 114.51875 28.3625Q115.84688 29.76875 115.84688 32.346874Q115.84688 32.503124 115.83125 32.815624L108.09688 32.815624Q108.19063 34.51875 109.06563 35.425Q109.94063 36.33125 111.2375 36.33125Q112.20625 36.33125 112.87813 35.83125Q113.56563 35.315624 113.97188 34.20625ZM108.19063 31.3625L113.9875 31.3625Q113.87813 30.065624 113.33125 29.409374Q112.4875 28.39375 111.14375 28.39375Q109.94063 28.39375 109.1125 29.20625Q108.28438 30.003124 108.19063 31.3625ZM118.33125 37.55L118.33125 35.55L120.33125 35.55L120.33125 37.55Q120.33125 38.659374 119.94063 39.33125Q119.55 40.01875 118.70625 40.378124L118.20625 39.628124Q118.76875 39.39375 119.03438 38.909374Q119.3 38.440624 119.33125 37.55L118.33125 37.55ZM129.15938 34.45625L130.90938 34.175Q131.05 35.221874 131.72188 35.784374Q132.39375 36.33125 133.59688 36.33125Q134.8 36.33125 135.37813 35.846874Q135.97188 35.346874 135.97188 34.690624Q135.97188 34.096874 135.45625 33.753124Q135.09688 33.51875 133.65938 33.159374Q131.72188 32.659374 130.97188 32.315624Q130.2375 31.95625 129.84688 31.33125Q129.45625 30.690624 129.45625 29.925Q129.45625 29.2375 129.76875 28.64375Q130.09688 28.05 130.64375 27.659374Q131.05 27.3625 131.75313 27.159374Q132.47188 26.940624 133.28438 26.940624Q134.50313 26.940624 135.425 27.3Q136.34688 27.64375 136.78438 28.253124Q137.22188 28.846874 137.39375 29.846874L135.675 30.08125Q135.55 29.284374 134.9875 28.846874Q134.425 28.39375 133.40938 28.39375Q132.19063 28.39375 131.675 28.8Q131.15938 29.190624 131.15938 29.721874Q131.15938 30.065624 131.37813 30.346874Q131.58125 30.628124 132.05 30.815624Q132.31563 30.909374 133.59688 31.253124Q135.47188 31.753124 136.20625 32.08125Q136.94063 32.39375 137.3625 33.003124Q137.78438 33.596874 137.78438 34.503124Q137.78438 35.378124 137.26875 36.159374Q136.75313 36.940624 135.78438 37.3625Q134.81563 37.784374 133.59688 37.784374Q131.58125 37.784374 130.51875 36.940624Q129.45625 36.096874 129.15938 34.45625ZM143.70625 35.971874L143.95625 37.534374Q143.22188 37.690624 142.62813 37.690624Q141.675 37.690624 141.14375 37.39375Q140.62813 37.08125 140.40938 36.596874Q140.19063 36.096874 140.19063 34.51875L140.19063 28.55L138.90938 28.55L138.90938 27.175L140.19063 27.175L140.19063 24.6125L141.94063 23.55L141.94063 27.175L143.70625 27.175L143.70625 28.55L141.94063 28.55L141.94063 34.6125Q141.94063 35.3625 142.03438 35.58125Q142.12813 35.784374 142.33125 35.925Q142.55 36.05 142.94063 36.05Q143.22188 36.05 143.70625 35.971874ZM152.64375 36.26875Q151.65938 37.096874 150.75313 37.440624Q149.84688 37.784374 148.81563 37.784374Q147.1125 37.784374 146.19063 36.95625Q145.26875 36.1125 145.26875 34.815624Q145.26875 34.05 145.6125 33.425Q145.97188 32.8 146.53438 32.425Q147.09688 32.034374 147.8 31.83125Q148.31563 31.70625 149.3625 31.565624Q151.4875 31.315624 152.4875 30.971874Q152.50313 30.6125 152.50313 30.503124Q152.50313 29.440624 152.00313 28.9875Q151.33125 28.39375 150.00313 28.39375Q148.75313 28.39375 148.15938 28.83125Q147.58125 29.26875 147.3 30.378124L145.58125 30.14375Q145.81563 29.034374 146.34688 28.3625Q146.87813 27.675 147.89375 27.315624Q148.90938 26.940624 150.25313 26.940624Q151.58125 26.940624 152.40938 27.253124Q153.2375 27.565624 153.62813 28.05Q154.01875 28.51875 154.175 29.2375Q154.26875 29.690624 154.26875 30.8625L154.26875 33.20625Q154.26875 35.659374 154.37813 36.315624Q154.4875 36.95625 154.83125 37.55L152.9875 37.55Q152.72188 37.003124 152.64375 36.26875ZM152.4875 32.346874Q151.53438 32.7375 149.6125 33.003124Q148.53438 33.159374 148.08125 33.3625Q147.64375 33.55 147.39375 33.925Q147.14375 34.3 147.14375 34.76875Q147.14375 35.471874 147.675 35.940624Q148.20625 36.409374 149.2375 36.409374Q150.25313 36.409374 151.03438 35.971874Q151.83125 35.51875 152.20625 34.753124Q152.4875 34.14375 152.4875 32.9875L152.4875 32.346874ZM156.84688 37.55L156.84688 27.175L158.425 27.175L158.425 28.753124Q159.03438 27.64375 159.55 27.3Q160.06563 26.940624 160.675 26.940624Q161.56563 26.940624 162.4875 27.503124L161.87813 29.14375Q161.2375 28.753124 160.59688 28.753124Q160.01875 28.753124 159.55 29.1125Q159.09688 29.45625 158.89375 30.065624Q158.6125 31.003124 158.6125 32.1125L158.6125 37.55L156.84688 37.55ZM167.70625 35.971874L167.95625 37.534374Q167.22188 37.690624 166.62813 37.690624Q165.675 37.690624 165.14375 37.39375Q164.62813 37.08125 164.40938 36.596874Q164.19063 36.096874 164.19063 34.51875L164.19063 28.55L162.90938 28.55L162.90938 27.175L164.19063 27.175L164.19063 24.6125L165.94063 23.55L165.94063 27.175L167.70625 27.175L167.70625 28.55L165.94063 28.55L165.94063 34.6125Q165.94063 35.3625 166.03438 35.58125Q166.12813 35.784374 166.33125 35.925Q166.55 36.05 166.94063 36.05Q167.22188 36.05 167.70625 35.971874ZM177.78438 37.55L174.6125 27.175L176.425 27.175L178.08125 33.159374L178.69063 35.39375Q178.7375 35.221874 179.22188 33.253124L180.87813 27.175L182.69063 27.175L184.2375 33.190624L184.75313 35.175L185.34688 33.175L187.12813 27.175L188.83125 27.175L185.59688 37.55L183.76875 37.55L182.1125 31.33125L181.72188 29.565624L179.6125 37.55L177.78438 37.55ZM189.87813 25.253124L189.87813 23.2375L191.64375 23.2375L191.64375 25.253124L189.87813 25.253124ZM189.87813 37.55L189.87813 27.175L191.64375 27.175L191.64375 37.55L189.87813 37.55ZM197.70625 35.971874L197.95625 37.534374Q197.22188 37.690624 196.62813 37.690624Q195.675 37.690624 195.14375 37.39375Q194.62813 37.08125 194.40938 36.596874Q194.19063 36.096874 194.19063 34.51875L194.19063 28.55L192.90938 28.55L192.90938 27.175L194.19063 27.175L194.19063 24.6125L195.94063 23.55L195.94063 27.175L197.70625 27.175L197.70625 28.55L195.94063 28.55L195.94063 34.6125Q195.94063 35.3625 196.03438 35.58125Q196.12813 35.784374 196.33125 35.925Q196.55 36.05 196.94063 36.05Q197.22188 36.05 197.70625 35.971874ZM199.8625 37.55L199.8625 23.2375L201.62813 23.2375L201.62813 28.3625Q202.8625 26.940624 204.7375 26.940624Q205.87813 26.940624 206.72188 27.39375Q207.58125 27.846874 207.94063 28.659374Q208.31563 29.45625 208.31563 30.971874L208.31563 37.55L206.56563 37.55L206.56563 30.971874Q206.56563 29.659374 205.9875 29.065624Q205.40938 28.45625 204.37813 28.45625Q203.59688 28.45625 202.89375 28.8625Q202.20625 29.26875 201.90938 29.971874Q201.62813 30.659374 201.62813 31.878124L201.62813 37.55L199.8625 37.55ZM223.00313 37.55L221.2375 37.55L221.2375 26.346874Q220.6125 26.95625 219.58125 27.565624Q218.55 28.159374 217.72188 28.471874L217.72188 26.76875Q219.20625 26.08125 220.3 25.096874Q221.40938 24.096874 221.8625 23.175L223.00313 23.175L223.00313 37.55ZM227.37813 30.4875Q227.37813 27.95625 227.89375 26.409374Q228.425 24.846874 229.45625 24.01875Q230.4875 23.175 232.05 23.175Q233.20625 23.175 234.06563 23.64375Q234.94063 24.096874 235.50313 24.971874Q236.06563 25.846874 236.39375 27.1125Q236.72188 28.3625 236.72188 30.4875Q236.72188 33.003124 236.19063 34.55Q235.675 36.096874 234.64375 36.95625Q233.62813 37.8 232.05 37.8Q229.97188 37.8 228.8 36.315624Q227.37813 34.51875 227.37813 30.4875ZM229.19063 30.4875Q229.19063 34.01875 230.00313 35.190624Q230.83125 36.346874 232.05 36.346874Q233.25313 36.346874 234.08125 35.175Q234.90938 34.003124 234.90938 30.4875Q234.90938 26.95625 234.08125 25.8Q233.25313 24.628124 232.03438 24.628124Q230.81563 24.628124 230.09688 25.659374Q229.19063 26.95625 229.19063 30.4875ZM238.37813 30.4875Q238.37813 27.95625 238.89375 26.409374Q239.425 24.846874 240.45625 24.01875Q241.4875 23.175 243.05 23.175Q244.20625 23.175 245.06563 23.64375Q245.94063 24.096874 246.50313 24.971874Q247.06563 25.846874 247.39375 27.1125Q247.72188 28.3625 247.72188 30.4875Q247.72188 33.003124 247.19063 34.55Q246.675 36.096874 245.64375 36.95625Q244.62813 37.8 243.05 37.8Q240.97188 37.8 239.8 36.315624Q238.37813 34.51875 238.37813 30.4875ZM240.19063 30.4875Q240.19063 34.01875 241.00313 35.190624Q241.83125 36.346874 243.05 36.346874Q244.25313 36.346874 245.08125 35.175Q245.90938 34.003124 245.90938 30.4875Q245.90938 26.95625 245.08125 25.8Q244.25313 24.628124 243.03438 24.628124Q241.81563 24.628124 241.09688 25.659374Q240.19063 26.95625 240.19063 30.4875ZM249.37813 30.4875Q249.37813 27.95625 249.89375 26.409374Q250.425 24.846874 251.45625 24.01875Q252.4875 23.175 254.05 23.175Q255.20625 23.175 256.0656 23.64375Q256.9406 24.096874 257.5031 24.971874Q258.0656 25.846874 258.39374 27.1125Q258.72186 28.3625 258.72186 30.4875Q258.72186 33.003124 258.1906 34.55Q257.675 36.096874 256.64374 36.95625Q255.62813 37.8 254.05 37.8Q251.97188 37.8 250.8 36.315624Q249.37813 34.51875 249.37813 30.4875ZM251.19063 30.4875Q251.19063 34.01875 252.00313 35.190624Q252.83125 36.346874 254.05 36.346874Q255.25313 36.346874 256.08124 35.175Q256.90936 34.003124 256.90936 30.4875Q256.90936 26.95625 256.08124 25.8Q255.25313 24.628124 254.03438 24.628124Q252.81563 24.628124 252.09688 25.659374Q251.19063 26.95625 251.19063 30.4875ZM270.70624 35.971874L270.95624 37.534374Q270.22186 37.690624 269.6281 37.690624Q268.675 37.690624 268.14374 37.39375Q267.6281 37.08125 267.40936 36.596874Q267.1906 36.096874 267.1906 34.51875L267.1906 28.55L265.90936 28.55L265.90936 27.175L267.1906 27.175L267.1906 24.6125L268.9406 23.55L268.9406 27.175L270.70624 27.175L270.70624 28.55L268.9406 28.55L268.9406 34.6125Q268.9406 35.3625 269.03436 35.58125Q269.1281 35.784374 269.33124 35.925Q269.55 36.05 269.9406 36.05Q270.22186 36.05 270.70624 35.971874ZM272.84686 37.55L272.84686 27.175L274.425 27.175L274.425 28.753124Q275.03436 27.64375 275.55 27.3Q276.0656 26.940624 276.675 26.940624Q277.5656 26.940624 278.4875 27.503124L277.8781 29.14375Q277.2375 28.753124 276.59686 28.753124Q276.01874 28.753124 275.55 29.1125Q275.09686 29.45625 274.89374 30.065624Q274.6125 31.003124 274.6125 32.1125L274.6125 37.55L272.84686 37.55ZM286.97186 34.20625L288.78436 34.440624Q288.3625 36.01875 287.1906 36.909374Q286.03436 37.784374 284.22186 37.784374Q281.95624 37.784374 280.6125 36.39375Q279.28436 34.9875 279.28436 32.45625Q279.28436 29.83125 280.6281 28.39375Q281.97186 26.940624 284.1281 26.940624Q286.20624 26.940624 287.51874 28.3625Q288.84686 29.76875 288.84686 32.346874Q288.84686 32.503124 288.83124 32.815624L281.09686 32.815624Q281.1906 34.51875 282.0656 35.425Q282.9406 36.33125 284.2375 36.33125Q285.20624 36.33125 285.8781 35.83125Q286.5656 35.315624 286.97186 34.20625ZM281.1906 31.3625L286.9875 31.3625Q286.8781 30.065624 286.33124 29.409374Q285.4875 28.39375 284.14374 28.39375Q282.9406 28.39375 282.1125 29.20625Q281.28436 30.003124 281.1906 31.3625ZM297.97186 34.20625L299.78436 34.440624Q299.3625 36.01875 298.1906 36.909374Q297.03436 37.784374 295.22186 37.784374Q292.95624 37.784374 291.6125 36.39375Q290.28436 34.9875 290.28436 32.45625Q290.28436 29.83125 291.6281 28.39375Q292.97186 26.940624 295.1281 26.940624Q297.20624 26.940624 298.51874 28.3625Q299.84686 29.76875 299.84686 32.346874Q299.84686 32.503124 299.83124 32.815624L292.09686 32.815624Q292.1906 34.51875 293.0656 35.425Q293.9406 36.33125 295.2375 36.33125Q296.20624 36.33125 296.8781 35.83125Q297.5656 35.315624 297.97186 34.20625ZM292.1906 31.3625L297.9875 31.3625Q297.8781 30.065624 297.33124 29.409374Q296.4875 28.39375 295.14374 28.39375Q293.9406 28.39375 293.1125 29.20625Q292.28436 30.003124 292.1906 31.3625ZM301.15936 34.45625L302.90936 34.175Q303.05 35.221874 303.72186 35.784374Q304.39374 36.33125 305.59686 36.33125Q306.8 36.33125 307.3781 35.846874Q307.97186 35.346874 307.97186 34.690624Q307.97186 34.096874 307.45624 33.753124Q307.09686 33.51875 305.65936 33.159374Q303.72186 32.659374 302.97186 32.315624Q302.2375 31.95625 301.84686 31.33125Q301.45624 30.690624 301.45624 29.925Q301.45624 29.2375 301.76874 28.64375Q302.09686 28.05 302.64374 27.659374Q303.05 27.3625 303.7531 27.159374Q304.47186 26.940624 305.28436 26.940624Q306.5031 26.940624 307.425 27.3Q308.34686 27.64375 308.78436 28.253124Q309.22186 28.846874 309.39374 29.846874L307.675 30.08125Q307.55 29.284374 306.9875 28.846874Q306.425 28.39375 305.40936 28.39375Q304.1906 28.39375 303.675 28.8Q303.15936 29.190624 303.15936 29.721874Q303.15936 30.065624 303.3781 30.346874Q303.58124 30.628124 304.05 30.815624Q304.3156 30.909374 305.59686 31.253124Q307.47186 31.753124 308.20624 32.08125Q308.9406 32.39375 309.3625 33.003124Q309.78436 33.596874 309.78436 34.503124Q309.78436 35.378124 309.26874 36.159374Q308.7531 36.940624 307.78436 37.3625Q306.8156 37.784374 305.59686 37.784374Q303.58124 37.784374 302.51874 36.940624Q301.45624 36.096874 301.15936 34.45625ZM312.33124 37.55L312.33124 35.55L314.33124 35.55L314.33124 37.55Q314.33124 38.659374 313.9406 39.33125Q313.55 40.01875 312.70624 40.378124L312.20624 39.628124Q312.76874 39.39375 313.03436 38.909374Q313.3 38.440624 313.33124 37.55L312.33124 37.55ZM323.5031 25.1125L323.5031 23.425L332.76874 23.425L332.76874 24.784374Q331.39374 26.2375 330.05 28.659374Q328.70624 31.065624 327.9875 33.6125Q327.45624 35.409374 327.3 37.55L325.5031 37.55Q325.53436 35.8625 326.15936 33.471874Q326.8 31.08125 327.9875 28.8625Q329.175 26.628124 330.5031 25.1125L323.5031 25.1125ZM334.70624 26.675Q334.70624 25.14375 335.47186 24.065624Q336.2531 22.9875 337.72186 22.9875Q339.0656 22.9875 339.9406 23.95625Q340.83124 24.909374 340.83124 26.784374Q340.83124 28.596874 339.9406 29.58125Q339.05 30.55 337.7375 30.55Q336.4406 30.55 335.5656 29.596874Q334.70624 28.628124 334.70624 26.675ZM337.76874 24.20625Q337.1125 24.20625 336.675 24.76875Q336.2531 25.33125 336.2531 26.846874Q336.2531 28.221874 336.6906 28.784374Q337.1281 29.346874 337.76874 29.346874Q338.4406 29.346874 338.8625 28.784374Q339.3 28.20625 339.3 26.70625Q339.3 25.315624 338.8625 24.76875Q338.425 24.20625 337.76874 24.20625ZM337.78436 38.08125L345.6125 22.9875L347.03436 22.9875L339.2375 38.08125L337.78436 38.08125ZM343.97186 34.190624Q343.97186 32.64375 344.7375 31.58125Q345.51874 30.503124 346.9875 30.503124Q348.33124 30.503124 349.20624 31.471874Q350.09686 32.425 350.09686 34.3Q350.09686 36.1125 349.20624 37.096874Q348.3156 38.08125 347.0031 38.08125Q345.70624 38.08125 344.83124 37.1125Q343.97186 36.128124 343.97186 34.190624ZM347.03436 31.721874Q346.3781 31.721874 345.9406 32.284374Q345.5031 32.846874 345.5031 34.3625Q345.5031 35.7375 345.9406 36.3Q346.3781 36.8625 347.03436 36.8625Q347.70624 36.8625 348.1281 36.3Q348.5656 35.7375 348.5656 34.221874Q348.5656 32.846874 348.1281 32.284374Q347.6906 31.721874 347.03436 31.721874ZM358.55 38.409374L360.2531 38.659374Q360.3625 39.45625 360.84686 39.815624Q361.5031 40.3 362.64374 40.3Q363.8625 40.3 364.51874 39.815624Q365.1906 39.33125 365.425 38.45625Q365.5656 37.909374 365.55 36.190624Q364.39374 37.55 362.675 37.55Q360.53436 37.55 359.3625 36.003124Q358.1906 34.45625 358.1906 32.3Q358.1906 30.815624 358.72186 29.565624Q359.26874 28.315624 360.28436 27.628124Q361.3156 26.940624 362.6906 26.940624Q364.51874 26.940624 365.72186 28.425L365.72186 27.175L367.33124 27.175L367.33124 36.14375Q367.33124 38.565624 366.83124 39.565624Q366.34686 40.58125 365.26874 41.159374Q364.20624 41.753124 362.64374 41.753124Q360.8 41.753124 359.64374 40.925Q358.5031 40.096874 358.55 38.409374ZM360.0031 32.175Q360.0031 34.221874 360.8156 35.159374Q361.6281 36.096874 362.84686 36.096874Q364.05 36.096874 364.8625 35.159374Q365.6906 34.221874 365.6906 32.2375Q365.6906 30.33125 364.84686 29.3625Q364.0031 28.39375 362.8156 28.39375Q361.64374 28.39375 360.8156 29.346874Q360.0031 30.3 360.0031 32.175ZM369.84686 37.55L369.84686 27.175L371.425 27.175L371.425 28.753124Q372.03436 27.64375 372.55 27.3Q373.0656 26.940624 373.675 26.940624Q374.5656 26.940624 375.4875 27.503124L374.8781 29.14375Q374.2375 28.753124 373.59686 28.753124Q373.01874 28.753124 372.55 29.1125Q372.09686 29.45625 371.89374 30.065624Q371.6125 31.003124 371.6125 32.1125L371.6125 37.55L369.84686 37.55ZM376.22186 32.3625Q376.22186 29.4875 377.8156 28.096874Q379.15936 26.940624 381.08124 26.940624Q383.22186 26.940624 384.5656 28.346874Q385.925 29.753124 385.925 32.221874Q385.925 34.221874 385.33124 35.378124Q384.7375 36.51875 383.58124 37.159374Q382.4406 37.784374 381.08124 37.784374Q378.89374 37.784374 377.55 36.39375Q376.22186 34.9875 376.22186 32.3625ZM378.01874 32.3625Q378.01874 34.3625 378.8781 35.346874Q379.7531 36.33125 381.08124 36.33125Q382.39374 36.33125 383.2531 35.346874Q384.1281 34.346874 384.1281 32.3Q384.1281 30.378124 383.2531 29.39375Q382.3781 28.39375 381.08124 28.39375Q379.7531 28.39375 378.8781 29.39375Q378.01874 30.378124 378.01874 32.3625ZM389.78436 37.55L386.6125 27.175L388.425 27.175L390.08124 33.159374L390.6906 35.39375Q390.7375 35.221874 391.22186 33.253124L392.8781 27.175L394.6906 27.175L396.2375 33.190624L396.7531 35.175L397.34686 33.175L399.1281 27.175L400.83124 27.175L397.59686 37.55L395.76874 37.55L394.1125 31.33125L393.72186 29.565624L391.6125 37.55L389.78436 37.55ZM405.70624 35.971874L405.95624 37.534374Q405.22186 37.690624 404.6281 37.690624Q403.675 37.690624 403.14374 37.39375Q402.6281 37.08125 402.40936 36.596874Q402.1906 36.096874 402.1906 34.51875L402.1906 28.55L400.90936 28.55L400.90936 27.175L402.1906 27.175L402.1906 24.6125L403.9406 23.55L403.9406 27.175L405.70624 27.175L405.70624 28.55L403.9406 28.55L403.9406 34.6125Q403.9406 35.3625 404.03436 35.58125Q404.1281 35.784374 404.33124 35.925Q404.55 36.05 404.9406 36.05Q405.22186 36.05 405.70624 35.971874ZM407.8625 37.55L407.8625 23.2375L409.6281 23.2375L409.6281 28.3625Q410.8625 26.940624 412.7375 26.940624Q413.8781 26.940624 414.72186 27.39375Q415.58124 27.846874 415.9406 28.659374Q416.3156 29.45625 416.3156 30.971874L416.3156 37.55L414.5656 37.55L414.5656 30.971874Q414.5656 29.659374 413.9875 29.065624Q413.40936 28.45625 412.3781 28.45625Q411.59686 28.45625 410.89374 28.8625Q410.20624 29.26875 409.90936 29.971874Q409.6281 30.659374 409.6281 31.878124L409.6281 37.55L407.8625 37.55ZM424.84686 37.55L424.84686 27.175L426.425 27.175L426.425 28.753124Q427.03436 27.64375 427.55 27.3Q428.0656 26.940624 428.675 26.940624Q429.5656 26.940624 430.4875 27.503124L429.8781 29.14375Q429.2375 28.753124 428.59686 28.753124Q428.01874 28.753124 427.55 29.1125Q427.09686 29.45625 426.89374 30.065624Q426.6125 31.003124 426.6125 32.1125L426.6125 37.55L424.84686 37.55ZM438.64374 36.26875Q437.65936 37.096874 436.7531 37.440624Q435.84686 37.784374 434.8156 37.784374Q433.1125 37.784374 432.1906 36.95625Q431.26874 36.1125 431.26874 34.815624Q431.26874 34.05 431.6125 33.425Q431.97186 32.8 432.53436 32.425Q433.09686 32.034374 433.8 31.83125Q434.3156 31.70625 435.3625 31.565624Q437.4875 31.315624 438.4875 30.971874Q438.5031 30.6125 438.5031 30.503124Q438.5031 29.440624 438.0031 28.9875Q437.33124 28.39375 436.0031 28.39375Q434.7531 28.39375 434.15936 28.83125Q433.58124 29.26875 433.3 30.378124L431.58124 30.14375Q431.8156 29.034374 432.34686 28.3625Q432.8781 27.675 433.89374 27.315624Q434.90936 26.940624 436.2531 26.940624Q437.58124 26.940624 438.40936 27.253124Q439.2375 27.565624 439.6281 28.05Q440.01874 28.51875 440.175 29.2375Q440.26874 29.690624 440.26874 30.8625L440.26874 33.20625Q440.26874 35.659374 440.3781 36.315624Q440.4875 36.95625 440.83124 37.55L438.9875 37.55Q438.72186 37.003124 438.64374 36.26875ZM438.4875 32.346874Q437.53436 32.7375 435.6125 33.003124Q434.53436 33.159374 434.08124 33.3625Q433.64374 33.55 433.39374 33.925Q433.14374 34.3 433.14374 34.76875Q433.14374 35.471874 433.675 35.940624Q434.20624 36.409374 435.2375 36.409374Q436.2531 36.409374 437.03436 35.971874Q437.83124 35.51875 438.20624 34.753124Q438.4875 34.14375 438.4875 32.9875L438.4875 32.346874ZM446.70624 35.971874L446.95624 37.534374Q446.22186 37.690624 445.6281 37.690624Q444.675 37.690624 444.14374 37.39375Q443.6281 37.08125 443.40936 36.596874Q443.1906 36.096874 443.1906 34.51875L443.1906 28.55L441.90936 28.55L441.90936 27.175L443.1906 27.175L443.1906 24.6125L444.9406 23.55L444.9406 27.175L446.70624 27.175L446.70624 28.55L444.9406 28.55L444.9406 34.6125Q444.9406 35.3625 445.03436 35.58125Q445.1281 35.784374 445.33124 35.925Q445.55 36.05 445.9406 36.05Q446.22186 36.05 446.70624 35.971874ZM455.97186 34.20625L457.78436 34.440624Q457.3625 36.01875 456.1906 36.909374Q455.03436 37.784374 453.22186 37.784374Q450.95624 37.784374 449.6125 36.39375Q448.28436 34.9875 448.28436 32.45625Q448.28436 29.83125 449.6281 28.39375Q450.97186 26.940624 453.1281 26.940624Q455.20624 26.940624 456.51874 28.3625Q457.84686 29.76875 457.84686 32.346874Q457.84686 32.503124 457.83124 32.815624L450.09686 32.815624Q450.1906 34.51875 451.0656 35.425Q451.9406 36.33125 453.2375 36.33125Q454.20624 36.33125 454.8781 35.83125Q455.5656 35.315624 455.97186 34.20625ZM450.1906 31.3625L455.9875 31.3625Q455.8781 30.065624 455.33124 29.409374Q454.4875 28.39375 453.14374 28.39375Q451.9406 28.39375 451.1125 29.20625Q450.28436 30.003124 450.1906 31.3625ZM460.33124 37.55L460.33124 35.55L462.33124 35.55L462.33124 37.55Q462.33124 38.659374 461.9406 39.33125Q461.55 40.01875 460.70624 40.378124L460.20624 39.628124Q460.76874 39.39375 461.03436 38.909374Q461.3 38.440624 461.33124 37.55L460.33124 37.55ZM478.0031 37.55L476.2375 37.55L476.2375 26.346874Q475.6125 26.95625 474.58124 27.565624Q473.55 28.159374 472.72186 28.471874L472.72186 26.76875Q474.20624 26.08125 475.3 25.096874Q476.40936 24.096874 476.8625 23.175L478.0031 23.175L478.0031 37.55ZM482.3781 30.4875Q482.3781 27.95625 482.89374 26.409374Q483.425 24.846874 484.45624 24.01875Q485.4875 23.175 487.05 23.175Q488.20624 23.175 489.0656 23.64375Q489.9406 24.096874 490.5031 24.971874Q491.0656 25.846874 491.39374 27.1125Q491.72186 28.3625 491.72186 30.4875Q491.72186 33.003124 491.1906 34.55Q490.675 36.096874 489.64374 36.95625Q488.6281 37.8 487.05 37.8Q484.97186 37.8 483.8 36.315624Q482.3781 34.51875 482.3781 30.4875ZM484.1906 30.4875Q484.1906 34.01875 485.0031 35.190624Q485.83124 36.346874 487.05 36.346874Q488.2531 36.346874 489.08124 35.175Q489.90936 34.003124 489.90936 30.4875Q489.90936 26.95625 489.08124 25.8Q488.2531 24.628124 487.03436 24.628124Q485.8156 24.628124 485.09686 25.659374Q484.1906 26.95625 484.1906 30.4875ZM506.64374 36.26875Q505.65936 37.096874 504.7531 37.440624Q503.84686 37.784374 502.8156 37.784374Q501.1125 37.784374 500.1906 36.95625Q499.26874 36.1125 499.26874 34.815624Q499.26874 34.05 499.6125 33.425Q499.97186 32.8 500.53436 32.425Q501.09686 32.034374 501.8 31.83125Q502.3156 31.70625 503.3625 31.565624Q505.4875 31.315624 506.4875 30.971874Q506.5031 30.6125 506.5031 30.503124Q506.5031 29.440624 506.0031 28.9875Q505.33124 28.39375 504.0031 28.39375Q502.7531 28.39375 502.15936 28.83125Q501.58124 29.26875 501.3 30.378124L499.58124 30.14375Q499.8156 29.034374 500.34686 28.3625Q500.8781 27.675 501.89374 27.315624Q502.90936 26.940624 504.2531 26.940624Q505.58124 26.940624 506.40936 27.253124Q507.2375 27.565624 507.6281 28.05Q508.01874 28.51875 508.175 29.2375Q508.26874 29.690624 508.26874 30.8625L508.26874 33.20625Q508.26874 35.659374 508.3781 36.315624Q508.4875 36.95625 508.83124 37.55L506.9875 37.55Q506.72186 37.003124 506.64374 36.26875ZM506.4875 32.346874Q505.53436 32.7375 503.6125 33.003124Q502.53436 33.159374 502.08124 33.3625Q501.64374 33.55 501.39374 33.925Q501.14374 34.3 501.14374 34.76875Q501.14374 35.471874 501.675 35.940624Q502.20624 36.409374 503.2375 36.409374Q504.2531 36.409374 505.03436 35.971874Q505.83124 35.51875 506.20624 34.753124Q506.4875 34.14375 506.4875 32.9875L506.4875 32.346874ZM510.8625 37.55L510.8625 27.175L512.45624 27.175L512.45624 28.659374Q513.59686 26.940624 515.7531 26.940624Q516.6906 26.940624 517.47186 27.284374Q518.26874 27.6125 518.65936 28.159374Q519.05 28.70625 519.20624 29.45625Q519.3 29.95625 519.3 31.175L519.3 37.55L517.53436 37.55L517.53436 31.2375Q517.53436 30.159374 517.33124 29.628124Q517.1281 29.096874 516.59686 28.784374Q516.08124 28.471874 515.3781 28.471874Q514.2531 28.471874 513.4406 29.190624Q512.6281 29.89375 512.6281 31.878124L512.6281 37.55L510.8625 37.55ZM521.8625 37.55L521.8625 27.175L523.45624 27.175L523.45624 28.659374Q524.59686 26.940624 526.7531 26.940624Q527.6906 26.940624 528.47186 27.284374Q529.26874 27.6125 529.65936 28.159374Q530.05 28.70625 530.20624 29.45625Q530.3 29.95625 530.3 31.175L530.3 37.55L528.53436 37.55L528.53436 31.2375Q528.53436 30.159374 528.33124 29.628124Q528.1281 29.096874 527.59686 28.784374Q527.08124 28.471874 526.3781 28.471874Q525.2531 28.471874 524.4406 29.190624Q523.6281 29.89375 523.6281 31.878124L523.6281 37.55L521.8625 37.55ZM539.65936 37.55L539.65936 36.01875Q538.45624 37.784374 536.3781 37.784374Q535.45624 37.784374 534.65936 37.440624Q533.8625 37.08125 533.47186 36.55Q533.09686 36.01875 532.9406 35.2375Q532.83124 34.721874 532.83124 33.596874L532.83124 27.175L534.58124 27.175L534.58124 32.925Q534.58124 34.3 534.6906 34.784374Q534.8625 35.471874 535.39374 35.878124Q535.9406 36.26875 536.72186 36.26875Q537.51874 36.26875 538.20624 35.8625Q538.90936 35.45625 539.1906 34.76875Q539.4875 34.065624 539.4875 32.7375L539.4875 27.175L541.2375 27.175L541.2375 37.55L539.65936 37.55ZM550.64374 36.26875Q549.65936 37.096874 548.7531 37.440624Q547.84686 37.784374 546.8156 37.784374Q545.1125 37.784374 544.1906 36.95625Q543.26874 36.1125 543.26874 34.815624Q543.26874 34.05 543.6125 33.425Q543.97186 32.8 544.53436 32.425Q545.09686 32.034374 545.8 31.83125Q546.3156 31.70625 547.3625 31.565624Q549.4875 31.315624 550.4875 30.971874Q550.5031 30.6125 550.5031 30.503124Q550.5031 29.440624 550.0031 28.9875Q549.33124 28.39375 548.0031 28.39375Q546.7531 28.39375 546.15936 28.83125Q545.58124 29.26875 545.3 30.378124L543.58124 30.14375Q543.8156 29.034374 544.34686 28.3625Q544.8781 27.675 545.89374 27.315624Q546.90936 26.940624 548.2531 26.940624Q549.58124 26.940624 550.40936 27.253124Q551.2375 27.565624 551.6281 28.05Q552.01874 28.51875 552.175 29.2375Q552.26874 29.690624 552.26874 30.8625L552.26874 33.20625Q552.26874 35.659374 552.3781 36.315624Q552.4875 36.95625 552.83124 37.55L550.9875 37.55Q550.72186 37.003124 550.64374 36.26875ZM550.4875 32.346874Q549.53436 32.7375 547.6125 33.003124Q546.53436 33.159374 546.08124 33.3625Q545.64374 33.55 545.39374 33.925Q545.14374 34.3 545.14374 34.76875Q545.14374 35.471874 545.675 35.940624Q546.20624 36.409374 547.2375 36.409374Q548.2531 36.409374 549.03436 35.971874Q549.83124 35.51875 550.20624 34.753124Q550.4875 34.14375 550.4875 32.9875L550.4875 32.346874ZM554.83124 37.55L554.83124 23.2375L556.58124 23.2375L556.58124 37.55L554.83124 37.55ZM571.64374 33.753124L573.3625 33.971874Q573.08124 35.76875 571.90936 36.784374Q570.7531 37.784374 569.05 37.784374Q566.925 37.784374 565.6281 36.39375Q564.33124 35.003124 564.33124 32.409374Q564.33124 30.721874 564.8781 29.471874Q565.4406 28.20625 566.58124 27.58125Q567.72186 26.940624 569.0656 26.940624Q570.7531 26.940624 571.8156 27.8Q572.89374 28.659374 573.20624 30.221874L571.4875 30.4875Q571.2531 29.440624 570.6281 28.925Q570.0031 28.39375 569.1281 28.39375Q567.8 28.39375 566.97186 29.346874Q566.14374 30.3 566.14374 32.346874Q566.14374 34.440624 566.9406 35.39375Q567.7375 36.33125 569.03436 36.33125Q570.0656 36.33125 570.7531 35.70625Q571.45624 35.065624 571.64374 33.753124ZM581.65936 37.55L581.65936 36.01875Q580.45624 37.784374 578.3781 37.784374Q577.45624 37.784374 576.65936 37.440624Q575.8625 37.08125 575.47186 36.55Q575.09686 36.01875 574.9406 35.2375Q574.83124 34.721874 574.83124 33.596874L574.83124 27.175L576.58124 27.175L576.58124 32.925Q576.58124 34.3 576.6906 34.784374Q576.8625 35.471874 577.39374 35.878124Q577.9406 36.26875 578.72186 36.26875Q579.51874 36.26875 580.20624 35.8625Q580.90936 35.45625 581.1906 34.76875Q581.4875 34.065624 581.4875 32.7375L581.4875 27.175L583.2375 27.175L583.2375 37.55L581.65936 37.55ZM589.70624 35.971874L589.95624 37.534374Q589.22186 37.690624 588.6281 37.690624Q587.675 37.690624 587.14374 37.39375Q586.6281 37.08125 586.40936 36.596874Q586.1906 36.096874 586.1906 34.51875L586.1906 28.55L584.90936 28.55L584.90936 27.175L586.1906 27.175L586.1906 24.6125L587.9406 23.55L587.9406 27.175L589.70624 27.175L589.70624 28.55L587.9406 28.55L587.9406 34.6125Q587.9406 35.3625 588.03436 35.58125Q588.1281 35.784374 588.33124 35.925Q588.55 36.05 588.9406 36.05Q589.22186 36.05 589.70624 35.971874Z" fill-rule="nonzero"/></svg>