<svg width="432" height="332" viewBox="0 0 432 332" fill="none" xmlns="http://www.w3.org/2000/svg">
<line x1="26" y1="-4.37114e-08" x2="26" y2="332" stroke="black" stroke-width="2"/>
<line x1="394" y1="298" y2="298" stroke="black" stroke-width="2"/>
<path d="M406.806 297.974H404.468V302H403.148V292.047H406.443C407.564 292.047 408.426 292.302 409.027 292.812C409.633 293.323 409.937 294.066 409.937 295.041C409.937 295.661 409.768 296.201 409.431 296.661C409.098 297.121 408.633 297.465 408.036 297.693L410.374 301.918V302H408.966L406.806 297.974ZM404.468 296.9H406.484C407.136 296.9 407.653 296.732 408.036 296.395C408.424 296.057 408.617 295.606 408.617 295.041C408.617 294.426 408.433 293.954 408.063 293.626C407.699 293.298 407.17 293.132 406.478 293.127H404.468V296.9ZM412.958 302H411.693V294.604H412.958V302ZM411.591 292.642C411.591 292.437 411.652 292.263 411.775 292.122C411.903 291.981 412.09 291.91 412.336 291.91C412.582 291.91 412.769 291.981 412.896 292.122C413.024 292.263 413.088 292.437 413.088 292.642C413.088 292.847 413.024 293.018 412.896 293.154C412.769 293.291 412.582 293.359 412.336 293.359C412.09 293.359 411.903 293.291 411.775 293.154C411.652 293.018 411.591 292.847 411.591 292.642ZM419.295 300.038C419.295 299.696 419.165 299.432 418.905 299.245C418.65 299.054 418.201 298.89 417.559 298.753C416.921 298.616 416.412 298.452 416.034 298.261C415.66 298.069 415.382 297.841 415.2 297.577C415.022 297.313 414.934 296.998 414.934 296.634C414.934 296.028 415.189 295.515 415.699 295.096C416.214 294.676 416.87 294.467 417.668 294.467C418.507 294.467 419.186 294.683 419.705 295.116C420.229 295.549 420.491 296.103 420.491 296.777H419.22C419.22 296.431 419.072 296.132 418.775 295.882C418.484 295.631 418.115 295.506 417.668 295.506C417.208 295.506 416.848 295.606 416.588 295.807C416.328 296.007 416.198 296.269 416.198 296.593C416.198 296.898 416.319 297.128 416.561 297.283C416.802 297.438 417.237 297.586 417.866 297.728C418.5 297.869 419.012 298.037 419.404 298.233C419.796 298.429 420.086 298.666 420.272 298.944C420.464 299.218 420.56 299.553 420.56 299.949C420.56 300.61 420.295 301.141 419.767 301.542C419.238 301.938 418.552 302.137 417.709 302.137C417.117 302.137 416.592 302.032 416.137 301.822C415.681 301.613 415.323 301.321 415.063 300.947C414.808 300.569 414.681 300.161 414.681 299.724H415.945C415.968 300.147 416.137 300.485 416.451 300.735C416.77 300.981 417.189 301.104 417.709 301.104C418.188 301.104 418.57 301.009 418.857 300.817C419.149 300.621 419.295 300.362 419.295 300.038ZM424.271 298.575L423.479 299.402V302H422.214V291.5H423.479V297.851L424.155 297.037L426.459 294.604H427.997L425.119 297.693L428.332 302H426.849L424.271 298.575Z" fill="black"/>
<path d="M12.9736 74.1943L12.9736 76.5322L17 76.5322L17 77.8516L7.04687 77.8516L7.04687 74.5566C7.04687 73.4355 7.30208 72.5742 7.8125 71.9727C8.32292 71.3665 9.06575 71.0635 10.041 71.0635C10.6608 71.0635 11.2008 71.2321 11.6611 71.5693C12.1214 71.902 12.4655 72.3669 12.6934 72.9639L16.918 70.626L17 70.626L17 72.0342L12.9736 74.1943ZM11.9004 76.5322L11.9004 74.5156C11.9004 73.8639 11.7318 73.3467 11.3945 72.9639C11.0573 72.5765 10.6061 72.3828 10.041 72.3828C9.42578 72.3828 8.9541 72.5674 8.62598 72.9365C8.29785 73.3011 8.13151 73.8298 8.12695 74.5225L8.12695 76.5322L11.9004 76.5322ZM17.1367 66.3467C17.1367 67.3493 16.8086 68.165 16.1523 68.7939C15.4915 69.4229 14.6097 69.7373 13.5068 69.7373L13.2744 69.7373C12.5407 69.7373 11.8867 69.5983 11.3125 69.3203C10.7337 69.0378 10.2826 68.6458 9.95898 68.1445C9.63086 67.6387 9.4668 67.0918 9.4668 66.5039C9.4668 65.5423 9.78353 64.7949 10.417 64.2617C11.0505 63.7285 11.9574 63.4619 13.1377 63.4619L13.6641 63.4619L13.6641 68.4727C14.3932 68.4544 14.9834 68.2425 15.4346 67.8369C15.8812 67.4268 16.1045 66.9072 16.1045 66.2783C16.1045 65.8317 16.0133 65.4534 15.8311 65.1436C15.6488 64.8337 15.4072 64.5625 15.1064 64.3301L15.708 63.5576C16.6605 64.1774 17.1367 65.1071 17.1367 66.3467ZM10.5059 66.5039C10.5059 67.0143 10.6927 67.4427 11.0664 67.7891C11.4355 68.1354 11.9551 68.3496 12.625 68.4316L12.625 64.7266L12.5293 64.7266C11.8867 64.763 11.39 64.9362 11.0391 65.2461C10.6836 65.556 10.5059 65.9753 10.5059 66.5039ZM7.8125 60.2764L9.60351 60.2764L9.60351 58.8955L10.5811 58.8955L10.5811 60.2764L15.168 60.2764C15.4642 60.2764 15.6875 60.2148 15.8379 60.0918C15.9837 59.9687 16.0566 59.7591 16.0566 59.4629C16.0566 59.3171 16.0293 59.1165 15.9746 58.8613L17 58.8613C17.0911 59.194 17.1367 59.5176 17.1367 59.832C17.1367 60.3971 16.9658 60.8232 16.624 61.1104C16.2822 61.3975 15.7969 61.541 15.168 61.541L10.5811 61.541L10.5811 62.8877L9.60351 62.8877L9.60351 61.541L7.8125 61.541L7.8125 60.2764ZM16.2686 52.8457C16.8473 53.3379 17.1367 54.0602 17.1367 55.0127C17.1367 55.8011 16.9089 56.4027 16.4531 56.8174C15.9928 57.2275 15.3138 57.4349 14.416 57.4395L9.60351 57.4395L9.60351 56.1748L14.3818 56.1748C15.5029 56.1748 16.0635 55.7191 16.0635 54.8076C16.0635 53.8415 15.7034 53.1989 14.9834 52.8799L9.60351 52.8799L9.60351 51.6152L17 51.6152L17 52.8184L16.2686 52.8457ZM10.7383 46.1123C10.7064 46.3037 10.6904 46.5111 10.6904 46.7344C10.6904 47.5638 11.0436 48.1266 11.75 48.4229L17 48.4229L17 49.6875L9.60351 49.6875L9.60351 48.457L10.458 48.4365C9.7972 48.0218 9.4668 47.4339 9.4668 46.6729C9.4668 46.4268 9.4987 46.2399 9.5625 46.1123L10.7383 46.1123ZM9.60351 43.7471L10.5332 43.7061C9.82226 43.141 9.4668 42.4027 9.4668 41.4912C9.4668 39.9281 10.3486 39.1396 12.1123 39.126L17 39.126L17 40.3906L12.1055 40.3906C11.5723 40.3952 11.1781 40.5182 10.9228 40.7598C10.6676 40.9967 10.54 41.3682 10.54 41.874C10.54 42.2842 10.6494 42.6442 10.8682 42.9541C11.0869 43.264 11.374 43.5055 11.7295 43.6787L17 43.6787L17 44.9434L9.60351 44.9434L9.60351 43.7471Z" fill="black"/>
<path d="M109 263C108.077 250.592 101 245.551 101 233.918C101 222.286 109 212.592 109 206" stroke="black"/>
<path d="M170 268C167.577 246.449 149 237.694 149 217.49C149 197.286 170 180.449 170 169" stroke="black"/>
<path d="M349 314C345.538 255.007 319 231.041 319 175.735C319 120.429 349 74.3401 349 43" stroke="black"/>
<line x1="58.7299" y1="252.037" x2="418.73" y2="151.037" stroke="#2407D6" stroke-width="2"/>
<line x1="109.5" y1="206" x2="109.5" y2="263" stroke="#404040" stroke-dasharray="2 2"/>
<line x1="170.5" y1="169" x2="170.5" y2="268" stroke="#404040" stroke-dasharray="2 2"/>
<path d="M263 278C260.577 241.429 242 226.571 242 192.286C242 158 263 129.429 263 110" stroke="black"/>
<line x1="263.5" y1="113" x2="263.5" y2="278" stroke="#404040" stroke-dasharray="2 2"/>
<line x1="349.5" y1="43" x2="349.5" y2="310" stroke="#404040" stroke-dasharray="2 2"/>
<path d="M58.5 225C128.5 200.5 240 145.5 351.5 30" stroke="#11ED0D" stroke-opacity="0.97" stroke-dasharray="3 3"/>
<path d="M60.5 263.5C102.833 263 196.6 263.8 233 271C278.5 280 345.5 306 355 317" stroke="#FF0404" stroke-dasharray="3 3"/>
</svg>
