<svg version="1.1" viewBox="0.0 0.0 546.0 374.0" fill="none" stroke="none" stroke-linecap="square" stroke-miterlimit="10" width="546" height="374" xmlns:xlink="http://www.w3.org/1999/xlink" xmlns="http://www.w3.org/2000/svg"><path fill="#ffffff" d="M0 0L546.0 0L546.0 374.0L0 374.0L0 0Z" fill-rule="nonzero"/><path stroke="#cccccc" stroke-width="1.0" stroke-linecap="butt" d="M53.5 303.5L527.5 303.5" fill-rule="nonzero"/><path stroke="#cccccc" stroke-width="1.0" stroke-linecap="butt" d="M53.5 260.5L527.5 260.5" fill-rule="nonzero"/><path stroke="#333333" stroke-width="1.0" stroke-linecap="butt" d="M53.5 217.5L527.5 217.5" fill-rule="nonzero"/><path stroke="#cccccc" stroke-width="1.0" stroke-linecap="butt" d="M53.5 174.5L527.5 174.5" fill-rule="nonzero"/><path stroke="#cccccc" stroke-width="1.0" stroke-linecap="butt" d="M53.5 131.5L527.5 131.5" fill-rule="nonzero"/><path stroke="#cccccc" stroke-width="1.0" stroke-linecap="butt" d="M53.5 88.5L527.5 88.5" fill-rule="nonzero"/><clipPath id="id_0"><path d="M53.7 88.63333L527.3 88.63333L527.3 303.3L53.7 303.3L53.7 88.63333Z" clip-rule="nonzero"/></clipPath><path stroke="#000000" stroke-width="0.0" stroke-linecap="butt" stroke-opacity="0.0" clip-path="url(#id_0)" d="M103.0 217.0L80.0 217.0L80.0 115.0C80.0 113.89543 80.89543 113.0 82.0 113.0L101.0 113.0C102.10457 113.0 103.0 113.89543 103.0 115.0Z" fill-rule="nonzero"/><path fill="#34a853" clip-path="url(#id_0)" d="M103.0 217.0L80.0 217.0L80.0 115.0C80.0 113.89543 80.89543 113.0 82.0 113.0L101.0 113.0C102.10457 113.0 103.0 113.89543 103.0 115.0Z" fill-rule="nonzero"/><path stroke="#000000" stroke-width="0.0" stroke-linecap="butt" stroke-opacity="0.0" clip-path="url(#id_0)" d="M178.0 217.0L155.0 217.0L155.0 158.0C155.0 156.89543 155.89543 156.0 157.0 156.0L176.0 156.0C177.10457 156.0 178.0 156.89543 178.0 158.0Z" fill-rule="nonzero"/><path fill="#34a853" clip-path="url(#id_0)" d="M178.0 217.0L155.0 217.0L155.0 158.0C155.0 156.89543 155.89543 156.0 157.0 156.0L176.0 156.0C177.10457 156.0 178.0 156.89543 178.0 158.0Z" fill-rule="nonzero"/><path stroke="#000000" stroke-width="0.0" stroke-linecap="butt" stroke-opacity="0.0" clip-path="url(#id_0)" d="M252.0 217.0L229.0 217.0L229.0 168.0C229.0 166.89543 229.89543 166.0 231.0 166.0L250.0 166.0C251.10457 166.0 252.0 166.89543 252.0 168.0Z" fill-rule="nonzero"/><path fill="#34a853" clip-path="url(#id_0)" d="M252.0 217.0L229.0 217.0L229.0 168.0C229.0 166.89543 229.89543 166.0 231.0 166.0L250.0 166.0C251.10457 166.0 252.0 166.89543 252.0 168.0Z" fill-rule="nonzero"/><path stroke="#000000" stroke-width="0.0" stroke-linecap="butt" stroke-opacity="0.0" clip-path="url(#id_0)" d="M327.0 217.0L304.0 217.0L304.0 186.0C304.0 184.89543 304.89542 184.0 306.0 184.0L325.0 184.0C326.10458 184.0 327.0 184.89543 327.0 186.0Z" fill-rule="nonzero"/><path fill="#34a853" clip-path="url(#id_0)" d="M327.0 217.0L304.0 217.0L304.0 186.0C304.0 184.89543 304.89542 184.0 306.0 184.0L325.0 184.0C326.10458 184.0 327.0 184.89543 327.0 186.0Z" fill-rule="nonzero"/><path stroke="#000000" stroke-width="0.0" stroke-linecap="butt" stroke-opacity="0.0" clip-path="url(#id_0)" d="M401.0 217.0L378.0 217.0L378.0 187.0C378.0 185.89543 378.89542 185.0 380.0 185.0L399.0 185.0C400.10458 185.0 401.0 185.89543 401.0 187.0Z" fill-rule="nonzero"/><path fill="#34a853" clip-path="url(#id_0)" d="M401.0 217.0L378.0 217.0L378.0 187.0C378.0 185.89543 378.89542 185.0 380.0 185.0L399.0 185.0C400.10458 185.0 401.0 185.89543 401.0 187.0Z" fill-rule="nonzero"/><path stroke="#000000" stroke-width="0.0" stroke-linecap="butt" stroke-opacity="0.0" clip-path="url(#id_0)" d="M476.0 217.0L453.0 217.0L453.0 189.0C453.0 187.89543 453.89542 187.0 455.0 187.0L474.0 187.0C475.10458 187.0 476.0 187.89543 476.0 189.0Z" fill-rule="nonzero"/><path fill="#34a853" clip-path="url(#id_0)" d="M476.0 217.0L453.0 217.0L453.0 189.0C453.0 187.89543 453.89542 187.0 455.0 187.0L474.0 187.0C475.10458 187.0 476.0 187.89543 476.0 189.0Z" fill-rule="nonzero"/><path stroke="#000000" stroke-width="0.0" stroke-linecap="butt" stroke-opacity="0.0" clip-path="url(#id_0)" d="M127.0 217.0L104.0 217.0L104.0 288.0C104.0 289.10458 104.89543 290.0 106.0 290.0L125.0 290.0C126.10457 290.0 127.0 289.10458 127.0 288.0Z" fill-rule="nonzero"/><path fill="#ea4335" clip-path="url(#id_0)" d="M127.0 217.0L104.0 217.0L104.0 288.0C104.0 289.10458 104.89543 290.0 106.0 290.0L125.0 290.0C126.10457 290.0 127.0 289.10458 127.0 288.0Z" fill-rule="nonzero"/><path stroke="#000000" stroke-width="0.0" stroke-linecap="butt" stroke-opacity="0.0" clip-path="url(#id_0)" d="M202.0 217.0L179.0 217.0L179.0 246.0C179.0 247.10457 179.89543 248.0 181.0 248.0L200.0 248.0C201.10457 248.0 202.0 247.10457 202.0 246.0Z" fill-rule="nonzero"/><path fill="#ea4335" clip-path="url(#id_0)" d="M202.0 217.0L179.0 217.0L179.0 246.0C179.0 247.10457 179.89543 248.0 181.0 248.0L200.0 248.0C201.10457 248.0 202.0 247.10457 202.0 246.0Z" fill-rule="nonzero"/><path stroke="#000000" stroke-width="0.0" stroke-linecap="butt" stroke-opacity="0.0" clip-path="url(#id_0)" d="M276.0 217.0L253.0 217.0L253.0 231.0C253.0 232.10457 253.89543 233.0 255.0 233.0L274.0 233.0C275.10458 233.0 276.0 232.10457 276.0 231.0Z" fill-rule="nonzero"/><path fill="#ea4335" clip-path="url(#id_0)" d="M276.0 217.0L253.0 217.0L253.0 231.0C253.0 232.10457 253.89543 233.0 255.0 233.0L274.0 233.0C275.10458 233.0 276.0 232.10457 276.0 231.0Z" fill-rule="nonzero"/><path stroke="#000000" stroke-width="0.0" stroke-linecap="butt" stroke-opacity="0.0" clip-path="url(#id_0)" d="M351.0 217.0L328.0 217.0L328.0 226.0C328.0 227.10457 328.89542 228.0 330.0 228.0L349.0 228.0C350.10458 228.0 351.0 227.10457 351.0 226.0Z" fill-rule="nonzero"/><path fill="#ea4335" clip-path="url(#id_0)" d="M351.0 217.0L328.0 217.0L328.0 226.0C328.0 227.10457 328.89542 228.0 330.0 228.0L349.0 228.0C350.10458 228.0 351.0 227.10457 351.0 226.0Z" fill-rule="nonzero"/><path stroke="#000000" stroke-width="0.0" stroke-linecap="butt" stroke-opacity="0.0" clip-path="url(#id_0)" d="M425.0 217.0L402.0 217.0L402.0 213.0C402.0 211.89543 402.89542 211.0 404.0 211.0L423.0 211.0C424.10458 211.0 425.0 211.89543 425.0 213.0Z" fill-rule="nonzero"/><path fill="#ea4335" clip-path="url(#id_0)" d="M425.0 217.0L402.0 217.0L402.0 213.0C402.0 211.89543 402.89542 211.0 404.0 211.0L423.0 211.0C424.10458 211.0 425.0 211.89543 425.0 213.0Z" fill-rule="nonzero"/><path stroke="#000000" stroke-width="0.0" stroke-linecap="butt" stroke-opacity="0.0" clip-path="url(#id_0)" d="M500.0 217.0L477.0 217.0L477.0 207.0C477.0 205.89543 477.89542 205.0 479.0 205.0L498.0 205.0C499.10458 205.0 500.0 205.89543 500.0 207.0Z" fill-rule="nonzero"/><path fill="#ea4335" clip-path="url(#id_0)" d="M500.0 217.0L477.0 217.0L477.0 207.0C477.0 205.89543 477.89542 205.0 479.0 205.0L498.0 205.0C499.10458 205.0 500.0 205.89543 500.0 207.0Z" fill-rule="nonzero"/><path fill="#000000" d="M277.375 350.4406L278.40625 350.28436Q278.5 350.90936 278.89062 351.2375Q279.29688 351.5656 280.03125 351.5656Q280.75 351.5656 281.09375 351.28436Q281.45312 350.9875 281.45312 350.58124Q281.45312 350.22186 281.14062 350.01874Q280.92188 349.8781 280.0625 349.65936Q278.90625 349.3625 278.45312 349.15936Q278.01562 348.9406 277.78125 348.5656Q277.54688 348.1906 277.54688 347.72186Q277.54688 347.3156 277.73438 346.95624Q277.92188 346.59686 278.25 346.3625Q278.5 346.1906 278.92188 346.0656Q279.34375 345.9406 279.84375 345.9406Q280.5625 345.9406 281.10938 346.15936Q281.67188 346.3625 281.9375 346.72186Q282.20312 347.08124 282.29688 347.675L281.26562 347.8156Q281.20312 347.34686 280.85938 347.08124Q280.53125 346.8 279.90625 346.8Q279.1875 346.8 278.875 347.05Q278.5625 347.28436 278.5625 347.6125Q278.5625 347.8156 278.6875 347.97186Q278.82812 348.14374 279.09375 348.2531Q279.25 348.3156 280.03125 348.51874Q281.15625 348.83124 281.59375 349.01874Q282.03125 349.20624 282.28125 349.5656Q282.53125 349.925 282.53125 350.47186Q282.53125 351.0031 282.21875 351.47186Q281.92188 351.925 281.34375 352.1906Q280.76562 352.4406 280.03125 352.4406Q278.8125 352.4406 278.17188 351.9406Q277.54688 351.425 277.375 350.4406ZM283.79688 354.6906L283.79688 346.08124L284.75 346.08124L284.75 346.8781Q285.09375 346.40936 285.51562 346.175Q285.95312 345.9406 286.5625 345.9406Q287.35938 345.9406 287.96875 346.34686Q288.57812 346.7531 288.875 347.5031Q289.1875 348.2531 289.1875 349.14374Q289.1875 350.09686 288.84375 350.8625Q288.51562 351.6281 287.85938 352.03436Q287.20312 352.4406 286.48438 352.4406Q285.95312 352.4406 285.53125 352.22186Q285.10938 351.9875 284.84375 351.65936L284.84375 354.6906L283.79688 354.6906ZM284.75 349.22186Q284.75 350.425 285.23438 351.0031Q285.71875 351.5656 286.40625 351.5656Q287.10938 351.5656 287.60938 350.97186Q288.10938 350.3781 288.10938 349.1281Q288.10938 347.9406 287.625 347.3625Q287.14062 346.76874 286.45312 346.76874Q285.78125 346.76874 285.26562 347.39374Q284.75 348.01874 284.75 349.22186ZM294.85938 351.53436Q294.26562 352.03436 293.71875 352.2375Q293.1875 352.4406 292.5625 352.4406Q291.53125 352.4406 290.98438 351.9406Q290.4375 351.4406 290.4375 350.65936Q290.4375 350.20624 290.64062 349.83124Q290.84375 349.4406 291.1875 349.22186Q291.53125 348.9875 291.95312 348.8781Q292.25 348.78436 292.89062 348.70624Q294.15625 348.5656 294.76562 348.34686Q294.76562 348.1281 294.76562 348.08124Q294.76562 347.425 294.46875 347.15936Q294.0625 346.8156 293.26562 346.8156Q292.53125 346.8156 292.17188 347.08124Q291.8125 347.33124 291.64062 347.9875L290.60938 347.84686Q290.75 347.1906 291.07812 346.78436Q291.40625 346.3781 292.01562 346.15936Q292.625 345.9406 293.42188 345.9406Q294.21875 345.9406 294.71875 346.1281Q295.21875 346.3156 295.45312 346.59686Q295.6875 346.8781 295.78125 347.3156Q295.82812 347.58124 295.82812 348.28436L295.82812 349.6906Q295.82812 351.15936 295.89062 351.55Q295.96875 351.9406 296.17188 352.3L295.0625 352.3Q294.90625 351.97186 294.85938 351.53436ZM294.76562 349.175Q294.1875 349.40936 293.04688 349.58124Q292.39062 349.675 292.125 349.8Q291.85938 349.90936 291.70312 350.1281Q291.5625 350.34686 291.5625 350.6281Q291.5625 351.05 291.875 351.33124Q292.20312 351.6125 292.8125 351.6125Q293.42188 351.6125 293.89062 351.34686Q294.375 351.08124 294.59375 350.6125Q294.76562 350.2531 294.76562 349.5656L294.76562 349.175ZM297.79688 352.3L297.79688 346.08124L298.73438 346.08124L298.73438 346.95624Q299.42188 345.9406 300.71875 345.9406Q301.28125 345.9406 301.75 346.14374Q302.23438 346.34686 302.46875 346.675Q302.70312 347.0031 302.79688 347.4406Q302.84375 347.7375 302.84375 348.47186L302.84375 352.3L301.79688 352.3L301.79688 348.51874Q301.79688 347.8625 301.67188 347.55Q301.54688 347.2375 301.23438 347.05Q300.92188 346.84686 300.5 346.84686Q299.82812 346.84686 299.32812 347.28436Q298.84375 347.70624 298.84375 348.89374L298.84375 352.3L297.79688 352.3Z" fill-rule="nonzero"/><path fill="#000000" d="M19.075 304.72186L19.075 303.65936L22.325 303.65936L22.325 304.72186L19.075 304.72186ZM23.2 305.05L24.309376 304.95624Q24.434376 305.76874 24.871876 306.175Q25.325 306.58124 25.965626 306.58124Q26.715626 306.58124 27.246876 306.0031Q27.778126 305.425 27.778126 304.4875Q27.778126 303.58124 27.2625 303.0656Q26.7625 302.53436 25.934376 302.53436Q25.434376 302.53436 25.0125 302.76874Q24.60625 303.0031 24.371876 303.3625L23.3875 303.2375L24.215626 298.83124L28.496876 298.83124L28.496876 299.83124L25.059376 299.83124L24.60625 302.14374Q25.371876 301.59686 26.215626 301.59686Q27.340626 301.59686 28.10625 302.3781Q28.8875 303.15936 28.8875 304.39374Q28.8875 305.55 28.215626 306.40936Q27.3875 307.4406 25.965626 307.4406Q24.79375 307.4406 24.04375 306.78436Q23.309376 306.1281 23.2 305.05ZM30.2 303.0656Q30.2 301.53436 30.5125 300.6125Q30.825 299.675 31.434376 299.175Q32.059376 298.675 32.996876 298.675Q33.684376 298.675 34.2 298.95624Q34.73125 299.2375 35.075 299.76874Q35.41875 300.28436 35.60625 301.03436Q35.79375 301.78436 35.79375 303.0656Q35.79375 304.58124 35.48125 305.5031Q35.184376 306.425 34.559376 306.9406Q33.95 307.4406 32.996876 307.4406Q31.7625 307.4406 31.04375 306.55Q30.2 305.4875 30.2 303.0656ZM31.278126 303.0656Q31.278126 305.175 31.778126 305.8781Q32.278126 306.58124 32.996876 306.58124Q33.73125 306.58124 34.215626 305.8781Q34.715626 305.175 34.715626 303.0656Q34.715626 300.9406 34.215626 300.2531Q33.73125 299.55 32.98125 299.55Q32.2625 299.55 31.825 300.15936Q31.278126 300.9406 31.278126 303.0656ZM37.403126 300.76874Q37.403126 299.84686 37.85625 299.20624Q38.325 298.5656 39.2 298.5656Q40.0125 298.5656 40.54375 299.14374Q41.075 299.72186 41.075 300.83124Q41.075 301.925 40.528126 302.51874Q39.996876 303.09686 39.215626 303.09686Q38.434376 303.09686 37.91875 302.51874Q37.403126 301.9406 37.403126 300.76874ZM39.23125 299.28436Q38.840626 299.28436 38.575 299.6281Q38.325 299.97186 38.325 300.8781Q38.325 301.70624 38.575 302.05Q38.840626 302.3781 39.23125 302.3781Q39.6375 302.3781 39.8875 302.03436Q40.153126 301.6906 40.153126 300.8Q40.153126 299.95624 39.8875 299.6281Q39.621876 299.28436 39.23125 299.28436ZM39.23125 307.6125L43.934376 298.5656L44.79375 298.5656L40.10625 307.6125L39.23125 307.6125ZM42.95 305.28436Q42.95 304.3625 43.403126 303.72186Q43.871876 303.08124 44.7625 303.08124Q45.575 303.08124 46.10625 303.65936Q46.6375 304.22186 46.6375 305.34686Q46.6375 306.4406 46.090626 307.03436Q45.559376 307.6125 44.7625 307.6125Q43.996876 307.6125 43.465626 307.03436Q42.95 306.45624 42.95 305.28436ZM44.79375 303.8Q44.3875 303.8 44.121876 304.14374Q43.871876 304.4875 43.871876 305.39374Q43.871876 306.20624 44.1375 306.55Q44.403126 306.89374 44.79375 306.89374Q45.184376 306.89374 45.45 306.55Q45.715626 306.20624 45.715626 305.3Q45.715626 304.47186 45.45 304.14374Q45.184376 303.8 44.79375 303.8Z" fill-rule="nonzero"/><path fill="#000000" d="M19.075 261.78854L19.075 260.72604L22.325 260.72604L22.325 261.78854L19.075 261.78854ZM28.746876 263.35104L28.746876 264.36667L23.059376 264.36667Q23.059376 263.99167 23.184376 263.6323Q23.403126 263.05417 23.871876 262.49167Q24.35625 261.92917 25.2625 261.1948Q26.66875 260.03854 27.153126 259.36667Q27.653126 258.6948 27.653126 258.10104Q27.653126 257.47604 27.2 257.05417Q26.746876 256.61667 26.028126 256.61667Q25.2625 256.61667 24.809376 257.0698Q24.35625 257.52292 24.340626 258.33542L23.2625 258.22604Q23.371876 257.0073 24.090626 256.3823Q24.825 255.74167 26.059376 255.74167Q27.29375 255.74167 28.0125 256.42917Q28.73125 257.11667 28.73125 258.1323Q28.73125 258.64792 28.5125 259.14792Q28.309376 259.6323 27.809376 260.1948Q27.325 260.74167 26.2 261.6948Q25.246876 262.49167 24.965626 262.78854Q24.7 263.0698 24.528126 263.35104L28.746876 263.35104ZM30.2 262.11667L31.309376 262.02292Q31.434376 262.83542 31.871876 263.24167Q32.325 263.64792 32.965626 263.64792Q33.715626 263.64792 34.246876 263.0698Q34.778126 262.49167 34.778126 261.55417Q34.778126 260.64792 34.2625 260.1323Q33.7625 259.60104 32.934376 259.60104Q32.434376 259.60104 32.0125 259.83542Q31.60625 260.0698 31.371876 260.42917L30.3875 260.30417L31.215626 255.89792L35.496876 255.89792L35.496876 256.89792L32.059376 256.89792L31.60625 259.21042Q32.371876 258.66354 33.215626 258.66354Q34.340626 258.66354 35.10625 259.4448Q35.8875 260.22604 35.8875 261.46042Q35.8875 262.61667 35.215626 263.47604Q34.3875 264.5073 32.965626 264.5073Q31.79375 264.5073 31.04375 263.85104Q30.309376 263.1948 30.2 262.11667ZM37.403126 257.83542Q37.403126 256.91354 37.85625 256.27292Q38.325 255.6323 39.2 255.6323Q40.0125 255.6323 40.54375 256.21042Q41.075 256.78854 41.075 257.89792Q41.075 258.99167 40.528126 259.58542Q39.996876 260.16354 39.215626 260.16354Q38.434376 260.16354 37.91875 259.58542Q37.403126 259.0073 37.403126 257.83542ZM39.23125 256.35104Q38.840626 256.35104 38.575 256.6948Q38.325 257.03854 38.325 257.9448Q38.325 258.77292 38.575 259.11667Q38.840626 259.4448 39.23125 259.4448Q39.6375 259.4448 39.8875 259.10104Q40.153126 258.7573 40.153126 257.86667Q40.153126 257.02292 39.8875 256.6948Q39.621876 256.35104 39.23125 256.35104ZM39.23125 264.67917L43.934376 255.6323L44.79375 255.6323L40.10625 264.67917L39.23125 264.67917ZM42.95 262.35104Q42.95 261.42917 43.403126 260.78854Q43.871876 260.14792 44.7625 260.14792Q45.575 260.14792 46.10625 260.72604Q46.6375 261.28854 46.6375 262.41354Q46.6375 263.5073 46.090626 264.10104Q45.559376 264.67917 44.7625 264.67917Q43.996876 264.67917 43.465626 264.10104Q42.95 263.52292 42.95 262.35104ZM44.79375 260.86667Q44.3875 260.86667 44.121876 261.21042Q43.871876 261.55417 43.871876 262.46042Q43.871876 263.27292 44.1375 263.61667Q44.403126 263.96042 44.79375 263.96042Q45.184376 263.96042 45.45 263.61667Q45.715626 263.27292 45.715626 262.36667Q45.715626 261.53854 45.45 261.21042Q45.184376 260.86667 44.79375 260.86667Z" fill-rule="nonzero"/><path fill="#000000" d="M30.2 217.19896Q30.2 215.66771 30.5125 214.74583Q30.825 213.80833 31.434376 213.30833Q32.059376 212.80833 32.996876 212.80833Q33.684376 212.80833 34.2 213.08958Q34.73125 213.37083 35.075 213.90208Q35.41875 214.41771 35.60625 215.16771Q35.79375 215.91771 35.79375 217.19896Q35.79375 218.71458 35.48125 219.63646Q35.184376 220.55833 34.559376 221.07396Q33.95 221.57396 32.996876 221.57396Q31.7625 221.57396 31.04375 220.68333Q30.2 219.62083 30.2 217.19896ZM31.278126 217.19896Q31.278126 219.30833 31.778126 220.01146Q32.278126 220.71458 32.996876 220.71458Q33.73125 220.71458 34.215626 220.01146Q34.715626 219.30833 34.715626 217.19896Q34.715626 215.07396 34.215626 214.38646Q33.73125 213.68333 32.98125 213.68333Q32.2625 213.68333 31.825 214.29271Q31.278126 215.07396 31.278126 217.19896ZM37.403126 214.90208Q37.403126 213.98021 37.85625 213.33958Q38.325 212.69896 39.2 212.69896Q40.0125 212.69896 40.54375 213.27708Q41.075 213.85521 41.075 214.96458Q41.075 216.05833 40.528126 216.65208Q39.996876 217.23021 39.215626 217.23021Q38.434376 217.23021 37.91875 216.65208Q37.403126 216.07396 37.403126 214.90208ZM39.23125 213.41771Q38.840626 213.41771 38.575 213.76146Q38.325 214.10521 38.325 215.01146Q38.325 215.83958 38.575 216.18333Q38.840626 216.51146 39.23125 216.51146Q39.6375 216.51146 39.8875 216.16771Q40.153126 215.82396 40.153126 214.93333Q40.153126 214.08958 39.8875 213.76146Q39.621876 213.41771 39.23125 213.41771ZM39.23125 221.74583L43.934376 212.69896L44.79375 212.69896L40.10625 221.74583L39.23125 221.74583ZM42.95 219.41771Q42.95 218.49583 43.403126 217.85521Q43.871876 217.21458 44.7625 217.21458Q45.575 217.21458 46.10625 217.79271Q46.6375 218.35521 46.6375 219.48021Q46.6375 220.57396 46.090626 221.16771Q45.559376 221.74583 44.7625 221.74583Q43.996876 221.74583 43.465626 221.16771Q42.95 220.58958 42.95 219.41771ZM44.79375 217.93333Q44.3875 217.93333 44.121876 218.27708Q43.871876 218.62083 43.871876 219.52708Q43.871876 220.33958 44.1375 220.68333Q44.403126 221.02708 44.79375 221.02708Q45.184376 221.02708 45.45 220.68333Q45.715626 220.33958 45.715626 219.43333Q45.715626 218.60521 45.45 218.27708Q45.184376 217.93333 44.79375 217.93333Z" fill-rule="nonzero"/><path fill="#000000" d="M28.746876 177.48438L28.746876 178.5L23.059376 178.5Q23.059376 178.125 23.184376 177.76562Q23.403126 177.1875 23.871876 176.625Q24.35625 176.0625 25.2625 175.32812Q26.66875 174.17188 27.153126 173.5Q27.653126 172.82812 27.653126 172.23438Q27.653126 171.60938 27.2 171.1875Q26.746876 170.75 26.028126 170.75Q25.2625 170.75 24.809376 171.20312Q24.35625 171.65625 24.340626 172.46875L23.2625 172.35938Q23.371876 171.14062 24.090626 170.51562Q24.825 169.875 26.059376 169.875Q27.29375 169.875 28.0125 170.5625Q28.73125 171.25 28.73125 172.26562Q28.73125 172.78125 28.5125 173.28125Q28.309376 173.76562 27.809376 174.32812Q27.325 174.875 26.2 175.82812Q25.246876 176.625 24.965626 176.92188Q24.7 177.20312 24.528126 177.48438L28.746876 177.48438ZM30.2 176.25L31.309376 176.15625Q31.434376 176.96875 31.871876 177.375Q32.325 177.78125 32.965626 177.78125Q33.715626 177.78125 34.246876 177.20312Q34.778126 176.625 34.778126 175.6875Q34.778126 174.78125 34.2625 174.26562Q33.7625 173.73438 32.934376 173.73438Q32.434376 173.73438 32.0125 173.96875Q31.60625 174.20312 31.371876 174.5625L30.3875 174.4375L31.215626 170.03125L35.496876 170.03125L35.496876 171.03125L32.059376 171.03125L31.60625 173.34375Q32.371876 172.79688 33.215626 172.79688Q34.340626 172.79688 35.10625 173.57812Q35.8875 174.35938 35.8875 175.59375Q35.8875 176.75 35.215626 177.60938Q34.3875 178.64062 32.965626 178.64062Q31.79375 178.64062 31.04375 177.98438Q30.309376 177.32812 30.2 176.25ZM37.403126 171.96875Q37.403126 171.04688 37.85625 170.40625Q38.325 169.76562 39.2 169.76562Q40.0125 169.76562 40.54375 170.34375Q41.075 170.92188 41.075 172.03125Q41.075 173.125 40.528126 173.71875Q39.996876 174.29688 39.215626 174.29688Q38.434376 174.29688 37.91875 173.71875Q37.403126 173.14062 37.403126 171.96875ZM39.23125 170.48438Q38.840626 170.48438 38.575 170.82812Q38.325 171.17188 38.325 172.07812Q38.325 172.90625 38.575 173.25Q38.840626 173.57812 39.23125 173.57812Q39.6375 173.57812 39.8875 173.23438Q40.153126 172.89062 40.153126 172.0Q40.153126 171.15625 39.8875 170.82812Q39.621876 170.48438 39.23125 170.48438ZM39.23125 178.8125L43.934376 169.76562L44.79375 169.76562L40.10625 178.8125L39.23125 178.8125ZM42.95 176.48438Q42.95 175.5625 43.403126 174.92188Q43.871876 174.28125 44.7625 174.28125Q45.575 174.28125 46.10625 174.85938Q46.6375 175.42188 46.6375 176.54688Q46.6375 177.64062 46.090626 178.23438Q45.559376 178.8125 44.7625 178.8125Q43.996876 178.8125 43.465626 178.23438Q42.95 177.65625 42.95 176.48438ZM44.79375 175.0Q44.3875 175.0 44.121876 175.34375Q43.871876 175.6875 43.871876 176.59375Q43.871876 177.40625 44.1375 177.75Q44.403126 178.09375 44.79375 178.09375Q45.184376 178.09375 45.45 177.75Q45.715626 177.40625 45.715626 176.5Q45.715626 175.67188 45.45 175.34375Q45.184376 175.0 44.79375 175.0Z" fill-rule="nonzero"/><path fill="#000000" d="M23.2 133.31667L24.309376 133.22292Q24.434376 134.03542 24.871876 134.44167Q25.325 134.84792 25.965626 134.84792Q26.715626 134.84792 27.246876 134.26979Q27.778126 133.69167 27.778126 132.75417Q27.778126 131.84792 27.2625 131.33229Q26.7625 130.80104 25.934376 130.80104Q25.434376 130.80104 25.0125 131.03542Q24.60625 131.26979 24.371876 131.62917L23.3875 131.50417L24.215626 127.097916L28.496876 127.097916L28.496876 128.09792L25.059376 128.09792L24.60625 130.41042Q25.371876 129.86354 26.215626 129.86354Q27.340626 129.86354 28.10625 130.64479Q28.8875 131.42604 28.8875 132.66042Q28.8875 133.81667 28.215626 134.67604Q27.3875 135.70729 25.965626 135.70729Q24.79375 135.70729 24.04375 135.05104Q23.309376 134.39479 23.2 133.31667ZM30.2 131.33229Q30.2 129.80104 30.5125 128.87917Q30.825 127.941666 31.434376 127.441666Q32.059376 126.941666 32.996876 126.941666Q33.684376 126.941666 34.2 127.222916Q34.73125 127.504166 35.075 128.03542Q35.41875 128.55104 35.60625 129.30104Q35.79375 130.05104 35.79375 131.33229Q35.79375 132.84792 35.48125 133.76979Q35.184376 134.69167 34.559376 135.20729Q33.95 135.70729 32.996876 135.70729Q31.7625 135.70729 31.04375 134.81667Q30.2 133.75417 30.2 131.33229ZM31.278126 131.33229Q31.278126 133.44167 31.778126 134.14479Q32.278126 134.84792 32.996876 134.84792Q33.73125 134.84792 34.215626 134.14479Q34.715626 133.44167 34.715626 131.33229Q34.715626 129.20729 34.215626 128.51979Q33.73125 127.816666 32.98125 127.816666Q32.2625 127.816666 31.825 128.42604Q31.278126 129.20729 31.278126 131.33229ZM37.403126 129.03542Q37.403126 128.11354 37.85625 127.472916Q38.325 126.83229 39.2 126.83229Q40.0125 126.83229 40.54375 127.410416Q41.075 127.98854 41.075 129.09792Q41.075 130.19167 40.528126 130.78542Q39.996876 131.36354 39.215626 131.36354Q38.434376 131.36354 37.91875 130.78542Q37.403126 130.20729 37.403126 129.03542ZM39.23125 127.55104Q38.840626 127.55104 38.575 127.89479Q38.325 128.23854 38.325 129.14479Q38.325 129.97292 38.575 130.31667Q38.840626 130.64479 39.23125 130.64479Q39.6375 130.64479 39.8875 130.30104Q40.153126 129.95729 40.153126 129.06667Q40.153126 128.22292 39.8875 127.89479Q39.621876 127.55104 39.23125 127.55104ZM39.23125 135.87917L43.934376 126.83229L44.79375 126.83229L40.10625 135.87917L39.23125 135.87917ZM42.95 133.55104Q42.95 132.62917 43.403126 131.98854Q43.871876 131.34792 44.7625 131.34792Q45.575 131.34792 46.10625 131.92604Q46.6375 132.48854 46.6375 133.61354Q46.6375 134.70729 46.090626 135.30104Q45.559376 135.87917 44.7625 135.87917Q43.996876 135.87917 43.465626 135.30104Q42.95 134.72292 42.95 133.55104ZM44.79375 132.06667Q44.3875 132.06667 44.121876 132.41042Q43.871876 132.75417 43.871876 133.66042Q43.871876 134.47292 44.1375 134.81667Q44.403126 135.16042 44.79375 135.16042Q45.184376 135.16042 45.45 134.81667Q45.715626 134.47292 45.715626 133.56667Q45.715626 132.73854 45.45 132.41042Q45.184376 132.06667 44.79375 132.06667Z" fill-rule="nonzero"/><path fill="#000000" d="M23.2625 85.16458L23.2625 84.14896L28.825 84.14896L28.825 84.97708Q28.0125 85.85208 27.2 87.30521Q26.403126 88.74271 25.965626 90.27396Q25.6375 91.35208 25.559376 92.63333L24.465626 92.63333Q24.48125 91.61771 24.85625 90.18021Q25.246876 88.74271 25.95 87.41458Q26.66875 86.08646 27.48125 85.16458L23.2625 85.16458ZM30.2 90.38333L31.309376 90.28958Q31.434376 91.10208 31.871876 91.50833Q32.325 91.91458 32.965626 91.91458Q33.715626 91.91458 34.246876 91.33646Q34.778126 90.75833 34.778126 89.82083Q34.778126 88.91458 34.2625 88.39896Q33.7625 87.86771 32.934376 87.86771Q32.434376 87.86771 32.0125 88.10208Q31.60625 88.33646 31.371876 88.69583L30.3875 88.57083L31.215626 84.16458L35.496876 84.16458L35.496876 85.16458L32.059376 85.16458L31.60625 87.47708Q32.371876 86.93021 33.215626 86.93021Q34.340626 86.93021 35.10625 87.71146Q35.8875 88.49271 35.8875 89.72708Q35.8875 90.88333 35.215626 91.74271Q34.3875 92.77396 32.965626 92.77396Q31.79375 92.77396 31.04375 92.11771Q30.309376 91.46146 30.2 90.38333ZM37.403126 86.10208Q37.403126 85.18021 37.85625 84.53958Q38.325 83.89896 39.2 83.89896Q40.0125 83.89896 40.54375 84.47708Q41.075 85.05521 41.075 86.16458Q41.075 87.25833 40.528126 87.85208Q39.996876 88.43021 39.215626 88.43021Q38.434376 88.43021 37.91875 87.85208Q37.403126 87.27396 37.403126 86.10208ZM39.23125 84.61771Q38.840626 84.61771 38.575 84.96146Q38.325 85.30521 38.325 86.21146Q38.325 87.03958 38.575 87.38333Q38.840626 87.71146 39.23125 87.71146Q39.6375 87.71146 39.8875 87.36771Q40.153126 87.02396 40.153126 86.13333Q40.153126 85.28958 39.8875 84.96146Q39.621876 84.61771 39.23125 84.61771ZM39.23125 92.94583L43.934376 83.89896L44.79375 83.89896L40.10625 92.94583L39.23125 92.94583ZM42.95 90.61771Q42.95 89.69583 43.403126 89.05521Q43.871876 88.41458 44.7625 88.41458Q45.575 88.41458 46.10625 88.99271Q46.6375 89.55521 46.6375 90.68021Q46.6375 91.77396 46.090626 92.36771Q45.559376 92.94583 44.7625 92.94583Q43.996876 92.94583 43.465626 92.36771Q42.95 91.78958 42.95 90.61771ZM44.79375 89.13333Q44.3875 89.13333 44.121876 89.47708Q43.871876 89.82083 43.871876 90.72708Q43.871876 91.53958 44.1375 91.88333Q44.403126 92.22708 44.79375 92.22708Q45.184376 92.22708 45.45 91.88333Q45.715626 91.53958 45.715626 90.63333Q45.715626 89.80521 45.45 89.47708Q45.184376 89.13333 44.79375 89.13333Z" fill-rule="nonzero"/><path fill="#000000" d="M91.512054 320.3L90.46518 320.3L90.46518 313.58124Q90.074554 313.9406 89.449554 314.3156Q88.84018 314.675 88.355804 314.84686L88.355804 313.83124Q89.230804 313.40936 89.887054 312.83124Q90.55893 312.2375 90.84018 311.675L91.512054 311.675L91.512054 320.3ZM97.793304 322.6906L97.668304 321.70624Q98.012054 321.8 98.27768 321.8Q98.62143 321.8 98.824554 321.675Q99.043304 321.5656 99.18393 321.3625Q99.27768 321.1906 99.512054 320.5656Q99.52768 320.4875 99.605804 320.3156L97.230804 314.08124L98.37143 314.08124L99.668304 317.675Q99.918304 318.3625 100.12143 319.1281Q100.30893 318.39374 100.55893 317.70624L101.887054 314.08124L102.93393 314.08124L100.574554 320.40936Q100.18393 321.425 99.980804 321.8156Q99.699554 322.34686 99.324554 322.58124Q98.96518 322.83124 98.46518 322.83124Q98.168304 322.83124 97.793304 322.6906ZM108.09018 318.3L109.18393 318.425Q108.93393 319.3781 108.230804 319.90936Q107.52768 320.4406 106.449554 320.4406Q105.09018 320.4406 104.27768 319.59686Q103.480804 318.7531 103.480804 317.2375Q103.480804 315.675 104.293304 314.8156Q105.105804 313.9406 106.387054 313.9406Q107.637054 313.9406 108.418304 314.78436Q109.21518 315.6281 109.21518 317.175Q109.21518 317.26874 109.21518 317.45624L104.574554 317.45624Q104.637054 318.4875 105.15268 319.03436Q105.668304 319.5656 106.449554 319.5656Q107.02768 319.5656 107.43393 319.26874Q107.855804 318.95624 108.09018 318.3ZM104.637054 316.59686L108.105804 316.59686Q108.043304 315.8 107.71518 315.40936Q107.199554 314.8 106.40268 314.8Q105.668304 314.8 105.168304 315.28436Q104.68393 315.76874 104.637054 316.59686ZM114.90268 319.53436Q114.30893 320.03436 113.762054 320.2375Q113.230804 320.4406 112.605804 320.4406Q111.574554 320.4406 111.02768 319.9406Q110.480804 319.4406 110.480804 318.65936Q110.480804 318.20624 110.68393 317.83124Q110.887054 317.4406 111.230804 317.22186Q111.574554 316.9875 111.99643 316.8781Q112.293304 316.78436 112.93393 316.70624Q114.199554 316.5656 114.80893 316.34686Q114.80893 316.1281 114.80893 316.08124Q114.80893 315.425 114.512054 315.15936Q114.105804 314.8156 113.30893 314.8156Q112.574554 314.8156 112.21518 315.08124Q111.855804 315.33124 111.68393 315.9875L110.65268 315.84686Q110.793304 315.1906 111.12143 314.78436Q111.449554 314.3781 112.05893 314.15936Q112.668304 313.9406 113.46518 313.9406Q114.262054 313.9406 114.762054 314.1281Q115.262054 314.3156 115.49643 314.59686Q115.730804 314.8781 115.824554 315.3156Q115.87143 315.58124 115.87143 316.28436L115.87143 317.6906Q115.87143 319.15936 115.93393 319.55Q116.012054 319.9406 116.21518 320.3L115.105804 320.3Q114.949554 319.97186 114.90268 319.53436ZM114.80893 317.175Q114.230804 317.40936 113.09018 317.58124Q112.43393 317.675 112.168304 317.8Q111.90268 317.90936 111.74643 318.1281Q111.605804 318.34686 111.605804 318.6281Q111.605804 319.05 111.918304 319.33124Q112.24643 319.6125 112.855804 319.6125Q113.46518 319.6125 113.93393 319.34686Q114.418304 319.08124 114.637054 318.6125Q114.80893 318.2531 114.80893 317.5656L114.80893 317.175ZM117.824554 320.3L117.824554 314.08124L118.77768 314.08124L118.77768 315.01874Q119.137054 314.3625 119.43393 314.15936Q119.74643 313.9406 120.12143 313.9406Q120.65268 313.9406 121.199554 314.26874L120.84018 315.2531Q120.449554 315.01874 120.074554 315.01874Q119.71518 315.01874 119.43393 315.2375Q119.168304 315.4406 119.05893 315.8156Q118.87143 316.3781 118.87143 317.03436L118.87143 320.3L117.824554 320.3Z" fill-rule="nonzero"/><path fill="#000000" d="M162.12599 318.03436L163.18849 317.89374Q163.36037 318.78436 163.79787 319.1906Q164.23537 319.58124 164.86037 319.58124Q165.61037 319.58124 166.12599 319.0656Q166.64162 318.55 166.64162 317.78436Q166.64162 317.0656 166.15724 316.59686Q165.68849 316.1125 164.95412 316.1125Q164.65724 316.1125 164.20412 316.2375L164.32912 315.3Q164.43849 315.3156 164.50099 315.3156Q165.17287 315.3156 165.70412 314.97186Q166.25099 314.6125 166.25099 313.8781Q166.25099 313.3 165.86037 312.925Q165.46974 312.53436 164.84474 312.53436Q164.23537 312.53436 163.81349 312.925Q163.40724 313.3156 163.29787 314.08124L162.23537 313.89374Q162.42287 312.84686 163.11037 312.26874Q163.79787 311.675 164.81349 311.675Q165.51662 311.675 166.11037 311.9875Q166.70412 312.28436 167.01662 312.8Q167.32912 313.3156 167.32912 313.90936Q167.32912 314.45624 167.03224 314.925Q166.73537 315.3781 166.15724 315.64374Q166.90724 315.8156 167.32912 316.3781Q167.75099 316.925 167.75099 317.76874Q167.75099 318.89374 166.92287 319.675Q166.11037 320.45624 164.86037 320.45624Q163.73537 320.45624 162.98537 319.78436Q162.23537 319.09686 162.12599 318.03436ZM172.37599 322.6906L172.25099 321.70624Q172.59474 321.8 172.86037 321.8Q173.20412 321.8 173.40724 321.675Q173.62599 321.5656 173.76662 321.3625Q173.86037 321.1906 174.09474 320.5656Q174.11037 320.4875 174.18849 320.3156L171.81349 314.08124L172.95412 314.08124L174.25099 317.675Q174.50099 318.3625 174.70412 319.1281Q174.89162 318.39374 175.14162 317.70624L176.46974 314.08124L177.51662 314.08124L175.15724 320.40936Q174.76662 321.425 174.56349 321.8156Q174.28224 322.34686 173.90724 322.58124Q173.54787 322.83124 173.04787 322.83124Q172.75099 322.83124 172.37599 322.6906ZM182.67287 318.3L183.76662 318.425Q183.51662 319.3781 182.81349 319.90936Q182.11037 320.4406 181.03224 320.4406Q179.67287 320.4406 178.86037 319.59686Q178.06349 318.7531 178.06349 317.2375Q178.06349 315.675 178.87599 314.8156Q179.68849 313.9406 180.96974 313.9406Q182.21974 313.9406 183.00099 314.78436Q183.79787 315.6281 183.79787 317.175Q183.79787 317.26874 183.79787 317.45624L179.15724 317.45624Q179.21974 318.4875 179.73537 319.03436Q180.25099 319.5656 181.03224 319.5656Q181.61037 319.5656 182.01662 319.26874Q182.43849 318.95624 182.67287 318.3ZM179.21974 316.59686L182.68849 316.59686Q182.62599 315.8 182.29787 315.40936Q181.78224 314.8 180.98537 314.8Q180.25099 314.8 179.75099 315.28436Q179.26662 315.76874 179.21974 316.59686ZM189.48537 319.53436Q188.89162 320.03436 188.34474 320.2375Q187.81349 320.4406 187.18849 320.4406Q186.15724 320.4406 185.61037 319.9406Q185.06349 319.4406 185.06349 318.65936Q185.06349 318.20624 185.26662 317.83124Q185.46974 317.4406 185.81349 317.22186Q186.15724 316.9875 186.57912 316.8781Q186.87599 316.78436 187.51662 316.70624Q188.78224 316.5656 189.39162 316.34686Q189.39162 316.1281 189.39162 316.08124Q189.39162 315.425 189.09474 315.15936Q188.68849 314.8156 187.89162 314.8156Q187.15724 314.8156 186.79787 315.08124Q186.43849 315.33124 186.26662 315.9875L185.23537 315.84686Q185.37599 315.1906 185.70412 314.78436Q186.03224 314.3781 186.64162 314.15936Q187.25099 313.9406 188.04787 313.9406Q188.84474 313.9406 189.34474 314.1281Q189.84474 314.3156 190.07912 314.59686Q190.31349 314.8781 190.40724 315.3156Q190.45412 315.58124 190.45412 316.28436L190.45412 317.6906Q190.45412 319.15936 190.51662 319.55Q190.59474 319.9406 190.79787 320.3L189.68849 320.3Q189.53224 319.97186 189.48537 319.53436ZM189.39162 317.175Q188.81349 317.40936 187.67287 317.58124Q187.01662 317.675 186.75099 317.8Q186.48537 317.90936 186.32912 318.1281Q186.18849 318.34686 186.18849 318.6281Q186.18849 319.05 186.50099 319.33124Q186.82912 319.6125 187.43849 319.6125Q188.04787 319.6125 188.51662 319.34686Q189.00099 319.08124 189.21974 318.6125Q189.39162 318.2531 189.39162 317.5656L189.39162 317.175ZM192.40724 320.3L192.40724 314.08124L193.36037 314.08124L193.36037 315.01874Q193.71974 314.3625 194.01662 314.15936Q194.32912 313.9406 194.70412 313.9406Q195.23537 313.9406 195.78224 314.26874L195.42287 315.2531Q195.03224 315.01874 194.65724 315.01874Q194.29787 315.01874 194.01662 315.2375Q193.75099 315.4406 193.64162 315.8156Q193.45412 316.3781 193.45412 317.03436L193.45412 320.3L192.40724 320.3Z" fill-rule="nonzero"/><path fill="#000000" d="M236.70866 318.05L237.81804 317.95624Q237.94304 318.76874 238.38054 319.175Q238.83366 319.58124 239.47429 319.58124Q240.22429 319.58124 240.75554 319.0031Q241.28679 318.425 241.28679 317.4875Q241.28679 316.58124 240.77116 316.0656Q240.27116 315.53436 239.44304 315.53436Q238.94304 315.53436 238.52116 315.76874Q238.11491 316.0031 237.88054 316.3625L236.89616 316.2375L237.72429 311.83124L242.00554 311.83124L242.00554 312.83124L238.56804 312.83124L238.11491 315.14374Q238.88054 314.59686 239.72429 314.59686Q240.84929 314.59686 241.61491 315.3781Q242.39616 316.15936 242.39616 317.39374Q242.39616 318.55 241.72429 319.40936Q240.89616 320.4406 239.47429 320.4406Q238.30241 320.4406 237.55241 319.78436Q236.81804 319.1281 236.70866 318.05ZM246.95866 322.6906L246.83366 321.70624Q247.17741 321.8 247.44304 321.8Q247.78679 321.8 247.98991 321.675Q248.20866 321.5656 248.34929 321.3625Q248.44304 321.1906 248.67741 320.5656Q248.69304 320.4875 248.77116 320.3156L246.39616 314.08124L247.53679 314.08124L248.83366 317.675Q249.08366 318.3625 249.28679 319.1281Q249.47429 318.39374 249.72429 317.70624L251.05241 314.08124L252.09929 314.08124L249.73991 320.40936Q249.34929 321.425 249.14616 321.8156Q248.86491 322.34686 248.48991 322.58124Q248.13054 322.83124 247.63054 322.83124Q247.33366 322.83124 246.95866 322.6906ZM257.25555 318.3L258.3493 318.425Q258.0993 319.3781 257.39618 319.90936Q256.69305 320.4406 255.61491 320.4406Q254.25554 320.4406 253.44304 319.59686Q252.64616 318.7531 252.64616 317.2375Q252.64616 315.675 253.45866 314.8156Q254.27116 313.9406 255.55241 313.9406Q256.80243 313.9406 257.58368 314.78436Q258.38055 315.6281 258.38055 317.175Q258.38055 317.26874 258.38055 317.45624L253.73991 317.45624Q253.80241 318.4875 254.31804 319.03436Q254.83366 319.5656 255.61491 319.5656Q256.19305 319.5656 256.5993 319.26874Q257.02118 318.95624 257.25555 318.3ZM253.80241 316.59686L257.27118 316.59686Q257.20868 315.8 256.88055 315.40936Q256.36493 314.8 255.56804 314.8Q254.83366 314.8 254.33366 315.28436Q253.84929 315.76874 253.80241 316.59686ZM264.06805 319.53436Q263.4743 320.03436 262.92743 320.2375Q262.39618 320.4406 261.77118 320.4406Q260.73993 320.4406 260.19305 319.9406Q259.64618 319.4406 259.64618 318.65936Q259.64618 318.20624 259.8493 317.83124Q260.05243 317.4406 260.39618 317.22186Q260.73993 316.9875 261.1618 316.8781Q261.45868 316.78436 262.0993 316.70624Q263.36493 316.5656 263.9743 316.34686Q263.9743 316.1281 263.9743 316.08124Q263.9743 315.425 263.67743 315.15936Q263.27118 314.8156 262.4743 314.8156Q261.73993 314.8156 261.38055 315.08124Q261.02118 315.33124 260.8493 315.9875L259.81805 315.84686Q259.95868 315.1906 260.2868 314.78436Q260.61493 314.3781 261.2243 314.15936Q261.83368 313.9406 262.63055 313.9406Q263.42743 313.9406 263.92743 314.1281Q264.42743 314.3156 264.6618 314.59686Q264.89618 314.8781 264.98993 315.3156Q265.0368 315.58124 265.0368 316.28436L265.0368 317.6906Q265.0368 319.15936 265.0993 319.55Q265.17743 319.9406 265.38055 320.3L264.27118 320.3Q264.11493 319.97186 264.06805 319.53436ZM263.9743 317.175Q263.39618 317.40936 262.25555 317.58124Q261.5993 317.675 261.33368 317.8Q261.06805 317.90936 260.9118 318.1281Q260.77118 318.34686 260.77118 318.6281Q260.77118 319.05 261.08368 319.33124Q261.4118 319.6125 262.02118 319.6125Q262.63055 319.6125 263.0993 319.34686Q263.58368 319.08124 263.80243 318.6125Q263.9743 318.2531 263.9743 317.5656L263.9743 317.175ZM266.98993 320.3L266.98993 314.08124L267.94305 314.08124L267.94305 315.01874Q268.30243 314.3625 268.5993 314.15936Q268.9118 313.9406 269.2868 313.9406Q269.81805 313.9406 270.36493 314.26874L270.00555 315.2531Q269.61493 315.01874 269.23993 315.01874Q268.88055 315.01874 268.5993 315.2375Q268.33368 315.4406 268.2243 315.8156Q268.0368 316.3781 268.0368 317.03436L268.0368 320.3L266.98993 320.3Z" fill-rule="nonzero"/><path fill="#000000" d="M311.7601 320.3L310.71323 320.3L310.71323 313.58124Q310.3226 313.9406 309.6976 314.3156Q309.08823 314.675 308.60385 314.84686L308.60385 313.83124Q309.47885 313.40936 310.1351 312.83124Q310.80698 312.2375 311.08823 311.675L311.7601 311.675L311.7601 320.3ZM314.79135 316.0656Q314.79135 314.53436 315.10385 313.6125Q315.41635 312.675 316.02573 312.175Q316.65073 311.675 317.58823 311.675Q318.27573 311.675 318.79135 311.95624Q319.3226 312.2375 319.66635 312.76874Q320.0101 313.28436 320.1976 314.03436Q320.3851 314.78436 320.3851 316.0656Q320.3851 317.58124 320.0726 318.5031Q319.77573 319.425 319.15073 319.9406Q318.54135 320.4406 317.58823 320.4406Q316.35385 320.4406 315.6351 319.55Q314.79135 318.4875 314.79135 316.0656ZM315.86948 316.0656Q315.86948 318.175 316.36948 318.8781Q316.86948 319.58124 317.58823 319.58124Q318.3226 319.58124 318.80698 318.8781Q319.30698 318.175 319.30698 316.0656Q319.30698 313.9406 318.80698 313.2531Q318.3226 312.55 317.5726 312.55Q316.85385 312.55 316.41635 313.15936Q315.86948 313.9406 315.86948 316.0656ZM325.04135 322.6906L324.91635 321.70624Q325.2601 321.8 325.52573 321.8Q325.86948 321.8 326.0726 321.675Q326.29135 321.5656 326.43198 321.3625Q326.52573 321.1906 326.7601 320.5656Q326.77573 320.4875 326.85385 320.3156L324.47885 314.08124L325.61948 314.08124L326.91635 317.675Q327.16635 318.3625 327.36948 319.1281Q327.55698 318.39374 327.80698 317.70624L329.1351 314.08124L330.18198 314.08124L327.8226 320.40936Q327.43198 321.425 327.22885 321.8156Q326.9476 322.34686 326.5726 322.58124Q326.21323 322.83124 325.71323 322.83124Q325.41635 322.83124 325.04135 322.6906ZM335.33823 318.3L336.43198 318.425Q336.18198 319.3781 335.47885 319.90936Q334.77573 320.4406 333.6976 320.4406Q332.33823 320.4406 331.52573 319.59686Q330.72885 318.7531 330.72885 317.2375Q330.72885 315.675 331.54135 314.8156Q332.35385 313.9406 333.6351 313.9406Q334.8851 313.9406 335.66635 314.78436Q336.46323 315.6281 336.46323 317.175Q336.46323 317.26874 336.46323 317.45624L331.8226 317.45624Q331.8851 318.4875 332.40073 319.03436Q332.91635 319.5656 333.6976 319.5656Q334.27573 319.5656 334.68198 319.26874Q335.10385 318.95624 335.33823 318.3ZM331.8851 316.59686L335.35385 316.59686Q335.29135 315.8 334.96323 315.40936Q334.4476 314.8 333.65073 314.8Q332.91635 314.8 332.41635 315.28436Q331.93198 315.76874 331.8851 316.59686ZM342.15073 319.53436Q341.55698 320.03436 341.0101 320.2375Q340.47885 320.4406 339.85385 320.4406Q338.8226 320.4406 338.27573 319.9406Q337.72885 319.4406 337.72885 318.65936Q337.72885 318.20624 337.93198 317.83124Q338.1351 317.4406 338.47885 317.22186Q338.8226 316.9875 339.24448 316.8781Q339.54135 316.78436 340.18198 316.70624Q341.4476 316.5656 342.05698 316.34686Q342.05698 316.1281 342.05698 316.08124Q342.05698 315.425 341.7601 315.15936Q341.35385 314.8156 340.55698 314.8156Q339.8226 314.8156 339.46323 315.08124Q339.10385 315.33124 338.93198 315.9875L337.90073 315.84686Q338.04135 315.1906 338.36948 314.78436Q338.6976 314.3781 339.30698 314.15936Q339.91635 313.9406 340.71323 313.9406Q341.5101 313.9406 342.0101 314.1281Q342.5101 314.3156 342.74448 314.59686Q342.97885 314.8781 343.0726 315.3156Q343.11948 315.58124 343.11948 316.28436L343.11948 317.6906Q343.11948 319.15936 343.18198 319.55Q343.2601 319.9406 343.46323 320.3L342.35385 320.3Q342.1976 319.97186 342.15073 319.53436ZM342.05698 317.175Q341.47885 317.40936 340.33823 317.58124Q339.68198 317.675 339.41635 317.8Q339.15073 317.90936 338.99448 318.1281Q338.85385 318.34686 338.85385 318.6281Q338.85385 319.05 339.16635 319.33124Q339.49448 319.6125 340.10385 319.6125Q340.71323 319.6125 341.18198 319.34686Q341.66635 319.08124 341.8851 318.6125Q342.05698 318.2531 342.05698 317.5656L342.05698 317.175ZM345.0726 320.3L345.0726 314.08124L346.02573 314.08124L346.02573 315.01874Q346.3851 314.3625 346.68198 314.15936Q346.99448 313.9406 347.36948 313.9406Q347.90073 313.9406 348.4476 314.26874L348.08823 315.2531Q347.6976 315.01874 347.3226 315.01874Q346.96323 315.01874 346.68198 315.2375Q346.41635 315.4406 346.30698 315.8156Q346.11948 316.3781 346.11948 317.03436L346.11948 320.3L345.0726 320.3Z" fill-rule="nonzero"/><path fill="#000000" d="M386.34277 320.3L385.2959 320.3L385.2959 313.58124Q384.90527 313.9406 384.28027 314.3156Q383.6709 314.675 383.18652 314.84686L383.18652 313.83124Q384.06152 313.40936 384.71777 312.83124Q385.38965 312.2375 385.6709 311.675L386.34277 311.675L386.34277 320.3ZM389.37402 318.05L390.4834 317.95624Q390.6084 318.76874 391.0459 319.175Q391.49902 319.58124 392.13965 319.58124Q392.88965 319.58124 393.4209 319.0031Q393.95215 318.425 393.95215 317.4875Q393.95215 316.58124 393.43652 316.0656Q392.93652 315.53436 392.1084 315.53436Q391.6084 315.53436 391.18652 315.76874Q390.78027 316.0031 390.5459 316.3625L389.56152 316.2375L390.38965 311.83124L394.6709 311.83124L394.6709 312.83124L391.2334 312.83124L390.78027 315.14374Q391.5459 314.59686 392.38965 314.59686Q393.51465 314.59686 394.28027 315.3781Q395.06152 316.15936 395.06152 317.39374Q395.06152 318.55 394.38965 319.40936Q393.56152 320.4406 392.13965 320.4406Q390.96777 320.4406 390.21777 319.78436Q389.4834 319.1281 389.37402 318.05ZM399.62402 322.6906L399.49902 321.70624Q399.84277 321.8 400.1084 321.8Q400.45215 321.8 400.65527 321.675Q400.87402 321.5656 401.01465 321.3625Q401.1084 321.1906 401.34277 320.5656Q401.3584 320.4875 401.43652 320.3156L399.06152 314.08124L400.20215 314.08124L401.49902 317.675Q401.74902 318.3625 401.95215 319.1281Q402.13965 318.39374 402.38965 317.70624L403.71777 314.08124L404.76465 314.08124L402.40527 320.40936Q402.01465 321.425 401.81152 321.8156Q401.53027 322.34686 401.15527 322.58124Q400.7959 322.83124 400.2959 322.83124Q399.99902 322.83124 399.62402 322.6906ZM409.9209 318.3L411.01465 318.425Q410.76465 319.3781 410.06152 319.90936Q409.3584 320.4406 408.28027 320.4406Q406.9209 320.4406 406.1084 319.59686Q405.31152 318.7531 405.31152 317.2375Q405.31152 315.675 406.12402 314.8156Q406.93652 313.9406 408.21777 313.9406Q409.46777 313.9406 410.24902 314.78436Q411.0459 315.6281 411.0459 317.175Q411.0459 317.26874 411.0459 317.45624L406.40527 317.45624Q406.46777 318.4875 406.9834 319.03436Q407.49902 319.5656 408.28027 319.5656Q408.8584 319.5656 409.26465 319.26874Q409.68652 318.95624 409.9209 318.3ZM406.46777 316.59686L409.93652 316.59686Q409.87402 315.8 409.5459 315.40936Q409.03027 314.8 408.2334 314.8Q407.49902 314.8 406.99902 315.28436Q406.51465 315.76874 406.46777 316.59686ZM416.7334 319.53436Q416.13965 320.03436 415.59277 320.2375Q415.06152 320.4406 414.43652 320.4406Q413.40527 320.4406 412.8584 319.9406Q412.31152 319.4406 412.31152 318.65936Q412.31152 318.20624 412.51465 317.83124Q412.71777 317.4406 413.06152 317.22186Q413.40527 316.9875 413.82715 316.8781Q414.12402 316.78436 414.76465 316.70624Q416.03027 316.5656 416.63965 316.34686Q416.63965 316.1281 416.63965 316.08124Q416.63965 315.425 416.34277 315.15936Q415.93652 314.8156 415.13965 314.8156Q414.40527 314.8156 414.0459 315.08124Q413.68652 315.33124 413.51465 315.9875L412.4834 315.84686Q412.62402 315.1906 412.95215 314.78436Q413.28027 314.3781 413.88965 314.15936Q414.49902 313.9406 415.2959 313.9406Q416.09277 313.9406 416.59277 314.1281Q417.09277 314.3156 417.32715 314.59686Q417.56152 314.8781 417.65527 315.3156Q417.70215 315.58124 417.70215 316.28436L417.70215 317.6906Q417.70215 319.15936 417.76465 319.55Q417.84277 319.9406 418.0459 320.3L416.93652 320.3Q416.78027 319.97186 416.7334 319.53436ZM416.63965 317.175Q416.06152 317.40936 414.9209 317.58124Q414.26465 317.675 413.99902 317.8Q413.7334 317.90936 413.57715 318.1281Q413.43652 318.34686 413.43652 318.6281Q413.43652 319.05 413.74902 319.33124Q414.07715 319.6125 414.68652 319.6125Q415.2959 319.6125 415.76465 319.34686Q416.24902 319.08124 416.46777 318.6125Q416.63965 318.2531 416.63965 317.5656L416.63965 317.175ZM419.65527 320.3L419.65527 314.08124L420.6084 314.08124L420.6084 315.01874Q420.96777 314.3625 421.26465 314.15936Q421.57715 313.9406 421.95215 313.9406Q422.4834 313.9406 423.03027 314.26874L422.6709 315.2531Q422.28027 315.01874 421.90527 315.01874Q421.5459 315.01874 421.26465 315.2375Q420.99902 315.4406 420.88965 315.8156Q420.70215 316.3781 420.70215 317.03436L420.70215 320.3L419.65527 320.3Z" fill-rule="nonzero"/><path fill="#000000" d="M462.50357 319.28436L462.50357 320.3L456.81607 320.3Q456.81607 319.925 456.94107 319.5656Q457.15982 318.9875 457.62857 318.425Q458.11295 317.8625 459.0192 317.1281Q460.42545 315.97186 460.90982 315.3Q461.40982 314.6281 461.40982 314.03436Q461.40982 313.40936 460.9567 312.9875Q460.50357 312.55 459.78482 312.55Q459.0192 312.55 458.56607 313.0031Q458.11295 313.45624 458.09732 314.26874L457.0192 314.15936Q457.12857 312.9406 457.84732 312.3156Q458.5817 311.675 459.81607 311.675Q461.05045 311.675 461.7692 312.3625Q462.48795 313.05 462.48795 314.0656Q462.48795 314.58124 462.2692 315.08124Q462.06607 315.5656 461.56607 316.1281Q461.0817 316.675 459.9567 317.6281Q459.00357 318.425 458.72232 318.72186Q458.4567 319.0031 458.28482 319.28436L462.50357 319.28436ZM463.9567 316.0656Q463.9567 314.53436 464.2692 313.6125Q464.5817 312.675 465.19107 312.175Q465.81607 311.675 466.75357 311.675Q467.44107 311.675 467.9567 311.95624Q468.48795 312.2375 468.8317 312.76874Q469.17545 313.28436 469.36295 314.03436Q469.55045 314.78436 469.55045 316.0656Q469.55045 317.58124 469.23795 318.5031Q468.94107 319.425 468.31607 319.9406Q467.7067 320.4406 466.75357 320.4406Q465.5192 320.4406 464.80045 319.55Q463.9567 318.4875 463.9567 316.0656ZM465.03482 316.0656Q465.03482 318.175 465.53482 318.8781Q466.03482 319.58124 466.75357 319.58124Q467.48795 319.58124 467.97232 318.8781Q468.47232 318.175 468.47232 316.0656Q468.47232 313.9406 467.97232 313.2531Q467.48795 312.55 466.73795 312.55Q466.0192 312.55 465.5817 313.15936Q465.03482 313.9406 465.03482 316.0656ZM474.2067 322.6906L474.0817 321.70624Q474.42545 321.8 474.69107 321.8Q475.03482 321.8 475.23795 321.675Q475.4567 321.5656 475.59732 321.3625Q475.69107 321.1906 475.92545 320.5656Q475.94107 320.4875 476.0192 320.3156L473.6442 314.08124L474.78482 314.08124L476.0817 317.675Q476.3317 318.3625 476.53482 319.1281Q476.72232 318.39374 476.97232 317.70624L478.30045 314.08124L479.34732 314.08124L476.98795 320.40936Q476.59732 321.425 476.3942 321.8156Q476.11295 322.34686 475.73795 322.58124Q475.37857 322.83124 474.87857 322.83124Q474.5817 322.83124 474.2067 322.6906ZM484.50357 318.3L485.59732 318.425Q485.34732 319.3781 484.6442 319.90936Q483.94107 320.4406 482.86295 320.4406Q481.50357 320.4406 480.69107 319.59686Q479.8942 318.7531 479.8942 317.2375Q479.8942 315.675 480.7067 314.8156Q481.5192 313.9406 482.80045 313.9406Q484.05045 313.9406 484.8317 314.78436Q485.62857 315.6281 485.62857 317.175Q485.62857 317.26874 485.62857 317.45624L480.98795 317.45624Q481.05045 318.4875 481.56607 319.03436Q482.0817 319.5656 482.86295 319.5656Q483.44107 319.5656 483.84732 319.26874Q484.2692 318.95624 484.50357 318.3ZM481.05045 316.59686L484.5192 316.59686Q484.4567 315.8 484.12857 315.40936Q483.61295 314.8 482.81607 314.8Q482.0817 314.8 481.5817 315.28436Q481.09732 315.76874 481.05045 316.59686ZM491.31607 319.53436Q490.72232 320.03436 490.17545 320.2375Q489.6442 320.4406 489.0192 320.4406Q487.98795 320.4406 487.44107 319.9406Q486.8942 319.4406 486.8942 318.65936Q486.8942 318.20624 487.09732 317.83124Q487.30045 317.4406 487.6442 317.22186Q487.98795 316.9875 488.40982 316.8781Q488.7067 316.78436 489.34732 316.70624Q490.61295 316.5656 491.22232 316.34686Q491.22232 316.1281 491.22232 316.08124Q491.22232 315.425 490.92545 315.15936Q490.5192 314.8156 489.72232 314.8156Q488.98795 314.8156 488.62857 315.08124Q488.2692 315.33124 488.09732 315.9875L487.06607 315.84686Q487.2067 315.1906 487.53482 314.78436Q487.86295 314.3781 488.47232 314.15936Q489.0817 313.9406 489.87857 313.9406Q490.67545 313.9406 491.17545 314.1281Q491.67545 314.3156 491.90982 314.59686Q492.1442 314.8781 492.23795 315.3156Q492.28482 315.58124 492.28482 316.28436L492.28482 317.6906Q492.28482 319.15936 492.34732 319.55Q492.42545 319.9406 492.62857 320.3L491.5192 320.3Q491.36295 319.97186 491.31607 319.53436ZM491.22232 317.175Q490.6442 317.40936 489.50357 317.58124Q488.84732 317.675 488.5817 317.8Q488.31607 317.90936 488.15982 318.1281Q488.0192 318.34686 488.0192 318.6281Q488.0192 319.05 488.3317 319.33124Q488.65982 319.6125 489.2692 319.6125Q489.87857 319.6125 490.34732 319.34686Q490.8317 319.08124 491.05045 318.6125Q491.22232 318.2531 491.22232 317.5656L491.22232 317.175ZM494.23795 320.3L494.23795 314.08124L495.19107 314.08124L495.19107 315.01874Q495.55045 314.3625 495.84732 314.15936Q496.15982 313.9406 496.53482 313.9406Q497.06607 313.9406 497.61295 314.26874L497.25357 315.2531Q496.86295 315.01874 496.48795 315.01874Q496.12857 315.01874 495.84732 315.2375Q495.5817 315.4406 495.47232 315.8156Q495.28482 316.3781 495.28482 317.03436L495.28482 320.3L494.23795 320.3Z" fill-rule="nonzero"/><path fill="#34a853" d="M182.5 57.166668C182.5 56.614384 182.94771 56.166668 183.5 56.166668L193.5 56.166668C194.05229 56.166668 194.5 56.614384 194.5 57.166668L194.5 67.166664C194.5 67.71895 194.05229 68.166664 193.5 68.166664L183.5 68.166664C182.94771 68.166664 182.5 67.71895 182.5 67.166664Z" fill-rule="nonzero"/><path fill="#1a1a1a" d="M203.375 66.166664L203.375 57.572914L206.60938 57.572914Q207.59375 57.572914 208.1875 57.83854Q208.78125 58.104164 209.10938 58.65104Q209.45312 59.18229 209.45312 59.77604Q209.45312 60.322914 209.15625 60.80729Q208.85938 61.291664 208.25 61.58854Q209.03125 61.822914 209.4375 62.385414Q209.85938 62.93229 209.85938 63.68229Q209.85938 64.27604 209.60938 64.80729Q209.35938 65.322914 208.98438 65.604164Q208.60938 65.885414 208.03125 66.02604Q207.46875 66.166664 206.65625 66.166664L203.375 66.166664ZM204.51562 61.18229L206.375 61.18229Q207.125 61.18229 207.45312 61.08854Q207.89062 60.96354 208.10938 60.666664Q208.32812 60.354164 208.32812 59.90104Q208.32812 59.479164 208.125 59.15104Q207.92188 58.822914 207.53125 58.71354Q207.15625 58.58854 206.23438 58.58854L204.51562 58.58854L204.51562 61.18229ZM204.51562 65.15104L206.65625 65.15104Q207.20312 65.15104 207.42188 65.104164Q207.82812 65.041664 208.07812 64.885414Q208.34375 64.71354 208.51562 64.40104Q208.6875 64.08854 208.6875 63.68229Q208.6875 63.197914 208.4375 62.83854Q208.20312 62.479164 207.76562 62.33854Q207.32812 62.197914 206.5 62.197914L204.51562 62.197914L204.51562 65.15104ZM215.54688 64.166664L216.64062 64.291664Q216.39062 65.24479 215.6875 65.77604Q214.98438 66.30729 213.90625 66.30729Q212.54688 66.30729 211.73438 65.46354Q210.9375 64.61979 210.9375 63.104164Q210.9375 61.541664 211.75 60.68229Q212.5625 59.80729 213.84375 59.80729Q215.09375 59.80729 215.875 60.65104Q216.67188 61.49479 216.67188 63.041664Q216.67188 63.135414 216.67188 63.322914L212.03125 63.322914Q212.09375 64.354164 212.60938 64.90104Q213.125 65.43229 213.90625 65.43229Q214.48438 65.43229 214.89062 65.135414Q215.3125 64.822914 215.54688 64.166664ZM212.09375 62.46354L215.5625 62.46354Q215.5 61.666664 215.17188 61.27604Q214.65625 60.666664 213.85938 60.666664Q213.125 60.666664 212.625 61.15104Q212.14062 61.635414 212.09375 62.46354ZM217.875 64.30729L218.90625 64.15104Q219.0 64.77604 219.39062 65.104164Q219.79688 65.43229 220.53125 65.43229Q221.25 65.43229 221.59375 65.15104Q221.95312 64.854164 221.95312 64.447914Q221.95312 64.08854 221.64062 63.885414Q221.42188 63.74479 220.5625 63.52604Q219.40625 63.229164 218.95312 63.02604Q218.51562 62.80729 218.28125 62.43229Q218.04688 62.05729 218.04688 61.58854Q218.04688 61.18229 218.23438 60.822914Q218.42188 60.46354 218.75 60.229164Q219.0 60.05729 219.42188 59.93229Q219.84375 59.80729 220.34375 59.80729Q221.0625 59.80729 221.60938 60.02604Q222.17188 60.229164 222.4375 60.58854Q222.70312 60.947914 222.79688 61.541664L221.76562 61.68229Q221.70312 61.21354 221.35938 60.947914Q221.03125 60.666664 220.40625 60.666664Q219.6875 60.666664 219.375 60.916664Q219.0625 61.15104 219.0625 61.479164Q219.0625 61.68229 219.1875 61.83854Q219.32812 62.010414 219.59375 62.11979Q219.75 62.18229 220.53125 62.385414Q221.65625 62.697914 222.09375 62.885414Q222.53125 63.072914 222.78125 63.43229Q223.03125 63.791664 223.03125 64.33854Q223.03125 64.86979 222.71875 65.33854Q222.42188 65.791664 221.84375 66.05729Q221.26562 66.30729 220.53125 66.30729Q219.3125 66.30729 218.67188 65.80729Q218.04688 65.291664 217.875 64.30729ZM226.59375 65.229164L226.75 66.15104Q226.29688 66.24479 225.95312 66.24479Q225.375 66.24479 225.0625 66.072914Q224.75 65.885414 224.60938 65.58854Q224.48438 65.291664 224.48438 64.33854L224.48438 60.760414L223.71875 60.760414L223.71875 59.947914L224.48438 59.947914L224.48438 58.40104L225.53125 57.77604L225.53125 59.947914L226.59375 59.947914L226.59375 60.760414L225.53125 60.760414L225.53125 64.40104Q225.53125 64.854164 225.57812 64.979164Q225.64062 65.104164 225.76562 65.18229Q225.89062 65.260414 226.125 65.260414Q226.3125 65.260414 226.59375 65.229164ZM230.28125 66.166664L230.28125 59.947914L231.23438 59.947914L231.23438 60.885414Q231.59375 60.229164 231.89062 60.02604Q232.20312 59.80729 232.57812 59.80729Q233.10938 59.80729 233.65625 60.135414L233.29688 61.11979Q232.90625 60.885414 232.53125 60.885414Q232.17188 60.885414 231.89062 61.104164Q231.625 61.30729 231.51562 61.68229Q231.32812 62.24479 231.32812 62.90104L231.32812 66.166664L230.28125 66.166664ZM238.54688 64.166664L239.64062 64.291664Q239.39062 65.24479 238.6875 65.77604Q237.98438 66.30729 236.90625 66.30729Q235.54688 66.30729 234.73438 65.46354Q233.9375 64.61979 233.9375 63.104164Q233.9375 61.541664 234.75 60.68229Q235.5625 59.80729 236.84375 59.80729Q238.09375 59.80729 238.875 60.65104Q239.67188 61.49479 239.67188 63.041664Q239.67188 63.135414 239.67188 63.322914L235.03125 63.322914Q235.09375 64.354164 235.60938 64.90104Q236.125 65.43229 236.90625 65.43229Q237.48438 65.43229 237.89062 65.135414Q238.3125 64.822914 238.54688 64.166664ZM235.09375 62.46354L238.5625 62.46354Q238.5 61.666664 238.17188 61.27604Q237.65625 60.666664 236.85938 60.666664Q236.125 60.666664 235.625 61.15104Q235.14062 61.635414 235.09375 62.46354ZM243.59375 65.229164L243.75 66.15104Q243.29688 66.24479 242.95312 66.24479Q242.375 66.24479 242.0625 66.072914Q241.75 65.885414 241.60938 65.58854Q241.48438 65.291664 241.48438 64.33854L241.48438 60.760414L240.71875 60.760414L240.71875 59.947914L241.48438 59.947914L241.48438 58.40104L242.53125 57.77604L242.53125 59.947914L243.59375 59.947914L243.59375 60.760414L242.53125 60.760414L242.53125 64.40104Q242.53125 64.854164 242.57812 64.979164Q242.64062 65.104164 242.76562 65.18229Q242.89062 65.260414 243.125 65.260414Q243.3125 65.260414 243.59375 65.229164ZM248.375 66.166664L248.375 65.24479Q247.64062 66.30729 246.39062 66.30729Q245.84375 66.30729 245.35938 66.104164Q244.89062 65.885414 244.65625 65.572914Q244.42188 65.24479 244.32812 64.77604Q244.26562 64.479164 244.26562 63.791664L244.26562 59.947914L245.32812 59.947914L245.32812 63.40104Q245.32812 64.21354 245.39062 64.510414Q245.48438 64.916664 245.79688 65.166664Q246.125 65.40104 246.60938 65.40104Q247.07812 65.40104 247.48438 65.166664Q247.90625 64.916664 248.07812 64.49479Q248.26562 64.072914 248.26562 63.27604L248.26562 59.947914L249.3125 59.947914L249.3125 66.166664L248.375 66.166664ZM251.28125 66.166664L251.28125 59.947914L252.23438 59.947914L252.23438 60.885414Q252.59375 60.229164 252.89062 60.02604Q253.20312 59.80729 253.57812 59.80729Q254.10938 59.80729 254.65625 60.135414L254.29688 61.11979Q253.90625 60.885414 253.53125 60.885414Q253.17188 60.885414 252.89062 61.104164Q252.625 61.30729 252.51562 61.68229Q252.32812 62.24479 252.32812 62.90104L252.32812 66.166664L251.28125 66.166664ZM255.29688 66.166664L255.29688 59.947914L256.23438 59.947914L256.23438 60.822914Q256.92188 59.80729 258.21875 59.80729Q258.78125 59.80729 259.25 60.010414Q259.73438 60.21354 259.96875 60.541664Q260.20312 60.86979 260.29688 61.30729Q260.34375 61.604164 260.34375 62.33854L260.34375 66.166664L259.29688 66.166664L259.29688 62.385414Q259.29688 61.729164 259.17188 61.416664Q259.04688 61.104164 258.73438 60.916664Q258.42188 60.71354 258.0 60.71354Q257.32812 60.71354 256.82812 61.15104Q256.34375 61.572914 256.34375 62.760414L256.34375 66.166664L255.29688 66.166664Z" fill-rule="nonzero"/><path fill="#ea4335" d="M277.5 57.166668C277.5 56.614384 277.94772 56.166668 278.5 56.166668L288.5 56.166668C289.05228 56.166668 289.5 56.614384 289.5 57.166668L289.5 67.166664C289.5 67.71895 289.05228 68.166664 288.5 68.166664L278.5 68.166664C277.94772 68.166664 277.5 67.71895 277.5 67.166664Z" fill-rule="nonzero"/><path fill="#1a1a1a" d="M299.92188 66.166664L297.64062 57.572914L298.8125 57.572914L300.125 63.21354Q300.32812 64.08854 300.48438 64.96354Q300.8125 63.58854 300.875 63.36979L302.5 57.572914L303.875 57.572914L305.10938 61.916664Q305.5625 63.541664 305.78125 64.96354Q305.9375 64.15104 306.20312 63.08854L307.54688 57.572914L308.6875 57.572914L306.34375 66.166664L305.23438 66.166664L303.4375 59.61979Q303.20312 58.80729 303.15625 58.61979Q303.03125 59.197914 302.90625 59.61979L301.09375 66.166664L299.92188 66.166664ZM308.90625 63.05729Q308.90625 61.322914 309.85938 60.49479Q310.65625 59.80729 311.8125 59.80729Q313.09375 59.80729 313.90625 60.65104Q314.73438 61.479164 314.73438 62.96354Q314.73438 64.166664 314.375 64.854164Q314.01562 65.541664 313.3125 65.93229Q312.625 66.30729 311.8125 66.30729Q310.51562 66.30729 309.70312 65.479164Q308.90625 64.635414 308.90625 63.05729ZM309.98438 63.05729Q309.98438 64.24479 310.5 64.83854Q311.03125 65.43229 311.8125 65.43229Q312.60938 65.43229 313.125 64.83854Q313.64062 64.24479 313.64062 63.02604Q313.64062 61.86979 313.10938 61.27604Q312.59375 60.68229 311.8125 60.68229Q311.03125 60.68229 310.5 61.27604Q309.98438 61.854164 309.98438 63.05729ZM316.28125 66.166664L316.28125 59.947914L317.23438 59.947914L317.23438 60.885414Q317.59375 60.229164 317.89062 60.02604Q318.20312 59.80729 318.57812 59.80729Q319.10938 59.80729 319.65625 60.135414L319.29688 61.11979Q318.90625 60.885414 318.53125 60.885414Q318.17188 60.885414 317.89062 61.104164Q317.625 61.30729 317.51562 61.68229Q317.32812 62.24479 317.32812 62.90104L317.32812 66.166664L316.28125 66.166664ZM319.875 64.30729L320.90625 64.15104Q321.0 64.77604 321.39062 65.104164Q321.79688 65.43229 322.53125 65.43229Q323.25 65.43229 323.59375 65.15104Q323.95312 64.854164 323.95312 64.447914Q323.95312 64.08854 323.64062 63.885414Q323.42188 63.74479 322.5625 63.52604Q321.40625 63.229164 320.95312 63.02604Q320.51562 62.80729 320.28125 62.43229Q320.04688 62.05729 320.04688 61.58854Q320.04688 61.18229 320.23438 60.822914Q320.42188 60.46354 320.75 60.229164Q321.0 60.05729 321.42188 59.93229Q321.84375 59.80729 322.34375 59.80729Q323.0625 59.80729 323.60938 60.02604Q324.17188 60.229164 324.4375 60.58854Q324.70312 60.947914 324.79688 61.541664L323.76562 61.68229Q323.70312 61.21354 323.35938 60.947914Q323.03125 60.666664 322.40625 60.666664Q321.6875 60.666664 321.375 60.916664Q321.0625 61.15104 321.0625 61.479164Q321.0625 61.68229 321.1875 61.83854Q321.32812 62.010414 321.59375 62.11979Q321.75 62.18229 322.53125 62.385414Q323.65625 62.697914 324.09375 62.885414Q324.53125 63.072914 324.78125 63.43229Q325.03125 63.791664 325.03125 64.33854Q325.03125 64.86979 324.71875 65.33854Q324.42188 65.791664 323.84375 66.05729Q323.26562 66.30729 322.53125 66.30729Q321.3125 66.30729 320.67188 65.80729Q320.04688 65.291664 319.875 64.30729ZM328.59375 65.229164L328.75 66.15104Q328.29688 66.24479 327.95312 66.24479Q327.375 66.24479 327.0625 66.072914Q326.75 65.885414 326.60938 65.58854Q326.48438 65.291664 326.48438 64.33854L326.48438 60.760414L325.71875 60.760414L325.71875 59.947914L326.48438 59.947914L326.48438 58.40104L327.53125 57.77604L327.53125 59.947914L328.59375 59.947914L328.59375 60.760414L327.53125 60.760414L327.53125 64.40104Q327.53125 64.854164 327.57812 64.979164Q327.64062 65.104164 327.76562 65.18229Q327.89062 65.260414 328.125 65.260414Q328.3125 65.260414 328.59375 65.229164ZM332.28125 66.166664L332.28125 59.947914L333.23438 59.947914L333.23438 60.885414Q333.59375 60.229164 333.89062 60.02604Q334.20312 59.80729 334.57812 59.80729Q335.10938 59.80729 335.65625 60.135414L335.29688 61.11979Q334.90625 60.885414 334.53125 60.885414Q334.17188 60.885414 333.89062 61.104164Q333.625 61.30729 333.51562 61.68229Q333.32812 62.24479 333.32812 62.90104L333.32812 66.166664L332.28125 66.166664ZM340.54688 64.166664L341.64062 64.291664Q341.39062 65.24479 340.6875 65.77604Q339.98438 66.30729 338.90625 66.30729Q337.54688 66.30729 336.73438 65.46354Q335.9375 64.61979 335.9375 63.104164Q335.9375 61.541664 336.75 60.68229Q337.5625 59.80729 338.84375 59.80729Q340.09375 59.80729 340.875 60.65104Q341.67188 61.49479 341.67188 63.041664Q341.67188 63.135414 341.67188 63.322914L337.03125 63.322914Q337.09375 64.354164 337.60938 64.90104Q338.125 65.43229 338.90625 65.43229Q339.48438 65.43229 339.89062 65.135414Q340.3125 64.822914 340.54688 64.166664ZM337.09375 62.46354L340.5625 62.46354Q340.5 61.666664 340.17188 61.27604Q339.65625 60.666664 338.85938 60.666664Q338.125 60.666664 337.625 61.15104Q337.14062 61.635414 337.09375 62.46354ZM345.59375 65.229164L345.75 66.15104Q345.29688 66.24479 344.95312 66.24479Q344.375 66.24479 344.0625 66.072914Q343.75 65.885414 343.60938 65.58854Q343.48438 65.291664 343.48438 64.33854L343.48438 60.760414L342.71875 60.760414L342.71875 59.947914L343.48438 59.947914L343.48438 58.40104L344.53125 57.77604L344.53125 59.947914L345.59375 59.947914L345.59375 60.760414L344.53125 60.760414L344.53125 64.40104Q344.53125 64.854164 344.57812 64.979164Q344.64062 65.104164 344.76562 65.18229Q344.89062 65.260414 345.125 65.260414Q345.3125 65.260414 345.59375 65.229164ZM350.375 66.166664L350.375 65.24479Q349.64062 66.30729 348.39062 66.30729Q347.84375 66.30729 347.35938 66.104164Q346.89062 65.885414 346.65625 65.572914Q346.42188 65.24479 346.32812 64.77604Q346.26562 64.479164 346.26562 63.791664L346.26562 59.947914L347.32812 59.947914L347.32812 63.40104Q347.32812 64.21354 347.39062 64.510414Q347.48438 64.916664 347.79688 65.166664Q348.125 65.40104 348.60938 65.40104Q349.07812 65.40104 349.48438 65.166664Q349.90625 64.916664 350.07812 64.49479Q350.26562 64.072914 350.26562 63.27604L350.26562 59.947914L351.3125 59.947914L351.3125 66.166664L350.375 66.166664ZM353.28125 66.166664L353.28125 59.947914L354.23438 59.947914L354.23438 60.885414Q354.59375 60.229164 354.89062 60.02604Q355.20312 59.80729 355.57812 59.80729Q356.10938 59.80729 356.65625 60.135414L356.29688 61.11979Q355.90625 60.885414 355.53125 60.885414Q355.17188 60.885414 354.89062 61.104164Q354.625 61.30729 354.51562 61.68229Q354.32812 62.24479 354.32812 62.90104L354.32812 66.166664L353.28125 66.166664ZM357.29688 66.166664L357.29688 59.947914L358.23438 59.947914L358.23438 60.822914Q358.92188 59.80729 360.21875 59.80729Q360.78125 59.80729 361.25 60.010414Q361.73438 60.21354 361.96875 60.541664Q362.20312 60.86979 362.29688 61.30729Q362.34375 61.604164 362.34375 62.33854L362.34375 66.166664L361.29688 66.166664L361.29688 62.385414Q361.29688 61.729164 361.17188 61.416664Q361.04688 61.104164 360.73438 60.916664Q360.42188 60.71354 360.0 60.71354Q359.32812 60.71354 358.82812 61.15104Q358.34375 61.572914 358.34375 62.760414L358.34375 66.166664L357.29688 66.166664Z" fill-rule="nonzero"/><path fill="#757575" d="M19.60625 33.10625L21.3875 32.95Q21.5125 34.0125 21.965626 34.7Q22.434376 35.3875 23.403126 35.825Q24.3875 36.246876 25.621876 36.246876Q26.7 36.246876 27.528126 35.934376Q28.35625 35.60625 28.7625 35.04375Q29.16875 34.48125 29.16875 33.809376Q29.16875 33.1375 28.778126 32.6375Q28.3875 32.1375 27.496876 31.79375Q26.91875 31.559376 24.934376 31.090626Q22.965626 30.621876 22.184376 30.2Q21.153126 29.66875 20.653126 28.871876Q20.153126 28.075 20.153126 27.090626Q20.153126 25.996876 20.7625 25.059376Q21.371876 24.121876 22.559376 23.6375Q23.746876 23.1375 25.184376 23.1375Q26.778126 23.1375 27.996876 23.653126Q29.215626 24.16875 29.85625 25.16875Q30.5125 26.153126 30.559376 27.41875L28.746876 27.559376Q28.60625 26.2 27.7625 25.5125Q26.91875 24.809376 25.2625 24.809376Q23.54375 24.809376 22.746876 25.45Q21.965626 26.075 21.965626 26.95Q21.965626 27.73125 22.528126 28.23125Q23.075 28.73125 25.3875 29.246876Q27.7 29.7625 28.559376 30.153126Q29.809376 30.73125 30.403126 31.621876Q30.996876 32.496876 30.996876 33.653126Q30.996876 34.79375 30.340626 35.809376Q29.684376 36.825 28.45 37.3875Q27.23125 37.95 25.7 37.95Q23.7625 37.95 22.45 37.3875Q21.1375 36.809376 20.3875 35.66875Q19.6375 34.528126 19.60625 33.10625ZM41.2 36.0125Q40.340626 36.98125 39.309376 37.465626Q38.278126 37.95 37.090626 37.95Q34.8875 37.95 33.60625 36.465626Q32.559376 35.246876 32.559376 33.746876Q32.559376 32.41875 33.403126 31.35625Q34.2625 30.29375 35.965626 29.48125Q34.996876 28.35625 34.66875 27.66875Q34.35625 26.98125 34.35625 26.325Q34.35625 25.04375 35.35625 24.090626Q36.371876 23.1375 37.91875 23.1375Q39.371876 23.1375 40.309376 24.04375Q41.246876 24.934376 41.246876 26.2Q41.246876 28.23125 38.54375 29.684376L41.10625 32.95Q41.54375 32.090626 41.79375 30.965626L43.621876 31.35625Q43.153126 33.23125 42.340626 34.434376Q43.325 35.746876 44.575 36.6375L43.403126 38.028126Q42.340626 37.340626 41.2 36.0125ZM37.621876 28.54375Q38.778126 27.871876 39.10625 27.371876Q39.45 26.85625 39.45 26.246876Q39.45 25.5125 38.98125 25.059376Q38.5125 24.590626 37.825 24.590626Q37.10625 24.590626 36.6375 25.04375Q36.16875 25.496876 36.16875 26.16875Q36.16875 26.496876 36.340626 26.871876Q36.5125 27.23125 36.840626 27.6375L37.621876 28.54375ZM40.10625 34.621876L36.871876 30.621876Q35.45 31.48125 34.95 32.215626Q34.45 32.934376 34.45 33.653126Q34.45 34.5125 35.1375 35.45Q35.840626 36.3875 37.10625 36.3875Q37.903126 36.3875 38.746876 35.903126Q39.590626 35.403126 40.10625 34.621876ZM46.246876 37.7L46.246876 23.3875L51.6375 23.3875Q53.075 23.3875 53.825 23.5125Q54.871876 23.7 55.590626 24.2Q56.309376 24.684376 56.73125 25.575Q57.16875 26.465626 57.16875 27.528126Q57.16875 29.35625 55.996876 30.621876Q54.840626 31.871876 51.809376 31.871876L48.1375 31.871876L48.1375 37.7L46.246876 37.7ZM48.1375 30.184376L51.840626 30.184376Q53.66875 30.184376 54.434376 29.5125Q55.215626 28.825 55.215626 27.575Q55.215626 26.684376 54.7625 26.04375Q54.309376 25.403126 53.575 25.2Q53.090626 25.075 51.79375 25.075L48.1375 25.075L48.1375 30.184376ZM58.528126 33.95L60.371876 33.79375Q60.575 35.1375 61.325 35.825Q62.075 36.496876 63.1375 36.496876Q64.40312 36.496876 65.27812 35.54375Q66.15312 34.590626 66.15312 32.996876Q66.15312 31.496876 65.30937 30.6375Q64.46562 29.7625 63.10625 29.7625Q62.246876 29.7625 61.559376 30.153126Q60.8875 30.528126 60.496876 31.153126L58.840626 30.934376L60.23125 23.575L67.35625 23.575L67.35625 25.2625L61.6375 25.2625L60.871876 29.10625Q62.153126 28.2 63.575 28.2Q65.45 28.2 66.73125 29.5125Q68.02812 30.809376 68.02812 32.840626Q68.02812 34.79375 66.8875 36.2Q65.5125 37.95 63.1375 37.95Q61.184376 37.95 59.934376 36.85625Q58.7 35.7625 58.528126 33.95ZM69.52812 30.6375Q69.52812 28.10625 70.04375 26.559376Q70.575 24.996876 71.60625 24.16875Q72.6375 23.325 74.2 23.325Q75.35625 23.325 76.21562 23.79375Q77.09062 24.246876 77.65312 25.121876Q78.21562 25.996876 78.54375 27.2625Q78.87187 28.5125 78.87187 30.6375Q78.87187 33.153126 78.34062 34.7Q77.825 36.246876 76.79375 37.10625Q75.77812 37.95 74.2 37.95Q72.12187 37.95 70.95 36.465626Q69.52812 34.66875 69.52812 30.6375ZM71.34062 30.6375Q71.34062 34.16875 72.15312 35.340626Q72.98125 36.496876 74.2 36.496876Q75.40312 36.496876 76.23125 35.325Q77.05937 34.153126 77.05937 30.6375Q77.05937 27.10625 76.23125 25.95Q75.40312 24.778126 74.18437 24.778126Q72.96562 24.778126 72.24687 25.809376Q71.34062 27.10625 71.34062 30.6375ZM80.52812 30.6375Q80.52812 28.10625 81.04375 26.559376Q81.575 24.996876 82.60625 24.16875Q83.6375 23.325 85.2 23.325Q86.35625 23.325 87.21562 23.79375Q88.09062 24.246876 88.65312 25.121876Q89.21562 25.996876 89.54375 27.2625Q89.87187 28.5125 89.87187 30.6375Q89.87187 33.153126 89.34062 34.7Q88.825 36.246876 87.79375 37.10625Q86.77812 37.95 85.2 37.95Q83.12187 37.95 81.95 36.465626Q80.52812 34.66875 80.52812 30.6375ZM82.34062 30.6375Q82.34062 34.16875 83.15312 35.340626Q83.98125 36.496876 85.2 36.496876Q86.40312 36.496876 87.23125 35.325Q88.05937 34.153126 88.05937 30.6375Q88.05937 27.10625 87.23125 25.95Q86.40312 24.778126 85.18437 24.778126Q83.96562 24.778126 83.24687 25.809376Q82.34062 27.10625 82.34062 30.6375ZM97.34062 33.403126L97.34062 31.6375L102.73125 31.6375L102.73125 33.403126L97.34062 33.403126ZM111.16875 37.7L111.16875 23.3875L116.54375 23.3875Q118.18437 23.3875 119.16875 23.825Q120.15312 24.246876 120.71562 25.153126Q121.27812 26.059376 121.27812 27.04375Q121.27812 27.965626 120.77812 28.778126Q120.29375 29.590626 119.27812 30.075Q120.575 30.465626 121.27812 31.3875Q121.98125 32.29375 121.98125 33.54375Q121.98125 34.559376 121.54375 35.41875Q121.12187 36.278126 120.49687 36.746876Q119.87187 37.215626 118.93437 37.465626Q117.99687 37.7 116.62187 37.7L111.16875 37.7ZM113.05937 29.403126L116.15312 29.403126Q117.41875 29.403126 117.96562 29.23125Q118.68437 29.0125 119.04375 28.528126Q119.41875 28.028126 119.41875 27.2625Q119.41875 26.559376 119.075 26.0125Q118.73125 25.465626 118.09062 25.278126Q117.46562 25.075 115.91875 25.075L113.05937 25.075L113.05937 29.403126ZM113.05937 36.0125L116.62187 36.0125Q117.54375 36.0125 117.91875 35.934376Q118.575 35.825 119.0125 35.559376Q119.45 35.278126 119.73125 34.7625Q120.0125 34.23125 120.0125 33.54375Q120.0125 32.746876 119.60625 32.153126Q119.2 31.559376 118.46562 31.325Q117.73125 31.090626 116.37187 31.090626L113.05937 31.090626L113.05937 36.0125ZM131.12187 34.35625L132.93437 34.590626Q132.5125 36.16875 131.34062 37.059376Q130.18437 37.934376 128.37187 37.934376Q126.10625 37.934376 124.7625 36.54375Q123.43437 35.1375 123.43437 32.60625Q123.43437 29.98125 124.77812 28.54375Q126.12187 27.090626 128.27812 27.090626Q130.35625 27.090626 131.66875 28.5125Q132.99687 29.91875 132.99687 32.496876Q132.99687 32.653126 132.98125 32.965626L125.24687 32.965626Q125.34062 34.66875 126.21562 35.575Q127.09062 36.48125 128.3875 36.48125Q129.35625 36.48125 130.02812 35.98125Q130.71562 35.465626 131.12187 34.35625ZM125.34062 31.5125L131.1375 31.5125Q131.02812 30.215626 130.48125 29.559376Q129.6375 28.54375 128.29375 28.54375Q127.09062 28.54375 126.2625 29.35625Q125.43437 30.153126 125.34062 31.5125ZM134.30937 34.60625L136.05937 34.325Q136.2 35.371876 136.87187 35.934376Q137.54375 36.48125 138.74687 36.48125Q139.95 36.48125 140.52812 35.996876Q141.12187 35.496876 141.12187 34.840626Q141.12187 34.246876 140.60625 33.903126Q140.24687 33.66875 138.80937 33.309376Q136.87187 32.809376 136.12187 32.465626Q135.3875 32.10625 134.99687 31.48125Q134.60625 30.840626 134.60625 30.075Q134.60625 29.3875 134.91875 28.79375Q135.24687 28.2 135.79375 27.809376Q136.2 27.5125 136.90312 27.309376Q137.62187 27.090626 138.43437 27.090626Q139.65312 27.090626 140.575 27.45Q141.49687 27.79375 141.93437 28.403126Q142.37187 28.996876 142.54375 29.996876L140.825 30.23125Q140.7 29.434376 140.1375 28.996876Q139.575 28.54375 138.55937 28.54375Q137.34062 28.54375 136.825 28.95Q136.30937 29.340626 136.30937 29.871876Q136.30937 30.215626 136.52812 30.496876Q136.73125 30.778126 137.2 30.965626Q137.46562 31.059376 138.74687 31.403126Q140.62187 31.903126 141.35625 32.23125Q142.09062 32.54375 142.5125 33.153126Q142.93437 33.746876 142.93437 34.653126Q142.93437 35.528126 142.41875 36.309376Q141.90312 37.090626 140.93437 37.5125Q139.96562 37.934376 138.74687 37.934376Q136.73125 37.934376 135.66875 37.090626Q134.60625 36.246876 134.30937 34.60625ZM148.85625 36.121876L149.10625 37.684376Q148.37187 37.840626 147.77812 37.840626Q146.825 37.840626 146.29375 37.54375Q145.77812 37.23125 145.55937 36.746876Q145.34062 36.246876 145.34062 34.66875L145.34062 28.7L144.05937 28.7L144.05937 27.325L145.34062 27.325L145.34062 24.7625L147.09062 23.7L147.09062 27.325L148.85625 27.325L148.85625 28.7L147.09062 28.7L147.09062 34.7625Q147.09062 35.5125 147.18437 35.73125Q147.27812 35.934376 147.48125 36.075Q147.7 36.2 148.09062 36.2Q148.37187 36.2 148.85625 36.121876ZM156.99687 37.7L156.99687 27.325L158.575 27.325L158.575 28.903126Q159.18437 27.79375 159.7 27.45Q160.21562 27.090626 160.825 27.090626Q161.71562 27.090626 162.6375 27.653126L162.02812 29.29375Q161.3875 28.903126 160.74687 28.903126Q160.16875 28.903126 159.7 29.2625Q159.24687 29.60625 159.04375 30.215626Q158.7625 31.153126 158.7625 32.2625L158.7625 37.7L156.99687 37.7ZM171.12187 34.35625L172.93437 34.590626Q172.5125 36.16875 171.34062 37.059376Q170.18437 37.934376 168.37187 37.934376Q166.10625 37.934376 164.7625 36.54375Q163.43437 35.1375 163.43437 32.60625Q163.43437 29.98125 164.77812 28.54375Q166.12187 27.090626 168.27812 27.090626Q170.35625 27.090626 171.66875 28.5125Q172.99687 29.91875 172.99687 32.496876Q172.99687 32.653126 172.98125 32.965626L165.24687 32.965626Q165.34062 34.66875 166.21562 35.575Q167.09062 36.48125 168.3875 36.48125Q169.35625 36.48125 170.02812 35.98125Q170.71562 35.465626 171.12187 34.35625ZM165.34062 31.5125L171.1375 31.5125Q171.02812 30.215626 170.48125 29.559376Q169.6375 28.54375 168.29375 28.54375Q167.09062 28.54375 166.2625 29.35625Q165.43437 30.153126 165.34062 31.5125ZM178.85625 36.121876L179.10625 37.684376Q178.37187 37.840626 177.77812 37.840626Q176.825 37.840626 176.29375 37.54375Q175.77812 37.23125 175.55937 36.746876Q175.34062 36.246876 175.34062 34.66875L175.34062 28.7L174.05937 28.7L174.05937 27.325L175.34062 27.325L175.34062 24.7625L177.09062 23.7L177.09062 27.325L178.85625 27.325L178.85625 28.7L177.09062 28.7L177.09062 34.7625Q177.09062 35.5125 177.18437 35.73125Q177.27812 35.934376 177.48125 36.075Q177.7 36.2 178.09062 36.2Q178.37187 36.2 178.85625 36.121876ZM187.80937 37.7L187.80937 36.16875Q186.60625 37.934376 184.52812 37.934376Q183.60625 37.934376 182.80937 37.590626Q182.0125 37.23125 181.62187 36.7Q181.24687 36.16875 181.09062 35.3875Q180.98125 34.871876 180.98125 33.746876L180.98125 27.325L182.73125 27.325L182.73125 33.075Q182.73125 34.45 182.84062 34.934376Q183.0125 35.621876 183.54375 36.028126Q184.09062 36.41875 184.87187 36.41875Q185.66875 36.41875 186.35625 36.0125Q187.05937 35.60625 187.34062 34.91875Q187.6375 34.215626 187.6375 32.8875L187.6375 27.325L189.3875 27.325L189.3875 37.7L187.80937 37.7ZM191.99687 37.7L191.99687 27.325L193.575 27.325L193.575 28.903126Q194.18437 27.79375 194.7 27.45Q195.21562 27.090626 195.825 27.090626Q196.71562 27.090626 197.6375 27.653126L197.02812 29.29375Q196.3875 28.903126 195.74687 28.903126Q195.16875 28.903126 194.7 29.2625Q194.24687 29.60625 194.04375 30.215626Q193.7625 31.153126 193.7625 32.2625L193.7625 37.7L191.99687 37.7ZM199.0125 37.7L199.0125 27.325L200.60625 27.325L200.60625 28.809376Q201.74687 27.090626 203.90312 27.090626Q204.84062 27.090626 205.62187 27.434376Q206.41875 27.7625 206.80937 28.309376Q207.2 28.85625 207.35625 29.60625Q207.45 30.10625 207.45 31.325L207.45 37.7L205.68437 37.7L205.68437 31.3875Q205.68437 30.309376 205.48125 29.778126Q205.27812 29.246876 204.74687 28.934376Q204.23125 28.621876 203.52812 28.621876Q202.40312 28.621876 201.59062 29.340626Q200.77812 30.04375 200.77812 32.028126L200.77812 37.7L199.0125 37.7ZM222.79375 36.41875Q221.80937 37.246876 220.90312 37.590626Q219.99687 37.934376 218.96562 37.934376Q217.2625 37.934376 216.34062 37.10625Q215.41875 36.2625 215.41875 34.965626Q215.41875 34.2 215.7625 33.575Q216.12187 32.95 216.68437 32.575Q217.24687 32.184376 217.95 31.98125Q218.46562 31.85625 219.5125 31.715626Q221.6375 31.465626 222.6375 31.121876Q222.65312 30.7625 222.65312 30.653126Q222.65312 29.590626 222.15312 29.1375Q221.48125 28.54375 220.15312 28.54375Q218.90312 28.54375 218.30937 28.98125Q217.73125 29.41875 217.45 30.528126L215.73125 30.29375Q215.96562 29.184376 216.49687 28.5125Q217.02812 27.825 218.04375 27.465626Q219.05937 27.090626 220.40312 27.090626Q221.73125 27.090626 222.55937 27.403126Q223.3875 27.715626 223.77812 28.2Q224.16875 28.66875 224.325 29.3875Q224.41875 29.840626 224.41875 31.0125L224.41875 33.35625Q224.41875 35.809376 224.52812 36.465626Q224.6375 37.10625 224.98125 37.7L223.1375 37.7Q222.87187 37.153126 222.79375 36.41875ZM222.6375 32.496876Q221.68437 32.8875 219.7625 33.153126Q218.68437 33.309376 218.23125 33.5125Q217.79375 33.7 217.54375 34.075Q217.29375 34.45 217.29375 34.91875Q217.29375 35.621876 217.825 36.090626Q218.35625 36.559376 219.3875 36.559376Q220.40312 36.559376 221.18437 36.121876Q221.98125 35.66875 222.35625 34.903126Q222.6375 34.29375 222.6375 33.1375L222.6375 32.496876ZM227.0125 37.7L227.0125 27.325L228.60625 27.325L228.60625 28.809376Q229.74687 27.090626 231.90312 27.090626Q232.84062 27.090626 233.62187 27.434376Q234.41875 27.7625 234.80937 28.309376Q235.2 28.85625 235.35625 29.60625Q235.45 30.10625 235.45 31.325L235.45 37.7L233.68437 37.7L233.68437 31.3875Q233.68437 30.309376 233.48125 29.778126Q233.27812 29.246876 232.74687 28.934376Q232.23125 28.621876 231.52812 28.621876Q230.40312 28.621876 229.59062 29.340626Q228.77812 30.04375 228.77812 32.028126L228.77812 37.7L227.0125 37.7ZM244.74687 37.7L244.74687 36.3875Q243.7625 37.934376 241.84062 37.934376Q240.60625 37.934376 239.55937 37.246876Q238.52812 36.559376 237.95 35.340626Q237.3875 34.121876 237.3875 32.528126Q237.3875 30.965626 237.90312 29.7Q238.41875 28.434376 239.45 27.7625Q240.49687 27.090626 241.7625 27.090626Q242.7 27.090626 243.43437 27.496876Q244.16875 27.8875 244.6375 28.5125L244.6375 23.3875L246.37187 23.3875L246.37187 37.7L244.74687 37.7ZM239.18437 32.528126Q239.18437 34.5125 240.02812 35.496876Q240.87187 36.48125 242.0125 36.48125Q243.16875 36.48125 243.96562 35.54375Q244.77812 34.60625 244.77812 32.66875Q244.77812 30.54375 243.95 29.54375Q243.1375 28.54375 241.93437 28.54375Q240.7625 28.54375 239.96562 29.5125Q239.18437 30.465626 239.18437 32.528126ZM257.7469 37.7L253.95 23.3875L255.8875 23.3875L258.0594 32.7625Q258.41876 34.246876 258.66876 35.7Q259.21564 33.403126 259.3094 33.04375L262.04376 23.3875L264.325 23.3875L266.3719 30.621876Q267.15314 33.325 267.4969 35.7Q267.7625 34.340626 268.2 32.575L270.45 23.3875L272.35626 23.3875L268.4344 37.7L266.60626 37.7L263.59064 26.79375Q263.2 25.41875 263.1375 25.10625Q262.90314 26.090626 262.71564 26.79375L259.6844 37.7L257.7469 37.7ZM273.3719 32.5125Q273.3719 29.6375 274.96564 28.246876Q276.3094 27.090626 278.23126 27.090626Q280.3719 27.090626 281.71564 28.496876Q283.075 29.903126 283.075 32.371876Q283.075 34.371876 282.48126 35.528126Q281.8875 36.66875 280.73126 37.309376Q279.59064 37.934376 278.23126 37.934376Q276.04376 37.934376 274.7 36.54375Q273.3719 35.1375 273.3719 32.5125ZM275.16876 32.5125Q275.16876 34.5125 276.02814 35.496876Q276.90314 36.48125 278.23126 36.48125Q279.54376 36.48125 280.40314 35.496876Q281.27814 34.496876 281.27814 32.45Q281.27814 30.528126 280.40314 29.54375Q279.52814 28.54375 278.23126 28.54375Q276.90314 28.54375 276.02814 29.54375Q275.16876 30.528126 275.16876 32.5125ZM284.9969 37.7L284.9969 27.325L286.575 27.325L286.575 28.903126Q287.1844 27.79375 287.7 27.45Q288.21564 27.090626 288.825 27.090626Q289.71564 27.090626 290.6375 27.653126L290.02814 29.29375Q289.3875 28.903126 288.7469 28.903126Q288.16876 28.903126 287.7 29.2625Q287.2469 29.60625 287.04376 30.215626Q286.7625 31.153126 286.7625 32.2625L286.7625 37.7L284.9969 37.7ZM291.3094 34.60625L293.0594 34.325Q293.2 35.371876 293.8719 35.934376Q294.54376 36.48125 295.7469 36.48125Q296.95 36.48125 297.52814 35.996876Q298.1219 35.496876 298.1219 34.840626Q298.1219 34.246876 297.60626 33.903126Q297.2469 33.66875 295.8094 33.309376Q293.8719 32.809376 293.1219 32.465626Q292.3875 32.10625 291.9969 31.48125Q291.60626 30.840626 291.60626 30.075Q291.60626 29.3875 291.91876 28.79375Q292.2469 28.2 292.79376 27.809376Q293.2 27.5125 293.90314 27.309376Q294.6219 27.090626 295.4344 27.090626Q296.65314 27.090626 297.575 27.45Q298.4969 27.79375 298.9344 28.403126Q299.3719 28.996876 299.54376 29.996876L297.825 30.23125Q297.7 29.434376 297.1375 28.996876Q296.575 28.54375 295.5594 28.54375Q294.34064 28.54375 293.825 28.95Q293.3094 29.340626 293.3094 29.871876Q293.3094 30.215626 293.52814 30.496876Q293.73126 30.778126 294.2 30.965626Q294.46564 31.059376 295.7469 31.403126Q297.6219 31.903126 298.35626 32.23125Q299.09064 32.54375 299.5125 33.153126Q299.9344 33.746876 299.9344 34.653126Q299.9344 35.528126 299.41876 36.309376Q298.90314 37.090626 297.9344 37.5125Q296.96564 37.934376 295.7469 37.934376Q293.73126 37.934376 292.66876 37.090626Q291.60626 36.246876 291.3094 34.60625ZM305.85626 36.121876L306.10626 37.684376Q305.3719 37.840626 304.77814 37.840626Q303.825 37.840626 303.29376 37.54375Q302.77814 37.23125 302.5594 36.746876Q302.34064 36.246876 302.34064 34.66875L302.34064 28.7L301.0594 28.7L301.0594 27.325L302.34064 27.325L302.34064 24.7625L304.09064 23.7L304.09064 27.325L305.85626 27.325L305.85626 28.7L304.09064 28.7L304.09064 34.7625Q304.09064 35.5125 304.1844 35.73125Q304.27814 35.934376 304.48126 36.075Q304.7 36.2 305.09064 36.2Q305.3719 36.2 305.85626 36.121876ZM313.9969 37.7L313.9969 27.325L315.575 27.325L315.575 28.903126Q316.1844 27.79375 316.7 27.45Q317.21564 27.090626 317.825 27.090626Q318.71564 27.090626 319.6375 27.653126L319.02814 29.29375Q318.3875 28.903126 317.7469 28.903126Q317.16876 28.903126 316.7 29.2625Q316.2469 29.60625 316.04376 30.215626Q315.7625 31.153126 315.7625 32.2625L315.7625 37.7L313.9969 37.7ZM328.1219 34.35625L329.9344 34.590626Q329.5125 36.16875 328.34064 37.059376Q327.1844 37.934376 325.3719 37.934376Q323.10626 37.934376 321.7625 36.54375Q320.4344 35.1375 320.4344 32.60625Q320.4344 29.98125 321.77814 28.54375Q323.1219 27.090626 325.27814 27.090626Q327.35626 27.090626 328.66876 28.5125Q329.9969 29.91875 329.9969 32.496876Q329.9969 32.653126 329.98126 32.965626L322.2469 32.965626Q322.34064 34.66875 323.21564 35.575Q324.09064 36.48125 325.3875 36.48125Q326.35626 36.48125 327.02814 35.98125Q327.71564 35.465626 328.1219 34.35625ZM322.34064 31.5125L328.1375 31.5125Q328.02814 30.215626 327.48126 29.559376Q326.6375 28.54375 325.29376 28.54375Q324.09064 28.54375 323.2625 29.35625Q322.4344 30.153126 322.34064 31.5125ZM335.85626 36.121876L336.10626 37.684376Q335.3719 37.840626 334.77814 37.840626Q333.825 37.840626 333.29376 37.54375Q332.77814 37.23125 332.5594 36.746876Q332.34064 36.246876 332.34064 34.66875L332.34064 28.7L331.0594 28.7L331.0594 27.325L332.34064 27.325L332.34064 24.7625L334.09064 23.7L334.09064 27.325L335.85626 27.325L335.85626 28.7L334.09064 28.7L334.09064 34.7625Q334.09064 35.5125 334.1844 35.73125Q334.27814 35.934376 334.48126 36.075Q334.7 36.2 335.09064 36.2Q335.3719 36.2 335.85626 36.121876ZM344.8094 37.7L344.8094 36.16875Q343.60626 37.934376 341.52814 37.934376Q340.60626 37.934376 339.8094 37.590626Q339.0125 37.23125 338.6219 36.7Q338.2469 36.16875 338.09064 35.3875Q337.98126 34.871876 337.98126 33.746876L337.98126 27.325L339.73126 27.325L339.73126 33.075Q339.73126 34.45 339.84064 34.934376Q340.0125 35.621876 340.54376 36.028126Q341.09064 36.41875 341.8719 36.41875Q342.66876 36.41875 343.35626 36.0125Q344.0594 35.60625 344.34064 34.91875Q344.6375 34.215626 344.6375 32.8875L344.6375 27.325L346.3875 27.325L346.3875 37.7L344.8094 37.7ZM348.9969 37.7L348.9969 27.325L350.575 27.325L350.575 28.903126Q351.1844 27.79375 351.7 27.45Q352.21564 27.090626 352.825 27.090626Q353.71564 27.090626 354.6375 27.653126L354.02814 29.29375Q353.3875 28.903126 352.7469 28.903126Q352.16876 28.903126 351.7 29.2625Q351.2469 29.60625 351.04376 30.215626Q350.7625 31.153126 350.7625 32.2625L350.7625 37.7L348.9969 37.7ZM356.0125 37.7L356.0125 27.325L357.60626 27.325L357.60626 28.809376Q358.7469 27.090626 360.90314 27.090626Q361.84064 27.090626 362.6219 27.434376Q363.41876 27.7625 363.8094 28.309376Q364.2 28.85625 364.35626 29.60625Q364.45 30.10625 364.45 31.325L364.45 37.7L362.6844 37.7L362.6844 31.3875Q362.6844 30.309376 362.48126 29.778126Q362.27814 29.246876 361.7469 28.934376Q361.23126 28.621876 360.52814 28.621876Q359.40314 28.621876 358.59064 29.340626Q357.77814 30.04375 357.77814 32.028126L357.77814 37.7L356.0125 37.7Z" fill-rule="nonzero"/></svg>